<?xml version="1.0" encoding="UTF-8"?>
<svg id="AC_white_no_text" data-name="AC white no text" xmlns="http://www.w3.org/2000/svg" viewBox="0 0 50 60">
  <defs>
    <style>
      .cls-1 {
        fill: #fff;
      }
    </style>
  </defs>
  <g id="Group_22" data-name="Group 22">
    <path id="Path_2" data-name="Path 2" class="cls-1" d="M49.71,16.98c-.72-1.86-2.81-2.8-4.67-2.08h0c-1.38,.53-2.3,1.85-2.32,3.33h0c-.01,.53-.35,1-.84,1.19l-.14,.05-13.24,5.08h0c-.2,.07-.38,.06-.45-.04s0-.27,.15-.43h.01s10.17-9.84,10.17-9.84l.12-.12c.38-.37,.95-.47,1.44-.26h0c1.35,.61,2.93,.34,4-.69,1.44-1.39,1.48-3.68,.09-5.11,0,0,0,0,0,0-1.39-1.44-3.68-1.48-5.11-.09h0c-1.07,1.03-1.4,2.6-.83,3.97h0c.2,.49,.07,1.06-.31,1.43l-.11,.11-10.2,9.85h0c-.16,.14-.32,.21-.43,.13s-.11-.25-.03-.45v-.02s5.53-13.02,5.53-13.02l.07-.15c.21-.49,.69-.81,1.22-.8h0c1.48,.04,2.84-.83,3.42-2.19,.78-1.84-.08-3.96-1.91-4.74,0,0,0,0,0,0-1.84-.78-3.96,.08-4.74,1.91,0,0,0,0,0,0-.58,1.36-.27,2.94,.79,3.98h0c.37,.38,.48,.95,.27,1.44l-.06,.14-5.54,13.05h0c-.09,.19-.22,.32-.34,.29s-.2-.19-.2-.4V8.19c0-.53,.32-1.01,.81-1.22h0c1.38-.55,2.29-1.88,2.29-3.36,0-2-1.62-3.61-3.61-3.61s-3.61,1.62-3.61,3.61c0,1.48,.9,2.81,2.28,3.36h0c.49,.2,.81,.68,.81,1.22v14.33c0,.21-.08,.38-.2,.4s-.26-.1-.34-.29h0l-5.53-13.04-.07-.16c-.21-.49-.1-1.06,.27-1.44h0c1.05-1.04,1.37-2.62,.79-3.98-.78-1.84-2.9-2.69-4.74-1.91-1.84,.78-2.7,2.9-1.92,4.74,.58,1.36,1.93,2.24,3.41,2.2h0c.53,0,1.02,.31,1.22,.8l.07,.15,5.53,13.02v.02c.09,.2,.08,.38-.02,.45s-.27,.01-.43-.13h0L12.33,13.52l-.12-.12c-.38-.37-.51-.93-.31-1.43h0c.56-1.37,.23-2.95-.83-3.97-1.44-1.39-3.72-1.35-5.11,.09,0,0,0,0,0,0-1.39,1.44-1.35,3.72,.09,5.11,1.07,1.03,2.65,1.3,4,.69h0c.49-.21,1.06-.11,1.44,.26l.12,.12,10.17,9.83h.01c.15,.16,.21,.34,.15,.44s-.25,.12-.45,.04h0l-13.22-5.08-.16-.06c-.5-.19-.83-.66-.84-1.19h0c-.02-1.48-.94-2.8-2.32-3.33-1.86-.72-3.95,.22-4.67,2.08-.72,1.86,.22,3.95,2.08,4.67h0c1.38,.53,2.95,.16,3.95-.92h0c.37-.39,.93-.51,1.43-.32l.14,.05,13.21,5.07h.03c.2,.09,.33,.18,.29,.43,0,.01,0,.02,0,.04-.02,.16-.03,.32-.03,.48,0,1.48,.9,2.81,2.28,3.36h0c.49,.2,.81,.68,.81,1.21v15.06h1.04v-15.09c0-.53,.32-1.01,.81-1.21h0c1.38-.54,2.3-1.87,2.3-3.36,0-.16-.01-.32-.03-.48v-.03c-.04-.25,.09-.34,.29-.42h.02s13.22-5.08,13.22-5.08l.14-.05c.5-.19,1.06-.07,1.43,.32h0c1,1.09,2.57,1.46,3.95,.93,1.86-.72,2.79-2.8,2.08-4.67"/>
    <path id="Path_3" data-name="Path 3" class="cls-1" d="M25,51.77c-3.54-.11-6.93-1.43-9.61-3.74-2.65,2.35-6.07,3.63-9.61,3.59-1.98,0-3.95-.39-5.77-1.17v-2.8c1.79,.92,3.77,1.41,5.78,1.45,3.3,0,7.8-1.7,9.61-4.88,1.81,3.18,6.3,4.88,9.61,4.88s7.8-1.7,9.61-4.88c1.81,3.18,6.3,4.88,9.61,4.88,2.01-.04,3.99-.53,5.78-1.45v2.8c-1.83,.77-3.79,1.17-5.77,1.17-3.54,.04-6.97-1.24-9.62-3.59-2.68,2.32-6.07,3.64-9.61,3.75"/>
    <path id="Path_4" data-name="Path 4" class="cls-1" d="M25,53.37c-3.53-.03-6.93-1.3-9.61-3.59-2.69,2.27-6.09,3.53-9.61,3.55-1.99,0-3.96-.42-5.78-1.22v2.67c1.83,.77,3.79,1.17,5.77,1.16,3.5,0,6.9-1.2,9.62-3.42,2.72,2.2,6.11,3.39,9.61,3.37,3.5,.03,6.89-1.16,9.61-3.37,2.71,2.21,6.11,3.42,9.61,3.42,1.98,0,3.95-.39,5.77-1.16v-2.67c-1.82,.8-3.79,1.21-5.78,1.22-3.52-.02-6.92-1.28-9.61-3.55-2.68,2.28-6.08,3.55-9.6,3.59"/>
    <path id="Path_5" data-name="Path 5" class="cls-1" d="M25,59.99c-3.44,.07-6.81-.96-9.61-2.94-2.8,2-6.17,3.04-9.61,2.94-1.97,.03-3.92-.29-5.77-.96v-2.59c1.82,.81,3.79,1.23,5.78,1.25,3.5,.02,6.9-1.19,9.6-3.42,2.72,2.17,6.13,3.31,9.61,3.21,3.48,.1,6.89-1.04,9.61-3.21,2.7,2.23,6.1,3.44,9.61,3.42,1.99-.02,3.96-.45,5.78-1.25v2.59c-1.85,.67-3.81,1-5.77,.96-3.44,.09-6.81-.94-9.61-2.94-2.81,1.99-6.17,3.02-9.61,2.94h0Z"/>
    <path id="Path_6" data-name="Path 6" class="cls-1" d="M43.74,25c-3.64-.16-7.23,.82-10.29,2.78-3.04,1.84-5.45,4.55-6.92,7.78,3.13-1.57,13.55-6.54,22.89-8.04-.91-1.33-2.86-2.37-5.68-2.53"/>
    <path id="Path_7" data-name="Path 7" class="cls-1" d="M49.78,28.21c-9.73,1.5-20.77,6.91-23.31,8.2,3.09,.92,6.33,1.24,9.54,.93,4.96-.41,9.25-2.03,11.82-4.18,1.93-1.57,2.32-3.15,2.14-4.28-.04-.23-.1-.46-.18-.67"/>
    <path id="Path_8" data-name="Path 8" class="cls-1" d="M6.27,25c3.64-.16,7.23,.82,10.29,2.78,3.04,1.84,5.45,4.55,6.92,7.78-3.13-1.57-13.55-6.54-22.89-8.04,.91-1.33,2.86-2.37,5.68-2.53"/>
    <path id="Path_9" data-name="Path 9" class="cls-1" d="M.23,28.21c9.73,1.5,20.77,6.91,23.31,8.2-3.09,.92-6.33,1.24-9.54,.93-4.96-.41-9.25-2.03-11.82-4.18C.26,31.6-.13,30.02,.04,28.88c.04-.23,.1-.46,.18-.67"/>
  </g>
</svg>