<svg id="Layer_1" data-name="Layer 1" xmlns="http://www.w3.org/2000/svg" viewBox="0 0 59.91 72"><defs><style>.cls-1{fill:#e63739;}.cls-2{fill:#6e963c;}.cls-3{fill:#007cb9;}</style></defs><path class="cls-1" d="M29.34,55.36V36a4.34,4.34,0,0,1-3.71-4.29v-.36a.88.88,0,0,0-.12-.5,2.08,2.08,0,0,0-.81-.53L10.44,24.85,9.9,24.6a3.41,3.41,0,0,0-1.33-.31,1.59,1.59,0,0,0-1,.38,4.33,4.33,0,1,1,1.08-2.83,1.58,1.58,0,0,0,.46,1,3.48,3.48,0,0,0,1.21.66l.58.18L25,29.09l.17.07a2.14,2.14,0,0,0,1,.14h.11a2.1,2.1,0,0,0-.54-.86l-11-10.61-.45-.43a3.38,3.38,0,0,0-1.1-.81,1.7,1.7,0,0,0-1,0,4.33,4.33,0,1,1,2-5.78,4.29,4.29,0,0,1,.08,3.59,1.61,1.61,0,0,0,.05,1.06,3.45,3.45,0,0,0,.86,1.08l.44.42L26.48,27.44l.13.13a2,2,0,0,0,.82.5h.12a2,2,0,0,0-.16-1L21.39,13l-.24-.57a3.41,3.41,0,0,0-.7-1.17,1.6,1.6,0,0,0-.95-.43,4.32,4.32,0,1,1,2.79-1.2,1.64,1.64,0,0,0-.37,1A3.42,3.42,0,0,0,22.28,12l.23.56,5.9,13.89.07.17a2.19,2.19,0,0,0,.56.78l.1.05a2.17,2.17,0,0,0,.24-1V10.51a3.43,3.43,0,0,0-.19-1.35,1.69,1.69,0,0,0-.71-.76,4.32,4.32,0,1,1,3,0,1.65,1.65,0,0,0-.73.77,3.55,3.55,0,0,0-.18,1.37V26.4a2.15,2.15,0,0,0,.21.94.11.11,0,0,0,.13,0,2.19,2.19,0,0,0,.56-.78l.07-.17L37.43,12.5l.24-.56A3.44,3.44,0,0,0,38,10.61a1.64,1.64,0,0,0-.37-1,4.32,4.32,0,1,1,2.79,1.2,1.62,1.62,0,0,0-1,.43,3.41,3.41,0,0,0-.7,1.17l-.24.57L32.6,27a2.2,2.2,0,0,0-.18.95.11.11,0,0,0,.13,0,2,2,0,0,0,.82-.5l.13-.13L44.35,16.84l.43-.42a3.57,3.57,0,0,0,.85-1.08,1.55,1.55,0,0,0,0-1.06,4.32,4.32,0,1,1,2.1,2.19,1.7,1.7,0,0,0-1,0,3.38,3.38,0,0,0-1.1.81l-.45.43-11,10.61a2,2,0,0,0-.53.8.12.12,0,0,0,.1.09,2.14,2.14,0,0,0,1-.14L35,29l14.08-5.41.56-.22a3.33,3.33,0,0,0,1.21-.66,1.58,1.58,0,0,0,.46-1,4.32,4.32,0,1,1,1.08,2.83,1.59,1.59,0,0,0-1-.38,3.41,3.41,0,0,0-1.33.31l-.58.22L35.19,30.3a2.08,2.08,0,0,0-.81.53,1,1,0,0,0-.12.59.54.54,0,0,1,0,.18v.09A4.34,4.34,0,0,1,30.57,36V55.36Z"/><path class="cls-2" d="M32,42.76C40.48,38.7,49.48,35,58.8,33.3c1.51,4-3.25,6.77-6.2,8.23C46.45,44.22,38.38,45.25,32,42.75m-3.78-.87c-8.41-4.09-17.41-7.83-26.7-9.27,2.66-3.52,7.9-3.26,11.76-2.5A23,23,0,0,1,28.2,41.88m-.26.87c-6.4,2.5-14.46,1.46-20.62-1.22-2.95-1.47-7.71-4.24-6.2-8.23,9.32,1.65,18.32,5.4,26.82,9.46m3.78-.87A23,23,0,0,1,46.66,30.12c3.86-.76,9.1-1,11.76,2.5-9.29,1.44-18.29,5.17-26.7,9.27"/><path class="cls-3" d="M59.9,65.29A19.36,19.36,0,0,1,53,66.67a19,19,0,0,1-11.5-4,18.43,18.43,0,0,1-23,0A18.3,18.3,0,0,1,0,65.33V62.06A17.26,17.26,0,0,0,6.9,63.54a17.88,17.88,0,0,0,11.54-4.4,17.29,17.29,0,0,0,23,0,17.77,17.77,0,0,0,11.5,4.4,17.42,17.42,0,0,0,7-1.54v3.29Zm0,5.32A18.33,18.33,0,0,1,41.47,68a18.43,18.43,0,0,1-23,0A18.3,18.3,0,0,1,0,70.66V67.38A17.26,17.26,0,0,0,6.9,68.86a17.88,17.88,0,0,0,11.54-4.4,17.29,17.29,0,0,0,23,0,17.79,17.79,0,0,0,11.5,4.4,17.37,17.37,0,0,0,7-1.49v3.25ZM39.43,55.07a9.3,9.3,0,0,0,2-2.42,9.5,9.5,0,0,0,2,2.42,15.27,15.27,0,0,0,9.45,3.42,15.75,15.75,0,0,0,7-1.72V60.1A18.75,18.75,0,0,1,53,61.53a18.38,18.38,0,0,1-11.5-4.21,17.84,17.84,0,0,1-23,0A17.75,17.75,0,0,1,0,60.11V56.78A15.62,15.62,0,0,0,6.9,58.5a15.38,15.38,0,0,0,9.5-3.43,9.5,9.5,0,0,0,2-2.42,9.5,9.5,0,0,0,2,2.42,14.81,14.81,0,0,0,19,0"/></svg>