<svg id="Layer_1" data-name="Layer 1" xmlns="http://www.w3.org/2000/svg" width="206" height="72" viewBox="0 0 206 72">
  <title>DLogoAC</title>
  <g>
    <g>
      <path d="M175.44,55.36V36a4.33,4.33,0,0,1-3.71-4.29c0-.21,0-0.36,0-0.36a0.87,0.87,0,0,0-.12-0.5,2.14,2.14,0,0,0-.81-0.53l-14.26-5.47L156,24.6a3.35,3.35,0,0,0-1.33-.31,1.63,1.63,0,0,0-1,.38,4.32,4.32,0,1,1,1.08-2.83,1.61,1.61,0,0,0,.46,1,3.44,3.44,0,0,0,1.21.66L157,23.68l14.09,5.41,0.17,0.07a2.13,2.13,0,0,0,1,.14l0.11,0a2.1,2.1,0,0,0-.54-0.86l-11-10.61-0.45-.43a3.4,3.4,0,0,0-1.1-.81,1.63,1.63,0,0,0-1,0,4.33,4.33,0,1,1,2.1-2.19,1.62,1.62,0,0,0,.05,1.06,3.43,3.43,0,0,0,.86,1.08l0.44,0.42,10.85,10.48,0.13,0.13a2.14,2.14,0,0,0,.82.5h0.12a2.08,2.08,0,0,0-.16-1l-6-14.06-0.24-.57a3.37,3.37,0,0,0-.7-1.17,1.62,1.62,0,0,0-.95-0.43,4.32,4.32,0,1,1,2.79-1.2,1.6,1.6,0,0,0-.37,1,3.43,3.43,0,0,0,.36,1.33l0.23,0.56,5.9,13.89,0.07,0.17a2.14,2.14,0,0,0,.56.78l0.1,0.05a2.09,2.09,0,0,0,.24-1V10.51a3.39,3.39,0,0,0-.19-1.35,1.62,1.62,0,0,0-.71-0.76,4.32,4.32,0,1,1,3,0,1.6,1.6,0,0,0-.73.77,3.43,3.43,0,0,0-.18,1.37V26.4a2.11,2.11,0,0,0,.21.94,0.11,0.11,0,0,0,.13,0,2.14,2.14,0,0,0,.56-0.78l0.07-.17,5.89-13.89,0.24-.56a3.45,3.45,0,0,0,.37-1.33,1.6,1.6,0,0,0-.37-1,4.32,4.32,0,1,1,2.79,1.2,1.63,1.63,0,0,0-1,.43,3.4,3.4,0,0,0-.7,1.17l-0.24.57L178.7,27a2.11,2.11,0,0,0-.18.95,0.12,0.12,0,0,0,.13,0,2.13,2.13,0,0,0,.82-0.5l0.13-.13,10.85-10.48,0.43-.42a3.44,3.44,0,0,0,.85-1.08,1.59,1.59,0,0,0,.05-1.06,4.32,4.32,0,1,1,2.1,2.19,1.64,1.64,0,0,0-1,0,3.4,3.4,0,0,0-1.1.81l-0.45.43-11,10.61a2.13,2.13,0,0,0-.53.8,0.12,0.12,0,0,0,.1.09,2.14,2.14,0,0,0,1-.14l0.17-.07,14.08-5.41,0.56-.22a3.4,3.4,0,0,0,1.21-.66,1.6,1.6,0,0,0,.46-1,4.32,4.32,0,1,1,1.08,2.83,1.63,1.63,0,0,0-1-.38,3.35,3.35,0,0,0-1.33.31l-0.58.22L181.29,30.3a2.1,2.1,0,0,0-.81.53,1,1,0,0,0-.12.59,1,1,0,0,1,0,.18v0.09A4.33,4.33,0,0,1,176.67,36V55.36h-1.23Z" style="fill: #e63739"/>
      <path d="M178.08,42.76c8.5-4.06,17.5-7.81,26.82-9.46,1.51,4-3.25,6.77-6.2,8.23-6.15,2.69-14.22,3.72-20.62,1.22m-3.78-.87c-8.41-4.09-17.41-7.83-26.7-9.27,2.66-3.52,7.9-3.26,11.76-2.5a23,23,0,0,1,14.94,11.77m-0.26.87c-6.4,2.5-14.46,1.46-20.62-1.22-2.95-1.47-7.71-4.24-6.2-8.23,9.32,1.65,18.32,5.4,26.82,9.46m3.78-.87a23,23,0,0,1,14.94-11.77c3.86-.76,9.1-1,11.76,2.5-9.29,1.44-18.29,5.17-26.7,9.27" style="fill: #6e963c"/>
      <path d="M206,65.29a19.28,19.28,0,0,1-6.93,1.38,19,19,0,0,1-11.5-4,18.44,18.44,0,0,1-23,0,18.31,18.31,0,0,1-18.43,2.66V62.06A17.22,17.22,0,0,0,153,63.54a17.9,17.9,0,0,0,11.54-4.4,17.28,17.28,0,0,0,23,0,17.77,17.77,0,0,0,11.5,4.4A17.36,17.36,0,0,0,206,62v3.24Zm0,5.32A19.31,19.31,0,0,1,199.07,72a19,19,0,0,1-11.5-4,18.44,18.44,0,0,1-23,0,18.31,18.31,0,0,1-18.43,2.66V67.38A17.19,17.19,0,0,0,153,68.86a17.9,17.9,0,0,0,11.54-4.4,17.28,17.28,0,0,0,23,0,17.78,17.78,0,0,0,11.5,4.4A17.33,17.33,0,0,0,206,67.37v3.25ZM185.53,55.07a9.31,9.31,0,0,0,2-2.42,9.44,9.44,0,0,0,2,2.42,15.28,15.28,0,0,0,9.45,3.42A15.78,15.78,0,0,0,206,56.77V60.1a18.78,18.78,0,0,1-6.93,1.43,18.36,18.36,0,0,1-11.5-4.21,17.85,17.85,0,0,1-23,0,17.74,17.74,0,0,1-18.43,2.79V56.78A15.63,15.63,0,0,0,153,58.5a15.42,15.42,0,0,0,9.5-3.43,9.43,9.43,0,0,0,2-2.42,9.4,9.4,0,0,0,2,2.42,14.82,14.82,0,0,0,18.95,0" style="fill: #007cb9"/>
    </g>
    <g>
      <path d="M94.1,42.3l0,12.36a9.34,9.34,0,0,0,.57,3.53,11.7,11.7,0,0,1-2.83-.12c-1-.19-1.9-0.59-1.9-1.42V56A5.93,5.93,0,0,1,85,58.6c-4.64,0-5.8-2.61-5.8-6.54V42.3h4.36v9c0,2.61.77,3.9,2.79,3.9,2.36,0,3.38-1.32,3.38-4.55V42.3H94.1Zm1.53,15.87V42.3h4.14v2.21a5.94,5.94,0,0,1,4.94-2.64c4.64,0,5.8,2.61,5.8,6.54v7.7a2.6,2.6,0,0,0,.56,2.08,14,14,0,0,1-2.31,0c-1.28-.12-2.62-0.5-2.62-1.52V49.2c0-2.61-.77-3.9-2.79-3.9-2.37,0-3.38,1.32-3.38,4.54v8.32H95.63ZM134,56.82V35.37c0.27,0.51,1.6.71,2.75,0.8,0.63,0.05,1.21,0,1.61,0V54.66a8.37,8.37,0,0,0,.55,3.53,14,14,0,0,1-2.3,0c-0.23,0-.44,0-0.66-0.09l-0.15,0-0.12,0-0.19,0-0.13,0-0.2-.06L135,57.83a1.44,1.44,0,0,1-1-1m-1.62-17H128V36.25h4.36v3.59ZM128,42.3h4.36V58.17H128V42.3Zm-1,5.59h-4.27a3,3,0,0,0-3.22-2.73c-2.8,0-3.72,2.82-3.72,5.16s0.89,5,3.62,5a3.35,3.35,0,0,0,3.47-3.22h4.21c-0.55,4.21-3.47,6.51-7.65,6.51-4.79,0-8-3.38-8-8.14,0-4.94,2.95-8.6,8.11-8.6,3.74,0,7.18,2,7.46,6M66.25,50.25c0,2.52.89,5.07,3.84,5.07S74,52.77,74,50.25s-0.89-5.1-3.87-5.1-3.84,2.55-3.84,5.1m-4.36,0c0-5.07,3.22-8.38,8.2-8.38s8.23,3.32,8.23,8.38-3.23,8.35-8.23,8.35-8.2-3.32-8.2-8.35m-1-6.63H56.19a4.74,4.74,0,0,0-4.79-3.84c-4.33,0-6,3.68-6,7.52,0,3.65,1.63,7.34,6,7.34,2.95,0,4.61-2,5-4.91H61c-0.49,5.46-4.27,9-9.64,9-6.78,0-10.78-5.07-10.78-11.39,0-6.51,4-11.58,10.78-11.58,4.82,0,8.88,2.82,9.46,7.89" style="fill: #00304b"/>
      <path d="M60.23,30c-2.73,0-3.62-2.73-3.62-5s0.92-5.16,3.72-5.16a3,3,0,0,1,3.22,2.73h4.27c-0.28-4.05-3.71-6-7.46-6-5.16,0-8.11,3.65-8.11,8.6,0,4.76,3.22,8.14,8,8.14,4.17,0,7.09-2.3,7.65-6.51H63.7A3.35,3.35,0,0,1,60.23,30Z" style="fill: #00304b"/>
      <path d="M83.84,17H78.68l-5.5,5.71V11H68.83V32.89h4.36V27.43l1.69-1.63L78,30.94s1,1.95,4.52,1.95h2l-6.66-10Z" style="fill: #00304b"/>
      <path d="M51.36,17H47v8.32c0,3.22-1,4.54-3.38,4.54-2,0-2.79-1.29-2.79-3.9V17H36.47v9.76c0,3.93,1.17,6.54,5.8,6.54a5.93,5.93,0,0,0,4.94-2.64v0.69c0,0.83.88,1.23,1.9,1.42a11.61,11.61,0,0,0,2.83.12,9.29,9.29,0,0,1-.58-3.53V17Z" style="fill: #00304b"/>
      <path d="M138.37,29.38V11H134l-0.06,8a5.46,5.46,0,0,0-4.7-2.37c-4.67,0-7,4-7,8.23s2.33,8.51,7.12,8.51a5.6,5.6,0,0,0,4.67-2.1v0.14a1.43,1.43,0,0,0,0,.15c0.13,1,1.55,1.29,2.83,1.39a14.31,14.31,0,0,0,2.08,0A8.08,8.08,0,0,1,138.37,29.38Zm-8,.67c-2.7,0-3.84-2.61-3.84-5.1s1-5.06,3.84-5.06,3.75,2.46,3.75,5S133.3,30.05,130.41,30.05Z" style="fill: #00304b"/>
      <path d="M121.44,29.5V23.13c0-3.93-1.17-6.54-5.8-6.54a5.93,5.93,0,0,0-4.94,2.64V17h-4.14V32.89h4.36V24.57c0-3.22,1-4.54,3.38-4.54,2,0,2.8,1.29,2.8,3.9v7.45c0,1,1.34,1.39,2.62,1.52a14.4,14.4,0,0,0,2.31,0,2.6,2.6,0,0,1-.56-2.09V29.5Z" style="fill: #00304b"/>
      <path d="M105.11,21.1c0-3.8-3.81-4.51-7-4.51-3.56,0-7.21,1.23-7.46,5.31H95c0.15-1.72,1.23-2.4,2.89-2.4s2.82,0.28,2.82,2.15-2.49,1.69-5.16,2.09-5.4,1.23-5.4,4.82c0,3.25,2.4,4.76,5.4,4.76a7.28,7.28,0,0,0,5.34-2c0,2,4.73,1.54,4.73,1.54a8.15,8.15,0,0,1-.55-3.53V21.1Zm-4.36,5.65c0,1-.12,3.65-3.53,3.65-1.41,0-2.67-.4-2.67-2s1.23-2.06,2.58-2.33,2.88-.28,3.62-0.92v1.63Z" style="fill: #00304b"/>
      <path d="M89.36,11H85V31.54a1.31,1.31,0,0,0,.86,1L86,32.55l0.17,0.07,0.2,0.06,0.12,0,0.19,0,0.12,0,0.15,0c0.21,0,.43.07,0.66,0.09a14.28,14.28,0,0,0,2.3,0,8.33,8.33,0,0,1-.55-3.53V11Z" style="fill: #00304b"/>
      <g>
        <path id="_Path_" data-name="&lt;Path&gt;" d="M29.81,70.68l0-5.23h0.83v0.79a1.9,1.9,0,0,1,1.7-.91,1.55,1.55,0,0,1,1.73,1.35,5.37,5.37,0,0,1,.06,1l0,2.15a3.88,3.88,0,0,0,.08.84H34A0.66,0.66,0,0,1,33.28,70l0-2.37a5.78,5.78,0,0,0,0-.81,1,1,0,0,0-1.06-.73,1.5,1.5,0,0,0-1.17.61,1.73,1.73,0,0,0-.36,1.09l0,2.9H29.81Z" style="fill: #00304b"/>
        <path d="M10,69a2.41,2.41,0,0,1-2.34,1.86,2.76,2.76,0,0,1,0-5.5,2.26,2.26,0,0,1,2.28,1.84,4.68,4.68,0,0,1,.1,1.06H6.08a1.73,1.73,0,0,0,1.67,1.95,1.37,1.37,0,0,0,1.37-1.21H10Zm-1-1.38A1.49,1.49,0,0,0,7.58,66,1.54,1.54,0,0,0,6.1,67.58h3Z" style="fill: #00304b"/>
        <path d="M16,67.15l-1,1v2.5H14V63.5h1V67l3.4-3.51h1.18l-2.91,3Zm0.66-.68,2.67,4.21H19.16a2,2,0,0,1-1.25-.39L16,67.15" style="fill: #00304b"/>
        <path d="M48.37,65.42v1a1.91,1.91,0,0,1,1.81-1v1l-0.37,0a1.35,1.35,0,0,0-1.22.62,2.5,2.5,0,0,0-.22,1.33v2.43H47.48V65.42h0.89Z" style="fill: #00304b"/>
        <path d="M83.24,69.84V67.7h0V67.44a3.06,3.06,0,0,0-.14-1.18,1.55,1.55,0,0,0-1.41-.9,2.46,2.46,0,0,0-1.72,1,1.53,1.53,0,0,0-1.4-1,2,2,0,0,0-1.54.85V65.53H76.16v4.55a0.57,0.57,0,0,0,.69.59h0.21a6.82,6.82,0,0,1,0-.82V67.62a1.17,1.17,0,0,1,.34-1.05,1.52,1.52,0,0,1,1-.38,0.92,0.92,0,0,1,.76.35,1.37,1.37,0,0,1,.2.82v0.28h0v2.48a0.55,0.55,0,0,0,.69.55h0.21a6.82,6.82,0,0,1,0-.82s0-2.18,0-2.24a1.2,1.2,0,0,1,.31-1,1.47,1.47,0,0,1,1-.44,0.89,0.89,0,0,1,.9.65,3.34,3.34,0,0,1,0,.81h0v2.44a0.57,0.57,0,0,0,.69.59h0.21A6.82,6.82,0,0,1,83.24,69.84Z" style="fill: #00304b"/>
        <path d="M105.65,69.84V67.61h0V63.5h-1.23l-2.22,5.64L100,63.5H98.78v4.1h0v2.47a0.59,0.59,0,0,0,.69.59h0.3a4.78,4.78,0,0,1-.06-0.83l0-2.24h0l0-2.85,2,5.26h0a0.86,0.86,0,0,0,.83.67h0.12l0.31-.8h0l2-5.23-0.06,2.95h0l-0.05,2.47a0.63,0.63,0,0,0,.69.59h0.3A4.78,4.78,0,0,1,105.65,69.84Z" style="fill: #00304b"/>
        <path id="_Compound_Path_" data-name="&lt;Compound Path&gt;" d="M22.73,69.29a1.3,1.3,0,0,1-1.28.75,1,1,0,0,1-1.07-.67c-0.15-.66.34-0.87,0.92-1a4.64,4.64,0,0,0,1.57-.43,3.34,3.34,0,0,1-.14,1.35m1,0.39a4.06,4.06,0,0,1,0-.75V67.51a4.93,4.93,0,0,0-.05-0.95c-0.23-1-1.17-1.28-2.15-1.23a1.65,1.65,0,0,0-1.83,1.78l0.84,0a1,1,0,0,1,1.16-1,1,1,0,0,1,1.18.63c0.15,0.69-.23.76-1.09,0.88-1.1.15-2.53,0.32-2.19,1.82a1.69,1.69,0,0,0,1.88,1.38A1.66,1.66,0,0,0,23,70a0.73,0.73,0,0,0,.82.7c0.56,0,.47-0.78.47-0.78A0.7,0.7,0,0,1,24,70a0.31,0.31,0,0,1-.32-0.31" style="fill: #00304b"/>
        <path id="_Path_2" data-name="&lt;Path&gt;" d="M28.86,65.42v4.45a3.57,3.57,0,0,0,.09.79H28.72A0.69,0.69,0,0,1,28,69.87a1.85,1.85,0,0,1-1.66.92,1.53,1.53,0,0,1-1.71-1.34,5.61,5.61,0,0,1-.06-1v-3h0.84l0,3.06a5.89,5.89,0,0,0,0,.81,1,1,0,0,0,1,.72A1.59,1.59,0,0,0,28,68.32v-2.9h0.84Z" style="fill: #00304b"/>
        <g>
          <polygon id="_Path_3" data-name="&lt;Path&gt;" points="35.09 63.5 35.08 64.54 35.95 64.54 35.95 63.5 35.09 63.5" style="fill: #00304b"/>
          <polygon id="_Path_4" data-name="&lt;Path&gt;" points="35.08 70.67 35.08 65.48 35.94 65.48 35.93 70.67 35.08 70.67" style="fill: #00304b"/>
        </g>
        <path id="_Compound_Path_2" data-name="&lt;Compound Path&gt;" d="M53.62,69.29a1.3,1.3,0,0,1-1.28.75,1,1,0,0,1-1.07-.67c-0.15-.66.34-0.87,0.92-1a4.64,4.64,0,0,0,1.57-.43,3.34,3.34,0,0,1-.14,1.35m1,0.39a4.06,4.06,0,0,1,0-.75V67.51a4.93,4.93,0,0,0-.05-0.95c-0.23-1-1.17-1.28-2.15-1.23a1.65,1.65,0,0,0-1.83,1.78l0.84,0a1,1,0,0,1,1.16-1,1,1,0,0,1,1.18.63c0.15,0.69-.23.76-1.09,0.88-1.1.15-2.53,0.32-2.19,1.82a1.69,1.69,0,0,0,1.88,1.38A1.66,1.66,0,0,0,53.87,70a0.73,0.73,0,0,0,.82.7c0.56,0,.47-0.78.47-0.78a0.7,0.7,0,0,1-.25.08,0.31,0.31,0,0,1-.32-0.31" style="fill: #00304b"/>
        <path d="M61.44,70.88a2.47,2.47,0,0,1-2.55-2.7,2.54,2.54,0,0,1,2.58-2.79A2.47,2.47,0,0,1,64,68.13,2.51,2.51,0,0,1,61.44,70.88ZM63,67.41a1.43,1.43,0,0,0-1.46-1.32c-1.17,0-1.65.91-1.65,2.1s0.45,2,1.58,2c1.46,0,1.57-1.52,1.58-2A3,3,0,0,0,63,67.41Z" style="fill: #00304b"/>
        <g>
          <path d="M74.14,64.12a0.7,0.7,0,0,1-.46.63H72.44c-0.43,0-.25-0.63-0.25-0.63h2Z" style="fill: #00304b"/>
          <path id="_Compound_Path_3" data-name="&lt;Compound Path&gt;" d="M74.09,69.29a1.3,1.3,0,0,1-1.28.75,1,1,0,0,1-1.07-.67c-0.15-.66.34-0.87,0.92-1a4.64,4.64,0,0,0,1.57-.43,3.34,3.34,0,0,1-.14,1.35m1,0.39a4.06,4.06,0,0,1,0-.75V67.51A4.93,4.93,0,0,0,75,66.56c-0.23-1-1.17-1.28-2.15-1.23A1.65,1.65,0,0,0,71,67.12l0.84,0a1,1,0,0,1,1.16-1,1,1,0,0,1,1.18.63c0.15,0.69-.23.76-1.09,0.88-1.1.15-2.53,0.32-2.19,1.82a1.69,1.69,0,0,0,1.88,1.38A1.66,1.66,0,0,0,74.34,70a0.73,0.73,0,0,0,.82.7c0.56,0,.47-0.78.47-0.78a0.7,0.7,0,0,1-.25.08,0.31,0.31,0,0,1-.32-0.31" style="fill: #00304b"/>
        </g>
        <g>
          <polygon id="_Path_5" data-name="&lt;Path&gt;" points="94.05 63.5 94.04 64.54 94.9 64.54 94.91 63.5 94.05 63.5" style="fill: #00304b"/>
          <polygon id="_Path_6" data-name="&lt;Path&gt;" points="94.03 70.67 94.04 65.48 94.89 65.48 94.88 70.67 94.03 70.67" style="fill: #00304b"/>
        </g>
        <path id="_Compound_Path_4" data-name="&lt;Compound Path&gt;" d="M87.21,69.29a1.3,1.3,0,0,1-1.28.75,1,1,0,0,1-1.07-.67c-0.15-.66.34-0.87,0.92-1a4.64,4.64,0,0,0,1.57-.43,3.34,3.34,0,0,1-.14,1.35m1,0.39a4.06,4.06,0,0,1,0-.75V67.51a4.93,4.93,0,0,0-.05-0.95c-0.23-1-1.17-1.28-2.15-1.23a1.65,1.65,0,0,0-1.83,1.78l0.84,0a1,1,0,0,1,1.16-1,1,1,0,0,1,1.18.63c0.15,0.69-.23.76-1.09,0.88-1.1.15-2.53,0.32-2.19,1.82a1.69,1.69,0,0,0,1.88,1.38A1.66,1.66,0,0,0,87.47,70a0.73,0.73,0,0,0,.82.7c0.56,0,.47-0.78.47-0.78a0.7,0.7,0,0,1-.25.08,0.31,0.31,0,0,1-.32-0.31" style="fill: #00304b"/>
        <path id="_Path_7" data-name="&lt;Path&gt;" d="M89.28,70.65V63.48h0.85V67.7l2.16-2.24h1.11l-1.85,1.92,2,3.33H93.37a1.09,1.09,0,0,1-1-.46L91,67.89l-0.83.91v1.85H89.28Z" style="fill: #00304b"/>
        <path id="_Compound_Path_5" data-name="&lt;Compound Path&gt;" d="M109.71,69.29a1.3,1.3,0,0,1-1.28.75,1,1,0,0,1-1.07-.67c-0.15-.66.34-0.87,0.92-1a4.64,4.64,0,0,0,1.57-.43,3.34,3.34,0,0,1-.14,1.35m1,0.39a4.06,4.06,0,0,1,0-.75V67.51a4.93,4.93,0,0,0-.05-0.95c-0.23-1-1.17-1.28-2.15-1.23a1.65,1.65,0,0,0-1.83,1.78l0.84,0a1,1,0,0,1,1.16-1,1,1,0,0,1,1.18.63c0.15,0.69-.23.76-1.09,0.88-1.1.15-2.53,0.32-2.19,1.82a1.69,1.69,0,0,0,1.88,1.38A1.66,1.66,0,0,0,110,70a0.73,0.73,0,0,0,.82.7c0.56,0,.47-0.78.47-0.78A0.7,0.7,0,0,1,111,70a0.31,0.31,0,0,1-.32-0.31" style="fill: #00304b"/>
        <path id="_Path_8" data-name="&lt;Path&gt;" d="M111.71,70.65V63.48h0.85V67.7l2.16-2.24h1.11L114,67.38l2,3.33H115.8a1.09,1.09,0,0,1-1-.46l-1.37-2.35-0.83.91v1.85h-0.85Z" style="fill: #00304b"/>
        <path id="_Compound_Path_6" data-name="&lt;Compound Path&gt;" d="M119.3,69.29A1.3,1.3,0,0,1,118,70a1,1,0,0,1-1.07-.67c-0.15-.66.34-0.87,0.92-1a4.64,4.64,0,0,0,1.57-.43,3.34,3.34,0,0,1-.14,1.35m1,0.39a4.06,4.06,0,0,1,0-.75V67.51a4.93,4.93,0,0,0-.05-0.95c-0.23-1-1.17-1.28-2.15-1.23a1.65,1.65,0,0,0-1.83,1.78l0.84,0a1,1,0,0,1,1.16-1,1,1,0,0,1,1.18.63c0.15,0.69-.23.76-1.09,0.88-1.1.15-2.53,0.32-2.19,1.82A1.69,1.69,0,0,0,118,70.79a1.66,1.66,0,0,0,1.56-.81,0.73,0.73,0,0,0,.82.7c0.56,0,.47-0.78.47-0.78a0.7,0.7,0,0,1-.25.08,0.31,0.31,0,0,1-.32-0.31" style="fill: #00304b"/>
        <path id="_Path_9" data-name="&lt;Path&gt;" d="M125.53,65.42v4.45a3.57,3.57,0,0,0,.09.79H125.4a0.69,0.69,0,0,1-.69-0.79,1.85,1.85,0,0,1-1.66.92,1.53,1.53,0,0,1-1.71-1.34,5.61,5.61,0,0,1-.06-1v-3h0.84l0,3.06a5.89,5.89,0,0,0,0,.81,1,1,0,0,0,1,.72,1.59,1.59,0,0,0,1.49-1.71v-2.9h0.84Z" style="fill: #00304b"/>
        <path id="_Compound_Path_7" data-name="&lt;Compound Path&gt;" d="M132.6,69.29a1.3,1.3,0,0,1-1.28.75,1,1,0,0,1-1.07-.67c-0.15-.66.34-0.87,0.92-1a4.64,4.64,0,0,0,1.57-.43,3.34,3.34,0,0,1-.14,1.35m1,0.39a4.06,4.06,0,0,1,0-.75V67.51a4.93,4.93,0,0,0-.05-0.95c-0.23-1-1.17-1.28-2.15-1.23a1.65,1.65,0,0,0-1.83,1.78l0.84,0a1,1,0,0,1,1.16-1,1,1,0,0,1,1.18.63c0.15,0.69-.23.76-1.09,0.88-1.1.15-2.53,0.32-2.19,1.82a1.69,1.69,0,0,0,1.88,1.38,1.66,1.66,0,0,0,1.56-.81,0.73,0.73,0,0,0,.82.7c0.56,0,.47-0.78.47-0.78a0.7,0.7,0,0,1-.25.08,0.31,0.31,0,0,1-.32-0.31" style="fill: #00304b"/>
        <path id="_Path_10" data-name="&lt;Path&gt;" d="M138.84,65.42v4.45a3.57,3.57,0,0,0,.09.79h-0.21a0.69,0.69,0,0,1-.69-0.79,1.85,1.85,0,0,1-1.66.92,1.53,1.53,0,0,1-1.71-1.34,5.61,5.61,0,0,1-.06-1v-3h0.84l0,3.06a5.89,5.89,0,0,0,0,.81,1,1,0,0,0,1,.72A1.59,1.59,0,0,0,138,68.32v-2.9h0.84Z" style="fill: #00304b"/>
        <path id="_Path_11" data-name="&lt;Path&gt;" d="M6.21,64.33H4v5.52a3.08,3.08,0,0,0,.11.84H3.83A0.66,0.66,0,0,1,3.11,70V64.32H0.95V63.49H6.21v0.84Z" style="fill: #00304b"/>
        <path d="M46.7,69a2.41,2.41,0,0,1-2.34,1.86,2.76,2.76,0,0,1,0-5.5,2.26,2.26,0,0,1,2.28,1.84,4.68,4.68,0,0,1,.1,1.06H42.77a1.73,1.73,0,0,0,1.67,1.95A1.37,1.37,0,0,0,45.81,69H46.7Zm-1-1.38a1.49,1.49,0,0,0-1.49-1.59,1.54,1.54,0,0,0-1.47,1.59h3Z" style="fill: #00304b"/>
        <path id="_Path_12" data-name="&lt;Path&gt;" d="M36.84,70.68l0-7.19H37.7v2.79a1.88,1.88,0,0,1,1.68-.9,1.53,1.53,0,0,1,1.72,1.33,5.32,5.32,0,0,1,.06,1l0,2.13a3.84,3.84,0,0,0,.08.83H41A0.66,0.66,0,0,1,40.28,70l0-2.35a5.73,5.73,0,0,0,0-.8,1,1,0,0,0-1.05-.72,1.49,1.49,0,0,0-1.16.6,1.71,1.71,0,0,0-.35,1.08l0,2.87H36.84Z" style="fill: #00304b"/>
        <path id="_Path_13" data-name="&lt;Path&gt;" d="M71.38,64.33H69.14v5.52a3.08,3.08,0,0,0,.11.84H69A0.66,0.66,0,0,1,68.28,70V64.32H66.12V63.49h5.26v0.84Z" style="fill: #00304b"/>
        <path d="M127.29,65.42v1a1.91,1.91,0,0,1,1.81-1v1l-0.37,0a1.35,1.35,0,0,0-1.22.62,2.5,2.5,0,0,0-.22,1.33v2.43H126.4V65.42h0.89Z" style="fill: #00304b"/>
      </g>
      <path id="_Compound_Path_8" data-name="&lt;Compound Path&gt;" d="M26,16.35H26.1l2.75,8H23.2ZM15.38,32.79h4.86l1.71-4.86H30.1s0.89,2.72,1.23,3.62c0.72,1.88,5.4,1.23,5.4,1.23L28.58,11H23.66Z" style="fill: #00304b"/>
    </g>
  </g>
</svg>
