<svg xmlns="http://www.w3.org/2000/svg" width="107.972mm" height="25.4mm" viewBox="0 0 306.063 72">
  <title>ac-logo-te-reo-large</title>
  <g>
    <g>
      <path d="M275.526,55.315V35.943a4.331,4.331,0,0,1-3.7-4.285c0-.207.014-.36.014-.36a.864.864,0,0,0-.12-.5,2.125,2.125,0,0,0-.8-.53L256.669,24.8l-.58-.221a3.353,3.353,0,0,0-1.326-.312,1.629,1.629,0,0,0-.966.384,4.317,4.317,0,1,1,1.077-2.833,1.6,1.6,0,0,0,.462.956,3.426,3.426,0,0,0,1.21.663l.563.216,14.074,5.4.171.065a2.137,2.137,0,0,0,.95.144.475.475,0,0,0,.112-.037,2.1,2.1,0,0,0-.541-.856L260.9,17.776l-.448-.43a3.412,3.412,0,0,0-1.1-.806,1.624,1.624,0,0,0-1.038-.023,4.321,4.321,0,1,1,2.1-2.188,1.614,1.614,0,0,0,.053,1.061,3.429,3.429,0,0,0,.855,1.083l.436.419L272.6,27.364l.131.127a2.154,2.154,0,0,0,.821.5.634.634,0,0,0,.116.008,2.087,2.087,0,0,0-.164-1L267.539,12.96l-.242-.571a3.35,3.35,0,0,0-.7-1.17,1.611,1.611,0,0,0-.946-.428A4.318,4.318,0,1,1,268.438,9.6a1.6,1.6,0,0,0-.366,1,3.412,3.412,0,0,0,.363,1.333l.235.555,5.892,13.875.07.168a2.136,2.136,0,0,0,.558.784.561.561,0,0,0,.1.054,2.089,2.089,0,0,0,.24-.984V10.5a3.376,3.376,0,0,0-.185-1.35,1.615,1.615,0,0,0-.705-.763,4.319,4.319,0,1,1,3.033-.011,1.6,1.6,0,0,0-.729.774,3.429,3.429,0,0,0-.183,1.369l0,.6V26.2l0,.183a2.115,2.115,0,0,0,.207.941.116.116,0,0,0,.127-.011,2.132,2.132,0,0,0,.557-.784l.071-.168,5.889-13.875.236-.555a3.451,3.451,0,0,0,.366-1.333,1.6,1.6,0,0,0-.368-1,4.314,4.314,0,1,1,2.786,1.194,1.629,1.629,0,0,0-.949.428,3.386,3.386,0,0,0-.7,1.17l-.241.571-5.962,14.045a2.107,2.107,0,0,0-.177.946.126.126,0,0,0,.128.044,2.142,2.142,0,0,0,.82-.5l.132-.127,10.844-10.472.434-.419a3.44,3.44,0,0,0,.854-1.083,1.578,1.578,0,0,0,.052-1.061,4.315,4.315,0,1,1,2.1,2.188,1.628,1.628,0,0,0-1.039.023,3.409,3.409,0,0,0-1.1.806l-.444.43-10.974,10.6a2.127,2.127,0,0,0-.534.8.122.122,0,0,0,.1.092,2.15,2.15,0,0,0,.954-.144l.169-.065,14.072-5.4.563-.216a3.4,3.4,0,0,0,1.211-.663,1.6,1.6,0,0,0,.462-.956,4.315,4.315,0,1,1,1.077,2.833,1.628,1.628,0,0,0-.965-.384,3.349,3.349,0,0,0-1.326.312l-.581.221-14.241,5.468a2.1,2.1,0,0,0-.8.53.937.937,0,0,0-.12.584,1.03,1.03,0,0,1,0,.183v.089a4.331,4.331,0,0,1-3.7,4.285V55.315Z" fill="#ed3024"/>
      <path d="M278.163,42.729c8.493-4.056,17.489-7.8,26.8-9.452,1.5,3.988-3.252,6.759-6.2,8.228-6.146,2.685-14.2,3.72-20.6,1.224m-3.779-.873c-8.405-4.088-17.4-7.82-26.681-9.258,2.662-3.52,7.9-3.257,11.751-2.5a22.964,22.964,0,0,1,14.93,11.757m-.262.873c-6.393,2.5-14.451,1.461-20.6-1.224-2.946-1.469-7.7-4.24-6.2-8.228,9.307,1.648,18.3,5.4,26.8,9.452m3.781-.873A22.966,22.966,0,0,1,292.833,30.1c3.854-.758,9.089-1.021,11.75,2.5-9.285,1.438-18.276,5.17-26.68,9.258" fill="#6d9b31"/>
      <path d="M306.062,65.238a19.263,19.263,0,0,1-6.927,1.383,19.022,19.022,0,0,1-11.488-4.033,18.43,18.43,0,0,1-23.012,0,18.294,18.294,0,0,1-18.41,2.661V62.007a17.189,17.189,0,0,0,6.882,1.478,17.891,17.891,0,0,0,11.528-4.392,17.269,17.269,0,0,0,23.013,0,17.758,17.758,0,0,0,11.487,4.392A17.342,17.342,0,0,0,306.062,62Zm0,5.32a19.306,19.306,0,0,1-6.927,1.383,19.024,19.024,0,0,1-11.488-4.034,18.426,18.426,0,0,1-23.012,0,18.292,18.292,0,0,1-18.41,2.662V67.326a17.174,17.174,0,0,0,6.882,1.48,17.887,17.887,0,0,0,11.528-4.393,17.266,17.266,0,0,0,23.013,0,17.759,17.759,0,0,0,11.487,4.393,17.327,17.327,0,0,0,6.927-1.49ZM285.61,55.029a9.321,9.321,0,0,0,2.04-2.416,9.445,9.445,0,0,0,2.04,2.419,15.27,15.27,0,0,0,9.445,3.42,15.765,15.765,0,0,0,6.927-1.728V60.05a18.779,18.779,0,0,1-6.927,1.428,18.349,18.349,0,0,1-11.487-4.207,17.839,17.839,0,0,1-23.013,0,17.726,17.726,0,0,1-18.41,2.79V56.733a15.608,15.608,0,0,0,6.882,1.719,15.4,15.4,0,0,0,9.49-3.423,9.428,9.428,0,0,0,2.042-2.416,9.382,9.382,0,0,0,2.039,2.419,14.805,14.805,0,0,0,18.932,0" fill="#008ccc"/>
    </g>
    <g>
      <path d="M177.077,68.669a2.824,2.824,0,0,1-.294.933,2.174,2.174,0,0,1-2.1,1.212,2.555,2.555,0,0,1-2.562-2.855c0-1.562.773-2.972,2.485-2.972a2.252,2.252,0,0,1,2.376,1.841l-.959.093a1.318,1.318,0,0,0-1.423-1.115c-1.493,0-1.52,1.593-1.52,2.083a2.867,2.867,0,0,0,.337,1.481,1.41,1.41,0,0,0,1.276.733,1.457,1.457,0,0,0,1.45-1.527Z" fill="#001231"/>
      <path d="M190.353,70.7l.012-5.663h.875l0,.915a1.989,1.989,0,0,1,1.785-.975,1.645,1.645,0,0,1,1.837,1.435,5.829,5.829,0,0,1,.065,1.091l-.012,2.3a4.039,4.039,0,0,0,.094.894h-.229a.71.71,0,0,1-.772-.732l.027-2.534a6.19,6.19,0,0,0-.05-.866,1.042,1.042,0,0,0-1.123-.776,1.569,1.569,0,0,0-1.232.65,1.86,1.86,0,0,0-.37,1.168l0,3.094Z" fill="#001231"/>
      <path d="M223.6,65.072l0,4.767a3.787,3.787,0,0,0,.092.848h-.23c-.818,0-.739-.843-.739-.843a1.984,1.984,0,0,1-1.776.986,1.636,1.636,0,0,1-1.83-1.434,6.032,6.032,0,0,1-.066-1.1l.013-3.206.9,0-.027,3.281a6.233,6.233,0,0,0,.05.869,1.036,1.036,0,0,0,1.119.776,1.7,1.7,0,0,0,1.593-1.833V65.076Z" fill="#001231"/>
      <path d="M224.545,70.7l.04-5.664h.888l0,.915a2.026,2.026,0,0,1,1.813-.973,1.653,1.653,0,0,1,1.851,1.438A5.71,5.71,0,0,1,229.2,67.5l-.024,2.3a4.17,4.17,0,0,0,.088.895h-.231a.708.708,0,0,1-.776-.733l.041-2.534a6.372,6.372,0,0,0-.047-.867,1.05,1.05,0,0,0-1.134-.777,1.606,1.606,0,0,0-1.251.649,1.845,1.845,0,0,0-.38,1.168l-.018,3.094Z" fill="#001231"/>
      <path d="M198.11,70a1.635,1.635,0,0,1-1.7-1.481c-.256-1.235.161-2.751,1.571-2.753a1.68,1.68,0,0,1,1.656,1.448c.242,1.169-.184,2.784-1.53,2.786m2.411-7.053h-.876l.023,2.989a1.754,1.754,0,0,0-1.7-.977c-1.973,0-2.658,1.786-2.444,3.56a2.424,2.424,0,0,0,2.5,2.29,1.822,1.822,0,0,0,1.712-.864.724.724,0,0,0,.812.732l.09,0a4.01,4.01,0,0,1-.092-.771Z" fill="#001231"/>
      <path d="M212.452,67.834a3.584,3.584,0,0,1-3.545,3.008c-2.375,0-3.516-1.921-3.516-4.073,0-2.2,1.172-4.072,3.648-4.072a3.19,3.19,0,0,1,3.27,2.371l-.968.219a2.461,2.461,0,0,0-.427-.867,2.329,2.329,0,0,0-1.886-.9,2.409,2.409,0,0,0-1.976.977,3.691,3.691,0,0,0-.6,2.218c0,1.92.908,3.271,2.568,3.271A2.369,2.369,0,0,0,211.4,67.7Z" fill="#001231"/>
      <path d="M215.671,70.842a2.646,2.646,0,0,1-2.729-2.893,2.721,2.721,0,0,1,2.764-2.988,2.65,2.65,0,0,1,2.67,2.941A2.684,2.684,0,0,1,215.671,70.842Zm1.624-3.716a1.535,1.535,0,0,0-1.566-1.412c-1.258,0-1.764.976-1.764,2.246,0,1.165.482,2.129,1.694,2.129,1.564,0,1.682-1.622,1.694-2.187A3.266,3.266,0,0,0,217.3,67.126Z" fill="#001231"/>
      <path d="M161.33,67.51l1.349-3.612h.021l1.284,3.612Zm1.914-4.516h-1.122l-3.116,7.7h1.14l.892-2.318h3.245s.591,1.654.683,1.949c.146.464,1.186.369,1.186.369Z" fill="#001231"/>
      <path d="M171.352,65.059l0,4.766a3.684,3.684,0,0,0,.093.849h-.233a.74.74,0,0,1-.752-.848,2.023,2.023,0,0,1-1.812.977,1.668,1.668,0,0,1-1.86-1.444,5.748,5.748,0,0,1-.068-1.1l.011-3.206h.921l-.027,3.281a6.083,6.083,0,0,0,.051.869,1.059,1.059,0,0,0,1.138.782,1.7,1.7,0,0,0,1.621-1.824V65.058Z" fill="#001231"/>
      <path d="M177.9,70.692l0-7.675h.908l-.006,4.514,2.312-2.4H182.3l-1.981,2.055,2.164,3.565h-.2a1.165,1.165,0,0,1-1.112-.5l-1.471-2.52-.89.978v1.978Z" fill="#001231"/>
      <path d="M188.164,69.2a1.39,1.39,0,0,1-1.366.8,1.05,1.05,0,0,1-1.151-.72c-.158-.706.368-.936.987-1.063a4.979,4.979,0,0,0,1.685-.459,3.571,3.571,0,0,1-.155,1.443m1.051.415a4.372,4.372,0,0,1-.03-.8l.011-1.523a5.255,5.255,0,0,0-.057-1.013c-.251-1.123-1.251-1.365-2.306-1.314-1.158.056-2.054.672-1.959,1.909l.9-.043c-.054-.721.557-1.032,1.241-1.065.475-.023,1.125.075,1.259.674.165.737-.245.812-1.172.943-1.178.165-2.7.346-2.346,1.948a1.808,1.808,0,0,0,2.015,1.481,1.781,1.781,0,0,0,1.669-.87.786.786,0,0,0,.879.747c.6-.029.506-.837.506-.837a.766.766,0,0,1-.268.09c-.146.007-.282-.072-.339-.328" fill="#001231"/>
      <g>
        <polygon points="235.622 63.021 235.618 64.138 236.541 64.138 236.544 63.021 235.622 63.021" fill="#001231"/>
        <polygon points="235.609 70.696 235.618 65.138 236.532 65.138 236.521 70.696 235.609 70.696" fill="#001231"/>
      </g>
      <path d="M234.759,68.659a2.818,2.818,0,0,1-.295.937,2.184,2.184,0,0,1-2.114,1.218,2.568,2.568,0,0,1-2.574-2.87c0-1.569.777-2.987,2.5-2.987a2.264,2.264,0,0,1,2.388,1.851l-.964.094a1.324,1.324,0,0,0-1.429-1.121c-1.5,0-1.528,1.6-1.528,2.093a2.869,2.869,0,0,0,.339,1.488,1.416,1.416,0,0,0,1.282.738,1.464,1.464,0,0,0,1.457-1.535Z" fill="#001231"/>
      <path d="M182.956,62.969h.911l-.01,6.839a2.743,2.743,0,0,0,.14.893h-.247a.712.712,0,0,1-.775-.731Z" fill="#001231"/>
      <path d="M237.512,62.969h.911l-.011,6.839a2.758,2.758,0,0,0,.141.893h-.247a.712.712,0,0,1-.775-.731Z" fill="#001231"/>
    </g>
    <path d="M69.409,25.825H57.872c.121,2.784,1.484,4.054,3.928,4.054a3.613,3.613,0,0,0,3.463-2.074H69.13c-1.237,3.773-3.867,5.382-7.484,5.382-5.045,0-8.168-3.466-8.168-8.414,0-4.794,3.31-8.443,8.168-8.443,5.443,0,8.073,4.575,7.763,9.5M57.872,23.039h7.145c-.4-2.224-1.362-3.4-3.495-3.4a3.462,3.462,0,0,0-3.65,3.4" fill="#001231"/>
    <path d="M186.212,25.825H174.674c.122,2.784,1.484,4.054,3.928,4.054a3.612,3.612,0,0,0,3.463-2.074h3.868c-1.237,3.773-3.868,5.382-7.484,5.382-5.046,0-8.168-3.466-8.168-8.414,0-4.794,3.31-8.443,8.168-8.443,5.443,0,8.073,4.575,7.763,9.5m-11.538-2.786h7.146c-.4-2.224-1.362-3.4-3.5-3.4a3.462,3.462,0,0,0-3.65,3.4" fill="#001231"/>
    <path d="M103.575,21.715H99.2c.246-4.1,3.915-5.341,7.493-5.341,3.179,0,7,.711,7,4.537v8.3a8.18,8.18,0,0,0,.556,3.549s-4.751.415-4.751-1.544a7.306,7.306,0,0,1-5.366,1.972c-3.023,0-5.428-1.512-5.428-4.78,0-3.608,2.713-4.473,5.428-4.842,2.682-.4,5.184-.307,5.184-2.1,0-1.882-1.3-2.162-2.841-2.162-1.664,0-2.744.679-2.9,2.409m5.739,4.872V24.95c-.742.653-2.285.681-3.64.929-1.361.276-2.594.739-2.594,2.344,0,1.636,1.265,2.036,2.684,2.036,3.424,0,3.55-2.716,3.55-3.672" fill="#001231"/>
    <path d="M202.749,21.715h-4.38c.246-4.1,3.914-5.341,7.492-5.341,3.18,0,7,.711,7,4.537v8.3a8.183,8.183,0,0,0,.555,3.549s-4.75.415-4.75-1.544a7.308,7.308,0,0,1-5.367,1.972c-3.023,0-5.428-1.512-5.428-4.78,0-3.608,2.713-4.473,5.428-4.842,2.683-.4,5.184-.307,5.184-2.1,0-1.882-1.3-2.162-2.84-2.162-1.665,0-2.745.679-2.9,2.409m5.738,4.872V24.95c-.741.653-2.285.681-3.64.929-1.36.276-2.594.739-2.594,2.344,0,1.636,1.265,2.036,2.684,2.036,3.425,0,3.55-2.716,3.55-3.672" fill="#001231"/>
    <path d="M136.561,47.1H132.18c.246-4.1,3.915-5.341,7.493-5.341,3.18,0,7,.711,7,4.537v8.3a8.182,8.182,0,0,0,.556,3.55s-4.751.415-4.751-1.545a7.3,7.3,0,0,1-5.366,1.973c-3.023,0-5.428-1.513-5.428-4.78,0-3.609,2.713-4.473,5.428-4.842,2.682-.4,5.184-.307,5.184-2.1,0-1.883-1.3-2.162-2.841-2.162-1.664,0-2.744.679-2.9,2.409m5.738,4.872V50.332c-.741.652-2.285.68-3.64.929-1.36.276-2.594.739-2.594,2.344,0,1.636,1.265,2.035,2.684,2.035,3.425,0,3.55-2.715,3.55-3.671" fill="#001231"/>
    <path d="M148.144,58.174h4.382V52.683l1.694-1.635,3.241,5.253S158.5,58.257,162,58.257h1.967L157.21,48.086l6.015-5.858h-5.178l-5.521,5.739V36.148h-4.382Z" fill="#001231"/>
    <path d="M131.607,32.807V16.86h4.16v2.221h.093a5.7,5.7,0,0,1,4.875-2.653c4.657,0,5.828,2.623,5.828,6.57l.007,6.657a6.38,6.38,0,0,0,.566,3.172,14.441,14.441,0,0,1-2.315-.02c-1.287-.122-2.629-.5-2.629-1.523l-.008-7.481c0-2.627-.772-3.92-2.808-3.92-2.374,0-3.392,1.326-3.392,4.566v8.358Z" fill="#001231"/>
    <path d="M222.51,24.772c0-5.1,3.247-8.444,8.256-8.444,5.045,0,8.3,3.341,8.3,8.444,0,5.073-3.25,8.415-8.3,8.415-5.009,0-8.256-3.342-8.256-8.415m4.392,0c0,2.541.9,5.1,3.864,5.1,3,0,3.9-2.562,3.9-5.1,0-2.566-.9-5.134-3.9-5.134-2.968,0-3.864,2.568-3.864,5.134" fill="#001231"/>
    <path d="M187.314,32.858h4.392V25.652c0-2.817,1.113-5.139,4.333-5.139a8.032,8.032,0,0,1,1.579.158V16.587a3.327,3.327,0,0,0-.962-.153,5.656,5.656,0,0,0-5.105,3.4h-.063V16.864h-4.174Z" fill="#001231"/>
    <path d="M196.792,58.245h4.392V51.039c0-2.817,1.112-5.139,4.333-5.139a7.938,7.938,0,0,1,1.578.158V41.974a3.315,3.315,0,0,0-.961-.153,5.656,5.656,0,0,0-5.106,3.4h-.062V42.251h-4.174Z" fill="#001231"/>
    <path d="M129.927,16.807l0,12.416a9.425,9.425,0,0,0,.585,3.552,11.906,11.906,0,0,1-2.843-.121c-1.02-.189-1.91-.6-1.91-1.424v-.7h-.095a5.691,5.691,0,0,1-4.873,2.654c-4.659,0-5.827-2.624-5.827-6.573V16.807h4.378v9.007c0,2.62.77,3.917,2.8,3.917,2.377,0,3.4-1.327,3.4-4.566V16.807Z" fill="#001231"/>
    <path d="M168.238,47.1h-4.38c.246-4.1,3.914-5.341,7.492-5.341,3.18,0,7,.711,7,4.537v8.3a8.185,8.185,0,0,0,.555,3.55s-4.75.415-4.75-1.545a7.305,7.305,0,0,1-5.367,1.973c-3.023,0-5.428-1.513-5.428-4.78,0-3.609,2.713-4.473,5.428-4.842,2.683-.4,5.184-.307,5.184-2.1,0-1.883-1.3-2.162-2.84-2.162-1.665,0-2.745.679-2.9,2.409m5.738,4.872V50.332c-.741.652-2.285.68-3.64.929-1.36.276-2.594.739-2.594,2.344,0,1.636,1.265,2.035,2.684,2.035,3.425,0,3.55-2.715,3.55-3.671" fill="#001231"/>
    <path d="M194.9,42.189l0,12.415a9.428,9.428,0,0,0,.586,3.553,11.906,11.906,0,0,1-2.843-.121c-1.02-.189-1.91-.595-1.91-1.424v-.7h-.1a5.689,5.689,0,0,1-4.872,2.655c-4.659,0-5.827-2.624-5.827-6.573V42.189h4.378V51.2c0,2.62.77,3.917,2.8,3.917,2.377,0,3.4-1.327,3.4-4.566V42.189Z" fill="#001231"/>
    <path d="M211.942,47.069h-4.39c.246-4.115,3.924-5.354,7.511-5.354,3.187,0,7.02.712,7.02,4.548v8.319a8.2,8.2,0,0,0,.557,3.558s-4.762.416-4.762-1.548a7.325,7.325,0,0,1-5.38,1.977c-3.03,0-5.441-1.516-5.441-4.792,0-3.617,2.719-4.484,5.441-4.854,2.689-.4,5.2-.307,5.2-2.1,0-1.887-1.3-2.167-2.848-2.167-1.668,0-2.751.68-2.905,2.415m5.753,4.884V50.311c-.743.655-2.291.683-3.649.932-1.364.276-2.6.741-2.6,2.349,0,1.641,1.268,2.041,2.69,2.041,3.433,0,3.559-2.722,3.559-3.68" fill="#001231"/>
    <path d="M238.454,42.279l0,12.347a9.354,9.354,0,0,0,.582,3.533,11.813,11.813,0,0,1-2.828-.12c-1.014-.188-1.9-.592-1.9-1.416v-.694h-.095a5.659,5.659,0,0,1-4.845,2.64c-4.634,0-5.8-2.61-5.8-6.537V42.279h4.354v8.957c0,2.606.766,3.9,2.788,3.9,2.364,0,3.376-1.319,3.376-4.541V42.279Z" fill="#001231"/>
    <path d="M57.572,10.987v4.071H50.979l-.005,16.655a5.544,5.544,0,0,0,.173,1.269s-5.016.3-5.016-1.9l.008-16.02H39.545s-.111-4.071,2.708-4.071Z" fill="#001231"/>
    <path d="M152.372,10.808v3.611H147.99V10.808ZM147.99,32.839V16.884h4.382V32.839Z" fill="#001231"/>
    <path d="M79.209,11.005h4.824v9.1l8.575-9.1h6.021L90.06,19.669l9.4,13.274s-5.794.61-7.226-1.754c-.779-1.282-5.433-8.107-5.433-8.107l-2.765,2.8,0,7.061s-4.824.3-4.824-1.9l0-20.039Z" fill="#001231"/>
    <path d="M125.733,36.083h4.526V56.63a5.848,5.848,0,0,0,.176,1.466s-.26.016-.664.013c-1.213.007-3.984-.145-4.03-1.879L125.727,56l.006-13.358L120.28,57.987h-2.057a2.329,2.329,0,0,1-2.184-1.463l-4.881-13.878L111.1,58.084s-4.532.3-4.532-1.9v-20.1h6.81l5.147,15.13,4.93-15.13Z" fill="#001231"/>
    <g>
      <path d="M63.194,47.1h-4.38c.246-4.1,3.915-5.341,7.493-5.341,3.179,0,7,.711,7,4.537v8.3a8.182,8.182,0,0,0,.556,3.55s-4.751.415-4.751-1.545a7.3,7.3,0,0,1-5.366,1.973c-3.023,0-5.428-1.513-5.428-4.78,0-3.609,2.713-4.473,5.428-4.842,2.682-.4,5.184-.307,5.184-2.1,0-1.883-1.3-2.162-2.841-2.162-1.664,0-2.744.679-2.9,2.409m5.739,4.872V50.332c-.742.652-2.285.68-3.64.929-1.361.276-2.594.739-2.594,2.344,0,1.636,1.265,2.035,2.684,2.035,3.424,0,3.55-2.715,3.55-3.671" fill="#001231"/>
      <path d="M75.307,58.065h4.381V52.573l1.694-1.634,3.241,5.252s1.043,1.957,4.543,1.957h1.967l-6.76-10.172,6.015-5.858H85.209l-5.521,5.74V36.038H75.307Z" fill="#001231"/>
      <path d="M18.028,36.073v4.071H11.434l0,16.655a5.633,5.633,0,0,0,.173,1.27s-5.016.3-5.016-1.905L6.6,40.144H0s-.111-4.071,2.708-4.071Z" fill="#001231"/>
      <path d="M96.185,36.061v3.611H91.8V36.061ZM91.8,58.092V42.137h4.381V58.092Z" fill="#001231"/>
      <g>
        <path d="M26.114,51.91V50.277c-.74.65-2.278.679-3.632.926-1.354.275-2.585.738-2.585,2.338,0,1.632,1.262,2.032,2.677,2.032,3.414,0,3.54-2.71,3.54-3.663Zm-5.723-4.861H16.022c.243-4.094,3.906-5.328,7.475-5.328,3.168,0,6.983.71,6.983,4.526v8.279a8.161,8.161,0,0,0,.554,3.54s-4.737.414-4.737-1.54a7.284,7.284,0,0,1-5.355,1.967c-3.014,0-5.414-1.509-5.414-4.767,0-3.6,2.708-4.463,5.414-4.831,2.677-.4,5.172-.307,5.172-2.092,0-1.878-1.294-2.156-2.834-2.156-1.661,0-2.738.677-2.889,2.4Z" fill="#001231" fill-rule="evenodd"/>
        <path d="M27.235,37.058s.122,2.784-1.253,2.784H20.966l-1.493.005s-.124-2.787,1.252-2.787Z" fill="#001231"/>
      </g>
      <path d="M32.421,58.089V42.159h4.13v2.155a5.949,5.949,0,0,1,4.93-2.587,4.72,4.72,0,0,1,4.632,2.606,5.821,5.821,0,0,1,4.828-2.606c4.692.091,5.825,2.688,5.825,6.57v4.325l.008,2.2a6.926,6.926,0,0,0,.563,3.288,14.382,14.382,0,0,1-2.311-.018c-1.285-.125-2.627-.5-2.627-1.521l0-7.47c0-2.618-.771-3.912-2.8-3.912-2.383.15-2.811,2.1-2.811,4.03v8.874H42.405V49.155c0-1.85.124-3.978-2.65-3.978-.863,0-2.958.555-2.958,3.667v9.245Z" fill="#001231"/>
    </g>
    <path d="M154.485,32.829V10.8h4.384v8.3a5.87,5.87,0,0,1,4.752-2.654c4.659,0,5.833,2.621,5.833,6.573V25.2l0,4.107a8.354,8.354,0,0,0,.554,3.537,14.349,14.349,0,0,1-2.3-.019c-.225-.019-.445-.051-.658-.084l-.146-.026-.119-.028-.192-.042-.124-.034-.2-.062-.175-.061-.147-.064a1.341,1.341,0,0,1-.877-.958V23.683c-.024-2.534-.807-3.786-2.809-3.786-2.377,0-3.392,1.326-3.392,4.571v8.361Z" fill="#001231"/>
  </g>
</svg>
