<?xml version="1.0" encoding="utf-8"?>
<!-- Generator: Adobe Illustrator 22.0.0, SVG Export Plug-In . SVG Version: 6.00 Build 0)  -->
<svg version="1.1" id="Layer_1" xmlns="http://www.w3.org/2000/svg" xmlns:xlink="http://www.w3.org/1999/xlink" x="0px" y="0px"
	 viewBox="0 0 239.7 64" style="enable-background:new 0 0 239.7 64;" xml:space="preserve">
<style type="text/css">
	.st0{fill:#97C943;}
	.st1{clip-path:url(#SVGID_2_);}
	.st2{fill:#07162F;}
	.st3{enable-background:new    ;}
	.st4{fill:#00304B;}
</style>
<title>Akl Paths logo</title>
<g id="paths_logo">
	<path class="st0" d="M32,62c16.6,0,30-13.4,30-30S48.6,2,32,2S2,15.4,2,32S15.4,62,32,62"/>
	<g>
		<defs>
			<path id="SVGID_1_" d="M2,32c0,16.6,13.4,30,30,30s30-13.4,30-30S48.6,2,32,2S2,15.4,2,32"/>
		</defs>
		<clipPath id="SVGID_2_">
			<use xlink:href="#SVGID_1_"  style="overflow:visible;"/>
		</clipPath>
		<g class="st1">
			<path class="st2" d="M32,62.7c-3.9,0-7.7-0.7-11.3-2.2V29.3c0-7.4,4.8-12.9,11.4-13c2.9-0.3,5.7,0.7,7.9,2.6
				c0.8,0.8,1.4,1.6,1.9,2.6c0.9,1.8,1.4,3.9,1.3,5.9c0,3.5-1.3,5.4-2.9,6.3c-0.9,0.5-1.9,0.8-2.9,0.8c-2.4,0.1-4.4-1.8-4.5-4.2
				c0,0,0-0.1,0-0.1c0-2.5,2.1-4.5,4.6-4.5c0,0,0,0,0,0c1,0,1.9,0.3,2.7,0.8c0.1,0.1,0.3-0.1,0.3-0.5c0,0,0-0.1,0-0.1
				c-0.4-1.8-1.6-3.4-3.2-4.3c-2.9-1.2-6.2-0.6-8.5,1.5c-0.3,0.3-0.6,0.6-0.9,1c-1.4,1.8-2.1,4-2.1,6.2c-0.1,6.1,4.8,11.1,10.9,11.2
				c0.1,0,0.2,0,0.2,0c4.1,0,8.5-1.9,10.7-5.2c1.7-2.7,2.6-5.9,2.4-9.1c0.1-4.9-1.8-9.6-5.2-13.1c-3.5-3.2-8.1-4.9-12.9-4.7
				C21.6,9.9,14,18.3,14,29.3v27.5c-13.6-9.9-16.5-29-6.6-42.6S36.4-2.3,50,7.6c5.4,4,9.4,9.6,11.3,16.1c-3,0.3-6,0-8.9-0.7
				c-0.2-0.1-0.5,0.1-0.5,0.3c0,0.1,0,0.1,0,0.2c0.1,0.5,0.2,1.1,0.2,1.6c0.1,1.1,0.1,2.2,0,3.3c0,0.3,0.2,0.7,0.5,0.7
				c3.2,0.9,6.5,1.1,9.7,0.7c0.1,0.8,0.1,1.6,0.1,2.4C62.4,49,48.8,62.6,32,62.7 M32-4.1C12-4.1-4.3,12.2-4.3,32.2S12,68.5,32,68.5
				s36.3-16.2,36.3-36.3l0,0C68.2,12.2,52-4,32-4.1"/>
		</g>
	</g>
</g>
<g class="st3">
	<path class="st4" d="M99.6,45.5h-5.5l-2.8-7.1H81.2l-2.6,7.1h-5.1l11-28.5h3.8L99.6,45.5z M89.6,34.1l-2.3-6.5
		c-0.5-1.3-0.8-2.5-1.1-3.5h0c-0.1,0.7-0.5,1.8-1,3.4l-2.5,6.6H89.6z"/>
</g>
<g class="st3">
	<path class="st4" d="M120.3,45.5h-6L107,36H107v9.5h-5.2V15h5.2v17h0.1l6.5-6.9h6l-8.3,8.7L120.3,45.5z"/>
</g>
<g class="st3">
	<path class="st4" d="M130.6,44.9c-1.3,0.7-2.6,1-4,1c-1.6,0-2.8-0.4-3.5-1.2c-0.8-0.8-1.1-1.9-1.1-3.2V15h5.2v24.1
		c0,0.8,0.1,1.3,0.3,1.6c0.2,0.3,0.6,0.5,1.1,0.5c0.4,0,0.9-0.1,1.5-0.2L130.6,44.9z"/>
</g>
<g class="st3">
	<path class="st4" d="M161,26.2c0,1.1-0.2,2.1-0.6,3.1s-1,2-1.8,3c-0.8,1-1.9,1.7-3.4,2.3c-1.5,0.6-3.2,0.9-5.1,0.9h-1.4v9.9h-5.2
		V17.1h7.3c3.1,0,5.6,0.8,7.4,2.4S161,23.3,161,26.2z M155.7,26.4c0-1.4-0.5-2.6-1.4-3.5c-0.9-0.9-2.3-1.4-4-1.4h-1.5v10h1.6
		c1.8,0,3.2-0.5,4-1.4C155.3,29.2,155.7,28,155.7,26.4z"/>
</g>
<g class="st3">
	<path class="st4" d="M180.2,45.5h-4.3l-0.9-1.8c-1.7,1.5-3.6,2.2-5.9,2.2c-1.9,0-3.5-0.6-4.8-1.8c-1.3-1.2-1.9-2.8-1.9-4.7
		c0-2.1,0.8-3.7,2.3-4.8c1.5-1.1,3.6-1.8,6.3-1.8l3.6-0.1v-0.5c0-1.2-0.4-2-1.1-2.6c-0.7-0.6-1.6-0.8-2.8-0.8
		c-1.8,0-3.6,0.5-5.2,1.5l-1.7-3.2c2.2-1.5,4.9-2.2,8-2.2c5.4,0,8.1,2.5,8.1,7.4v8C179.8,42.9,179.9,44.7,180.2,45.5z M174.6,40.5
		v-4.4l-2.9,0.1c-2.7,0.1-4,1-4,2.8c0,0.9,0.3,1.5,0.9,2.1c0.6,0.5,1.4,0.8,2.5,0.8C172.4,41.8,173.6,41.4,174.6,40.5z"/>
</g>
<g class="st3">
	<path class="st4" d="M197.5,43.7c-2,1.5-4.3,2.2-6.8,2.2c-1.7,0-3-0.4-3.8-1.3c-0.8-0.9-1.2-2-1.2-3.5V29H182v-3.9h3.6v-4.7
		l5.2-1.5v6.2h6.3l-1.5,3.9h-4.8v10.2c0,1.5,0.6,2.3,1.9,2.3c1.1,0,2.3-0.4,3.4-1.1L197.5,43.7z"/>
</g>
<g class="st3">
	<path class="st4" d="M218.1,45.5h-5.2V33.6c0-1.4-0.2-2.5-0.6-3.2c-0.4-0.8-1.2-1.2-2.5-1.2c-1.6,0-3.3,0.7-4.9,2.1v14.1h-5.2V15
		h5.2v12.3c2.2-1.8,4.4-2.7,6.8-2.7c1.9,0,3.4,0.6,4.6,1.7c1.2,1.1,1.8,3.1,1.8,5.8V45.5z"/>
</g>
<g class="st3">
	<path class="st4" d="M236.3,39.6c0,2.1-0.8,3.7-2.4,4.8s-3.6,1.6-5.9,1.6c-3,0-5.5-0.6-7.5-1.9l1.7-3.8c1.7,1.2,3.6,1.8,5.5,1.8
		c1.1,0,1.9-0.2,2.5-0.6c0.6-0.4,0.9-0.9,0.9-1.6c0-0.7-0.3-1.2-1-1.7c-0.6-0.5-1.4-0.9-2.3-1.2c-0.9-0.3-1.8-0.7-2.8-1.1
		c-0.9-0.4-1.7-1.1-2.3-2c-0.6-0.9-1-2-1-3.2c0-1.8,0.7-3.3,2-4.4c1.4-1.1,3.2-1.7,5.7-1.7c2.3,0,4.3,0.3,6,1V30
		c-2.3-0.9-4.2-1.3-5.8-1.3c-1.9,0-2.9,0.6-2.9,1.8c0,0.6,0.3,1.1,1,1.5c0.7,0.4,1.5,0.8,2.4,1.1c0.9,0.3,1.9,0.7,2.8,1.2
		c0.9,0.4,1.7,1.1,2.4,2S236.3,38.3,236.3,39.6z"/>
</g>
</svg>
