<?xml version="1.0" encoding="utf-8"?>
<!-- Generator: Adobe Illustrator 16.0.0, SVG Export Plug-In . SVG Version: 6.00 Build 0)  -->
<!DOCTYPE svg PUBLIC "-//W3C//DTD SVG 1.1//EN" "http://www.w3.org/Graphics/SVG/1.1/DTD/svg11.dtd">
<svg version="1.1" id="Layer_1" xmlns="http://www.w3.org/2000/svg" xmlns:xlink="http://www.w3.org/1999/xlink" x="0px" y="0px"
	 width="195px" height="20px" viewBox="208.5 386 195 20" enable-background="new 208.5 386 195 20" xml:space="preserve">
<title>New-Zealand-Government-Logo</title>
<path d="M208.5,404.875c0,0,24.63-2.771,47.835-2.771c23.75,0,48.483,2.771,48.483,2.771v1.012c0,0-24.894-2.629-48.473-2.629
	c-23.265,0-47.835,2.629-47.835,2.629v-1.012l0,0H208.5z M217.958,400.354h-2.124l-3.723-7.525
	c-0.645-1.262-1.219-2.559-1.719-3.885h-0.122c0.101,1.214,0.142,2.63,0.162,3.945l0.082,7.445h-0.78
	c-0.899,0-1.213-0.871-1.213-1.852v-12.3h2.296l3.945,7.809c0.544,1.097,1.013,2.229,1.406,3.388h0.121
	c0-0.414-0.202-2.649-0.202-4.217v-6.949h1.871v14.163l0,0V400.354z M253.199,398.877l-0.496,1.639h-8.446v-1.518l5.715-9.033
	c0.305-0.507,0.643-0.994,1.011-1.457c-0.415,0-0.921,0.061-1.628,0.061h-4.855l0.475-1.649h8.092v1.588l-5.654,9.032
	c-0.303,0.537-0.637,0.951-0.88,1.355c0.435,0,0.9,0,1.416,0h5.199L253.199,398.877z M318.209,399.262
	c-1.256,0.75-2.691,1.148-4.156,1.152c-1.707,0.08-3.358-0.623-4.481-1.912c-1.192-1.498-1.781-3.389-1.649-5.3
	c-0.017-2.117,0.874-4.138,2.449-5.553c0.998-0.826,2.266-1.258,3.561-1.214c1.478-0.051,2.923,0.454,4.045,1.416l-0.95,1.234
	c-0.858-0.695-1.93-1.074-3.034-1.072c-1.282-0.056-2.475,0.656-3.034,1.811c-0.58,1.064-0.851,2.27-0.779,3.479
	c-0.115,1.497,0.238,2.992,1.012,4.279c0.775,0.85,1.886,1.316,3.034,1.273c0.733,0.008,1.453-0.178,2.094-0.535v-4.046h-2.67
	l-0.333-1.628h4.894v6.625l0,0V399.262z M328.519,395.124c0,3.269-1.75,5.351-4.482,5.351c-2.73,0-4.461-2.094-4.461-5.452
	c0-3.358,1.71-5.432,4.42-5.432C327.031,389.591,328.519,392.019,328.519,395.124L328.519,395.124L328.519,395.124z
	 M326.405,395.205c0-3.187-0.922-4.158-2.409-4.158c-1.647,0-2.326,1.174-2.326,3.763c0,3.146,0.8,4.197,2.407,4.197
	C325.514,399.008,326.405,397.896,326.405,395.205L326.405,395.205z M337.975,389.884l-3.762,10.377h-1.77l-3.684-10.337
	l1.953-0.313l2.022,6.231c0.224,0.699,0.456,1.517,0.618,2.226c0.161-0.617,0.373-1.416,0.656-2.267l1.952-5.917h2.024H337.975z
	 M346.583,395.438h-6.23v0.243c-0.042,0.702,0.109,1.402,0.436,2.023c0.518,0.795,1.419,1.258,2.366,1.215
	c0.941,0,1.847-0.363,2.529-1.012l0.717,1.133c-0.98,0.865-2.251,1.336-3.559,1.314c-2.864,0-4.604-2.074-4.604-5.452
	c-0.113-1.438,0.327-2.864,1.234-3.985c0.758-0.931,1.906-1.455,3.105-1.416c1.046-0.04,2.06,0.365,2.791,1.113
	c0.901,0.92,1.234,2.073,1.255,4.44v0.324l0,0L346.583,395.438z M344.561,394.042c0.048-0.825-0.176-1.642-0.638-2.327
	c-0.354-0.457-0.9-0.722-1.477-0.718c-1.438,0-2.154,1.173-2.154,3.035h4.278L344.561,394.042z M353.502,389.652l-0.708,1.891
	c-0.172-0.065-0.353-0.099-0.536-0.101c-1.159,0.011-2.101,0.936-2.134,2.094v6.646h-1.891v-7.566
	c0.04-0.874-0.094-1.748-0.396-2.569l1.831-0.476c0.219,0.501,0.338,1.041,0.354,1.588v0.152c0.554-1.042,1.611-1.721,2.791-1.791
	c0.218-0.003,0.434,0.031,0.638,0.102l0,0L353.502,389.652z M362.536,400.182h-1.953v-6.949c0.082-0.552-0.035-1.116-0.335-1.588
	c-0.258-0.283-0.629-0.435-1.011-0.415c-0.979,0.122-1.882,0.588-2.55,1.315v7.627h-1.871v-7.658
	c0.054-0.835-0.082-1.671-0.393-2.448l1.79-0.496c0.239,0.494,0.35,1.04,0.324,1.588c0.413-0.376,0.859-0.715,1.335-1.011
	c0.579-0.337,1.239-0.516,1.911-0.516c1.027-0.042,1.98,0.531,2.427,1.457c0.17,0.41,0.252,0.851,0.243,1.294v7.789l0,0
	L362.536,400.182z M377.333,400.182h-1.871v-7.384c0-1.173-0.373-1.588-1.234-1.588c-0.958,0.116-1.828,0.62-2.406,1.396v7.566
	h-1.851v-7.324c0-1.153-0.335-1.588-1.275-1.588c-0.914,0.076-1.763,0.504-2.366,1.193v7.728h-1.873v-7.566
	c0.079-0.874-0.049-1.754-0.373-2.569l1.771-0.435c0.239,0.44,0.36,0.935,0.354,1.436c0.733-0.854,1.779-1.379,2.903-1.457
	c1.068,0.002,2.032,0.644,2.447,1.628c0.775-0.957,1.917-1.547,3.146-1.628c1.609,0,2.63,1.012,2.63,2.903V400.182L377.333,400.182z
	 M387.176,395.428h-6.271v0.243c-0.042,0.701,0.109,1.402,0.435,2.023c0.518,0.795,1.418,1.258,2.367,1.215
	c0.941,0,1.847-0.363,2.529-1.012l0.646,1.193c-0.981,0.865-2.251,1.334-3.561,1.314c-2.861,0-4.603-2.074-4.603-5.452
	c-0.113-1.438,0.327-2.864,1.234-3.985c0.757-0.931,1.905-1.455,3.105-1.417c1.053-0.045,2.075,0.36,2.813,1.113
	c0.899,0.921,1.232,2.074,1.255,4.441v0.324l0,0H387.176z M385.154,394.032c0.048-0.825-0.176-1.642-0.639-2.327
	c-0.353-0.457-0.897-0.722-1.476-0.718c-1.436,0-2.154,1.174-2.154,3.034h4.277L385.154,394.032z M396.443,400.182h-1.872v-6.949
	c0.082-0.552-0.037-1.115-0.333-1.588c-0.258-0.283-0.63-0.435-1.012-0.415c-0.98,0.122-1.884,0.588-2.55,1.315v7.627h-1.87v-7.658
	c0.051-0.835-0.083-1.671-0.396-2.448l1.791-0.496c0.25,0.491,0.371,1.038,0.353,1.588c0.415-0.376,0.861-0.715,1.337-1.011
	c0.58-0.337,1.24-0.516,1.911-0.516c1.027-0.042,1.98,0.531,2.427,1.457c0.17,0.41,0.252,0.851,0.243,1.294v7.789l0,0
	L396.443,400.182z M403.41,389.884l-0.516,1.335h-2.022v6.16c0,1.275,0.304,1.67,1.335,1.67c0.35,0.012,0.695-0.059,1.012-0.203
	l0.223,1.154c-0.58,0.291-1.222,0.439-1.871,0.434c-0.623,0.025-1.239-0.156-1.75-0.516c-0.476-0.354-0.799-0.516-0.799-2.063
	v-6.636h-1.234v-1.335h1.234c-0.012-0.878,0.029-1.756,0.12-2.63l1.953-0.455c-0.08,0.738-0.183,2.023-0.183,3.034h2.509
	L403.41,389.884z M227.78,395.428h-6.302v0.252c-0.04,0.702,0.11,1.4,0.435,2.023c0.521,0.799,1.424,1.264,2.377,1.225
	c0.945,0,1.854-0.361,2.54-1.012l0.728,1.133c-0.968,0.875-2.225,1.361-3.53,1.365c-2.923,0-4.673-2.021-4.673-5.462
	c-0.125-1.459,0.321-2.909,1.244-4.046c0.759-0.935,1.912-1.462,3.115-1.426c1.053-0.042,2.074,0.361,2.813,1.113
	c0.91,0.93,1.244,2.083,1.264,4.46v0.333l0,0L227.78,395.428z M225.757,394.021c0.049-0.827-0.175-1.648-0.637-2.336
	c-0.354-0.462-0.904-0.731-1.487-0.729c-1.447,0-2.165,1.173-2.165,3.035h4.299L225.757,394.021z M242.062,389.854l-2.862,10.429
	h-1.872l-1.507-5.635c-0.182-0.728-0.667-2.438-0.667-2.438l0,0c0,0-0.415,1.76-0.557,2.317l-1.547,5.766h-1.821l-2.862-10.358
	l1.922-0.313l1.325,5.806c0.223,1.011,0.536,2.539,0.536,2.539h0.061c0,0,0.222-1.467,0.475-2.357l1.568-5.766h1.962l1.447,5.604
	c0.293,1.113,0.577,2.417,0.577,2.519h0.081c0-0.102,0.333-1.78,0.475-2.458l1.285-5.665h2.023L242.062,389.854z M261.342,395.438
	h-6.301v0.253c-0.041,0.702,0.11,1.399,0.435,2.022c0.521,0.799,1.424,1.266,2.377,1.225c0.945,0.002,1.854-0.361,2.54-1.012
	l0.718,1.133c-0.98,0.881-2.253,1.363-3.57,1.355c-2.873,0-4.624-2.021-4.624-5.462c-0.124-1.459,0.322-2.909,1.245-4.046
	c0.759-0.935,1.912-1.462,3.115-1.426c1.053-0.042,2.074,0.361,2.813,1.113c0.91,0.93,1.244,2.083,1.264,4.46v0.333l0,0
	L261.342,395.438z M259.319,394.032c0.049-0.828-0.175-1.648-0.637-2.337c-0.355-0.461-0.905-0.731-1.487-0.728
	c-1.447,0-2.165,1.173-2.165,3.034h4.299L259.319,394.032z M271.104,399.402l-1.012,1.285c-0.662-0.262-1.171-0.809-1.386-1.488
	c-0.705,0.896-1.794,1.402-2.933,1.367c-2.023,0-3.348-1.012-3.348-3.035c0-2.397,1.922-3.682,5.27-3.682c0.243,0,0.456,0,0.718,0
	v-0.708c0-1.224-0.162-2.023-1.608-2.023c-1.156,0.059-2.267,0.468-3.186,1.173l-0.83-1.386c1.288-0.857,2.792-1.331,4.339-1.366
	c1.507,0,2.6,0.557,3.035,1.649c0.186,0.588,0.254,1.207,0.202,1.82c0,0.749-0.081,2.337-0.081,3.844c0,1.508,0,2.023,0.849,2.498
	l0,0L271.104,399.402z M268.413,395.124c-0.293,0-0.456,0-0.617,0c-1.426,0-2.296,0.273-2.711,0.749
	c-0.378,0.407-0.572,0.954-0.536,1.506c-0.135,0.85,0.443,1.648,1.293,1.785c0.111,0.018,0.224,0.021,0.335,0.018
	c0.913-0.041,1.736-0.561,2.165-1.367l0.061-2.64l0,0L268.413,395.124z M275.645,400.182c-0.371,0.158-0.771,0.234-1.173,0.223
	c-0.641,0.049-1.256-0.252-1.608-0.789c-0.345-0.533-0.486-1.172-0.395-1.801v-8.426c0.036-0.997-0.038-1.994-0.223-2.974
	L274.27,386c0.174,0.974,0.235,1.965,0.182,2.954v8.425c0,1.094,0.061,1.346,0.273,1.529c0.174,0.152,0.415,0.205,0.637,0.141
	l0.253,1.133l0,0H275.645z M285.073,399.402l-1.011,1.285c-0.666-0.277-1.168-0.844-1.366-1.537c-0.706,0.895-1.794,1.4-2.934,1.365
	c-2.023,0-3.348-1.012-3.348-3.035c0-2.396,1.922-3.682,5.27-3.682c0.253,0,0.455,0,0.729,0v-0.657c0-1.224-0.162-2.023-1.608-2.023
	c-1.147,0.058-2.25,0.459-3.166,1.153l-0.87-1.366c1.288-0.857,2.793-1.331,4.34-1.366c1.507,0,2.6,0.557,3.035,1.649
	c0.186,0.588,0.254,1.207,0.202,1.82c0,0.749-0.081,2.337-0.081,3.844c0,1.508,0,2.023,0.85,2.498l0,0L285.073,399.402z
	 M282.392,395.124c-0.293,0-0.455,0-0.617,0c-1.426,0-2.296,0.273-2.711,0.749c-0.378,0.407-0.572,0.954-0.536,1.506
	c-0.135,0.85,0.443,1.648,1.293,1.785c0.111,0.018,0.224,0.021,0.335,0.018c0.913-0.041,1.736-0.561,2.165-1.367L282.392,395.124
	L282.392,395.124z M304.484,400.182h-1.821c-0.103-0.328-0.165-0.668-0.181-1.012c-0.66,0.793-1.64,1.248-2.671,1.244
	c-2.64,0-4.198-2.021-4.198-5.25c0-2.235,0.769-3.945,2.165-4.855c0.599-0.398,1.304-0.606,2.023-0.597
	c0.984-0.034,1.922,0.411,2.518,1.193c0-0.293,0-1.871,0-2.569v-2.185l1.872,0.304v10.277c-0.067,1.164,0.033,2.332,0.293,3.471l0,0
	V400.182z M302.268,397.582v-5.412c-0.525-0.671-1.343-1.047-2.195-1.012c-0.74-0.018-1.43,0.371-1.8,1.012
	c-0.431,0.886-0.617,1.871-0.536,2.853c0,2.022,0.253,2.559,0.81,3.135c0.407,0.393,0.964,0.588,1.527,0.535
	c0.895,0.033,1.735-0.424,2.195-1.191l0,0V397.582z M293.984,400.203h-1.881v-6.98c0.09-0.549-0.018-1.112-0.303-1.588
	c-0.259-0.282-0.63-0.434-1.011-0.415c-1.007,0.105-1.942,0.573-2.63,1.315v7.669h-0.951c-0.557-0.045-0.973-0.531-0.929-1.09
	c0.002-0.023,0.005-0.049,0.009-0.074v-6.545c0.053-0.838-0.082-1.678-0.395-2.458l1.8-0.496c0.25,0.492,0.372,1.038,0.354,1.588
	c0.417-0.376,0.868-0.715,1.346-1.011c0.583-0.338,1.247-0.516,1.921-0.516c1.033-0.041,1.991,0.535,2.438,1.467
	c0.169,0.414,0.252,0.858,0.243,1.305v7.83l0,0H293.984z"/>
</svg>
