<?xml version="1.0" encoding="UTF-8"?>
<svg id="AC_icons" data-name="AC icons" xmlns="http://www.w3.org/2000/svg" viewBox="0 0 64 64">
  <defs>
    <style>
      .cls-1, .cls-2 {
        fill: #061a2f;
        stroke-width: 0px;
      }

      .cls-2 {
        fill-rule: evenodd;
      }
    </style>
  </defs>
  <g id="Informational_icons" data-name="Informational icons">
    <g id="A">
      <g id="abseiling">
        <g id="Abseiling">
          <path class="cls-1" d="m44.38,34.2l-3.24,1.66-18.97,5.67c-.88.28-1.82-.13-2.24-.95-.54-.96-.24-2.4.81-2.71l14.99-4.38c.44-.13.88-.42.79-.87s-.6-.6-1.05-.52l-16.11,2.78c-.92.16-1.8-.1-2.21-.94-.51-.99,0-2.44,1.08-2.65l18.16-3.42,2.95-1.19s3.86,3.32,5.01,7.52"/>
          <path class="cls-1" d="m16.01,2.78c.39.61.69,1.18.69,1.54,0,1.95,1.44,2.18,1.44,3.93,0,2.22-1.66,3.79-1.66,5.5,0,1.2,1.75,1.71,1.44,3.73l-2.21,12.61c-.08,1.9.15,3.5,1.13,4.87.54.79,2.07.4,2.38,1.26.57,1.57-.72,3.79-.09,5.53.98,2.7,3.55,5.27,3.55,9.1,0,4.34-.91,9.39-1.82,13.15H0V0h14.56l21.61,21.21c1.5,1.56,2.87,3.24,4.09,5.03l-.88.45c-.88-1.44-3.94-4.75-3.94-4.75L16.01,2.78Z"/>
          <path class="cls-2" d="m40.87,42.39s-2.26,5.34-2.02,7.28,1.65,2.49,1.7,3.66c.05,1.17-2.38,2.09-1.98,5.13.4,3.05,2.93,4.6,3.84,5.53l.64-.49c-.13-.28-4.4-3.32-3.64-6.21.72-2.73,1.76-2.19,2-3.81.23-1.63-1.69-2.36-1.7-3.86-.01-1.5.31-2.23.81-3.82.3-1.04.66-2.07,1.08-3.07.73.08,1.45-.2,1.93-.75l11.76-11.51c1.51-1.47,1.75-6.72-1.25-9.14-2.16-1.74-3.2-1.6-4.64-.72l-9.17,5.63c2.38,1.93,4.13,4.52,5.03,7.45l6.26-4.51-6.09,5.87c0-.18,0-.37-.03-.55-.03-.27-.07-.54-.13-.81l-.9.51c.09.23.13.47.14.72.06,1.15-1.56,2.52-1.56,2.52l-2.16,2.07c-.78.82-.74,2.12.08,2.9"/>
          <circle class="cls-1" cx="59.39" cy="16.99" r="4.61"/>
        </g>
      </g>
    </g>
  </g>
</svg>