<?xml version="1.0" encoding="UTF-8"?>
<svg id="AC_icons" data-name="AC icons" xmlns="http://www.w3.org/2000/svg" viewBox="0 0 64 64">
  <defs>
    <style>
      .cls-1 {
        fill: #061a2f;
        stroke-width: 0px;
      }
    </style>
  </defs>
  <g id="Informational_icons" data-name="Informational icons">
    <g id="A">
      <g id="accessible-toilets">
        <g id="Disabled_toilets" data-name="Disabled toilets">
          <path class="cls-1" d="m51.82,19.96c1.42,0,2.58,1.16,2.58,2.58,0,1.42-1.16,2.58-2.58,2.58-1.42,0-2.58-1.16-2.58-2.58,0-1.42,1.16-2.58,2.58-2.58Z"/>
          <path class="cls-1" d="m51.34,47.1c-4.64,0-8.41-3.76-8.41-8.4,0-3.36,2-6.41,5.09-7.73v2.1c-3.11,1.84-4.14,5.84-2.3,8.95,1.84,3.11,5.84,4.14,8.95,2.3,1.38-.81,2.41-2.1,2.9-3.62l1.14,2.04c-1.48,2.69-4.3,4.36-7.37,4.36Z"/>
          <path class="cls-1" d="m63.3,44.49c-.69.41-1.58.19-1.99-.5,0,0,0,0,0,0l-4.07-6.53-.12.05h-5.43c-.23,0-.45-.06-.65-.16-.93-.31-1.56-1.17-1.57-2.15l-.03-7.03c.04-1.26,1.09-2.25,2.36-2.21,1.2.04,2.17,1,2.21,2.2v2.46h3.09c.54-.04,1.02.37,1.06.91.04.54-.37,1.02-.91,1.06-.05,0-.1,0-.15,0h-3.08v2.03h3.85c.6-.05,1.17.25,1.45.77l4.47,7.12c.41.69.19,1.58-.5,1.99Z"/>
          <path class="cls-1" d="m28.01,16.45c1.38,0,2.5,1.12,2.5,2.5s-1.12,2.5-2.5,2.5c-1.38,0-2.5-1.12-2.5-2.5,0-1.38,1.11-2.5,2.49-2.5,0,0,0,0,0,0Z"/>
          <path class="cls-1" d="m7.35,16.45c1.38,0,2.5,1.12,2.5,2.5,0,1.38-1.12,2.5-2.5,2.5-1.38,0-2.5-1.12-2.5-2.5,0-1.38,1.11-2.5,2.49-2.5,0,0,0,0,.01,0Z"/>
          <path class="cls-1" d="m12.67,31.92l-1.94-6.47h-.88l3.21,11.03c.09.28-.04.48-.32.48h-2.63v8.97c0,1.53-2.3,1.52-2.3,0v-9.03h-.94v9.02c0,1.54-2.31,1.54-2.31,0v-8.96H1.95c-.28,0-.44-.18-.31-.51l3.16-11h-.84l-1.93,6.49c-.46,1.41-2.4.84-1.97-.68l2.13-7.06c.43-1.31,1.63-2.2,3.01-2.23h4.22c1.75,0,2.77,1.44,3.03,2.23l2.15,7.05c.46,1.52-1.47,2.15-1.94.67Z"/>
          <path class="cls-1" d="m18.49,48.91c-.02.38-.35.66-.72.64-.34-.02-.61-.29-.64-.64V15.18c-.02-.38.26-.7.64-.72.38-.02.7.26.72.64,0,.03,0,.06,0,.09v33.73Z"/>
          <path class="cls-1" d="m39.26,48.91c-.02.38-.35.66-.72.64-.34-.02-.61-.29-.64-.64V15.18c-.02-.38.26-.7.64-.72.38-.02.7.26.72.64,0,.03,0,.06,0,.09v33.73Z"/>
          <path class="cls-1" d="m32.23,32.9v-7.47h-.93v20.28c0,.78-.63,1.41-1.41,1.41s-1.41-.63-1.41-1.41v-11.77h-.94v11.76c0,.78-.63,1.41-1.41,1.41s-1.41-.63-1.41-1.41v-20.28h-.93v7.48c0,1.49-1.97,1.49-1.97,0v-7.68c-.02-1.77,1.4-3.23,3.18-3.25,0,0,.01,0,.02,0h5.91c1.8.01,3.25,1.48,3.24,3.28,0,0,0,0,0,0v7.63c.02,1.5-1.94,1.5-1.94,0Z"/>
        </g>
      </g>
    </g>
  </g>
</svg>