<?xml version="1.0" encoding="UTF-8"?>
<svg id="AC_icons" data-name="AC icons" xmlns="http://www.w3.org/2000/svg" viewBox="0 0 64 64">
  <defs>
    <style>
      .cls-1 {
        fill: #061a2f;
        stroke-width: 0px;
      }
    </style>
  </defs>
  <g id="Informational_icons" data-name="Informational icons">
    <g id="A">
      <g id="accessible">
        <g id="Accessible">
          <path class="cls-1" d="m28.14,0C31.5,0,34.22,2.72,34.22,6.08s-2.72,6.08-6.08,6.08-6.08-2.72-6.08-6.08h0C22.06,2.72,24.78,0,28.14,0c0,0,0,0,0,0Z"/>
          <path class="cls-1" d="m26.99,64c-10.94,0-19.82-8.86-19.83-19.81,0-7.93,4.72-15.09,12-18.22v4.94c-7.33,4.33-9.75,13.78-5.42,21.1,4.33,7.33,13.78,9.75,21.1,5.42,3.24-1.92,5.67-4.95,6.82-8.53l2.7,4.81c-3.48,6.34-10.14,10.28-17.37,10.28Z"/>
          <path class="cls-1" d="m55.18,57.84c-1.62.97-3.72.45-4.7-1.17l-9.6-15.41-.29.12h-12.79c-.54,0-1.07-.13-1.56-.35-2.05-.83-3.66-2.73-3.67-5.1l-.06-16.58c-.08-2.97,2.27-5.45,5.24-5.53,2.97-.08,5.45,2.27,5.53,5.24,0,.08,0,.17,0,.25l.02,5.79h7.27c1.28,0,2.32,1.04,2.32,2.32s-1.04,2.32-2.32,2.32h-7.25l.02,4.78h9.06c1.71,0,2.69.58,3.43,1.82l10.52,16.79c.97,1.62.45,3.72-1.16,4.7Z"/>
        </g>
      </g>
    </g>
  </g>
</svg>