<?xml version="1.0" encoding="UTF-8"?>
<svg id="AC_icons" data-name="AC icons" xmlns="http://www.w3.org/2000/svg" viewBox="0 0 64 64">
  <defs>
    <style>
      .cls-1 {
        fill: #061a2f;
        stroke-width: 0px;
      }
    </style>
  </defs>
  <g id="Informational_icons" data-name="Informational icons">
    <g id="A">
      <g id="accommodation-or-hostel">
        <g id="Accommodation_hostel" data-name="Accommodation hostel">
          <path class="cls-1" d="m63.47,35.12v7.52c0,.38-.31.69-.69.69H28.75c-.38,0-.69-.31-.69-.69v-11.99c0-.38.31-.69.69-.69h29.56c2.85,0,5.16,2.31,5.16,5.16h0Z"/>
          <path class="cls-1" d="m21.03,2.7c1.27-1,1.73-.62,1,.83,0,0-.24.47-.24,2.32,0,4.81,3.9,8.72,8.71,8.72h1.08c1.08-.3,1,.33-.22,1.41-1.41,1.15-3.17,1.78-4.99,1.8-4.81,0-8.72-3.9-8.72-8.72.01-3.73,3.37-6.36,3.37-6.36Z"/>
          <path class="cls-1" d="m25.94,32.44v8.3c0,1.43-1.16,2.59-2.59,2.6h-12.08c-1.43.05-2.64-1.07-2.69-2.5-.05-1.43,1.07-2.64,2.5-2.69.06,0,.12,0,.19,0h9.48v-5.71c.05-1.43,1.25-2.55,2.69-2.5,1.36.05,2.45,1.14,2.5,2.5Z"/>
          <path class="cls-1" d="m13.32,25.41c2.93,0,5.31,2.37,5.31,5.31,0,2.93-2.37,5.31-5.31,5.31s-5.31-2.37-5.31-5.31c0,0,0-.01,0-.02,0-2.93,2.38-5.3,5.31-5.3Z"/>
          <path class="cls-1" d="m61.41,61.78c-1.43,0-2.6-1.16-2.6-2.6h0v-7.31c0-.32-.26-.59-.59-.59H5.78c-.32,0-.59.26-.59.59v7.3c.05,1.43-1.07,2.64-2.5,2.69S.05,60.79,0,59.36c0-.06,0-.12,0-.19V25.43c-.05-1.43,1.07-2.64,2.5-2.69s2.64,1.07,2.69,2.5c0,.06,0,.12,0,.19v20.08c0,.33.26.59.59.59h57.63c.32,0,.59.26.59.59v12.48c0,1.43-1.15,2.6-2.58,2.61,0,0,0,0-.01,0Z"/>
        </g>
      </g>
    </g>
  </g>
</svg>