<?xml version="1.0" encoding="UTF-8"?>
<svg id="AC_icons" data-name="AC icons" xmlns="http://www.w3.org/2000/svg" viewBox="0 0 64 64">
  <defs>
    <style>
      .cls-1 {
        fill: #061a2f;
        stroke-width: 0px;
      }
    </style>
  </defs>
  <g id="Informational_icons" data-name="Informational icons">
    <g id="A">
      <g id="airstrip">
        <path id="Air_strip_airport_aeroplane" data-name="Air strip airport aeroplane" class="cls-1" d="m62.02,45.3c-.87-.25-23.01-7.1-27.01-8.25v15.01l7.68,5.94c.41.34.32.65.32,1.06v4c0,.34.08,1.07-.29.92s-10.72-3.92-10.72-3.92c0,0-10.34,3.77-10.72,3.92-.38.15-.29-.58-.29-.92v-4c0-.41-.08-.72.32-1.06l7.68-5.94v-15.01c-3.93,1.15-26.11,8-27.01,8.25s-1-.62-1-1.25v-4c-.12-.86.33-1.69,1.1-2.07l26.91-14.94V3.03c-.21-1.45.8-2.79,2.25-3,.25-.04.5-.04.75,0,1.45-.21,2.79.8,3,2.25.04.25.04.5,0,.75v20.01l26.91,14.94c.78.38,1.22,1.22,1.1,2.07v4c0,.63-.07,1.53-1,1.25"/>
      </g>
    </g>
  </g>
</svg>