<?xml version="1.0" encoding="UTF-8"?>
<svg id="AC_icons" data-name="AC icons" xmlns="http://www.w3.org/2000/svg" viewBox="0 0 64 64">
  <defs>
    <style>
      .cls-1 {
        fill: #061a2f;
        stroke-width: 0px;
      }
    </style>
  </defs>
  <g id="Informational_icons" data-name="Informational icons">
    <g id="A">
      <g id="alcohol">
        <g id="No_alcohol" data-name="No alcohol">
          <path class="cls-1" d="m35.98,25.1c.42-1.12.73-1.78.73-1.78.24-.91,1.12-1.5,2.06-1.37h10.51c.93-.12,1.81.46,2.06,1.37,0,0,.3.66.72,1.77.12.45,0,.81-.35.81h-15.11c-.31.05-.6-.17-.65-.48-.02-.11,0-.22.04-.32ZM16.82,2.65c0,.43.34.78.77.78h5.75c.43,0,.78-.35.78-.78V.78c0-.43-.35-.78-.78-.78h-5.75c-.43,0-.78.35-.78.78v1.87Zm14.4,27.75c0-9.14-6.31-9.75-6.31-9.75-.44-.05-.77-.42-.78-.85V6.72c0-.43-.35-.78-.78-.78,0,0,0,0,0,0h-5.75c-.43,0-.78.35-.78.78v13.07c0,.44-.34.8-.78.85,0,0-6.31.61-6.31,9.75v30.99c.02.51.16,1,.41,1.44,0,0,.73,1.17,1.64,1.17h17.38c.91,0,1.64-1.17,1.64-1.17.25-.44.4-.93.42-1.44v-30.99Zm22.08-1.21c-.11-.43-.5-.74-.95-.76h-16.68c-.45.02-.83.33-.95.76,0,0-1.48,6.71-.78,10.6,1.33,7.32,7.68,7.93,7.68,7.93.43.04.77.4.79.83v11.47c-.01.45-.33.83-.76.93l-5.56,1.07c-.49.12-.96.34-1.35.66,0,0-1.01.86.36.86h17.83c1.37,0,.36-.86.36-.86-.4-.31-.86-.54-1.36-.66l-5.55-1.07c-.44-.1-.75-.48-.76-.93v-11.47c0-.44.34-.8.77-.85,0,0,6.36-.61,7.68-7.93.69-3.89-.79-10.6-.79-10.6v.02Z"/>
        </g>
      </g>
    </g>
  </g>
</svg>