<?xml version="1.0" encoding="UTF-8"?>
<svg id="AC_icons" data-name="AC icons" xmlns="http://www.w3.org/2000/svg" viewBox="0 0 64 64">
  <defs>
    <style>
      .cls-1 {
        fill: #0a1830;
        stroke-width: 0px;
      }
    </style>
  </defs>
  <g id="Informational_icons" data-name="Informational icons">
    <g id="A">
      <g id="american-football">
        <path class="cls-1" d="m17.47,3.08h0c1.58-1.22-14.34.33-15.73,2.23C-1.31,9.48.48,28.14.97,24.01,1.98,15.49,9.85,8.96,17.47,3.08Z"/>
        <path class="cls-1" d="m63.29,41.2c-4.4,9.32-10.17,16.15-17.07,20.16,0,0,15.04-.05,16.61-3.11,1.82-3.55,1.14-18.48.46-17.05Z"/>
        <path class="cls-1" d="m24.57,3.84c-2.7-.32-6.4,2.43-10,6.22,1.65.72,5.26,2.76,9.61,5.57l2.69-3.01c.23-.26.63-.28.88-.05.26.23.28.63.05.88l-2.56,2.87c1.13.75,2.31,1.54,3.5,2.37l2.77-3.2c.23-.26.62-.29.88-.06.26.23.29.62.06.88l-2.68,3.1c.61.43,1.22.87,1.84,1.32.5.37,1.02.75,1.54,1.14l2.72-3.1c.23-.26.62-.28.88-.06.26.23.28.62.06.88l-2.66,3.03c1.05.8,2.12,1.64,3.22,2.53l2.67-2.99c.23-.26.63-.28.88-.05.26.23.28.63.05.88l-2.64,2.94c1.09.9,2.19,1.84,3.29,2.82l2.59-2.89c.23-.26.63-.28.88-.05.26.23.28.63.05.88l-2.59,2.89c.96.87,1.91,1.76,2.84,2.67l2.38-2.65c.23-.26.63-.28.88-.05.26.23.28.63.05.88l-2.42,2.7c.99.99,1.96,2.01,2.91,3.05l2.47-2.67c.24-.25.63-.27.88-.03.25.23.27.63.03.88l-2.55,2.75c2.47,2.82,4.71,5.8,6.5,8.87,2.65-3.49,4.58-7.13,5.03-10.42h0c.85-6.17-19.34-29.63-37.01-31.76Z"/>
        <path class="cls-1" d="m48.98,38.31l-2.3,2.48c-.12.13-.29.2-.46.2-.15,0-.3-.06-.43-.17-.25-.23-.27-.63-.03-.88l2.38-2.57c-.93-1.04-1.9-2.05-2.88-3.04l-2.05,2.3c-.12.14-.29.21-.47.21-.15,0-.3-.05-.42-.16-.26-.23-.28-.63-.05-.88l2.1-2.34c-.94-.92-1.89-1.81-2.84-2.67l-1.88,2.1c-.12.14-.3.21-.47.21-.15,0-.3-.05-.42-.16-.26-.23-.28-.63-.05-.88l1.88-2.1c-1.1-.98-2.2-1.92-3.3-2.82l-1.93,2.16c-.12.14-.29.21-.47.21-.15,0-.3-.05-.42-.16-.26-.23-.28-.63-.05-.88l1.9-2.12c-1.09-.88-2.16-1.72-3.21-2.52l-1.81,2.06c-.12.14-.3.21-.47.21-.15,0-.29-.05-.41-.16-.26-.23-.29-.62-.06-.88l1.75-1.99c-.32-.24-.63-.47-.95-.7-.82-.6-1.63-1.19-2.42-1.75l-1.89,2.18c-.12.14-.3.22-.47.22-.15,0-.29-.05-.41-.15-.26-.23-.29-.62-.06-.88l1.8-2.09c-1.22-.85-2.4-1.65-3.53-2.38l-2.09,2.34c-.12.14-.29.21-.47.21-.15,0-.3-.05-.42-.16-.26-.23-.28-.63-.05-.88l1.96-2.19c-4.87-3.14-8.47-5.06-9.39-5.43-.11,0-.22-.02-.33-.06C7.45,17.97,2.07,26.87,2.3,28.51c2.38,16.94,31.62,34.98,36.85,32.49,4.65-2.22,11.45-7.63,16.37-13.65h0c-1.76-3.13-4.02-6.16-6.53-9.04Z"/>
      </g>
    </g>
  </g>
</svg>