<?xml version="1.0" encoding="UTF-8"?>
<svg id="AC_icons" data-name="AC icons" xmlns="http://www.w3.org/2000/svg" viewBox="0 0 64 64">
  <defs>
    <style>
      .cls-1 {
        fill: #061a2f;
        fill-rule: evenodd;
        stroke-width: 0px;
      }
    </style>
  </defs>
  <g id="Informational_icons" data-name="Informational icons">
    <g id="A">
      <g id="anchorage">
        <g id="Anchorage">
          <path class="cls-1" d="m49.36,54.4l3.64,3.6,5-18-14,7,3.2,4.42s-2.65,2.15-5.98,2.65-6.22-2.06-6.22-2.06v-28l13-6v-3h-31.99v3l13,6v28s-2.89,2.56-6.22,2.06c-3.33-.5-5.98-2.65-5.98-2.65l3.2-4.42-14.01-7,5,18,3.65-3.6,17.27,9.6,17.45-9.6ZM24.98,6.5c0-3.59,3.13-6.5,7-6.5s7,2.91,7,6.5-3.13,6.5-7,6.5-6.99-2.92-6.99-6.5m3.15.08c0-2.11,1.69-3.82,3.8-3.83s3.82,1.69,3.83,3.8c0,2.11-1.69,3.82-3.8,3.83,0,0-.01,0-.02,0-2.1,0-3.81-1.7-3.81-3.8"/>
        </g>
      </g>
    </g>
  </g>
</svg>