<?xml version="1.0" encoding="UTF-8"?>
<svg id="AC_icons" data-name="AC icons" xmlns="http://www.w3.org/2000/svg" viewBox="0 0 64 64">
  <defs>
    <style>
      .cls-1 {
        fill: #fff;
      }

      .cls-1, .cls-2 {
        stroke-width: 0px;
      }

      .cls-2 {
        fill: #061a2f;
      }
    </style>
  </defs>
  <g id="Utility_and_system_icons" data-name="Utility and system icons">
    <g id="estimated-time-white-background">
      <g>
        <circle class="cls-1" cx="32" cy="32" r="32"/>
        <path class="cls-2" d="m32,8c13.23,0,24,10.77,24,24s-10.77,24-24,24-24-10.77-24-24,10.77-24,24-24m0-8C14.33,0,0,14.33,0,32s14.33,32,32,32,32-14.33,32-32S49.67,0,32,0h0Z"/>
        <path class="cls-2" d="m40,40h-16v-16c0-2.21,1.79-4,4-4s4,1.79,4,4v8h8c2.21,0,4,1.79,4,4s-1.79,4-4,4Z"/>
      </g>
    </g>
  </g>
</svg>