<?xml version="1.0" encoding="UTF-8"?>
<svg id="AC_icons" data-name="AC icons" xmlns="http://www.w3.org/2000/svg" viewBox="0 0 64 64">
  <defs>
    <style>
      .cls-1 {
        fill: #076d98;
      }

      .cls-1, .cls-2, .cls-3 {
        stroke-width: 0px;
      }

      .cls-2, .cls-3 {
        fill: #fff;
      }

      .cls-3 {
        fill-rule: evenodd;
      }
    </style>
  </defs>
  <g id="Social_media_and_app" data-name="Social media and app">
    <g id="round">
      <g id="app-slideshare">
        <g>
          <circle class="cls-1" cx="32.01" cy="31.99" r="32"/>
          <g>
            <path class="cls-3" d="m17.8,11.63h28.63c.92,0,1.81.37,2.46,1.03.65.65,1.02,1.54,1.03,2.46h0v18.07h-1.52V15.13c0-.52-.21-1.02-.58-1.39-.37-.37-.87-.58-1.39-.58h-28.66c-.27,0-.53.04-.78.13s-.47.24-.66.42c-.19.18-.34.4-.45.65-.1.24-.16.5-.16.77v18.06h-1.52V15.12c0-.47.1-.93.28-1.36.18-.43.45-.82.79-1.14.34-.33.73-.58,1.17-.75.43-.17.89-.25,1.36-.24Z"/>
            <path class="cls-2" d="m38.03,32.9c.63.02,1.26-.08,1.85-.3.59-.22,1.13-.56,1.59-.99.46-.43.83-.95,1.1-1.52s.41-1.19.43-1.83c-.07-1.26-.62-2.44-1.55-3.29-.93-.85-2.15-1.31-3.41-1.26-1.27-.04-2.51.42-3.44,1.29-.93.87-1.48,2.07-1.53,3.34.07,1.26.62,2.44,1.55,3.29.93.85,2.15,1.31,3.41,1.26Z"/>
            <path class="cls-2" d="m50.62,30.81c-4.33,3.12-9.66,4.53-14.97,3.95-1.52,0-3.14-.17-3.14,2.26v.27c2.34,1.52,4.56,1.52,6.23-1.09,1.08-1.66,2.54-1.09,1.76,1.06-.44,1.25-1.27,2.32-2.36,3.07-1.09.75-2.39,1.13-3.71,1.1-.61,0-1.22-.07-1.82-.2v6.73c-.05.58.03,1.17.22,1.72.2.55.51,1.05.92,1.47.41.42.9.74,1.45.95.54.21,1.13.3,1.71.26,4.82,0,7.35-4.44,7.35-9.12-.01-1.77-.29-3.52-.82-5.21,3.3-1.17,6.24-3.15,8.55-5.77.74-1.09-.14-2.31-1.37-1.44Z"/>
            <path class="cls-3" d="m31.46,28.21c-.02.64-.16,1.27-.42,1.85-.26.58-.63,1.11-1.1,1.54-.47.44-1.01.78-1.61,1-.6.22-1.23.33-1.87.3-.63.02-1.26-.08-1.85-.3-.59-.22-1.13-.56-1.59-.99-.46-.43-.83-.95-1.09-1.52s-.41-1.19-.43-1.83c.07-1.26.62-2.44,1.55-3.29.93-.85,2.15-1.31,3.41-1.26,1.25-.05,2.48.39,3.41,1.23.93.84,1.5,2.01,1.58,3.27Zm-3.48,6.55c-5.2.46-10.39-.94-14.65-3.95-1.23-.87-2.08.35-1.28,1.43,2.31,2.62,5.25,4.61,8.54,5.77-2.87,9.78,2.39,14.34,6.53,14.33.58.04,1.17-.04,1.72-.24.55-.2,1.05-.53,1.46-.94s.73-.92.93-1.47c.2-.55.28-1.14.23-1.72v-7.76c.96.29,1.96.47,2.96.53,1.29.1,2.58-.2,3.68-.87,1.1-.67,1.97-1.67,2.47-2.86.84-2.01-.59-2.58-1.7-1.05-2.14,2.95-4.89,2.34-7.73-.38-.77-.71-1.2-.91-3.19-.81h.03Z"/>
          </g>
        </g>
      </g>
    </g>
  </g>
</svg>