<?xml version="1.0" encoding="UTF-8"?>
<svg id="AC_icons" data-name="AC icons" xmlns="http://www.w3.org/2000/svg" viewBox="0 0 64 64">
  <defs>
    <style>
      .cls-1 {
        fill: #061a2f;
        stroke-width: 0px;
      }
    </style>
  </defs>
  <g id="Social_media_and_app" data-name="Social media and app">
    <g id="apple-2" data-name="apple">
      <g id="Apple">
        <path class="cls-1" d="m57.9,46.24q-.16,0,0,0c-.8-.32-8-3.52-8.16-12.32,0-7.04,5.44-10.88,6.56-11.52h0c.16,0,.16-.16.16-.32s0-.32-.16-.32c-3.84-5.6-9.6-6.4-11.84-6.4h-.96c-2.72,0-5.44.96-7.52,1.92-1.44.64-2.72,1.12-3.52,1.12-.96,0-2.24-.48-3.68-1.12-1.92-.8-4.16-1.6-6.56-1.6h-.16c-5.44,0-10.56,3.2-13.44,8.16-5.44,9.12-2.08,23.36,4,32,3.04,4.32,6.08,8.16,10.08,8.16h.16c1.92,0,3.36-.64,4.64-1.28,1.6-.64,3.04-1.28,5.6-1.28,2.4,0,3.84.64,5.28,1.28,1.44.64,2.88,1.28,5.12,1.28,4.64-.16,7.52-4.32,10.08-8,2.56-3.84,4-7.52,4.48-8.96h0c.16-.48,0-.64-.16-.8ZM31.82,15.52h.64c3.2,0,6.72-1.76,9.12-4.64,2.56-3.04,3.84-6.88,3.36-10.4,0-.32-.16-.48-.48-.48-3.36.16-7.2,2.24-9.6,4.96-2.08,2.4-4,6.24-3.52,10.08,0,.32.32.48.48.48Z"/>
      </g>
    </g>
  </g>
</svg>