<?xml version="1.0" encoding="UTF-8"?>
<svg id="AC_icons" data-name="AC icons" xmlns="http://www.w3.org/2000/svg" viewBox="0 0 64 64">
  <defs>
    <style>
      .cls-1 {
        fill: #061a2f;
        stroke-width: 0px;
      }
    </style>
  </defs>
  <g id="Social_media_and_app" data-name="Social media and app">
    <g id="itunes">
      <g>
        <path class="cls-1" d="m42.96,46.73c1.95-.57,3.32-1.96,3.89-3.91l.17-.58.02-15.43c.02-11.56,0-15.5-.06-15.72-.07-.23-.17-.42-.31-.57-.21-.13-.45-.19-.74-.19-.19,0-.87.09-1.49.21-2.78.51-19.14,3.76-19.42,3.87-.43.16-.86.54-1.06.94l-.17.34s-.08,24.19-.21,24.46c-.19.41-.61.81-1,.93-.18.06-.92.22-1.62.36-3.28.65-4.5,1.12-5.53,2.14-.59.57-1.02,1.36-1.21,2.18-.18.79-.12,1.97.14,2.68.27.75.7,1.39,1.26,1.89.51.39,1.12.69,1.8.86,1.5.38,4.32-.04,5.75-.88.6-.35,1.38-1.08,1.78-1.68.16-.24.4-.72.53-1.06.47-1.22.48-22.89.54-23.16.1-.46.42-.8.85-.92.39-.1,16.15-3.22,16.59-3.28.39-.05.76.07.96.32.12.06.22.15.29.26.13.19.14.57.15,7.43.02,7.9.03,7.71-.4,8.21-.31.36-.7.5-2.3.83-2.44.5-3.27.73-4.2,1.19-1.16.57-1.81,1.19-2.31,2.23-.35.73-.49,1.28-.48,2.01,0,1.3.45,2.32,1.47,3.32.09.09.19.18.28.26.51.4,1.03.63,1.69.78.99.23,3,.08,4.38-.33Z"/>
        <path class="cls-1" d="m31.94,64c-6.62,0-13.06-2.07-18.54-6.03h0C6.49,52.98,1.93,45.58.56,37.15c-1.37-8.43.61-16.9,5.58-23.83C11.11,6.37,18.47,1.79,26.88.42c8.39-1.37,16.82.62,23.72,5.61,6.91,4.99,11.47,12.38,12.84,20.82,1.37,8.43-.61,16.9-5.58,23.83-4.97,6.94-12.34,11.52-20.75,12.89-1.73.28-3.46.42-5.18.42Zm-17.26-7.8c6.43,4.65,14.28,6.5,22.09,5.23,7.83-1.28,14.69-5.54,19.32-12.01,9.56-13.34,6.52-32.01-6.77-41.61-6.43-4.65-14.27-6.5-22.09-5.23-7.83,1.28-14.69,5.54-19.32,12.01C-1.65,27.93,1.39,46.6,14.68,56.2h0Z"/>
      </g>
    </g>
  </g>
</svg>