<?xml version="1.0" encoding="UTF-8"?>
<svg id="AC_icons" data-name="AC icons" xmlns="http://www.w3.org/2000/svg" viewBox="0 0 64 64">
  <defs>
    <style>
      .cls-1 {
        fill: #061a2f;
        stroke-width: 0px;
      }
    </style>
  </defs>
  <g id="Social_media_and_app" data-name="Social media and app">
    <g id="android">
      <g>
        <path class="cls-1" d="m8.62,20.76h-.16c-2.08,0-3.84,1.76-3.84,3.84v16.65c0,2.08,1.76,3.84,3.84,3.84h.16c2.08,0,3.84-1.76,3.84-3.84v-16.65c0-2.08-1.76-3.84-3.84-3.84Z"/>
        <path class="cls-1" d="m14.38,47.67c0,1.92,1.6,3.52,3.52,3.52h3.68v8.97c0,2.08,1.76,3.84,3.84,3.84h.16c2.08,0,3.84-1.76,3.84-3.84v-8.97h5.28v8.97c0,2.08,1.76,3.84,3.84,3.84h.16c2.08,0,3.84-1.76,3.84-3.84v-8.97h3.68c1.92,0,3.52-1.6,3.52-3.52v-26.26H14.38v26.26Z"/>
        <path class="cls-1" d="m40.81,5.55l3.04-4.64c.16-.32.16-.64-.16-.8-.32-.16-.64-.16-.8.16l-3.04,4.8c-2.24-.96-4.96-1.44-7.69-1.44s-5.28.48-7.69,1.44L21.43.27c-.16-.32-.64-.32-.96-.16-.32.16-.32.64-.16.8l3.04,4.64c-5.44,2.56-8.97,7.53-8.97,13.29v.96h35.55v-.96c-.16-5.76-3.68-10.73-9.13-13.29Zm-16.97,8.17c-.96,0-1.76-.8-1.76-1.76s.8-1.76,1.76-1.76,1.76.8,1.76,1.76-.96,1.76-1.76,1.76Zm16.33,0c-.96,0-1.76-.8-1.76-1.76s.8-1.76,1.76-1.76,1.76.8,1.76,1.76-.8,1.76-1.76,1.76Z"/>
        <path class="cls-1" d="m55.54,20.76h0c-2.24,0-4,1.76-4,3.84v16.65c0,2.08,1.76,3.84,3.84,3.84h.16c2.08,0,3.84-1.76,3.84-3.84v-16.65c0-2.08-1.76-3.84-3.84-3.84Z"/>
      </g>
    </g>
  </g>
</svg>