<?xml version="1.0" encoding="UTF-8"?>
<svg id="AC_icons" data-name="AC icons" xmlns="http://www.w3.org/2000/svg" viewBox="0 0 64 64">
  <defs>
    <style>
      .cls-1, .cls-2 {
        fill: #061a2f;
        stroke-width: 0px;
      }

      .cls-2 {
        fill-rule: evenodd;
      }
    </style>
  </defs>
  <g id="Social_media_and_app" data-name="Social media and app">
    <g id="slideshare">
      <g>
        <path class="cls-2" d="m9.72,0h45c1.45,0,2.84.59,3.87,1.62,1.03,1.03,1.61,2.42,1.62,3.87h0v28.39h-2.39V5.5c0-.82-.33-1.61-.92-2.19-.58-.58-1.37-.91-2.19-.92H9.67c-.42-.01-.83.06-1.22.21s-.74.38-1.04.67c-.3.29-.54.64-.7,1.02-.16.38-.25.79-.25,1.21v28.38h-2.39V5.49c0-.73.15-1.46.44-2.14.29-.68.71-1.29,1.24-1.8.53-.51,1.15-.91,1.84-1.18C8.26.11,8.99-.01,9.72,0Z"/>
        <path class="cls-1" d="m41.51,33.43c.99.04,1.98-.13,2.91-.47.93-.35,1.78-.87,2.51-1.55.73-.68,1.31-1.49,1.72-2.39s.64-1.88.67-2.87c-.11-1.98-.98-3.84-2.44-5.18-1.46-1.34-3.39-2.05-5.37-1.99-2-.06-3.94.67-5.41,2.03-1.46,1.36-2.33,3.25-2.4,5.25.11,1.98.98,3.84,2.44,5.18,1.46,1.34,3.39,2.05,5.37,1.99Z"/>
        <path class="cls-1" d="m61.3,30.14c-6.8,4.91-15.18,7.12-23.52,6.21-2.39,0-4.94-.26-4.94,3.56v.43c3.68,2.39,7.16,2.39,9.79-1.72,1.7-2.6,3.99-1.72,2.77,1.67-.7,1.96-2,3.64-3.71,4.82-1.71,1.17-3.76,1.78-5.84,1.72-.96-.01-1.92-.12-2.86-.31v10.58c-.08.91.04,1.83.35,2.7.31.86.8,1.65,1.44,2.3.64.65,1.42,1.16,2.27,1.49.86.33,1.77.47,2.69.41,7.57,0,11.56-6.97,11.56-14.33-.02-2.78-.46-5.54-1.29-8.19,5.18-1.83,9.8-4.96,13.44-9.07,1.17-1.72-.21-3.63-2.15-2.27Z"/>
        <path class="cls-2" d="m31.19,26.05c-.02,1-.25,1.99-.66,2.9-.41.92-1,1.74-1.73,2.43-.73.69-1.59,1.22-2.53,1.57-.94.35-1.94.51-2.94.47-.99.04-1.98-.13-2.91-.47-.93-.35-1.78-.87-2.51-1.55-.73-.68-1.31-1.49-1.72-2.39s-.64-1.88-.67-2.87c.11-1.98.98-3.84,2.44-5.18,1.46-1.34,3.39-2.05,5.37-1.99,1.97-.08,3.9.62,5.36,1.94,1.47,1.32,2.36,3.16,2.49,5.13Zm-5.47,10.29c-8.17.73-16.32-1.47-23.02-6.21-1.93-1.36-3.27.55-2.01,2.24,3.62,4.12,8.24,7.25,13.42,9.07-4.51,15.38,3.75,22.54,10.27,22.51.92.07,1.84-.06,2.7-.38.86-.32,1.64-.83,2.29-1.48s1.14-1.44,1.46-2.31c.31-.87.43-1.79.36-2.7v-12.2c1.52.45,3.08.73,4.66.84,2.02.16,4.05-.32,5.78-1.37,1.74-1.05,3.1-2.63,3.89-4.5,1.31-3.15-.93-4.06-2.67-1.65-3.37,4.63-7.69,3.68-12.15-.6-1.22-1.12-1.89-1.43-5.01-1.27h.05Z"/>
      </g>
    </g>
  </g>
</svg>