<?xml version="1.0" encoding="UTF-8"?>
<svg id="AC_icons" data-name="AC icons" xmlns="http://www.w3.org/2000/svg" viewBox="0 0 64 64">
  <defs>
    <style>
      .cls-1 {
        fill: #077ebb;
      }

      .cls-1, .cls-2 {
        stroke-width: 0px;
      }

      .cls-2 {
        fill: #fff;
      }
    </style>
  </defs>
  <g id="Social_media_and_app" data-name="Social media and app">
    <g id="round">
      <g id="app-email">
        <circle class="cls-1" cx="32" cy="32" r="32"/>
        <g>
          <path class="cls-2" d="m35.49,36.97c-1.01.84-2.25,1.26-3.49,1.26s-2.48-.42-3.49-1.26l-2.45-2.04-13.14,10.95c1.4,1.22,3.2,1.99,5.21,1.99h27.77c2,0,3.81-.77,5.21-1.99l-13.14-10.95-2.45,2.04Z"/>
          <path class="cls-2" d="m10.5,21.97c-.19.67-.32,1.37-.32,2.1v15.87c0,1.3.34,2.51.9,3.6l12.65-10.54-13.23-11.02Z"/>
          <path class="cls-2" d="m40.27,32.99l12.65,10.54c.56-1.08.9-2.29.9-3.6v-15.87c0-.73-.13-1.43-.32-2.1l-13.23,11.02Z"/>
          <path class="cls-2" d="m26.05,31.05l2.32,1.94,2.04,1.7c.92.77,2.25.77,3.17,0l2.04-1.7,2.32-1.94,4.66-3.88,9.53-7.94c-1.45-1.87-3.7-3.1-6.25-3.1h-27.77c-2.55,0-4.8,1.23-6.25,3.1l9.53,7.94,4.66,3.88Z"/>
        </g>
      </g>
    </g>
  </g>
</svg>