<?xml version="1.0" encoding="UTF-8"?>
<svg id="AC_icons" data-name="AC icons" xmlns="http://www.w3.org/2000/svg" xmlns:xlink="http://www.w3.org/1999/xlink" viewBox="0 0 64 64">
  <defs>
    <style>
      .cls-1 {
        fill: url(#linear-gradient);
      }

      .cls-1, .cls-2 {
        stroke-width: 0px;
      }

      .cls-2 {
        fill: #fff;
      }
    </style>
    <linearGradient id="linear-gradient" x1="31.97" y1="63.73" x2="32.03" y2=".79" gradientUnits="userSpaceOnUse">
      <stop offset="0" stop-color="#9266ac"/>
      <stop offset="1" stop-color="#d687b9"/>
    </linearGradient>
  </defs>
  <g id="Social_media_and_app" data-name="Social media and app">
    <g id="round">
      <g id="app-itunes">
        <g>
          <circle class="cls-1" cx="32" cy="32" r="32"/>
          <g>
            <path class="cls-2" d="m40.22,43.04c1.46-.43,2.49-1.47,2.92-2.94l.12-.43.02-11.57c.01-8.67,0-11.63-.05-11.79-.05-.17-.13-.31-.24-.43-.15-.1-.34-.15-.55-.15-.15,0-.65.07-1.12.16-2.08.38-14.35,2.82-14.56,2.9-.32.12-.65.4-.8.71l-.13.26s-.06,18.14-.16,18.35c-.14.31-.46.61-.75.7-.14.04-.69.17-1.22.27-2.46.49-3.38.84-4.15,1.6-.44.43-.76,1.02-.91,1.64-.13.59-.09,1.47.1,2.01.2.56.52,1.04.95,1.42.38.3.84.52,1.35.65,1.13.29,3.24-.03,4.32-.66.45-.26,1.03-.81,1.33-1.26.12-.18.3-.54.4-.8.35-.91.36-17.16.41-17.37.08-.35.31-.6.64-.69.29-.08,12.11-2.41,12.44-2.46.29-.04.57.05.72.24.09.05.17.11.22.19.1.14.1.43.12,5.57.02,5.92.02,5.78-.3,6.16-.23.27-.53.38-1.73.62-1.83.37-2.45.55-3.15.89-.87.43-1.36.89-1.73,1.67-.27.55-.36.96-.36,1.51,0,.98.34,1.74,1.1,2.49.07.07.14.13.21.19.38.3.77.48,1.27.59.74.17,2.25.06,3.28-.24Z"/>
            <path class="cls-2" d="m31.96,56c-4.97,0-9.8-1.55-13.91-4.52h0c-5.18-3.74-8.6-9.29-9.63-15.61-1.03-6.32.46-12.67,4.18-17.87,3.73-5.21,9.25-8.64,15.56-9.67,6.3-1.03,12.61.47,17.79,4.21,5.18,3.74,8.6,9.29,9.63,15.61,1.03,6.32-.46,12.67-4.18,17.88-3.73,5.21-9.26,8.64-15.56,9.67-1.3.21-2.6.32-3.88.32Zm-12.95-5.85c4.82,3.48,10.71,4.88,16.57,3.92,5.87-.96,11.02-4.16,14.49-9.01,7.17-10.01,4.89-24.01-5.08-31.21-4.82-3.48-10.71-4.88-16.57-3.92-5.87.96-11.02,4.16-14.49,9.01-7.17,10.01-4.89,24.01,5.07,31.21h0Z"/>
          </g>
        </g>
      </g>
    </g>
  </g>
</svg>