<?xml version="1.0" encoding="UTF-8"?>
<svg id="AC_icons" data-name="AC icons" xmlns="http://www.w3.org/2000/svg" viewBox="0 0 64 64">
  <defs>
    <style>
      .cls-1 {
        fill: #f15722;
      }

      .cls-1, .cls-2 {
        stroke-width: 0px;
      }

      .cls-2 {
        fill: #fff;
      }
    </style>
  </defs>
  <g id="Social_media_and_app" data-name="Social media and app">
    <g id="round">
      <g id="app-soundcloud">
        <g>
          <circle class="cls-1" cx="31.96" cy="32" r="32"/>
          <g id="artwork">
            <path class="cls-2" d="m9.11,36.89l-.41,2.65c0,.11,0,.19-.19.19s-.17,0-.19-.19l-.36-2.65.36-2.69c0-.11,0-.19.19-.19s.17,0,.19.19l.41,2.69Zm1.88,0l-.55,4.25c-.02.1-.1.18-.21.19-.1,0-.19-.08-.19-.19,0,0,0-.01,0-.02l-.49-4.23.49-4.34c0-.1.08-.19.19-.19h0c.1,0,.19.09.21.19l.55,4.34Zm1.88,0l-.53,4.97c0,.12-.1.23-.23.23h0c-.12,0-.23-.1-.24-.23l-.43-4.97.43-5.13c0-.13.11-.24.24-.24.13,0,.23.12.23.24l.53,5.13Zm1.88,0l-.36,5.12c0,.16-.14.28-.3.28-.15.01-.27-.1-.28-.24,0-.01,0-.03,0-.04l-.49-5.12.43-5.28c-.01-.15.1-.27.24-.28.01,0,.03,0,.04,0,.16,0,.29.12.3.28l.41,5.28Zm1.88,0l-.43,5.15c0,.18-.16.33-.34.34-.18,0-.32-.14-.32-.32,0,0,0-.01,0-.02l-.34-5.15.41-4.91c0-.18.14-.32.32-.32h0c.18,0,.32.14.34.32l.36,4.91Zm1.88,0l-.43,5.15c0,.2-.16.37-.36.38-.2,0-.37-.17-.38-.38l-.38-5.15.38-7.97c0-.2.17-.37.38-.38.2.01.36.18.36.38l.43,7.97Zm1.88,0l-.39,5.12c0,.22-.18.39-.39.39-.22,0-.4-.17-.41-.39l-.04-5.08.34-9.82c.01-.22.19-.4.41-.39.22,0,.39.18.39.39h0l.09,9.78Zm2.03,0l-.38,5.08c0,.25-.2.45-.45.45-.25,0-.45-.2-.45-.45l-.34-5.08.34-10.61c0-.25.19-.45.43-.47.26,0,.46.21.47.47l.38,10.61Zm1.99,0l-.34-10.96c0-.28-.23-.5-.51-.51-.27.01-.49.23-.49.51l-.3,10.96.3,5.06c0,.27.22.49.49.49s.49-.22.49-.49l.36-5.06Zm2.01,0l.06,5c0,.29-.24.53-.53.53h0c-.29,0-.53-.24-.53-.53h0l-.3-5.02.3-10.7c0-.29.24-.53.53-.53s.53.24.53.53l-.06,10.72Zm2.05,0l-.3,4.95c0,.31-.25.56-.56.56-.31,0-.56-.25-.58-.56l-.24-4.95.24-10.33c0-.32.27-.57.58-.58.31.01.56.27.56.58l.3,10.33Zm2.03,0l-.24-12.3c0-.21-.1-.4-.28-.51-.2-.14-.47-.14-.68,0-.17.11-.28.3-.28.51v.13l-.21,12.15.23,4.95h0c0,.13.05.26.13.36.12.15.3.23.49.23.16,0,.31-.07.41-.19.12-.1.19-.25.19-.41v-.51l.24-4.4Zm1.88,4.85c0,.36-.29.66-.66.66h0c-.37,0-.67-.29-.68-.66l-.13-2.39-.13-2.44.55-13.33h0c.01-.19.1-.38.24-.51.12-.09.26-.15.41-.15.12,0,.23.04.32.11.19.12.32.32.34.55l.3,13.41-.56,4.76Zm17.68.68h-16.21c-.37-.03-.65-.33-.66-.7v-18.81c0-.36.13-.53.58-.7,1.2-.47,2.47-.71,3.76-.71,5.46-.02,10.02,4.15,10.49,9.59.73-.31,1.52-.47,2.31-.47,3.28.18,5.78,2.99,5.6,6.27-.17,3.02-2.58,5.43-5.6,5.6l-.28-.08Z"/>
          </g>
        </g>
      </g>
    </g>
  </g>
</svg>