<?xml version="1.0" encoding="UTF-8"?>
<svg id="AC_icons" data-name="AC icons" xmlns="http://www.w3.org/2000/svg" viewBox="0 0 64 64">
  <defs>
    <style>
      .cls-1 {
        fill: #061a2f;
        stroke-width: 0px;
      }
    </style>
  </defs>
  <g id="Social_media_and_app" data-name="Social media and app">
    <g id="instagram">
      <g id="artwork">
        <path class="cls-1" d="m63.78,45.22c.1,4.97-1.76,9.78-5.16,13.4-3.62,3.41-8.43,5.26-13.4,5.16-4.42.25-8.8.22-13.22.22s-8.8,0-13.22-.22c-4.97.1-9.78-1.76-13.4-5.16C1.98,55,.12,50.19.22,45.22-.03,40.8,0,36.42,0,32S0,23.2.22,18.78c-.1-4.97,1.76-9.78,5.16-13.4C9,1.98,13.81.12,18.78.22,23.2-.03,27.58,0,32,0S40.8,0,45.22.22c4.97-.1,9.78,1.76,13.4,5.16,3.41,3.62,5.26,8.43,5.16,13.4.25,4.42.22,8.8.22,13.22s.03,8.8-.22,13.22ZM13.12,7.12c-2.85,1.11-5.11,3.37-6.22,6.22-1.68,4.2-1.31,14.21-1.31,18.88s-.37,14.68,1.31,18.88c1.11,2.86,3.36,5.11,6.22,6.22,4.2,1.68,14.21,1.31,18.88,1.31s14.68.37,18.88-1.31c2.86-1.11,5.11-3.36,6.22-6.22,1.68-4.2,1.31-14.21,1.31-18.88s.37-14.68-1.31-18.88c-1.11-2.85-3.37-5.11-6.22-6.22-4.2-1.68-14.21-1.31-18.88-1.31s-14.68-.44-18.88,1.31Zm18.88,41.3c-9.07,0-16.42-7.35-16.42-16.42s7.35-16.42,16.42-16.42,16.42,7.35,16.42,16.42c.02,9.05-7.31,16.4-16.36,16.42-.02,0-.04,0-.06,0Zm0-27.09c-5.89,0-10.67,4.78-10.67,10.67s4.78,10.67,10.67,10.67,10.67-4.78,10.67-10.67h0c-.02-5.88-4.78-10.65-10.67-10.67Zm17.07-2.58c-2.11,0-3.82-1.71-3.82-3.82,0-2.11,1.71-3.82,3.82-3.82s3.82,1.71,3.82,3.82-1.71,3.82-3.82,3.82Z"/>
      </g>
    </g>
  </g>
</svg>