<?xml version="1.0" encoding="UTF-8"?>
<svg id="AC_icons" data-name="AC icons" xmlns="http://www.w3.org/2000/svg" viewBox="0 0 64 64">
  <defs>
    <style>
      .cls-1 {
        fill: #061a2f;
        stroke-width: 0px;
      }
    </style>
  </defs>
  <g id="Social_media_and_app" data-name="Social media and app">
    <g id="soundcloud">
      <g id="artwork">
        <path class="cls-1" d="m1.53,38.52l-.55,3.54c0,.15,0,.25-.25.25s-.23,0-.25-.25l-.48-3.54.48-3.59c0-.15,0-.25.25-.25s.23,0,.25.25l.55,3.59Zm2.51,0l-.73,5.67c-.02.14-.14.24-.28.25-.14,0-.25-.11-.25-.25,0,0,0-.02,0-.03l-.65-5.64.65-5.79c0-.14.11-.25.25-.25h0c.14,0,.25.11.28.25l.73,5.79Zm2.51,0l-.7,6.62c0,.17-.13.3-.3.3h0c-.17-.01-.3-.14-.33-.3l-.58-6.62.58-6.85c.01-.17.15-.31.33-.33.17.01.3.16.3.33l.7,6.85Zm2.51,0l-.48,6.82c-.01.21-.19.38-.4.38-.19.01-.36-.13-.38-.32,0-.02,0-.03,0-.05l-.65-6.82.58-7.05c-.01-.19.13-.36.32-.38.02,0,.03,0,.05,0,.21,0,.39.16.4.38l.55,7.05Zm2.51,0l-.58,6.87c-.01.24-.21.44-.45.45-.24,0-.43-.19-.43-.43,0,0,0-.02,0-.03l-.45-6.87.55-6.54c0-.24.19-.43.43-.43h0c.24.01.43.19.45.43l.48,6.54Zm2.51,0l-.58,6.87c0,.27-.21.49-.48.5-.27-.01-.49-.23-.5-.5l-.5-6.87.5-10.63c.01-.27.23-.49.5-.5.27.01.48.23.48.5l.58,10.63Zm2.51,0l-.53,6.82c0,.29-.24.53-.53.53-.3,0-.54-.23-.55-.53l-.05-6.77.45-13.09c.01-.29.26-.53.55-.53.29,0,.53.24.53.53h0l.13,13.04Zm2.71,0l-.5,6.77c0,.33-.27.6-.6.6-.33,0-.6-.27-.6-.6l-.45-6.77.45-14.14c0-.33.25-.6.58-.63.34.01.61.29.63.63l.5,14.14Zm2.66,0l-.45-14.62c-.01-.37-.31-.66-.68-.68-.36.01-.65.31-.65.68l-.4,14.62.4,6.75c0,.36.29.65.65.65s.65-.29.65-.65l.48-6.75Zm2.68,0l.08,6.67c0,.39-.31.7-.7.7h0c-.39,0-.7-.31-.7-.7h0l-.4-6.7.4-14.27c0-.39.31-.7.7-.7s.7.31.7.7l-.08,14.29Zm2.73,0l-.4,6.59c0,.42-.34.75-.75.75-.41-.01-.75-.34-.78-.75l-.33-6.59.33-13.77c.01-.42.35-.76.78-.78.42.01.75.36.75.78l.4,13.77Zm2.71,0l-.33-16.4c0-.28-.14-.53-.38-.68-.27-.19-.63-.19-.9,0-.23.15-.38.4-.38.68v.18l-.28,16.2.3,6.59h0c0,.17.06.34.18.48.16.19.4.31.65.3.21,0,.41-.1.55-.25.16-.14.25-.34.25-.55v-.68l.33-5.87Zm2.51,6.47c0,.48-.39.88-.88.88h0c-.49,0-.89-.39-.9-.88l-.18-3.18-.18-3.26.73-17.78h0c.02-.26.14-.5.33-.68.16-.13.35-.2.55-.2.15,0,.3.06.43.15.26.15.43.43.45.73l.4,17.88-.75,6.34Zm23.57.9h-21.62c-.49-.04-.87-.44-.88-.93v-25.08c0-.48.18-.7.78-.93,1.6-.63,3.3-.95,5.02-.95,7.28-.03,13.37,5.53,13.99,12.79.98-.41,2.02-.62,3.08-.63,4.37.25,7.71,3.99,7.47,8.36-.23,4.03-3.44,7.24-7.47,7.47l-.38-.1Z"/>
      </g>
    </g>
  </g>
</svg>