<?xml version="1.0" encoding="UTF-8"?>
<svg id="AC_icons" data-name="AC icons" xmlns="http://www.w3.org/2000/svg" viewBox="0 0 64 64">
  <defs>
    <style>
      .cls-1 {
        fill: red;
      }

      .cls-1, .cls-2 {
        stroke-width: 0px;
      }

      .cls-2 {
        fill: #fff;
      }
    </style>
  </defs>
  <g id="Social_media_and_app" data-name="Social media and app">
    <g id="round">
      <g id="app-youtube">
        <g>
          <circle class="cls-1" cx="32" cy="32" r="32"/>
          <g>
            <path class="cls-2" d="m52.35,21.71c-.49-1.84-1.93-3.29-3.75-3.78-3.31-.89-16.59-.89-16.59-.89,0,0-13.28,0-16.59.89-1.83.49-3.27,1.94-3.75,3.78-.89,3.33-.89,10.29-.89,10.29,0,0,0,6.95.89,10.29.49,1.84,1.93,3.29,3.75,3.78,3.31.89,16.59.89,16.59.89,0,0,13.28,0,16.59-.89,1.83-.49,3.27-1.94,3.75-3.78.89-3.33.89-10.29.89-10.29,0,0,0-6.95-.89-10.29Z"/>
            <polygon class="cls-1" points="27.66 38.31 38.76 32 27.66 25.69 27.66 38.31"/>
          </g>
        </g>
      </g>
    </g>
  </g>
</svg>