<?xml version="1.0" encoding="UTF-8"?>
<svg id="AC_icons" data-name="AC icons" xmlns="http://www.w3.org/2000/svg" viewBox="0 0 64 64">
  <defs>
    <style>
      .cls-1 {
        fill: #061a2f;
        stroke-width: 0px;
      }
    </style>
  </defs>
  <g id="Social_media_and_app" data-name="Social media and app">
    <g id="youtube">
      <path class="cls-1" d="m62.66,16.5c-.74-2.77-2.9-4.95-5.66-5.7-4.99-1.35-25-1.35-25-1.35,0,0-20.01,0-25,1.35-2.75.74-4.92,2.92-5.66,5.7-1.34,5.02-1.34,15.5-1.34,15.5,0,0,0,10.48,1.34,15.5.74,2.77,2.9,4.95,5.66,5.69,4.99,1.35,25,1.35,25,1.35,0,0,20.01,0,25-1.35,2.75-.74,4.92-2.92,5.66-5.69,1.34-5.02,1.34-15.5,1.34-15.5,0,0,0-10.48-1.34-15.5Zm-37.21,25.02v-19.03l16.73,9.52-16.73,9.52Z"/>
    </g>
  </g>
</svg>