<?xml version="1.0" encoding="UTF-8"?>
<svg id="AC_icons" data-name="AC icons" xmlns="http://www.w3.org/2000/svg" viewBox="0 0 64 64">
  <defs>
    <style>
      .cls-1 {
        fill: #061a2f;
        stroke-width: 0px;
      }
    </style>
  </defs>
  <g id="Informational_icons" data-name="Informational icons">
    <g id="A">
      <g id="apple">
        <g>
          <path class="cls-1" d="m57.31,35.14c-.11-.9-.16-1.82-.32-2.72-.55-3.54-2.23-6.82-4.78-9.34-.36-.34-.72-.67-1.11-.97-2.07-1.68-4.57-2.75-7.21-3.09-2.74-.36-5.53-.04-8.11.95-1.3.47-3.71,1.52-3.77,1.54-.06.02-2.14-1.07-3.44-1.54-2.71-1-5.62-1.33-8.49-.95-2.64.35-5.14,1.42-7.21,3.09-.34.3-.71.64-1.07.97-2.55,2.52-4.22,5.8-4.77,9.34-.16.9-.22,1.81-.33,2.72,0,.1-.03.2-.05.29v2.66c.06.6.11,1.22.17,1.82.32,2.84.97,5.63,1.94,8.32,1.27,3.64,3.12,7.04,5.47,10.09l.22.29c.96,1.35,2.1,2.58,3.37,3.64.29.23.6.44.92.63,1.62,1.12,3.69,1.39,5.55.72l.16-.05c.87-.23,1.73-.51,2.56-.86.58-.24,1.18-.45,1.79-.63,1.06-.23,2.13-.39,3.21-.48h.15c1.03.03,2.06.19,3.05.48.61.18,1.21.39,1.79.63.83.36,1.69.65,2.57.89l.16.05c1.86.67,3.92.4,5.55-.72.32-.19.63-.4.92-.63,1.28-1.06,2.41-2.29,3.37-3.64.08-.09.15-.19.22-.29,2.35-3.05,4.19-6.45,5.47-10.08.97-2.69,1.63-5.48,1.94-8.32.06-.6.11-1.22.17-1.82v-2.7c0-.09-.04-.19-.05-.29Zm-6,1.76h0c-.77,0-1.39-.62-1.39-1.39,0-4.27-2.57-8.02-6.55-9.57-.71-.28-1.07-1.08-.79-1.8.28-.71,1.08-1.07,1.8-.79,5.05,1.96,8.32,6.74,8.31,12.16,0,.77-.62,1.39-1.39,1.39Z"/>
          <path class="cls-1" d="m42.76,0s-15.41,3.57-10.63,18.65C47.55,15.08,42.76,0,42.76,0Z"/>
        </g>
      </g>
    </g>
  </g>
</svg>