<?xml version="1.0" encoding="UTF-8"?>
<svg id="AC_icons" data-name="AC icons" xmlns="http://www.w3.org/2000/svg" viewBox="0 0 64 64">
  <defs>
    <style>
      .cls-1 {
        fill: #0a1830;
        stroke-width: 0px;
      }
    </style>
  </defs>
  <g id="Informational_icons" data-name="Informational icons">
    <g id="A">
      <g id="archery">
        <g>
          <path class="cls-1" d="m46.86,44.97c6.85-3.9,11.49-11.27,11.49-19.71,0-12.5-10.17-22.67-22.67-22.67-6.81,0-12.93,3.03-17.09,7.8L9.75,3.29c-.3-.24-.73-.19-.97.1-.24.3-.19.73.1.97l8.83,7.1c-2.95,3.83-4.7,8.61-4.7,13.8,0,7.85,4.01,14.78,10.1,18.85-.1.12-.19.26-.26.42l-7.46,17.16c-.36.84.02,1.81.86,2.17.21.09.44.14.66.14.64,0,1.25-.37,1.52-.99l7.46-17.16s.03-.08.05-.13c2.48,1.18,5.2,1.93,8.07,2.14l-.22,11.72c-.02.91.71,1.67,1.62,1.68.01,0,.02,0,.03,0,.9,0,1.64-.72,1.65-1.62l.22-11.78c2.3-.16,4.51-.67,6.57-1.47l7.85,16.54c.28.6.88.94,1.49.94.24,0,.48-.05.71-.16.82-.39,1.18-1.38.78-2.2l-7.85-16.54Zm-30.54-19.71c0-4.41,1.48-8.47,3.97-11.73l3.36,2.7c-1.8,2.49-2.87,5.54-2.87,8.84,0,8.33,6.78,15.11,15.11,15.11s15.11-6.78,15.11-15.11-6.78-15.11-15.11-15.11c-4.54,0-8.62,2.02-11.39,5.2l-3.34-2.69c3.55-4.02,8.74-6.57,14.52-6.57,10.68,0,19.36,8.69,19.36,19.36s-8.69,19.36-19.36,19.36-19.36-8.69-19.36-19.36Zm19.3.61c.13.1.28.15.43.15.2,0,.4-.09.54-.26.24-.3.19-.73-.1-.97l-2.9-2.34c.62-.61,1.47-.99,2.41-.99,1.9,0,3.45,1.55,3.45,3.45s-1.55,3.45-3.45,3.45-3.45-1.55-3.45-3.45c0-.47.09-.91.26-1.32l2.82,2.27Zm.37,5.8c3.72,0,6.75-3.03,6.75-6.75s-3.03-6.75-6.75-6.75c-1.98,0-3.76.85-4.99,2.21l-3.92-3.15c2.16-2.43,5.31-3.96,8.82-3.96,6.51,0,11.81,5.3,11.81,11.81s-5.3,11.81-11.81,11.81-11.81-5.3-11.81-11.81c0-2.52.79-4.85,2.14-6.76l3.95,3.18c-.6,1.01-.94,2.18-.94,3.43,0,3.72,3.03,6.75,6.75,6.75Z"/>
          <polygon class="cls-1" points="14.95 3.32 10.42 0 10.11 2.68 15.06 6.64 14.95 3.32"/>
          <polygon class="cls-1" points="8.3 4.84 5.65 5.66 10.11 9.32 13.32 8.7 8.3 4.84"/>
        </g>
      </g>
    </g>
  </g>
</svg>