<?xml version="1.0" encoding="UTF-8"?>
<svg id="AC_icons" data-name="AC icons" xmlns="http://www.w3.org/2000/svg" viewBox="0 0 64 64">
  <defs>
    <style>
      .cls-1 {
        fill: #061a2f;
        stroke-width: 0px;
      }
    </style>
  </defs>
  <g id="Informational_icons" data-name="Informational icons">
    <g id="A">
      <g id="art-in-the-park">
        <g id="Art_in_the_park" data-name="Art in the park">
          <rect class="cls-1" x="23" y="51" width="18" height="13"/>
          <path class="cls-1" d="m46,44h-28c-1.1,0-2,.9-2,2v1.06c-.01,1.06.84,1.93,1.9,1.94.03,0,.07,0,.1,0h28c1.07.03,1.97-.81,2-1.88,0-.04,0-.08,0-.12v-1c0-1.1-.9-2-2-2Z"/>
          <path class="cls-1" d="m44,64s-1-9,6-13c0,0-2,5,0,8,1-3,2-5,5-6-.56,2.29-.9,4.64-1,7,1-2,2-5,6-5-2,3-2,7-1,9h-15Z"/>
          <path class="cls-1" d="m20,64s1-9-6-13c0,0,2,5,0,8-1-3-2-5-5-6,.56,2.29.9,4.64,1,7-1-2-2-5-6-5,2,3,2,7,1,9h15Z"/>
          <path class="cls-1" d="m28,42h8c9,0,10-6,11-9,1-3,2-8,0-9-2-1-8-2-9-2s-2-2,0-4c1.82-1.89,2.88-4.38,3-7C41,0,32,0,32,0c0,0-9,0-9,11,.12,2.62,1.18,5.11,3,7,2,2,1,4,0,4s-7,1-9,2c-2,1-1,6,0,9,1,3,2,9,11,9Z"/>
        </g>
      </g>
    </g>
  </g>
</svg>