<?xml version="1.0" encoding="UTF-8"?>
<svg id="AC_icons" data-name="AC icons" xmlns="http://www.w3.org/2000/svg" viewBox="0 0 64 64">
  <defs>
    <style>
      .cls-1 {
        fill: #061a2f;
        stroke-width: 0px;
      }
    </style>
  </defs>
  <g id="Informational_icons" data-name="Informational icons">
    <g id="A">
      <g id="assembly-point">
        <g id="Assembly_point" data-name="Assembly point">
          <path class="cls-1" d="m44.57,28.43h-7.6c-.12,1.09-.58,2.12-1.33,2.93h.1c2.94.03,5.3,2.44,5.27,5.38v5.98h3.61v-7.47c0-.47.37-.85.84-.86.44,0,.8.36.82.8h.04v7.52h2.17v-10.3c.01-2.18-1.74-3.97-3.93-3.99"/>
          <path class="cls-1" d="m40.7,26.68c1.9.03,3.47-1.48,3.5-3.38.03-1.9-1.48-3.47-3.38-3.5-1.9-.03-3.47,1.48-3.5,3.38,0,.02,0,.04,0,.06-.01,1.88,1.5,3.42,3.38,3.44"/>
          <path class="cls-1" d="m35.74,32.73h-7.73c-2.19.02-3.95,1.81-3.93,4,0,0,0,0,0,0v10.28h1.94v-7.16c.02-.13.07-.26.15-.37v-.12h.05c.14-.23.38-.37.64-.38.47,0,.84.39.84.86h0v7.16h8.21v-7.15c0-.47.37-.85.84-.86.31.02.58.21.7.5h.06v.14c.02.08.09.14.09.22v7.16h2.08v-10.27c0-2.18-1.75-3.96-3.93-3.99"/>
          <path class="cls-1" d="m31.97,31.42c2.04.03,3.73-1.59,3.76-3.64.03-2.04-1.59-3.73-3.64-3.76-2.04-.03-3.73,1.59-3.76,3.64,0,.02,0,.04,0,.07-.01,2.02,1.61,3.68,3.64,3.7"/>
          <path class="cls-1" d="m26.76,28.43h-7.88c-2.19.02-3.94,1.8-3.93,3.99v10.3h1.99v-7.47c0-.47.38-.84.84-.84s.84.38.84.84v7.47h4.08v-5.98c-.03-2.94,2.33-5.34,5.26-5.36,0,0,0,0,.01,0h.1c-.74-.8-1.21-1.82-1.33-2.91"/>
          <path class="cls-1" d="m22.71,26.68c1.9.03,3.47-1.48,3.5-3.38.03-1.9-1.48-3.47-3.38-3.5-1.9-.03-3.47,1.48-3.5,3.38,0,.02,0,.04,0,.06-.01,1.88,1.5,3.42,3.38,3.44"/>
          <path class="cls-1" d="m31.97,22.82c1.9.03,3.47-1.48,3.5-3.38.03-1.9-1.48-3.47-3.38-3.5-1.9-.03-3.47,1.48-3.5,3.38,0,.02,0,.04,0,.06,0,1.88,1.5,3.42,3.38,3.44"/>
          <polygon class="cls-1" points="50 62 50 54 60 64 64 60 54 50 62 50 58.17 45.09 45 45 45 59 50 62"/>
          <polygon class="cls-1" points="50 2 50 10 60 0 64 4 54 14 62 14 58 19 45 19 45 6 50 2"/>
          <polygon class="cls-1" points="14 62 14 53 4 64 0 60 11 50 2 50 6 45 19 45 19 58 14 62"/>
          <polygon class="cls-1" points="14 2 14 10 4 0 0 4 10 14 2 14 6 19 19 19 19 6 14 2"/>
        </g>
      </g>
    </g>
  </g>
</svg>