<?xml version="1.0" encoding="UTF-8"?>
<svg id="AC_icons" data-name="AC icons" xmlns="http://www.w3.org/2000/svg" viewBox="0 0 64 64">
  <defs>
    <style>
      .cls-1 {
        fill: #061a2f;
        stroke-width: 0px;
      }
    </style>
  </defs>
  <g id="Informational_icons" data-name="Informational icons">
    <g id="A">
      <g id="authorised-vehicle-access">
        <g id="Authorised_vehicle_access" data-name="Authorised vehicle access">
          <path class="cls-1" d="m38.99,27.29c-.03-.71-.37-1.08-1.07-1.08h-3.9c-.53-2.13-1.11-3.19-1.6-5.38-.62-2.76-2.44-4.31-5.25-4.32h-15.36c-2.8,0-4.62,1.56-5.24,4.32-.49,2.19-1.07,3.25-1.6,5.38H1.07c-.7,0-1.05.37-1.07,1.08v.38c0,.98.19,1.22,1.13,1.39l1.04.19c-.21.73-.39,1.47-.51,2.23-.18,1.58-.34,3.16-.38,4.75-.09,3.62.15,7.8.32,8.81s.62,2.46,1.83,2.46h1.62c.96,0,1.96-1,1.96-1.99v-4h25v4c0,1,1,1.99,1.96,1.99h1.62c1.21,0,1.66-1.46,1.83-2.46s.41-5.19.32-8.81c-.04-1.58-.2-3.17-.38-4.75-.13-.75-.3-1.49-.51-2.23l1.04-.19c.94-.17,1.14-.42,1.13-1.39v-.38m-30.44,11.21c-1.38.03-2.52-1.07-2.55-2.45s1.07-2.52,2.45-2.55c1.38-.03,2.52,1.07,2.55,2.45,0,.01,0,.03,0,.04,0,1.36-1.09,2.48-2.45,2.51m1.45-9c-1.07,0-1.83-.56-2.43-1.53-.25-.38-.33-.85-.21-1.28.41-1.68,1.69-5.73,1.95-6.65.04-.34.34-.58.68-.54,0,0,0,0,.01,0h19c.34-.04.64.19.69.53,0,0,0,0,0,.01.27.92,1.55,4.97,1.96,6.65.12.44.04.9-.21,1.28-.61.97-1.36,1.53-2.44,1.53H10.01m20.45,9c-1.38-.03-2.48-1.17-2.45-2.55.03-1.38,1.17-2.48,2.55-2.45,1.36.03,2.45,1.14,2.45,2.51-.01,1.39-1.15,2.5-2.54,2.49,0,0-.01,0-.02,0"/>
          <path class="cls-1" d="m61.98,16.5h-17.99c-2,0-2,2-2,2v27c0,2,1.98,2,1.98,2h18.02c2,0,2-1.98,2-1.98v-27.02s0-2-2.02-2Zm-9,3h.04s2.74.02,2.98,3.31c0,1.35-1.18,3.65-2.98,3.69h-.04c-1.8-.03-2.98-2.33-2.98-3.69.24-3.29,2.98-3.31,2.98-3.31Zm-5.9,10.23c.62-2.31,2.25-2.97,3.52-3.23.84.64,1.99.72,2.39.73s1.56-.09,2.39-.73c1.27.26,2.9.91,3.52,3.23.27.92-.05,1.49-1.15,1.97-1.05.46-2.46.78-4.62.8h-.3c-2.15-.03-3.56-.34-4.62-.8-1.09-.48-1.4-1.05-1.13-1.97h0Zm12.92,14.79h-14c-.55,0-1-.45-1-1,0-.55.45-1,1-1h14c.55,0,1,.45,1,1,0,.55-.45,1-1,1Zm0-4h-14c-.55.03-1.02-.39-1.05-.94s.39-1.02.94-1.05c.04,0,.07,0,.11,0h14c.55-.03,1.02.39,1.05.94s-.39,1.02-.94,1.05c-.04,0-.07,0-.11,0Zm0-4h-14c-.55,0-1-.45-1-1,0-.55.45-1,1-1h14c.55,0,1,.45,1,1,0,.55-.45,1-1,1h0Z"/>
        </g>
      </g>
    </g>
  </g>
</svg>