<?xml version="1.0" encoding="UTF-8"?>
<svg id="AC_icons" data-name="AC icons" xmlns="http://www.w3.org/2000/svg" viewBox="0 0 64 64">
  <defs>
    <style>
      .cls-1 {
        fill: #061a2f;
        stroke-width: 0px;
      }
    </style>
  </defs>
  <g id="Informational_icons" data-name="Informational icons">
    <g id="B">
      <g id="baby-change-room">
        <g id="Baby_change" data-name="Baby change">
          <path class="cls-1" d="m31.99,18c4.97,0,9-4.03,9-9S36.96,0,31.99,0c-4.97,0-9,4.03-9,9s4.03,9,9,9"/>
          <path class="cls-1" d="m55.71,37.72l-12.38-15.1c-1.65-1.93-3.99-3.14-6.51-3.38-1.57-.16-3.15-.24-4.73-.24-1.58,0-3.17.08-4.74.24-1.63.17-4.35.75-6.4,3.23l-12.66,15.15c-.66.79-.13,2.3,1.19,3.35s2.94,1.28,3.59.48l8.92-10.46v6.01h20v-6l8.89,10.51c.65.8,2.27.6,3.6-.45,1.33-1.05,1.88-2.54,1.22-3.34Z"/>
          <path class="cls-1" d="m47.23,46.71l-5.09-5.71-7.59,7.15,5.13,4.83-.23.23-5.66,5.15c-1.19,1.07-1.04,3.04.34,4.39l.06.06c1.38,1.35,3.46,1.57,4.65.49l6.04-5.49,1.41-1.13c1.69-1.3,2.68-3.3,2.69-5.43,0-1.69-.63-3.31-1.76-4.56"/>
          <path class="cls-1" d="m30.2,58.37l-6.02-5.49,4.96-4.75-7.44-7.13-4.98,5.69c-1.11,1.25-1.73,2.87-1.73,4.54,0,2.11.97,4.11,2.63,5.42l2.79,2.25,4.86,4.44c1.17,1.07,3.21.84,4.55-.52l.06-.06c1.34-1.35,1.48-3.31.31-4.38"/>
        </g>
      </g>
    </g>
  </g>
</svg>