<?xml version="1.0" encoding="UTF-8"?>
<svg id="AC_icons" data-name="AC icons" xmlns="http://www.w3.org/2000/svg" viewBox="0 0 64 64">
  <defs>
    <style>
      .cls-1 {
        fill: #061a2f;
        stroke-width: 0px;
      }
    </style>
  </defs>
  <g id="Informational_icons" data-name="Informational icons">
    <g id="B">
      <g id="bar">
        <g id="Bar">
          <path class="cls-1" d="m54.55,0l-5.3,6.57c-2.03-.94-4.44-.05-5.38,1.98-.62,1.35-.45,2.94.44,4.13l-4.15,5.14H8.98c-.61,0-1.11.5-1.1,1.11,0,.28.11.55.3.75l20.46,22.42v18.91h-7.46c-.82-.04-1.52.6-1.56,1.42-.04.82.6,1.52,1.42,1.56.04,0,.09,0,.13,0h18.4c.82-.04,1.46-.73,1.42-1.56-.03-.77-.65-1.39-1.42-1.42h-7.47v-18.91l20.46-22.42c.42-.45.39-1.15-.06-1.57-.2-.19-.47-.29-.74-.3h-8.99l3.13-3.88c2.04.93,4.44.03,5.37-2.01.62-1.35.44-2.93-.45-4.12l5.3-6.57-1.57-1.25ZM20.41,26.12c-.92,0-1.8-.38-2.43-1.05l-2.47-2.66c-.25-.27-.24-.69.03-.94.13-.12.29-.18.46-.18h21.37l-3.89,4.82-13.07.02Zm24.34-4.82c.37,0,.67.29.67.66,0,.17-.06.34-.18.46l-2.47,2.64c-.63.67-1.51,1.06-2.43,1.05h-4.27l3.89-4.82h4.79Z"/>
        </g>
      </g>
    </g>
  </g>
</svg>