<?xml version="1.0" encoding="UTF-8"?>
<svg id="AC_icons" data-name="AC icons" xmlns="http://www.w3.org/2000/svg" viewBox="0 0 64 64">
  <defs>
    <style>
      .cls-1 {
        fill: #061a2f;
        fill-rule: evenodd;
        stroke-width: 0px;
      }
    </style>
  </defs>
  <g id="Informational_icons" data-name="Informational icons">
    <g id="B">
      <g id="barbecue">
        <g id="Barbecue">
          <path class="cls-1" d="m0,63.48v-13.33c-.12-4.94,2.08-9.65,5.94-12.73,0,0,.25,6.74,2.43,9.71.75,1,3.16,4.29,3,3.49-.07-2.22.04-4.45.34-6.66.78-7.08,4.07-8.75,4.07-8.75.32,2.48.99,4.91,2,7.2,1.14,1.99,2.46,3.87,3.94,5.63.42-2.57,1.31-5.05,2.63-7.3,2.02-3.23,4.99-5.76,8.51-7.25-.42,1.51-.68,3.07-.76,4.64.11,7.88,4.18,10.3,4.18,10.3.58-2,1.39-3.93,2.4-5.75,2.31-3.56,7-5.06,7-5.06-.98,2.79-.33,5.89,1.7,8.05,1.36,1.44,2.84,2.75,4.45,3.91-.06-1.31-.21-2.62-.46-3.91-.48-1.81-.44-3.72.11-5.52.69-2.41,1.6-2.87,1.6-2.87,0,0,0,3.56,5.36,7.81,1.52,1.21,4.79,4.72,5.13,6.78s.46,3.68.46,3.68v7.93H0ZM34.99,18.51c0-.55.45-1,1-1h22.99c.55,0,1-.45,1-1s-.45-1-1-1h-22.99c-.55,0-1-.45-1-1v-1c0-.55.45-1,1-1h22.99c.55,0,1-.45,1-1s-.45-1-1-1h-26.99c-.55,0-1,.45-1,1v2c0,.55-.45,1-1,1H0v4h29.98c.55,0,1,.45,1,1v2c0,.55.45,1,1,1h26.99c.55,0,1-.45,1-1s-.45-1-1-1h-22.99c-.55,0-1-.45-1-1v-1Z"/>
          <path class="cls-1" d="m44.75,2.46s-2.25,3.43-2.08,14.87c.17,11.44,3.76,14.99,5.71,16.58s6.27-.28,5.54-3.52-4.53-8.27-3.86-16.59c.67-8.33,3.36-10.61-.56-12.9-1.74-.88-3.86-.19-4.74,1.55,0,0,0,0,0,0Z"/>
        </g>
      </g>
    </g>
  </g>
</svg>