<?xml version="1.0" encoding="UTF-8"?>
<svg id="AC_icons" data-name="AC icons" xmlns="http://www.w3.org/2000/svg" viewBox="0 0 64 64">
  <defs>
    <style>
      .cls-1 {
        fill: #061a2f;
        stroke-width: 0px;
      }
    </style>
  </defs>
  <g id="Informational_icons" data-name="Informational icons">
    <g id="B">
      <g id="basketball">
        <path class="cls-1" d="m32,0C14.33,0,0,14.33,0,32s14.33,32,32,32,32-14.33,32-32S49.68,0,32,0Zm-3.27,8.52c.92-.84,1.97-1.51,3.12-2,.13-.05.28-.07.42-.07.59.01,1.22.07,1.82.07,1.27.09,2.54.28,3.78.57,2.92.66,5.71,1.83,8.23,3.45l.2.13c-.69-.04-1.35-.12-2-.12-1.74-.01-3.47.15-5.17.49-4.38,1.16-8.08,3.4-10.54,4.16-1.16.41-2.37.68-3.59.8-.33.02-.67.02-1,0,0-.2.07-.37.11-.48.95-2.67,2.54-5.08,4.62-7Zm-12.46,3.48c2.53-2.01,5.42-3.51,8.52-4.44.58-.19,1.2-.34,1.81-.5l-.13.15c-.44.47-.85.97-1.23,1.49-1.15,1.67-2.12,3.46-2.87,5.34-.21.45-.42.97-.64,1.45-.19.37-.59.58-1,.53-.98-.04-1.94-.29-2.82-.72h-.01c-1.13-.56-1.82-1.73-1.79-2.99,0-.12.06-.24.16-.31Zm-2.52,2.04c.05.12.08.25.1.38l.11.36c.49,1.46,1.64,2.61,3.1,3.1,1.1.39,2.25.59,3.42.59h.17l-.87,3.35c-.04.18-.09.18-.23.18h-1.55c-1.74.04-3.47.19-5.19.47-1.8.27-3.56.8-5.21,1.57,1.25-3.76,3.35-7.19,6.15-10Zm-4.46,26.68c.01,1.15.15,2.31.15,3.43-.03-.04-.05-.09-.07-.14-.36-.72-.74-1.44-1.05-2.17-1.3-3.06-1.98-6.36-2-9.69-.01-1.34.08-2.68.29-4,.02-.11.07-.22.14-.3.97-.84,2.07-1.51,3.25-2,1.46-.61,2.99-1.02,4.55-1.24,1.5-.25,3.02-.35,4.54-.32h.21c-.09,1.34-.18,2.67-.28,4l-1,.09c-1.14.11-2.25.45-3.25,1-2.27,1.27-3.97,3.35-4.76,5.83-.57,1.78-.82,3.64-.72,5.51Zm15.23,15.68c-4.75-1.46-8.99-4.25-12.19-8.05-.08-.1-.13-.21-.16-.33-.33-1.35-.55-2.72-.64-4.1-.14-1.88-.01-3.77.38-5.61.31-1.53.89-2.99,1.73-4.31.85-1.45,2.24-2.51,3.87-2.94.24-.05.48-.05.72,0,.4.11.66.49.61.9.08,1.54.13,3.09.24,4.63.12,1.79.28,3.56.45,5.34.2,1.97.58,3.91,1.13,5.81.65,2.32,1.58,4.56,2.76,6.66.38.64.8,1.31,1.23,2h-.13Zm22.72-3.75c-4.35,3.12-9.57,4.8-14.93,4.8-.11,0-.21-.02-.31-.07-2.02-.99-3.77-2.47-5.1-4.29-2.17-2.99-3.69-6.39-4.47-10-.43-1.95-.74-3.92-.93-5.9-.14-1.38-.2-2.76-.18-4.15.02-.34.06-.67.12-1,.03-.23.22-.4.45-.41.22-.02.43-.02.65,0,1.04.31,2.04.72,3,1.23,1.6.92,3.09,2.04,4.42,3.32,1.41,1.35,2.79,2.74,4.14,4.14,1.12,1.14,2.17,2.38,3.3,3.61,1.33,1.37,2.69,2.73,4.06,4.07,1.22,1.17,2.51,2.26,3.87,3.25.67.44,1.28.89,1.98,1.33l-.07.07Zm9.61-13.74c-1.1,3.87-3.11,7.41-5.87,10.34-.19.21-.4.4-.59.6-.26-.11-.53-.22-.78-.34-1.33-.71-2.61-1.51-3.84-2.39-1.84-1.31-3.63-2.71-5.35-4.17-.81-.73-1.66-1.47-2.46-2.26-.99-1-1.87-2-2.87-3-1.15-1.23-2.38-2.46-3.61-3.69-.84-.91-1.74-1.77-2.7-2.56-2.1-1.65-4.62-2.68-7.27-3-.14-.01-.14-.07-.14-.19.05-.49.11-1,.11-1.49.08-.83.18-1.64.28-2.46h1.54c1.73.09,3.48.19,5.22.34,1.23.11,2.35.25,3.69.44s2.67.38,4,.66c1.77.34,3.54.73,5.3,1.15,1.58.38,3.14.85,4.66,1.42,2.36.85,4.59,2.03,6.63,3.49,1.75,1.26,3.26,2.81,4.48,4.59.08.1.12.24.09.37-.18.72-.32,1.44-.52,2.15Zm.15-8.14c-1.28-1.14-2.71-2.1-4.24-2.86-3.48-1.74-7.15-3.04-10.94-3.89-2.31-.52-4.65-.9-7-1.14-1.69-.2-3.37-.35-5.06-.47-1.96-.15-3.87-.24-5.87-.35l-1.74-.06.85-3.45h.62c.87.05,1.74,0,2.6-.12,1.59-.17,3.15-.53,4.65-1.07,1.94-.76,3.94-1.54,5.94-2.36,1.67-.7,3.45-1.13,5.26-1.27,1.33-.1,2.67-.05,4,.13,1.85.23,3.66.7,5.39,1.4.08.04.16.1.23.16,3.65,4.18,5.82,9.46,6.16,15,0,.35,0,.72-.02,1.22-.29-.3-.55-.61-.83-.87Z"/>
      </g>
    </g>
  </g>
</svg>