<?xml version="1.0" encoding="UTF-8"?>
<svg id="AC_icons" data-name="AC icons" xmlns="http://www.w3.org/2000/svg" viewBox="0 0 64 64">
  <defs>
    <style>
      .cls-1 {
        fill: #061a2f;
        stroke-width: 0px;
      }
    </style>
  </defs>
  <g id="Informational_icons" data-name="Informational icons">
    <g id="B">
      <g id="beach">
        <g id="Beach">
          <path class="cls-1" d="m62.88,63.56v-3.83c-.63.33-1.34.48-2.05.43-.89-.02-1.77-.19-2.61-.51h0c-2.33-.75-5.3-2.06-8.16-2.06-1.66,0-4.8,1.2-7.2,2.06h0c-.94.4-1.92.68-2.93.84-.92-.16-1.82-.44-2.66-.84-2.46-1-6-2.44-9.09-2.44-2.58,0-4.89,1.47-6.87,2.44h0c-.89.53-1.9.82-2.94.84-1.04-.13-2.05-.41-3-.84h0c-2.59-1-5.57-2.66-9.99-2.66-3.62,0-4.38,1.01-4.38,1.01v3.82s1.51-1.31,5.72-1.2c4.21.11,7.22,3.49,11.52,3.38,4.31-.11,7.54-3.22,9.91-3.17,5.39.11,8.2,3.17,11.82,3.17s7.65-3,9.91-2.84c3.46.17,6.58,2.52,10.66,2.52,3.16,0,2.3-.12,2.3-.12Z"/>
          <path class="cls-1" d="m62.88,56.56v-3.83c-.63.33-1.34.48-2.05.43-.89-.02-1.77-.19-2.61-.51h0c-2.33-.75-5.3-2.06-8.16-2.06-1.66,0-4.8,1.2-7.2,2.06h0c-.94.4-1.92.68-2.93.84-.92-.16-1.82-.44-2.66-.84-2.46-1-6-2.44-9.09-2.44-2.58,0-4.89,1.47-6.87,2.44h0c-.89.53-1.9.82-2.94.84-1.04-.13-2.05-.41-3-.84h0c-2.59-1-5.57-2.66-9.99-2.66-3.62,0-4.38,1.01-4.38,1.01v3.82s1.51-1.31,5.72-1.2c4.21.11,7.22,3.49,11.52,3.38,4.31-.11,7.54-3.22,9.91-3.17,5.39.11,8.2,3.17,11.82,3.17s7.65-3,9.91-2.84c3.46.17,6.58,2.52,10.66,2.52,3.16,0,2.3-.12,2.3-.12Z"/>
          <path class="cls-1" d="m36.75,49.01l-5.53-23.99c-1.39.12-2.76.4-4.09.85l5,21.53c1.57.45,3.11.99,4.62,1.61Z"/>
          <path class="cls-1" d="m27.69,2.94h0s-.69.09-1.69.21l-.34-1.53c-.29-1.09-1.37-1.78-2.48-1.59-1.12.2-1.88,1.24-1.74,2.37v.15h0l.32,1.6c-.45.16-.9.34-1.34.55h0C13.92,7.45,1.69,14.72,3.42,31.4c1.24-1.47,6.79-6.56,16.23-2.88,1-1.74,7.26-8.23,20.06-4.88.48-1.2,4.86-7.49,15.67-4.35-.96-3.96-10.21-18.12-27.69-16.36Zm-8.87,21.9c-2.05-7.82-.82-13.47.76-16.92,3.02-1.53,6.32-2.46,9.69-2.72,4.67,3.69,7.91,8.9,9.17,14.72-11.19-1.51-17.97,2.96-19.62,4.92Z"/>
        </g>
      </g>
    </g>
  </g>
</svg>