<?xml version="1.0" encoding="UTF-8"?>
<svg id="AC_icons" data-name="AC icons" xmlns="http://www.w3.org/2000/svg" viewBox="0 0 64 64">
  <defs>
    <style>
      .cls-1, .cls-2 {
        fill: #061a2f;
        stroke-width: 0px;
      }

      .cls-2 {
        fill-rule: evenodd;
      }
    </style>
  </defs>
  <g id="Informational_icons" data-name="Informational icons">
    <g id="B">
      <g id="bird-colony">
        <g id="Bird_colony_nesting_birds" data-name="Bird colony nesting birds">
          <path class="cls-1" d="m58.71,64s-.4-.66-.1-15.19c.39-17.16,5.39-28.34,5.39-28.34-3.11,5.53-5.64,11.37-7.57,17.41-1.87,6.42-3.37,12.95-4.49,19.55,0,0-.65-6.24-.58-10.5s.57-10.68.57-10.68c-2.03,4.82-3.31,9.91-3.81,15.11-.63,8-.72,12.63-.72,12.63h11.31Z"/>
          <path class="cls-1" d="m23.2,64s-3-9.57-3.75-14.75-1.67-16.77-1.67-16.77c-1.5,2.11-2.81,4.34-3.91,6.68-.93,2.06-1.67,4.19-2.22,6.38.7-8.27,2.33-16.43,4.85-24.33,2.35-7.21,5.07-14.29,8.15-21.21,0,0-6.21,6.55-11.83,18.46-7.82,16.65-7.65,28.28-7.65,28.28,0,0-1.51-11.38-1.26-16.56.02-2.2.24-4.39.67-6.55-1.32,4.4-2.29,8.9-2.91,13.45-1.08,7.76-1.67,26.92-1.67,26.92h23.2Z"/>
          <path class="cls-1" d="m46.59,15.7l-2.13,11.42c1.41-.36,2.85-.55,4.3-.59,1.43-.05,2.86.04,4.27.27,0,0,.59-2.76-2.14-7.25-.97-1.72-2.48-3.08-4.3-3.85"/>
          <path class="cls-2" d="m39.82,64s4.67-7.52,4.93-13.18c.12-4.82-1.47-9.53-4.48-13.29-2.26-2.34-3.06-5.59-2.65-6.61.85-2.11,5.2-3.33,5.2-3.33l2.35-12.51c-3.6-1.1-7.47-.93-10.95.5-5.84,2.42-10.8,6.23-11.03,13.42-.23,7.19,3.32,6,3.24,10.12,0,2.16-5.06,4.1-5.06,4.1.4,3.87,1.05,7.7,1.94,11.49,1.21,4.48,2.69,9.29,2.69,9.29h13.82Zm-1.54-44c-.01-1.01.8-1.84,1.81-1.85,1.01-.01,1.84.8,1.85,1.81.01,1.01-.8,1.84-1.81,1.85,0,0,0,0,0,0-1.01.01-1.83-.79-1.84-1.8,0,0,0,0,0-.01"/>
        </g>
      </g>
    </g>
  </g>
</svg>