<?xml version="1.0" encoding="UTF-8"?>
<svg id="AC_icons" data-name="AC icons" xmlns="http://www.w3.org/2000/svg" viewBox="0 0 64 64">
  <defs>
    <style>
      .cls-1 {
        fill: #061a2f;
        stroke-width: 0px;
      }
    </style>
  </defs>
  <g id="Informational_icons" data-name="Informational icons">
    <g id="B">
      <g id="bird-watching">
        <g id="Bird_watching" data-name="Bird watching">
          <path class="cls-1" d="m22.56,21.72l4.07,10.38c.58,1.49.33,2.69-.87,3.16l-5.5,2.16c-2.44.96-2.36,2.33-2.36,6.77l.28,19.5-13.5.33s-.22-15.49-.22-19.93-.23-6.7,3.87-8.33l10.99-4.31s1.22-.48.74-1.7l-2.39-6.11-4.89,1.92c.03.08.13.23.17.33,1.26,3.22-.65,6.91-3.88,8.18-3.23,1.27-6.56-.37-7.83-3.59-1.26-3.23.34-6.86,3.56-8.12h0c2.32-.91,4.7-.56,6.4,1.01l5.5-2.15c.13-.95.84-1.57,1.81-1.96s1.73-.33,2.47.27l3.05-1.2.96,2.44-2.44.96Z"/>
          <path class="cls-1" d="m51.66,0l-5.32,5.2s-3.19,2.95-4,6.26-1.67,4.73-4.39,4.38-7.33.53-7.33.53c0,0,6.32-.18,7.09.41l-.95,1.83,1.54-1.06s6.97,2.9,9.75-.23l-2.83-.17s-1.96-.06-.47-3.19,2.54-5.45,4.02-7.64c1.48-2.18,2.89-6.32,2.89-6.32Z"/>
          <path class="cls-1" d="m63.18,10.87l-5.32,5.22s-3.19,2.95-4.02,6.26c-.83,3.31-1.65,4.73-4.37,4.37s-7.32.53-7.32.53c0,0,6.32-.18,7.09.41l-.95,1.83,1.54-1.06s6.97,2.9,9.75-.23l-2.84-.18s-1.96-.06-.47-3.19c1.48-3.13,2.54-5.45,4.01-7.64s2.91-6.32,2.91-6.32Z"/>
        </g>
      </g>
    </g>
  </g>
</svg>