<?xml version="1.0" encoding="UTF-8"?>
<svg id="AC_icons" data-name="AC icons" xmlns="http://www.w3.org/2000/svg" viewBox="0 0 64 64">
  <defs>
    <style>
      .cls-1, .cls-2 {
        fill: #061a2f;
        stroke-width: 0px;
      }

      .cls-2 {
        fill-rule: evenodd;
      }
    </style>
  </defs>
  <g id="Informational_icons" data-name="Informational icons">
    <g id="B">
      <g id="bird-feeding">
        <g id="Standard_icons" data-name="Standard icons">
          <g id="Do_not_feed_the_kea_do_not_feed_the_birds" data-name="Do not feed the kea do not feed the birds">
            <path class="cls-2" d="m-.14,48.4v16.45h18.43c-1.55-2.21-2.32-4.87-2.19-7.57.38-6.37,4.05-5.87,4.73-8.51-1.31-1.5-3.53-.48-5.2-.25-.57-1.09,1.95-1.47,2.03-1.48,1.35-.27,4.23-.38,7.99,3.14.08.07.23-.03.22-.11-.42-5.06-6.47-8.01-6.59-8.07-4.49-2.54-8.65-.6-10.34.08-2.88,1.16-9.11,5.84-9.11,6.33m7.35-1.77c.01-1.04.87-1.87,1.91-1.86,1.04.01,1.87.87,1.86,1.91-.01,1.03-.85,1.86-1.88,1.86-1.05,0-1.89-.86-1.88-1.9,0,0,0,0,0,0"/>
            <path class="cls-2" d="m41.66,8.22c-3.71.29-12.1,4.39-13.01,5.78-.55.84-2.51,4.5-3.71,6.83-.36.7-.83,1.35-1.22,2.03-.19.34-.37.71-.57,1.05s-.84,1.84-.98,2.26c-.17.38-.32.78-.44,1.18-.03.14-.03.29,0,.44.03.11.24.74.57.84,1.35.4,2.6-.49,2.82-.6,1.01-.51,2.7-3.71,2.98-4.35.28-.68.68-1.31,1.16-1.86.24-.27,1.09-1.41,1.29-1.69.62-.91,1.2-1.82,1.86-2.67.56,0,1.09-.05,1.63-.08-.46.9-1.03,1.84-1.5,2.7-.17.34-.29.68-.47.98-.27.5-.6.96-.88,1.47-.31.49-.6.99-.85,1.52-.1.25-.16.55-.26.83-.13.26-.23.53-.31.81-.06.48.1.88.38.98.7.1,1.41-.04,2.03-.39.59-.57,1.83-2.55,2.03-2.89s.34-.74.54-1.07.47-.61.7-.92.48-.6.7-.91c.45-.65.86-1.3,1.35-1.91,1.35-.12,2.92,0,3.96-.42.48.63.87,1.35,1.32,1.99-1.42,1.03-2.42,2.47-3.42,4.32-.65,1.21-1.47,2.44-2.03,3.79-.25.5-.36,1.06-.34,1.62.08.56.5.75,1.01.84.21.02.43.02.64,0,.83-.26,1.63-.64,2.36-1.12.68-.49,1.09-1.2,1.58-1.92.49-.66,1.05-1.28,1.65-1.84.5-.5,1.22-1.35,1.91-1.59.39-.11.79-.19,1.19-.24,3.04-.51,6.01-.56,8.27-1.83,1.21-.68,2.36-1.5,3.57-2.2,1.39-.84,3-1.24,4.62-1.15v-10.6h-22.18"/>
            <circle class="cls-1" cx="31.95" cy="35" r="1.65"/>
            <circle class="cls-1" cx="26.83" cy="36.08" r="1.65"/>
            <circle class="cls-1" cx="29.24" cy="40.16" r="1.65"/>
            <circle class="cls-1" cx="33.84" cy="39.21" r="1.65"/>
            <circle class="cls-1" cx="32.04" cy="43.43" r="1.09"/>
            <circle class="cls-1" cx="36.78" cy="35.7" r="1.09"/>
          </g>
        </g>
      </g>
    </g>
  </g>
</svg>