<?xml version="1.0" encoding="UTF-8"?>
<svg id="AC_icons" data-name="AC icons" xmlns="http://www.w3.org/2000/svg" viewBox="0 0 64 64">
  <defs>
    <style>
      .cls-1 {
        fill: #061a2f;
        stroke-width: 0px;
      }
    </style>
  </defs>
  <g id="Informational_icons" data-name="Informational icons">
    <g id="B">
      <g id="boat-fishing">
        <g id="Boat_fishing" data-name="Boat fishing">
          <path class="cls-1" d="m63.89,59.98v-3.84c-.65.33-1.39.48-2.12.43-.92-.02-1.83-.19-2.7-.51h0c-2.41-.75-5.47-2.06-8.43-2.06-1.71,0-5,1.2-7.43,2.06h0c-.96.39-1.97.68-3,.84-.95-.15-1.88-.44-2.75-.84-2.54-1-6.18-2.44-9.39-2.44-2.66,0-5,1.47-7.09,2.44h0c-.91.53-1.95.82-3,.84-1.08-.13-2.13-.41-3.13-.84h0c-2.72-1.03-5.85-2.65-10.39-2.65-3.68,0-4.46,1-4.46,1v3.82s1.56-1.31,5.9-1.2c4.34.11,7.46,3.49,11.91,3.38,4.45-.11,7.78-3.22,10.19-3.17,5.57.11,8.46,3.17,12.24,3.17s7.9-3,10.24-2.84c3.58.17,6.79,2.52,11,2.52,3.3-.01,2.41-.11,2.41-.11Z"/>
          <circle class="cls-1" cx="36" cy="15.41" r="4"/>
          <path class="cls-1" d="m18,52.33c4.43-.11,7.75-3.26,10.19-3.22,5.54.11,8.42,3.22,12.18,3.22s7.86-3,10.19-2.89c2.91.14,5.57,1.76,8.75,2.34l2.69-15.37h-14l1.38-2.48c0,1.03.84,1.87,1.87,1.87s1.87-.84,1.87-1.87c0-1.03-.84-1.87-1.87-1.87h0c-.36,0-.7.11-1,.31l13.59-24.9v-3.89l-10,18.4c-.33-.94-1.21-1.57-2.21-1.57h-17.63c-4,0-4.8,2.61-5.14,4.12-.86,3.88-1.4,9.04-1.86,11.88H0s7.28,12.58,7.44,12.61c3.62.64,6.61,3.39,10.56,3.31Zm33.6-27.24c.18,0,.36-.01.53-.05l-2.35,4.37c-.44-.48-1.05-.76-1.7-.76-1.22-.05-3.17.18-5.27.33-.81.07-3.81-3.91-3.81-3.91l12.6.02Zm-14.7,5c.79.57,3.09,3.71,4.14,4,2.2-.11,4.4-.35,6.57-.71l-1.61,3.03h-10c.56-2,.48-4.18.93-6.34l-.03.02Z"/>
        </g>
      </g>
    </g>
  </g>
</svg>