<?xml version="1.0" encoding="UTF-8"?>
<svg id="AC_icons" data-name="AC icons" xmlns="http://www.w3.org/2000/svg" viewBox="0 0 64 64">
  <defs>
    <style>
      .cls-1 {
        fill: #061a2f;
        stroke-width: 0px;
      }
    </style>
  </defs>
  <g id="Informational_icons" data-name="Informational icons">
    <g id="B">
      <g id="boat-ramp">
        <g id="Boat_ramp_boat_launching_wharf_jetty" data-name="Boat ramp boat launching wharf jetty">
          <path class="cls-1" d="m2.12,55.69c1.21-.14,2.39-.52,3.46-1.1,1.23-.69,2.6-1.07,4.01-1.12,1.41.05,2.78.44,4.01,1.12,1.22.67,2.58,1.05,3.98,1.1,1.41-.05,2.78-.44,4.01-1.12,1.23-.69,2.6-1.07,4.01-1.12,1.41.05,2.78.44,4.01,1.12,1.24.69,2.62,1.08,4.04,1.12,1.41-.05,2.78-.44,4.01-1.12,1.23-.69,2.6-1.07,4.01-1.12,1.41.05,2.78.44,4.01,1.12,1.23.69,2.6,1.07,4.01,1.12,1.39-.06,2.75-.44,3.97-1.12,1.23-.69,2.6-1.07,4.01-1.12,1.41.05,2.78.44,4.01,1.12.71.38,1.47.68,2.25.89v-5.4L2.12,31.99v23.71Z"/>
          <path class="cls-1" d="m34.19,35.25c.48-1.64,2.19-2.58,3.83-2.11,1.64.48,2.58,2.19,2.11,3.83s-2.19,2.58-3.83,2.11c-.79-.23-1.45-.76-1.85-1.48-.39-.72-.49-1.56-.26-2.35m1.25,6.79c3.28.95,6.71-.94,7.66-4.22.95-3.28-.94-6.71-4.22-7.66-3.25-1.05-6.74.73-7.79,3.98-1.05,3.25.73,6.74,3.98,7.79.12.04.24.07.36.11"/>
          <path class="cls-1" d="m60.61,40.23c.57,0,1.07-.37,1.24-.92.2-.67-.19-1.38-.86-1.57,0,0-.01,0-.02,0l-16.59-4.72c.3.89.43,1.82.4,2.75l15.47,4.46c.12.02.24.02.36,0"/>
          <path class="cls-1" d="m32.01,29.79L1.68,20.73c-.66-.22-1.38.14-1.6.8,0,.03-.02.06-.02.08-.2.69.18,1.41.87,1.63l29.28,8.74c.47-.83,1.08-1.57,1.8-2.2"/>
          <path class="cls-1" d="m28.97,14.46l3.97-4.68c.32-.36.28-.92-.08-1.24-.03-.03-.06-.05-.1-.07-.34-.23-.79-.23-1.13,0l-6.75,4.68s-.07.07-.1.11l-11.52-3.43c-.64-.19-.87.48-.82,1.15.18,2.94,1.73,9.93,12.26,12.99l34.62,10.07c.5.15,1.03-.14,1.18-.64,0,0,0-.01,0-.02l3.47-7.72c.15-.51-.14-1.04-.64-1.19,0,0,0,0,0,0L28.97,14.46Z"/>
        </g>
      </g>
    </g>
  </g>
</svg>