<?xml version="1.0" encoding="UTF-8"?>
<svg id="AC_icons" data-name="AC icons" xmlns="http://www.w3.org/2000/svg" viewBox="0 0 64 64">
  <defs>
    <style>
      .cls-1 {
        fill: #0a1830;
        stroke-width: 0px;
      }
    </style>
  </defs>
  <g id="Informational_icons" data-name="Informational icons">
    <g id="B">
      <g id="bocce">
        <g>
          <ellipse class="cls-1" cx="27.37" cy="48.03" rx="6.38" ry="6.63"/>
          <path class="cls-1" d="m48.02,35.3c-1.58,0-3.04-.02-4.17-.05-2-.05-5.99-.49-7.89-.87-.74-.15-2.3-.61-3.36-.94-.24,1.05-.37,2.13-.38,3.25,1.6.47,2.8.79,3.35.89,1.97.37,6.07.8,8.14.85,1.19.03,2.7.05,4.34.05.07-1.06.06-2.11-.02-3.18Z"/>
          <path class="cls-1" d="m36.15,33.38c1.87.37,5.77.79,7.73.85,1.11.03,2.52.05,4.05.05-.06-.52-.13-1.05-.23-1.59-.75-4.38-3.57-8.91-4.75-10.67-4.84,1.6-8.64,5.51-10.09,10.44,1.31.41,2.68.81,3.3.93Z"/>
          <path class="cls-1" d="m53.34,42.09c1.08-.04,2.12-.08,3.07-.15.16-.93.28-1.8.37-2.65-.94.06-1.95.1-3,.14-.1.87-.24,1.75-.44,2.67Z"/>
          <path class="cls-1" d="m48.58,42.16c1.21,0,2.47-.02,3.71-.05.2-.92.35-1.8.45-2.67-1.25.03-2.53.05-3.76.05-.09.87-.23,1.75-.41,2.66Z"/>
          <path class="cls-1" d="m52.86,35.24c-1.26.04-2.56.06-3.81.06.08,1.07.09,2.12.02,3.18,1.24,0,2.52-.02,3.77-.05.08-1.06.09-2.12.02-3.19Z"/>
          <path class="cls-1" d="m57.88,33.93c.31-.03.61-.07.88-.1.91-.12,3.25-.7,4.21-.94-1.31-4.94-4.95-8.93-9.68-10.69,1.75,2.4,3.99,6.08,4.4,9.66.08.72.14,1.4.19,2.07Z"/>
          <path class="cls-1" d="m48.95,34.28c1.25,0,2.55-.02,3.82-.06-.06-.61-.15-1.23-.26-1.86-.82-4.83-4.17-9.85-5.06-11.12-1.2.03-2.36.19-3.48.48,1.32,1.97,3.98,6.39,4.73,10.81.1.6.18,1.19.25,1.76Z"/>
          <path class="cls-1" d="m63.2,33.89c-.99.25-3.33.83-4.3.96-.3.04-.62.08-.97.11.04,1.09.03,2.15-.04,3.23.54-.04,1.05-.09,1.49-.15h.1c.95-.13,1.12-.16,4.01-.86,0-.08,0-.17,0-.25,0-1.04-.1-2.05-.3-3.04Z"/>
          <path class="cls-1" d="m35.38,38.58c-.67-.13-2-.49-3.15-.83.04.81.15,1.61.31,2.39,1.86.6,3.27,1,3.87,1.12,1.84.37,5.69.79,7.63.85.97.03,2.18.05,3.5.05.19-.91.33-1.8.42-2.66-1.62,0-3.11-.02-4.28-.05-2.11-.05-6.29-.49-8.3-.87Z"/>
          <path class="cls-1" d="m59.51,39.04c-.51.06-1.08.12-1.7.17-.08.85-.2,1.72-.35,2.64.46-.04.89-.09,1.27-.14h.09c.94-.14,1.06-.16,4.21-.98.2-.81.34-1.65.41-2.5-2.66.65-2.86.67-3.83.8h-.1Z"/>
          <path class="cls-1" d="m53.79,34.19c1.09-.04,2.14-.09,3.07-.17-.04-.66-.1-1.34-.19-2.05-.45-3.92-3.37-8.13-5.07-10.29-.94-.23-1.91-.38-2.91-.44,1.28,1.91,4.05,6.42,4.82,10.94.12.68.21,1.35.27,2Z"/>
          <path class="cls-1" d="m58.87,42.72c-.47.06-1.01.12-1.59.17-.04.24-.09.48-.14.72-.69,3.44-2.48,6.29-3.78,8,4.4-1.66,7.85-5.25,9.34-9.74-2.63.68-2.81.71-3.73.83h-.09Z"/>
          <path class="cls-1" d="m56.22,42.97c-.97.06-2.02.11-3.11.14-.06.26-.13.52-.2.78-1.03,3.87-3.31,7.1-4.61,8.71,1.13-.03,2.23-.18,3.28-.44,1.05-1.19,3.72-4.55,4.56-8.75.03-.15.06-.3.09-.45Z"/>
          <path class="cls-1" d="m52.05,43.14c-1.24.03-2.5.04-3.69.04-.08.34-.17.69-.26,1.05-.88,3.32-2.69,6.17-4,7.93.93.23,1.9.38,2.89.43,1-1.16,3.82-4.7,4.95-8.96.04-.17.08-.33.13-.5Z"/>
          <path class="cls-1" d="m47.31,43.18c-1.24,0-2.38-.02-3.3-.05-1.98-.05-5.91-.49-7.8-.87-.72-.14-2.22-.6-3.38-.96,1.44,4.99,5.29,8.96,10.2,10.55,1.27-1.66,3.19-4.55,4.08-7.89.07-.27.14-.53.2-.79Z"/>
          <path class="cls-1" d="m56.92,35.04c-.93.07-1.96.12-3.04.16.07,1.07.06,2.13-.01,3.19,1.05-.03,2.07-.08,3-.14.07-1.07.09-2.13.05-3.22Z"/>
          <path class="cls-1" d="m11.71,25.09c.17-.14.37-.28.58-.44-1.17-.95-2.58-1.5-3.86-1.5-.26,0-.52.02-.78.07-.81.15-1.55.43-2.2.82.44,1.28,1.56,3.88,2.06,5.02,1.32-1.33,3.24-3.21,4.2-3.97Z"/>
          <path class="cls-1" d="m26.33,21.24c.15.12.26.21.36.3.38.33.65.57,2.65,1.61,1.01.53,2.09.25,2.55.13.13-.03.21-.05.29-.06.21-.02.64-.17,1.09-.37-.41-2.3-1.3-4.44-2.58-6.31l-6.14,2.63c.49.66,1.27,1.66,1.77,2.06Z"/>
          <path class="cls-1" d="m14.8,28.82h0c-.26-1.36-.9-2.53-1.76-3.45-.26.19-.5.37-.7.53-.95.76-2.98,2.76-4.29,4.08.86,1.08,3.07,3.81,4.34,5.08,1.99-1.08,2.94-3.41,2.41-6.24Z"/>
          <path class="cls-1" d="m10.83,35.6c.19-.04.37-.08.54-.13-1.3-1.37-3.19-3.7-4.04-4.77-.3.31-.49.5-.5.51l-1.93,1.86c1.68,1.8,4.11,2.87,5.93,2.53Z"/>
          <path class="cls-1" d="m3.05,29.59c.18.97.61,1.88,1.2,2.69l1.86-1.79s.27-.28.63-.64c-.34-.77-1.57-3.58-2.15-5.18-.22.19-.42.39-.59.61-.93,1.15-1.26,2.64-.95,4.31Z"/>
          <path class="cls-1" d="m22.34,14.91c.35,1.37,1.18,2.75,1.62,3.42l6.12-2.62c-1.76-2.26-4.1-4.05-6.8-5.15-.31.43-.74,1.15-.91,2.07-.03.16-.06.3-.09.44-.12.58-.19.89.05,1.84Z"/>
          <path class="cls-1" d="m32.14,24.27c-.28.07-.82.21-1.47.21-.55,0-1.18-.1-1.81-.43-2.11-1.1-2.42-1.37-2.85-1.75-.09-.08-.19-.17-.32-.27-.7-.56-1.69-1.88-2.1-2.44l-.26.11s-4.17,1.89-5.49,2.6c-.96.52-2.61,1.54-3.96,2.46.94,1.07,1.64,2.4,1.91,3.85h0c.58,3.11-.46,5.78-2.62,7.14,1.05.85,2.72,1.97,3.66,2.38.96.42,5.53,1.74,7.52,2.31,3.18-1.57,5.77-4.13,7.38-7.28.16-.31.3-.61.44-.93.86-1.99,1.34-4.18,1.34-6.49h0c0-.63-.04-1.24-.11-1.85-.42.17-.86.32-1.16.34,0,0-.06.02-.12.03Z"/>
          <path class="cls-1" d="m5.17,23.03c.69-.37,1.46-.65,2.29-.81,1.99-.37,4.08.39,5.69,1.81,1.42-.98,3.18-2.07,4.21-2.63,1.35-.73,5.39-2.56,5.56-2.64l.08-.03c-.49-.77-1.3-2.16-1.66-3.58-.3-1.18-.19-1.67-.06-2.3.03-.12.05-.26.08-.41.17-.95.57-1.72.92-2.25-1.66-.55-3.43-.86-5.27-.86-4.69,0-8.92,1.95-11.93,5.07-.13,1.94-.34,5.39-.3,6.02.03.65.2,1.75.39,2.6Z"/>
          <path class="cls-1" d="m16.44,39.08c-1.23-.54-3.27-1.98-4.25-2.82-.37.15-.76.26-1.18.34-.28.05-.57.08-.87.08-1.98,0-4.31-1.11-5.99-2.9l-.98.94c2.95,4.48,8.04,7.45,13.83,7.45,2.07,0,4.05-.38,5.88-1.08-2.26-.65-5.6-1.64-6.46-2.01Z"/>
          <path class="cls-1" d="m2.04,29.78c-.37-1.97.03-3.75,1.16-5.14.31-.38.66-.71,1.06-1.02-.23-.94-.46-2.32-.5-3.14-.03-.58.11-3,.22-4.81-2.18,2.78-3.48,6.28-3.48,10.07,0,2.94.77,5.69,2.13,8.08l.87-.83c-.71-.95-1.23-2.04-1.46-3.22Z"/>
        </g>
      </g>
    </g>
  </g>
</svg>