<?xml version="1.0" encoding="UTF-8"?>
<svg id="AC_icons" data-name="AC icons" xmlns="http://www.w3.org/2000/svg" viewBox="0 0 64 64">
  <defs>
    <style>
      .cls-1 {
        fill: #0a1830;
        stroke-width: 0px;
      }
    </style>
  </defs>
  <g id="Informational_icons" data-name="Informational icons">
    <g id="B">
      <g id="bowling">
        <g>
          <path class="cls-1" d="m43.01,44.82l-.74-7.49c.18-.56.22-1.17.09-1.78h0c-.39-1.95-2.28-3.22-4.23-2.83l-10.5,2.09c-.65.13-1.22.43-1.68.84-.12.11-.24.22-.34.34-.21.25-.39.52-.53.81l-6.27,8.34.09.34-1.62,1.99-11.04,9.83c-.84.75-.92,2.04-.17,2.88.4.45.96.68,1.53.68.48,0,.97-.17,1.36-.52l11.16-9.94.06-.05.03.11,8.91-6.26,4.76,4.82c.07.23.14.71.14,1.1v8.56c0,1.13.91,2.04,2.04,2.04s2.04-.91,2.04-2.04v-8.56c0-1.06-.18-2.95-1.32-3.98l-4.28-4.32,1.27-.89,4.64-.92.51,5.21c.06.62.27,1.23.61,1.77l4.72,7.45c.39.61,1.05.95,1.73.95.37,0,.75-.1,1.09-.32.95-.6,1.24-1.87.63-2.82l-4.71-7.43Z"/>
          <circle class="cls-1" cx="46.52" cy="31.85" r="4.09"/>
          <circle class="cls-1" cx="53.58" cy="58.6" r="2.26"/>
          <polygon class="cls-1" points="31.92 3.14 0 27.48 0 32.99 31.88 8.68 63.92 32.97 64 27.42 31.92 3.14"/>
        </g>
      </g>
    </g>
  </g>
</svg>