<?xml version="1.0" encoding="UTF-8"?>
<svg id="AC_icons" data-name="AC icons" xmlns="http://www.w3.org/2000/svg" viewBox="0 0 64 64">
  <defs>
    <style>
      .cls-1 {
        fill: #061a2f;
        stroke-width: 0px;
      }
    </style>
  </defs>
  <g id="Informational_icons" data-name="Informational icons">
    <g id="B">
      <g id="buggy">
        <g id="AC">
          <g id="Buggy_Pram" data-name="Buggy Pram">
            <g id="Pram_pram_access_mountain_buggy" data-name="Pram pram access mountain buggy">
              <path class="cls-1" d="m30,19.03c4.41,0,7.98-3.57,7.98-7.98,0-4.41-3.57-7.98-7.98-7.98-4.37,0-7.93,3.52-7.98,7.89-.04,4.41,3.5,8.01,7.91,8.05.02,0,.05,0,.07,0"/>
              <path class="cls-1" d="m7.94,46.31l13.09-15.12c1.2-1.41-4.86-3.34-8.59,0l-9.66,10.82c-1.19,1.4-1.02,3.49.38,4.68,0,0,0,0,0,0h0c1.42,1.19,3.54,1.01,4.74-.41"/>
              <path class="cls-1" d="m15.05,61.07c-3.3,0-5.98-2.68-5.98-5.98s2.68-5.98,5.98-5.98,5.98,2.68,5.98,5.98h0c0,3.3-2.68,5.98-5.98,5.98m0-15.02c-4.96,0-8.97,4.02-8.97,8.97,0,4.96,4.02,8.97,8.97,8.97,4.94,0,8.95-3.99,8.97-8.92h0c0-4.96-4.02-8.97-8.97-8.97"/>
              <path class="cls-1" d="m42.04,61.07c-3.3,0-5.98-2.68-5.98-5.98s2.68-5.98,5.98-5.98,5.98,2.68,5.98,5.98h0c0,3.3-2.68,5.98-5.98,5.98m0-15.02c-4.96,0-8.97,4.02-8.97,8.97s4.02,8.97,8.97,8.97,8.97-4.02,8.97-8.97h0c0-4.96-4.02-8.97-8.97-8.97h0"/>
              <path class="cls-1" d="m61.98,4.86c-.26-1.56-1.17-2.94-2.5-3.8-2.46-1.65-6.54-2.18-12.04,4.6-2.7,3.32-30.39,35.16-30.65,35.47-.45.53-.54,1.28-.22,1.9.29.59.88.98,1.54,1h19.41c1.31.02,2.59-.32,3.71-1l.23-.15.17-.12.45-.36.11-.09.33-.35.24-.26.07-.11c1.38-1.87,2.15-4.12,2.22-6.44V14.05c2.73-3.06,4.42-5.36,5.07-6.13,2.09-2.62,5.1-5.42,7.39-3.93.52.31.88.83,1,1.43.06,1.28-.32,2.53-1.08,3.56-.44.86-.1,1.91.75,2.35.69.35,1.53.21,2.07-.36,1.31-1.76,1.93-3.94,1.73-6.13"/>
            </g>
          </g>
        </g>
      </g>
    </g>
  </g>
</svg>