<?xml version="1.0" encoding="UTF-8"?>
<svg id="AC_icons" data-name="AC icons" xmlns="http://www.w3.org/2000/svg" viewBox="0 0 64 64">
  <defs>
    <style>
      .cls-1 {
        fill: #061a2f;
        stroke-width: 0px;
      }
    </style>
  </defs>
  <g id="Informational_icons" data-name="Informational icons">
    <g id="B">
      <g id="bus-stop">
        <path id="Bus_stop" data-name="Bus stop" class="cls-1" d="m50.98,34.49c0,2.85-2.41,4.11-4.39,4.6-4.8,1-9.7,1.47-14.61,1.4h0c-4.9.07-9.8-.4-14.6-1.41-2-.48-4.41-1.75-4.39-4.6v-11c-.01-12.53,2.12-13.48,4.99-13.48h28c2.87,0,5,.95,5,13.52v10.97Zm-4,20.51c-2.21,0-4-1.79-4-4s1.79-4,4-4,4,1.79,4,4-1.79,4-4,4m-30,0c-2.21,0-4-1.79-4-4s1.79-4,4-4,4,1.79,4,4-1.79,4-4,4M20.37,3.89c.01-.5.43-.91.93-.9h21.35c.5,0,.91.4.92.9h0v3.21c-.01.5-.42.9-.92.89h-21.35c-.5.01-.92-.39-.93-.89,0,0,0,0,0,0v-3.21Zm39.61,12.1c-.07,0,1,0-1,0s-2,1-2,1c-.11-3.83-.3-7.24-.3-7.24,0-4.42-4.41-9.75-10-9.75h-29.44C11.68,0,7.23,5.33,7.23,9.75c0,0-.19,3.41-.3,7.24,0,0,0-1-2-1h-.96c-1.06,0-1.93.82-2,1.87v7.93c.03,1.13.88,2.07,2,2.2h1c2,0,2-1,2-1v33.01c0,2.35,1.26,4,2.77,4h3c3.35-.12,3.28-5,3.28-5h31.95s-.07,4.88,3.28,5h3c1.5,0,2.77-1.65,2.77-4V26.99s0,1,2,1h1c1.12-.13,1.98-1.08,2-2.21v-7.92c-.07-1.07-.98-1.9-2.05-1.87"/>
      </g>
    </g>
  </g>
</svg>