<?xml version="1.0" encoding="UTF-8"?>
<svg id="AC_icons" data-name="AC icons" xmlns="http://www.w3.org/2000/svg" viewBox="0 0 64 64">
  <defs>
    <style>
      .cls-1 {
        fill: #061a2f;
        stroke-width: 0px;
      }
    </style>
  </defs>
  <g id="Informational_icons" data-name="Informational icons">
    <g id="C">
      <g id="cafe">
        <g id="Cafe">
          <path class="cls-1" d="m28.13,27.59c.06,2.5.13,2.62.53,2.25.72-.81,1.14-1.84,1.2-2.92.73-4.84-1.8-6.15-3.2-7.61s-2.61-4.4-2.26-6c.13-.61-.47-.37-.67.31s-1.6,3.89.07,6.57c1.37,2.2,4.27,4.87,4.33,7.37"/>
          <path class="cls-1" d="m35.06,25.76c.1,4.4.21,4.62.84,4s1.47-2,1.88-5.16c1.15-8.55-2.83-10.85-5-13.43s-4.12-7.78-3.58-10.55c.21-1.08-.73-.65-1,.54-.27,1.19-2.51,6.88.1,11.6,2.15,3.89,6.7,8.59,6.81,13"/>
          <path class="cls-1" d="m55.71,59H6.27s-1.6,0-1.23,1.41c.37,1.41,1.76,3.59,5.95,3.59h40c4.1,0,5.57-2.18,5.94-3.59s-1.22-1.41-1.22-1.41"/>
          <path class="cls-1" d="m53.7,43.47c-1.19,1.11-3.26,1.78-6,1.94.55-2.85.88-5.75,1-8.65v-.55c1.38-.02,2.76.18,4.07.61,1.09.43,2.1,1.16,2.1,3.58.05,1.15-.39,2.26-1.22,3.06m.64-10.37c-2.3-.91-7.3-1.09-9.47-1.09H15.17c-2.25-.09-4.15,1.67-4.23,3.92-.01.28,0,.56.05.84.4,5.45.6,11.89,4.85,16.3,3.04,3.13,7.15,3.94,10.43,3.94h7.72c3.71.08,7.29-1.34,9.94-3.94,1.01-1.05,1.84-2.26,2.46-3.58,4.49,0,8-1.06,10.14-3.09,1.64-1.56,2.55-3.74,2.49-6,0-4.52-2.53-6.47-4.65-7.31"/>
        </g>
      </g>
    </g>
  </g>
</svg>