<?xml version="1.0" encoding="UTF-8"?>
<svg id="AC_icons" data-name="AC icons" xmlns="http://www.w3.org/2000/svg" viewBox="0 0 64 64">
  <defs>
    <style>
      .cls-1 {
        fill: #061a2f;
        stroke-width: 0px;
      }
    </style>
  </defs>
  <g id="Informational_icons" data-name="Informational icons">
    <g id="C">
      <g id="campervan">
        <g>
          <path class="cls-1" d="m55.48,18.49h5.68c1.57,0,2.83-1.27,2.84-2.84v-5.07c0-1.57-1.27-2.83-2.84-2.84H2.84c-1.57,0-2.83,1.27-2.84,2.84v35.72c0,1.57,1.27,2.84,2.84,2.84h4.04v-.09c.1-4.97,4.21-8.91,9.18-8.8,4.82.1,8.7,3.98,8.8,8.8,0,.03,0,.06,0,.09h16.91v-.09c.1-4.97,4.21-8.91,9.18-8.8,4.82.1,8.7,3.98,8.8,8.8v.09h1.41c1.57,0,2.84-1.27,2.84-2.84v-11.79c-.1-1.82-.75-3.56-1.87-4.99l-7.64-8.87c-1.01-1.19-.57-2.16.99-2.16Zm-22.2,11.95H7.12v-11.95h26.16v11.95Zm26.15,0h-7.16v-.52c0-1.15-.93-2.08-2.08-2.08h-3.82c-1.15,0-2.08.93-2.08,2.08h0v.52h-2.99v-11.95h7.83l10.3,11.95Z"/>
          <path class="cls-1" d="m15.87,42.04c-3.93,0-7.11,3.18-7.11,7.11,0,3.93,3.18,7.11,7.11,7.11,3.93,0,7.11-3.18,7.11-7.11h0c0-3.93-3.18-7.11-7.11-7.11h0Zm0,10.9c-2.1,0-3.8-1.7-3.8-3.8,0-2.1,1.7-3.8,3.8-3.8s3.8,1.7,3.8,3.8h0c0,2.1-1.7,3.8-3.79,3.8h0Z"/>
          <path class="cls-1" d="m50.76,42.04c-3.93,0-7.11,3.18-7.11,7.11,0,3.93,3.18,7.11,7.11,7.11,3.93,0,7.11-3.18,7.11-7.11h0c0-3.93-3.18-7.11-7.11-7.11h0Zm0,10.9c-2.1,0-3.8-1.7-3.8-3.8s1.7-3.8,3.8-3.8,3.8,1.7,3.8,3.8h0c0,2.1-1.7,3.8-3.8,3.8Z"/>
        </g>
      </g>
    </g>
  </g>
</svg>