<?xml version="1.0" encoding="UTF-8"?>
<svg id="AC_icons" data-name="AC icons" xmlns="http://www.w3.org/2000/svg" viewBox="0 0 64 64">
  <defs>
    <style>
      .cls-1 {
        fill: #061a2f;
        fill-rule: evenodd;
        stroke-width: 0px;
      }
    </style>
  </defs>
  <g id="Informational_icons" data-name="Informational icons">
    <g id="C">
      <g id="canoeing">
        <g id="Canoeing_kayaking" data-name="Canoeing kayaking">
          <path class="cls-1" d="m28,23.5c0-1.93,1.57-3.5,3.5-3.5s3.5,1.57,3.5,3.5-1.57,3.5-3.5,3.5h0c-1.93,0-3.5-1.57-3.5-3.5M6.1,46c-3.91.06-5.8.72-6.1.89v3.95c1.3-.75,2.75-1.18,4.25-1.27,1,0,.3-.05,1.56,0,3.09.12,8.74,3.43,12,3.43,3.88,0,7.85-3.24,10.93-3.24,2.5,0,8.35,3,10.75,3.15h1.8c2-.05,7.13-2.73,9.43-2.73h.73c1.14,0,6.82,2.44,9.71,2.44h1.46c.47-.03.93-.11,1.38-.23v-3.62c-.5.13-1.01.22-1.52.28h-1.27c-2.45,0-7.77-2.45-9.52-2.45h-1.26c-2.9,0-7.77,2.68-9.71,2.68h-1.08c-1.54-.05-7.77-3.15-10.69-3.06h-1.23c-3,.11-7.46,3.2-9.91,3.2-1,0-6.94-3.5-11.72-3.43m-1.09-4.75h.82c3.09.13,8.74,3.56,12,3.56,3.88,0,7.85-3.37,10.93-3.37,2.5,0,8.35,3.07,10.75,3.27h1.8c2-.05,7.13-2.83,9.43-2.83h.73c1.38.31,2.74.72,4.06,1.24l8-4.89h-20.19l6.67-15.1c3.59,1.5,6.84-9.79,6.84-9.79l-5.11-2.33s-6.83,9.86-3.2,11.55l-2.53,5.45h-16s-4,0-5.29,2.14c-1.57,2.3-4.14,6.14-5.42,8.11H1.52l3.48,2.99Zm26.56-6.51c-1.06-.68-2.27,1.27-3.56,3.27h9s-5-3-5.45-3.28m13.45-3.72l-3,6.24c-.14-.3-.37-.55-.66-.72l-9.34-5.52h13Z"/>
        </g>
      </g>
    </g>
  </g>
</svg>