<?xml version="1.0" encoding="UTF-8"?>
<svg id="AC_icons" data-name="AC icons" xmlns="http://www.w3.org/2000/svg" viewBox="0 0 64 64">
  <defs>
    <style>
      .cls-1 {
        fill: #061a2f;
        stroke-width: 0px;
      }
    </style>
  </defs>
  <g id="Informational_icons" data-name="Informational icons">
    <g id="C">
      <g id="capacity">
        <g>
          <path class="cls-1" d="m56.5,22.62h-14.5c-.23,2.09-1.13,4.05-2.56,5.59h.2c5.6.06,10.11,4.63,10.08,10.23v11.41h6.9v-14.23c.01-1.62-.29-1.63,1.6-1.63s1.54,0,1.64,1.51h0v14.35h4.14v-19.61c.03-4.17-3.33-7.58-7.5-7.62"/>
          <path class="cls-1" d="m49.12,19.18c3.63.06,6.62-2.83,6.69-6.46.06-3.63-2.83-6.62-6.46-6.69-3.63-.06-6.62,2.83-6.69,6.46h0v.12c-.02,3.6,2.87,6.53,6.46,6.57"/>
          <path class="cls-1" d="m39.64,30.73h-14.76c-4.18.03-7.53,3.45-7.5,7.62,0,0,0,0,0,0h0v19.61h3.7v-13.65c0-1.59-.09-1.63,1.61-1.64,1.88,0,1.57.01,1.6,1.64v13.65h15.68v-13.65c.02-1.6-.29-1.62,1.6-1.64,1.84-.02,1.57,0,1.61,1.64v13.65h3.97v-19.61c.03-4.18-3.32-7.59-7.5-7.63"/>
          <path class="cls-1" d="m32.46,28.24c3.9.06,7.11-3.04,7.17-6.94.06-3.9-3.04-7.11-6.94-7.17-3.9-.06-7.11,3.04-7.17,6.94v.12c-.03,3.86,3.08,7.02,6.94,7.05"/>
          <path class="cls-1" d="m22.52,23.14c-.1,0-.18-.03-.28-.03H7.5C3.34,23.14-.02,26.53,0,30.69v19.65h3.82v-14.22c0-1.48-.2-1.63,1.61-1.63,2.01,0,1.61.12,1.61,1.63v14.23h7.78v-11.41c-.04-5.6,4.46-10.18,10.07-10.24h.19c-1.42-1.53-2.32-3.48-2.55-5.56"/>
          <path class="cls-1" d="m14.8,19.18c3.63.06,6.62-2.83,6.68-6.47.06-3.63-2.83-6.62-6.47-6.68-3.63-.06-6.62,2.83-6.68,6.46v.12c-.02,3.6,2.87,6.53,6.46,6.57"/>
        </g>
      </g>
    </g>
  </g>
</svg>