<?xml version="1.0" encoding="UTF-8"?>
<svg id="AC_icons" data-name="AC icons" xmlns="http://www.w3.org/2000/svg" viewBox="0 0 64 64">
  <defs>
    <style>
      .cls-1 {
        fill: #061a2f;
        fill-rule: evenodd;
        stroke-width: 0px;
      }
    </style>
  </defs>
  <g id="Informational_icons" data-name="Informational icons">
    <g id="C">
      <g id="caravans">
        <g id="Standard_icons" data-name="Standard icons">
          <path id="Caravan" class="cls-1" d="m48.64,12.52c4.36-.02,5.36-.02,6.36,1.98,2,2.99,4,15.01,4,15.01v14c.72,0,2.36.04,5,0v2h-27c.14-1.63-1.83-7.99-8.69-7.89-6.42.1-8.37,5.6-8.3,7.89-1.17.02-16.95.02-20,0v-15.62l3.55-15.59c.45-1.78,1.24-1.78,2.01-1.78,0,0,41.85,0,43.08.02m5.36,7.97h-15v11h15v-11Zm-29,0H5v11h20v-11Zm9,25.5c0-3.04-2.46-5.5-5.5-5.5s-5.5,2.46-5.5,5.5c0,3.04,2.46,5.5,5.5,5.5h0c3.04,0,5.5-2.46,5.5-5.5"/>
        </g>
      </g>
    </g>
  </g>
</svg>