<?xml version="1.0" encoding="UTF-8"?>
<svg id="AC_icons" data-name="AC icons" xmlns="http://www.w3.org/2000/svg" viewBox="0 0 64 64">
  <defs>
    <style>
      .cls-1 {
        fill: #061a2f;
        stroke-width: 0px;
      }
    </style>
  </defs>
  <g id="Informational_icons" data-name="Informational icons">
    <g id="C">
      <g id="caving">
        <g id="Caving">
          <path class="cls-1" d="m39.7,24.77c-.39,2.8-2.8,4.86-5.63,4.83-2.81,0-5.21-2.03-5.68-4.81l11.31-.02Z"/>
          <path class="cls-1" d="m32.04,40.2l7.94,9.42c.88.92,2.35.94,3.26.06.83-.8.94-2.09.26-3.02h.03l-18.19-21.6H7.53c-3.15,0-5.47,2.56-5.47,5.27,0,2.29.91,2.98,1.73,4.14l7.8,10.62.96,1.34-10.25.02C1.03,46.45,0,47.48,0,48.75c0,0,0,0,0,0,0,1.28,1.03,2.32,2.31,2.33l14.8-.03c1.73-.07,2.76-2.59,1.53-4.49-.57-.92-1.18-1.81-1.85-2.66l-5.77-7.83h16.02v13.02c0,1.28,1.4,1.92,2.68,1.92,1.27,0,2.3-1.02,2.31-2.29,0,0,0,0,0,0v.03-8.56Z"/>
          <path class="cls-1" d="m39.84,21.26c-1-3.18-4.38-4.95-7.56-3.96-2.51.79-4.23,3.12-4.23,5.75h12.01l23.94,8.47V12.91l-24.16,8.34Z"/>
        </g>
      </g>
    </g>
  </g>
</svg>