<?xml version="1.0" encoding="UTF-8"?>
<svg id="AC_icons" data-name="AC icons" xmlns="http://www.w3.org/2000/svg" viewBox="0 0 64 64">
  <defs>
    <style>
      .cls-1 {
        fill: #061a2f;
        stroke-width: 0px;
      }
    </style>
  </defs>
  <g id="Informational_icons" data-name="Informational icons">
    <g id="C">
      <g id="cctv">
        <g id="CCTV">
          <path class="cls-1" d="m55.14,36.98l2.76-10.49c.12-.46.59-.74,1.05-.62l4.41,1.16c.46.12.74.59.62,1.05l-2.76,10.49c-.12.46-.59.73-1.05.61l-4.41-1.16c-.46-.12-.73-.59-.61-1.05Z"/>
          <path class="cls-1" d="m0,56.71v-19.45c.05-1.3,1.14-2.32,2.44-2.27,1.23.05,2.22,1.04,2.27,2.27v7.27h9.64c.42-2.62,2.43-4.7,5.04-5.21l1.13-7.11-12.13-3.18c-.56-.15-.9-.72-.75-1.28,0,0,0,0,0,0L13.68,5.64c.16-.57.74-.9,1.31-.76l47.03,12.14c.41.08.67.48.59.88-.03.13-.08.24-.17.34l-14.51,20.2c-.3.37-.75.59-1.23.59-.11,0-.22-.01-.33-.04l-21.3-5.58-1.07,6.82c2.92,1.9,3.74,5.8,1.85,8.72-1.9,2.92-5.8,3.74-8.72,1.85-.64-.42-1.2-.94-1.65-1.56H4.71v7.47c.05,1.3-.97,2.4-2.27,2.44-1.3.05-2.4-.97-2.44-2.27,0-.06,0-.12,0-.18Z"/>
        </g>
      </g>
    </g>
  </g>
</svg>