<?xml version="1.0" encoding="UTF-8"?>
<svg id="AC_icons" data-name="AC icons" xmlns="http://www.w3.org/2000/svg" viewBox="0 0 64 64">
  <defs>
    <style>
      .cls-1 {
        fill: #061a2f;
        stroke-width: 0px;
      }
    </style>
  </defs>
  <g id="Informational_icons" data-name="Informational icons">
    <g id="C">
      <g id="cemetery">
        <g id="Cemetery">
          <rect class="cls-1" x="7.99" y="59" width="48.02" height="5"/>
          <path class="cls-1" d="m46.38,8.97c-3.89-7.94-13.48-11.23-21.42-7.34-3.19,1.56-5.77,4.14-7.34,7.34h-6.63l2,48.02h38.02l2-48.02h-6.63Zm-.87,18.01h-26.01c-.83,0-1.5-.67-1.5-1.5s.67-1.5,1.5-1.5h26.01c.83,0,1.5.67,1.5,1.5s-.67,1.5-1.5,1.5Zm0-7h-26.01c-.83,0-1.5-.67-1.5-1.5s.67-1.5,1.5-1.5h26.01c.83,0,1.5.67,1.5,1.5s-.67,1.5-1.5,1.5Z"/>
        </g>
      </g>
    </g>
  </g>
</svg>