<?xml version="1.0" encoding="UTF-8"?>
<svg id="AC_icons" data-name="AC icons" xmlns="http://www.w3.org/2000/svg" viewBox="0 0 64 64">
  <defs>
    <style>
      .cls-1 {
        fill: #061a2f;
        stroke-width: 0px;
      }
    </style>
  </defs>
  <g id="Informational_icons" data-name="Informational icons">
    <g id="C">
      <g id="changing-room">
        <g id="Changing_room" data-name="Changing room">
          <path class="cls-1" d="m54.04,24.28c-.72-.51-15.4-8.85-20.87-11.92,0-1.12,0-3.2.06-3.77.29-.34.63-.64,1.01-.88.95-.67,2.18-1.67,2.24-3.29.08-1.58-.72-3.08-2.09-3.89-1.64-.84-3.6-.69-5.1.37-.57.34-.76,1.09-.41,1.66,0,0,0,0,0,.01.36.58,1.11.76,1.69.4,0,0,0,0,0,0,.73-.58,1.73-.71,2.59-.34.58.37.9,1.02.85,1.7,0,.45-.67,1.01-1.3,1.44-1.01.55-1.71,1.52-1.92,2.65,0,.63-.06,2.79-.07,3.93-4.46,2.57-20.03,11.55-20.84,12.09-.73.47-1.05,1.36-.8,2.19.37.97,1.32,1.6,2.36,1.56h41.69c.8.03,1.52-.48,1.77-1.24.3-.99-.04-2.06-.86-2.69m-43.05,1.91c3.26-1.93,14.33-8.15,21.16-12.09,7.15,4.03,17.39,10.46,20.16,12.09H10.99Z"/>
          <path class="cls-1" d="m43.75,31.24c1.39,0,2.52,1.13,2.52,2.52s-1.13,2.52-2.52,2.52-2.52-1.13-2.52-2.52,1.13-2.52,2.52-2.52"/>
          <path class="cls-1" d="m19.56,31.24c1.39,0,2.52,1.13,2.52,2.52s-1.13,2.52-2.52,2.52-2.52-1.13-2.52-2.52,1.13-2.52,2.52-2.52"/>
          <path class="cls-1" d="m25.21,47.93l-2.13-6.97h-.91l3.47,11.9c.1.29-.25.56-.54.56h-2.02v9.07c0,.83-.68,1.51-1.51,1.51s-1.51-.68-1.51-1.51v-9.08h-1.01v9.07c0,.83-.68,1.51-1.51,1.51s-1.51-.68-1.51-1.51v-9.07h-2.02c-.29,0-.85-.23-.71-.58l3.41-11.86h-.9l-2.08,7.05c-.13.61-.73,1-1.34.87-.61-.13-1-.73-.87-1.34.02-.09.05-.18.09-.26l2.31-7.61c.38-1.4,1.65-2.38,3.1-2.39h5.04c1.4,0,2.61.96,2.93,2.32l2.32,7.6c.46,1.63-1.61,2.32-2.12.72"/>
          <path class="cls-1" d="m48.28,49.38v-8.06h-1.01v21.16c0,.83-.68,1.51-1.51,1.51s-1.51-.68-1.51-1.51v-12.09h-1.01v12.09c0,.83-.68,1.51-1.51,1.51s-1.51-.68-1.51-1.51v-21.16h-1.01v8.06c0,1.01-2.02,1.01-2.02,0v-8.58c-.04-1.9,1.47-3.48,3.37-3.52,0,0,0,0,.01,0h6.28c1.93.03,3.46,1.61,3.44,3.54,0,0,0,.01,0,.02v8.54c0,1.01-2.02,1.01-2.02,0"/>
        </g>
      </g>
    </g>
  </g>
</svg>