<?xml version="1.0" encoding="UTF-8"?>
<svg id="AC_icons" data-name="AC icons" xmlns="http://www.w3.org/2000/svg" viewBox="0 0 64 64">
  <defs>
    <style>
      .cls-1 {
        fill: #061a2f;
        stroke-width: 0px;
      }
    </style>
  </defs>
  <g id="Informational_icons" data-name="Informational icons">
    <g id="C">
      <g id="charger">
        <g id="Layer_2" data-name="Layer 2">
          <path class="cls-1" d="m26.54.05v21.06c-6.11.52-8,4.99-8,4.99-2.59,3.68-1.57,8.8-1.57,8.8.92,4.21,2.35,11.31,2.35,11.31.61,2.83.6,5.76-.05,8.58-1.23,3.07-3.06,3.68-3.06,3.68-5.35,2.65-7.79-1.94-7.79-1.94-2.61-3.37-1.08-10.04-1.08-10.04.05-.21.1-.42.15-.65.16-.59.31-1.17.46-1.72.09-.34.17-.68.25-1.02h0c1.32-5.39,2.15-10.89,2.46-16.43l.1-5.64c.11-.04.46-.11.59-.15,1.96-.65,3.62-1.97,4.69-3.73.98-1.61,1.46-3.47,1.39-5.36v-4.42c0-.52-.13-.65-.64-.65h-2.97V0h-2.51v6.79h-5.16V.05h-2.55v6.75H.64c-.47,0-.62.14-.62.63C.02,9.18.02,11,.06,12.78c.12,3.9,2.78,7.25,6.54,8.27l-.13,6.35c-.18,2.45-1,7.63-1,7.63l-1.28,5.37-.54,2.14c-.35,1.29-.64,2.54-.64,2.54h0l-.25,1.03h.05c-.38,1.9-.54,3.83-.48,5.76.63,9.93,7.32,11.55,7.32,11.55,4.8,1.55,10.04-.28,12.82-4.49,2.72-3.52,1.76-11.8,1.76-11.8-.28-2.3-.72-4.57-1.31-6.81-.5-1.5-1.24-6.06-1.24-6.06-.52-4.94.65-6.24.65-6.24.71-1,1.87-1.59,3.1-1.57.97.05,1.11,1.45,1.11,1.45l.04,36.1h37.4V.05H26.54Zm31.28,15.25h-25.46V6.75h25.46v8.55Zm-18.49,42.83l5.57-16.73h-11.39l17.05-20.72-5.57,16.73h11.38l-17.04,20.72Z"/>
        </g>
      </g>
    </g>
  </g>
</svg>