<?xml version="1.0" encoding="UTF-8"?>
<svg id="AC_icons" data-name="AC icons" xmlns="http://www.w3.org/2000/svg" viewBox="0 0 64 64">
  <defs>
    <style>
      .cls-1 {
        fill: #061a2f;
        stroke-width: 0px;
      }
    </style>
  </defs>
  <g id="Informational_icons" data-name="Informational icons">
    <g id="C">
      <g id="childrens-train">
        <g>
          <polygon class="cls-1" points="6.18 60 4 62 11.4 62 13 60 6.18 60"/>
          <polygon class="cls-1" points="57.82 60 51 60 52.61 62 60 62 57.82 60"/>
          <polygon class="cls-1" points="15 56 9.53 56 8 58 13 58 15 56"/>
          <polygon class="cls-1" points="48 56 50 58 55 58 53.47 56 48 56"/>
          <path class="cls-1" d="m17.11,56.03l-5.38,7.97h3.27l1-2h32.01s1,1.99,1,1.99h2.91l-5.39-7.99-29.42.03Zm-.11,3.97l1-2h28.01l1,2h-30Z"/>
          <path class="cls-1" d="m15.99,47h-3l-1,5.99h3v3h3v-3l28.01.02v3h3v-3h3l-1-5.99h-3v-2h6.99v-2.37h.02V5.09h-.97c-.1-.08-.21-.15-.33-.21L39.41,0h-14.8l-14.34,4.88c-.12.06-.23.13-.33.21h-.93v39.91h6.99v2Zm20,0h-7.99v-3h7.99v3Zm9.01-32h3.99v13h-3.99v-13Zm-12-10.52c.07-1.38,1.25-2.44,2.62-2.37,1.28.07,2.3,1.09,2.37,2.37.07,1.38-.99,2.55-2.37,2.62s-2.55-.99-2.62-2.37c0-.09,0-.17,0-.26Zm-6.99,0c.01-1.38,1.14-2.49,2.53-2.48,1.38.01,2.49,1.14,2.48,2.53-.01,1.37-1.13,2.48-2.51,2.48-1.37,0-2.49-1.1-2.5-2.48,0-.02,0-.03,0-.05Zm1.91,3.52h9.15c1.06,0,1.92.67,1.92,1.49s-.86,1.51-1.92,1.51h-9.15c-1.07,0-1.93-.67-1.93-1.51s.86-1.49,1.93-1.49Zm-8,5h24.07v15h-24.07v-15Zm-4.93,15v-13h3.99v13h-3.99Z"/>
        </g>
      </g>
    </g>
  </g>
</svg>