<?xml version="1.0" encoding="UTF-8"?>
<svg id="AC_icons" data-name="AC icons" xmlns="http://www.w3.org/2000/svg" viewBox="0 0 64 64">
  <defs>
    <style>
      .cls-1 {
        fill: #061a2f;
        stroke-width: 0px;
      }
    </style>
  </defs>
  <g id="Informational_icons" data-name="Informational icons">
    <g id="C">
      <g id="childcare">
        <g id="Childcare">
          <path class="cls-1" d="m46.88,30.76c1.92,0,3.47-1.55,3.48-3.47,0-1.92-1.55-3.47-3.47-3.48-1.92,0-3.47,1.55-3.48,3.47,0,1.92,1.55,3.47,3.47,3.48Z"/>
          <path class="cls-1" d="m50.36,31.77c-.57-.02-6.24,0-6.95,0s-1.99.12-2.53,1.18-2.15,4.24-2.15,4.24l-1.89-1.68c-.58-2.5-3.13-13.5-3.33-14.52-.24-1.15-1.08-7.93-6.71-8.07-1-.03-9.51,0-10.32,0-6.82,0-6.78,6.31-6.78,6.31l-.02,17.45v-.02c0,1.18.76,2.05,1.97,2.05,1.04.06,1.92-.73,1.99-1.77,0-.07,0-.15,0-.22v-13.91c.03-.55.5-.97,1.05-.94.51.03.91.43.94.94v38.71s0,1.98,2.48,1.98c1.32,0,2.38-.98,2.38-2.13v-22.23c0-.59.48-1.06,1.07-1.06.58,0,1.05.47,1.06,1.05l.02,22.21c.03,1.24,1.07,2.17,2.44,2.17,2.46,0,2.46-1.98,2.46-1.98V22.82c-.01-.54.41-.98.95-.99.01,0,.03,0,.04,0,.99,0,.94.77.99.99.58,2.5,3.18,14.15,3.18,14.15.24.98,1.12,1.68,2.13,1.67.16,0,.32-.02.48-.05.17-.05.34-.12.49-.21l2.41,2.13c.26.24.61.37.96.37.09,0,.18-.01.26-.03.44-.08.81-.36,1.02-.75,0,0,1.01-1.91,1.35-2.65s1.61-.61,1.61.25v24.81c0,1.99,2.98,1.99,2.98,0v-14.89c0-.99.99-.99.99,0v14.89c0,1.99,2.98,1.99,2.98,0v-24.8c0-.99.99-.99.99,0v8.93c0,1.98,2.98,1.98,2.97-.12h0v-11.22s.09-3.44-3.96-3.53Z"/>
          <path class="cls-1" d="m22.07,10.92c3.01,0,5.46-2.44,5.46-5.46S25.09,0,22.07,0c-3.01,0-5.46,2.44-5.46,5.45,0,3.01,2.44,5.46,5.45,5.46h0Z"/>
        </g>
      </g>
    </g>
  </g>
</svg>