<?xml version="1.0" encoding="UTF-8"?>
<svg id="AC_icons" data-name="AC icons" xmlns="http://www.w3.org/2000/svg" viewBox="0 0 64 64">
  <defs>
    <style>
      .cls-1 {
        fill: #061a2f;
        stroke-width: 0px;
      }
    </style>
  </defs>
  <g id="Informational_icons" data-name="Informational icons">
    <g id="C">
      <g id="cleaning-station">
        <g>
          <path class="cls-1" d="m17.31,41.54c.09-.14.19-.27.31-.38h0c.7-.67,1.9-1.95,1.91-1.97l.1-.11-2.85-3.12-.12.09c-.58.45-1.13.9-1.67,1.33-.32.21-.69.34-1.08.36l-.34.02,3.62,3.96.11-.18Z"/>
          <path class="cls-1" d="m26.8,31.28c-.32-.47-.97-.59-1.44-.27-.5.3-.67.93-.39,1.46.2.29.51.45.84.45.2,0,.41-.06.59-.19.5-.29.67-.93.4-1.44v-.02Z"/>
          <path class="cls-1" d="m28.68,28.55c-.27-.05-.55.02-.77.17h0c-.5.3-.67.93-.39,1.45.15.23.38.38.65.43.07.01.13.02.2.02.2,0,.4-.06.57-.18l.02-.02c.5-.29.68-.94.39-1.46-.16-.23-.4-.38-.67-.42Z"/>
          <path class="cls-1" d="m20.34,35.74h-.01c-.49.3-.67.94-.39,1.46.15.23.38.38.65.43.07.01.13.02.2.02.2,0,.39-.06.56-.17l.03-.02c.5-.29.68-.92.39-1.45-.32-.47-.95-.59-1.43-.27Z"/>
          <path class="cls-1" d="m19.27,35.03c.19,0,.39-.06.56-.17l.03-.02c.5-.3.67-.93.39-1.45-.32-.47-.96-.59-1.44-.26-.5.29-.68.93-.4,1.45.2.29.52.45.85.45Z"/>
          <path class="cls-1" d="m20.57,31.62c.07.01.14.02.21.02.2,0,.39-.06.56-.17.01,0,.02-.02.04-.02.5-.3.67-.92.39-1.45-.15-.23-.39-.38-.66-.43-.27-.05-.54,0-.78.17-.5.29-.68.93-.39,1.45.15.23.38.38.64.44Z"/>
          <path class="cls-1" d="m22.65,28.71c.06.01.13.02.19.02.2,0,.4-.06.57-.18l.03-.02c.5-.29.68-.92.4-1.45-.16-.23-.39-.38-.66-.43-.27-.05-.54,0-.78.17-.49.3-.67.93-.39,1.46.15.22.38.37.65.42Z"/>
          <path class="cls-1" d="m24.09,35.74l-.03.02c-.5.3-.67.93-.39,1.45.2.29.52.45.84.45.2,0,.41-.06.59-.18.5-.29.68-.93.4-1.45-.31-.47-.95-.6-1.41-.28Z"/>
          <path class="cls-1" d="m27.86,35.17s-.03.02-.04.03c-.5.29-.67.92-.39,1.45.2.29.51.45.84.45.2,0,.41-.06.59-.19.49-.3.67-.93.39-1.45-.31-.46-.93-.59-1.4-.29Z"/>
          <path class="cls-1" d="m18.34,43.45c-.62-.16-1.16-.3-1.6-.45-.04-.09-.06-.19-.06-.29v-.06s-3.7-4.13-3.7-4.13l-.1.03c-.15.05-.29.12-.41.23C3.78,46.1.74,53.25,3.7,59.46l.09.19,4.69-4.2c2.31,2.65,3.76,5.7,4.87,8.35l.09.2,9.94-8.83-.09-.12c-.36-.49-.74-1.02-1.16-1.59l-.32-.44h-.09c-1.12.13-2.19-.22-3.18-1.03-1.86-1.52-3.08-4.4-3.31-6.41,1.2-.33,3.14-.27,8.1,2.25.85.44,1.28-.32,1.77-1.2l.09-.17-.09-.08c-1.75-1.63-4.64-2.39-6.75-2.94Z"/>
          <path class="cls-1" d="m31.8,34.56h0c-.49.3-.67.94-.39,1.45.2.29.51.45.84.45.2,0,.41-.06.59-.19.49-.3.67-.93.39-1.45-.32-.47-.95-.59-1.43-.26Z"/>
          <path class="cls-1" d="m24.83,25.61c.2,0,.41-.06.59-.18.5-.3.67-.93.39-1.45-.31-.47-.95-.59-1.41-.28l-.03.02c-.49.29-.67.93-.39,1.45.2.29.51.45.84.45Z"/>
          <path class="cls-1" d="m31.98,27.09c-.15-.23-.38-.38-.65-.43-.27-.05-.54,0-.76.15l-.03.02c-.49.29-.67.93-.39,1.45.2.29.51.45.84.45.2,0,.41-.06.59-.18.5-.29.67-.93.39-1.45Z"/>
          <path class="cls-1" d="m32.98,24.73h-.01c-.5.3-.67.94-.39,1.46.15.23.39.38.66.43.06.01.13.02.19.02.2,0,.41-.06.59-.19.49-.3.67-.93.39-1.45-.32-.47-.96-.59-1.43-.27Z"/>
          <path class="cls-1" d="m23.58,33.11c-.27-.05-.55.01-.77.17-.49.3-.67.93-.39,1.46.16.23.39.38.66.43.06.01.12.02.19.02.21,0,.41-.06.59-.19.49-.3.67-.93.4-1.43v-.02c-.17-.23-.41-.38-.68-.43Z"/>
          <path class="cls-1" d="m60.67,32.69l-.13.09h0s0,0,0,0l.12-.1-.11-.13c-1.08-1.13-2.03-2.38-2.82-3.72-.51-.88-.98-4.91-1.32-7.89-.55-4.79-.84-6.81-1.48-7.57-.57-.67-1.72-.87-3.56-1.12-1.59-.16-3.16-.49-4.68-.97-1.29-.42-2.45-1.17-3.35-2.18-2.82-3.28-.48-7.28-.38-7.45.17-.3.19-.67.05-.98-.14-.31-.41-.53-.74-.62-.27-.06-2.79-.54-7.47,2.38-4.58,2.87-5.61,6.37-5.72,6.76-.08.34,0,.69.22.96l5.29,6.21.04.05,15.46,1.24c.2.02.39.11.52.26s.2.35.18.56c-.03.42-.41.74-.82.71l-13.94-1.11,3.39,3.98,11.8.94c.2.02.39.12.51.28.13.16.19.36.16.56-.04.4-.4.7-.79.68l-10.28-.83,4.52,5.3c4.64,5.44,9.4,7.71,11.83,8.57,1.21.43,1.88.59,2.3.59.4,0,.58-.15.79-.36.78-.86,1.87-3.04.4-5.11Z"/>
          <path class="cls-1" d="m58.31,38.61h0c-1.74-.49-7.83-2.57-13.05-8.65L28.17,10.13c-.39-.4-1.04-.43-1.47-.07-.42.37-.49,1.01-.14,1.46l17.06,19.83c3.43,4.01,7.86,7.09,12.82,8.91.41.14.77.25,1.04.34l.24.07c.1.03.2.04.29.04.47,0,.91-.31,1.04-.79.15-.57-.18-1.15-.74-1.32Z"/>
        </g>
      </g>
    </g>
  </g>
</svg>