<?xml version="1.0" encoding="UTF-8"?>
<svg id="AC_icons" data-name="AC icons" xmlns="http://www.w3.org/2000/svg" viewBox="0 0 64 64">
  <defs>
    <style>
      .cls-1 {
        fill: #061a2f;
        stroke-width: 0px;
      }
    </style>
  </defs>
  <g id="Informational_icons" data-name="Informational icons">
    <g id="C">
      <g id="cleaning">
        <g>
          <path class="cls-1" d="m63.78,55.16l-2-24.64c0-5.97-4.1-10.81-9.14-10.81h-2.75V5.6h-8.63v14.11h-2.76c-5.06,0-9.14,4.84-9.14,10.81l-.17,2.15h4.58c1.28-3.42,3.78-5.74,6.66-5.74h10.3c4.16,0,7.55,4.86,7.56,10.84l1.25,20.61h4.46l-.22-3.22Z"/>
          <path class="cls-1" d="m56.5,37.8c0-5.01-2.6-9.1-5.79-9.1h-10.29c-1.99,0-3.74,1.58-4.78,3.97h3.71c.83,0,1.55.58,1.72,1.39l1.47,6.69c.21.95-.39,1.9-1.35,2.11h0c-.12.03-.25.04-.38.04h-.21l1.97,15.27c0,.08,0,.15,0,.23h15.2l-1.26-20.53v-.07Z"/>
          <polygon class="cls-1" points="1.76 42.9 0 58.39 5.99 58.39 7.69 42.9 1.76 42.9"/>
          <polygon class="cls-1" points="8.44 58.39 14.74 58.39 15.56 42.9 10.36 42.9 8.44 58.39"/>
          <polygon class="cls-1" points="17.63 42.9 16.8 58.39 24.08 58.39 23.25 42.9 17.63 42.9"/>
          <polygon class="cls-1" points="30.74 42.9 28.83 42.9 25.51 42.9 26.33 58.39 32.67 58.39 32.27 55.18 30.74 42.9"/>
          <polygon class="cls-1" points="33.17 42.9 33.46 45.58 33.98 50.35 34.5 55.12 34.86 58.39 40.86 58.39 39.1 42.9 33.17 42.9"/>
          <polygon class="cls-1" points="28.49 41.13 40.81 41.13 39.33 34.44 29.03 34.44 24.51 34.44 24.51 5.61 15.9 5.61 15.9 34.44 1.62 34.44 .14 41.13 .96 41.13 28.49 41.13"/>
        </g>
      </g>
    </g>
  </g>
</svg>