<?xml version="1.0" encoding="UTF-8"?>
<svg id="AC_icons" data-name="AC icons" xmlns="http://www.w3.org/2000/svg" viewBox="0 0 64 64">
  <defs>
    <style>
      .cls-1 {
        fill: #061a2f;
        stroke-width: 0px;
      }
    </style>
  </defs>
  <g id="Informational_icons" data-name="Informational icons">
    <g id="C">
      <g id="climbing">
        <g id="Climbing">
          <path class="cls-1" d="m22.88,4.94c.65.86,1,1.9,1.02,2.98.12,2.7-1.96,4.99-4.66,5.11-1.37.02-2.68-.55-3.6-1.57l7.24-6.52Z"/>
          <path class="cls-1" d="m22.27,4.21c-.95-.8-2.17-1.22-3.41-1.19-2.8.06-5,2.29-4.93,4.97.03.9.31,1.78.81,2.52l7.53-6.3Z"/>
          <path class="cls-1" d="m12.15,30.41c1.86-1.17,4.03-1.77,6.22-1.73,2.68,0,3.88.76,4.59,1.18-.26,1.4-.41,2.28-.41,2.28,0,0,4.77-1.36,6.56-2.11,1.93-.79,4.39.21,3.68,3.56-.09.41-1.41,4.25-2.56,7.53l4.02-3.18,4.72-7.59,1.08-15.68-2.1-2.35-.6-8.18s-1.4-1.54-1.4-1.46c0,0-1.36,8.32-1.99,12.01-.13.62-.6,1.12-1.22,1.27-2.22.58-4.72,1.49-6.72,2.22-.67.2-1.16.77-1.25,1.46-.43,2.65-.93,5.44-1.36,7.7-.71-.41-2.13-1.1-4.82-1.1-2.04-.04-4.06.37-5.92,1.21l1.42-8.15c.52-2.52,1.61-2.73,2.54-3.09,2.34-.91,11.66-3.78,11.66-3.78,0,0,1.29-.16,1.55-1.36.85-3.84,1.54-8.29,1.54-8.29.16-1.16.87-2.78,1.92-2.78h21.6v64H17.08l.07-.05c-1.08-.31-1.84-1.29-1.87-2.42-.02-.29.02-.58.12-.85.43-1.6,1.76-9.33,2.07-10.6.22-1.12.02-2.28-.57-3.26-1.17-1.94-1.85-3.16-2.56-4.43l-3.82,21.01-1.43-.12,4.11-22.84c-.27-.51-.6-1.11-.94-1.76-1.17-2.2-.41-6.44-.41-6.44l.3-1.84Zm13.41,17.04c-.95-.3-1.61-1.17-1.64-2.17,0-.22.02-.44.08-.65l3.34-9.14s-5.53,1.67-7.42,2.35c-2.31.84-2.22.59-1.64,1.83.85,1.75,1.79,3.46,2.83,5.11,1.42,2.32,1.45,3.35.82,6.01-.19.84-2.14,11.13-2.14,11.13-.03.15,1.73-.73,1.73-.73l2.91-8.86,1.12-4.87Z"/>
        </g>
      </g>
    </g>
  </g>
</svg>