<?xml version="1.0" encoding="UTF-8"?>
<svg id="AC_icons" data-name="AC icons" xmlns="http://www.w3.org/2000/svg" viewBox="0 0 64 64">
  <defs>
    <style>
      .cls-1 {
        fill: #061a2f;
        stroke-width: 0px;
      }
    </style>
  </defs>
  <g id="Informational_icons" data-name="Informational icons">
    <g id="C">
      <g id="conservation">
        <g id="Protect_animals_and_plants" data-name="Protect animals and plants">
          <path class="cls-1" d="m40.35,12.16c.64-.11,1.29-.14,1.94-.11,1.22-1.26.84-1.44,2.43-.59.53-.32,1.07-.64,1.61-.96.74.18.8.32,1.35.85,2.1-.52,1.72-.73,3.12.86,1.63.06,1.65,0,2.32,1.6.38.1.75.21,1.13.32,2-.1-1.13,3.83-6.6,9.57-.14,1.23-.29,2.45-.43,3.68,3.01.41,6.02.55,8.99,1.86-.27.62-6.89,3.42-11.03,3.79-.76.07-1.36.19-1.56.16-3.46,2.01-6.72,4.74-11.94.32l-1.51-.32c.45-.39.9-.78,1.33-1.17.61-3.89,2.83-3.78,4.91-4.31-.41-4.05-.27-5.01-.09-5.77.91.47,2.87,2.56,4.23,2.93.9-.64,1.71-1.17,2.6-1.81.07-3.75-4.13-8.26-2.81-10.9"/>
          <path class="cls-1" d="m34.56,22.1c-.4,1.41-1.05,2.74-1.91,3.93-.77,1.14-1.81,2.07-3.04,2.7-.79.43-3.52,1.07-4.55.6-1.75-.78-3.03-.56-2.93,1.28v3.7h-2.22v-3.7c.11-1.84-1.28-2.06-3.03-1.28-1.03.45-3.76-.17-4.55-.6-1.22-.63-2.27-1.56-3.03-2.7-1.67-2.4-1.96-4.2-1.96-4.2,0,0,4.32-.87,6.52.06,1.29.53,3.38.94,4.58,5.02,0,0-.2.58,1.48.74,0-.82.04-1.46,0-2.22s-.16-.95-.86-1.65c-1.1-1.12-4.06-7.71,1.91-13.72,5.96,6.02,3.04,12.61,1.93,13.72-.7.7-.72.88-.76,1.65s0,1.4,0,2.22c1.68-.17,1.48-.74,1.48-.74,1.2-4.08,3.25-4.35,4.48-5.02,2.48-1.33,6.47.21,6.47.21"/>
          <path class="cls-1" d="m33.24,53.94h6.2l-.55-4.41s-.83-1.79,1.79-2.62,12.77-4.38,12.77-4.38c0,0,5.43-2.19,6.66-3.57s3.45-3.64,3.45-3.64c0,0,1-.65-.03-1.22s-4.65,2.33-4.65,2.33c0,0-1.81,1.81-3.46,1.86s-8.43.27-10.39,1.19l3.93-2.69s1.5-1.24.57-2.12-3.31,1.08-3.31,1.08c0,0-3.54,2.87-7.34,3.67-3.46.72-5.38,3.62-5.53,6.93s-.1,7.59-.1,7.59Z"/>
          <path class="cls-1" d="m30.77,53.94h-6.21l.55-4.41s.83-1.79-1.79-2.62-12.77-4.38-12.77-4.38c0,0-5.43-2.19-6.66-3.57-1.23-1.38-3.46-3.64-3.46-3.64,0,0-1-.65.03-1.22s4.65,2.33,4.65,2.33c0,0,1.81,1.81,3.46,1.86s8.43.27,10.39,1.19l-3.92-2.69s-1.5-1.24-.57-2.12,3.31,1.08,3.31,1.08c0,0,3.55,2.87,7.34,3.67,3.46.72,5.38,3.62,5.53,6.93.15,3.31.1,7.59.1,7.59Z"/>
        </g>
      </g>
    </g>
  </g>
</svg>