<?xml version="1.0" encoding="UTF-8"?>
<svg id="AC_icons" data-name="AC icons" xmlns="http://www.w3.org/2000/svg" viewBox="0 0 64 64">
  <defs>
    <style>
      .cls-1 {
        fill: #061a2f;
        stroke-width: 0px;
      }
    </style>
  </defs>
  <g id="Informational_icons" data-name="Informational icons">
    <g id="C">
      <g id="council-building">
        <g id="Council_building" data-name="Council building">
          <path class="cls-1" d="m31.35,61.56v-20.71c-2.28-.33-3.96-2.29-3.97-4.58,0-.22.03-.39.03-.39,0-.19-.04-.37-.13-.53-.24-.25-.54-.45-.87-.56l-15.86-6.09c-.4-.16-.98-.39-1.42-.34-.38.02-.74.17-1.03.42-1.69,1.92-4.62,2.09-6.53.4-1.92-1.69-2.09-4.62-.4-6.53,1.69-1.92,4.62-2.09,6.53-.4,1,.89,1.57,2.16,1.56,3.5.05.39.23.75.51,1.02.29.33.9.56,1.28.71l15.67,6.01.18.07c.32.13.67.19,1.02.16.05-.01.09-.02.12-.04-.11-.35-.31-.67-.58-.92l-12.23-11.8c-.31-.29-.77-.74-1.16-.87-.36-.13-.75-.14-1.11-.02-2.3,1.11-5.06.14-6.16-2.16-1.11-2.3-.14-5.06,2.16-6.16,2.3-1.11,5.06-.14,6.16,2.16.58,1.2.61,2.59.08,3.82-.12.38-.1.78.06,1.14.14.41.61.87.91,1.16l12.07,11.65.13.13c.25.25.55.43.89.54.04,0,.08,0,.12,0,.03-.36-.02-.73-.17-1.06l-6.65-15.63c-.17-.46-.42-.88-.75-1.24-.28-.26-.64-.42-1.02-.46-2.55.12-4.71-1.85-4.83-4.39-.12-2.55,1.85-4.71,4.39-4.83s4.71,1.85,4.83,4.39c.06,1.34-.46,2.64-1.42,3.56-.25.3-.39.67-.4,1.06-.03.44.24,1.04.4,1.43l6.54,15.43.08.18c.14.32.34.61.6.84.03.02.07.04.11.05.17-.33.26-.69.25-1.06V13.63c0-.41,0-1.06-.19-1.45-.15-.35-.42-.64-.76-.82-2.38-.9-3.59-3.56-2.69-5.94.9-2.38,3.56-3.59,5.94-2.69,2.38.9,3.59,3.56,2.69,5.94-.47,1.24-1.45,2.22-2.69,2.69-.34.18-.62.47-.78.82-.2.39-.2,1.04-.2,1.47v16.95c0,.35.07.7.22,1.01.04.03.1.03.14,0,.26-.24.47-.52.61-.84l6.61-15.61c.23-.44.37-.93.4-1.43-.01-.39-.15-.76-.4-1.06-1.85-1.76-1.91-4.69-.15-6.53,1.76-1.85,4.69-1.91,6.53-.15,1.85,1.76,1.91,4.69.15,6.53-.92.97-2.22,1.49-3.55,1.42-.38.04-.73.2-1.01.46-.33.36-.59.78-.75,1.24l-6.62,15.63c-.14.32-.2.66-.19,1.01.03.04.09.06.14.04.34-.11.64-.29.89-.54l12.19-11.78c.38-.32.69-.71.92-1.16.15-.36.17-.77.06-1.14-1-2.34.09-5.05,2.43-6.05,2.34-1,5.05.09,6.05,2.43,1,2.34-.09,5.05-2.43,6.05-1.22.52-2.61.49-3.81-.09-.36-.12-.76-.11-1.11.02-.41.12-.87.58-1.18.87l-12.2,11.8c-.26.24-.46.54-.58.87.02.07.06.08.1.1.35.03.7-.03,1.02-.16l15.84-6.08c.39-.15,1-.38,1.3-.71.27-.28.45-.64.5-1.02,0-2.54,2.06-4.61,4.6-4.61s4.61,2.06,4.61,4.6c0,2.54-2.06,4.61-4.6,4.61-1.33,0-2.59-.57-3.46-1.57-.29-.25-.65-.4-1.03-.42-.41-.04-1.03.19-1.42.34l-15.84,6.09c-.33.11-.63.3-.87.56-.12.19-.17.41-.13.63,0,.06,0,.13,0,.19v.09c0,2.29-1.67,4.24-3.94,4.58v20.72h-1.31Z"/>
          <path class="cls-1" d="m35.03,50.8c9.08-4.34,18.7-8.34,28.67-10.11,1.6,4.27-3.48,7.23-6.63,8.81-6.58,2.86-15.19,3.98-22.03,1.3Zm-5.68-.93c-9-4.35-18.6-8.36-28.53-9.89,2.83-3.77,8.44-3.48,12.56-2.68,6.7,1.71,12.92,6.26,15.97,12.57h0Zm-.28.93c-6.85,2.68-15.46,1.56-22.03-1.3-3.16-1.58-8.23-4.54-6.64-8.81,9.96,1.77,19.58,5.78,28.67,10.11h0Zm5.68-.93c3.05-6.31,9.27-10.86,15.96-12.57,4.12-.81,9.72-1.1,12.56,2.68-9.93,1.53-19.55,5.51-28.53,9.89"/>
        </g>
      </g>
    </g>
  </g>
</svg>