<?xml version="1.0" encoding="UTF-8"?>
<svg id="AC_icons" data-name="AC icons" xmlns="http://www.w3.org/2000/svg" viewBox="0 0 64 64">
  <defs>
    <style>
      .cls-1 {
        fill: #061a2f;
        stroke-width: 0px;
      }
    </style>
  </defs>
  <g id="Informational_icons" data-name="Informational icons">
    <g id="C">
      <g id="cow">
        <g id="Cattleyard_farm_animal_viewing" data-name="Cattleyard farm animal viewing">
          <polygon class="cls-1" points="7.25 10.04 7.23 9.97 7.23 9.9 7.23 9.82 7.22 9.74 7.23 9.68 7.23 9.62 7.23 9.55 7.25 9.5 7.26 9.44 7.28 9.38 7.29 9.33 7.3 9.29 7.32 9.25 7.35 9.21 7.36 9.17 7.41 9.15 7.44 9.12 7.46 9.09 7.5 9.07 7.54 9.04 7.59 9.03 7.63 9.02 7.68 9.01 7.72 9 7.78 9 7.82 9 7.89 9 7.95 9.02 8 9.02 8.07 9.04 8.14 9.06 8.21 9.08 8.34 9.12 8.49 9.17 8.6 9.23 8.75 9.3 8.87 9.38 8.98 9.46 9.09 9.55 9.19 9.64 9.31 9.75 9.4 9.86 9.5 9.97 9.6 10.1 9.69 10.23 9.76 10.38 9.83 10.53 9.9 10.68 10.13 10.78 10.37 10.88 10.58 10.99 10.78 11.09 10.97 11.19 11.17 11.29 11.34 11.38 11.52 11.47 11.68 11.56 11.84 11.64 11.98 11.73 12.13 11.82 12.26 11.89 12.4 11.96 12.52 12.03 12.65 12.09 12.85 12.23 13.04 12.36 13.24 12.48 13.42 12.6 13.64 12.71 13.83 12.82 14.02 12.91 14.22 13.01 14.44 13.11 14.64 13.19 14.84 13.26 15.05 13.34 15.26 13.41 15.47 13.47 15.68 13.53 15.91 13.59 16.11 13.63 16.32 13.67 16.54 13.71 16.76 13.73 16.99 13.77 17.19 13.79 17.43 13.8 17.65 13.81 17.87 13.82 18.1 13.81 18.32 13.81 18.55 13.8 18.77 13.78 19.02 13.75 19.26 13.72 19.48 13.68 19.72 13.66 19.95 13.62 20.18 13.59 20.41 13.56 20.66 13.54 20.88 13.52 21.12 13.5 21.36 13.49 21.58 13.47 21.81 13.47 22.04 13.46 22.29 13.46 22.5 13.46 22.73 13.46 22.98 13.46 23.21 13.47 23.44 13.47 23.66 13.49 23.89 13.51 24.12 13.53 24.35 13.55 24.58 13.58 24.81 13.59 25.03 13.62 25.26 13.66 25.5 13.69 25.73 13.73 25.95 13.77 26.17 13.82 26.4 13.85 26.63 13.9 26.85 13.96 27.09 14.01 27.34 14.05 27.57 14.11 27.82 14.15 28.05 14.2 28.29 14.23 28.53 14.26 28.75 14.29 29.01 14.32 29.24 14.34 29.48 14.35 29.71 14.37 29.96 14.39 30.18 14.4 30.42 14.4 30.67 14.4 30.91 14.4 31.13 14.4 31.38 14.39 31.61 14.37 31.86 14.35 32.07 14.34 32.33 14.32 32.56 14.29 32.79 14.26 33.05 14.23 33.27 14.2 33.5 14.15 33.74 14.11 33.97 14.05 34.21 14.01 34.46 13.96 34.67 13.9 34.89 13.85 35.1 13.82 35.34 13.78 35.55 13.73 35.79 13.71 36.02 13.68 36.24 13.64 36.48 13.62 36.71 13.61 36.94 13.59 37.18 13.58 37.41 13.56 37.66 13.56 37.9 13.55 38.13 13.55 38.38 13.56 38.64 13.56 38.86 13.58 39.1 13.59 39.36 13.61 39.61 13.62 39.85 13.64 40.1 13.68 40.36 13.71 40.6 13.73 40.87 13.78 41.13 13.82 41.37 13.85 41.63 13.9 41.9 13.96 42.16 14.01 42.42 14.05 42.69 14.11 42.95 14.16 43.19 14.2 43.44 14.23 43.69 14.26 43.94 14.29 44.2 14.3 44.44 14.32 44.68 14.33 44.92 14.34 45.15 14.34 45.38 14.34 45.63 14.33 45.86 14.33 46.09 14.3 46.31 14.29 46.55 14.26 46.77 14.23 46.98 14.2 47.2 14.16 47.43 14.11 47.65 14.07 47.85 14.02 48.07 13.96 48.27 13.89 48.48 13.83 48.69 13.76 48.9 13.68 49.09 13.61 49.3 13.52 49.49 13.43 49.71 13.37 49.93 13.29 50.15 13.24 50.36 13.19 50.58 13.13 50.8 13.09 51.01 13.05 51.23 13.02 51.44 13 51.66 12.98 51.9 12.98 52.11 12.98 52.31 12.98 52.54 12.98 52.74 13 52.98 13.02 53.19 13.05 53.41 13.08 53.63 13.12 53.85 13.18 54.06 13.22 54.28 13.28 54.48 13.34 54.72 13.41 54.94 13.49 55.15 13.59 55.38 13.68 55.6 13.77 55.82 13.88 56.03 13.99 56.27 14.09 56.47 14.23 56.65 14.34 56.81 14.46 56.97 14.57 57.11 14.71 57.26 14.84 57.39 14.97 57.52 15.11 57.62 15.24 57.74 15.39 57.84 15.55 57.89 15.63 57.92 15.7 57.97 15.78 58.01 15.86 58.09 16.02 58.14 16.19 58.2 16.36 58.26 16.53 58.37 16.94 58.48 17.37 58.59 17.79 58.69 18.22 58.78 18.66 58.86 19.1 58.95 19.53 59.04 19.96 59.11 20.42 59.17 20.85 59.23 21.31 59.28 21.77 59.33 22.21 59.39 22.68 59.45 23.14 59.47 23.62 59.5 24.08 59.54 24.54 59.58 25 59.61 25.48 59.66 25.94 59.72 26.39 59.76 26.86 59.82 27.31 59.87 27.78 59.93 28.23 60 28.68 60.06 29.13 60.13 29.57 60.2 30.04 60.27 30.49 60.36 30.94 60.36 31.02 60.38 31.1 60.39 31.21 60.42 31.3 60.45 31.4 60.49 31.5 60.55 31.61 60.61 31.73 60.68 31.85 60.74 31.99 60.79 32.14 60.85 32.28 60.88 32.45 60.92 32.63 60.95 32.81 60.99 33.01 61.1 33.46 61.2 33.88 61.3 34.26 61.4 34.61 61.47 34.9 61.56 35.17 61.62 35.41 61.68 35.59 61.74 35.77 61.8 35.97 61.87 36.2 61.93 36.45 61.97 36.72 62.03 37.03 62.08 37.35 62.13 37.69 62.13 37.73 62.14 37.79 62.14 37.86 62.15 37.98 62.17 38.09 62.18 38.24 62.22 38.4 62.24 38.59 62.26 38.69 62.28 38.79 62.3 38.89 62.33 38.98 62.35 39.08 62.4 39.18 62.45 39.27 62.49 39.37 62.55 39.47 62.59 39.56 62.66 39.66 62.73 39.74 62.79 39.84 62.87 39.94 62.95 40.03 63.03 40.13 63.16 40.34 63.28 40.54 63.39 40.76 63.51 40.98 63.6 41.19 63.69 41.42 63.71 41.52 63.75 41.63 63.79 41.74 63.82 41.86 63.84 41.96 63.88 42.07 63.9 42.19 63.91 42.3 63.95 42.41 63.95 42.52 63.96 42.64 63.97 42.74 63.99 42.86 63.99 42.98 63.99 43.08 64 43.19 63.99 43.31 63.99 43.42 63.99 43.54 63.97 43.66 63.93 43.57 63.88 43.49 63.82 43.43 63.77 43.38 63.73 43.33 63.69 43.29 63.68 43.28 63.64 43.26 63.63 43.26 63.6 43.26 63.59 43.25 63.56 43.25 63.54 43.22 63.52 43.21 63.5 43.18 63.47 43.16 63.46 43.12 63.41 43.08 63.36 42.99 63.3 42.88 63.25 42.75 63.19 42.61 63.19 42.86 63.19 43.08 63.19 43.29 63.21 43.49 63.21 43.7 63.22 43.87 63.24 44.04 63.25 44.19 63.27 44.33 63.28 44.45 63.3 44.56 63.33 44.67 63.35 44.75 63.38 44.82 63.41 44.88 63.43 44.93 63.38 44.96 63.34 44.99 63.28 45.01 63.24 45.04 63.19 45.05 63.16 45.07 63.1 45.07 63.05 45.08 63.01 45.08 62.96 45.08 62.92 45.07 62.89 45.07 62.85 45.06 62.81 45.04 62.78 45.02 62.73 45 62.7 44.98 62.68 44.95 62.64 44.91 62.6 44.88 62.58 44.85 62.55 44.8 62.51 44.76 62.49 44.7 62.46 44.65 62.43 44.59 62.4 44.54 62.39 44.48 62.34 44.34 62.3 44.19 62.32 44.3 62.33 44.4 62.33 44.5 62.34 44.58 62.34 44.67 62.33 44.76 62.33 44.85 62.32 44.91 62.28 45 62.27 45.07 62.24 45.14 62.2 45.21 62.15 45.28 62.13 45.34 62.08 45.4 62.03 45.46 61.77 44.4 61.77 44.55 61.75 44.68 61.74 44.84 61.72 44.95 61.69 45.07 61.66 45.16 61.64 45.21 61.6 45.26 61.58 45.3 61.56 45.34 61.54 45.38 61.51 45.44 61.49 45.47 61.47 45.52 61.46 45.57 61.45 45.62 61.45 45.66 61.45 45.72 61.45 45.78 61.45 45.84 61.45 45.9 61.45 45.97 61.46 46.03 61.47 46.09 61.49 46.17 61.51 46.24 61.47 46.2 61.45 46.14 61.43 46.08 61.39 46.01 61.33 45.85 61.27 45.66 61.21 45.46 61.15 45.21 61.1 44.95 61.05 44.65 61.02 44.51 60.99 44.36 60.95 44.23 60.93 44.08 60.92 43.94 60.9 43.81 60.9 43.69 60.88 43.57 60.88 43.45 60.88 43.33 60.9 43.22 60.9 43.11 60.92 43 60.93 42.91 60.95 42.81 60.99 42.72 60.99 42.55 60.99 42.37 60.97 42.21 60.95 42.04 60.94 41.91 60.93 41.77 60.9 41.63 60.87 41.51 60.85 41.39 60.81 41.28 60.79 41.16 60.74 41.08 60.7 40.98 60.67 40.91 60.61 40.82 60.57 40.75 60.53 40.72 60.51 40.68 60.48 40.65 60.47 40.61 60.45 40.55 60.42 40.52 60.4 40.47 60.39 40.41 60.38 40.3 60.35 40.18 60.34 40.06 60.34 39.91 60.33 39.77 60.33 39.6 60.34 39.42 60.35 39.25 60.36 39.06 60.38 38.86 60.42 38.65 60.45 38.44 60.45 38.31 60.44 38.17 60.44 38.04 60.42 37.87 60.4 37.71 60.39 37.54 60.38 37.36 60.35 37.18 60.33 36.98 60.29 36.76 60.27 36.54 60.22 36.31 60.18 36.07 60.13 35.83 60.09 35.57 60.04 35.3 59.99 35.03 59.93 34.78 59.87 34.53 59.82 34.3 59.76 34.08 59.69 33.87 59.63 33.68 59.58 33.49 59.52 33.32 59.45 33.17 59.38 33.02 59.33 32.89 59.25 32.76 59.18 32.66 59.11 32.56 59.04 32.48 59.03 32.43 59.01 32.41 58.99 32.41 58.98 32.41 58.97 32.42 58.97 32.43 58.97 32.46 58.97 32.51 58.97 32.58 58.97 32.68 58.99 32.77 59.01 32.9 59.03 33.03 59.05 33.2 59.11 33.56 59.2 34 59.28 34.46 59.37 34.88 59.43 35.26 59.48 35.64 59.53 35.97 59.55 36.26 59.55 36.39 59.58 36.52 59.58 36.64 59.58 36.76 59.58 36.89 59.58 37.04 59.58 37.23 59.58 37.42 59.58 37.66 59.58 37.9 59.58 38.18 59.58 38.48 59.58 38.82 59.58 39.17 59.58 39.55 59.58 39.95 59.58 40.38 59.58 40.84 59.58 41.31 59.58 41.81 59.6 42.31 59.6 42.79 59.6 43.25 59.6 43.67 59.6 44.08 59.6 44.45 59.6 44.82 59.6 45.14 59.6 45.44 59.6 45.72 59.6 45.98 59.6 46.21 59.58 46.41 59.58 46.59 59.58 46.74 59.58 46.88 59.58 47.41 59.58 47.88 59.58 48.29 59.6 48.63 59.61 48.91 59.63 49.13 59.64 49.21 59.66 49.28 59.66 49.32 59.67 49.36 59.78 49.55 59.85 49.73 59.91 49.88 59.96 50.03 60 50.18 60.04 50.31 60.06 50.43 60.07 50.54 60.07 50.59 60.07 50.64 60.07 50.7 60.07 50.73 60.06 50.77 60.06 50.81 60.05 50.85 60.04 50.88 60.02 50.91 60 50.94 59.98 50.96 59.95 50.98 59.92 50.99 59.89 51.01 59.86 51.02 59.84 51.04 59.79 51.06 59.76 51.1 59.73 51.14 59.69 51.17 59.66 51.22 59.64 51.26 59.63 51.32 59.61 51.37 59.6 51.43 59.58 51.49 59.58 51.56 59.58 51.63 59.58 51.7 59.58 51.78 59.58 51.85 59.58 51.93 59.58 52.02 59.58 52.09 59.58 52.12 59.55 52.15 59.55 52.16 59.54 52.2 59.53 52.21 59.53 52.24 59.52 52.25 59.48 52.27 59.47 52.27 59.45 52.28 59.43 52.28 59.39 52.28 59.37 52.28 59.35 52.28 59.33 52.27 59.28 52.27 59.21 52.24 59.15 52.2 59.06 52.15 58.98 52.09 58.9 52.02 58.79 51.93 58.77 51.99 58.73 52.06 58.72 52.13 58.7 52.21 58.7 52.3 58.69 52.4 58.69 52.51 58.7 52.61 58.7 52.74 58.7 52.85 58.7 52.95 58.7 53.05 58.7 53.15 58.7 53.22 58.69 53.29 58.67 53.35 58.56 53.45 58.45 53.52 58.32 53.61 58.21 53.67 58.1 53.74 58 53.81 57.9 53.87 57.78 53.92 57.68 53.97 57.57 54.01 57.47 54.05 57.35 54.09 57.26 54.12 57.16 54.13 57.06 54.16 56.96 54.16 56.87 54.18 56.77 54.19 56.69 54.19 56.59 54.18 56.49 54.16 56.41 54.16 56.31 54.13 56.23 54.12 56.15 54.08 56.07 54.03 55.98 54.01 55.89 53.97 55.82 53.91 55.73 53.86 55.67 53.81 55.59 53.73 55.59 53.65 55.6 53.58 55.6 53.49 55.61 53.41 55.63 53.33 55.65 53.25 55.68 53.17 55.69 53.08 55.72 52.99 55.75 52.91 55.79 52.83 55.82 52.74 55.86 52.65 55.9 52.57 55.94 52.48 55.99 52.39 56.03 52.3 56.08 52.21 56.14 52.12 56.21 52.02 56.33 51.84 56.45 51.66 56.59 51.47 56.76 51.27 56.91 51.08 57.1 50.9 57.16 50.76 57.2 50.62 57.26 50.48 57.3 50.35 57.34 50.19 57.37 50.05 57.41 49.9 57.43 49.75 57.45 49.58 57.47 49.43 57.48 49.26 57.48 49.1 57.48 48.93 57.48 48.76 57.48 48.59 57.47 48.4 57.43 48.05 57.42 47.7 57.41 47.36 57.39 47.02 57.39 46.69 57.37 46.36 57.37 46.03 57.37 45.72 57.31 45.46 57.28 45.19 57.23 44.95 57.17 44.7 57.13 44.45 57.08 44.23 57.02 44 56.95 43.77 56.87 43.55 56.8 43.35 56.73 43.13 56.65 42.93 56.57 42.73 56.48 42.54 56.41 42.35 56.31 42.16 56.22 41.98 56.15 41.8 56.07 41.6 56.01 41.42 55.94 41.23 55.88 41.05 55.82 40.85 55.78 40.67 55.72 40.48 55.69 40.29 55.65 40.1 55.63 39.9 55.6 39.7 55.6 39.51 55.59 39.31 55.59 39.12 55.24 39.2 54.95 39.28 54.71 39.34 54.51 39.4 54.4 39.43 54.28 39.47 54.28 39.48 54.26 39.48 54.26 39.5 54.28 39.5 54.26 39.6 54.26 39.72 54.25 39.82 54.25 39.94 54.25 40.03 54.25 40.15 54.26 40.27 54.26 40.37 54.28 40.48 54.28 40.59 54.31 40.7 54.32 40.8 54.36 40.91 54.37 41.03 54.4 41.13 54.43 41.23 54.46 41.33 54.48 41.45 54.51 41.55 54.53 41.64 54.54 41.73 54.54 41.84 54.54 41.93 54.54 42.02 54.54 42.12 54.53 42.2 54.51 42.29 54.48 42.38 54.48 42.47 54.45 42.55 54.42 42.64 54.4 42.72 54.32 42.93 54.26 43.15 54.2 43.36 54.14 43.6 54.07 43.84 54.01 44.08 53.95 44.33 53.88 44.58 53.83 44.84 53.77 45.1 53.7 45.38 53.65 45.66 53.57 45.94 53.51 46.23 53.44 46.52 53.38 46.82 53.32 47.12 53.25 47.42 53.21 47.7 53.16 47.99 53.13 48.26 53.11 48.51 53.09 48.78 53.08 49.02 53.08 49.26 53.08 49.51 53.08 49.75 53.09 49.96 53.11 50.18 53.13 50.38 53.16 50.49 53.18 50.58 53.19 50.68 53.21 50.78 53.31 50.9 53.38 51 53.44 51.12 53.5 51.22 53.53 51.32 53.57 51.39 53.59 51.49 53.61 51.56 53.63 51.65 53.63 51.72 53.61 51.74 53.61 51.78 53.61 51.82 53.59 51.83 53.59 51.86 53.57 51.89 53.55 51.92 53.53 51.94 53.52 51.96 53.47 51.99 53.46 52.01 53.44 52.02 53.32 52.09 53.23 52.16 53.14 52.21 53.09 52.27 53.05 52.3 53.03 52.34 53.01 52.36 53.01 52.39 52.99 52.41 52.98 52.43 52.98 52.46 52.98 52.47 52.98 52.63 52.96 52.77 52.94 52.91 52.92 53.02 52.91 53.08 52.87 53.13 52.85 53.18 52.84 53.23 52.81 53.27 52.79 53.32 52.76 53.34 52.74 53.38 52.72 53.41 52.69 53.42 52.64 53.45 52.62 53.47 52.58 53.48 52.54 53.51 52.51 53.52 52.47 53.52 52.41 53.52 52.37 53.53 52.33 53.52 52.28 53.52 52.24 53.51 52.18 53.51 52.12 53.48 52.08 53.47 52.02 53.48 51.99 53.52 51.97 53.55 51.93 53.59 51.91 53.62 51.88 53.65 51.85 53.67 51.83 53.71 51.81 53.75 51.79 53.78 51.78 53.82 51.77 53.86 51.75 53.9 51.75 53.94 51.73 53.98 51.73 54.02 51.73 54.12 51.72 54.19 51.69 54.26 51.68 54.33 51.65 54.39 51.61 54.43 51.58 54.49 51.53 54.53 51.32 54.63 51.13 54.71 51.03 54.74 50.92 54.78 50.83 54.81 50.72 54.84 50.62 54.87 50.52 54.89 50.42 54.91 50.32 54.93 50.22 54.95 50.13 54.96 50.03 54.97 49.93 54.98 49.84 55 49.74 55 49.64 55 49.54 55 49.45 55 49.36 54.99 49.27 54.98 49.18 54.97 49.08 54.95 48.99 54.94 48.9 54.91 48.81 54.89 48.73 54.87 48.63 54.84 48.55 54.81 48.46 54.78 48.48 54.58 48.5 54.37 48.53 54.18 48.55 54 48.6 53.82 48.65 53.65 48.67 53.51 48.73 53.38 48.79 53.23 48.83 53.11 48.9 52.99 48.98 52.9 49.01 52.84 49.03 52.8 49.07 52.75 49.12 52.7 49.15 52.67 49.18 52.63 49.22 52.59 49.27 52.57 49.43 52.45 49.58 52.32 49.74 52.19 49.9 52.04 50.08 51.9 50.23 51.74 50.39 51.58 50.55 51.41 50.62 51.22 50.68 51.02 50.74 50.83 50.8 50.63 50.84 50.43 50.88 50.23 50.92 50.03 50.95 49.82 50.98 49.62 51.01 49.41 51.03 49.19 51.04 48.98 51.05 48.76 51.07 48.53 51.07 48.33 51.07 48.1 51.05 47.88 51.04 47.66 51.03 47.43 51.01 47.19 50.98 46.97 50.95 46.74 50.91 46.5 50.88 46.26 50.84 46.02 50.78 45.78 50.72 45.53 50.67 45.28 50.6 45.04 50.53 44.79 50.48 44.52 50.39 44.28 50.39 44.23 50.36 44.13 50.32 44.02 50.28 43.85 50.2 43.66 50.13 43.42 50.03 43.15 49.91 42.84 49.82 42.53 49.69 42.23 49.57 41.96 49.45 41.71 49.32 41.48 49.21 41.26 49.15 41.16 49.09 41.08 49.03 41 48.98 40.91 48.99 40.92 48.99 40.92 48.99 40.94 48.99 40.95 48.96 41.01 48.9 41.08 48.82 41.16 48.73 41.27 48.6 41.4 48.46 41.55 48.46 41.56 48.44 41.6 48.42 41.63 48.42 41.66 48.42 41.72 48.42 41.77 48.44 41.83 48.46 41.9 48.48 42.03 48.53 42.2 48.58 42.39 48.65 42.61 48.67 42.72 48.69 42.81 48.71 42.92 48.73 43 48.73 43.08 48.73 43.16 48.73 43.22 48.7 43.28 48.69 43.31 48.67 43.34 48.67 43.36 48.66 43.38 48.65 43.4 48.63 43.42 48.6 43.43 48.59 43.45 48.55 43.47 48.55 43.48 48.52 43.48 48.48 43.49 48.41 43.49 48.35 43.51 48.31 43.53 48.27 43.53 48.24 43.53 48.2 43.53 48.17 43.51 48.14 43.49 48.11 43.47 48.08 43.43 48.05 43.4 48.02 43.36 48 43.29 47.98 43.25 47.97 43.18 47.94 43.11 47.93 43.02 47.91 42.95 47.87 42.78 47.83 42.64 47.81 42.51 47.77 42.41 47.77 42.33 47.75 42.27 47.74 42.25 47.74 42.23 47.66 42.25 47.59 42.27 47.52 42.29 47.46 42.31 47.39 42.33 47.33 42.33 47.26 42.34 47.19 42.34 47.14 42.44 47.13 42.55 47.1 42.65 47.08 42.74 47.07 42.84 47.07 42.94 47.07 43.02 47.07 43.11 47.07 43.19 47.07 43.28 47.06 43.38 47.03 43.48 47.01 43.58 47 43.69 46.97 43.8 46.94 43.92 46.84 43.99 46.75 44.04 46.67 44.06 46.58 44.09 46.55 44.1 46.52 44.1 46.5 44.1 46.45 44.1 46.42 44.1 46.39 44.1 46.36 44.09 46.33 44.08 46.31 44.06 46.29 44.05 46.27 44.04 46.26 44 46.25 43.99 46.22 43.96 46.2 43.92 46.19 43.89 46.18 43.8 46.16 43.72 46.14 43.62 46.14 43.51 46.14 43.36 46.14 43.23 46.13 43.1 46.13 42.99 46.12 42.88 46.12 42.78 46.11 42.68 46.09 42.61 46.07 42.53 46.05 42.47 46.02 42.41 46 42.35 45.96 42.3 45.94 42.27 45.92 42.25 45.89 42.23 45.77 42.23 45.69 42.21 45.55 42.2 45.45 42.19 45.32 42.17 45.21 42.14 45.08 42.11 44.93 42.07 44.81 42.02 44.65 41.98 44.5 41.92 44.36 41.86 44.2 41.8 44.03 41.73 43.85 41.66 43.69 41.58 43.49 41.49 43.35 41.4 43.19 41.31 43.03 41.22 42.9 41.11 42.77 41.01 42.7 40.95 42.64 40.9 42.58 40.84 42.52 40.77 42.42 40.67 42.32 40.55 42.27 40.48 42.22 40.43 42.18 40.37 42.15 40.3 42.1 40.24 42.06 40.17 42.03 40.11 42.01 40.03 41.98 39.97 41.95 39.9 41.92 39.83 41.89 39.77 41.83 39.77 41.73 39.77 41.53 39.77 41.26 39.78 40.92 39.79 40.51 39.8 40.03 39.81 39.47 39.83 39.16 39.84 38.86 39.85 38.55 39.86 38.24 39.87 37.92 39.88 37.62 39.9 37.3 39.9 36.98 39.91 36.66 39.91 36.35 39.93 36.02 39.93 35.68 39.93 35.35 39.94 35 39.94 34.68 39.95 34.34 39.95 34.01 39.97 33.66 39.97 33.33 39.98 33.01 39.98 32.69 39.98 32.39 40 32.07 40 31.77 40 31.48 40 31.18 40 30.89 40.01 30.62 40 30.32 40 30.07 40 29.79 40 29.51 40 29.27 40 29.04 39.98 28.82 39.98 28.63 39.97 28.47 39.95 28.32 39.95 28.21 39.94 28.09 39.93 28 39.91 27.95 39.9 27.91 39.88 27.9 39.87 27.88 39.86 27.88 39.85 27.88 39.83 27.88 39.82 27.88 39.8 27.95 39.79 28 39.77 27.95 39.9 27.9 40.02 27.86 40.15 27.82 40.3 27.77 40.44 27.73 40.59 27.69 40.75 27.67 40.91 27.66 41.06 27.63 41.23 27.6 41.4 27.58 41.58 27.57 41.76 27.55 41.95 27.55 42.14 27.53 42.34 27.51 42.73 27.5 43.08 27.48 43.25 27.47 43.41 27.44 43.57 27.42 43.72 27.41 43.85 27.4 43.99 27.37 44.12 27.34 44.24 27.31 44.36 27.28 44.47 27.25 44.56 27.21 44.65 27.16 44.82 27.13 44.97 27.07 45.12 27.04 45.28 27 45.44 26.98 45.6 26.95 45.77 26.94 45.93 26.9 46.09 26.89 46.27 26.89 46.43 26.89 46.6 26.89 46.76 26.89 46.94 26.9 47.11 26.92 47.29 26.95 47.48 26.97 47.66 26.98 47.86 26.99 48.04 26.99 48.23 27 48.43 27.02 48.63 27.02 48.84 27.04 49.05 27.04 49.26 27.04 49.48 27.05 49.69 27.05 49.93 27.05 50.16 27.05 50.38 27.05 50.62 27.02 50.68 26.99 50.73 26.97 50.77 26.94 50.8 26.89 50.85 26.86 50.88 26.83 50.91 26.79 50.94 26.76 50.96 26.72 50.98 26.66 50.99 26.62 51.01 26.57 51.02 26.53 51.02 26.47 51.04 26.43 51.04 26.43 51.09 26.43 51.15 26.45 51.22 26.45 51.29 26.47 51.36 26.49 51.43 26.51 51.51 26.53 51.59 26.56 51.68 26.57 51.76 26.59 51.84 26.6 51.92 26.6 52 26.6 52.06 26.6 52.13 26.59 52.2 26.55 52.25 26.51 52.27 26.47 52.3 26.43 52.34 26.4 52.36 26.36 52.38 26.33 52.39 26.3 52.4 26.26 52.4 26.23 52.4 26.19 52.4 26.16 52.39 26.13 52.38 26.09 52.36 26.05 52.34 26.03 52.32 26.03 52.3 26.01 52.29 26 52.28 25.98 52.28 25.96 52.28 25.95 52.28 25.94 52.29 25.93 52.3 25.91 52.32 25.9 52.36 25.86 52.41 25.85 52.47 25.84 52.54 25.84 52.63 25.83 52.71 25.81 52.83 25.81 53.07 25.81 53.35 25.71 53.41 25.61 53.45 25.5 53.51 25.4 53.54 25.3 53.59 25.21 53.62 25.13 53.65 25.04 53.67 24.96 53.71 24.87 53.72 24.78 53.73 24.71 53.75 24.64 53.76 24.55 53.76 24.48 53.76 24.39 53.76 24.34 53.76 24.26 53.75 24.2 53.74 24.13 53.72 24.06 53.71 24 53.68 23.95 53.65 23.89 53.62 23.83 53.59 23.79 53.57 23.73 53.52 23.68 53.47 23.63 53.42 23.57 53.39 23.53 53.33 23.5 53.27 23.5 53.17 23.52 53.05 23.54 52.94 23.57 52.82 23.63 52.7 23.68 52.59 23.73 52.47 23.8 52.35 23.89 52.22 23.96 52.1 24.05 51.97 24.14 51.84 24.26 51.72 24.36 51.58 24.49 51.44 24.64 51.31 24.65 51.26 24.67 51.21 24.68 51.14 24.68 51.06 24.71 50.88 24.73 50.66 24.73 50.39 24.73 50.09 24.73 49.75 24.73 49.36 24.73 49.22 24.73 49.06 24.73 48.91 24.73 48.77 24.73 48.62 24.73 48.47 24.73 48.32 24.73 48.17 24.73 48.02 24.73 47.88 24.73 47.75 24.73 47.63 24.73 47.52 24.73 47.43 24.73 47.32 24.73 47.26 24.73 47.12 24.75 46.98 24.75 46.84 24.75 46.69 24.75 46.52 24.77 46.33 24.77 46.13 24.78 45.93 24.78 45.72 24.78 45.53 24.77 45.35 24.75 45.19 24.73 45.04 24.71 44.91 24.68 44.77 24.64 44.65 24.23 44.28 24.16 44.18 24.12 44.08 24.06 43.97 24.03 43.87 23.99 43.75 23.96 43.64 23.93 43.53 23.92 43.4 23.89 43.28 23.89 43.16 23.87 43.02 23.87 42.88 23.87 42.75 23.89 42.61 23.89 42.47 23.9 42.31 23.95 42.02 23.96 41.73 23.99 41.45 24 41.16 24 40.91 24 40.64 23.99 40.37 23.96 40.13 23.92 40.11 23.87 40.11 23.83 40.11 23.77 40.11 23.72 40.13 23.66 40.13 23.62 40.15 23.56 40.17 23.5 40.2 23.45 40.23 23.4 40.28 23.32 40.32 23.27 40.37 23.21 40.41 23.14 40.48 23.09 40.53 23.09 40.75 23.09 40.97 23.06 41.19 23.05 41.44 23.04 41.68 23.02 41.94 23.01 42.21 22.98 42.49 22.95 42.77 22.92 43.02 22.88 43.26 22.85 43.45 22.82 43.64 22.78 43.79 22.76 43.86 22.73 43.93 22.72 43.99 22.7 44.04 22.68 44.08 22.65 44.13 22.62 44.19 22.59 44.24 22.58 44.33 22.55 44.4 22.52 44.47 22.5 44.54 22.46 44.7 22.42 44.88 22.39 45.08 22.37 45.28 22.34 45.51 22.33 45.75 22.3 46 22.3 46.27 22.29 46.55 22.29 46.84 22.29 47.15 22.29 47.49 22.3 47.82 22.3 48.14 22.32 48.45 22.33 48.77 22.33 49.08 22.34 49.37 22.36 49.66 22.36 49.96 22.37 50.23 22.37 50.51 22.39 50.78 22.4 51.05 22.4 51.31 22.42 51.56 22.43 51.8 22.43 52.04 22.42 52.11 22.4 52.16 22.39 52.21 22.37 52.26 22.36 52.3 22.33 52.34 22.3 52.36 22.29 52.39 22.26 52.4 22.23 52.4 22.2 52.4 22.16 52.4 22.13 52.39 22.09 52.37 22.04 52.35 22.01 52.32 21.93 52.25 21.86 52.2 21.8 52.16 21.75 52.15 21.71 52.15 21.69 52.15 21.68 52.15 21.65 52.16 21.65 52.19 21.65 52.2 21.69 52.37 21.73 52.51 21.75 52.65 21.77 52.77 21.77 52.83 21.77 52.9 21.77 52.94 21.75 52.99 21.75 53.03 21.74 53.07 21.71 53.11 21.71 53.16 21.68 53.19 21.67 53.22 21.64 53.25 21.62 53.27 21.59 53.3 21.57 53.32 21.54 53.34 21.49 53.35 21.47 53.35 21.42 53.38 21.38 53.38 21.34 53.38 21.28 53.38 21.23 53.38 21.19 53.38 21.13 53.35 21.1 53.38 21.09 53.38 21.07 53.39 21.05 53.4 21.03 53.42 21.02 53.45 21 53.48 20.98 53.51 20.98 53.61 20.94 53.71 20.93 53.83 20.9 53.97 20.88 54.12 20.84 54.25 20.83 54.36 20.8 54.46 20.77 54.54 20.74 54.6 20.73 54.64 20.7 54.66 20.68 54.68 20.67 54.69 20.44 54.74 20.23 54.76 20.02 54.78 19.82 54.8 19.73 54.8 19.63 54.8 19.55 54.8 19.47 54.8 19.38 54.8 19.3 54.78 19.23 54.77 19.16 54.76 19.08 54.74 19.01 54.73 18.95 54.71 18.88 54.68 18.82 54.66 18.75 54.64 18.71 54.6 18.65 54.58 18.59 54.55 18.55 54.51 18.5 54.47 18.46 54.43 18.42 54.4 18.38 54.36 18.33 54.3 18.31 54.26 18.29 54.18 18.29 54.1 18.29 54.02 18.31 53.94 18.31 53.87 18.33 53.79 18.34 53.72 18.39 53.63 18.42 53.56 18.46 53.48 18.52 53.41 18.57 53.33 18.64 53.25 18.69 53.17 18.77 53.1 18.87 53.01 19.02 52.86 19.17 52.71 19.32 52.58 19.46 52.42 19.59 52.27 19.73 52.13 19.86 51.98 19.98 51.83 20.02 51.73 20.08 51.62 20.11 51.51 20.13 51.38 20.17 51.25 20.18 51.12 20.19 50.98 20.23 50.83 20.24 50.67 20.24 50.51 20.24 50.34 20.25 50.16 20.24 49.97 20.24 49.79 20.23 49.58 20.21 49.38 20.19 49.17 20.18 48.97 20.17 48.75 20.15 48.53 20.13 48.33 20.12 48.1 20.12 47.88 20.09 47.66 20.09 47.45 20.08 47.21 20.05 46.98 20.04 46.75 20.02 46.52 20 46.28 19.99 46.06 19.98 45.81 19.6 45.46 19.56 45.4 19.51 45.34 19.47 45.28 19.43 45.22 19.38 45.16 19.36 45.09 19.33 45.02 19.28 44.95 19.27 44.88 19.23 44.8 19.19 44.73 19.18 44.64 19.16 44.56 19.14 44.47 19.13 44.39 19.11 44.3 19.1 44.2 19.08 44.1 19.08 44 19.07 43.9 19.07 43.8 19.07 43.7 19.07 43.58 19.07 43.48 19.08 43.25 19.1 43 19.13 42.76 19.16 42.49 19.19 42.23 19.24 41.98 19.27 41.72 19.28 41.48 19.3 41.22 19.3 40.98 19.3 40.73 19.3 40.48 19.28 40.26 19.27 40.02 19.23 39.79 19.18 39.56 19.16 39.34 19.1 39.12 19.06 38.91 18.98 38.71 18.64 38.51 18.29 38.32 18.13 38.23 17.97 38.13 17.83 38.04 17.68 37.94 17.54 37.86 17.39 37.76 17.26 37.67 17.13 37.59 17.02 37.49 16.9 37.4 16.79 37.3 16.69 37.23 16.59 37.13 16.49 37.05 16.41 36.95 16.32 36.88 16.22 36.78 16.16 36.7 16.08 36.61 16.02 36.52 15.95 36.44 15.91 36.35 15.85 36.27 15.8 36.19 15.77 36.11 15.73 36.02 15.71 35.94 15.68 35.86 15.62 35.68 15.57 35.49 15.53 35.29 15.49 35.07 15.43 34.85 15.39 34.6 15.34 34.33 15.29 34.05 15.22 33.77 15.17 33.46 15.13 33.13 15.07 32.81 15.01 32.45 14.96 32.09 14.91 31.7 14.84 31.32 14.81 31.09 14.75 30.87 14.7 30.64 14.64 30.43 14.58 30.2 14.51 30 14.44 29.78 14.36 29.57 14.29 29.36 14.2 29.16 14.12 28.94 14.02 28.74 13.93 28.53 13.83 28.33 13.73 28.12 13.61 27.92 13.5 27.72 13.38 27.52 13.27 27.33 13.14 27.13 13.01 26.94 12.87 26.75 12.73 26.56 12.6 26.37 12.46 26.18 12.3 26.01 12.14 25.82 11.98 25.64 11.82 25.45 11.64 25.28 11.47 25.09 11.3 24.92 11.13 24.76 10.96 24.59 10.78 24.42 10.59 24.26 10.42 24.12 10.23 23.98 10.06 23.84 9.89 23.7 9.73 23.58 9.56 23.45 9.37 23.34 9.19 23.23 9.02 23.11 8.87 23.01 8.7 22.92 8.53 22.83 8.36 22.74 8.19 22.67 8.03 22.59 7.85 22.52 7.69 22.47 7.54 22.4 7.36 22.36 7.22 22.3 7.04 22.27 6.89 22.23 6.73 22.2 6.57 22.18 6.41 22.16 6.25 22.15 6.09 22.13 5.95 22.13 5.8 22.23 5.67 22.32 5.56 22.4 5.41 22.49 5.29 22.56 5.15 22.63 5.01 22.7 4.88 22.75 4.75 22.8 4.59 22.84 4.44 22.87 4.32 22.9 4.15 22.93 4.01 22.94 3.87 22.95 3.71 22.95 3.56 22.95 3.41 22.94 3.25 22.93 3.09 22.9 2.93 22.87 2.77 22.84 2.6 22.8 2.44 22.75 2.28 22.7 2.11 22.63 1.93 22.56 1.76 22.49 1.59 22.4 1.41 22.32 1.23 22.23 1.06 22.13 .94 22.05 .83 21.99 .75 21.9 .66 21.81 .62 21.77 .58 21.72 .55 21.67 .51 21.62 .43 21.53 .38 21.42 .36 21.37 .33 21.31 .3 21.26 .28 21.2 .24 21.07 .22 20.96 .18 20.83 .16 20.7 .16 20.58 .14 20.43 .1 20.3 .06 20.15 .05 20.02 0 19.91 0 19.79 0 19.68 0 19.63 0 19.57 0 19.53 0 19.48 .03 19.44 .05 19.38 .06 19.35 .06 19.31 .09 19.27 .1 19.22 .13 19.2 .14 19.16 .18 19.13 .22 19.1 .24 19.07 .28 19.04 .3 19.01 .35 18.98 .39 18.97 .42 18.94 .58 18.86 .72 18.79 .87 18.72 .98 18.65 1.1 18.61 1.18 18.57 1.26 18.53 1.31 18.5 1.47 18.3 1.63 18.08 1.82 17.86 1.99 17.64 2.17 17.39 2.35 17.15 2.52 16.9 2.73 16.64 2.83 16.51 2.92 16.37 2.99 16.26 3.09 16.13 3.16 16.02 3.22 15.91 3.29 15.79 3.35 15.7 3.39 15.59 3.45 15.49 3.49 15.39 3.54 15.31 3.56 15.22 3.6 15.13 3.61 15.04 3.63 14.96 3.65 14.87 3.68 14.77 3.71 14.68 3.74 14.58 3.77 14.49 3.81 14.39 3.87 14.29 3.91 14.2 3.97 14.09 4.03 14 4.09 13.89 4.15 13.8 4.23 13.69 4.3 13.59 4.39 13.48 4.48 13.38 4.62 13.18 4.79 12.98 4.94 12.8 5.08 12.63 5.21 12.48 5.33 12.34 5.44 12.22 5.57 12.09 5.51 12.03 5.47 11.96 5.43 11.91 5.38 11.83 5.34 11.77 5.31 11.71 5.29 11.64 5.26 11.58 5.23 11.52 5.21 11.44 5.2 11.38 5.17 11.32 5.17 11.25 5.15 11.19 5.14 11.12 5.14 11.06 5.14 11 5.13 10.94 5.14 10.86 5.14 10.81 5.14 10.74 5.15 10.68 5.17 10.61 5.18 10.55 5.2 10.49 5.21 10.43 5.24 10.37 5.27 10.29 5.3 10.23 5.33 10.17 5.35 10.1 5.4 10.04 5.43 10.03 5.46 10.02 5.48 10.02 5.53 10 5.56 9.99 5.59 9.99 5.62 9.99 5.66 9.99 5.72 10 5.79 10.03 5.88 10.06 5.95 10.1 6.03 10.14 6.1 10.2 6.19 10.27 6.28 10.36 6.37 10.45 6.45 10.54 6.54 10.65 6.63 10.78 6.68 10.83 6.73 10.88 6.77 10.94 6.82 10.98 6.86 11 6.89 11.04 6.91 11.06 6.96 11.09 6.99 11.11 7.02 11.12 7.04 11.12 7.08 11.12 7.1 11.12 7.12 11.11 7.14 11.1 7.16 11.07 7.19 11.05 7.2 11.01 7.22 10.99 7.23 10.94 7.25 10.89 7.25 10.85 7.26 10.8 7.26 10.73 7.28 10.59 7.28 10.44 7.26 10.25 7.25 10.04"/>
        </g>
      </g>
    </g>
  </g>
</svg>