<?xml version="1.0" encoding="UTF-8"?>
<svg id="AC_icons" data-name="AC icons" xmlns="http://www.w3.org/2000/svg" viewBox="0 0 64 64">
  <defs>
    <style>
      .cls-1 {
        fill: #061a2f;
        stroke-width: 0px;
      }
    </style>
  </defs>
  <g id="Informational_icons" data-name="Informational icons">
    <g id="B">
      <g id="bike">
        <g id="Layer_2" data-name="Layer 2">
          <circle class="cls-1" cx="46.09" cy="9.98" r="5.72"/>
          <path class="cls-1" d="m27.16,46.16c0,7.5-6.08,13.58-13.58,13.58S0,53.66,0,46.16c0-7.5,6.08-13.58,13.58-13.58h0c7.5,0,13.58,6.08,13.58,13.58h0Zm-13.58-11.24c-6.21,0-11.24,5.03-11.24,11.23,0,6.21,5.03,11.24,11.23,11.24s11.24-5.03,11.24-11.23c0,0,0,0,0,0,0-6.21-5.03-11.24-11.23-11.24Z"/>
          <path class="cls-1" d="m64,46.16c0,7.5-6.08,13.58-13.58,13.58-7.5,0-13.58-6.08-13.58-13.58,0-7.5,6.08-13.58,13.58-13.58h0c7.5,0,13.58,6.08,13.58,13.58Zm-13.58-11.24c-6.21,0-11.24,5.03-11.24,11.24s5.03,11.24,11.24,11.24,11.24-5.03,11.24-11.24c0-6.2-5.02-11.24-11.23-11.24h0Z"/>
          <path class="cls-1" d="m53.13,28.28s-7.21-.78-9.41-4.87c-1.28-2.27-2.2-4.71-2.75-7.26,0,0-.65-3.77-4.61-3.77s-9.29,3.27-12.72,6.02-6.84,6.69-6.84,9.88c0,2.86,3.47,3.82,3.47,3.82,0,0,5.89,2.87,7.78,6.83,0,0,2.66,4.55,2.66,11.44,0,0,.06,2.34,1.76,2.34s1.88-2.34,1.88-2.34c0,0,1.43-11.7-2.19-16.42,0,0-3.62-4.8-6.51-6.71,0,0,5.07-4.16,11.2-6.17,0,0,2.83,10.33,16.29,10.33v-3.12Z"/>
        </g>
      </g>
    </g>
  </g>
</svg>