<?xml version="1.0" encoding="UTF-8"?>
<svg id="AC_icons" data-name="AC icons" xmlns="http://www.w3.org/2000/svg" viewBox="0 0 64 64">
  <defs>
    <style>
      .cls-1 {
        fill: #061a2f;
        stroke-width: 0px;
      }
    </style>
  </defs>
  <g id="Informational_icons" data-name="Informational icons">
    <g id="B">
      <g id="bike-2">
        <g id="Biking_cycling" data-name="Biking cycling">
          <circle class="cls-1" cx="41.39" cy="10.06" r="4.49"/>
          <path class="cls-1" d="m12.97,32.5c-7.16,0-12.97,5.8-12.97,12.97s5.8,12.97,12.97,12.97,12.97-5.8,12.97-12.97-5.8-12.97-12.97-12.97Zm0,22.94c-5.51,0-9.97-4.47-9.97-9.97s4.47-9.97,9.97-9.97,9.97,4.47,9.97,9.97-4.47,9.97-9.97,9.97Z"/>
          <path class="cls-1" d="m50.86,32.5h-.44c-.04-.3-.13-.59-.26-.87l-9.97-15.7c-.17-.27-.41-.48-.69-.63-.49-.39-1.08-.64-1.71-.72-1.07-.22-2.17.08-2.99.8,0,0-8.77,6.98-9.97,8.12-.71.83-1.07,1.9-1,2.99,0,1,1.99,9.97,1.99,9.97v11.99c-.11,1.52,1.02,2.85,2.53,2.99h0c1.66,0,2.55-1.47,2.55-2.99v-2.99c.25-.13,8.98-8.98,8.98-8.98,1.99-1.99.24-3.4.24-3.4l-6.72-6.57,6.07-4.75,7.26,11.46c-6.76,2.37-10.32,9.76-7.95,16.52,2.37,6.76,9.76,10.32,16.52,7.95,6.76-2.37,10.32-9.76,7.95-16.52-1.84-5.26-6.83-8.75-12.4-8.68Zm-15.96,1.99l-3.99,3.99v-2.99l-1-4.99,4.99,3.99Zm15.96,20.94c-5.51,0-9.97-4.47-9.97-9.97s4.47-9.97,9.97-9.97,9.97,4.47,9.97,9.97-4.47,9.97-9.97,9.97Z"/>
        </g>
      </g>
    </g>
  </g>
</svg>