<?xml version="1.0" encoding="UTF-8"?>
<svg id="AC_icons" data-name="AC icons" xmlns="http://www.w3.org/2000/svg" viewBox="0 0 64 64">
  <defs>
    <style>
      .cls-1 {
        fill: #061a2f;
        stroke-width: 0px;
      }
    </style>
  </defs>
  <g id="Informational_icons" data-name="Informational icons">
    <g id="D">
      <g id="danger-water">
        <g id="Danger_dangerous_water" data-name="Danger dangerous water">
          <path class="cls-1" d="m59.23,52.54c-5.1-.1-10.08,3.66-13.01,3.66-4.02,0-6.08-3.24-10.63-3.33-5.21-.12-9.65,3.33-11.72,3.33-3.25,0-5.86-2.82-10.52-2.91-4.88-.11-7.6,2.58-11.28,2.58-.7,0-1.4-.11-2.06-.33v3.9s.43.17,2.17.1c5.53-.22,8.02-2.59,10.73-2.59,3.47,0,6.73,2.7,10.53,2.81s8.24-3.25,11.61-3.25,6.94,3.33,10.95,3.33c3.69,0,9.44-3.66,13.13-3.66,2.39,0,4.88,1.5,4.88,1.5v-4.06s-.2-.99-4.77-1.09Z"/>
          <path class="cls-1" d="m27,42.17c0,2.76,2.24,4.99,4.99,4.99s4.99-2.24,4.99-4.99-2.24-4.99-4.99-4.99-4.99,2.24-4.99,4.99h0Z"/>
          <path class="cls-1" d="m29.95,35.17h4.66l3.22-21.26c.71-5.19-.72-9.76-5.85-9.76s-6.44,4.44-5.85,9.65l3.82,21.36Z"/>
        </g>
      </g>
    </g>
  </g>
</svg>