<?xml version="1.0" encoding="UTF-8"?>
<svg id="AC_icons" data-name="AC icons" xmlns="http://www.w3.org/2000/svg" viewBox="0 0 64 64">
  <defs>
    <style>
      .cls-1 {
        fill: #061a2f;
        stroke-width: 0px;
      }
    </style>
  </defs>
  <g id="Informational_icons" data-name="Informational icons">
    <g id="D">
      <g id="day-visitors">
        <g>
          <g>
            <path class="cls-1" d="m44.96,17.54c3.29.06,6-2.56,6.06-5.85s-2.56-6-5.85-6.06c-3.29-.06-6,2.56-6.06,5.85v.1c-.03,3.26,2.59,5.92,5.85,5.95h0"/>
            <path class="cls-1" d="m41.24,5.22s-.76.6-.79.6l-.54.45c-.29.27-.56.57-.8.89l-.94,1.46-1.76-4.72,4.82,1.31Z"/>
            <polyline class="cls-1" points="38.19 8.59 38.95 7.32 39.48 6.65 40.15 5.99 40.79 5.51 41.26 5.19 40.4 4.95 39.27 4.65 38.11 4.34 37.23 4.09 36.38 3.84"/>
            <polyline class="cls-1" points="42.74 4.54 44.19 4.24 45.04 4.18 45.98 4.23 46.77 4.38 47.32 4.5 46.92 3.72 46.37 2.68 45.81 1.61 45.41 .79 45.01 0"/>
            <polyline class="cls-1" points="48.45 5.06 49.68 5.89 50.29 6.49 50.89 7.19 51.36 7.87 51.72 8.56 52.07 7.48 52.42 6.35 52.76 5.23 53.06 4.34 53.33 3.38"/>
            <polyline class="cls-1" points="52 9.3 52.32 10.75 52.4 11.6 52.36 12.54 52.22 13.33 52.1 13.88 52.88 13.47 53.91 12.91 54.97 12.33 55.79 11.91 56.57 11.51"/>
            <polyline class="cls-1" points="51.82 14.5 51.09 15.9 50.55 16.57 49.87 17.22 49.22 17.7 48.75 18.02 49.62 18.25 50.77 18.54 51.96 18.84 52.89 19.05 53.82 19.24"/>
            <polyline class="cls-1" points="47.25 18.73 45.8 19.02 44.95 19.08 44.01 19.03 43.22 18.88 42.67 18.75 43.07 19.54 43.61 20.57 44.17 21.64 44.57 22.47 44.96 23.26"/>
            <polyline class="cls-1" points="41.67 18.29 40.46 17.44 39.82 16.87 39.22 16.15 38.79 15.47 38.5 14.98 38.21 15.82 37.82 16.92 37.43 18.06 37.11 18.92 36.8 19.75"/>
            <polyline class="cls-1" points="37.85 13.97 37.57 12.51 37.52 11.66 37.59 10.72 37.74 9.94 37.87 9.39 37.08 9.78 36.04 10.31 34.97 10.86 34.14 11.25 33.34 11.63"/>
          </g>
          <path class="cls-1" d="m31.32,62.39v-16.77h-2.17l.02,18.38h-15.56l.33-18.38h-2.17v16.77c0,2.1-4.34,2.1-4.34,0v-17.84c-.02-4.02,3.23-7.3,7.25-7.31h13.56c4.08,0,7.38,3.3,7.39,7.37v17.78c.01,2.1-4.33,2.1-4.33,0"/>
          <path class="cls-1" d="m21.67,34.77c3.85.07,7.02-2.99,7.09-6.84.07-3.85-2.99-7.02-6.84-7.09-3.85-.07-7.02,2.99-7.09,6.84v.13c-.03,3.81,3.03,6.92,6.84,6.96"/>
        </g>
      </g>
    </g>
  </g>
</svg>