<?xml version="1.0" encoding="UTF-8"?>
<svg id="AC_icons" data-name="AC icons" xmlns="http://www.w3.org/2000/svg" viewBox="0 0 64 64">
  <defs>
    <style>
      .cls-1 {
        fill: #061a2f;
        stroke-width: 0px;
      }
    </style>
  </defs>
  <g id="Informational_icons" data-name="Informational icons">
    <g id="D">
      <g id="directions">
        <path class="cls-1" d="m61.59,29.75L34.15.93c-1.11-1.18-2.97-1.24-4.15-.14,0,0,0,0,0,0-.05.04-.09.09-.14.14L2.42,29.75c-1.19,1.27-1.19,3.24,0,4.51l27.43,28.8c1.11,1.18,2.97,1.24,4.15.14h0s.09-.09.14-.14l27.44-28.81c1.19-1.27,1.19-3.25,0-4.52h.01Zm-23.5,10.27v-8.01h-12.19v6.4c0,1.7-1.38,3.07-3.07,3.07-1.49,0-2.76-1.06-3.03-2.53-.02-.18-.02-.36,0-.55v-9.61c-.04-1.73,1.33-3.16,3.06-3.2h15.24v-8l9.6,10.08c.61.64.61,1.64,0,2.27l-9.61,10.05Z"/>
      </g>
    </g>
  </g>
</svg>