<?xml version="1.0" encoding="UTF-8"?>
<svg id="AC_icons" data-name="AC icons" xmlns="http://www.w3.org/2000/svg" viewBox="0 0 64 64">
  <defs>
    <style>
      .cls-1 {
        fill-rule: evenodd;
      }

      .cls-1, .cls-2 {
        fill: #071630;
        stroke-width: 0px;
      }
    </style>
  </defs>
  <g id="Informational_icons" data-name="Informational icons">
    <g id="D">
      <g id="disc-golf">
        <g id="Frisbee">
          <path class="cls-1" d="m53.68,23.06c2.64-.13,5.87-.06,8.34.44.71.14,1.95.47,1.98.94.05.83-2.93,1.19-3.73,1.28-3.15.37-6.34.37-9.49,0-.71-.08-1.43-.19-2.13-.35-.5-.12-1.6-.46-1.64-.84-.07-.74,2.28-1.1,2.86-1.19,1.27-.18,2.54-.28,3.82-.3"/>
          <path class="cls-2" d="m40,17c0,2.76-2.24,5-5,5-2.76,0-5-2.24-5-5s2.24-5,5-5h0c2.76,0,5,2.24,5,5"/>
          <path class="cls-2" d="m43.75,28.26c-.53-.25-1.13-.26-1.67-.03-.18.03-.36.08-.52.17l-4.61,2.68-3.57-5.73h0c-.06-.13-.13-.24-.21-.36l-3.77-5.07-.05-.07-.16-.21h0c-.21-.27-.49-.47-.81-.59-.33-.16-.68-.26-1.05-.3l-17.46-2.71h-.05c-1.34-.04-2.46,1.02-2.5,2.36-.03,1.15.75,2.17,1.87,2.43h0l11.14,1.73-7.97,6.2q-1.36,1.25-1.36,2.25v9l-9.44,6.8c-.39.25-.72.58-.98.97,0,.02-.03.04-.05.06-.84,1.02-.65,2.59.4,3.52.77.7,1.89.85,2.81.38.24-.09.46-.21.67-.35l11.07-7.23s.03-.02.05-.03c.85-.36,1.39-1.2,1.37-2.13v-3.92l11.51,3.68,5.38,7.92c.05.07.1.14.16.2.03.07.07.13.11.19.71,1.02,2.25,1.14,3.44.27s1.58-2.4.88-3.41c-.01-.03-.03-.05-.05-.08-.05-.1-.1-.19-.16-.28l-5.94-8.75c-.31-.42-.73-.74-1.22-.94l-7.25-2.3,6.69-5.19,3.86,6.19c.06.1.13.19.21.28v.02c.42.82,1.42,1.14,2.23.72,0,0,.01,0,.02,0l6.72-3.9c.56-.25,1.01-.71,1.26-1.28.57-1.23.11-2.62-1-3.16Z"/>
        </g>
      </g>
    </g>
  </g>
</svg>