<?xml version="1.0" encoding="UTF-8"?>
<svg id="AC_icons" data-name="AC icons" xmlns="http://www.w3.org/2000/svg" viewBox="0 0 64 64">
  <defs>
    <style>
      .cls-1 {
        fill: #061a2f;
        stroke-width: 0px;
      }
    </style>
  </defs>
  <g id="Informational_icons" data-name="Informational icons">
    <g id="D">
      <g id="diving">
        <g id="Standard_icons" data-name="Standard icons">
          <g id="Diving">
            <path class="cls-1" d="m6.56,57.16s4.92-5.86,8.79-10.54c.56-.66,2.25-2.79.17-4.77-4.3-4.15-11.19-9.87-13.25-11.5-4.21-3.32-2.73-11.61,5.79-11.62h16.83S15.09,10.19,9.45,5.24c-.53-.59-.81-1.36-.8-2.15C8.66,1.39,10.03,0,11.73,0c.79,0,1.55.3,2.12.85,1.98,1.79,20,17.57,20.57,18.03,5.38,4.26,3.03,11.42-1.21,11.44-5.92.05-21.43.05-21.43.05,0,0,5.87,4.91,9.32,8.21,2.6,2.51,3.33,6.24.96,9.17-5.22,6.41-10.69,12.97-10.69,12.97-1.17,1.19-3.09,1.2-4.28.03-.59-.58-.92-1.39-.9-2.22-.03-.48.09-.96.36-1.37h.02Zm7.14,5.93c2.65-1.2,5.19-2.95,8.59-2.95,2.95,0,9.63,3.86,13.71,3.86,5.16,0,7.64-3.4,12.8-3.4,3.3,0,7.99,3.09,12.32,3.09,1.13,0,2.58-.09,2.87-.27v-4.5c-.61.22-1.48.28-2.77.28-4.41-.03-8.3-3.04-12.26-3.04-5.05,0-9.01,3.34-13.27,3.34-3.25,0-9.68-3.84-13.12-3.72-.3,0-.47-.04-1.43,0-.61.04-1.21.14-1.79.32l-5.64,7Zm25.3-44.11c0,3.32,2.68,6.01,6,6.01,3.32,0,6.01-2.68,6.01-6,0-3.31-2.68-6-5.99-6.01-3.31,0-6,2.68-6,5.99,0,0,0,0,0,.01h-.01Z"/>
          </g>
        </g>
      </g>
    </g>
  </g>
</svg>