<?xml version="1.0" encoding="UTF-8"?>
<svg id="AC_icons" data-name="AC icons" xmlns="http://www.w3.org/2000/svg" viewBox="0 0 64 64">
  <defs>
    <style>
      .cls-1 {
        fill: #061a2f;
        stroke-width: 0px;
      }
    </style>
  </defs>
  <g id="Informational_icons" data-name="Informational icons">
    <g id="D">
      <g id="dog-walking-on-leash">
        <g id="Dog_walking_with_restrictions" data-name="Dog walking with restrictions">
          <g id="Walking_pedestrian_access_access" data-name="Walking pedestrian access access">
            <path class="cls-1" d="m18.82,4.54c2.52,0,4.57,2.04,4.57,4.57s-2.04,4.57-4.57,4.57-4.57-2.04-4.57-4.57,2.04-4.57,4.57-4.57"/>
            <path class="cls-1" d="m32.36,32.11c-.5,1-1.72,1.41-2.72.91,0,0-.02,0-.03-.01l-5.5-2.8c-1.31-.68-2.35-1.78-2.93-3.14l-.92-1.85-2.03,9.04,12.68,20.1c.96,1.51.5,3.52-1.01,4.47-1.51.96-3.52.5-4.47-1.01h0l-11.39-18.05c-.33,1.51-.7,2.96-.95,4.44-.31,1.77-.96,3.47-1.93,4.99l-5.07,8.58c-.86,1.57-2.83,2.14-4.4,1.28-1.57-.86-2.14-2.83-1.28-4.4.04-.06.07-.13.11-.19l4.77-8.03c.77-1.29,1.32-2.69,1.65-4.15l4.18-18.6-2.65,2.17c-.35.29-.6.68-.71,1.12l-1.54,6.84c-.24,1.1-1.32,1.81-2.43,1.57-1.1-.24-1.81-1.32-1.57-2.43l1.71-7.58c.26-1.16.9-2.19,1.83-2.93l7.95-6.41c1.9-1.71,4.84-1.56,6.55.35.33.37.6.78.8,1.24l4.37,8.66,6.03,3.04c1,.5,1.41,1.72.91,2.72,0,0,0,.02-.01.03"/>
          </g>
          <g>
            <path class="cls-1" d="m56.89,47.17l-4.06-5.07s2.76-2.54,3.83-3.27c.4-.29.82-.55,1.25-.79,0,0-.17,1.1-.17,1.52-.01.23.09.46.27.61,0,0,4.29,1.61,4.59,1.74l1.41.59c-.24.48-1.1,1.92-1.53,2.68-.21.35-.61.54-1.01.48h-2.77c-.19.07-.36.18-.51.31l-1.29,1.21Z"/>
            <rect class="cls-1" x="41.44" y="28.2" width="1.45" height="18.66" transform="translate(-8.6 62.21) rotate(-67.6)"/>
            <path class="cls-1" d="m51.81,43.11h-16.24c-1.4-.12-2.77-.46-4.06-1.01.09,1.32,1.03,2.42,2.32,2.71.9.24,1.82.35,2.75.33v6.09c-.07.89-.51,1.72-1.21,2.27-1.01.6-.82.64-.82.77v3.55c0,.84.68,1.52,1.52,1.52s1.52-.68,1.52-1.52v-2.54s.5-1.01,1.01-1.01c1.1,0,2.17-.36,3.04-1.01.54-.55.9-1.26,1.01-2.03h10.15v6.6c0,.84.68,1.52,1.52,1.52s1.52-.68,1.52-1.52v-9.64l-4.06-5.07Z"/>
          </g>
        </g>
      </g>
    </g>
  </g>
</svg>