<?xml version="1.0" encoding="UTF-8"?>
<svg id="AC_icons" data-name="AC icons" xmlns="http://www.w3.org/2000/svg" viewBox="0 0 64 64">
  <defs>
    <style>
      .cls-1 {
        fill: #061a2f;
        stroke-width: 0px;
      }
    </style>
  </defs>
  <g id="Informational_icons" data-name="Informational icons">
    <g id="D">
      <g id="dog">
        <g id="AC">
          <g id="Dog_Park" data-name="Dog Park">
            <g id="Dog">
              <path class="cls-1" d="m49.6,28.01l-8.6-8.48s5.68-5.69,7.88-7c.8-.58,1.66-1.08,2.56-1.5,0,0-.29,2-.29,2.79,0,1.1.69,1.2.69,1.2,0,0,8.67,2.91,9.27,3.21,1.09.4,2.89,1.09,2.89,1.09-.5.9-2.09,3.39-3,4.9-.61.46-1.34.74-2.1.79h-5.06c-.74-.07-1.47.19-2,.7-.31.4-2.3,2.3-2.3,2.3"/>
              <path class="cls-1" d="m46.91,29.3l-8-7.28H7c-2.37-.03-4.72-.36-7-1,.72,1.83,2.22,3.24,4.09,3.85,1.79.7,5.88,2.1,5.88,2.1v9c.15,2.2-.92,4.31-2.79,5.49-2.06,1.18-2.18,1.27-2.18,1.48v7s-.11,3,2.49,3,3.49-1,3.49-3v-5c-.05-.5.3-.94.8-1h.22c2-.18,3.91-.94,5.48-2.19,1.24-1.19,2.42-2.45,3.52-3.77h20v12c0,1,.19,3,3.19,3s2.73-2.64,2.73-3.29v-20.39Z"/>
            </g>
          </g>
        </g>
      </g>
    </g>
  </g>
</svg>