<?xml version="1.0" encoding="UTF-8"?>
<svg id="AC_icons" data-name="AC icons" xmlns="http://www.w3.org/2000/svg" viewBox="0 0 64 64">
  <defs>
    <style>
      .cls-1 {
        fill: #061a2f;
        stroke-width: 0px;
      }
    </style>
  </defs>
  <g id="Informational_icons" data-name="Informational icons">
    <g id="D">
      <g id="drinking-fountain">
        <g>
          <path class="cls-1" d="m39.01,19.8c4.2,0,7.61-3.4,7.61-7.6,0-4.2-3.4-7.61-7.6-7.61-4.2,0-7.61,3.4-7.61,7.6,0,0,0,0,0,0h0c.01,4.2,3.41,7.6,7.6,7.61Z"/>
          <path class="cls-1" d="m31.94,34.49v-14.48c-.05-4.45-6.07-8.53-10.37-6.31L3.38,23.51C1.2,24.79-.1,27.16,0,29.69v17.64c2.71,4.89,6.58,9.04,11.27,12.08v-22.97l13.59-7.32v6.93c-.1.88.22,1.75.85,2.36l7.77,8.57c1.31,1.51,3.59,1.67,5.1.37,1.51-1.31,1.67-3.59.37-5.1-.04-.05-.09-.1-.14-.15l-6.87-7.61Z"/>
          <path class="cls-1" d="m36.17,34.94l14.44,16.11h6.74c4.34-5.86,6.68-12.96,6.66-20.25,0-.53,0-1.03-.03-1.54h-25.48c-3.08-.01-4.24,3.47-2.32,5.68Z"/>
          <path class="cls-1" d="m43.69,28.27c.51.05.97-.32,1.03-.84.05-.51-.32-.97-.84-1.03-.02,0-.03,0-.05,0-.05,0-.09,0-.14,0-.52-.03-.96.37-.98.89-.02.5.34.93.84.98.05,0,.09,0,.14,0Z"/>
          <path class="cls-1" d="m46.17,28.43c.52,0,.93-.42.93-.94,0-.52-.42-.93-.94-.93-.52,0-.93.42-.93.93,0,.51.42.93.94.93Z"/>
          <path class="cls-1" d="m46.33,25.66c.5,0,.92-.39.94-.89,0-.52-.41-.93-.93-.94h0c-.51,0-.93.4-.93.91,0,0,0,0,0,0v.03c0,.5.42.9.92.9,0,0,0,0,0,0h.01Z"/>
          <path class="cls-1" d="m43.85,25.5c.54.02.98-.4,1-.94.02-.54-.4-.98-.94-1-.51-.02-.94.36-1,.86,0,.05,0,.09,0,.14,0,.51.42.93.93.93h0Z"/>
          <path class="cls-1" d="m44.66,22.98c.53-.02.96-.45.98-.98,0-.54-.43-.97-.97-.98h-.01c-.52-.02-.96.4-.98.92v.06c0,.54.44.97.98.98Z"/>
          <path class="cls-1" d="m47.68,23.47c.53-.01.96-.44.97-.98,0-.54-.44-.97-.97-.97s-.97.44-.97.97h0c.02.53.44.96.97.98Z"/>
          <path class="cls-1" d="m46.62,20.94c.55-.02,1-.46,1.01-1.01,0-.57-.45-1.04-1.01-1.07-.57,0-1.02.46-1.02,1.03v.04c0,.56.44,1.01,1,1.01,0,0,0,0,0,0h.02Z"/>
          <path class="cls-1" d="m50.12,22.57c.57.01,1.05-.44,1.06-1.01.01-.57-.44-1.05-1.01-1.06s-1.05.44-1.06,1.01c0,0,0,.02,0,.02v.03c0,.56.45,1.02,1.01,1.02h0,0Z"/>
          <path class="cls-1" d="m48.98,20.05c.57.02,1.05-.43,1.07-1,.02-.57-.43-1.05-1-1.07-.02,0-.04,0-.06,0h0c-.57.03-1.02.5-1.02,1.07.01.56.46,1,1.02,1.02h0Z"/>
          <path class="cls-1" d="m51.74,20.05c.63.03,1.16-.45,1.19-1.08s-.45-1.16-1.08-1.19h0s-.07,0-.11,0c-.63-.03-1.16.45-1.19,1.08s.45,1.16,1.08,1.19c.04,0,.07,0,.11,0Z"/>
          <path class="cls-1" d="m52.64,23.55c.63-.03,1.11-.56,1.08-1.19-.03-.63-.56-1.11-1.19-1.08-.63.03-1.11.56-1.08,1.19.03.59.5,1.06,1.08,1.08h.11Z"/>
          <path class="cls-1" d="m54.34,21.4c.65,0,1.18-.53,1.18-1.18.01-.66-.51-1.21-1.17-1.22h0c-.66.02-1.18.56-1.18,1.22.01.65.53,1.17,1.18,1.18Z"/>
          <path class="cls-1" d="m56.62,23.67c.69-.01,1.23-.58,1.22-1.26-.01-.69-.58-1.23-1.26-1.22-.69.01-1.23.58-1.22,1.26h0c.02.68.58,1.22,1.26,1.22Z"/>
          <path class="cls-1" d="m54.47,25.87c.69.02,1.26-.52,1.28-1.2.02-.67-.49-1.23-1.16-1.28-.04,0-.08,0-.11,0-.69.03-1.21.62-1.18,1.3.03.64.54,1.15,1.18,1.18Z"/>
        </g>
      </g>
    </g>
  </g>
</svg>