<?xml version="1.0" encoding="UTF-8"?>
<svg id="AC_icons" data-name="AC icons" xmlns="http://www.w3.org/2000/svg" viewBox="0 0 64 64">
  <defs>
    <style>
      .cls-1 {
        fill: #061a2f;
        stroke-width: 0px;
      }
    </style>
  </defs>
  <g id="Informational_icons" data-name="Informational icons">
    <g id="D">
      <g id="drones">
        <g id="Standard_icons" data-name="Standard icons">
          <g id="Drones">
            <g id="g10">
              <g id="g104">
                <g id="g106">
                  <g id="g120">
                    <path id="path122" class="cls-1" d="m31.82,17.67c-9.79.06-27.42,3.68-27.72,4.05s-.3,2.91-.08,3.26c.09.16,3.13-.13,6.28-.17,4.02-.05,8.92.28,11.07.68,4.79.91,4.75,8.44,5.79,8.83,3.04.77,6.57.74,10.54,0,.46-3.61,1.3-6.81,3.74-8.32,3.13-1.75,11.18-.86,18.53-.82.13-1.39.37-3.58-.36-3.66-.41-.07-19.3-3.95-27.79-3.84"/>
                  </g>
                  <g id="g124">
                    <path id="path126" class="cls-1" d="m22.76,27.15c-3.84,2.17-6.57,5.47-6.67,10.6v11.87h-2.14v-11.64c.15-3.56.62-6.94,2.18-9.7l1.62-2.53c1.74.16,3.44.64,5.02,1.39"/>
                  </g>
                  <g id="g128">
                    <path id="path130" class="cls-1" d="m9.59,15.9v3.86l-4.04.83.11-4.69H0v-1.52h15.09v1.52h-5.5Z"/>
                  </g>
                  <g id="g132">
                    <path id="path134" class="cls-1" d="m54.41,15.9v3.86l4.04.83-.12-4.69h5.67v-1.52h-15.09v1.52h5.5Z"/>
                  </g>
                  <g id="g136">
                    <path id="path138" class="cls-1" d="m41.29,27.15c3.82,2.17,6.57,5.47,6.67,10.6v11.87h2.14v-11.64c-.15-3.56-.62-6.94-2.18-9.7l-1.62-2.53c-1.74.16-3.44.64-5.02,1.39"/>
                  </g>
                </g>
              </g>
            </g>
          </g>
        </g>
      </g>
    </g>
  </g>
</svg>