<?xml version="1.0" encoding="UTF-8"?>
<svg id="AC_icons" data-name="AC icons" xmlns="http://www.w3.org/2000/svg" viewBox="0 0 64 64">
  <defs>
    <style>
      .cls-1 {
        fill: #061a2f;
        stroke-width: 0px;
      }
    </style>
  </defs>
  <g id="Informational_icons" data-name="Informational icons">
    <g id="D">
      <g id="duck">
        <path class="cls-1" d="m54.68,6.94c-1.89-5.19-8.03-9.06-13.09-5.67-2.05,1.38-3.96,4.53-4.2,7.59-.27,3.36,3.7,12.16,4.99,14.55,1.81,3.32,1.21,4.99-2.27,4.23-4.9-1.07-9.93-1.4-16.12,2.34-3.62,2.2-4.77,5.36-11.23,7.82-4.86,1.84-12.22-1.46-12.22-1.46,0,0,2.43,5.44,8.76,10.42,3.78,2.98,6.9,4.98,9.84,6.27-.43,2.72-.72,5.08-.72,5.69.02,1.73.28,2.59,1.01,2.64,1.07.08,2.15.02,3.74.46,1.59.44,3.58,1.71,3.74,2.18-.7-1.76-.07-3.17.99-3.67-1.05-1.33-1.01-2.47-.72-2.79-.91,0-4.88,1.48-6.81,1.43-.76-.02-.3-2.34.34-5.31,2.59.94,5.1,1.35,7.88,1.43.55.02,1.12.03,1.7.05-.15,1.2-.37,3.04-.37,3.57.02,1.73.27,2.59,1.01,2.64,1.07.08,2.15.02,3.74.46,1.59.44,3.58,1.71,3.74,2.18-.7-1.76-.07-3.17.99-3.67-1.05-1.33-1.01-2.47-.73-2.79-.91,0-4.88,1.48-6.81,1.43-.76-.02-.29-2.36.07-3.78,5.95.14,13.11-.02,19.2-3.45,8.13-4.58,9.83-9.91,7.17-17.26-1.47-4.08-7.99-8.68-9.44-11.37-.85-1.59-1.72-3.39-2.01-5.06-.38-2.28-.28-5,1.3-5.24,3.02-.45,2.92-1.42,4.96-1.67,2.27-.27,10.27,3.02,10.36.78-.1-1.77-8.21-3.37-8.78-4.98Z"/>
      </g>
    </g>
  </g>
</svg>