<?xml version="1.0" encoding="UTF-8"?>
<svg id="AC_icons" data-name="AC icons" xmlns="http://www.w3.org/2000/svg" viewBox="0 0 64 64">
  <defs>
    <style>
      .cls-1, .cls-2 {
        fill: #061a2f;
        stroke-width: 0px;
      }

      .cls-2 {
        fill-rule: evenodd;
      }
    </style>
  </defs>
  <g id="Informational_icons" data-name="Informational icons">
    <g id="D">
      <g id="duck-feeding">
        <g id="Standard_icons" data-name="Standard icons">
          <g id="Do_not_feed_ducks_TEST_" data-name="Do not feed ducks TEST ">
            <g id="Do_not_feed_the_ducks" data-name="Do not feed the ducks">
              <path class="cls-2" d="m49.7.89c-2.39.19-7.8,2.84-8.39,3.73-.36.54-1.62,2.9-2.39,4.41-.24.45-.54.87-.79,1.31-.12.22-.24.46-.37.68s-.54,1.19-.63,1.45c-.11.25-.21.5-.28.76-.02.09-.02.19,0,.28.02.07.16.48.37.54.87.26,1.67-.32,1.82-.39.65-.33,1.74-2.41,1.91-2.81.18-.44.44-.84.75-1.19.16-.17.7-.91.83-1.1.4-.59.77-1.17,1.19-1.72.36,0,.7-.03,1.05-.05-.3.58-.67,1.19-.96,1.75-.11.21-.19.42-.3.63-.17.32-.39.62-.57.96-.2.31-.39.64-.55.98-.06.16-.11.35-.17.54-.08.17-.15.34-.2.52-.04.31.07.57.24.63.46.06.92-.03,1.32-.26.38-.37,1.18-1.64,1.32-1.86s.22-.48.35-.69c.14-.2.29-.4.45-.59.15-.2.31-.38.45-.59.29-.42.56-.84.86-1.23.86-.08,1.88,0,2.55-.27.31.41.57.86.85,1.28-.91.67-1.56,1.6-2.2,2.78-.42.78-.96,1.57-1.3,2.45-.16.33-.23.69-.22,1.05.05.36.32.48.65.54.14,0,.28,0,.42,0,.54-.17,1.05-.41,1.52-.72.43-.32.7-.77,1.02-1.24.32-.43.67-.83,1.07-1.19.32-.32.78-.87,1.23-1.03.25-.07.51-.12.77-.15,1.95-.33,3.87-.36,5.34-1.19.78-.44,1.52-.96,2.3-1.42.9-.54,1.94-.8,2.98-.75V.89h-14.3"/>
              <circle class="cls-1" cx="43.44" cy="17.51" r="1.07"/>
              <circle class="cls-1" cx="40.14" cy="18.21" r="1.07"/>
              <circle class="cls-1" cx="41.69" cy="20.84" r="1.07"/>
              <circle class="cls-1" cx="44.66" cy="20.22" r="1.07"/>
              <circle class="cls-1" cx="43.49" cy="22.95" r=".7"/>
              <circle class="cls-1" cx="46.55" cy="17.96" r=".7"/>
              <path class="cls-1" d="m33.17,28.16c-1.16-3.18-4.92-5.55-8.02-3.47-1.26.85-2.43,2.77-2.57,4.65-.16,2.05,2.27,7.45,3.07,8.92,1.11,2.04.75,3.05-1.39,2.59-3.01-.65-6.08-.86-9.88,1.43-2.23,1.35-2.92,3.29-6.88,4.78-2.98,1.13-7.49-.9-7.49-.9,0,0,1.49,3.33,5.37,6.38,2.32,1.83,4.23,3.05,6.03,3.84-.27,1.67-.44,3.11-.44,3.49.01,1.06.17,1.59.62,1.62.65.05,1.32.01,2.29.28s2.2,1.05,2.29,1.33c-.43-1.08-.05-1.94.61-2.25-.64-.82-.62-1.52-.44-1.71-.56,0-2.99.91-4.17.88-.48,0-.18-1.43.21-3.26,1.55.56,3.18.85,4.83.88l1.04.03c-.09.74-.24,1.86-.22,2.19,0,1.06.17,1.59.62,1.62.65.05,1.32.01,2.29.28s2.2,1.05,2.29,1.33c-.43-1.08-.04-1.94.61-2.25-.64-.82-.62-1.52-.44-1.71-.56,0-2.99.91-4.17.88-.48,0-.18-1.43.04-2.32,3.65.09,8.04-.02,11.76-2.11,4.98-2.8,6.02-6.07,4.4-10.58-.9-2.5-4.9-5.32-5.79-6.97-.52-.97-1.06-2.08-1.23-3.11-.24-1.39-.17-3.07.8-3.21,1.86-.28,1.79-.87,3.04-1.02,1.39-.17,6.29,1.86,6.35.48-.06-1.06-5.03-2.05-5.39-3.04Zm-4.73.21c-.45,0-.81-.36-.81-.81s.36-.81.81-.81c.45,0,.81.36.81.81,0,0,0,0,0,0,0,.45-.36.81-.81.81,0,0,0,0,0,0Z"/>
            </g>
          </g>
        </g>
      </g>
    </g>
  </g>
</svg>