<?xml version="1.0" encoding="UTF-8"?>
<svg id="AC_icons" data-name="AC icons" xmlns="http://www.w3.org/2000/svg" viewBox="0 0 64 64">
  <defs>
    <style>
      .cls-1 {
        fill: #061a2f;
        stroke-width: 0px;
      }
    </style>
  </defs>
  <g id="Informational_icons" data-name="Informational icons">
    <g id="D">
      <g id="dumping">
        <g id="No_dumping" data-name="No dumping">
          <path class="cls-1" d="m48.23,2.85c-.91-.85-1.93-1.58-3.02-2.19-3.23-1.89-6.03.75-7.34,2.04-.68.67-1.45,1.5-1.93,2.02-.77-1.26-2.16-2.02-3.63-1.98-1.42.02-2.74.77-3.49,1.97-.76-.69-1.5-1.37-1.89-1.74-1.34-1.26-4.78-4.75-8.67-1.63-1.69,1.36-2.09,1.72-2.62,2.39-1.26,1.56-.37,2.89,1.43,4.41.56.5,1.26.83,2,.94h9.67c.74.95,2.07,1.39,3.58,1.39s2.84-.43,3.6-1.36l9.82-.03s1.92.15,2.86-1.4h0c.06-.09.11-.2.16-.3,1.29-2.44.46-3.66-.52-4.52Zm-29.17,4.37c-.92-.05-2.02-.26-2.45-.68,0-.63.85-1.46,1.37-1.91,1.67-1.43,2.24-1.92,3.9-1.93,1.45,0,3.08,1.53,4.49,2.79.78.7,1.3,1.22,1.73,1.63h0v.04l-9.05.06Zm14.35,1.76s1.44-1.07.65-2.1c-.3-.39-.84-1.38.4-2.14.68.51,1.08,1.31,1.07,2.16.03,1.12-.85,2.04-1.96,2.07-.05,0-.1,0-.16,0Zm12.49-2.06l-9.05.07c.36-.33,1-.98,1.5-1.39,1.44-1.24,3.32-2.82,4.77-2.82,1.3,0,2.42.24,4.15,1.69.88.74,1.16,1.16,1.3,1.59-.79.53-1.72.82-2.67.85h-.01Zm9.58,24.72c0-4.06-2.13-8.01-5.17-10.66h0l-12.78-10.88c-.13-.11-.31-.18-.48-.18h-.54c-.16,0-.32.05-.45.15-.79.65-2.16,1.13-3.77,1.13-1.32.04-2.61-.35-3.69-1.12-.13-.1-.29-.16-.46-.16h-.62c-.17,0-.33.05-.46.16l-12.96,10.14h0c-3.39,2.38-5.59,6.32-5.59,11.24v23.23c0,4.99,3.94,9.31,9.93,9.31h26.75c5.99,0,10.3-3.51,10.31-10.85.01-5.63,0-16.29,0-21.5h-.01ZM14.78,22.27l11.14-9.11s.54,1.98-1.81,3.96c-.93.79-3.82,3.16-4.41,3.76-2.18,2.21-2.39,4.06-2.58,4.97-.25,1.23-1.84,4.3-6.67,4.3,0,.01.04-4.16,4.33-7.88Zm5.53,39.66s-9.85,1-9.85-10.41v-8.16l-.05-7.05c1.57,2.11,2.41,4.67,2.38,7.3,0,2.37-.09,4.5-.09,6.76s-.15,8.73,8.4,8.84c7.53.1,10.94,2.71,10.94,2.71h-11.73Zm23.04.02s6.52-2.73,6.52-7.59c0-4.51.25-7.19-2.18-9-2.83-2.12-3.52-5.5-1.07-8.48s3.34-7.39.65-11.53c-2.69-4.14-9.07-6.67-9.71-12.56l11.09,9.4c2.99,2.62,4.71,6.41,4.7,10.39v20.12c0,1,.56,9.25-10.01,9.25h0Z"/>
        </g>
      </g>
    </g>
  </g>
</svg>