<?xml version="1.0" encoding="UTF-8"?>
<svg id="AC_icons" data-name="AC icons" xmlns="http://www.w3.org/2000/svg" viewBox="0 0 64 64">
  <defs>
    <style>
      .cls-1 {
        fill: #061a2f;
        stroke-width: 0px;
      }
    </style>
  </defs>
  <g id="Informational_icons" data-name="Informational icons">
    <g id="E">
      <g id="eco-bulb">
        <g id="Layer_2" data-name="Layer 2">
          <path class="cls-1" d="m38.29,48.04h-12.56c-1.56,0-2.84-1.27-2.84-2.83v-.33c0-5.33-4.97-9.51-5.02-9.56l-.62-.55c-3.96-3.75-5.88-8.48-5.88-14.46C11.56,9.03,20.78,0,32,0c.11,0,.23,0,.34,0,11.19.18,20.11,9.1,20.29,20.29,0,6-1.91,10.72-5.85,14.45l-.61.55c-.08.07-5.06,4.25-5.06,9.58v.33c0,.75-.29,1.46-.82,2-.53.54-1.24.83-2,.83ZM32,2.1c-10.08,0-18.36,8.11-18.52,18.22,0,5.36,1.7,9.58,5.19,12.89l.57.5c.21.17,5.76,4.82,5.76,11.15v.33c0,.4.33.73.73.73h12.55c.2,0,.38-.08.51-.21s.21-.32.21-.51v-.33c0-6.34,5.56-10.98,5.79-11.18l.56-.5c3.47-3.29,5.17-7.52,5.17-12.89-.16-10.04-8.17-18.04-18.22-18.21-.1,0-.21,0-.31,0Z"/>
          <polygon class="cls-1" points="37.85 50.88 25.73 53.18 25.73 49.05 37.85 49.05 37.85 50.88"/>
          <polygon class="cls-1" points="37.85 51.97 25.73 54.26 25.73 57.28 37.85 54.98 37.85 51.97"/>
          <path class="cls-1" d="m37.85,56.1l-12.1,2.29v1.24c0,.1.09.18.19.17.01,0,.02,0,.03,0l11.64-.11c.15-.03.26-.16.26-.32l-.02-3.28Z"/>
          <path class="cls-1" d="m28.91,61.71c.35,1.58,1.92,2.57,3.5,2.22,1.29-.29,2.23-1.42,2.28-2.74,0-.18-.02-.35-.06-.53l-5.34,1.02-.39.04Z"/>
          <path class="cls-1" d="m28.66,44.75c.11-3.03.35-5.83.67-8.41-.3.14-.59.28-.9.42-.16-.31-.29-.6-.44-.89-.48,3.03-.76,5.79-.91,7.84,0,0-.04.44-.08,1.05h1.66Z"/>
          <path class="cls-1" d="m28.44,36.77c-10.71-20.33,10.41-29.36,10.41-29.36,0,0,10.69,20.33-10.41,29.36m-.43-.89c.14.29.27.58.43.89.32-.14.6-.28.9-.42,1.8-14.43,6.31-21.69,6.31-21.69-4.38,5.74-6.56,14.26-7.66,21.22h.02Z"/>
        </g>
      </g>
    </g>
  </g>
</svg>