<?xml version="1.0" encoding="UTF-8"?>
<svg id="AC_icons" data-name="AC icons" xmlns="http://www.w3.org/2000/svg" viewBox="0 0 64 64">
  <defs>
    <style>
      .cls-1 {
        fill: #061a2f;
        stroke-width: 0px;
      }
    </style>
  </defs>
  <g id="Informational_icons" data-name="Informational icons">
    <g id="E">
      <g id="education">
        <g id="Education_university" data-name="Education university">
          <path class="cls-1" d="m25.7,37.61l1.45,9c0,1.2-1.63,2.17-3.64,2.17s-3.64-1-3.64-2.17l1.73-11-8.6-4.11h0v16.85c0,5.05,8.51,9.15,19,9.15s19-4.1,19-9.15v-16.85l-19,9.14-6.3-3.03Z"/>
          <path class="cls-1" d="m0,22l22.06,10.68c.04-.06.09-.12.14-.18l8.4-11.48c.57-.75,1.63-.92,2.4-.38.75.52.94,1.54.42,2.29-.01.02-.02.03-.03.05l-8.23,11.21,6.84,3.31,32-15.5L32,6.5,0,22Z"/>
        </g>
      </g>
    </g>
  </g>
</svg>