<?xml version="1.0" encoding="UTF-8"?>
<svg id="AC_icons" data-name="AC icons" xmlns="http://www.w3.org/2000/svg" viewBox="0 0 64 64">
  <defs>
    <style>
      .cls-1 {
        fill: #061a2f;
        stroke-width: 0px;
      }
    </style>
  </defs>
  <g id="Informational_icons" data-name="Informational icons">
    <g id="E">
      <g id="eye-dark">
        <g>
          <path class="cls-1" d="m64.15,31.81s-13.43,19.95-32,19.95S.15,31.81.15,31.81c0,0,13.42-19.56,32-19.56s32,19.56,32,19.56ZM32.15,15.16c-9.2,0-16.65,7.45-16.65,16.64,0,9.2,7.45,16.65,16.64,16.65,9.2,0,16.65-7.45,16.65-16.64h0c0-9.2-7.45-16.65-16.64-16.65Z"/>
          <polygon class="cls-1" points="27.8 21.33 27.8 20.24 28.89 20.24 29.98 22.41 31.06 24.59 31.06 23.5 32.15 23.5 32.15 24.59 33.23 26.76 34.32 26.76 35.41 25.67 36.49 25.67 36.49 26.76 35.41 28.93 34.32 28.93 34.32 30.02 33.23 32.19 32.15 33.28 31.06 32.19 31.06 31.1 29.98 30.02 28.89 28.93 29.98 27.84 31.06 26.76 28.89 23.5 27.8 21.33"/>
          <polygon class="cls-1" points="35.95 31.1 35.95 33.28 37.04 32.19 37.04 33.28 37.04 34.36 35.95 36.53 37.04 37.62 35.95 38.71 34.86 38.71 33.78 39.79 33.78 41.96 31.61 44.14 29.43 43.05 27.26 43.05 27.26 40.88 30.52 37.62 33.78 34.36 33.78 32.19 35.95 31.1"/>
          <polygon class="cls-1" points="31.06 44.14 33.23 44.14 32.15 45.22 32.15 45.22 31.06 44.14"/>
        </g>
      </g>
    </g>
  </g>
</svg>