<?xml version="1.0" encoding="UTF-8"?>
<svg id="AC_icons" data-name="AC icons" xmlns="http://www.w3.org/2000/svg" viewBox="0 0 64 64">
  <defs>
    <style>
      .cls-1 {
        fill: #061a2f;
        stroke-width: 0px;
      }
    </style>
  </defs>
  <g id="Informational_icons" data-name="Informational icons">
    <g id="E">
      <g id="eye-light">
        <g>
          <path class="cls-1" d="m32,48.92c-9.44,0-17.11-7.68-17.11-17.11s7.68-17.11,17.11-17.11,17.11,7.68,17.11,17.11-7.68,17.11-17.11,17.11Zm0-32.8c-8.65,0-15.68,7.03-15.68,15.68s7.03,15.68,15.68,15.68,15.68-7.03,15.68-15.68-7.03-15.68-15.68-15.68Z"/>
          <polygon class="cls-1" points="34.62 21.49 34.62 20.42 35.69 20.42 36.76 22.56 37.83 24.7 37.83 23.63 38.9 23.63 38.9 24.7 39.97 26.84 41.04 26.84 42.11 25.77 43.18 25.77 43.18 26.84 42.11 28.98 41.04 28.98 41.04 30.05 39.97 32.19 38.9 33.26 37.83 32.19 37.83 31.12 36.76 30.05 35.69 28.98 36.76 27.91 37.83 26.84 35.69 23.63 34.62 21.49"/>
          <polygon class="cls-1" points="35.69 31.12 35.69 33.26 36.76 32.19 36.76 33.26 36.76 34.33 35.69 36.47 36.76 37.54 35.69 38.61 34.62 38.61 33.55 39.68 33.55 41.82 31.41 43.96 29.27 42.89 27.13 42.89 27.13 40.75 30.34 37.54 33.55 34.33 33.55 32.19 35.69 31.12"/>
          <polygon class="cls-1" points="28.2 43.96 30.34 43.96 29.27 45.03 29.27 45.03 28.2 43.96"/>
          <path class="cls-1" d="m64,31.75s0,0,0,0h0s0,0,0,0h0s0,0,0,0h0c0-.06-.03-.12-.07-.18t0,0s0,0,0,0c0,0,0,0,0,0,0,0,0-.01-.01-.02-.13-.19-13.58-19.48-31.92-19.48S.31,31.22.09,31.54c-.11.16-.11.38,0,.54.23.34,13.64,19.86,31.92,19.86s31.68-19.52,31.92-19.86c.05-.07.07-.15.08-.23h0s0,0,0,0h0s0,0,0,0c0-.03,0-.06,0-.1Zm-32,17.89c-16.62,0-29.17-15.54-30.93-17.82,1.76-2.29,14.31-17.82,30.93-17.82s29.17,15.54,30.93,17.82c-1.76,2.29-14.31,17.82-30.93,17.82Z"/>
        </g>
      </g>
    </g>
  </g>
</svg>