<?xml version="1.0" encoding="UTF-8"?>
<svg id="AC_icons" data-name="AC icons" xmlns="http://www.w3.org/2000/svg" viewBox="0 0 64 64">
  <defs>
    <style>
      .cls-1 {
        fill: #061a2f;
        stroke-width: 0px;
      }
    </style>
  </defs>
  <g id="Informational_icons" data-name="Informational icons">
    <g id="F">
      <g id="falling-rocks">
        <g id="Falling_rocks" data-name="Falling rocks">
          <path class="cls-1" d="m0,6.5v51.01h61.78c.77-.15,1.44-.63,1.81-1.32.36-.53.49-1.18.35-1.81-.43-2.06-1.62-1.06-2.95-4.87h-13c-3.33-.35-5.2-1.49-8.14-3.1-3.75-2.05-7.29-6.27-8.01-7.48-1.2-1.99-.11-3.99-.18-5.96-.06-1.81-.73-3.46-2.53-3.8-1.27-.24-1.76-1.69-1.38-2.9,1.2-3.98,2.77-6.81,8.61-6.39.35.03.06-4.43-.25-7.24-.26-2.42,0,0-1.08-6.15H0Z"/>
          <polygon class="cls-1" points="40.99 6.5 38.01 19.5 50.79 17.59 56.95 14.75 57.01 12.54 53.84 11 47.38 9.83 45.08 7.48 40.99 6.5"/>
          <polygon class="cls-1" points="39.01 36.57 39.01 41.72 40.55 42.5 42 41.28 42 36.57 40.58 35.5 39.01 36.57"/>
          <polygon class="cls-1" points="35 25.84 35 28.95 35.93 29.5 38.01 27.53 38.01 24.45 37.43 23.5 35 25.84"/>
          <polygon class="cls-1" points="45.01 27.79 45.01 32.03 45.62 32.5 47.01 30.61 47.01 27.42 46.34 26.5 45.01 27.79"/>
          <path class="cls-1" d="m51.01,26c0-1.38,1.12-2.5,2.5-2.5,1.38,0,2.5,1.12,2.5,2.5s-1.12,2.5-2.5,2.5-2.5-1.12-2.5-2.5h0"/>
          <path class="cls-1" d="m53.83,48.01c0,.47.36.85.83.86.47,0,.85-.36.86-.83h0v-14.9c0-.19.16-.35.35-.35s.35.16.35.35v5.44c0,.44.36.8.8.8.44,0,.8-.36.8-.8h0v-6.79c-.09-1.3-1.17-2.3-2.47-2.3h-3.8c-2.52,0-2.5,2.42-2.5,2.42v6.67h0c0,.44.36.8.8.8.44,0,.8-.36.8-.8h0v-5.46c0-.19.16-.35.35-.35s.35.16.35.35v14.93h0c.02.44.37.79.8.8.47,0,.86-.36.88-.83v-8.5c0-.22.17-.4.39-.41.22,0,.39.18.39.4,0,0,0,0,0,0v8.49Z"/>
        </g>
      </g>
    </g>
  </g>
</svg>