<?xml version="1.0" encoding="UTF-8"?>
<svg id="AC_icons" data-name="AC icons" xmlns="http://www.w3.org/2000/svg" viewBox="0 0 64 64">
  <defs>
    <style>
      .cls-1 {
        fill: #061a2f;
        stroke-width: 0px;
      }
    </style>
  </defs>
  <g id="Informational_icons" data-name="Informational icons">
    <g id="F">
      <g id="farmland">
        <g id="Farm_land_cattle_yard" data-name="Farm land cattle yard">
          <path class="cls-1" d="m23.22,48.95v-1.62l-.02-.29v-.43s-1.01-.03-1.26-.03h-.88l.04.27v.21l.02.19v.38l.02.18-.02.17v.5l-.03.14v.27l-.03.13-.03.13-.08.1-.06.11-.04.11-.11.14-.13.15-.15.14-.12.15-.14.15-.14.13-.14.15-.16.15-.09.08-.08.07-.05.08-.08.07-.04.08-.06.07-.04.07-.03.08-.05.08v.08l-.03.06v.38l.03.04.04.05.05.06.04.03.04.04.04.04.05.05.05.02.06.03.05.03.07.03h.06l.07.03h.06l.07.02.07.02h.14l.08.02h.43l.2-.02h.2l.21-.03.24-.05h0l.03-.03.02-.03.02-.06.03-.08.03-.1.02-.11.03-.13.02-.15.03-.13v-.12l.03-.1v-.18s.01-.02.01-.02l.04-.02h.04s.06,0,.06,0h.27s.02-.01.02-.01h.04l.03-.02.02-.02.03-.03h.01l.03-.04v-.03l.03-.04v-.03l.03-.04v-.08l.02-.04v-.17l-.02-.13-.02-.12-.04-.14-.04-.16v-.04h.13l.06.04.07.05.08.06.03.03.05.02h.04l.03.02h.1l.03-.02v-.03l.03-.02.03-.03v-.19s.01-.06.01-.06v-.48l.14-.25Z"/>
          <path class="cls-1" d="m64,40.88v-.32l-.04-.09v-.23l-.04-.11v-.1l-.03-.12-.03-.11-.03-.11-.03-.11-.04-.1-.04-.11-.03-.1-.08-.23-.08-.2-.11-.22-.11-.21-.12-.2-.13-.2-.08-.1-.08-.09-.07-.09-.05-.1-.07-.08-.08-.1-.04-.08-.06-.1-.04-.09-.04-.1-.05-.1-.02-.1-.04-.08v-.09s-.04-.11-.04-.11l-.02-.1-.03-.18-.03-.16v-.14l-.02-.11v-.28l-.05-.33-.06-.32-.05-.29-.04-.27-.06-.23-.07-.23-.06-.21-.06-.17-.06-.18-.06-.24-.08-.25-.07-.29-.1-.35-.09-.37-.11-.41-.11-.44-.06-.21-.04-.18-.04-.18-.03-.17-.06-.13-.05-.15-.06-.13-.07-.11-.06-.12-.06-.11-.04-.11-.03-.11-.03-.08v-.1l-.04-.08v-.08l-.09-.44-.06-.44-.07-.45-.07-.44-.06-.43-.06-.45-.06-.44-.05-.46-.06-.44-.04-.47-.06-.44-.04-.45-.04-.46-.04-.45-.04-.46-.04-.45-.03-.47-.04-.45-.06-.46-.06-.43-.05-.45-.06-.43-.06-.43-.07-.44-.08-.42-.09-.43-.08-.42-.09-.43-.11-.43-.11-.42-.1-.42-.12-.41-.05-.16-.06-.16-.05-.17-.08-.17-.02-.06-.05-.08-.04-.07-.05-.07-.1-.15-.11-.15-.1-.14-.12-.13-.13-.13-.14-.13-.14-.13-.16-.11-.16-.12-.18-.1-.2-.14-.23-.09-.21-.11-.21-.11-.21-.09-.23-.09-.22-.09-.21-.08-.23-.07-.2-.06-.22-.06-.21-.05-.22-.07-.21-.04-.21-.03-.21-.04h-.23l-.2-.03h-.86l-.21.02-.21.02-.22.03-.21.04-.22.04-.21.05-.21.06-.22.05-.21.07-.21.06-.2.09-.19.08-.19.07-.21.08-.2.07-.21.06-.2.07-.21.05-.2.05-.22.05-.23.04-.21.04-.21.03-.22.03-.23.03-.21.02-.23.02h-1.4l-.23-.02h-.25s-.24-.05-.24-.05l-.26-.02-.23-.03-.24-.04-.26-.04-.25-.06-.25-.05-.25-.05-.27-.06-.25-.05-.25-.03-.25-.04-.26-.05-.24-.03-.25-.03-.24-.03-.24-.03h-.24l-.25-.02h-.24l-.22-.02h-1.19l-.23.02h-.24l-.23.02h-.22l-.23.03-.22.03-.23.03-.23.03-.21.05-.23.04-.21.03-.21.05-.21.06-.25.05-.23.04-.23.06-.23.04-.23.03-.22.04-.25.02-.23.04-.23.03h-.25l-.21.02-.24.02h-1.88l-.23-.02-.23-.02h-.48s-.23-.05-.23-.05l-.23-.02-.24-.04-.22-.03-.24-.04-.23-.06-.25-.04-.24-.05-.21-.06-.23-.05-.23-.03-.21-.05-.22-.04-.23-.04-.23-.04-.23-.04-.21-.03h-.23l-.22-.03-.23-.03h-.23l-.23-.02h-2.24l-.24.02h-.23l-.23.02-.24.03-.23.02-.23.03-.23.04-.23.02-.23.04-.23.04-.25.03h-.23l-.22.02h-1.12l-.2-.02-.22-.04-.21-.06-.21-.04-.21-.03-.19-.04-.23-.06-.2-.05-.23-.07-.2-.07-.21-.07-.2-.08-.21-.07-.21-.09-.2-.09-.18-.11-.19-.11-.21-.1-.18-.12-.2-.12-.18-.14-.21-.11-.13-.06-.11-.07-.14-.07-.13-.07-.15-.08-.14-.09-.16-.08-.15-.09-.17-.08-.17-.09-.2-.1-.19-.1-.2-.11-.21-.1-.23-.1-.23-.11-.07-.14-.07-.16-.07-.14-.08-.12-.09-.13-.11-.12-.09-.11-.11-.11-.1-.08-.11-.09-.11-.08-.12-.08-.13-.07-.11-.06-.14-.05-.13-.04-.07-.02h-.07l-.08-.02h-.35l-.05.02h-.05l-.03.03-.04.02-.03.03-.03.03-.04.02v.04s-.05.04-.05.04v.13l-.02.05v.06l-.02.06v.41l.02.07v.2l-.03.16v.46l-.02.05v.07l-.02.03-.02.04v.02h-.19l-.04-.04h-.03s-.03-.05-.03-.05l-.04-.03-.04-.04-.04-.05-.11-.06-.05-.06-.09-.12-.08-.1-.07-.1-.08-.08-.08-.08-.09-.08-.07-.06-.08-.04-.07-.04-.1-.04-.07-.03h-.18l-.05.02h-.08l-.04.06-.03.06-.03.06-.03.07-.02.07-.03.05-.02.07v.06l-.02.06v.06s-.01.06-.01.06v.5s.01.08.01.08l.03.06.02.06v.07l.03.06.02.06.02.07.04.06.04.06.04.07.04.06.05.07.05.06-.12.12-.12.12-.11.14-.13.14-.14.17-.15.18-.16.19-.14.21-.09.1-.08.11-.07.1-.08.11-.07.1-.06.1-.06.09-.06.1-.04.1-.05.1-.05.11-.03.09-.02.09-.04.1-.02.09-.02.1-.02.08-.02.08-.02.08-.03.08-.04.09-.03.1-.06.11-.04.1-.06.1-.07.11-.06.11-.07.11-.1.13-.08.12-.08.13-.1.12-.2.27-.16.24-.18.25-.17.24-.18.21-.18.22-.16.21-.16.2-.05.03-.07.03-.09.04-.12.04-.11.07-.14.06-.14.08-.15.07-.03.02-.04.02-.04.03-.02.03-.03.04-.03.02-.03.03-.04.03v.04l-.03.03v.04l-.03.04v.04l-.02.03v.2l-.02.04v.04l.02.11v.12l.02.11.02.14.04.14.04.13.02.14v.14l.03.11.03.13.03.11.03.12.02.06.03.06.03.04v.06l.05.11.07.1.04.04.03.05.04.05.05.04.08.08.08.08.1.07.11.07.17.1.18.09.17.08.17.09.17.07.17.06.17.07.15.06.16.03.17.04.15.04.16.02.15.04h.89l.16-.04.12-.02.14-.04.16-.04.12-.03.13-.06.14-.07.13-.06.13-.07.14-.09.11-.08.13-.09.14-.1h.14l.16.02.15.02h.16s.16.04.16.04l.16.03.16.04.17.04.14.05.17.04.15.06.16.07.17.07.16.06.17.08.16.08.17.09.16.1.15.09.17.11.17.11.18.11.17.12.16.12.17.13.17.13.19.14.17.14.18.16.18.16.14.16.17.17.17.17.16.19.18.17.16.2.16.17.16.18.16.18.14.18.13.19.14.18.13.19.13.18.13.19.11.19.12.19.11.19.12.2.09.2.1.2.08.2.1.2.08.2.08.2.07.21.07.2.07.21.07.2.06.22.06.22.03.12.02.08.41,1.2s5.48-.61,7.2-.73,7.46-.55,9.29.07c1.61.54,3.28,1.12,4.31,1.9,1.12.83,1.88,2.06,2.12,3.44.13.73.4,2.12.51,3l2.41-.15h.35l.03.08.03.06.03.06.03.06.03.08.04.06.04.07.04.06.03.06.04.06.05.05.05.08.11.11.1.11.06.07.05.05.06.06.07.05.13.09.13.11.16.1.15.08.14.08.19.1.16.08.17.06.17.06.16.07.14.06.14.07.16.03.12.05.15.03.13.03.11.03.13.03h.23l.09.02h.14l.02.02.02.03.04.05.02.06.03.05v.06s.04.08.04.08v1l.02.08.02.09v.1l.02.04.02.03.02.02v.03h.01l.02.02h.02l.03.02h.22l.08-.03.08-.03.09-.05.09-.07.03-.11.03-.12v-.11l.02-.09.03-.1v-.63s.03-.09.03-.09l.03-.09v-.11l.05-.11h.19l.07-.02h.06s.07-.04.07-.04l.07-.02h.07v.02l.02.06v.08l.03.09.02.14.03.14.04.16.02.07v.08s.04.08.04.08v.06l.02.05.02.06.03.04.03.04.02.03.03.02.04.02h.18l.06-.02h.13v-.02l.03-.02h.02l.03-.02h.01v-.12l.04-.06v-.3s-.04-.1-.04-.1v-.09l-.03-.1-.07-.22-.05-.18-.05-.17v-.13l-.02-.07.18-.08v-.13l.02-.04.02-.03h0s.14-.16.14-.16l.13-.13.08-.11.08-.08.06-.06.03-.05v-.03h0l.04.06.06.08.05.09.06.09.11.21.13.22.11.25.11.27.13.29.09.31.11.29.1.26.07.24.07.2.04.17.05.11.03.09v.05l.08.24.05.25.07.25.06.24.05.23.06.25.06.25.05.23.03.24.04.23.03.22.03.22.02.23v.45s.03.22.03.22v.43l-.02.22v.22s-.01.2-.01.2l-.02.21-.03.21-.03.2-.03.22-.04.19-.05.2-.04.19-.06.2-.05.18-.06.2-.07.19-.16.17-.16.16-.15.15-.17.14-.16.14-.16.14-.16.13-.16.11-.05.03-.04.03-.03.03-.03.03-.05.05-.05.06-.03.04-.03.05-.08.11-.07.11-.04.11-.05.17-.06.13-.03.15-.04.16-.05.16-.03.18-.04.19v.2l-.02.2.08.03.09.02.1.04h.07s.09.04.09.04l.09.03.09.02h.18l.09.02h.47l.08-.02h.29l.09-.02.11-.03.09-.02h.11s.09-.06.09-.06l.11-.02.09-.03.11-.04.09-.03.2-.08.2-.1.05-.05.04-.05.03-.04.03-.08.02-.06.02-.06v-.22l.02-.05v-.04l.02-.03v-.08l.02-.03.03-.04v-.03l.04-.03.02-.04.03-.02.04-.04.02-.03.04-.03h.52s.04-.01.04-.01h.03l.03-.02.04-.04.04-.02.02-.03.02-.04.03-.02.03-.05.02-.04.02-.05v-.04s.05-.06.05-.06v-.07s.04-.09.04-.09l.02-.14v-.39s.01-.03.01-.03l.03-.02v-.03l.04-.03.05-.06.07-.05.1-.06.12-.07v-.02l.02-.03.05-.03h0s.02-.05.02-.05l.02-.03v-.14s.01-.07.01-.07v-.09s-.01-.06-.01-.06l-.03-.1-.04-.07-.04-.1-.05-.1-.06-.11-.07-.1-.1-.11v-.2l-.02-.09-.03-.11-.02-.19-.02-.22-.02-.21v-.71l.02-.23.02-.27.02-.25.03-.25.04-.29.05-.27.07-.29.06-.29.06-.29.07-.29.06-.29.07-.27.05-.29.07-.25.06-.27.05-.25.07-.25.06-.25.06-.23.07-.23.05-.23.06-.21.06-.22.07-.2.02-.08.03-.08.02-.09v-.08l.02-.08.03-.08v-.1s.01-.37.01-.37v-.09s-.04-.09-.04-.09l-.03-.1v-.11l-.04-.11-.03-.09-.03-.1-.02-.11-.04-.11-.02-.1-.02-.11v-1.07h0l.11-.04.11-.04.2-.06.24-.05.29-.08.33-.08v.2l.02.19v.19l.02.19.02.2.04.18.03.19.06.19.04.18.06.19.06.18.07.2.05.17.08.2.08.19.08.17.1.18.07.18.08.19.09.2.07.2.07.21.08.21.07.21.07.23.06.23.06.22.04.24.06.25.05.24.04.26.06.26v.62l.02.32v.66l.02.34v.34l.03.35.02.18v.66l-.02.17v.31s-.04.15-.04.15l-.03.14-.04.15-.03.15-.04.12-.06.14-.04.14-.06.13-.19.17-.15.2-.16.19-.14.19-.13.18-.11.18-.07.09-.06.09-.04.08-.04.08-.05.1-.04.08-.03.09-.05.08-.03.08-.04.08-.03.08-.03.08v.09l-.03.08-.02.07v.24l-.02.08v.08l.08.07.07.05.08.05.07.05.09.05.08.02.08.04.08.04.07.02h.1s.08.03.08.03h.09l.1.02h.08l.11-.02h.08l.1-.02h.1s.1-.03.1-.03l.09-.04.11-.03.11-.04.11-.05.09-.05.12-.05.1-.05.1-.06.11-.06.11-.08.12-.08.12-.08.11-.08v-.14s.01-.59.01-.59v-.11s-.01-.1-.01-.1v-.1s.01-.08.01-.08v-.15s.05-.07.05-.07l.02-.06.11.09.08.05.08.08.09.04.05.04.07.03h.05l.02.02h.1v-.02h.1v-.05h0s.02-.04.02-.04v-.05s.01-.55.01-.55v-.18s.03-.04.03-.04v-.06s.01-.05.01-.05l.03-.04.05-.04.03-.03.03-.04.05-.03.02-.02h.06l.03-.03h.04l.02-.03h.02v-.04s.01-.04.01-.04v-.4l-.02-.13-.04-.12-.04-.14-.06-.16-.05-.15-.07-.17-.1-.19v-.23s-.03-.21-.03-.21v-.27s-.01-.35-.01-.35v-11.73s-.01-.13-.01-.13l-.03-.29-.04-.33-.05-.37-.06-.37-.09-.42-.08-.46-.08-.42-.06-.36-.02-.16-.02-.13-.02-.12-.02-.1v-.25h.05v.05l.07.08.07.09.07.11.07.12.05.13.07.14.06.16.06.15.06.19.05.19.07.2.06.21.05.23.06.25.05.23.05.27.05.25.04.27.05.24.04.23.04.24.03.22.03.21.02.19.04.19v.34l.02.16v.16s.01.15.01.15v.26l-.03.21-.04.2.08.2-.02.2v.34s-.01.16-.01.16v.14s.01.15.01.15v.13l.04.11v.15l.02.06.03.04v.05s.01.03.01.03l.03.04v.03s.06.04.06.04l.04.06.06.08.02.08.04.09.05.09.02.11.04.11.02.11.03.13.03.13v.27s.03.17.03.17l.02.16v.33l-.03.09-.02.09v.1l-.02.1v.11l-.02.1v.23l.02.12v.13l.02.13v.13l.02.16.03.14.02.14.04.14.05.29.06.25.06.25.06.2.06.19.06.15.04.07v.06l.03.06.03.05v-.08s-.01-.08-.01-.08v-.06l-.02-.06v-.35l.02-.04v-.13s.04-.05.04-.05l.08-.05.02-.04.03-.04.02-.05.02-.05.04-.1.04-.11v-.26l.02-.13v-.15l.25,1.04.06-.06.05-.06.02-.06.05-.08.04-.07.03-.06v-.07l.04-.08v-.08s.01-.08.01-.08v-.45s-.04-.1-.04-.1l.04.13.05.14v.08s.04.06.04.06l.04.04.03.05.03.06.03.04.03.04.03.03.05.05.03.03.02.03.04.02.04.03h.03s.04.01.04.01h.07s.04.01.04.01h.22s.04-.01.04-.01l.04-.02.05-.02.06-.03.04-.02.04-.02v-.06l-.03-.06-.04-.06-.03-.08-.02-.09-.03-.11v-.13s-.03-.12-.03-.12v-.89s-.01-.66-.01-.66l.05.13.06.12.06.11.05.08.04.05.02.03.02.03.04.02h.02v.02h.1l.05.03.04.06.05.04.06.06.05.07.04.09v-.46l.02-.04Z"/>
          <path class="cls-1" d="m27.77,46.94v-.2l-.02-.2v-.2s-.85.1-1.17.16c-.27.05-1.06.11-1.06.11v1.92l-.03.18v.24s-.16.13-.16.13l-.13.14-.1.13-.12.12-.1.13-.08.13-.06.12-.09.12-.07.12-.06.12-.05.11-.06.12-.03.11-.03.11v.2l.03.06.04.06.06.04.05.05.06.04.05.05.04.02.06.03.05.04.06.02.06.03h.07s.06.04.06.04h.51l.09-.02h.08l.08-.03.08-.03.09-.04.08-.02.1-.04.1-.04.1-.04.1-.04.1-.06v-.51l.02-.12v-.24l.02-.06.03-.06.02-.03v-.03h.06v.02h.03l.04.02.03.02h.04l.03.02h.11l.03-.02h.03l.04-.02.04-.02.04-.03.04-.03.03-.02.04-.04.02-.06v-.21l-.02-.08v-.16l-.03-.08-.02-.07-.03-.08v-.07l-.03-.08v-.24h.23l.06-.02.04-.02.03-.03h.04l.03-.04.03-.04.04-.03.03-.03.03-.05.03-.05.03-.06v-1.38Z"/>
          <path class="cls-1" d="m38.78,45.73c-.24-.52-.43-1.06-.56-1.61-.09-.54.12-1.46.29-2.19.19-.7.22-1.45.07-2.16-.17-.73-.41-3.03-.65-4.42-.22-1.25-.93-2.37-1.97-3.1-.98-.74-2.02-1.06-3.54-1.55s-3.22-.42-5.06-.48-2.38.16-4,.29-3.87.14-5.51.4-1.85.27-3.25-.2-2.05-1.2-2.76-2.18c-.14-.19-.29-.39-.46-.59.64-.13,1.23-.43,1.72-.86.54-.55.42-1.09.04-.97-.38.12-1.31,0-2.23-.08-.37-.02-.75.02-1.11.13.02-.03.04-.06.05-.09.36-.67.09-1.17-.24-.92-.33.16-.68.27-1.04.34-.52-.19-1.05-.35-1.58-.47-1.08-.27-1.66.08-2.44.37s-1.17,1.02-1.58,1.7-.29,1.46-.33,1.57-1.26,1.25-1.76,1.78c-.38.39-.68.86-.88,1.38-.05.24,0,.49.14.68.15.21.1.57.35.88.22.27.59.19.93.08-.13.07-.01.21-.01.21.02.08.27.25.75.22s.59-.29.78-.39c.38-.11.77-.16,1.17-.17.61-.05.83.05,1,.19s.29.62.61.81c.42.28.75.67.97,1.12.37.64.37,1.22.51,3.4.15,2.18.59,4.06.88,4.62s1.48.92,1.63,1.07.73,1.78.9,2.23.63,1.23.63,1.3.22,1.09.22,1.09c0,0-.03,1.96-.03,2.34-.05.46-.23.89-.51,1.25-.25.22-.51.43-.78.61-.25.26-.49.54-.7.83-.17.2-.03.56.1.56.14-.02.27-.07.39-.14,0,.03-.19.2-.18.29s.32.13.59.14c.47.02.94-.05,1.39-.2.39-.16.75-.7.92-.88.33-.51.58-1.07.73-1.66.1-.49-.07-1.3-.1-1.81.03-.53.11-1.06.24-1.58l.27.29s.08.71.1.94.02,1.25.07,1.92c.01.51-.05,1.01-.17,1.5-.05.28-.24.52-.51.63-.26.13-.48.32-.64.55-.1.15-.49.54-.68.78-.14.16-.12.41.05.55,0,0,.02.01.02.02l.33-.02c-.04.1-.13.21-.03.27.3.07.61.11.92.09.46-.06.9-.23,1.29-.49.2-.12.2-.27.39-.46.33-.33.61-.7.82-1.11.13-.56.17-1.15.09-1.72-.04-.36-.03-.73.03-1.09.05-.44.31-2.27.31-2.36s.31-1.66.49-2.51.24-1.3.37-1.3,1.7.25,2.26.27,2.12.12,2.81.12,3.19.13,4.39-.08,3.77-1.35,4.11-1.37.73.51,1.07.75c.39.35.75.72,1.08,1.12,0,0,.22,1.07.26,1.44s-.1,2.93-.24,3.38-.42.65-.59.67-.47.61-.59.78-.49.54-.66.81c-.08.14-.04.32.1.4.03.02.07.03.11.04.07,0,.14-.03.2-.08.03-.08.06-.16.09-.23.08-.16.25-.49.25-.49l-.17.29c-.17.29-.32.54-.02.68s.95.05,1.49-.06.88-.6,1.17-.81.75-1.25.83-1.69c.03-.65.01-1.31-.05-1.96-.02-.39.29-2.83.29-2.83,0,0,.73.49.82.54s.2.41.2.41c0,0,.05.71.12,1.5.02,1.05-.08,2.1-.29,3.13-.14.66-.63,1-.92,1.25-.44.39-.87.81-1.26,1.25-.15.2.14.35.14.35.12.01.24,0,.36-.04l-.11.13s.02.07.22.15c.58.09,1.18.07,1.76-.06.61-.14.66-.67.95-1.05s.78-.88.73-1.37c-.02-.85.03-1.7.15-2.54.1-.71.24-1.62.29-1.98s.17-.66.32-1.26.22-.94.07-1.28M2.02,33.21s.02-.01.03-.01h-.02s0,.01,0,.01Zm.78-.59l-.2.16.18-.17.19-.04-.17.05Z"/>
        </g>
      </g>
    </g>
  </g>
</svg>