<?xml version="1.0" encoding="UTF-8"?>
<svg id="AC_icons" data-name="AC icons" xmlns="http://www.w3.org/2000/svg" viewBox="0 0 64 64">
  <defs>
    <style>
      .cls-1 {
        fill: #061a2f;
        stroke-width: 0px;
      }
    </style>
  </defs>
  <g id="Informational_icons" data-name="Informational icons">
    <g id="F">
      <g id="farm-animal-feeding-viewing">
        <g id="Farm_animals" data-name="Farm animals">
          <path class="cls-1" d="m57.22.52c-3.16,0-5.72,2.57-5.72,5.73,0,3.16,2.57,5.72,5.73,5.72s5.72-2.57,5.72-5.73c0-3.16-2.57-5.71-5.73-5.72"/>
          <path class="cls-1" d="m59.83,13.01h-21.85c-2.99,0-2.99,5.2,0,5.2h11.44c2.01,0,3.12.12,3.12,2.08v40.58c0,3.2,5.2,3.2,5.2,0v-21.86c0-1.07,1.02-1.07,1.05,0v21.85c0,3.2,5.2,3.39,5.2.19V17.43c0-2.07-.84-4.42-4.16-4.42"/>
          <path id="Lamb_feeding" data-name="Lamb feeding" class="cls-1" d="m.63,52.5c.44-.35.78-.44.97-2.13.19-1.69,1.85-2.28,2.96-3s.78-2.84.78-2.84v-3.7s-.25,0-1.31-.82-.39-1.75,1.4-3.53c1.79-1.78,5.09-2.28,7.37-2.3,2.4.03,4.78.48,7.02,1.33,1.7.73,6.69.78,8.37-.39-.31-1.21-.29-3.51-.15-4.65-2.39.29-3.72-1.45-4.25-2.23s-.44-1.16.92-1.78,2.92.08,2.92.08c0,0,.55.42,2.24,1.55,2.15-2.13,4.43-1.59,5.97-.88,1.05-1,1.4-1.38,1.4-1.38,0,0,1.44-.93,2.87-.54s1.59.76,1.19,1.61-1.43,2.78-3.84,2.87h-.15c-.09.49-.04,1,.15,1.47,1.02,3.39-1.19,4.36-1.19,4.36,0,0,1.6,8.5-3.27,12.63,0,0-.73,5.08-.73,8.21s1.82,4.21,1.82,5.45-2.52.68-3.66-.47c.63,1.78-.15,2.26-1.64,1.99s-2.19-.7-2.55-5.58c-.26-3.11-.86-6.18-1.8-9.15-8.03,2.32-10.82-.8-10.82-.8-.6,1.05-1.25,2.06-1.97,3.02-1.07,1.28-1.67,2.89-1.7,4.56,0,2.13.73,3.16,1.75,4.43,1.02,1.27-2.13,2.4-3.68.66s-1.75-4.7-1.75-5.81c.01-.62-.11-1.23-.35-1.79l-.44-.73c-1.84,1.75-1.7,3.29-1.7,3.29v5.04c0,1.84-1.99,1.89-1.99,1.89-1.46,0-1.8-1.79-1.8-1.79v-6.37c0-.89.2-1.43.63-1.77Z"/>
        </g>
      </g>
    </g>
  </g>
</svg>