<?xml version="1.0" encoding="UTF-8"?>
<svg id="AC_icons" data-name="AC icons" xmlns="http://www.w3.org/2000/svg" viewBox="0 0 64 64">
  <defs>
    <style>
      .cls-1 {
        fill: #061a2f;
        stroke-width: 0px;
      }
    </style>
  </defs>
  <g id="Informational_icons" data-name="Informational icons">
    <g id="F">
      <g id="ferry-terminal">
        <g id="Ferry_terminal" data-name="Ferry terminal">
          <path class="cls-1" d="m53.41,55.87c-.48.24-.99.42-1.52.53l4.74-17.73v-.36c0-1.66-1.68-3.05-3.32-3.24h0c-.12,0-1.71-.4-1.71-.4,0,0-.93-7.17-.93-7.23l-.02-.19h0l-2.31-11.93-.47-1.79h-.03c-.2-1.02-1.03-1.79-2.06-1.92h-.06l-12.79-1.46h0l-.39-5.85c0-.32-.26-.59-.59-.59-.32,0-.59.26-.59.59h0s-.4,5.85-.4,5.85h0l-12.78,1.46h-.05c-1.03.12-1.87.9-2.07,1.92h-.03l-.47,1.79-2.3,11.95h0v.19c0,.06-.94,7.23-.94,7.23,0,0-1.59.39-1.71.4h0c-1.66.19-3.32,1.56-3.32,3.24v.36l4.74,17.73c-.53-.11-1.04-.29-1.52-.53-3.92-2.04-6.72-2.42-9.84-.5-1.46.78-.4,3.42,1.48,2.82,1.73-.55,4.12-.73,6.9.69,3.53,1.8,6.53,1.8,9.53.23s4.65-1.85,8.3-.27c3.19,1.73,7.03,1.73,10.22,0,3.65-1.58,5.31-1.29,8.3.27s6,1.57,9.53-.23c2.78-1.42,5.17-1.24,6.9-.69,1.88.6,2.94-2.04,1.48-2.82-3.17-1.94-5.97-1.56-9.91.48ZM19.09,20.25s.18-2.92.25-3.42-.19-1.17.74-1.24c0,0,3.48-.8,5.34-.8h13.06c1.85,0,5.34.8,5.34.8.93.07.68.73.74,1.24s.25,3.42.25,3.42c.06.51-.37.58-.66.51s-3.44-.66-5.33-.66h-13.7c-1.9,0-5.03.58-5.34.66s-.74,0-.68-.51Zm17.04,35.42c-2.66,1.24-5.73,1.24-8.39,0-3.06-1.37-5.42-1.61-7.99-.66l.6-1.82s.07-.59.87-1.39,2.23-.76,2.23-.76h16.98s1.42-.04,2.23.76.87,1.39.87,1.39l.6,1.82c-2.58-.95-4.93-.71-7.99.66h0Zm9.47-22.87c-.35-.08-3.85-.73-5.97-.73h-15.37c-2.13,0-5.64.66-5.97.73s-.83,0-.76-.57c0,0,.21-3.27.28-3.84s-.21-1.31.83-1.39c0,0,3.9-.9,5.97-.9h14.67c2.07,0,5.97.9,5.97.9,1.04.08.76.82.83,1.39s.28,3.84.28,3.84c.08.57-.41.65-.76.57h0Z"/>
        </g>
      </g>
    </g>
  </g>
</svg>