<?xml version="1.0" encoding="UTF-8"?>
<svg id="AC_icons" data-name="AC icons" xmlns="http://www.w3.org/2000/svg" viewBox="0 0 64 64">
  <defs>
    <style>
      .cls-1 {
        fill: #061a2f;
        stroke-width: 0px;
      }
    </style>
  </defs>
  <g id="Informational_icons" data-name="Informational icons">
    <g id="F">
      <g id="fitness-equipment">
        <g id="Exercise_equipment_weights" data-name="Exercise equipment weights">
          <path class="cls-1" d="m14.68,14.23h0c2.69,0,4.86,2.18,4.86,4.86v25.82c0,2.69-2.18,4.86-4.86,4.86h0c-2.69,0-4.86-2.18-4.86-4.86v-25.82c0-2.69,2.18-4.86,4.86-4.86Z"/>
          <rect class="cls-1" x="44.58" y="14.23" width="9.73" height="35.55" rx="4.86" ry="4.86"/>
          <rect class="cls-1" x="21.67" y="29.52" width="20.86" height="4.95"/>
          <path class="cls-1" d="m2.19,28.46h-.75c-.79,0-1.44.65-1.44,1.44v4.19c0,.79.65,1.44,1.44,1.44h.88v-7.06c-.05,0-.09-.01-.13-.01Z"/>
          <path class="cls-1" d="m5.98,23.11c-1.34,0-2.43,1.09-2.43,2.43v12.91c0,1.34,1.09,2.43,2.43,2.43,1.34,0,2.43-1.09,2.43-2.43h0v-12.91c0-1.34-1.09-2.43-2.43-2.43Z"/>
          <path class="cls-1" d="m61.8,35.53h.76c.79,0,1.44-.64,1.44-1.44v-4.19c0-.79-.65-1.44-1.44-1.44h-.88v7.05s.08.02.12.02Z"/>
          <path class="cls-1" d="m58,40.89c1.34,0,2.43-1.09,2.43-2.43v-12.91c0-1.34-1.09-2.43-2.43-2.43-1.34,0-2.43,1.09-2.43,2.43v12.91c0,1.34,1.09,2.43,2.43,2.43Z"/>
        </g>
      </g>
    </g>
  </g>
</svg>