<?xml version="1.0" encoding="UTF-8"?>
<svg id="AC_icons" data-name="AC icons" xmlns="http://www.w3.org/2000/svg" viewBox="0 0 64 64">
  <defs>
    <style>
      .cls-1 {
        fill: #061a2f;
        stroke-width: 0px;
      }
    </style>
  </defs>
  <g id="Informational_icons" data-name="Informational icons">
    <g id="F">
      <g id="flag">
        <path class="cls-1" d="m7.11,12.39v46.89c-.02.65-.54,1.17-1.19,1.19h-2.38c-.64-.02-1.16-.54-1.18-1.19V12.39C.1,11.08-.67,8.18.64,5.91c1.31-2.27,4.21-3.04,6.48-1.74,2.27,1.31,3.04,4.21,1.74,6.48-.42.72-1.01,1.32-1.74,1.74h0Zm56.89,26.56c0,1.38-.85,1.89-1.93,2.45-4.19,2.26-8.82,4.3-13.67,4.3-6.82,0-10.07-5.19-18.15-5.19-5.89,0-12.07,2.67-17.19,5.41-.37.22-.79.33-1.22.33-1.31,0-2.37-1.07-2.38-2.38v-27.48c0-.89.45-1.52,1.15-2.04.89-.59,1.96-1.11,2.93-1.59,4.67-2.38,10.33-4.45,15.59-4.45,5.82,0,10.38,1.93,15.52,4.33,1.04.52,2.11.7,3.26.7,5.82,0,12.07-5.04,13.7-5.04,1.31,0,2.37,1.07,2.38,2.38v28.26Z"/>
      </g>
    </g>
  </g>
</svg>