<?xml version="1.0" encoding="UTF-8"?>
<svg id="AC_icons" data-name="AC icons" xmlns="http://www.w3.org/2000/svg" viewBox="0 0 64 64">
  <defs>
    <style>
      .cls-1 {
        fill: #061a2f;
        stroke-width: 0px;
      }
    </style>
  </defs>
  <g id="Informational_icons" data-name="Informational icons">
    <g id="F">
      <g id="food-waste">
        <g id="Food_waste" data-name="Food waste">
          <path class="cls-1" d="m41.17,46.66c-5.38-7.93-.05-13.49,1.7-15.96-3.19-7.62,4.53-12.94,4.53-12.94-7.08-4.16-12.29-1.76-14.29-.45-.28-3.68-1.28-11.5-4.46-17.3-3.07-.18-4.53,2.37-4.53,2.37,1.22,1.32,2.64,2.55,3.54,4.05,2.73,4.5,3.89,9.38,4.28,11.36-7-4.97-15.04.26-15.04.26,1.89,1.33,8.67,6.56,5.07,13.05,6.49,9.47.79,14.81.79,14.81,3.4,8.65-7.27,12.94-7.27,12.94,7.41,8.44,16.47,3.54,16.47,3.54,7.1,4.32,15.69-1.4,16.57-1.54-3.49-1.34-9.51-8.21-7.35-14.18Z"/>
        </g>
      </g>
    </g>
  </g>
</svg>