<?xml version="1.0" encoding="UTF-8"?>
<svg id="AC_icons" data-name="AC icons" xmlns="http://www.w3.org/2000/svg" viewBox="0 0 64 64">
  <defs>
    <style>
      .cls-1 {
        fill: #061a2f;
        stroke-width: 0px;
      }
    </style>
  </defs>
  <g id="Informational_icons" data-name="Informational icons">
    <g id="F">
      <g id="food">
        <g id="Food">
          <g id="Food-2">
            <path class="cls-1" d="m33.74,46.21h.06c-.7-3.99-4-7.01-7.97-7.01h-15.82c-3.97,0-7.26,3.02-7.97,7.01h31.69Z"/>
            <path class="cls-1" d="m10.02,59.22h15.82c3.72,0,6.85-2.65,7.81-6.28H2.21c.95,3.61,4.09,6.28,7.81,6.28Z"/>
            <path class="cls-1" d="m35.93,49.57c0-1.21-.98-2.19-2.19-2.19H2.12c-1.21.04-2.16,1.06-2.11,2.28.04,1.15.96,2.07,2.11,2.11h31.62c1.21,0,2.19-.98,2.19-2.2Z"/>
            <path class="cls-1" d="m35.74,30.22h27.85c.22,0,.4-.18.4-.4,0-.04,0-.09-.02-.13l-1.77-5.33c-.06-.16-.21-.28-.38-.28h-24.1c-.17,0-.32.1-.38.26l-1.98,5.33c-.08.21.03.44.24.52.04.02.09.02.14.02"/>
            <path class="cls-1" d="m36.96,31.82c-.03-.18.09-.36.27-.39.02,0,.05,0,.07,0h24.39c.88,0,.72-.1.59.79l-3.16,25.2c-.14.92-.92,1.6-1.85,1.63l-14.53.1c-.93-.02-1.72-.69-1.88-1.61l-3.9-25.72Zm12.86,5.45c2.47-.09,3.91-1.13,4.57-1.77.98.64,3.3,1.85,6.07,1.13.33-.1.52-.46.42-.79-.1-.31-.41-.5-.73-.43-2.97.77-5.42-1.22-5.45-1.23-.27-.22-.66-.19-.89.08-.01.02-.03.03-.04.05,0,0-1.12,1.59-4,1.7-2.75.1-3.59-1.34-3.62-1.39-.16-.31-.55-.43-.86-.27-.05.03-.1.06-.14.1-2.53,2.36-5.68.72-5.82.65-.32-.14-.69,0-.83.33-.12.29-.02.62.24.78,1.3.71,4.28,1.45,6.76-.39.59.62,1.81,1.47,3.99,1.47.1,0,.21,0,.32,0Z"/>
            <polygon class="cls-1" points="43.33 23.27 42.3 23.31 36.27 5.1 37.23 4.78 43.33 23.27"/>
          </g>
        </g>
      </g>
    </g>
  </g>
</svg>