<?xml version="1.0" encoding="UTF-8"?>
<svg id="AC_icons" data-name="AC icons" xmlns="http://www.w3.org/2000/svg" viewBox="0 0 64 64">
  <defs>
    <style>
      .cls-1 {
        fill: #071630;
        stroke-width: 0px;
      }
    </style>
  </defs>
  <g id="Informational_icons" data-name="Informational icons">
    <g id="F">
      <g id="football">
        <g id="Sports_field_playing_field" data-name="Sports field playing field">
          <path class="cls-1" d="m53.63,27.57l-8.71-1.66c-.36-.14-.63-.45-.73-.83l-1.65-8.59c-1.04-3.04-3.14-4.56-6.31-4.56-.84,0-1.67.11-2.49.3-5.59,2-10.98,4.04-16.15,6.12-.9.69-1.11,1.54-.62,2.58l6.31,15.22-2.59,7.57c-.21.6-.66.86-1.35.73l-11.8-1.56c-.8-.17-1.64.11-2.17.73-.54.59-.84,1.37-.83,2.17,0,1.53.69,2.38,2.07,2.59l15.43,2.37c1.44.22,2.38-.3,2.79-1.55l3.41-9.94,8.81,7.15-3,14.39c-.22.79.09,1.63.78,2.07.7.54,1.55.83,2.43.83,1.38,0,2.21-.54,2.48-1.65l3.21-15.43c.07-.45.11-.9.11-1.35,0-1.16-.56-2.2-1.66-3.1l-7.45-5.9,4.34-12.11,1.57,5.69c.2.48.62.83,1.13.94l11.6,2.16c.75.17,1.54-.1,2.02-.71.51-.61.78-1.38.77-2.18-.02-1.44-.6-2.26-1.77-2.47Zm-27.96,0l-2.17-4.87c-.08-.36,0-.73.21-1.03l4.55-1.77-2.59,7.67ZM43.8,1.5c1.06,1,1.65,2.4,1.62,3.85,0,3.05-2.47,5.53-5.53,5.53,0,0,0,0,0,0-1.45.02-2.85-.56-3.85-1.62-1.03-1.03-1.61-2.44-1.59-3.9-.02-2.98,2.39-5.42,5.37-5.44.02,0,.04,0,.07,0,1.47-.03,2.88.54,3.92,1.58Z"/>
          <path class="cls-1" d="m54.71,54.65c2.56.08,4.57,2.22,4.49,4.77-.08,2.56-2.22,4.57-4.77,4.49-2.5-.08-4.5-2.13-4.49-4.63.04-2.6,2.18-4.67,4.78-4.63,0,0,0,0,0,0"/>
        </g>
      </g>
    </g>
  </g>
</svg>