<?xml version="1.0" encoding="UTF-8"?>
<svg id="AC_icons" data-name="AC icons" xmlns="http://www.w3.org/2000/svg" viewBox="0 0 64 64">
  <defs>
    <style>
      .cls-1 {
        fill: #061a2f;
        stroke-width: 0px;
      }
    </style>
  </defs>
  <g id="Informational_icons" data-name="Informational icons">
    <g id="F">
      <g id="four-wheel-drive">
        <g id="Four_wheel_drive" data-name="Four wheel drive">
          <path class="cls-1" d="m45.26,26.03c.07,3.79,3.2,6.81,6.99,6.75s6.81-3.2,6.75-6.99c-.07-3.75-3.13-6.75-6.88-6.75-3.82.03-6.9,3.16-6.87,6.98,0,0,0,0,0,0"/>
          <path class="cls-1" d="m4.6,16.54l9.2-4.63,4.68,9.09-9.2,4.63-4.68-9.09ZM26.75,5.23l4.68,9.09-9.2,4.63-4.68-9.09,9.2-4.63Zm-15.65,33.91c.82,1.69,1.36,2.8,1.45,2.93.27.46.87.61,1.33.34.05-.03.1-.06.14-.1-.18-.58-.26-1.2-.24-1.81v-1.36h0c.02-1.87.23-4.94,1.65-7.07,1.77-2.65,3.78-4.52,7.69-5.12s6.89.53,8.84,2.47c1.95,1.93,2.69,3.26,2.69,3.26l7.56-3.5s-.24-3.73.35-5.66c.59-1.93,1.9-4.43,5.24-6.26,1.36-.79,2.85-1.36,4.39-1.69,1.32-.32,2.67-.56,4.02-.72,0,0-3.04-6.26-3.41-7.11s-1.83-.96-2.93-.48-11.47,4.22-12.2,4.33c-.68.18-1.39-.06-1.83-.6-.5-.6-6.1-8.44-6.45-9.03s-1.34-1.21-2.07-.84L.96,14.12c-.97.48-1.09.6-.85,1.57.2.77,7.74,16.74,10.99,23.46h0Z"/>
          <path class="cls-1" d="m17,37.01c0,3.86,3.13,6.99,6.99,6.99s6.99-3.13,6.99-6.99-3.13-6.99-6.99-6.99-6.99,3.13-6.99,6.99"/>
          <polygon class="cls-1" points="54.23 54.19 56.33 54.19 56.33 49.99 56.29 49.99 54.23 54.19"/>
          <polygon class="cls-1" points="36.42 54.19 38.52 54.19 38.52 49.99 38.48 49.99 36.42 54.19"/>
          <path class="cls-1" d="m57.87,34.11c-3.64,1.75-4.98,2.12-7.28,3.85-.82.6-1.6,1.25-2.32,1.96-.17.16-.33.34-.47.53,0,0-.26-.24-.65-.53-.59-.43-1.48-1-2.27-1.09-1.47-.11-2.94.27-4.17,1.09-.39.26-.74.56-1.05.9l-2.43,2.74s-1.82-1.61-5.94.63-6.92,4.36-8.98,7.34c-2.07,2.98-2.18,3.5-2.18,3.5,0,0-2.18-1.5-4.98.25s-4.37,3.85-4.73,4.11-4.14-.48-5.84.63c-1.09.77-1.97,1.8-2.58,2.99h62.01v-31.99s-2.49,1.36-6.13,3.1Zm-15.26,22.46h-1.1v2.35h-3.1v-2.35h-4.47v-2.49l3.99-7.51h3.59v7.61h1.1v2.38Zm5.71,2.35l-1.12-2.9-1.17,2.9h-3.15l2.49-4.96-2.45-4.66h3.2l.96,2.58,1.1-2.58h3.23l-2.45,4.66,2.54,4.96h-3.19Zm12.1-2.35h-1.1v2.35h-3.09v-2.35h-4.48v-2.49l3.98-7.51h3.59v7.61h1.1v2.38Z"/>
        </g>
      </g>
    </g>
  </g>
</svg>