<?xml version="1.0" encoding="UTF-8"?>
<svg id="AC_icons" data-name="AC icons" xmlns="http://www.w3.org/2000/svg" viewBox="0 0 64 64">
  <defs>
    <style>
      .cls-1 {
        fill: #061a2f;
        stroke-width: 0px;
      }
    </style>
  </defs>
  <g id="Informational_icons" data-name="Informational icons">
    <g id="F">
      <g id="free-wifi">
        <g id="Free_WiFi" data-name="Free WiFi">
          <path class="cls-1" d="m9.7,23.76c.39.01.76-.15,1.03-.43.3-.37.44-.84.4-1.32v-4.67h4.77c.37.04.74-.07,1.03-.29.22-.2.34-.49.33-.78.01-.3-.11-.59-.33-.79-.29-.23-.66-.34-1.03-.3h-4.76v-3.63h5.71c.37.03.74-.08,1.03-.31.23-.2.35-.5.34-.8,0-.3-.12-.59-.34-.79-.29-.23-.66-.34-1.03-.31h-6.83c-.35-.02-.7.04-1.03.18-.25.11-.46.31-.58.57-.14.33-.2.68-.19,1.03v10.9c-.04.47.11.95.4,1.32.28.3.67.45,1.07.43Z"/>
          <path class="cls-1" d="m20.96,23.76c.39.03.77-.13,1.03-.42.29-.38.42-.85.38-1.33v-4.55h.97c.41-.01.83.06,1.22.21.37.17.69.43.95.75.39.5.74,1.04,1.03,1.61l1.1,1.92c.26.45.47.8.62,1.03.14.22.33.42.55.58.23.16.5.24.78.23.24,0,.48-.05.69-.15.19-.1.36-.25.47-.43.11-.16.17-.36.18-.56-.04-.36-.14-.71-.29-1.03-.23-.56-.5-1.1-.81-1.62-.35-.6-.75-1.16-1.2-1.69-.39-.48-.87-.89-1.4-1.2.99-.17,1.9-.64,2.61-1.35.6-.71.9-1.61.86-2.53,0-.5-.09-.99-.26-1.46-.17-.45-.42-.87-.75-1.22-.32-.34-.7-.62-1.13-.8-.37-.17-.77-.28-1.18-.33-.53-.05-1.06-.07-1.6-.06h-4.49c-.47-.04-.93.11-1.29.41-.3.38-.45.87-.4,1.35v10.91c-.03.46.1.93.36,1.31.25.3.63.46,1.02.44Zm1.37-12.27h2.55c.65-.04,1.3.03,1.92.22.33.14.61.37.8.67.19.31.29.67.29,1.03.02.43-.1.84-.36,1.18-.27.31-.63.52-1.03.61-.55.13-1.11.19-1.67.18h-2.47l-.02-3.88Z"/>
          <path class="cls-1" d="m34.68,23.76h7.32c.35.03.7-.09.96-.32.22-.22.33-.52.32-.83.02-.32-.1-.63-.32-.86-.26-.23-.61-.35-.96-.32h-6.28v-4.12h5.58c.34.03.67-.08.93-.31.2-.22.31-.51.3-.8.02-.3-.09-.58-.3-.79-.25-.22-.58-.33-.92-.3h-5.6v-3.51h6.07c.35.03.69-.08.96-.31.21-.22.33-.52.31-.82.01-.3-.1-.6-.31-.81-.27-.23-.61-.34-.96-.31h-7.11c-.32-.01-.64.05-.94.19-.24.12-.43.33-.54.58-.13.33-.19.68-.18,1.03v10.84c-.05.49.09.98.38,1.37.34.31.8.47,1.27.42Z"/>
          <path class="cls-1" d="m47,23.76h7.36c.35.02.69-.09.96-.32.22-.22.33-.52.32-.83.02-.32-.1-.63-.32-.86-.26-.23-.61-.34-.96-.32h-6.31v-4.12h5.62c.34.03.67-.08.93-.31.2-.22.31-.51.3-.8.02-.3-.1-.59-.31-.79-.26-.22-.59-.33-.93-.3h-5.61v-3.51h6.1c.35.03.69-.08.96-.31.22-.22.33-.52.32-.82.01-.3-.1-.6-.32-.81-.27-.23-.61-.34-.96-.31h-7.15c-.33-.01-.65.05-.95.19-.25.12-.44.32-.55.58-.13.33-.19.68-.18,1.03v10.84c-.04.49.1.98.39,1.37.35.32.81.47,1.28.42Z"/>
          <path class="cls-1" d="m52.5,27.88H11.51c-6.34.01-11.49,5.15-11.51,11.49v3.81c.02,6.34,5.17,11.48,11.51,11.49h40.99c6.34-.02,11.48-5.15,11.5-11.49v-3.81c-.02-6.34-5.16-11.47-11.5-11.49Zm-32.92,20.61h-3.46l-1.18-6.18c-.27-1.45-.5-2.8-.67-4.45h0c-.25,1.63-.47,3-.81,4.45l-1.34,6.18h-3.52l-3.34-14.43h3.4l1.03,5.95c.31,1.71.61,3.58.83,5.03h0c.23-1.57.57-3.3.92-5.07l1.27-5.9h3.38l1.12,6.08c.32,1.69.55,3.24.75,4.83h0c.21-1.61.53-3.3.81-5.01l1.18-5.9h3.24l-3.61,14.43Zm8.24,0h-3.09v-10.3h3.09v10.3Zm-1.58-11.33c-.85,0-1.55-.69-1.55-1.55s.69-1.55,1.55-1.55,1.55.69,1.55,1.55-.69,1.55-1.55,1.55Zm35.58,5.31c0,5.56-4.51,10.06-10.07,10.06h-23.62c1.67-1.03,4.71-3.36,4.71-7.36v-10.07s.54-4.12,4.52-5.05h14.43c5.54.02,10.01,4.51,10.03,10.05v2.37Z"/>
          <polygon class="cls-1" points="40.19 48.49 43.63 48.49 43.63 42.69 49.08 42.69 49.08 40.04 43.63 40.04 43.63 36.74 49.46 36.74 49.46 34.06 40.19 34.06 40.19 48.49"/>
          <path class="cls-1" d="m53.06,34.06c-.85,0-1.55.69-1.55,1.55s.69,1.55,1.55,1.55,1.55-.69,1.55-1.55-.69-1.55-1.55-1.55Z"/>
          <rect class="cls-1" x="51.52" y="38.19" width="3.09" height="10.3"/>
        </g>
      </g>
    </g>
  </g>
</svg>