<?xml version="1.0" encoding="UTF-8"?>
<svg id="AC_icons" data-name="AC icons" xmlns="http://www.w3.org/2000/svg" viewBox="0 0 64 64">
  <defs>
    <style>
      .cls-1, .cls-2 {
        fill: #061a2f;
        stroke-width: 0px;
      }

      .cls-2 {
        fill-rule: evenodd;
      }
    </style>
  </defs>
  <g id="Informational_icons" data-name="Informational icons">
    <g id="F">
      <g id="frisbee">
        <g id="Disc_golf_frisbee" data-name="Disc golf frisbee">
          <path class="cls-2" d="m53.68,23.05c2.78-.17,5.57-.03,8.32.44.71.14,2,.47,2,.94,0,.83-2.93,1.19-3.73,1.28-3.15.37-6.34.37-9.49,0-.72-.08-1.43-.19-2.14-.35-.5-.12-1.6-.46-1.64-.84-.08-.74,2.27-1.1,2.86-1.19,1.27-.18,2.54-.27,3.82-.29"/>
          <path class="cls-1" d="m40,16.99c0,2.76-2.24,5-5,5s-5-2.24-5-5,2.24-5,5-5,5,2.24,5,5"/>
          <path class="cls-1" d="m43.75,28.25c-.53-.24-1.14-.24-1.67,0-.18.03-.36.08-.52.17l-4.61,2.68-3.57-5.73h0c-.06-.13-.13-.25-.21-.36l-3.77-5.07-.05-.07-.16-.21h0c-.22-.27-.5-.47-.82-.59-.31-.16-.65-.26-1-.31l-17.51-2.77h-.05c-1.33-.09-2.49.91-2.58,2.24-.09,1.22.75,2.31,1.95,2.55h0l11.14,1.73-8,6.21q-1.32,1.27-1.32,2.27v9l-9.44,6.8c-.4.26-.74.6-1,1,0,.03-.03.05-.05.06-.83,1.09-.65,2.65.41,3.52.77.69,1.88.85,2.81.38.24-.09.46-.21.67-.35l11.1-7.26h0c.87-.35,1.44-1.21,1.41-2.15v-3.93l11.51,3.68,5.38,7.92c.05.07.1.14.16.2.03.07.07.14.11.2.86,1.02,2.39,1.16,3.41.3.01,0,.02-.02.03-.03,1.16-.72,1.54-2.22.88-3.41l-.05-.08c-.05-.1-.1-.19-.16-.28l-5.95-8.77c-.12-.18-.28-.34-.45-.48-.22-.21-.48-.36-.77-.46l-7.24-2.32,6.68-5.19,3.85,6.19c.06.1.13.19.21.28h0c.42.82,1.42,1.14,2.23.72,0,0,0,0,.01,0l6.72-3.9c.57-.25,1.01-.71,1.26-1.28.54-1.13.11-2.49-.99-3.09Z"/>
        </g>
      </g>
    </g>
  </g>
</svg>