<?xml version="1.0" encoding="UTF-8"?>
<svg id="AC_icons" data-name="AC icons" xmlns="http://www.w3.org/2000/svg" viewBox="0 0 64 64">
  <defs>
    <style>
      .cls-1 {
        fill: #071630;
        stroke-width: 0px;
      }
    </style>
  </defs>
  <g id="Informational_icons" data-name="Informational icons">
    <g id="F">
      <g id="futsal">
        <g id="NEW_ICONS" data-name="NEW ICONS">
          <g id="Activities_and_sports" data-name="Activities and sports">
            <g id="Futsal">
              <polygon class="cls-1" points="19.08 52.62 7.64 52.78 1.78 42.96 7.36 32.97 18.8 32.81 24.66 42.63 19.08 52.62"/>
              <polygon class="cls-1" points="19.13 31 7.69 31.16 1.83 21.33 7.41 11.35 18.85 11.18 24.71 21.01 19.13 31"/>
              <polygon class="cls-1" points="37.67 41.78 26.23 41.94 20.37 32.12 25.95 22.13 37.39 21.96 43.25 31.79 37.67 41.78"/>
              <polygon class="cls-1" points="37.85 20.13 26.41 20.29 20.55 10.46 26.13 .47 37.57 .31 43.43 10.14 37.85 20.13"/>
              <polygon class="cls-1" points="56.29 31.26 44.86 31.43 38.99 21.6 44.57 11.61 56.01 11.45 61.87 21.28 56.29 31.26"/>
              <polygon class="cls-1" points="56.74 52.74 45.3 52.91 39.44 43.08 45.02 33.09 56.46 32.93 62.32 42.75 56.74 52.74"/>
              <polygon class="cls-1" points="37.94 63.52 26.5 63.69 20.63 53.86 26.21 43.87 37.65 43.71 43.51 53.54 37.94 63.52"/>
              <path class="cls-1" d="m5.58,32S1.22,22.67,1.02,23.36c-2.05,6.86-.44,13.9,0,17.02.04.26,4.56-8.38,4.56-8.38h0Z"/>
              <path class="cls-1" d="m58.24,32.12s4.51-8.65,4.72-7.96c2.05,6.86.54,13.28.09,16.4-.04.26-4.81-8.43-4.81-8.43Z"/>
              <path class="cls-1" d="m45.3,54.64s-5.05,8.62-4.35,8.46c6.97-1.63,11.69-6.35,14.17-8.29.21-.16-9.82-.17-9.82-.17h0Z"/>
              <path class="cls-1" d="m45.07,9.28S39.45.29,40.14.45c6.97,1.63,12.22,7.15,14.7,9.09.21.16-9.77-.26-9.77-.26h0Z"/>
              <path class="cls-1" d="m18.71,9.12S24.17.56,23.47.72c-6.97,1.63-11.78,6.62-14.26,8.56-.21.16,9.49-.15,9.49-.15Z"/>
              <path class="cls-1" d="m18.75,55.05s5.77,8.48,5.08,8.32c-6.97-1.63-11.95-6.44-14.44-8.38-.21-.16,9.36.06,9.36.06Z"/>
            </g>
          </g>
        </g>
      </g>
    </g>
  </g>
</svg>