<?xml version="1.0" encoding="UTF-8"?>
<svg id="AC_icons" data-name="AC icons" xmlns="http://www.w3.org/2000/svg" viewBox="0 0 64 64">
  <defs>
    <style>
      .cls-1 {
        fill: #061a2f;
        fill-rule: evenodd;
        stroke-width: 0px;
      }
    </style>
  </defs>
  <g id="Informational_icons" data-name="Informational icons">
    <g id="G">
      <g id="gas-cooking">
        <path class="cls-1" d="m54.49,37.01c.21,1.45-.8,2.79-2.25,3h0c-.25.04-.5.04-.75,0H12.51c-1.45.21-2.8-.8-3-2.25-.04-.25-.04-.5,0-.75v-20.99h44.99v20.99Zm1.98-22.99c0-1-1-2-3-2-1,0-2-2-2-2-1-1.98-4-4-9-4-1,0-1.98,0-1.98-1v-2c.21-1.45-.8-2.79-2.25-3h0c-.25-.04-.5-.04-.75,0h-10.99c-1.45-.21-2.79.8-3,2.25-.03.25-.03.5,0,.75v2c0,1-1,1-2,1-5,0-8,2-9,4,0,0-1,2-2,2-1.99,0-2.98,1-2.98,2h48.95ZM28.5,2.03q-3,0-2.98,3h12.97q.02-3-2.98-3h-7Zm14.16,49.98c2.05-2.17,3.57-2.15,4.72-2.68,1.64-.76,2.1-1.7,2.61-4.07.44-2.06.5-2.24.5-2.24-.19.07-6.66,1.91-7.51,4.45-.52,1.46-.63,3.03-.32,4.55m-9.96,0c2.04-2.17,3.55-2.15,4.7-2.68,1.63-.76,2.09-1.7,2.6-4.07.44-2.06.51-2.24.51-2.24-.19.07-6.56,1.94-7.48,4.45-.56,1.45-.67,3.03-.32,4.55m-10.03,0c2.04-2.17,3.57-2.15,4.72-2.68,1.63-.76,2.1-1.7,2.61-4.07.44-2.06.5-2.24.5-2.24-.19.07-6.62,1.81-7.51,4.45-.51,1.46-.62,3.03-.31,4.55m-10,0c2.05-2.17,3.57-2.15,4.72-2.68,1.63-.76,2.1-1.7,2.61-4.07.44-2.06.5-2.24.5-2.24-.19.07-6.65,1.82-7.52,4.45-.5,1.46-.61,3.03-.31,4.55m10.83,5l6,7h4l6-7h11.99v-3H11.51v3h11.99Z"/>
      </g>
    </g>
  </g>
</svg>