<?xml version="1.0" encoding="UTF-8"?>
<svg id="AC_icons" data-name="AC icons" xmlns="http://www.w3.org/2000/svg" viewBox="0 0 64 64">
  <defs>
    <style>
      .cls-1 {
        fill: #061a2f;
        stroke-width: 0px;
      }
    </style>
  </defs>
  <g id="Informational_icons" data-name="Informational icons">
    <g id="G">
      <g id="geology">
        <g id="Geology">
          <polygon class="cls-1" points="13.01 55.11 15.06 60.97 27.02 63.99 34.95 59.74 36.01 56.01 35.87 53.57 33.43 49.38 32.31 48.74 22.79 47 15.46 50.41 13.01 55.11"/>
          <polygon class="cls-1" points="57.56 60.82 53 62.99 45.3 62.6 41.32 61.81 39.78 60.24 39.14 56.89 39.01 53.99 43.01 53.99 47.3 50 50.82 50 58.01 57.02 57.56 60.82"/>
          <polygon class="cls-1" points="35.01 47.35 39.08 45.58 40.61 44 44.01 44.48 43.61 50.14 37.41 51 35.01 47.35"/>
          <path class="cls-1" d="m27.21,23.58l2.63-1.4s5.38-1.93,8.37-3.29c1.92-.86,4.12-2.06,4.86-2.48.99-.56,4.78-2.95,4.78-2.95l2.9-3.72-4.96-8.32L48.65,0s10.04,9.92,13.06,17.22c2.14,5.16,2.22,6.79,2.28,9.61.03,1.4-.15,2.81-.52,4.16-.59-1.04-8.99-15.78-8.99-15.78,0,0-4.98.83-5.01.86s-3.95,2.11-4.93,2.69c-.73.44-2.87,1.75-4.57,2.99-2.66,1.94-6.99,5.65-6.99,5.65l-2.6,1.63s-23.39,13.25-24.84,14c-.69.34-1.26.62-1.55.77-1.05.51-1.77-.1-1.96-.42-.29-.48-1.45-2.51-1.8-3.06-.45-.66-.28-1.55.38-2,.04-.02.07-.05.11-.07.11-.07.66-.38,1.51-.85,5.58-3.19,23.97-13.45,24.89-13.95l.07.13Z"/>
        </g>
      </g>
    </g>
  </g>
</svg>