<?xml version="1.0" encoding="UTF-8"?>
<svg id="AC_icons" data-name="AC icons" xmlns="http://www.w3.org/2000/svg" viewBox="0 0 64 64">
  <defs>
    <style>
      .cls-1 {
        fill: #061a2f;
        stroke-width: 0px;
      }
    </style>
  </defs>
  <g id="Informational_icons" data-name="Informational icons">
    <g id="G">
      <g id="golf">
        <g id="Golf_course_golf" data-name="Golf course golf">
          <path class="cls-1" d="m37.59,15.78v3.76l5.52-5.69.94-4.52-6.46,6.45m9.16,1.57l-9.16,8.77c.07,1.16,0,35.17,0,35.17,0,1.8-.97,2.7-2.92,2.7-1.52.13-2.87-.99-3-2.52-.01-.16-.01-.32,0-.48v-21h-1v9c-.09.37-.22.72-.41,1.05-3.2,3.61-6.36,6.9-9.49,9.87-.58.62-1.36,1.01-2.21,1.08-1.73,0-2.59-.84-2.59-2.5.02-.96.44-1.86,1.15-2.5,4-4.18,7.07-7.5,8.55-9v-24c-.14-1.1.09-2.22.66-3.17.8-.99,1.67-1.93,2.6-2.8,9.23-9.31,14.17-14.52,14.74-15.03h-26c0,3-.5,3.57-1.65,3.57s-1.73-.47-1.73-1.43c0-2.28.9-3.14,2.38-3.14h28c.55-.12,1.07-.34,1.55-.64.33-.21.72-.34,1.11-.36.68,0,1.33.29,1.77.82.49.49.7,1.2.57,1.88-1.63,8.55-2.6,13.43-2.92,14.65Zm-16.5-3.82c-.92.97-2.2,1.5-3.53,1.47-1.34.02-2.63-.52-3.57-1.48-.96-.94-1.5-2.23-1.48-3.57-.03-1.33.51-2.61,1.48-3.52.95-.93,2.24-1.45,3.57-1.43,1.31,0,2.57.53,3.47,1.48.96.9,1.49,2.16,1.48,3.47.02,1.33-.49,2.62-1.42,3.57h0Z"/>
        </g>
      </g>
    </g>
  </g>
</svg>