<?xml version="1.0" encoding="UTF-8"?>
<svg id="AC_icons" data-name="AC icons" xmlns="http://www.w3.org/2000/svg" viewBox="0 0 64 64">
  <defs>
    <style>
      .cls-1, .cls-2 {
        fill: #061a2f;
        stroke-width: 0px;
      }

      .cls-2 {
        fill-rule: evenodd;
      }
    </style>
  </defs>
  <g id="Informational_icons" data-name="Informational icons">
    <g id="H">
      <g id="health-balance">
        <g id="Layer_2" data-name="Layer 2">
          <path class="cls-2" d="m59.08,14.89h0C49.64-.02,29.83-4.48,14.9,4.94-.02,14.37-4.49,34.17,4.94,49.09c4.57,7.22,11.68,12.24,20.02,14.12,2.36.53,4.74.8,7.1.8,5.94,0,11.77-1.66,16.92-4.88l.13-.08s.03-.02.05-.03h0c14.86-9.45,19.3-29.22,9.91-44.11Zm-41.57,7.74s7.05,1.11,10.21,9.86c-2.57-4.05-6.07-7.43-10.21-9.86Zm5.35,17.58s-1.79-5.04-7-10.32c0,0,0,0,0,0h0s0,0,0,0c.17.06,5.21,1.87,7,10.32Zm-7.07,10.38C2.29,21.81,26.05,7.52,26.05,7.52h0C5.56,26.36,15.79,50.6,15.79,50.6ZM2.81,26.85c4.04-5.76,9.16-5.05,9.16-5.05-3.43.89-6.58,2.62-9.16,5.05Zm7.47,2.3c-4.82,3.28-6.33,6.92-6.33,6.92l-.03-.02c1.69-6.15,6.36-6.9,6.36-6.9Zm18.24,22.92c-3.77-6.41-1.89-14.7,4.26-18.86,3.84-2.44,6.51-6.23,7.5-10.67.99-4.44.2-9-2.24-12.84-2.23-3.51-5.6-6.03-9.51-7.2,11.22-1.26,22.45,3.98,28.61,13.6,8.73,13.85,4.57,32.24-9.26,40.98-6.72,3.95-15.41,1.69-19.36-5.02Z"/>
          <path class="cls-1" d="m46.42,46.57c-1.45.47-2.55.99-3.38,1.55-.17.06-.35.14-.52.23-1.71.95-2.32,3.11-1.36,4.82.06.11.12.21.19.31.66,1.13,1.87,1.74,3.09,1.7.05,0,.1,0,.15-.01.1,0,.21-.02.31-.04.28-.05.55-.11.82-.23,7.39-3.26,12.63-12.2,12.77-20.26,0,0-1.2,8.43-12.07,11.94Z"/>
        </g>
      </g>
    </g>
  </g>
</svg>