<?xml version="1.0" encoding="UTF-8"?>
<svg id="AC_icons" data-name="AC icons" xmlns="http://www.w3.org/2000/svg" viewBox="0 0 64 64">
  <defs>
    <style>
      .cls-1 {
        fill: #061a2f;
        stroke-width: 0px;
      }
    </style>
  </defs>
  <g id="Informational_icons" data-name="Informational icons">
    <g id="H">
      <g id="heating">
        <g id="Heating">
          <g id="Heating_-_New_Final" data-name="Heating - New Final">
            <path class="cls-1" d="m28.77,64c-8.38,0-15.18-6.79-15.18-15.17,0-5.1,2.56-9.86,6.81-12.67V8.46C20.4,3.79,24.18,0,28.85,0h.32c4.67,0,8.46,3.79,8.46,8.46v28.06c6.79,4.92,8.31,14.41,3.4,21.2-2.85,3.94-7.41,6.27-12.27,6.28Zm.09-60.92c-2.96,0-5.37,2.41-5.37,5.37v28.56c0,.55-.3,1.06-.77,1.33-5.79,3.34-7.76,10.74-4.42,16.53,3.34,5.79,10.74,7.76,16.53,4.42,5.79-3.34,7.76-10.74,4.42-16.53-.97-1.68-2.34-3.11-3.98-4.15-.44-.28-.71-.77-.71-1.3V8.46c0-2.97-2.41-5.37-5.37-5.37h-.32Z"/>
            <path class="cls-1" d="m25.67,15.7v28.05c-2.95,1.71-3.96,5.49-2.25,8.44,1.71,2.95,5.49,3.96,8.44,2.25,2.95-1.71,3.96-5.49,2.25-8.44-.5-.86-1.19-1.59-2.03-2.12V15.7h-6.41Z"/>
            <rect class="cls-1" x="40.44" y="15.7" width="9.98" height="3.09"/>
            <rect class="cls-1" x="40.44" y="9.07" width="9.98" height="3.09"/>
            <rect class="cls-1" x="40.44" y="22.32" width="9.98" height="3.09"/>
            <rect class="cls-1" x="40.44" y="28.95" width="9.98" height="3.09"/>
          </g>
        </g>
      </g>
    </g>
  </g>
</svg>