<?xml version="1.0" encoding="UTF-8"?>
<svg id="AC_icons" data-name="AC icons" xmlns="http://www.w3.org/2000/svg" viewBox="0 0 64 64">
  <defs>
    <style>
      .cls-1 {
        fill: #061a2f;
        fill-rule: evenodd;
        stroke-width: 0px;
      }
    </style>
  </defs>
  <g id="Informational_icons" data-name="Informational icons">
    <g id="H">
      <g id="helipad">
        <g id="Helicopter_helicopter_landing_helipad" data-name="Helicopter helicopter landing helipad">
          <path class="cls-1" d="m16.48,16.01h47.52l-1.49,2.02H14.99l1.49-2.02Zm22.52,16.99c-5.73-.02-9.11-.47-10.66-3.03-1.48-2.45-2.33-5.97-2.33-5.97h20.99c.54-.01.99.42,1,.96,0,.01,0,.03,0,.04v7c.01.54-.42.99-.96,1-.01,0-.03,0-.04,0h-8Zm7,8h-13v4c-.06.49.3.94.79,1,.07,0,.14,0,.21,0h11c.54.01.99-.42,1-.96,0-.01,0-.03,0-.04m3-20v7c-.01.54.42.99.96,1,.01,0,.03,0,.04,0h10s-.43-2.42-1-5c0,0-1-4-5-4h-4c-.54-.01-.99.42-1,.96,0,.02,0,.04,0,.05h0Zm-37.77,1.62c-1.07,1.89-3.07,3.06-5.25,3.05-3.31,0-5.98-2.61-5.98-5.83s2.68-5.83,5.98-5.83c2.53,0,4.14.84,5.02,3h26.01l1-2h3l1,2,10.17.69c3.25,0,8.21,1.48,9.16,6.79.71,3.92,1.53,8.28,1.53,9.48,0,1.12-.91,3.03-3.87,3.03-1.3,0-5.54-.02-11,0v4c0,1,1,1,1,1h5c1,0,2.04-1.25,2.28-1.53s.66-.7,1.19-.27.53.86.34,1.2-1.99,2.59-3.83,2.59h-26.91c-1.93,0-3.25-1.53-3.46-1.86s-.19-.79.33-1.21.96,0,1.19.29c.46.54,1.14.83,1.85.78h4v-5c-2.27-.1-3.74-1.92-4.32-2.76s-4.06-7.55-4.06-7.55c0,0-.46-1.17-2.98-1.55-1.94-.29-4.38-1.49-8.39-2.53"/>
        </g>
      </g>
    </g>
  </g>
</svg>