<?xml version="1.0" encoding="UTF-8"?>
<svg id="AC_icons" data-name="AC icons" xmlns="http://www.w3.org/2000/svg" viewBox="0 0 64 64">
  <defs>
    <style>
      .cls-1 {
        fill: #061a2f;
        stroke-width: 0px;
      }
    </style>
  </defs>
  <g id="Informational_icons" data-name="Informational icons">
    <g id="H">
      <g id="historic-place">
        <g id="Historic_place_pa_site" data-name="Historic place pa site">
          <path class="cls-1" d="m49,15V3h-4L44,0h-3l-1,3h-16C23.8,2.19,23.21.82,23,0h-3l-1,3h-4v12c-4.13,2.5-9,5.4-13,8v2h2l1,13h25v-10h5v10h24l1-13h2v-2l-13-8ZM15,35h-6v-9h6v9Zm12-2h-5v-7h5v7Zm8-17h-5v-5l2-2h1l2,2v5Zm8,17h-5v-7h5v7Zm13,2h-6v-9h6v9Z"/>
          <path class="cls-1" d="m58.59,49.4c-.2-.76-.59-1.45-1.14-2-1.44-1.22-3.11-2-4.29-.64-2.07,2.48-.76,5.23.24,5.55-.31,2.29-2.82,4.08-4.4,5.69,0-.28-.07-.58-.09-.87.04-.94.16-1.87.37-2.78.29-1.43.34-2.9.14-4.35-.91-2.86-2.72-4.07-4.53-6.35-1.69-1.29-2.58-2.21-4.76-2.79l-1.59-.46c-4.44-.63-8.96-.49-13.35.42-1.07.26-2.12.52-3.16.81-1.91.59-4.17,1.46-5.31,3.23-.83,1.72-.73,3.79-.86,5.59-.03,1.9.08,3.79.33,5.67.22,1.79-1.42.71-1.71,1.31-.76-1.39-2.13-2.53-2.85-3.94.28-.72,1.13-1.7,1.33-2.42.32-1.41-.1-2.89-1.11-3.92-1.6-1.94-4.5-.86-6.3,1.34-1.09,2-.37,4,.55,5.95,2.34,4.07,5.82,7.36,10,9.49,2.9,0,5.86-.16,8.53-1.42s5.58-3.79,8-5.52c3.79,1.33,5.12,7.24,12.65,7l1.51-.22c4.92-1.27,8.72-5.07,11.42-9.29,1-1.6.81-3.24.31-5.09m-14.59,2.7l-.67,2.47-.61,1.37c-.78,2-1.86,1.23-3.07.22-.2-.38-2-1.85-2.31-2.17,2-.78,5.73-1.29,4.86-4-.22-.64-.53-1.24-.93-1.79-1.16-.68-2.51-.94-3.84-.74-1.23-.06-1.84.66-2.84,1.39-.67.53-1.29,1.1-1.94,1.62-1.69-1.34-3.7-3.1-5.92-3.31-3.05-.09-4.46,2.64-4,5.4.25,1.39,3.3,1.2,4.55,1.59.22,1-.6,1.9-1.65,2.47-2.62,1.76-3.18,2-3.79-.28l-.6-2.18c-.22-1.15-.36-2.31-.42-3.48l-.13-1.85c1.4-3.87,6.14-4,8.69-4.61,4.4-.91,8.3.07,12.35,2.43l1.25,1.14c.49.7.83,1.5,1,2.34l.02,1.97Z"/>
        </g>
      </g>
    </g>
  </g>
</svg>