<?xml version="1.0" encoding="UTF-8"?>
<svg id="AC_icons" data-name="AC icons" xmlns="http://www.w3.org/2000/svg" viewBox="0 0 64 64">
  <defs>
    <style>
      .cls-1 {
        fill: #061a2f;
        stroke-width: 0px;
      }
    </style>
  </defs>
  <g id="Informational_icons" data-name="Informational icons">
    <g id="H">
      <g id="horse-racing-racecourse">
        <g id="Racecourse_horseracing" data-name="Racecourse horseracing">
          <path class="cls-1" d="m62.78,22.21s-10.19-6.98-10.97-7.41-1.01-.15-1.19.05,0,.52,0,.52l1.28,1.61-9.01,6.55-4.86-6.72c-.34-.46-.59-.7-1.04-.64h0s-6.8,1.17-8.49,1.46c-1.73.28-2.4,1.24-2.4,2.61,0,1.13.64,1.95,1.69,2.45l3.68,1.62h-9.19c-1.25,0-2.47.39-3.48,1.13h0c-1.1.72-1.28.77-2.47,1.02h-.03s-1.26.24-3.08,1.72c-.44.35-.32.28-.71.62-1.22,1.06-2.31,1.07-3.16,1.07-.31,0-3.66-.34-3.89-.33-1.17.07-2.03.66-2.82,1.22-1.58,1.11-2.84,2.66-2.63,2.92.08.1.33.09.82.05.7-.06,1.4.1,2,.46,1.52.95,3.66,1.25,4.64,1.28,1.95.06,3.44-.89,4.24-1.39,2.03-1.28,3.03-3.04,3.58-4,.3-.53.56-1.07.79-1.63.06.24.16.68.28,1.15-.16,1.17.05,2.37.59,3.42h0c.53,1.03,1.34,1.88,2.34,2.45.14.14,1.31,1.15,1.77,1.53-.23.64-.49,1.41-.8,2.29-.22.61.05,1.29.63,1.59l1.53.61-.06,3.1c.03.29.15.57.35.78l6.84,7.25c.49.52,1.32.55,1.84.06s.55-1.32.06-1.84l-6.52-6.92.04-1.41,5.05,2,.17,1.34c.09.65.64,1.13,1.29,1.13.06,0,.11,0,.17,0,.71-.09,1.22-.75,1.13-1.46l-.26-2.02c-.06-.42-.32-.79-.7-.99l-6.4-2.53c.28-.84,1.81-4.79,1.81-4.79.08-.28.24-.19.41-.09,1.71,1.02,4.72,2.16,9.64,3.38.43.1,3.51,4.06,5.18,5.82l-5.88-.23c-.72-.02-1.32.54-1.35,1.26-.02.72.54,1.32,1.26,1.35h0l8.41.33h.04c.44,0,.85-.22,1.09-.58.25-.38.28-.73.1-1.27l-2.19-5.63s5.3.84,6.48,1.04c.06,0,.11.05.11.11,0,.03,0,.06-.03.08l-4.34,7.65c-.38.61-.19,1.42.43,1.8.61.38,1.42.19,1.8-.43.02-.03.03-.05.05-.08l4.44-7.87s.02-.03.02-.04c.43-.73.48-1.63.15-2.4-.24-.51-.62-.94-1.1-1.24l-4.01-2.25c.37-.77,5.53-10.37,5.55-10.38.07,0,7.71,1.19,7.71,1.19,1.26.15,1.99-.27,2.51-1.17.64-1.15.23-2.61-.92-3.26Zm-29.29-.4l5.08-.87,2.68,3.38h-2.82l-4.95-2.51Z"/>
          <path class="cls-1" d="m38.24,14.48c0,1.39,1.11,2.52,2.5,2.53,1.29,0,2.38-.96,2.52-2.25l.55.21h0l1.73.7c.17.07.37-.01.44-.19.07-.17-.01-.37-.19-.44h0l-1.91-1.24c-.08-1.11-.76-2.08-1.76-2.55-1.46-.65-3.2,0-4.06,1.48l.68.26c-.32.43-.49.95-.49,1.49Z"/>
        </g>
      </g>
    </g>
  </g>
</svg>