<?xml version="1.0" encoding="UTF-8"?>
<svg id="AC_icons" data-name="AC icons" xmlns="http://www.w3.org/2000/svg" viewBox="0 0 64 64">
  <defs>
    <style>
      .cls-1 {
        fill: #061a2f;
        fill-rule: evenodd;
        stroke-width: 0px;
      }
    </style>
  </defs>
  <g id="Informational_icons" data-name="Informational icons">
    <g id="H">
      <g id="horse-riding">
        <g id="Horse_riding" data-name="Horse riding">
          <path class="cls-1" d="m29.5,13.21c.2-2.04-1.29-3.86-3.34-4.06-.24-.02-.48-.02-.73,0-2.04-.2-3.86,1.29-4.06,3.34-.02.24-.02.48,0,.73v12.19s-6.19-.94-9.38.06c-1.3.36-2.54.93-3.66,1.69,0,0-1.5-2.56-3.47-2.76-2.2-.42-4.33,1.02-4.75,3.23-.05.28-.08.55-.07.83v14.22h2.03v-14.22c-.09-1.12.74-2.1,1.86-2.19.14-.01.27,0,.41,0,1.13,0,2.03,1.08,2.5,2.36-2.32,2.53-1.87,7.11-1.44,9.21.63,3.16,3.05,6.3,3.8,7.88l-4.07,5.08v13.21h3.05v-11.17l7.11-8.13v8.13l11.17,11.17h4.06l-12.19-12.19,4.06-10.16h14.22l1.35,10.75-2.87,11.6h3.45l2.9-11.56.69-10.21,2.28,21.77h3.48l-2.3-21.83c1.27-4.23,1.67-8.67,1.18-13.05-.29-1.95,2.21-7.57,4.14-8.97,3.3-2.38,5.08-1.78,9.14.1.83.39.86,1.14,1.8.92.66-.15.73-.56,2.1-2.03l-.2-1.9c-.76-.79-1.7-1.38-2.75-1.71-1.71-.91-3.26-2.1-4.59-3.51-.88-.95-.29-1.21-1.07-2.32-1.08-.79-2.22-1.49-3.4-2.12l.18-2.61-2.31,3.25c-2.15.98-4.11,2.33-5.81,3.97-1.73,1.78-4.79,6.1-5.36,6.1h-9.14v-5.08Zm4.24,11.17c-1.31.67-2.76,1.02-4.24,1.02,0,.07,0-4.06,0-4.06h7.11c0,1.02-2.46,2.8-2.87,3.05m-4.24-20.32c0,2.24-1.82,4.06-4.06,4.06s-4.06-1.82-4.06-4.06,1.82-4.06,4.06-4.06,4.06,1.82,4.06,4.06Z"/>
        </g>
      </g>
    </g>
  </g>
</svg>