<?xml version="1.0" encoding="UTF-8"?>
<svg id="AC_icons" data-name="AC icons" xmlns="http://www.w3.org/2000/svg" viewBox="0 0 64 64">
  <defs>
    <style>
      .cls-1 {
        fill: #061a2f;
        stroke-width: 0px;
      }
    </style>
  </defs>
  <g id="Informational_icons" data-name="Informational icons">
    <g id="I">
      <g id="ice-skating">
        <g id="Ice_skating" data-name="Ice skating">
          <path class="cls-1" d="m40.41,61.78h15.15c.55.07,1.06-.31,1.13-.86,0-.07.01-.14,0-.21v-1.2h2.24s.51,4.1-2.54,4.49h-15.98v-2.22Z"/>
          <path class="cls-1" d="m2.61,50.06l10.71,10.71c.34.44.97.53,1.41.19.06-.04.11-.09.15-.15l.85-.85,1.59,1.59s-2.54,3.26-4.97,1.39L1.04,51.63l1.57-1.57Z"/>
          <path class="cls-1" d="m43.97,46.34v10.62c0,2,1.62,3.62,3.62,3.62,1.83,0,3.62-2.12,3.62-3.62v-14.78c0-.99-.4-1.94-1.12-2.62l-8.68-8.65,11.51-11.51c2.15-2.7,1.02-5.93,1.02-5.93-1.2-3.59-5.27-3.72-5.27-3.72h-29.64c-1.58-.06-2.91,1.18-2.97,2.77-.06,1.58,1.18,2.91,2.77,2.97.07,0,.13,0,.2,0l20.47.03-8.62,8.58c-1.23,1.19-1.9,2.83-1.87,4.54,0,1.71.68,3.34,1.89,4.54l13.07,13.16Z"/>
          <path class="cls-1" d="m29.08,34.79c-.26-.27-.51-.56-.74-.86l-17.11,17.14c-1.54,1.22-1.8,3.45-.59,5,1.06,1.35,2.94,1.74,4.45.94.24-.12.46-.27.66-.44l17.56-17.59-4.24-4.2Z"/>
          <path class="cls-1" d="m57.07,11.74c3.24,0,5.88-2.61,5.88-5.86C62.96,2.64,60.34,0,57.1,0s-5.88,2.61-5.88,5.86c0,0,0,.02,0,.02,0,3.23,2.62,5.85,5.86,5.86"/>
        </g>
      </g>
    </g>
  </g>
</svg>