<?xml version="1.0" encoding="UTF-8"?>
<svg id="AC_icons" data-name="AC icons" xmlns="http://www.w3.org/2000/svg" viewBox="0 0 64 64">
  <defs>
    <style>
      .cls-1 {
        fill: none;
      }

      .cls-1, .cls-2, .cls-3, .cls-4 {
        stroke-width: 0px;
      }

      .cls-2 {
        fill: #061a2f;
      }

      .cls-3 {
        fill: #6f973e;
      }

      .cls-4 {
        fill: #02314b;
      }
    </style>
  </defs>
  <g id="Infographic_icons" data-name="Infographic icons">
    <g id="infograph-waste">
      <g>
        <path class="cls-1" d="m48.46,28.8h3.66v1.83h-3.66v-1.83Z"/>
        <path class="cls-1" d="m56.69,39.77c0-2.02-1.64-3.66-3.66-3.66s-3.66,1.64-3.66,3.66,1.64,3.66,3.66,3.66,3.66-1.64,3.66-3.66Zm-5.94,0c0-1.26,1.02-2.29,2.29-2.29s2.29,1.02,2.29,2.29-1.02,2.29-2.29,2.29-2.29-1.02-2.29-2.29Z"/>
        <path class="cls-1" d="m8.28,35.63l-1.75,1.41-.73,3.64.52,1.55,1.35-.3,1.7-2.57,1.53,1.01-2.1,3.19-2.33.52-.6,2.94,2.66,1.9h9.64l-.38-3.15-3.52-1.56.74-1.67,2.53,1.12-.97-8.12-4.83-2.17h-1.85l-1.6,2.26Zm4.56,11.89l-3.66-.42.21-1.82,3.66.42-.21,1.82Zm2.34-9.71l-1.52,1.01-1.97-2.95,1.52-1.01,1.97,2.95Z"/>
        <polygon class="cls-1" points="10.35 28.8 8.64 29.43 9.91 31.54 11.17 31.54 11.67 28.8 10.35 28.8"/>
        <rect class="cls-2" x="10.21" y="44.56" width="1.83" height="3.68" transform="translate(-36.25 52.12) rotate(-83.41)"/>
        <rect class="cls-2" x="12.53" y="35.06" width="1.83" height="3.55" transform="translate(-18.18 13.64) rotate(-33.69)"/>
        <polygon class="cls-4" points="5.67 43.13 5.7 43.28 5.71 43.25 5.67 43.13"/>
        <path class="cls-3" d="m38.86,22.4h-3.37c-.04-.12-.1-.24-.16-.36-.01-.02-.03-.05-.04-.07-.06-.1-.12-.2-.19-.29-.02-.03-.05-.06-.07-.09-.1-.13-.22-.25-.35-.35-.13-.11-.26-.2-.4-.29-.07-.04-.14-.08-.21-.11-.07-.03-.14-.06-.21-.09-.09-.03-.18-.06-.27-.08-.06-.02-.12-.03-.19-.05-.16-.03-.32-.05-.49-.05h-13.71c-1.51,0-2.74,1.23-2.74,2.74h21.03v1.83h1.37c.76,0,1.37-.61,1.37-1.37s-.61-1.37-1.37-1.37Z"/>
        <path class="cls-3" d="m28.66,31.67c-.17-.3-.49-.47-.83-.45-.37.02-2.45-.03-2.76,0,.36.03.68.24.84.57h0l1.4,2.43-.38.22,2.06.25.81-1.91-.38.22-.75-1.33Z"/>
        <path class="cls-3" d="m23.45,41.41h2.66v-2.43h-3.05l-.46.79c-.2.3-.23.69-.07,1.01.17.36.52.6.92.62Z"/>
        <path class="cls-3" d="m27.78,41.41h1.53c.34.02.66-.18.8-.49.17-.33,1.25-2.11,1.39-2.39-.21.3-.55.47-.92.45h-2.8v-.44l-1.25,1.66,1.25,1.66v-.44Z"/>
        <path class="cls-3" d="m30.24,34.44l-2.1,1.21,1.53,2.64h.91c.36.02.71-.15.91-.44.23-.32.26-.75.08-1.11h0l-1.33-2.31Z"/>
        <path class="cls-3" d="m25.77,32.91l-.46-.79c-.16-.33-.48-.54-.84-.57-.4-.04-.78.15-1,.49h0l-1.33,2.31,2.1,1.21,1.53-2.65Z"/>
        <path class="cls-3" d="m22.01,39.43h0s1.4-2.43,1.4-2.43l.38.22-.81-1.91-2.06.25.38.22-.77,1.31c-.18.29-.16.66.03.95.2.31,1.2,2.14,1.37,2.39-.16-.33-.13-.71.08-1.01Z"/>
        <polygon class="cls-4" points="16.3 33.37 16.2 33.37 16.31 33.42 16.3 33.37"/>
        <path class="cls-2" d="m41.65,12.34H11.51L1.18,22.67l1.29,1.29,9.79-9.79h28.6l1.2,1.28v17.92h-6.25l.55-4.57h1.13v-5.49H14.63v5.49h1.13l.55,4.57v.05s-.1-.05-.1-.05l-3.24-1.45.91-4.95h-3.87l-1.4.56-2.73.87,2.44,4.03-.65.95H0v8.23h4.18l.58,1.71-.58,2.86-.33,1.64,4.1,2.93h12.29l-2.63-21.94h6.17v-1.83h-7.31v-1.83h19.2v1.83h-2.74v1.83h1.6l-1.87,15.61c-.21-.04-.42-.07-.64-.07-2.02,0-3.66,1.64-3.66,3.66,0,.32.05.62.13.91h-3.79v1.83h4.92c.64.56,1.47.91,2.39.91s1.75-.35,2.39-.91h3.09v-1.83h-1.96c.08-.29.13-.6.13-.91,0-.67-.19-1.29-.51-1.83-.2-.35-.46-.66-.76-.92l.44-3.65h9.06V14.72l-2.23-2.38ZM10.35,28.8h1.33l-.51,2.74h-1.26l-1.28-2.11,1.71-.63Zm6.22,6.74l.97,8.12-2.53-1.12-.74,1.67,3.52,1.56.38,3.15h-9.64l-2.66-1.9.6-2.94,2.33-.52,2.1-3.19-1.53-1.01-1.7,2.57-1.35.3-.52-1.55.73-3.64,1.75-1.41,1.6-2.26h1.85l4.83,2.17Z"/>
        <circle class="cls-2" cx="53.03" cy="39.77" r="2.29"/>
        <rect class="cls-2" x="48.46" y="28.8" width="3.66" height="1.83"/>
        <polygon class="cls-3" points="57.46 16.91 48.46 16.91 48.46 26.97 61.26 26.97 61.26 25.56 57.46 16.91"/>
        <path class="cls-4" d="m52.64,35.2h.64c-.21-.01-.43-.02-.64,0Z"/>
        <path class="cls-2" d="m63.09,33.37v-8.19l-5.23-11.92h-12.14v1.83h10.95l.8,1.83,3.79,8.65v7.81h-15.54v8.23h2.15c.11.32.25.63.42.91.95,1.64,2.72,2.74,4.74,2.74s3.79-1.11,4.74-2.74c.17-.29.31-.59.42-.91h3.44l2.36-2.36v-5.86h-.91Zm-10.06,10.06c-2.02,0-3.66-1.64-3.66-3.66s1.64-3.66,3.66-3.66,3.66,1.64,3.66,3.66-1.64,3.66-3.66,3.66Z"/>
      </g>
    </g>
  </g>
</svg>