<?xml version="1.0" encoding="UTF-8"?>
<svg id="AC_icons" data-name="AC icons" xmlns="http://www.w3.org/2000/svg" viewBox="0 0 64 64">
  <defs>
    <style>
      .cls-1 {
        fill: #061a2f;
      }

      .cls-1, .cls-2 {
        stroke-width: 0px;
      }

      .cls-2 {
        fill: #6f973e;
      }
    </style>
  </defs>
  <g id="Infographic_icons" data-name="Infographic icons">
    <g id="infograph-about">
      <g>
        <path class="cls-1" d="m34.92,2.46l.75,3.49.33,1.53,1.52.35c.39.09.77.19,1.15.3l1.47.41,1.02-1.13,2.51-2.78,5.62,3.25-1.09,3.37-.49,1.51,1.17,1.07c.29.27.59.55.88.84l1.06,1.07,1.44-.46,3.52-1.14,3.25,5.62-2.41,2.18-1.2,1.09.52,1.53c.16.46.3.94.43,1.41l.4,1.44,1.46.31,3.3.71v6.49l-2.73.59-1.62.35-.29,1.63c-.11.64-.25,1.24-.39,1.83l-.37,1.44,1.11,1,2.14,1.93-3.26,5.63-2.18-.7-1.57-.51-1.07,1.26c-.48.57-1.01,1.14-1.56,1.68l-1.07,1.07.47,1.44.73,2.26-5.62,3.25-1.25-1.38-1.11-1.23-1.55.56c-.83.3-1.68.56-2.54.77l-1.49.37-.32,1.5-.41,1.91h-6.5l-.35-1.62-.34-1.6-1.6-.31c-.92-.17-1.82-.4-2.72-.67l-1.5-.46-1.05,1.16-1.2,1.32-5.63-3.25.51-1.6.49-1.52-1.19-1.06c-.68-.62-1.34-1.27-1.95-1.95l-1.07-1.19-1.52.49-1.78.57-3.25-5.62,1.47-1.33,1.16-1.05-.45-1.5c-.24-.78-.44-1.59-.61-2.4l-.32-1.58-1.58-.34-2.17-.46v-6.5l2.39-.51,1.5-.32.37-1.49c.16-.64.36-1.3.59-2l.52-1.53-1.2-1.08-2-1.81,3.25-5.62,2.84.92,1.46.47,1.07-1.11c.4-.42.79-.8,1.19-1.16l1.17-1.07-.49-1.51-.98-3.04,5.63-3.25,2.26,2.5,1.04,1.14,1.48-.43c.44-.13.87-.24,1.3-.34l1.52-.36.33-1.52.75-3.49h6.5m1.99-2.46h-10.48l-1.16,5.44c-.47.11-.94.24-1.42.38l-3.6-3.98-9.07,5.24,1.6,4.94c-.43.4-.86.82-1.3,1.27l-4.74-1.53L1.5,20.82l3.48,3.15c-.26.76-.47,1.49-.65,2.2L0,27.09v10.48l4.12.88c.18.9.4,1.78.67,2.63l-2.95,2.66,5.23,9.07,3.67-1.19c.67.75,1.39,1.46,2.14,2.13l-1.13,3.49,9.07,5.24,2.53-2.8c.98.3,1.97.55,2.98.74l.76,3.56h10.48l.82-3.85c.94-.23,1.87-.52,2.78-.85l2.58,2.86,9.07-5.24-1.34-4.15c.6-.6,1.17-1.21,1.7-1.85l4.07,1.32,5.24-9.07-3.62-3.27c.16-.64.31-1.3.43-2l4.68-1v-10.48l-5.25-1.12c-.14-.52-.3-1.03-.48-1.54l3.89-3.52-5.24-9.07-5.42,1.75c-.32-.32-.64-.63-.96-.92l1.7-5.26-9.07-5.24-3.85,4.26c-.42-.12-.84-.23-1.26-.32l-1.16-5.43h0Z"/>
        <path class="cls-1" d="m28.24,13.21v16.62l-14.4,8.31c-.67-1.98-1.01-4.05-1-6.14,0-9.13,6.45-16.99,15.4-18.79m2.46-2.79c-11.92.71-21,10.95-20.29,22.87.17,2.91.94,5.76,2.24,8.38l18.04-10.42V10.42Z"/>
        <path class="cls-2" d="m32,48.62c8.67,0,15.88-6.67,16.55-15.31h-16.2l-14.04,8.11c3.1,4.51,8.22,7.21,13.69,7.21Z"/>
        <path class="cls-2" d="m48.55,30.71c-.63-8.15-7.1-14.62-15.25-15.26v15.26h15.25Z"/>
        <path class="cls-1" d="m13.97,43.91c6.58,9.96,19.99,12.7,29.95,6.12,9.96-6.58,12.7-19.99,6.12-29.95-3.75-5.67-9.95-9.25-16.74-9.66l-.07,2.54c10.51.68,18.48,9.76,17.8,20.27-.68,10.51-9.76,18.48-20.27,17.8-5.89-.38-11.28-3.47-14.58-8.37l-2.21,1.25Z"/>
      </g>
    </g>
  </g>
</svg>