<?xml version="1.0" encoding="UTF-8"?>
<svg id="AC_icons" data-name="AC icons" xmlns="http://www.w3.org/2000/svg" viewBox="0 0 64 64">
  <defs>
    <style>
      .cls-1 {
        fill: #f5a956;
      }

      .cls-1, .cls-2, .cls-3 {
        stroke-width: 0px;
      }

      .cls-2 {
        fill: #fff;
      }

      .cls-3 {
        fill: #012639;
      }
    </style>
  </defs>
  <g id="Infographic_icons" data-name="Infographic icons">
    <g id="dog-on-leash">
      <g>
        <path class="cls-1" d="m0,0h64v64H0V0Z"/>
        <path class="cls-3" d="m5.26,5.25h53.49v53.49H5.26V5.25Z"/>
        <path class="cls-2" d="m44.73,36.93l-.38.88-11.07-4.76.38-.88s11.06,4.76,11.06,4.76Zm4.11,3.96l-2.68-2.67c.75-.84,1.56-1.62,2.43-2.35.25-.17.51-.33.78-.47-.05.3-.08.6-.1.91,0,.14.06.28.18.36l2.91,1.03.9.35c-.16.29-.7,1.14-.97,1.57-.14.2-.37.32-.62.29h-1.81c-.12.04-.22.1-.32.18l-.71.73m-.99.32l-2.39-2.35h-9.92c-.71-.03-1.42-.14-2.11-.32.21.59.67,1.05,1.25,1.27.56.22,1.7.56,1.7.56v3.05s-.1,1.38-.78,1.75c-.25.09-.49.22-.71.36v2.5c.02.48.42.85.89.84.47.04.89-.31.93-.79,0-.02,0-.03,0-.05v-1.82c0-.2.15-.37.35-.4.63.01,1.25-.2,1.75-.59.54-.51,1.21-1.27,1.21-1.27h6.08v3.74s0,1.16.9,1.16c.5-.02.89-.44.87-.94,0-.04,0-.07-.01-.11v-6.61h-.02Zm-22.06-23.17c.02-1.62-1.27-2.95-2.9-2.97-1.62-.02-2.95,1.27-2.97,2.9-.02,1.62,1.27,2.95,2.9,2.97.01,0,.03,0,.04,0,1.61.01,2.92-1.28,2.94-2.89,0,0,0,0,0,0m-5.74,18.2c-1.06,2.3-5.2,11.36-5.56,12.13-.43.62-1.27.81-1.93.44-.63-.32-.91-1.07-.65-1.73.38-.78,5.01-11.09,5.39-11.96.23-.52.34-1.08.31-1.65v-7.91s-1.82,1.57-2.94,2.47c0,0-.91,4.07-1.12,4.76-.31.63-1,.97-1.69.84-.8-.21-1.27-1.03-1.06-1.83,0,0,0,0,0,0,.37-1.38,1.33-5.3,1.33-5.3.78-.78,4.56-4.19,5.38-4.88.53-.25,1.11-.38,1.7-.39l5.04,1.42c.44.23.8.6,1.02,1.05l2.71,4.59c.19.31,3.23,1.69,3.83,2,.68.35.96,1.19.62,1.88-.31.67-1.08,1.01-1.78.78-1.14-.55-4.79-2.57-4.81-2.59-.21-.34-1.57-2.76-1.93-3.32v8.68s4.49,9.86,5.18,11.36c.25.65,0,1.39-.59,1.75-.7.41-1.6.18-2.02-.52-.01-.02-.02-.04-.03-.06-.49-1-4.48-9.62-5.55-11.96h-.85v-.04Z"/>
      </g>
    </g>
  </g>
</svg>