<?xml version="1.0" encoding="UTF-8"?>
<svg id="AC_icons" data-name="AC icons" xmlns="http://www.w3.org/2000/svg" viewBox="0 0 64 64">
  <defs>
    <style>
      .cls-1 {
        fill: #e16b5a;
      }

      .cls-1, .cls-2, .cls-3, .cls-4, .cls-5, .cls-6 {
        stroke-width: 0px;
      }

      .cls-2 {
        fill: #f5f5f5;
      }

      .cls-3 {
        fill: #263740;
      }

      .cls-4 {
        fill: #d16354;
      }

      .cls-5 {
        fill: #354d59;
      }

      .cls-6 {
        fill: #c2d5d8;
      }
    </style>
  </defs>
  <g id="Infographic_icons" data-name="Infographic icons">
    <g id="streams">
      <g>
        <path class="cls-6" d="m32,63.92c17.67,0,32-14.31,32-31.96S49.67,0,32,0,0,14.31,0,31.96s14.33,31.96,32,31.96Z"/>
        <path class="cls-1" d="m32,46.94c8.28,0,15-6.71,15-14.98s-6.72-14.98-15-14.98-15,6.71-15,14.98,6.72,14.98,15,14.98Z"/>
        <path class="cls-4" d="m32,16.98c-.17,0-.33,0-.5.01,8.05.26,14.5,6.86,14.5,14.97s-6.45,14.7-14.5,14.97c.17,0,.33.01.5.01,8.28,0,15-6.71,15-14.98s-6.72-14.98-15-14.98Z"/>
        <path class="cls-3" d="m58.65,14.27C52.92,5.67,43.12,0,32,0S11.08,5.67,5.35,14.27h53.3Z"/>
        <path class="cls-3" d="m58.65,49.73c-5.73,8.49-15.53,14.27-26.65,14.27s-20.92-5.78-26.65-14.27h53.3Z"/>
        <path class="cls-6" d="m14.5,11.28c0,.55-.45,1-1,1h-2c-.55,0-1-.45-1-1v-2c0-.55.45-1,1-1h2c.55,0,1,.45,1,1v2Z"/>
        <path class="cls-6" d="m24.5,11.28c0,.55-.45,1-1,1h-2c-.55,0-1-.45-1-1v-2c0-.55.45-1,1-1h2c.55,0,1,.45,1,1v2Z"/>
        <path class="cls-6" d="m34.5,11.28c0,.55-.45,1-1,1h-2c-.55,0-1-.45-1-1v-2c0-.55.45-1,1-1h2c.55,0,1,.45,1,1v2Z"/>
        <path class="cls-6" d="m44.5,11.28c0,.55-.45,1-1,1h-2c-.55,0-1-.45-1-1v-2c0-.55.45-1,1-1h2c.55,0,1,.45,1,1v2Z"/>
        <path class="cls-6" d="m51.5,12.28h2c.55,0,1-.45,1-1v-2s0-.03,0-.04c-.33-.33-.67-.65-1.01-.96h-1.98c-.55,0-1,.45-1,1v2c0,.55.45,1,1,1Z"/>
        <path class="cls-6" d="m14.5,52.72c0-.55-.45-1-1-1h-2c-.55,0-1,.45-1,1v2c0,.55.45,1,1,1h2c.55,0,1-.45,1-1v-2Z"/>
        <path class="cls-6" d="m24.5,52.72c0-.55-.45-1-1-1h-2c-.55,0-1,.45-1,1v2c0,.55.45,1,1,1h2c.55,0,1-.45,1-1v-2Z"/>
        <path class="cls-6" d="m34.5,52.72c0-.55-.45-1-1-1h-2c-.55,0-1,.45-1,1v2c0,.55.45,1,1,1h2c.55,0,1-.45,1-1v-2Z"/>
        <path class="cls-6" d="m44.5,52.72c0-.55-.45-1-1-1h-2c-.55,0-1,.45-1,1v2c0,.55.45,1,1,1h2c.55,0,1-.45,1-1v-2Z"/>
        <path class="cls-6" d="m51.5,51.72h2c.55,0,1,.37,1,.92v2s0,.07,0,.08c-.33.33-.67.5-1.01,1h-1.98c-.55,0-1-.53-1-1.08v-2c0-.55.45-.92,1-.92Z"/>
        <path class="cls-2" d="m27.5,23.88c0-.38.25-.52.57-.31l12.24,8.01c.32.21.32.55,0,.76l-12.24,8.01c-.32.21-.57.07-.57-.31v-16.16Z"/>
        <path class="cls-5" d="m5.69,13.77c-.11.17-.23.33-.34.5h53.3c-.11-.17-.23-.33-.34-.5H5.69Z"/>
        <path class="cls-5" d="m58.3,50.23c.12-.17.24-.33.35-.5H5.35c.11.17.23.33.35.5h52.61Z"/>
      </g>
    </g>
  </g>
</svg>