<?xml version="1.0" encoding="UTF-8"?>
<svg id="AC_icons" data-name="AC icons" xmlns="http://www.w3.org/2000/svg" viewBox="0 0 64 64">
  <defs>
    <style>
      .cls-1 {
        fill: #061a2f;
        stroke-width: 0px;
      }
    </style>
  </defs>
  <g id="Informational_icons" data-name="Informational icons">
    <g id="I">
      <g id="information">
        <g id="Information">
          <path class="cls-1" d="m45.99,11.99c5,0,9-2.69,9-6S50.99,0,45.99,0s-9,2.67-9,6,4,6,9,6"/>
          <path class="cls-1" d="m49.99,14.99c-.86,1.28-15.3,22.06-18.09,28.06-2.79,6-4,9.75.43,9.54,4.43-.21,4.39-.61,5.67-1.07,1.17-.45,2.31-.96,3.43-1.54l-4.17,11.38c-4.31,1.5-8.81,2.38-13.37,2.61-7.81.43-11.44-3.65-11.56-8.36s3.32-12.31,3.76-13.28l1.93-4.35h-9l.11-.72s11.12-7.18,15.83-12.63c.6-.7,8.67-9.64,8.67-9.64h16.37"/>
        </g>
      </g>
    </g>
  </g>
</svg>