<?xml version="1.0" encoding="UTF-8"?>
<svg id="AC_icons" data-name="AC icons" xmlns="http://www.w3.org/2000/svg" viewBox="0 0 64 64">
  <defs>
    <style>
      .cls-1 {
        fill: #e05b49;
      }

      .cls-1, .cls-2, .cls-3, .cls-4, .cls-5, .cls-6, .cls-7, .cls-8 {
        stroke-width: 0px;
      }

      .cls-2 {
        fill: #1c75a1;
      }

      .cls-3 {
        fill: #e56353;
      }

      .cls-4 {
        fill: #ebf0f3;
      }

      .cls-5 {
        fill: #2d93ba;
      }

      .cls-6 {
        fill: #27a2db;
      }

      .cls-7 {
        fill: #fff;
      }

      .cls-8 {
        isolation: isolate;
        opacity: .1;
      }
    </style>
  </defs>
  <g id="Infographic_icons" data-name="Infographic icons">
    <g id="ebooks">
      <g>
        <path class="cls-1" d="m32,64c17.67,0,32-14.33,32-32S49.67,0,32,0,0,14.33,0,32s14.33,32,32,32Z"/>
        <path class="cls-8" d="m42.73,14.2c-.33-.33-.73-.53-1.2-.53h-20.87c-1.47,0-2.6,1.2-2.6,2.6v31.47c0,.67.27,1.27.67,1.73l.13.13,14.4,14.4c16-.6,29-12.93,30.6-28.67l-21.13-21.13Z"/>
        <path class="cls-2" d="m41.47,13.67h-20.8c-1.47,0-2.6,1.2-2.6,2.6v31.47c0,1.47,1.2,2.6,2.6,2.6v-31.47h22.47v-3.53c0-.93-.73-1.67-1.67-1.67Z"/>
        <path class="cls-7" d="m40.27,14.6h-19.13c-1.2,0-2.13.93-2.13,2.13s.93,2.13,2.13,2.13h20.53v-2.93c0-.73-.6-1.33-1.4-1.33Z"/>
        <path class="cls-5" d="m22.47,18.87h-1.8v31.47h1.8v-31.47Z"/>
        <path class="cls-6" d="m44.27,18.87h-21.8v31.47h21.8c.93,0,1.67-.73,1.67-1.67v-28.13c0-.93-.73-1.67-1.67-1.67Z"/>
        <path class="cls-4" d="m40.4,42h-12.47v.67h12.47v-.67Z"/>
        <path class="cls-4" d="m40.4,44.87h-12.47v.67h12.47v-.67Z"/>
        <path class="cls-7" d="m34.2,36.93c3.35,0,6.07-2.72,6.07-6.07s-2.72-6.07-6.07-6.07-6.07,2.72-6.07,6.07,2.72,6.07,6.07,6.07Z"/>
        <path class="cls-3" d="m36,31.93v-5.13h-3.6v5.13h-1.27l3.07,3.07,3.07-3.07h-1.27Z"/>
      </g>
    </g>
  </g>
</svg>