<?xml version="1.0" encoding="UTF-8"?>
<svg id="AC_icons" data-name="AC icons" xmlns="http://www.w3.org/2000/svg" viewBox="0 0 64 64">
  <defs>
    <style>
      .cls-1 {
        fill: none;
      }

      .cls-1, .cls-2, .cls-3 {
        stroke-width: 0px;
      }

      .cls-2 {
        fill: #061a2f;
      }

      .cls-3 {
        fill: #6f973e;
      }
    </style>
  </defs>
  <g id="Infographic_icons" data-name="Infographic icons">
    <g id="infograph-rates">
      <g>
        <polygon class="cls-1" points="6.94 16.64 27.64 16.64 17.29 7.64 6.94 16.64"/>
        <polygon class="cls-1" points="43.24 43.5 61.92 33.66 61.92 30.14 24.56 30.14 24.56 33.66 43.24 43.5"/>
        <path class="cls-1" d="m5.87,18.72v24.91h16.61v-15.57h6.23v-9.34H5.87Zm14.66,18.89c-.18.42-.45.8-.79,1.11-.39.33-.84.58-1.33.73-.61.19-1.24.28-1.88.26-.29,0-.59-.02-.88-.06-.31-.04-.6-.08-.89-.14-.29-.06-.54-.12-.77-.18-.18-.05-.36-.11-.53-.19l.42-1.92c.33.14.68.25,1.03.34.5.12,1.01.17,1.53.16.55.05,1.11-.1,1.56-.43.31-.24.49-.61.49-1,0-.28-.07-.56-.21-.8-.17-.26-.41-.47-.7-.58-.43-.18-.88-.3-1.34-.36-.7-.09-1.41-.13-2.12-.12.11-.97.21-1.95.28-2.94s.13-1.93.17-2.8h5.84v1.95h-3.89c-.02.37-.04.73-.07,1.08-.03.35-.05.65-.09.91,1.2,0,2.37.37,3.35,1.07.73.63,1.13,1.57,1.08,2.53,0,.47-.09.95-.26,1.38Zm-12.58-11.63v-4.15h18.68v4.15H7.95Z"/>
        <path class="cls-1" d="m24.56,55.05h37.37v-19.04l-18.68,9.83-18.68-9.83v19.04Zm35.29-6.23v4.15H26.63v-4.15h33.22Z"/>
        <rect class="cls-3" x="26.63" y="48.82" width="33.22" height="4.15"/>
        <polygon class="cls-3" points="50.08 16.64 41.16 7.73 41.16 20.16 44.68 16.64 50.08 16.64"/>
        <path class="cls-2" d="m55.09,18.72L39.09,2.72v22.45l4.96-4.96,2.52,5.05,3.71-1.86-2.34-4.68h7.14Zm-13.92-10.99l8.91,8.91h-5.4l-3.51,3.51V7.73Z"/>
        <path class="cls-2" d="m34.94,28.06h-4.15v-8.68l2.43,2.12,1.36-1.57L17.29,4.89,0,19.93l1.36,1.57,2.43-2.12v26.33h10.38v15.57h6.23v-15.57h2.08v11.42h41.52v-29.06h-29.06ZM17.29,7.64l10.35,9H6.94l10.35-9ZM5.87,43.63v-24.91h22.84v9.34h-6.23v15.57H5.87Zm56.05,11.42H24.56v-19.04l18.68,9.83,18.68-9.83v19.04Zm0-21.39l-18.68,9.83-18.68-9.83v-3.53h37.37v3.53Z"/>
        <path class="cls-3" d="m16.36,32.63c.03-.26.06-.56.09-.91.03-.35.05-.71.07-1.08h3.89v-1.95h-5.84c-.04.88-.1,1.81-.17,2.8s-.17,1.97-.28,2.94c.71,0,1.42.03,2.12.12.46.06.91.18,1.34.36.29.12.53.32.7.58.14.24.21.52.21.8,0,.39-.18.76-.49,1-.45.32-1,.48-1.56.43-.51,0-1.03-.05-1.53-.16-.35-.08-.69-.2-1.03-.34l-.42,1.92c.17.08.35.14.53.19.23.06.48.12.77.18.29.06.58.1.89.14.29.04.59.05.88.06.64.01,1.27-.08,1.88-.26.49-.15.94-.4,1.33-.73.35-.3.62-.68.79-1.11.18-.44.27-.91.26-1.38.05-.97-.35-1.9-1.08-2.53-.98-.7-2.15-1.07-3.35-1.07Z"/>
        <rect class="cls-2" x="7.95" y="21.83" width="18.68" height="4.15"/>
      </g>
    </g>
  </g>
</svg>