<?xml version="1.0" encoding="UTF-8"?>
<svg id="AC_icons" data-name="AC icons" xmlns="http://www.w3.org/2000/svg" viewBox="0 0 64 64">
  <defs>
    <style>
      .cls-1 {
        fill: #061a2f;
      }

      .cls-1, .cls-2 {
        stroke-width: 0px;
      }

      .cls-2 {
        fill: #6f973e;
      }
    </style>
  </defs>
  <g id="Infographic_icons" data-name="Infographic icons">
    <g id="infograph-community">
      <g>
        <rect class="cls-2" x="49.78" y="29.78" width="5.33" height="3.56"/>
        <rect class="cls-2" x="56.89" y="29.78" width="7.11" height="3.56"/>
        <rect class="cls-2" x="48" y="19.11" width="7.11" height="3.56"/>
        <rect class="cls-2" x="43.56" y="13.78" width="7.11" height="3.56"/>
        <path class="cls-1" d="m50.67,50.22H0v-25.78h50.67v25.78Zm-48.89-1.78h47.11v-22.22H1.78v22.22Z"/>
        <path class="cls-2" d="m9.11,43.89c-.43-.02-.85-.11-1.26-.24-.25-.08-.49-.18-.72-.29l.46-1.23c.29.14.58.25.89.33.36.1.72.15,1.09.15.31.03.62-.03.89-.18.16-.11.25-.3.24-.5,0-.12-.03-.24-.1-.35-.07-.1-.17-.19-.27-.26-.15-.09-.3-.17-.46-.23-.18-.07-.4-.15-.64-.24s-.47-.18-.69-.28c-.22-.1-.42-.23-.61-.38-.4-.32-.62-.82-.6-1.33,0-.23.03-.46.1-.68.14-.45.45-.83.87-1.05.25-.13.53-.23.81-.27v-1.16h1.34v1.11c.32.03.64.08.95.16.22.05.43.13.63.21l-.33,1.28c-.26-.11-.54-.19-.82-.26-.32-.07-.65-.11-.98-.11-.26-.02-.51.04-.74.17-.14.1-.23.27-.22.44,0,.1.02.2.07.29.05.09.13.16.22.22.12.07.24.14.37.19.15.06.32.13.53.2.3.11.59.23.87.37.25.12.48.28.69.46.41.36.64.89.62,1.43,0,.22-.03.43-.1.63-.07.21-.18.41-.32.58-.16.19-.36.34-.58.46-.28.14-.57.23-.88.28v1.3h-1.34v-1.26Z"/>
        <rect class="cls-1" x="14.22" y="43.11" width="29.33" height="1.78"/>
        <rect class="cls-1" x="31.11" y="31.56" width="12.44" height="1.78"/>
        <rect class="cls-1" x="34.67" y="35.11" width="8.89" height="1.78"/>
        <rect class="cls-2" x="30.22" y="19.11" width="7.11" height="3.56"/>
        <rect class="cls-2" x="39.11" y="19.11" width="7.11" height="3.56"/>
        <rect class="cls-2" x="34.67" y="13.78" width="7.11" height="3.56"/>
        <rect class="cls-2" x="52.44" y="24.44" width="7.11" height="3.56"/>
        <rect class="cls-2" x="52.44" y="35.11" width="7.11" height="3.56"/>
        <rect class="cls-2" x="21.33" y="19.11" width="7.11" height="3.56"/>
        <rect class="cls-2" x="25.78" y="13.78" width="7.11" height="3.56"/>
      </g>
    </g>
  </g>
</svg>