<?xml version="1.0" encoding="UTF-8"?>
<svg id="AC_icons" data-name="AC icons" xmlns="http://www.w3.org/2000/svg" viewBox="0 0 64 64">
  <defs>
    <style>
      .cls-1 {
        fill: none;
      }

      .cls-1, .cls-2, .cls-3, .cls-4 {
        stroke-width: 0px;
      }

      .cls-2 {
        fill: #061a2f;
      }

      .cls-3 {
        fill: #6f973e;
      }

      .cls-4 {
        fill: #02314b;
      }
    </style>
  </defs>
  <g id="Infographic_icons" data-name="Infographic icons">
    <g id="infography-property-info">
      <g>
        <path class="cls-1" d="m38.27,27.26l2.8,1.12c.73-2.53.17-5.25-1.49-7.29l-2.13,2.13c.62.86.95,1.9.95,2.96,0,.36-.05.72-.13,1.08Z"/>
        <path class="cls-1" d="m36.24,22.01l2.13-2.13c-1.21-.99-2.69-1.6-4.24-1.76v3.02c.76.13,1.48.43,2.11.87Z"/>
        <path class="cls-1" d="m43.52,39.83h0s-2.45-2.45-2.45-2.45c-.57.4-1.18.75-1.81,1.06v4.81h7.68l-3.41-3.41Z"/>
        <path class="cls-1" d="m46.93,26.18c0,2.67-.78,5.16-2.12,7.27l2.54,2.54h0s2.13,2.13,2.13,2.13v-5.12h6.83v10.24h2.56v-23.64l-10.59-7.81-5.69,4.43c2.66,2.49,4.34,6.03,4.34,9.96Zm2.56-3.41h6.83v6.83h-6.83v-6.83Z"/>
        <path class="cls-1" d="m33.28,38.13c6.59,0,11.95-5.36,11.95-11.95s-5.36-11.95-11.95-11.95-11.95,5.36-11.95,11.95,5.36,11.95,11.95,11.95Zm-10.24-11.95c0-5.66,4.58-10.24,10.24-10.24s10.24,4.58,10.24,10.24-4.58,10.24-10.24,10.24-10.24-4.58-10.24-10.24Z"/>
        <path class="cls-1" d="m15.36,27.03v1.71h4.52c-.11-.56-.17-1.13-.21-1.71h-4.31Z"/>
        <polygon class="cls-1" points="51.2 34.71 51.2 39.83 54.61 43.25 54.61 43.25 54.61 34.71 51.2 34.71"/>
        <path class="cls-1" d="m57.17,53.49l-2.99-2.99,3.84-3.84,2.99,2.99-3.84,3.84Z"/>
        <path class="cls-1" d="m20.32,30.45h-10.08v16.21h27.31v-7.52c-1.34.44-2.78.69-4.27.69-6.04,0-11.16-3.94-12.96-9.39Zm15.52,14.51H11.95v-3.41h23.89v3.41Z"/>
        <path class="cls-3" d="m33.28,36.42c5.66,0,10.24-4.58,10.24-10.24s-4.58-10.24-10.24-10.24-10.24,4.58-10.24,10.24,4.58,10.24,10.24,10.24Zm.85-18.3c1.55.16,3.03.77,4.24,1.76l-2.13,2.13c-.63-.45-1.35-.75-2.11-.87v-3.02Zm3.32,5.1l2.13-2.13c1.66,2.04,2.22,4.76,1.49,7.29l-2.8-1.12c.08-.35.13-.71.13-1.08,0-1.06-.33-2.1-.95-2.96Z"/>
        <rect class="cls-3" x="11.95" y="41.54" width="23.89" height="3.41"/>
        <rect class="cls-3" x="49.49" y="22.77" width="6.83" height="6.83"/>
        <polygon class="cls-3" points="56.32 44.95 54.61 43.25 51.2 39.83 49.49 38.13 47.36 35.99 43.52 39.83 43.52 39.83 43.52 39.83 46.93 43.25 48.64 44.95 54.19 50.5 58.03 46.66 56.32 44.95"/>
        <rect class="cls-2" x="54.88" y="47.96" width="5.43" height="4.22" transform="translate(-18.54 55.4) rotate(-45)"/>
        <rect class="cls-4" x="42.72" y="37.91" width="5.43" height="0" transform="translate(-13.5 43.24) rotate(-45)"/>
        <path class="cls-4" d="m43.45,33.93l-2.42,2.42c.91-.7,1.73-1.51,2.42-2.42Z"/>
        <path class="cls-2" d="m60.59,43.25v-22.38l1.2.88,1.01-1.37-14.54-10.72-7.01,5.45c-2.24-1.62-4.99-2.59-7.96-2.59-1.87,0-3.66.38-5.28,1.07l-5.34-3.93-13.79,10.73,1.05,1.35,12.77-9.94,3.62,2.67c-3.29,1.97-5.69,5.27-6.43,9.16H6.83v-3.41h-3.41v3.41H0l3.41,3.41v27.31h3.41v-27.31h6.83v1.71h-5.12v19.63h30.72v-3.41h9.39l-1.71-1.71h-7.68v-4.81c.63-.31,1.24-.66,1.81-1.06l2.45,2.45,3.84-3.84h0s0,0,0,0l-2.54-2.54c1.33-2.11,2.12-4.6,2.12-7.27,0-3.93-1.68-7.46-4.34-9.96l5.69-4.43,10.59,7.81v23.64h-2.56v-10.24h-6.83v5.12l1.71,1.71v-5.12h3.41v8.53h0l1.71,1.71h7.68v-1.71h-3.41ZM15.36,27.03h4.31c.04.58.1,1.15.21,1.71h-4.52v-1.71Zm22.19,19.63H10.24v-16.21h10.08c1.8,5.44,6.92,9.39,12.96,9.39,1.49,0,2.92-.25,4.27-.69v7.52Zm7.68-20.48c0,6.59-5.36,11.95-11.95,11.95s-11.95-5.36-11.95-11.95,5.36-11.95,11.95-11.95,11.95,5.36,11.95,11.95Z"/>
      </g>
    </g>
  </g>
</svg>