<?xml version="1.0" encoding="UTF-8"?>
<svg id="AC_icons" data-name="AC icons" xmlns="http://www.w3.org/2000/svg" viewBox="0 0 64 64">
  <defs>
    <style>
      .cls-1 {
        fill: #7e4ea3;
      }

      .cls-1, .cls-2 {
        fill-rule: evenodd;
        stroke-width: 0px;
      }

      .cls-2 {
        fill: #fff;
      }
    </style>
  </defs>
  <g id="Infographic_icons" data-name="Infographic icons">
    <g id="podcast">
      <g>
        <path class="cls-1" d="m32,64c17.67,0,32-14.33,32-32S49.67,0,32,0,0,14.33,0,32s14.33,32,32,32Z"/>
        <path class="cls-2" d="m32,31.16c2.21,0,4-1.69,4-3.77s-1.79-3.77-4-3.77-4,1.69-4,3.77,1.79,3.77,4,3.77Zm0-13.2c-5.53,0-10.01,4.22-10.01,9.43,0,1.22.25,2.42.73,3.54.48,1.12,1.18,2.13,2.05,2.98.54-.82,1.26-1.51,2.12-2.01-.6-.59-1.08-1.29-1.4-2.07s-.5-1.61-.5-2.45c0-3.65,3.14-6.6,7.01-6.6s7.01,2.96,7.01,6.6c0,.84-.17,1.68-.5,2.45-.33.78-.81,1.48-1.41,2.07.85.5,1.57,1.19,2.11,2.01.88-.85,1.58-1.86,2.06-2.98.48-1.12.73-2.33.74-3.55,0-5.21-4.48-9.43-10.01-9.43Zm0-5.64c-8.84,0-16,6.75-16,15.07,0,5.43,3.05,10.19,7.63,12.84-.1-.69-.15-1.38-.15-2.08.01-.46.07-.92.16-1.37-2.84-2.25-4.65-5.62-4.65-9.39,0-6.77,5.83-12.26,13.02-12.26s13.02,5.49,13.02,12.26c0,3.78-1.82,7.16-4.67,9.41.09.45.14.9.15,1.36,0,.7-.05,1.4-.15,2.09,4.59-2.65,7.65-7.42,7.65-12.86,0-8.32-7.16-15.07-16-15.07h0Zm0,20.73c-3.04,0-5.51,2.32-5.51,5.19s2.47,12.23,5.51,12.23,5.51-9.37,5.51-12.24-2.47-5.19-5.51-5.19h0Z"/>
      </g>
    </g>
  </g>
</svg>