<?xml version="1.0" encoding="UTF-8"?>
<svg id="AC_icons" data-name="AC icons" xmlns="http://www.w3.org/2000/svg" viewBox="0 0 64 64">
  <defs>
    <style>
      .cls-1 {
        fill: #324a5e;
      }

      .cls-1, .cls-2, .cls-3, .cls-4, .cls-5, .cls-6 {
        stroke-width: 0px;
      }

      .cls-2 {
        fill: #acb3ba;
      }

      .cls-3 {
        fill: #54c0eb;
      }

      .cls-4 {
        fill: #fff;
      }

      .cls-5 {
        fill: #fd8469;
      }

      .cls-6 {
        fill: #ffd05b;
      }
    </style>
  </defs>
  <g id="Infographic_icons" data-name="Infographic icons">
    <g id="digital">
      <g>
        <path class="cls-5" d="m32,64c17.67,0,32-14.33,32-32S49.67,0,32,0,0,14.33,0,32s14.33,32,32,32Z"/>
        <path class="cls-1" d="m45.47,50.88h-26.94c-.15,0-.27-.13-.27-.27V13.38c0-.15.13-.27.27-.27h26.96c.15,0,.27.13.27.27v37.23c0,.15-.13.27-.28.27Z"/>
        <path class="cls-4" d="m44.09,18.07h-24.18v26.8h24.18v-26.8Z"/>
        <path class="cls-2" d="m32,49.73c1.03,0,1.86-.83,1.86-1.86s-.83-1.86-1.86-1.86-1.86.83-1.86,1.86.83,1.86,1.86,1.86Z"/>
        <path class="cls-2" d="m35.8,15.18h-5.23c-.24,0-.44.2-.44.44s.2.44.44.44h5.23c.24,0,.44-.2.44-.44s-.19-.44-.44-.44Z"/>
        <path class="cls-2" d="m28.77,15.18h-.57c-.24,0-.44.2-.44.44s.2.44.44.44h.58c.24,0,.44-.2.44-.44-.01-.24-.22-.44-.46-.44Z"/>
        <path class="cls-3" d="m48.72,33.82c-.91-.6-1.9-1.2-2.97-1.81v1.94c.72.43,1.41.85,2.05,1.27,4.21,2.76,4.82,4.23,4.69,4.52-.03.06-.16.19-.51.29-.34.1-.87.19-1.7.19-1.22,0-2.75-.19-4.54-.53-4.16-.81-9.62-2.5-15.16-4.73-4.65-1.88-8.93-3.95-12.33-5.97-.72-.43-1.41-.85-2.05-1.27-4.21-2.76-4.8-4.23-4.69-4.52.05-.14.56-.48,2.21-.48,1.22,0,2.75.19,4.54.53v-1.71c-1.75-.32-3.28-.49-4.54-.49-2.12,0-3.35.51-3.76,1.53-.66,1.62,1.09,3.76,5.32,6.55.91.6,1.9,1.2,2.97,1.81,3.33,1.9,7.38,3.84,11.71,5.59,5.84,2.36,11.48,4.08,15.79,4.88,1.75.32,3.28.49,4.54.49,2.12,0,3.35-.51,3.76-1.53.65-1.62-1.09-3.76-5.34-6.55Z"/>
        <path class="cls-6" d="m54.04,22.58c-.2-.52-.62-.9-1.24-1.15-.62-.25-1.47-.38-2.52-.38-1.24,0-2.79.18-4.54.49v1.71c1.77-.34,3.32-.53,4.54-.53,1.65,0,2.15.34,2.21.48.13.29-.48,1.76-4.69,4.52-.63.42-1.32.85-2.05,1.27-3.41,2.02-7.69,4.09-12.33,5.97-5.54,2.23-11,3.93-15.16,4.73-1.77.34-3.32.53-4.54.53-1.65,0-2.15-.34-2.21-.48-.11-.29.48-1.76,4.69-4.52.63-.42,1.33-.85,2.05-1.27v-1.94c-1.06.61-2.07,1.22-2.97,1.81-4.23,2.79-5.98,4.93-5.32,6.55.42,1.03,1.65,1.53,3.76,1.53,1.24,0,2.79-.18,4.54-.49,4.31-.8,9.95-2.52,15.79-4.88,4.33-1.75,8.38-3.68,11.71-5.59,1.06-.61,2.07-1.22,2.97-1.81,4.23-2.8,5.97-4.94,5.31-6.55Z"/>
      </g>
    </g>
  </g>
</svg>