<?xml version="1.0" encoding="UTF-8"?>
<svg id="AC_icons" data-name="AC icons" xmlns="http://www.w3.org/2000/svg" viewBox="0 0 64 64">
  <defs>
    <style>
      .cls-1 {
        fill: #98ca41;
      }

      .cls-1, .cls-2 {
        stroke-width: 0px;
      }

      .cls-2 {
        fill: #061a2f;
      }
    </style>
  </defs>
  <g id="Informational_icons" data-name="Informational icons">
    <g id="P">
      <g id="paths-pin">
        <g>
          <g id="Layer_3" data-name="Layer 3">
            <circle class="cls-1" cx="32" cy="27.63" r="26.76"/>
          </g>
          <g id="Layer_2" data-name="Layer 2">
            <path class="cls-2" d="m31.99,0C16.48,0,3.91,12.57,3.91,28.07c0,12.99,8.91,24.29,21.55,27.31l4.38,7.64c.54.93,1.73,1.26,2.66.72.3-.17.55-.42.72-.72l4.25-7.41c15.21-3.02,25.08-17.8,22.06-33.01C56.93,9.46,45.39,0,31.99,0Zm0,51.83c-3.07,0-6.12-.6-8.96-1.77h-.08.08v-24.08c0-5.84,3.8-10.17,9-10.32,2.28-.21,4.55.54,6.24,2.09.63.6,1.15,1.31,1.53,2.09.73,1.45,1.1,3.06,1.07,4.69,0,2.74-1.02,4.25-2.29,5-.69.42-1.48.64-2.29.63-1.9.08-3.5-1.4-3.58-3.3,0,0,0,0,0,0v-.14c.03-1.98,1.66-3.55,3.63-3.52,0,0,0,0,0,0h0c.76,0,1.5.23,2.12.67.1.07.23-.07.22-.44-.01-.03-.01-.05,0-.08-.31-1.45-1.25-2.69-2.56-3.38-2.28-.95-4.91-.5-6.75,1.15-.26.23-.5.5-.71.78-1.07,1.41-1.65,3.13-1.65,4.9-.08,4.83,3.78,8.81,8.61,8.89,0,0,0,0,0,0h.25c3.31.06,6.45-1.46,8.44-4.11,1.37-2.13,2.04-4.64,1.94-7.17.09-3.86-1.4-7.59-4.13-10.32-2.77-2.56-6.45-3.9-10.22-3.7-8.13.21-14.14,6.88-14.14,15.61v21.08l.65.49-.65-.46h0c-10.48-7.86-12.61-22.73-4.75-33.22C20.87,3.39,35.74,1.26,46.23,9.12c4.14,3.1,7.15,7.47,8.57,12.44-2.23.15-4.47-.04-6.64-.56-.18-.04-.36.06-.4.24,0,.04,0,.08,0,.13.08.42.14.85.17,1.27.08.86.08,1.72,0,2.58-.02.27.15.51.41.58,2.39.63,4.87.85,7.33.63,0,.55.08,1.15.08,1.67-.02,13.11-10.65,23.72-23.76,23.72Z"/>
          </g>
        </g>
      </g>
    </g>
  </g>
</svg>