<?xml version="1.0" encoding="UTF-8"?>
<svg id="AC_icons" data-name="AC icons" xmlns="http://www.w3.org/2000/svg" viewBox="0 0 64 64">
  <defs>
    <style>
      .cls-1 {
        fill: #061a2f;
      }

      .cls-1, .cls-2, .cls-3 {
        stroke-width: 0px;
      }

      .cls-2 {
        fill: #02314b;
      }

      .cls-3 {
        fill: #6e963c;
      }
    </style>
  </defs>
  <g id="Infographic_icons" data-name="Infographic icons">
    <g id="infograph-recovery">
      <g>
        <g>
          <path class="cls-1" d="m28.17,18.7c-.1-.57-.05-1.16.14-1.71.19-.55.51-1.07.94-1.48.44-.42.98-.74,1.57-.93.59-.19,1.24-.24,1.85-.15.62.09,1.21.32,1.72.67l1.3.89.21-1.56c.05-.37.2-.73.42-1.04.23-.31.54-.57.9-.75.37-.18.73-.26,1.19-.27.41,0,.82.1,1.18.29l1.05.54.32-1.14c.51-1.81,1.7-3.38,3.35-4.43,1.65-1.05,3.65-1.49,5.63-1.24,1.97.25,3.77,1.17,5.08,2.59,1.3,1.41,2.01,3.22,2.01,5.09,0,.22-.02.45-.04.67l-.12,1.29,1.27-.25c1.07-.21,2.21.12,2.98.85.6.58.94,1.34.94,2.15s-.33,1.57-.94,2.15c-.61.58-1.45.91-2.32.91v1.94c1.38,0,2.68-.51,3.65-1.45.98-.93,1.54-2.23,1.54-3.55s-.56-2.62-1.54-3.55c-.94-.9-2.18-1.41-3.5-1.45-.07-2.25-.96-4.41-2.51-6.11-1.61-1.76-3.84-2.9-6.26-3.21-2.42-.3-4.88.24-6.91,1.53-1.75,1.11-3.08,2.7-3.84,4.56-.33-.08-.67-.12-1.01-.12-.71,0-1.42.15-2.06.46-.64.31-1.2.78-1.61,1.34-.15.21-.29.43-.4.66-.45-.18-.93-.31-1.41-.38-.91-.13-1.85-.06-2.72.22-.87.28-1.68.75-2.33,1.38-.65.63-1.15,1.41-1.44,2.26-.29.85-.36,1.77-.21,2.65.1.57.29,1.11.56,1.62l1.57-1.22c-.09-.24-.18-.48-.22-.72Z"/>
          <path class="cls-1" d="m51.78,26.49c.17.13.38.19.58.19.3,0,.59-.13.78-.39l2.91-3.88c.22-.29.26-.69.09-1.02-.16-.33-.5-.54-.87-.54h-1.94l1.75-2.33c.32-.43.23-1.04-.19-1.36-.43-.32-1.04-.23-1.36.19l-2.91,3.88c-.22.29-.26.69-.09,1.02.16.33.5.54.87.54h1.94l-1.75,2.33c-.32.43-.23,1.04.19,1.36Z"/>
          <polygon class="cls-2" points="33.56 18.16 32.97 17.69 32.37 18.16 32.97 17.7 33.56 18.16"/>
          <path class="cls-1" d="m33.56,18.16l-.59-.46-.6.46-17.45,13.58,1.19,1.53,2.31-1.8v17.66c.32-.03.65-.06.97-.06s.65.03.97.06v-19.06l12.61-9.9,12.61,9.9v6.17c.1-.06.19-.12.29-.17l.68-.36.97-.52v-3.72l2.31,1.8,1.19-1.53-17.46-13.58Z"/>
          <path class="cls-1" d="m26.18,44.14h13.07c.2-.66.45-1.31.75-1.94h-15.77v8.15c.6.34,1.27.51,1.94.51v-6.72Z"/>
          <path class="cls-1" d="m36.85,29.59h-7.76v7.76h7.76v-7.76Zm-1.94,5.82h-3.88v-3.88h3.88v3.88Z"/>
          <g>
            <path class="cls-1" d="m39.99,53.84s-.02-.04-.03-.06c-.07-.15-.14-.29-.21-.44-.08-.19-.15-.4-.22-.59-.73-.12-1.45-.34-2.12-.68l-.63-.31c-2.41-1.21-5.24-1.13-7.58.21l-.11.06c-.9.51-1.91.77-2.91.77-.66,0-1.31-.12-1.94-.34-.33-.12-.66-.25-.97-.43-.31-.18-.64-.33-.97-.46-.63-.25-1.28-.42-1.94-.5-.32-.04-.65-.06-.97-.06s-.65.02-.97.06c-1.01.13-2,.44-2.91.96-1.55.89-3.43,1.01-5.06.36l-.02.03c-.13.23-.34.38-.57.45-.16.05-.33.04-.5,0-.09-.02-.18-.04-.26-.09-.31-.18-.49-.51-.49-.84,0-.14.03-.27.09-.41-1-.42-2.06-.63-3.12-.63-1.23,0-2.46.28-3.59.85l-1.03.52-.97.48v2.17l2.17-1.08.7-.35c.69-.34,1.42-.55,2.15-.62.34-.03.68-.02,1.02,0,.89.07,1.77.32,2.58.78l.11.06c.09.05.18.08.26.13,2.26,1.18,4.97,1.18,7.22,0,.09-.05.18-.08.26-.13.61-.35,1.27-.57,1.94-.68.32-.05.64-.09.97-.09s.65.04.97.09c.67.11,1.33.33,1.94.68.09.05.18.08.26.13.54.28,1.1.5,1.67.65,1.85.47,3.83.25,5.55-.65.09-.05.18-.08.26-.13l.11-.06c1.77-1.01,3.92-1.07,5.75-.16l.63.31s.06.02.09.04c1.21.59,2.52.9,3.85.93-.17-.3-.34-.61-.49-.93Z"/>
            <path class="cls-1" d="m42.71,57.68c-.3-.3-.58-.61-.85-.93-.02-.03-.05-.06-.07-.09,0,0-.01-.01-.02-.02-.06,0-.11.02-.17.03-.58.07-1.17.07-1.75,0-.84-.1-1.67-.34-2.44-.73l-.34-.17-.29-.15c-.98-.49-2.04-.76-3.1-.82-.02,0-.04,0-.07,0-.19-.01-.38-.02-.58-.02-.11,0-.23.01-.34.02-1.16.07-2.31.39-3.36.97-.04.02-.09.04-.13.06l-.11.06c-.67.38-1.4.62-2.14.72-.51.07-1.04.07-1.55,0-.74-.1-1.47-.34-2.14-.72-.09-.05-.18-.08-.26-.13-.97-.51-2.02-.79-3.09-.86-.18-.01-.35-.03-.53-.03s-.35.02-.53.03c-.15,0-.3.01-.44.03-1.01.13-2,.44-2.91.96-.67.38-1.4.62-2.14.72-.51.07-1.03.07-1.55,0-.74-.1-1.47-.34-2.14-.72l-.11-.06c-1.19-.68-2.51-1.03-3.84-1.06-.19,0-.38,0-.56.02-1.09.06-2.17.32-3.17.83l-2,1v2.17l2.87-1.43c1.83-.91,3.98-.86,5.75.16l.11.06c2.39,1.37,5.36,1.37,7.75,0,1.8-1.03,4.03-1.03,5.83,0,2.39,1.37,5.36,1.36,7.75,0l.11-.06c.81-.46,1.69-.71,2.59-.78.33-.02.65-.03.98,0,.75.07,1.49.27,2.19.62l.63.31c2.12,1.06,4.56,1.25,6.81.59-.22-.19-.44-.39-.65-.59Z"/>
          </g>
          <polygon class="cls-3" points="41.74 49.8 41.74 49.81 41.74 49.8 41.74 49.8"/>
        </g>
        <path class="cls-1" d="m47.93,56.69c-.14-.07-.28-.13-.42-.2-.38-.21-.74-.45-1.09-.71-.15-.11-.28-.24-.42-.36-.08-.07-.16-.14-.24-.21-.11-.1-.23-.18-.33-.29-.04-.04-.07-.08-.11-.11-.03-.03-.06-.06-.09-.1-.24-.25-.46-.5-.66-.77-.03-.04-.06-.07-.08-.1-.17-.23-.33-.46-.48-.7-.17-.27-.32-.56-.46-.84-.14-.29-.27-.59-.38-.9-.11-.3-.21-.61-.29-.93-.07-.27-.13-.54-.18-.82-.34-2.02-.04-4.05.86-5.88.51-1.03,1.2-1.94,2.02-2.72.31-.29.62-.57.97-.82.31-.22.63-.43.97-.62.06-.03.11-.08.18-.11h0,0s-.18-.33-.18-.33l-.28-.57-.46-.86c-.08.04-.15.09-.23.14-.34.19-.66.39-.97.61-1.6,1.12-2.89,2.61-3.76,4.38-.04.09-.08.18-.12.27-.98,2.13-1.3,4.47-.91,6.79.05.31.12.62.2.93.08.32.18.64.29.96.11.32.23.63.37.93.02.04.04.08.06.13.12.27.26.53.4.79.03.05.06.1.08.15.15.25.3.5.46.74.05.08.1.16.16.23.15.21.31.42.48.62.1.12.2.24.3.35.08.09.16.17.24.26.06.06.11.12.17.18.03.03.05.05.07.08.16.16.32.3.49.45.27.24.56.48.85.69,1.48,1.08,3.19,1.79,5.03,2.08,1.3.21,2.6.18,3.86-.04,1.1-.2,2.17-.55,3.19-1.06.39-.2.77-.43,1.13-.66,1.16-.76,2.17-1.7,2.98-2.81.04-.06.08-.12.12-.18.21-.29.4-.6.58-.91.03-.04.05-.09.08-.13.06-.1.12-.2.18-.31.13-.25.25-.5.36-.76.14-.33.27-.67.38-1.01.11-.32.19-.65.27-.98.07-.31.13-.62.17-.94,0,0,0,0,0,0,.05-.32.08-.65.09-.97.03-.54.02-1.09-.02-1.64-.02-.23-.04-.46-.07-.69-.35-2.43-1.44-4.64-3.15-6.4l-.7.68-.69.67c1.42,1.47,2.33,3.31,2.62,5.34.02.14.03.28.04.41.06.61.07,1.21.02,1.81-.03.34-.08.68-.15,1.01-.07.36-.16.71-.27,1.05-.12.38-.27.76-.44,1.13-.07.15-.13.3-.21.44-.15.3-.34.57-.53.84-.11.16-.2.34-.32.49-.23.31-.5.6-.76.88-.43.45-.89.86-1.39,1.22-.02.02-.05.03-.07.04-.05.03-.11.06-.16.1l-.04-.07-.02-.03-.4-.76-.08-.14-.38-.71-.13-.24-.09-.16.12-.13.63-.72,1.02-1.16,1.26-1.43.09-.11.55-.62-.32-.28-.11-.1-1.02-.9-1.46,1.65-.93,1.06-.8.9-.54-1.01-.59-1.11.02-.03,1.85-2.94.95-1.51-1.64-1.04-2.24,3.55-1.15-2.16-1.71.91,1.26,2.38.62,1.17.38.72-1.04.09-3.02.25.03.37.08.97.05.59,2.63-.22,2.25-.19.49.91h.08v.16l.55,1.03.13.24.41.78s.04,0,.07,0c-.02,0-.04,0-.06,0l.04.07.46.87c-.52.21-1.05.39-1.59.51-.3.07-.61.1-.91.14-.56.07-1.12.1-1.68.07v.05s-1.92-.3-1.92-.3v-.05c-.64-.17-1.26-.42-1.85-.72"/>
        <path class="cls-3" d="m10.54,50.28s0,0,0,0l.11.06c1.2.69,2.7.69,3.9,0,1.2-.69,2.52-1.08,3.87-1.22v-5.29c-.34-.08-.69-.12-1.04-.12-1.02,0-2.01.32-2.84.91-.87-1.35-2.14-2.38-3.64-2.94-1.49-.56-3.12-.61-4.65-.15s-2.86,1.4-3.82,2.7c-.95,1.29-1.47,2.86-1.47,4.47v1.39l.17-.08c2.99-1.49,6.51-1.4,9.41.26Z"/>
        <path class="cls-3" d="m60,53.84c.12-.16.21-.33.32-.49.18-.28.37-.55.53-.84.08-.15.14-.29.21-.44.17-.37.31-.75.44-1.13.11-.35.2-.7.27-1.05.06-.34.12-.67.15-1.01.05-.6.04-1.2-.02-1.81-.01-.14-.02-.28-.04-.41-.3-2.02-1.2-3.87-2.62-5.34l.69-.67c-.23-.23-.46-.45-.71-.66-.25-.21-.51-.41-.77-.6-2.68-1.9-6.15-2.5-9.39-1.48-.31.1-.62.21-.92.34-.2.08-.4.18-.6.28-.09.05-.19.08-.28.13l.28.53.18.33h0s0,0,0,0c-.06.03-.11.08-.18.11-.34.19-.66.39-.97.62-.34.25-.66.53-.97.82-.82.78-1.51,1.68-2.02,2.72-.9,1.83-1.2,3.87-.86,5.88.05.28.11.55.18.82.08.32.18.62.29.93.11.31.24.61.38.9.14.29.29.57.46.84.15.24.31.48.48.7.03.04.06.07.08.1.21.27.43.52.66.77.03.03.06.06.09.1.04.04.07.08.11.11.1.1.22.19.33.29.08.07.16.14.24.21.14.12.27.25.42.36.35.26.71.5,1.09.71.13.08.28.13.42.2.59.3,1.21.55,1.86.72v.05s1.91.3,1.91.3v-.05c.57.03,1.14,0,1.69-.07.31-.04.61-.07.91-.14.54-.12,1.07-.3,1.59-.51l-.46-.87-.04-.07h0s-.41-.79-.41-.79l-.13-.24-.55-1.03-.02-.03-.07-.13-.49-.91-2.25.19-2.63.22-.05-.59-.08-.97-.03-.37,3.02-.25,1.04-.09-.38-.72-.62-1.17-1.26-2.38,1.71-.91,1.15,2.16,2.24-3.55,1.64,1.04-.95,1.51-1.85,2.94-.02.03.59,1.11.54,1.01.8-.9.93-1.06,1.46-1.65,1.02.9.11.1.32.28-.55.62-.09.11-1.26,1.43-1.02,1.16-.63.72-.12.13.09.16.13.24.38.71.08.14.4.76.02.03.04.07c.05-.03.11-.06.16-.1.02-.02.05-.03.07-.04.51-.36.97-.77,1.39-1.22.27-.28.53-.57.76-.88Z"/>
      </g>
    </g>
  </g>
</svg>