<?xml version="1.0" encoding="UTF-8"?>
<svg id="AC_icons" data-name="AC icons" xmlns="http://www.w3.org/2000/svg" viewBox="0 0 64 64">
  <defs>
    <style>
      .cls-1 {
        fill: none;
      }

      .cls-1, .cls-2, .cls-3, .cls-4 {
        stroke-width: 0px;
      }

      .cls-2 {
        fill: #061a2f;
      }

      .cls-3 {
        fill: #6f973e;
      }

      .cls-4 {
        fill: #02314b;
      }
    </style>
  </defs>
  <g id="Infographic_icons" data-name="Infographic icons">
    <g id="infograph-fees">
      <g>
        <path class="cls-1" d="m48.26,44.59c0,3.71-2.77,6.78-6.35,7.27.89.69,1.99,1.12,3.21,1.12,2.89,0,5.25-2.35,5.25-5.25,0-1.75-.87-3.29-2.19-4.25.05.36.09.72.09,1.1Z"/>
        <path class="cls-1" d="m57.02,35.83c-.42,0-.83-.04-1.23-.13-.28-.07-.56-.16-.83-.27l-.34,1.55c.14.06.28.11.43.15.18.05.39.1.62.14.23.05.47.08.72.11.24.03.47.04.71.04.51.01,1.02-.06,1.52-.21.4-.12.76-.32,1.08-.59.28-.24.5-.55.64-.89.15-.36.22-.74.22-1.13.04-.78-.28-1.54-.88-2.05-.79-.56-1.74-.86-2.71-.86.02-.21.05-.45.07-.73.02-.28.04-.57.06-.88h3.15v-1.57h-4.72c-.03.7-.08,1.46-.14,2.27-.06.81-.13,1.6-.23,2.38.57,0,1.14.03,1.71.1.37.04.74.14,1.08.29.23.1.43.26.57.47.11.2.17.42.16.65,0,.32-.15.61-.39.81-.36.26-.81.39-1.26.35Z"/>
        <circle class="cls-1" cx="40.92" cy="44.59" r="5.25"/>
        <path class="cls-2" d="m10.49,16.26h23.08v4.2H10.49v-4.2Zm0,8.39h16.79v2.1H10.49v-2.1Zm0,4.2h19.93v2.1H10.49v-2.1Zm0,4.2h13.64v2.1h-13.64v-2.1Zm4.99,16.11c-.08.25-.21.49-.38.69-.19.22-.42.41-.69.54-.33.17-.68.28-1.04.33v1.54h-1.58v-1.49c-.51-.03-1.01-.12-1.49-.28-.29-.1-.57-.22-.85-.35l.54-1.45c.34.16.69.29,1.05.39.42.12.85.18,1.29.18.36.03.73-.04,1.05-.21.19-.13.29-.35.28-.59,0-.14-.04-.29-.11-.41-.09-.12-.2-.23-.32-.31-.17-.11-.35-.2-.54-.27-.22-.09-.47-.18-.76-.28s-.56-.21-.81-.33c-.26-.12-.5-.27-.72-.45-.47-.38-.74-.97-.71-1.57,0-.27.04-.54.12-.8.16-.53.53-.98,1.03-1.23.3-.16.62-.27.96-.32v-1.36h1.59v1.31c.38.03.76.1,1.13.19.26.06.51.15.75.25l-.39,1.51c-.31-.13-.63-.23-.96-.3-.38-.09-.77-.13-1.15-.13-.3-.03-.61.04-.87.2-.17.12-.27.32-.26.52,0,.12.02.24.08.35.06.11.15.19.26.26.14.09.28.16.43.22.17.07.38.15.62.23.35.13.69.27,1.03.44.29.15.57.33.82.55.49.43.76,1.05.73,1.69,0,.25-.04.51-.11.75Zm18.09,2.78h-16.79v-2.1h16.79v2.1Z"/>
        <path class="cls-3" d="m57.71,19.18c-1.5,0-2.9.26-4.2.66-1.82.55-3.47,1.35-5,2.1-1.98.97-3.85,1.89-5.49,1.89-1.13-.06-2.2-.43-3.14-1.04v3.43c.98.46,2.05.72,3.15.75,2.13,0,4.21-1.02,6.42-2.11,1.32-.65,2.66-1.3,4.07-1.79,1.32-.45,2.7-.75,4.2-.75,1.44,0,2.87.29,4.2.84v-3.29c-1.35-.46-2.77-.7-4.2-.7Z"/>
        <path class="cls-3" d="m53.51,25.32c-4.4,1.71-8.42,5.11-13.64,3.18v8.84c.34-.05.69-.08,1.05-.08,2.61,0,4.9,1.37,6.21,3.43,1.53.44,2.85,1.35,3.8,2.58.85-.42,1.71-.82,2.58-1.16,3.12-1.21,6.42-1.57,10.49,1.44v-16.79c-4.07-3-7.38-2.65-10.49-1.44Zm6.82,10.42c-.14.34-.36.65-.64.89-.32.27-.68.47-1.08.59-.49.15-1,.22-1.52.21-.24,0-.48-.02-.71-.04-.25-.03-.49-.07-.72-.11-.23-.05-.44-.09-.62-.14-.15-.04-.29-.09-.43-.15l.34-1.55c.27.11.55.2.83.27.4.09.82.14,1.23.13.45.04.89-.08,1.26-.35.24-.2.39-.5.39-.81,0-.23-.05-.45-.16-.65-.14-.21-.33-.38-.57-.47-.35-.15-.71-.24-1.08-.29-.57-.08-1.14-.11-1.71-.1.09-.78.17-1.57.23-2.38.06-.81.1-1.56.14-2.27h4.72v1.57h-3.15c-.02.3-.04.59-.06.88-.02.28-.04.52-.07.73.97,0,1.92.3,2.71.86.59.51.91,1.27.88,2.05,0,.39-.07.77-.22,1.13Z"/>
        <rect class="cls-3" x="10.49" y="16.26" width="23.08" height="4.2"/>
        <path class="cls-3" d="m14.04,46.17c-.33-.17-.68-.32-1.03-.44-.24-.09-.45-.16-.62-.23-.15-.06-.3-.13-.43-.22-.11-.06-.19-.15-.26-.26-.06-.11-.08-.23-.08-.35,0-.21.1-.4.26-.52.26-.16.57-.23.87-.2.39,0,.78.04,1.15.13.33.07.65.17.96.3l.39-1.51c-.24-.1-.49-.19-.75-.25-.37-.09-.75-.16-1.13-.19v-1.31h-1.59v1.36c-.33.06-.66.16-.96.32-.49.26-.86.7-1.03,1.23-.08.26-.12.53-.12.8-.02.61.24,1.19.71,1.57.22.18.46.33.72.45.26.12.53.23.81.33s.54.2.76.28c.19.07.37.16.54.27.13.08.24.18.32.31.08.12.12.26.11.41,0,.23-.1.45-.28.59-.32.17-.69.24-1.05.21-.44,0-.87-.06-1.29-.18-.36-.1-.71-.23-1.05-.39l-.54,1.45c.28.13.56.25.85.35.48.16.98.25,1.49.28v1.49h1.58v-1.54c.36-.05.71-.16,1.04-.33.26-.14.49-.32.69-.54.17-.2.3-.43.38-.69.07-.24.11-.5.11-.75.02-.65-.25-1.27-.73-1.69-.25-.22-.52-.4-.82-.55Z"/>
        <rect class="cls-2" x="16.79" y="49.84" width="16.79" height="2.1"/>
        <rect class="cls-2" x="10.49" y="24.66" width="16.79" height="2.1"/>
        <rect class="cls-2" x="10.49" y="28.85" width="19.93" height="2.1"/>
        <rect class="cls-2" x="10.49" y="33.05" width="13.64" height="2.1"/>
        <polygon class="cls-2" points="35.67 5.77 0 5.77 0 54.03 2.1 54.03 2.1 7.87 35.67 7.87 35.67 5.77"/>
        <path class="cls-4" d="m43.51,38.86c.06.03.12.06.19.09-.06-.03-.12-.06-.19-.09Z"/>
        <path class="cls-4" d="m45.63,40.42s-.02-.03-.03-.04c-.02-.03-.05-.04-.08-.07.03.04.07.07.1.11,0,0,0,0,0,0Z"/>
        <path class="cls-4" d="m44.57,39.47c.06.04.12.09.18.13-.06-.04-.12-.09-.18-.13Z"/>
        <path class="cls-4" d="m42.37,38.47c.06.01.12.03.18.05-.06-.02-.12-.03-.18-.05Z"/>
        <path class="cls-4" d="m39.98,38.37s.09-.01.13-.02c-.05,0-.09.01-.13.02Z"/>
        <path class="cls-4" d="m41.16,38.31c.06,0,.12,0,.18,0-.06,0-.12,0-.18,0Z"/>
        <path class="cls-4" d="m42.54,38.51c.33.09.65.2.96.34-.31-.14-.63-.25-.96-.34Z"/>
        <path class="cls-4" d="m40.92,38.3c-.27,0-.54.02-.81.06.35-.05.7-.06,1.05-.05-.08,0-.16-.01-.24-.01Z"/>
        <path class="cls-4" d="m41.35,38.32c.34.02.68.07,1.02.15-.33-.08-.67-.13-1.02-.15Z"/>
        <path class="cls-4" d="m44.74,39.6c.28.21.54.45.78.71-.24-.26-.5-.49-.78-.71Z"/>
        <path class="cls-4" d="m43.69,38.95c.3.15.59.32.87.52-.28-.2-.57-.37-.87-.52Z"/>
        <polygon class="cls-4" points="38.83 38.66 38.82 38.66 38.82 38.66 38.83 38.66"/>
        <path class="cls-4" d="m46.1,41.03c.11.15.21.31.3.48-.09-.16-.19-.32-.3-.48Z"/>
        <path class="cls-4" d="m39.98,38.37s-.07.01-.11.02c-.33.06-.65.14-.97.24.35-.12.71-.2,1.07-.26Z"/>
        <path class="cls-4" d="m45.69,40.5c.08.09.15.19.23.28-.07-.1-.15-.19-.23-.28Z"/>
        <path class="cls-4" d="m45.69,40.5s-.04-.05-.06-.08c0,0,0,0,0,0,.02.03.05.05.07.08Z"/>
        <path class="cls-4" d="m45.92,40.78c.06.08.13.16.18.25-.06-.08-.12-.16-.18-.25Z"/>
        <path class="cls-4" d="m38.83,38.66s.05-.02.07-.03c-.03,0-.05.02-.07.03Z"/>
        <path class="cls-2" d="m52.38,46.69c-.18-1.28-.7-2.45-1.45-3.43-.95-1.23-2.27-2.15-3.8-2.58-1.3-2.06-3.59-3.43-6.21-3.43-.36,0-.71.03-1.05.08V9.97H4.2v48.26h35.67v-5.36c1.33,1.36,3.19,2.21,5.25,2.21,4.05,0,7.34-3.29,7.34-7.34,0-.36-.03-.71-.08-1.05Zm-6.78-6.31s.02.03.03.04c.02.02.04.05.06.08-.02-.03-.05-.05-.07-.08-.03-.04-.07-.08-.1-.11.02.03.05.04.08.07Zm-7.83,15.76H6.3V12.07h31.48v25.9c-.37.18-.72.38-1.05.61-1.9,1.33-3.15,3.53-3.15,6.02,0,2.92,1.72,5.44,4.2,6.63v4.92Zm-2.1-11.54c0-2.89,2.35-5.25,5.25-5.25s5.25,2.35,5.25,5.25-2.35,5.25-5.25,5.25-5.25-2.35-5.25-5.25Zm9.44,8.39c-1.21,0-2.32-.43-3.21-1.12,3.58-.49,6.35-3.56,6.35-7.27,0-.37-.04-.74-.09-1.1,1.32.95,2.19,2.5,2.19,4.25,0,2.89-2.35,5.25-5.25,5.25Z"/>
      </g>
    </g>
  </g>
</svg>