<?xml version="1.0" encoding="UTF-8"?>
<svg id="AC_icons" data-name="AC icons" xmlns="http://www.w3.org/2000/svg" viewBox="0 0 64 64">
  <defs>
    <style>
      .cls-1 {
        fill: #061a2f;
      }

      .cls-1, .cls-2 {
        stroke-width: 0px;
      }

      .cls-2 {
        fill: #6f973e;
      }
    </style>
  </defs>
  <g id="Infographic_icons" data-name="Infographic icons">
    <g id="infograph-cemeteries">
      <g>
        <polygon class="cls-2" points="57.61 57.2 60.88 57.2 64 50.96 58.79 50.09 57.61 57.2"/>
        <path class="cls-2" d="m48.41,41.18l-4.83-5.8-.74-.89c-.78-.94-1.72-1.71-2.75-2.32-1.08-.63-2.26-1.06-3.5-1.27.25.2.49.41.7.66.71.84,1.01,1.94.83,3.02-.05.27-.13.54-.23.79-.12.31-.28.61-.46.89.81.11,1.57.47,2.14,1.06.19.19.36.41.52.63.25.37.46.76.6,1.19.51-.18,1.04-.28,1.58-.28.18,0,.36.01.54.03,1.09.12,2.07.72,2.68,1.63.57.92.83,1.99.74,3.07.73.79,1.19,1.8,1.31,2.87.08,1.09-.32,2.16-1.1,2.93-.51.51-1.14.89-1.82,1.12.25.68.33,1.41.24,2.13-.24,1.9-1.68,3.17-3.74,3.39v1.16h12.28l1.39-8.33-6.4-7.69Z"/>
        <path class="cls-2" d="m21.8,24.98H4.36c-.37.68-.69,1.37-.96,2.08h15.83c.14-.27.29-.53.47-.78.54-.66,1.28-1.11,2.1-1.29,0,0,0,0,0-.01Z"/>
        <path class="cls-2" d="m18.69,29.27s.01-.09.01-.13H2.72c-.35,1.37-.55,2.76-.62,4.16h15.06c-.08-.42-.1-.85-.03-1.29.21-1.06.76-2.02,1.56-2.74Z"/>
        <path class="cls-2" d="m21.4,15.24v-1.69H4.77v1.69c.41.49.73.96.98,1.42h14.66c.26-.46.58-.93.98-1.42Z"/>
        <g>
          <polygon class="cls-1" points="54.97 47.9 54.81 48.87 53.42 57.2 55.69 57.2 57.61 57.2 58.79 50.09 58.94 49.22 54.97 47.9"/>
          <path class="cls-1" d="m20.15,50.12c.68,1.26,2.26,1.73,3.52,1.05s1.73-2.26,1.05-3.52-2.26-1.73-3.52-1.05-1.73,2.26-1.05,3.52Z"/>
          <path class="cls-1" d="m28.7,30.93c-1.31-.59-2.85,0-3.44,1.3-.51,1.13-.14,2.43.82,3.14.15.11.31.21.49.29.89.4,1.87.25,2.61-.29.35-.26.64-.59.83-1.01.59-1.31,0-2.85-1.3-3.44Z"/>
          <path class="cls-1" d="m34.52,47.66c.47,1.36,1.95,2.07,3.3,1.61s2.07-1.95,1.61-3.3c-.47-1.36-1.95-2.07-3.3-1.61-1.36.47-2.07,1.95-1.61,3.3Z"/>
          <path class="cls-1" d="m47.56,46.47c-.12-1.07-.58-2.08-1.31-2.87.09-1.07-.17-2.15-.74-3.07-.61-.91-1.59-1.51-2.68-1.63-.18-.02-.36-.03-.54-.03-.54,0-1.07.1-1.58.28-.14-.43-.35-.82-.6-1.19-.16-.22-.33-.44-.52-.63-.58-.59-1.34-.95-2.14-1.06.18-.28.34-.58.46-.89.1-.26.18-.52.23-.79.18-1.08-.12-2.18-.83-3.02-.21-.25-.45-.46-.7-.66-.31-.25-.65-.46-1.02-.62.31-.65.46-1.37.43-2.1-.08-2.22-1.82-3.73-4.36-3.82-.86-.97-2.07-1.56-3.36-1.62h0c-.88,0-1.72.32-2.39.88-.56.46-1,1.05-1.29,1.71-.11-.05-.24-.08-.35-.12-.28-.61-.59-1.21-.93-1.8-.33-.57-.62-1.08-.86-1.55-1.11-2.19-1.1-3.48.74-5.54l.26-.29v-7.82l-.52-.3c-6.09-3.54-13.66-3.54-19.75,0l-.52.3v7.82l.26.29c2.23,2.51,1.77,3.87-.12,7.1-5.22,8.94-2.47,19.78,2.14,27.54H1.65v2.08h11.08c.08.27.19.52.34.77.57.91,1.43,1.61,2.43,2.01.56,1.68,2.1,2.85,3.87,2.94.43,0,.86-.07,1.26-.21.68-.24,1.3-.63,1.81-1.15.5.52,1.12.91,1.81,1.15.41.14.83.21,1.26.21,1.22-.07,2.33-.65,3.08-1.56h12.55v-1.16c2.05-.21,3.5-1.49,3.74-3.39.09-.72,0-1.45-.24-2.13.69-.22,1.31-.61,1.82-1.12.78-.77,1.18-1.84,1.1-2.93Zm-24.08-20.44s0,.02.01.02c0,0,0,0-.01,0v-.02Zm-.88.95h.08c1.3,0,2.51,1.13,3.48,2.4-.13-1.63.04-3.31,1.07-4.16.3-.26.68-.41,1.07-.41h0c1.02.15,1.91.77,2.4,1.67.24-.04.48-.06.72-.06,1.09,0,2.48.39,2.53,1.82.05,1.33-1.1,2.57-2.4,3.56.3-.02.59-.04.89-.04,1.2-.12,2.39.28,3.26,1.1.71.86.39,1.79-.16,2.49-.34.43-.76.77-1.1.98.03.18.05.41.05.64-.25.16-.49.34-.71.55-.12,0-.23,0-.35,0-1.25,0-2.31.38-3.08,1.04-.44-.4-.86-.87-1.24-1.37.1,1.24.02,2.51-.48,3.42-.76-.94-1.88-1.55-3.13-1.61-.34,0-.67.06-.99.14-.09.02-.18.04-.27.07-.52.18-1,.45-1.43.8-.78-.21-1.47-.69-1.5-1.69-.05-1.33,1.1-2.57,2.4-3.56-.3.02-.59.04-.89.04-1.2.12-2.39-.28-3.26-1.1-1.14-1.38.36-2.92,1.26-3.47-.19-1.05-.02-3.19,1.77-3.25Zm-1.23-17.59H4.8c5.16-2.76,11.41-2.76,16.57,0Zm-8.59,41.29c-.03.09-.04.18-.06.27h-5.3c-3.16-4.92-5.59-11.36-5.3-17.67.06-1.4.26-2.79.62-4.16.18-.7.41-1.39.68-2.08.27-.7.59-1.4.96-2.08.09-.17.17-.35.27-.51,1.61-2.76,2.66-5.04,1.13-7.8-.26-.46-.58-.93-.98-1.42v-3.77h16.63v3.77h0c-.41.49-.73.96-.98,1.42-1.03,1.85-.89,3.49-.21,5.2.34.84.8,1.69,1.33,2.6.1.17.17.34.27.52h.12s-.07,0-.11.01c-.82.18-1.57.62-2.1,1.29-.18.24-.34.51-.47.78-.32.64-.5,1.35-.53,2.08,0,.04-.01.09-.01.13-.8.72-1.35,1.68-1.56,2.74-.07.43-.05.86.03,1.29.12.63.38,1.23.8,1.73.46.55,1.05.99,1.71,1.28-.31.65-.46,1.37-.43,2.1,0,.21.04.41.08.61-1.25.08-2.38.7-3.12,1.65-.3.38-.54.81-.7,1.28-1,.39-1.85,1.1-2.43,2.01-.55.95-.66,2.09-.29,3.12.24.68.63,1.3,1.15,1.81-.52.5-.91,1.12-1.15,1.81Zm17.35.67c.57,1.69-1.37,2.61-2.41,2.81-.17.92-.89,2.52-2.21,2.52-.2,0-.4-.04-.6-.1-1.26-.43-2.02-1.94-2.47-3.5-.46,1.56-1.21,3.07-2.47,3.5-.19.07-.39.1-.6.1-1.31,0-2.03-1.6-2.21-2.52-1.05-.2-2.99-1.11-2.41-2.81.43-1.26,1.94-2.02,3.5-2.47-1.56-.46-3.07-1.21-3.5-2.47-.57-1.69,1.37-2.61,2.41-2.81.17-.92.89-2.52,2.21-2.52.2,0,.4.04.6.1,1.26.43,2.02,1.94,2.47,3.5.46-1.56,1.21-3.07,2.47-3.5.19-.07.39-.1.6-.1,1.31,0,2.03,1.6,2.21,2.52,1.05.2,2.99,1.11,2.41,2.81-.43,1.26-1.94,2.02-3.5,2.47,1.56.46,3.07,1.21,3.5,2.47Zm14.86-3.42c-.72.62-1.65.92-2.6.85-.55,0-1.1-.06-1.64-.15,1.21,1.1,2.24,2.43,2.07,3.76-.16,1.25-1.28,1.61-2.29,1.61-.37,0-.75-.05-1.11-.14-.56.8-1.43,1.33-2.4,1.45-.45,0-.87-.19-1.18-.51-.95-.94-.97-2.62-.7-4.23-.86.95-1.88,1.79-2.92,2.02.11-.63.08-1.28-.14-1.89-.24-.68-.63-1.3-1.15-1.81.52-.5.91-1.12,1.15-1.81.26-.72.27-1.5.07-2.23.35.02.71.06,1.05.12-1.21-1.1-2.24-2.43-2.07-3.76.16-1.25,1.28-1.61,2.29-1.61.37,0,.75.05,1.11.14.56-.8,1.43-1.33,2.4-1.45.45,0,.87.19,1.18.51.95.94.97,2.62.7,4.23,1.02-1.12,2.24-2.09,3.47-2.09.1,0,.19,0,.28.02,1.77.22,1.75,2.37,1.47,3.39.86.63,2.2,2.3.95,3.57Z"/>
        </g>
      </g>
    </g>
  </g>
</svg>