<?xml version="1.0" encoding="UTF-8"?>
<svg id="AC_icons" data-name="AC icons" xmlns="http://www.w3.org/2000/svg" viewBox="0 0 64 64">
  <defs>
    <style>
      .cls-1 {
        fill: #d1746d;
      }

      .cls-1, .cls-2, .cls-3, .cls-4, .cls-5, .cls-6, .cls-7 {
        stroke-width: 0px;
      }

      .cls-2 {
        fill: #f4f0d3;
      }

      .cls-3 {
        fill: #e67067;
      }

      .cls-4 {
        fill: #cb4e44;
      }

      .cls-5 {
        fill: #e98179;
      }

      .cls-6 {
        fill: #cf655c;
      }

      .cls-7 {
        fill: #e2574c;
      }
    </style>
  </defs>
  <g id="Infographic_icons" data-name="Infographic icons">
    <g id="music-2" data-name="music">
      <g>
        <path class="cls-7" d="m32,0c17.67,0,32,14.33,32,32s-14.33,32-32,32S0,49.67,0,32,14.33,0,32,0Z"/>
        <path class="cls-3" d="m1.28,29.44c.71,0,1.28-.57,1.28-1.28v3.2c0,.71.57,1.28,1.28,1.28s1.28-.57,1.28-1.28v3.2c0,.71.57,1.28,1.28,1.28s1.28-.57,1.28-1.28v-3.2c0,.71.57,1.28,1.28,1.28s1.28-.57,1.28-1.28v6.4c0,.71.57,1.28,1.28,1.28s1.28-.57,1.28-1.28v-1.92c0,.71.57,1.28,1.28,1.28s1.28-.57,1.28-1.28v-3.2c0,.71.57,1.28,1.28,1.28s1.28-.57,1.28-1.28v2.56c0,.71.57,1.28,1.28,1.28s1.28-.57,1.28-1.28v-3.84c0,.71.57,1.28,1.28,1.28s1.28-.57,1.28-1.28v3.2c0,.71.57,1.28,1.28,1.28s1.28-.57,1.28-1.28v-3.2c0,.71.57,1.28,1.28,1.28s1.28-.57,1.28-1.28v6.4c0,.71.57,1.28,1.28,1.28s1.28-.57,1.28-1.28v-1.92c0,.71.57,1.28,1.28,1.28s1.28-.57,1.28-1.28v-3.2c0,.71.57,1.28,1.28,1.28s1.28-.57,1.28-1.28v-4.48c0,.71.57,1.28,1.28,1.28s1.28-.57,1.28-1.28v3.2c0,.71.57,1.28,1.28,1.28s1.28-.57,1.28-1.28v3.84c0,.71.57,1.28,1.28,1.28s1.28-.57,1.28-1.28v-3.84c0,.71.57,1.28,1.28,1.28s1.28-.57,1.28-1.28v6.4c0,.71.57,1.28,1.28,1.28s1.28-.57,1.28-1.28v-1.92c0,.71.57,1.28,1.28,1.28s1.28-.57,1.28-1.28v-3.2c0,.71.57,1.28,1.28,1.28s1.28-.57,1.28-1.28v-4.48c0,.71.57,1.28,1.28,1.28s1.28-.57,1.28-1.28v3.2c0,.71.57,1.28,1.28,1.28s1.28-.57,1.28-1.28v3.2c0,.71.57,1.28,1.28,1.28s1.28-.57,1.28-1.28v-3.2c0,.71.57,1.28,1.28,1.28.13,0,.24-.02.36-.06.6-2.44.92-5,.92-7.62H0c0,1.34.09,2.66.25,3.96.23.32.6.52,1.03.52Z"/>
        <path class="cls-5" d="m62.72,31.36c-.71,0-1.28.57-1.28,1.28v-3.2c0-.71-.57-1.28-1.28-1.28s-1.28.57-1.28,1.28v3.2c0-.71-.57-1.28-1.28-1.28s-1.28.57-1.28,1.28v3.2c0-.71-.57-1.28-1.28-1.28s-1.28.57-1.28,1.28v-4.48c0-.71-.57-1.28-1.28-1.28s-1.28.57-1.28,1.28v-3.2c0-.71-.57-1.28-1.28-1.28s-1.28.57-1.28,1.28v-1.92c0-.71-.57-1.28-1.28-1.28s-1.28.57-1.28,1.28v6.4c0-.71-.57-1.28-1.28-1.28s-1.28.57-1.28,1.28v-3.2c0-.71-.57-1.28-1.28-1.28s-1.28.57-1.28,1.28c0-.71-.57-1.28-1.28-1.28s-1.28.57-1.28,1.28c0-.71-.57-1.28-1.28-1.28s-1.28.57-1.28,1.28v-1.92c0-.71-.57-1.28-1.28-1.28s-1.28.57-1.28,1.28v1.92c0-.71-.57-1.28-1.28-1.28s-1.28.57-1.28,1.28v-1.92c0-.71-.57-1.28-1.28-1.28s-1.28.57-1.28,1.28v5.12c0-.71-.57-1.28-1.28-1.28s-1.28.57-1.28,1.28v-3.2c0-.71-.57-1.28-1.28-1.28s-1.28.57-1.28,1.28v3.2c0-.71-.57-1.28-1.28-1.28s-1.28.57-1.28,1.28v3.2c0-.71-.57-1.28-1.28-1.28s-1.28.57-1.28,1.28v-4.48c0-.71-.57-1.28-1.28-1.28s-1.28.57-1.28,1.28v-3.2c0-.71-.57-1.28-1.28-1.28s-1.28.57-1.28,1.28v-1.92c0-.71-.57-1.28-1.28-1.28s-1.28.57-1.28,1.28v6.4c0-.71-.57-1.28-1.28-1.28s-1.28.57-1.28,1.28v-3.2c0-.71-.57-1.28-1.28-1.28s-1.28.57-1.28,1.28v3.2c0-.71-.57-1.28-1.28-1.28s-1.28.57-1.28,1.28v3.2c0-.71-.57-1.28-1.28-1.28-.42,0-.79.21-1.03.52-.16,1.3-.25,2.62-.25,3.96h64c0-2.63-.32-5.18-.92-7.62-.11-.03-.23-.06-.36-.06Z"/>
        <path class="cls-4" d="m21.12,24.15v13c0,.46-.43.81-.88.7-.37-.09-.76-.13-1.16-.12-2.38.07-4.35,2.12-4.35,4.47,0,2.45,2,4.52,4.48,4.52,2.26,0,4.17-1.71,4.48-3.86v-13.13c0-.82.57-1.54,1.38-1.74l11.72-2.9c1.15-.28,2.26.58,2.26,1.75v5.84c0,.46-.43.81-.88.7-.37-.09-.76-.13-1.16-.12-2.38.07-4.35,2.18-4.35,4.53,0,2.45,2,4.44,4.48,4.44,2.26,0,4.17-1.7,4.48-3.85v-17.51c0-2.33-2.22-4.05-4.5-3.48l-13.23,3.28c-1.61.4-2.75,1.84-2.75,3.48Z"/>
        <path class="cls-6" d="m41.6,33.12v-7.04h-2.56v1.34c0,.46-.43.81-.88.7-.37-.09-.76-.13-1.16-.12-2.38.07-4.35,2.18-4.35,4.53,0,.84.24,1.61.64,2.28v-1.05c0,.71.57,1.28,1.28,1.28s1.28-.57,1.28-1.28v-4.48c0,.71.57,1.28,1.28,1.28s1.28-.57,1.28-1.28v3.2c0,.71.57,1.28,1.28,1.28s1.28-.57,1.28-1.28v2.35c.33-.51.55-1.09.64-1.71Zm-17.92-7.04h-2.56v5.81c0,.37-.28.67-.63.71.06.65.6,1.16,1.27,1.16.71,0,1.28-.57,1.28-1.28v3.2c0,.47.26.88.64,1.1v-10.7Zm-3.2,10.24v-3.72c-.08,0-.16,0-.24-.01-.37-.09-.76-.13-1.16-.12-1.44.04-2.74.82-3.53,1.94.22.38.63.63,1.1.63.71,0,1.28-.57,1.28-1.28v2.56c0,.71.57,1.28,1.28,1.28s1.28-.57,1.28-1.28Zm-5.12.64v-2.26c-.4.67-.64,1.44-.64,2.24,0,.36.05.7.13,1.04.31-.23.51-.6.51-1.02Z"/>
        <path class="cls-1" d="m41.6,38.4v-10.7c-.39.22-.64.63-.64,1.1,0-.71-.57-1.28-1.28-1.28s-1.28.57-1.28,1.28c0-.71-.57-1.28-1.28-1.28s-1.28.57-1.28,1.28v-1.92c0-.71-.57-1.28-1.28-1.28s-1.28.57-1.28,1.28v1.92c0-.71-.57-1.28-1.28-1.28s-1.28.57-1.28,1.28v-1.92c0-.3-.11-.57-.28-.78l-2.26.56-.02.22v5.12c0-.71-.57-1.28-1.28-1.28s-1.28.57-1.28,1.28v-3.2c0-.62-.44-1.13-1.02-1.25l-.71.18c-.14.04-.28.09-.42.14-.25.23-.41.57-.41.94v3.2c0-.71-.57-1.28-1.28-1.28-.22,0-.43.06-.61.16-.01.11-.03.22-.03.33v7.19h2.56v-1.61c0-.82.57-1.54,1.38-1.74l11.72-2.9c1.15-.28,2.26.58,2.26,1.75v4.51h2.56Z"/>
        <path class="cls-2" d="m22.4,24.15v13c0,.46-.43.81-.88.7-.37-.09-.76-.13-1.16-.12-2.38.07-4.35,2.12-4.35,4.47,0,2.45,2,4.52,4.48,4.52,2.26,0,4.17-1.71,4.48-3.86v-13.13c0-.82.57-1.54,1.38-1.74l11.72-2.9c1.15-.28,2.26.58,2.26,1.75v5.84c0,.46-.43.81-.88.7-.37-.09-.76-.13-1.16-.12-2.38.07-4.35,2.18-4.35,4.53,0,2.45,2,4.44,4.48,4.44,2.26,0,4.17-1.7,4.48-3.85v-17.51c0-2.33-2.22-4.05-4.5-3.48l-13.23,3.28c-1.61.4-2.75,1.84-2.75,3.48Z"/>
      </g>
    </g>
  </g>
</svg>