<?xml version="1.0" encoding="UTF-8"?>
<svg id="AC_icons" data-name="AC icons" xmlns="http://www.w3.org/2000/svg" viewBox="0 0 64 64">
  <defs>
    <style>
      .cls-1 {
        fill: #061a2f;
      }

      .cls-1, .cls-2 {
        stroke-width: 0px;
      }

      .cls-2 {
        fill: #6f973e;
      }
    </style>
  </defs>
  <g id="Infographic_icons" data-name="Infographic icons">
    <g id="infograph-building">
      <g>
        <rect class="cls-2" x="4.92" y="46.62" width="49.23" height="4.92"/>
        <path class="cls-1" d="m20.84,20.51l-1.23-2.13c-.73.42-1.5.73-2.29.99l-2.24-7.83c1.44-.61,2.46-2.03,2.46-3.69,0-1.77-1.17-3.26-2.77-3.79V1.38h-2.46v2.68c-1.6.52-2.77,2.01-2.77,3.79,0,1.66,1.02,3.08,2.46,3.69l-2.24,7.83c-.78-.26-1.55-.57-2.28-.99l-1.23,2.13c.9.52,1.86.91,2.84,1.22l-2.27,7.93,2.37.68,2.3-8.04c.68.1,1.37.15,2.06.15s1.37-.06,2.06-.15l2.3,8.04,2.37-.68-2.27-7.93c.98-.31,1.93-.7,2.84-1.22Zm-7.3-14.2c.85,0,1.54.69,1.54,1.54s-.69,1.54-1.54,1.54-1.54-.69-1.54-1.54.69-1.54,1.54-1.54Zm-1.37,13.6l1.37-4.81,1.37,4.81c-.91.1-1.83.1-2.75,0Z"/>
        <path class="cls-2" d="m49.23,32.36v-3.11l-2.76-.23c-.19-1-.56-1.96-1.09-2.82l1.85-2.18-2.2-2.2-2.12,1.79c-.84-.57-1.78-.99-2.77-1.22l-.24-2.85h-3.11l-.23,2.76c-1,.19-1.96.56-2.82,1.09l-2.18-1.85-2.2,2.2,1.79,2.12c-.57.84-.99,1.78-1.22,2.77l-2.85.24v3.11l2.76.23c.19,1,.56,1.96,1.09,2.82l-1.85,2.18,2.2,2.2,2.12-1.79c.84.57,1.78.99,2.77,1.22l.24,2.85h3.11l.23-2.76c1-.19,1.95-.56,2.82-1.09l2.18,1.85,2.2-2.2-1.79-2.12c.57-.84.99-1.78,1.22-2.77l2.85-.24Zm-11.08,1.02c-1.53,0-2.77-1.24-2.77-2.77s1.24-2.77,2.77-2.77,2.77,1.24,2.77,2.77-1.24,2.77-2.77,2.77Z"/>
        <path class="cls-1" d="m38.15,34.62c-2.21,0-4-1.79-4-4s1.79-4,4-4,4,1.79,4,4-1.79,4-4,4Zm0-5.54c-.85,0-1.54.69-1.54,1.54s.69,1.54,1.54,1.54,1.54-.69,1.54-1.54-.69-1.54-1.54-1.54Z"/>
        <path class="cls-1" d="m60,4.77h-3.38v6.15H18.46v2.46h38.15v37.23h3.38c.85,0,1.54.69,1.54,1.54v.31c0,.85-.69,1.54-1.54,1.54H4c-.55,0-1.07.14-1.54.39V14.92c0-.85.69-1.54,1.54-1.54h4.62v-2.46h-4.62c-2.21,0-4,1.79-4,4v43.69c0,2.21,1.79,4,4,4h5.23v-6.15h50.77c2.21,0,4-1.79,4-4V8.77c0-2.21-1.79-4-4-4ZM6.77,60.15h-2.77c-.85,0-1.54-.69-1.54-1.54s.69-1.54,1.54-1.54h2.77v3.08Zm52.31-12V7.23h.92c.85,0,1.54.69,1.54,1.54v39.69c-.16-.07-.33-.11-.49-.15-.08-.02-.16-.06-.25-.08-.26-.05-.53-.08-.8-.08h-.92Z"/>
      </g>
    </g>
  </g>
</svg>