<?xml version="1.0" encoding="UTF-8"?>
<svg id="AC_icons" data-name="AC icons" xmlns="http://www.w3.org/2000/svg" viewBox="0 0 64 64">
  <defs>
    <style>
      .cls-1 {
        fill: #172649;
      }

      .cls-1, .cls-2 {
        stroke-width: 0px;
      }

      .cls-2 {
        fill: red;
      }
    </style>
  </defs>
  <g id="Infographic_icons" data-name="Infographic icons">
    <g id="dvds">
      <g>
        <path class="cls-1" d="m32,64c17.67,0,32-14.33,32-32S49.67,0,32,0,0,14.33,0,32s14.33,32,32,32Z"/>
        <path class="cls-2" d="m48.8,29.6l-7.2,4.8c0-.69-.15-1.37-.44-2-.29-.63-.71-1.18-1.24-1.63,1.5-.9,2.67-2.25,3.37-3.86.69-1.61.86-3.39.49-5.1-.37-1.71-1.27-3.26-2.57-4.43-1.3-1.17-2.93-1.91-4.67-2.11-1.74-.2-3.49.15-5.02,1-1.53.85-2.76,2.15-3.51,3.73-.75,1.58-.99,3.36-.68,5.08.31,1.72,1.15,3.3,2.4,4.52h-4.4c.96-1.06,1.59-2.38,1.79-3.8.21-1.42-.01-2.86-.63-4.15-.62-1.29-1.61-2.37-2.84-3.09-1.23-.73-2.66-1.07-4.09-.98-1.43.09-2.8.6-3.94,1.47-1.14.87-1.99,2.06-2.45,3.42-.46,1.36-.5,2.82-.12,4.2.38,1.38,1.16,2.62,2.24,3.55-.75.41-1.38,1.01-1.82,1.75-.44.74-.67,1.58-.68,2.44v9.6c0,1.27.51,2.49,1.41,3.39.9.9,2.12,1.41,3.39,1.41h19.2c1.27,0,2.49-.51,3.39-1.41.9-.9,1.41-2.12,1.41-3.39l7.2,4.8c.64,0,1.25-.25,1.7-.7.45-.45.7-1.06.7-1.7v-14.4c0-.64-.25-1.25-.7-1.7-.45-.45-1.06-.7-1.7-.7Zm-28.8,0c-.95,0-1.88-.28-2.67-.81-.79-.53-1.4-1.28-1.77-2.15-.36-.88-.46-1.84-.27-2.77.19-.93.64-1.79,1.31-2.46.67-.67,1.53-1.13,2.46-1.31.93-.19,1.9-.09,2.77.27.88.36,1.63.98,2.15,1.77.53.79.81,1.72.81,2.67,0,1.27-.51,2.49-1.41,3.39-.9.9-2.12,1.41-3.39,1.41Zm15.6.01c-1.19,0-2.35-.35-3.34-1.01-.99-.66-1.76-1.6-2.21-2.7-.46-1.1-.57-2.31-.34-3.47.23-1.17.8-2.24,1.65-3.08.84-.84,1.91-1.41,3.08-1.65,1.17-.23,2.38-.11,3.47.34,1.1.46,2.04,1.23,2.7,2.21.66.99,1.01,2.15,1.01,3.34,0,1.59-.63,3.12-1.76,4.25-1.13,1.13-2.66,1.76-4.25,1.76Z"/>
      </g>
    </g>
  </g>
</svg>