<?xml version="1.0" encoding="UTF-8"?>
<svg id="AC_icons" data-name="AC icons" xmlns="http://www.w3.org/2000/svg" viewBox="0 0 64 64">
  <defs>
    <style>
      .cls-1 {
        fill: #f6c358;
      }

      .cls-1, .cls-2, .cls-3, .cls-4, .cls-5, .cls-6 {
        stroke-width: 0px;
      }

      .cls-2 {
        fill: #d5d6db;
      }

      .cls-3 {
        fill: #fcd462;
      }

      .cls-4 {
        fill: #44c4a1;
      }

      .cls-5 {
        fill: #e56353;
      }

      .cls-6 {
        fill: #ebf0f3;
      }
    </style>
  </defs>
  <g id="Infographic_icons" data-name="Infographic icons">
    <g id="e-audiobooks">
      <g>
        <path class="cls-4" d="m64,32c0,17.7-14.35,32-32,32-.5,0-1,0-1.5-.05C13.55,63.2,0,49.2,0,32S14.35,0,32,0C48.45,0,62,12.4,63.8,28.4c.14,1.19.21,2.4.2,3.6Z"/>
        <path class="cls-3" d="m48.1,41.75l-33.1,4.65v-29.05c0-.75.15-1.49.43-2.18.29-.69.71-1.32,1.24-1.85.53-.53,1.16-.95,1.85-1.24.69-.29,1.43-.43,2.18-.43h26.1c.17,0,.34.03.5.1.16.06.3.16.42.28.12.12.22.26.28.42.06.16.1.33.1.5v28.8Z"/>
        <path class="cls-1" d="m20,45.7l-5,.7v-29.05c0-1.39.52-2.73,1.44-3.77.92-1.04,2.19-1.71,3.56-1.88v34Z"/>
        <path class="cls-6" d="m20,18.55v3.15c-1.38.18-2.64.84-3.56,1.88-.92,1.04-1.43,2.38-1.44,3.77v-3.15c0-1.39.5-2.73,1.43-3.78.92-1.04,2.19-1.71,3.57-1.87Z"/>
        <path class="cls-6" d="m20,30.75v3.15c-1.38.17-2.64.84-3.56,1.88-.92,1.04-1.43,2.38-1.44,3.77v-3.15c0-1.39.51-2.73,1.43-3.77.92-1.04,2.19-1.71,3.57-1.87Z"/>
        <path class="cls-1" d="m47.1,42.75h-26.55c-.52,0-1.03.12-1.5.33-.47.21-.89.52-1.24.91-.34.39-.6.84-.76,1.33-.16.49-.21,1.01-.15,1.53.25,1.85,1.9,3.2,3.8,3.2h26.4c.25,0,.49.1.67.28.18.18.28.42.28.67s-.1.49-.28.67c-.18.18-.42.28-.67.28h-26.3c-3.15,0-5.85-2.55-5.8-5.7.04-1.45.63-2.82,1.65-3.85,1.05-1.05,2.47-1.64,3.95-1.65h26.55c.12,0,.25.02.36.07.12.05.22.12.31.21s.16.19.21.31c.05.12.07.24.07.36,0,.14-.02.27-.07.4-.05.13-.12.24-.21.34-.09.1-.2.18-.33.23-.12.05-.26.08-.39.08Z"/>
        <path class="cls-2" d="m45.6,46.4c0-1.55.55-2.85,1.4-3.65h-26.45c-.97,0-1.9.38-2.58,1.07-.68.68-1.07,1.61-1.07,2.58s.38,1.9,1.07,2.58c.68.68,1.61,1.07,2.58,1.07h26.45c-.85-.8-1.4-2.15-1.4-3.65Z"/>
        <path class="cls-6" d="m34.1,35.2c4.69,0,8.5-3.81,8.5-8.5s-3.81-8.5-8.5-8.5-8.5,3.81-8.5,8.5,3.81,8.5,8.5,8.5Z"/>
        <path class="cls-5" d="m37.8,25.65l-4.55-3.5c-.2-.16-.45-.25-.7-.28-.26-.02-.51.02-.74.14-.23.11-.42.29-.56.51-.13.22-.2.47-.2.73v7c0,.26.07.51.2.73.13.22.33.4.56.51.23.11.49.16.74.14.26-.02.5-.12.7-.28l4.55-3.5c.75-.6.75-1.65,0-2.2Z"/>
      </g>
    </g>
  </g>
</svg>