<?xml version="1.0" encoding="UTF-8"?>
<svg id="AC_icons" data-name="AC icons" xmlns="http://www.w3.org/2000/svg" viewBox="0 0 64 64">
  <defs>
    <style>
      .cls-1 {
        fill: #e32726;
      }

      .cls-1, .cls-2, .cls-3 {
        stroke-width: 0px;
      }

      .cls-2 {
        fill: #fff;
      }

      .cls-3 {
        fill: #012639;
      }
    </style>
  </defs>
  <g id="Infographic_icons" data-name="Infographic icons">
    <g id="dog-prohibited">
      <g>
        <path class="cls-1" d="m0,0v64h64V0H0Zm5.54,58.98l-.49-53.48,53.49-.5.49,53.49-53.48.49Z"/>
        <path class="cls-3" d="m5.04,5.5l.49,53.48,53.48-.49-.49-53.49-53.49.5Zm37.67,13.65c.53-.36,1.08-.69,1.65-.98-.11.62-.18,1.25-.22,1.88-.02.31.12.6.37.78l6.13,2.14,1.88.71c-.33.59-1.48,2.35-2.07,3.31-.28.42-.78.65-1.28.59h-3.76l-.67.38-1.5,1.47-5.63-5.64s3.69-3.75,5.1-4.66Zm10.38,33.58h-4.66l-7.58-7.76c-.24.45-.68.83-1.5.83-1.95,0-1.88-2.4-1.88-2.4v-1.89l-5.66-5.79h-7.1s-1.42,1.57-2.56,2.63c-1.05.8-2.35,1.23-3.67,1.2-.43.04-.77.4-.78.83v3.75c-.06.92-.79,1.66-1.72,1.72-1.01.07-1.89-.7-1.96-1.72v-5.18c0-.18.16-.03,1.5-.78,1.34-.75,1.57-3.61,1.57-3.61v-6.31s-2.4-.71-3.58-1.17c-1.23-.43-2.19-1.4-2.62-2.63,1.44.34,2.91.53,4.39.56,1.31.02,2.35.08,2.35.08h3.8l-9.64-9.86v-3.96h4.8l13.56,13.82h6.11l4.88,4.88h.02v6.35l11.95,12.17v4.24Z"/>
        <polygon class="cls-2" points="41.15 29.96 41.14 29.96 36.25 25.09 30.14 25.09 41.15 36.31 41.15 29.96"/>
        <path class="cls-2" d="m37.47,43.4s-.07,2.4,1.88,2.4c.83,0,1.26-.38,1.5-.83l-3.38-3.46v1.89Z"/>
        <path class="cls-2" d="m44.74,27.97l.67-.38h3.76c.51.06,1-.17,1.28-.59.59-.96,1.74-2.72,2.07-3.31l-1.88-.71-6.13-2.14c-.25-.18-.39-.48-.37-.78.04-.63.11-1.26.22-1.88-.57.29-1.12.62-1.65.98-1.42.91-5.1,4.66-5.1,4.66l5.63,5.64,1.5-1.47Z"/>
        <path class="cls-2" d="m17.62,25.09s-1.04-.05-2.35-.08c-1.48-.03-2.95-.22-4.39-.56.43,1.23,1.39,2.2,2.62,2.63,1.18.45,3.58,1.17,3.58,1.17v6.31s-.23,2.86-1.57,3.61c-1.34.75-1.5.6-1.5.78v5.18c.07,1.01.94,1.78,1.96,1.72.92-.06,1.66-.79,1.72-1.72v-3.75c.02-.43.35-.79.78-.83,1.32.03,2.62-.39,3.67-1.2,1.14-1.06,2.56-2.63,2.56-2.63h7.1l-10.39-10.63h-3.8Z"/>
        <polygon class="cls-1" points="30.14 25.09 16.58 11.27 11.78 11.27 11.78 15.23 21.42 25.09 31.81 35.72 37.47 41.51 40.85 44.97 48.44 52.73 53.1 52.73 53.1 48.49 41.15 36.31 30.14 25.09"/>
      </g>
    </g>
  </g>
</svg>