<?xml version="1.0" encoding="UTF-8"?>
<svg id="AC_icons" data-name="AC icons" xmlns="http://www.w3.org/2000/svg" viewBox="0 0 64 64">
  <defs>
    <style>
      .cls-1 {
        fill: #41ad49;
        isolation: isolate;
        opacity: .9;
      }

      .cls-1, .cls-2, .cls-3 {
        stroke-width: 0px;
      }

      .cls-2 {
        fill: #fff;
      }

      .cls-3 {
        fill: #012639;
      }
    </style>
  </defs>
  <g id="Infographic_icons" data-name="Infographic icons">
    <g id="dog-off-leash">
      <g>
        <rect class="cls-1" width="64" height="64"/>
        <path class="cls-3" d="m4.85,4.85h54.29v54.29H4.85V4.85Z"/>
        <path class="cls-2" d="m44,29.76l-5.6-5.61s3.66-3.73,5.08-4.63c.53-.36,1.08-.68,1.64-.97-.11.62-.18,1.24-.22,1.87-.02.31.12.6.37.78l6.1,2.14c.71.26,1.87.7,1.87.7-.34.59-1.47,2.35-2.06,3.3-.28.42-.77.65-1.27.59h-3.74l-.67.37-1.5,1.46Zm-2.08.49l-4.86-4.85h-18.54s-1.04-.06-2.35-.08c-1.47-.03-2.94-.22-4.37-.56.43,1.22,1.39,2.18,2.61,2.61,1.18.45,3.55,1.16,3.55,1.16v6.26s-.22,2.84-1.57,3.59-1.5.59-1.5.78v5.18c.07,1.01.94,1.77,1.95,1.71.92-.06,1.65-.79,1.71-1.71v-3.73c.02-.43.35-.78.78-.82,1.32.03,2.61-.39,3.66-1.2,1.13-1.05,2.54-2.61,2.54-2.61h12.71v7.7s-.08,2.39,1.87,2.39c1.79,0,1.79-1.79,1.79-2.17v-13.64h0Z"/>
      </g>
    </g>
  </g>
</svg>