<?xml version="1.0" encoding="UTF-8"?>
<svg id="AC_icons" data-name="AC icons" xmlns="http://www.w3.org/2000/svg" viewBox="0 0 64 64">
  <defs>
    <style>
      .cls-1 {
        fill: none;
      }

      .cls-1, .cls-2, .cls-3, .cls-4 {
        stroke-width: 0px;
      }

      .cls-2 {
        fill: #061a2f;
      }

      .cls-3 {
        fill: #6f973e;
      }

      .cls-4 {
        fill: #02314b;
      }
    </style>
  </defs>
  <g id="Infographic_icons" data-name="Infographic icons">
    <g id="infograph-environment">
      <g>
        <path class="cls-2" d="m47.76,47.79h4.51v1.8h-4.51v-1.8Zm-10.8,3.62h5.41v1.8h-5.41v-1.8Zm-.02-3.62h-4.51v-1.8h4.51v1.8Z"/>
        <path class="cls-1" d="m24.82,15.06c.28.97.42,1.97.42,2.98,0,.93-.13,1.85-.35,2.73h15.39c1.65,0,3-1.34,3-3,0-1.65-1.34-3-3-3v-.9.9c-.63,0-1.23.2-1.74.56l-1.23.89-.19-1.51c-.13-1.01-1.07-1.73-2.07-1.6-.23.03-.44.1-.65.21l-1,.54-.3-1.1c-.44-1.63-1.49-3-2.96-3.84-1.47-.84-3.18-1.06-4.81-.62-1.62.44-2.95,1.5-3.77,2.88,1.1,1.15,1.93,2.55,2.38,4.12l.87-.25Z"/>
        <path class="cls-3" d="m60.39,36.98v-3.6c0-2.99-2.42-5.41-5.41-5.41-1.12,0-2.2.35-3.12.99-2.44-3.76-7.47-4.82-11.22-2.38-2.3,1.5-3.69,4.05-3.69,6.79v3.61h5.82c5.33-3.07,12.02-3.22,17.62,0Z"/>
        <path class="cls-3" d="m23.94,15.31c-.45-1.57-1.28-2.98-2.38-4.12-.42-.44-.89-.84-1.39-1.2-1.62-1.16-3.6-1.85-5.75-1.85v.9c-4.96,0-9,4.05-8.99,9.01,0,2.4.94,4.66,2.64,6.36,1.48,1.48,3.39,2.38,5.45,2.58v-4.3l-4.19-1.79.71-1.66,3.48,1.49v-4.49h1.8v2.28l1.43-.82,1.95-1.11.89,1.57-2.55,1.46-1.56.89-.17.1v2.23l1.93-.72,2.26-.85.49,1.29.15.39-4.82,1.81v2.24c2.07-.2,3.99-1.11,5.48-2.6.56-.56,1.02-1.18,1.41-1.84.33-.57.61-1.17.8-1.8.27-.87.42-1.79.42-2.73,0-.84-.12-1.67-.35-2.48l.86-.25Z"/>
        <path class="cls-4" d="m15.32,20.19v.42l.17-.1c-.06-.1-.12-.21-.17-.32Z"/>
        <rect class="cls-2" x="32.43" y="45.98" width="4.51" height="1.8"/>
        <rect class="cls-2" x="36.96" y="51.41" width="5.41" height="1.8"/>
        <rect class="cls-2" x="47.76" y="47.79" width="4.51" height="1.8"/>
        <path class="cls-2" d="m60.41,36.99s0,0-.01,0c-5.6-3.21-12.29-3.07-17.62,0h-14.77c-3.76-2.77-8.16-4.37-12.68-4.67v-3.5c2.55-.21,4.93-1.3,6.76-3.13.91-.92,1.63-1.97,2.16-3.11h16.03c2.65,0,4.8-2.15,4.8-4.8,0-2.65-2.15-4.8-4.8-4.8h0c-.6,0-1.19.11-1.74.33-.68-1.33-2.15-2.17-3.71-1.97-.1.01-.19.03-.29.05-.68-1.69-1.89-3.09-3.5-4.01-1.88-1.08-4.08-1.36-6.18-.8-1.98.54-3.62,1.79-4.69,3.42.5.36.97.76,1.39,1.2.82-1.38,2.14-2.44,3.77-2.88,1.63-.44,3.34-.22,4.81.62,1.47.84,2.52,2.21,2.96,3.84l.3,1.1,1-.54c.2-.11.42-.18.65-.21,1-.13,1.94.59,2.07,1.6l.19,1.51,1.23-.89c.51-.37,1.11-.56,1.74-.56v-.9s0,.9,0,.9c1.65,0,3,1.34,3,3,0,1.65-1.35,3-3,3h-15.39c.23-.88.36-1.79.35-2.73,0-1.01-.14-2.01-.42-2.98l-.87.25-.86.25c.23.8.35,1.64.35,2.48,0,.94-.15,1.85-.42,2.73-.2.63-.47,1.23-.8,1.8-.39.66-.85,1.28-1.41,1.84-1.49,1.49-3.41,2.4-5.48,2.6v-2.24l4.82-1.81-.15-.39-.49-1.29-2.26.85-1.93.72v-2.65c.05.11.11.22.17.32l1.56-.89,2.55-1.46-.89-1.57-1.95,1.11-1.43.82v-2.28h-1.8v4.49l-3.48-1.49-.71,1.66,4.19,1.79v4.3c-2.06-.21-3.96-1.1-5.45-2.58-1.7-1.7-2.64-3.96-2.64-6.36,0-4.96,4.03-9.01,8.99-9.01v-.9s0-.9,0-.9c-5.96,0-10.8,4.86-10.79,10.82,0,2.89,1.13,5.6,3.17,7.64,1.82,1.82,4.18,2.9,6.72,3.11v3.46c-4.14.03-8.31,1.13-12.12,3.36-.16.09-.32.17-.47.26l.94,1.54c9.45-5.8,21.48-3.93,28.75,4.39-.15.84-.89,1.49-1.77,1.49h-6.31c-1.99,0-3.61,1.62-3.61,3.61s1.62,3.61,3.61,3.61h6.31c.5,0,.9.4.9.9s-.4.9-.9.9h-1.8c-1.49,0-2.7,1.21-2.7,2.7s1.21,2.7,2.7,2.7h22.54c1.99,0,3.61-1.62,3.61-3.61,0-.99.81-1.8,1.8-1.8h3.15c2.24,0,4.06-1.82,4.06-4.06s-1.82-4.06-4.06-4.06h-15.77c-1.38,0-2.51-1.05-2.67-2.39,5.06-5.72,13.41-7.06,20.01-3.15l.21.13h4.09v-1.8h-3.59Zm-22.28,3.87s0,0,0,0c-.02.02-.03.03-.05.05h0c-.13.16-.22.36-.22.58,0,2.49,2.02,4.51,4.51,4.51h15.77c1.24,0,2.25,1.01,2.25,2.25s-1.01,2.25-2.25,2.25h-3.15c-1.99,0-3.61,1.62-3.61,3.61,0,.99-.81,1.8-1.8,1.8h-22.54c-.5,0-.9-.4-.9-.9s.4-.9.9-.9h1.8c1.49,0,2.7-1.21,2.7-2.7s-1.21-2.7-2.7-2.7h-6.31c-.99,0-1.8-.81-1.8-1.8s.81-1.8,1.8-1.8h6.31c1.99,0,3.61-1.62,3.61-3.61,0-.22-.09-.42-.22-.57h0s-.03-.04-.05-.06c0,0,0,0,0,0-.63-.74-1.31-1.42-2-2.07h10.03c-.74.62-1.44,1.31-2.09,2.07Z"/>
        <polygon class="cls-3" points="7.21 46 7.21 57.72 10.82 57.72 10.82 46.9 12.62 36.08 7.21 46"/>
        <polygon class="cls-3" points="1.8 51.41 1.8 57.72 5.41 57.72 5.41 50.51 0 41.49 1.8 51.41"/>
        <polygon class="cls-3" points="12.62 48.7 12.62 57.72 16.23 57.72 16.23 52.31 20.73 53.21 16.23 48.7 12.62 48.7"/>
      </g>
    </g>
  </g>
</svg>