<?xml version="1.0" encoding="UTF-8"?>
<svg id="AC_icons" data-name="AC icons" xmlns="http://www.w3.org/2000/svg" viewBox="0 0 64 64">
  <defs>
    <style>
      .cls-1 {
        fill: none;
      }

      .cls-1, .cls-2, .cls-3 {
        stroke-width: 0px;
      }

      .cls-2 {
        fill: #061a2f;
      }

      .cls-3 {
        fill: #6f973e;
      }
    </style>
  </defs>
  <g id="Infographic_icons" data-name="Infographic icons">
    <g id="infograph-plans">
      <g>
        <path class="cls-1" d="m4.44,51.52h7.19v6.69l6.69-6.69h30.45V11.98H4.44v39.54ZM14.03,19.17h27.56v2.4H14.03v-2.4Zm0,7.19h27.56v2.4H14.03v-2.4Zm0,7.19h27.56v2.4H14.03v-2.4Zm0,7.19h27.56v2.4H14.03v-2.4Z"/>
        <rect class="cls-1" x="55.96" y="11.98" width="3.59" height="39.54"/>
        <polygon class="cls-1" points="51.17 55.54 52.37 57.56 53.57 55.54 53.57 53.92 51.17 53.92 51.17 55.54"/>
        <rect class="cls-1" x="51.17" y="2.4" width="2.4" height="2.4"/>
        <path class="cls-2" d="m55.96,2.06c-.04-1.17-1.05-2.1-2.16-2.06h-2.84c-1.18-.03-2.16.89-2.19,2.1v5.09h7.19V2.06Zm-5.03.34h.01-.01Zm2.64,2.4h-2.4v-2.4h2.4s0,2.4,0,2.4Zm.26-2.4s.01,0,.02,0c0,0-.01,0-.02,0Z"/>
        <rect class="cls-3" x="51.17" y="11.98" width="2.4" height="39.54"/>
        <path class="cls-2" d="m55.96,9.59h0s-7.19,0-7.19,0h0s-46.73,0-46.73,0v44.33h7.19v10.08l10.08-10.08h29.46v2.28l3.59,6.07,3.59-6.07v-2.28h5.99V9.59h-5.99Zm-7.19,41.94h-30.45l-6.69,6.69v-6.69h-7.19V11.98h44.33v39.54Zm4.79,4.02l-1.2,2.02-1.2-2.02v-1.62h2.4v1.62Zm0-4.02h-2.4V11.98h2.4v39.54Zm5.99,0h-3.59V11.98h3.59v39.54Z"/>
        <rect class="cls-3" x="48.77" y="7.19" width="7.19" height="2.4"/>
        <rect class="cls-3" x="48.77" y="9.59" width="7.19" height="0"/>
        <rect class="cls-2" x="14.03" y="19.17" width="27.56" height="2.4"/>
        <rect class="cls-2" x="14.03" y="26.36" width="27.56" height="2.4"/>
        <rect class="cls-2" x="14.03" y="33.55" width="27.56" height="2.4"/>
        <rect class="cls-2" x="14.03" y="40.74" width="27.56" height="2.4"/>
      </g>
    </g>
  </g>
</svg>