<?xml version="1.0" encoding="UTF-8"?>
<svg id="AC_icons" data-name="AC icons" xmlns="http://www.w3.org/2000/svg" viewBox="0 0 64 64">
  <defs>
    <style>
      .cls-1 {
        fill: none;
      }

      .cls-1, .cls-2, .cls-3, .cls-4 {
        stroke-width: 0px;
      }

      .cls-2 {
        fill: #061a2f;
      }

      .cls-3 {
        fill: #6f973e;
      }

      .cls-4 {
        fill: #02314b;
      }
    </style>
  </defs>
  <g id="Infographic_icons" data-name="Infographic icons">
    <g id="infograph-recreation">
      <g>
        <path class="cls-1" d="m26.55,37.5c4.08,6.28,6.89,10.08,11.47,10.08h.5c-2.56-1.82-4.75-4.96-7.45-9.11-3.75-5.77-7.97-12.26-15.52-13.04,4.86,2.61,8.07,7.54,11.01,12.07Z"/>
        <polygon class="cls-1" points="6.29 38.7 11.15 38.7 11.61 36.03 6.74 36.03 6.29 38.7"/>
        <polygon class="cls-1" points="3.72 53.81 8.59 53.81 9.34 49.37 4.48 49.37 3.72 53.81"/>
        <polygon class="cls-1" points="5.53 43.14 10.4 43.14 10.85 40.47 5.99 40.47 5.53 43.14"/>
        <polygon class="cls-1" points="4.78 47.59 9.64 47.59 10.1 44.92 5.23 44.92 4.78 47.59"/>
        <path class="cls-1" d="m7.5,31.58l-.45,2.67h4.86l.24-1.41c-1.26-.82-2.6-1.26-4.14-1.26h-.51Z"/>
        <path class="cls-4" d="m24.9,53.81v1.78h13.12c-2.84,0-5.26-.67-7.37-1.78h-5.74Z"/>
        <polygon class="cls-3" points="6.65 23.58 3.56 23.58 3.56 31.58 5.69 31.58 5.84 30.69 5.99 29.8 6.75 25.36 6.9 24.47 6.94 24.24 7.05 23.58 6.65 23.58"/>
        <path class="cls-3" d="m38.51,47.59h-.5c-4.58,0-7.39-3.81-11.47-10.08-2.94-4.52-6.16-9.46-11.01-12.07-.1-.05-.2-.1-.3-.15-.54-.27-1.1-.52-1.68-.73-1.43-.53-2.99-.85-4.71-.94l-.15.88-.15.88-.32,1.87-.43,2.55-.15.89-.15.89h.51c1.54,0,2.89.44,4.14,1.26.54.35,1.07.77,1.59,1.26,1.85,1.74,3.62,4.32,5.73,7.56,2.97,4.57,6.23,9.56,11.17,12.15,2.11,1.11,4.53,1.78,7.37,1.78h2.89v-8h-2.39Z"/>
        <path class="cls-2" d="m64,22.24c0-7.1-5.76-12.89-12.87-12.89v1.78c6.12,0,11.09,4.99,11.09,11.11,0,5.66-4.27,10.33-9.76,11v-3.3l4.13-1.77-.7-1.63-3.43,1.47v-4.43h-1.78v2.25l-3.34-1.91-.88,1.54,4.22,2.41v2.2l-4.13-1.55-.63,1.67,4.76,1.78v1.34c-2.81-.11-5.43-1.24-7.43-3.24-2.09-2.1-3.25-4.89-3.24-7.85,0-1.03.15-2.06.43-3.06l-.85-.24-.86-.25c-.33,1.15-.5,2.35-.5,3.55,0,.16.02.31.02.47h-13.07c-.62,0-1.22-.19-1.72-.55-.64-.46-1.06-1.14-1.19-1.92-.13-.78.05-1.56.51-2.2s1.14-1.06,1.92-1.19c.16-.03.32-.04.49-.04.61,0,1.21.19,1.71.55l1.21.87.19-1.48c.03-.22.1-.44.2-.64.23-.43.62-.74,1.08-.88.47-.14.96-.09,1.39.14l.99.53.29-1.08c.74-2.72,3.22-4.61,6.03-4.61h0c1.67,0,3.24.65,4.42,1.83.3.3.56.62.78.95.46-.37.94-.71,1.45-1.02-.29-.42-.61-.82-.98-1.19-1.52-1.52-3.53-2.35-5.68-2.35h0c-3.29,0-6.23,2.02-7.44,5.02-.58-.12-1.18-.1-1.77.08-.92.28-1.68.89-2.14,1.74-.01.03-.03.05-.04.08-.78-.31-1.64-.4-2.49-.26-1.25.21-2.34.88-3.08,1.91-.74,1.03-1.03,2.28-.82,3.53.2,1.25.88,2.34,1.91,3.08.81.58,1.76.89,2.76.89h13.25c.05.3.12.6.19.89.56,2.24,1.7,4.3,3.37,5.97,2.33,2.34,5.4,3.65,8.69,3.76v15.16h-3.56v-2.67h-3.11c-4.58,0-7.39-3.81-11.47-10.08-2.97-4.57-6.23-9.56-11.17-12.15-.58-.3-1.19-.57-1.82-.8-1.25-.46-2.59-.78-4.05-.91l.7-4.15-1.75-.3-.74,4.37h-4.86l.69-4.08-1.75-.3-.74,4.37-.11.66-.04.23-.15.89-.76,4.45-.15.89-.15.89-3.78,22.23H0v1.78h12.45v-1.78h-2.06l3.35-19.71c-.52-.49-1.05-.91-1.59-1.26l-.24,1.41h-4.86l.45-2.67.15-.89.15-.89.43-2.55.32-1.87.15-.88.15-.88c1.72.08,3.28.41,4.71.94.58.21,1.14.46,1.68.73.1.05.2.1.3.15,7.55.78,11.77,7.27,15.52,13.04,2.7,4.15,4.9,7.29,7.45,9.11h2.39v8h8v-1.78h-1.78v-1.78h9.78v-1.78h-4.45v-15.22c6.47-.68,11.53-6.15,11.53-12.8ZM8.59,53.81H3.72l.76-4.45h4.86l-.76,4.45Zm1.06-6.22h-4.86l.45-2.67h4.86l-.45,2.67Zm.75-4.45h-4.86l.45-2.67h4.86l-.45,2.67Zm1.21-7.11l-.45,2.67h-4.86l.45-2.67h4.86Z"/>
      </g>
    </g>
  </g>
</svg>