<?xml version="1.0" encoding="UTF-8"?>
<svg id="AC_icons" data-name="AC icons" xmlns="http://www.w3.org/2000/svg" viewBox="0 0 64 64">
  <defs>
    <style>
      .cls-1 {
        fill: none;
      }

      .cls-1, .cls-2, .cls-3 {
        stroke-width: 0px;
      }

      .cls-2 {
        fill: #061a2f;
      }

      .cls-3 {
        fill: #6f973e;
      }
    </style>
  </defs>
  <g id="Infographic_icons" data-name="Infographic icons">
    <g id="infograph-dog">
      <g>
        <path class="cls-2" d="m9.98,49.69h4.31v1.73h-4.31v-1.73Zm5.18,4.31h-2.59v-1.73h2.59v1.73Z"/>
        <path class="cls-1" d="m2.83,43.89c-.51,0-.94.35-1.07.82l1.31,1.45v.94h.86v-2.11c0-.61-.5-1.11-1.11-1.11Z"/>
        <rect class="cls-1" x="18.6" y="8.27" width="3.45" height=".86"/>
        <path class="cls-1" d="m20.33,5.69c-.64,0-1.19.35-1.49.86h2.97c-.3-.51-.85-.86-1.49-.86Z"/>
        <path class="cls-1" d="m20.33,11.73c.64,0,1.19-.35,1.49-.86h-2.97c.3.51.85.86,1.49.86Z"/>
        <polygon class="cls-1" points="60.22 29.84 61.23 28.5 56.79 26.84 55.5 24.24 51.92 22.82 52.48 19.45 45.64 26.83 51.23 32.92 52.26 29.84 60.22 29.84"/>
        <path class="cls-3" d="m2.83,42.16c.82,0,1.56.36,2.07.92.06-.2.1-.4.1-.62,0-1.25-1.01-2.26-2.26-2.26s-2.26,1.01-2.26,2.26c0,.28.06.54.15.79.52-.66,1.31-1.08,2.21-1.08Z"/>
        <path class="cls-3" d="m1.35,46.82l-.78-.87c-.05.19-.09.4-.09.61,0,.72.35,1.36.88,1.78v-1.52Z"/>
        <path class="cls-3" d="m16.88,10v-2.59c0-.3.05-.59.12-.86.08-.31.2-.59.36-.86h-.91c-1.66,0-3.02,1.35-3.02,3.02s1.35,3.02,3.02,3.02h.91c-.16-.27-.28-.56-.36-.86-.07-.28-.12-.56-.12-.86Z"/>
        <path class="cls-3" d="m24.21,5.69h-.91c.16.27.28.56.36.86.07.28.12.56.12.86v2.59c0,.3-.05.59-.12.86-.08.31-.2.59-.36.86h.91c1.66,0,3.02-1.35,3.02-3.02s-1.35-3.02-3.02-3.02Z"/>
        <path class="cls-2" d="m21.18,27.25c-6.16,0-8.21,6.61-9.57,10.99-.42,1.35-.94,3.03-1.3,3.3l-.69.52,1.04,1.38.69-.52c.81-.61,1.25-2.03,1.91-4.17,1.28-4.13,3.03-9.78,7.92-9.78h19.67l-1.51-1.73h-18.16Z"/>
        <path class="cls-2" d="m23.66,6.55c-.08-.31-.2-.59-.36-.86-.19-.33-.43-.62-.71-.86-.61-.53-1.39-.86-2.26-.86s-1.65.33-2.26.86c-.28.25-.52.54-.71.86-.16.27-.28.56-.36.86-.07.28-.12.56-.12.86v2.59c0,.3.05.59.12.86.08.31.2.59.36.86.19.33.43.62.71.86.61.53,1.39.86,2.26.86s1.65-.33,2.26-.86c.28-.25.52-.54.71-.86.16-.27.28-.56.36-.86.07-.28.12-.56.12-.86v-2.59c0-.3-.05-.59-.12-.86Zm-3.33-.86c.64,0,1.19.35,1.49.86h-2.97c.3-.51.85-.86,1.49-.86Zm0,6.04c-.64,0-1.19-.35-1.49-.86h2.97c-.3.51-.85.86-1.49.86Zm1.73-2.59h-3.45v-.86h3.45v.86Z"/>
        <polygon class="cls-3" points="8.25 45.37 6.52 45.37 5.66 45.37 5.66 47.1 6.52 47.1 8.25 47.1 13.43 47.1 13.43 45.37 8.25 45.37"/>
        <rect class="cls-2" x="9.98" y="49.69" width="4.31" height="1.73"/>
        <rect class="cls-2" x="12.56" y="52.27" width="2.59" height="1.73"/>
        <path class="cls-2" d="m35.86,17.95v-1.04c0-.45.06-.89.17-1.32l.22-.83-1.67-.44-.22.83c-.15.57-.23,1.17-.23,1.79v1.02h1.73Z"/>
        <path class="cls-2" d="m38.15,12.6c.41-.28.87-.49,1.34-.64l.82-.26-.51-1.65-.82.26c-.63.2-1.24.49-1.79.86l-.72.48.96,1.43.72-.48Z"/>
        <path class="cls-2" d="m22.63,23.72l.67.54,1.08-1.34-.67-.54c-.4-.32-.76-.69-1.07-1.1l-.53-.68-1.37,1.05.53.68c.4.51.85.98,1.36,1.39Z"/>
        <path class="cls-2" d="m44.39,12.96l.66.56,1.12-1.31-.66-.56c-.51-.43-1.07-.79-1.68-1.06l-.79-.35-.7,1.58.79.35c.45.2.88.47,1.26.79Z"/>
        <path class="cls-2" d="m27.23,23.78l-.86-.08-.15,1.72.86.07c.19.02.38.03.61.03.46-.01.91-.06,1.36-.15l.85-.16-.33-1.69-.85.16c-.36.07-.72.11-1.05.12-.15,0-.3,0-.45-.02Z"/>
        <path class="cls-2" d="m33.29,23.17c.46-.45.88-.95,1.23-1.5l.47-.72-1.45-.94-.47.72c-.28.43-.61.83-.98,1.19l-.62.6,1.2,1.24.62-.6Z"/>
        <path class="cls-2" d="m21.19,15.18h-1.73v1.73c0,.32.02.64.05.95l.09.86,1.72-.18-.09-.86c-.03-.26-.04-.52-.04-.77v-1.73Z"/>
        <path class="cls-2" d="m47.86,15.92l-.12-.85-1.71.25.12.85c.03.24.05.49.05.74v1.73h1.73v-1.73c0-.33-.02-.66-.07-.99Z"/>
        <polygon class="cls-2" points="52.48 19.45 51.92 22.82 55.5 24.24 56.79 26.84 61.23 28.5 60.22 29.84 52.26 29.84 51.23 32.92 52.57 34.38 53.5 31.57 61.08 31.57 64 27.69 58.03 25.47 56.75 22.88 53.85 21.73 54.45 18.09 52.86 16.5 44.48 25.54 44.48 25.55 45.64 26.83 52.48 19.45"/>
        <polygon class="cls-3" points="52.54 34.46 52.57 34.38 52.57 34.38 52.54 34.46"/>
        <polygon class="cls-3" points="50.51 40.03 50.51 40.03 50.53 40 50.51 40.03 50.51 40.03"/>
        <polygon class="cls-3" points="39.33 27.25 39.33 27.25 39.33 27.25 39.33 27.25"/>
        <polygon class="cls-3" points="51.23 32.92 45.64 26.83 44.48 25.55 44.48 25.55 44.47 25.56 39.33 27.25 39.33 27.25 40.84 28.98 49.27 38.61 50.51 40.03 50.53 40 50.97 38.79 52.4 34.86 52.54 34.46 52.57 34.38 51.23 32.92"/>
        <path class="cls-2" d="m49.22,50.62v-7.86l1.3-2.73-1.24-1.42-1.78,3.76v8.96l1.94,1.94v.72h-1.37l-2.16-2.16-2.67-10.9-12.99-1.93-.19.76c-1.16,4.62-5.72,7.11-9.43,7.11h-.99l.61,4.5,1.89,1.89v.72h-1.38l-2.06-1.98-.36-1.08c.17-.69.26-1.4.26-2.12v-1.73h-1.53l-.24-.73,4.35-6.34v-6.64h-1.73v6.1l-4.53,6.6.33,1H5.66v-2.11c0-.74-.29-1.41-.76-1.91-.52-.56-1.25-.92-2.07-.92-.9,0-1.69.43-2.21,1.08-.38.48-.62,1.08-.62,1.75v.33l.57.63.78.87v2h0c0,.29.02.58.05.86.1.99.37,1.97.8,2.87,1,2.08,2.74,3.64,4.92,4.41.37.13.75.23,1.14.31v2.77h1.73v-2.58s0,0,0,0c.04,0,.08,0,.12,0h.74v2.59h1.73v-2.99c.39-.12.77-.26,1.14-.44l-.38-.79-.37-.77c-1.66.8-3.53.9-5.27.29s-3.14-1.86-3.93-3.53c-.32-.67-.53-1.39-.62-2.12-.04-.29-.06-.57-.06-.86h13.8c0,.65-.09,1.29-.27,1.91l-.07.26.41,1.24s0,0,0,0l.24.74,2.87,2.76h3.8v-3.16l-1.99-1.99-.27-2.02c.45-.04.91-.12,1.37-.22l3.74,4.16,3.53,2.37h2.59l-.87-1.94-2.81-1.94-1.6-3.24c1.79,0,4.53-3.5,5.45-6.58l5.01.74-.03,10.37,2.04,2.59h2.59l.41-1.94-1.53-1.94,1.24-4.89,1.62,6.62,3.01,3.01h3.81v-3.16l-1.94-1.94Zm-45.28-3.53h-.86v-.94l-1.31-1.45c.13-.47.56-.82,1.07-.82.61,0,1.11.5,1.11,1.11v2.11Z"/>
      </g>
    </g>
  </g>
</svg>