<?xml version="1.0" encoding="UTF-8"?>
<svg id="AC_icons" data-name="AC icons" xmlns="http://www.w3.org/2000/svg" viewBox="0 0 64 64">
  <defs>
    <style>
      .cls-1 {
        fill: #fff;
      }

      .cls-1, .cls-2 {
        stroke-width: 0px;
      }

      .cls-3 {
        stroke: #c20926;
        stroke-linecap: round;
        stroke-width: 2px;
      }

      .cls-3, .cls-2 {
        fill: #c20926;
      }
    </style>
  </defs>
  <g id="Infographic_icons" data-name="Infographic icons">
    <g id="red-cross-circle">
      <g>
        <circle class="cls-1" cx="32" cy="32" r="32"/>
        <path class="cls-2" d="m32,8c13.23,0,24,10.77,24,24s-10.77,24-24,24-24-10.77-24-24,10.77-24,24-24M32,0C14.33,0,0,14.33,0,32s14.33,32,32,32,32-14.33,32-32S49.67,0,32,0h0Z"/>
        <g id="Group_5726" data-name="Group 5726">
          <g id="btn_icon-only_feedback_no" data-name="btn icon-only feedback no">
            <g id="Group_5640" data-name="Group 5640">
              <path id="Line_618" data-name="Line 618" class="cls-3" d="m21.12,44.59c-.45,0-.89-.18-1.21-.5-.67-.67-.67-1.75,0-2.42l21.76-21.76c.67-.67,1.75-.67,2.42,0,.67.67.67,1.75,0,2.42l-21.76,21.76c-.32.32-.75.5-1.21.5Z"/>
              <path id="Line_619" data-name="Line 619" class="cls-3" d="m42.88,44.59c-.45,0-.89-.18-1.21-.5l-21.76-21.76c-.67-.67-.67-1.75,0-2.42.67-.67,1.75-.67,2.42,0l21.76,21.76c.67.67.67,1.75,0,2.42-.32.32-.75.5-1.21.5h0Z"/>
            </g>
          </g>
        </g>
      </g>
    </g>
  </g>
</svg>