<?xml version="1.0" encoding="UTF-8"?>
<svg id="AC_icons" data-name="AC icons" xmlns="http://www.w3.org/2000/svg" viewBox="0 0 64 64">
  <defs>
    <style>
      .cls-1 {
        fill: none;
      }

      .cls-1, .cls-2, .cls-3, .cls-4 {
        stroke-width: 0px;
      }

      .cls-2 {
        fill: #061a2f;
      }

      .cls-3 {
        fill: #6f973e;
      }

      .cls-4 {
        fill: #02314b;
      }
    </style>
  </defs>
  <g id="Infographic_icons" data-name="Infographic icons">
    <g id="infograph-report">
      <g>
        <path class="cls-1" d="m45.13,32.82c-2.94,0-5.33,2.39-5.33,5.33s2.39,5.33,5.33,5.33,5.33-2.39,5.33-5.33-2.39-5.33-5.33-5.33Zm0,9.03c-2.04,0-3.69-1.65-3.69-3.69s1.65-3.69,3.69-3.69,3.69,1.65,3.69,3.69-1.65,3.69-3.69,3.69Z"/>
        <path class="cls-1" d="m9.03,24.21c.45,0,.82.37.82.82s-.37.82-.82.82-.82-.37-.82-.82.37-.82.82-.82Zm-1.64,2.46c0,.45-.37.82-.82.82s-.82-.37-.82-.82.37-.82.82-.82.82.37.82.82Zm-1.64-4.1c.45,0,.82.37.82.82s-.37.82-.82.82-.82-.37-.82-.82.37-.82.82-.82Zm-2.46,1.64c.45,0,.82.37.82.82s-.37.82-.82.82-.82-.37-.82-.82.37-.82.82-.82Z"/>
        <path class="cls-1" d="m36.92,47.18h16.41v-30.36h-16.41v30.36Zm8.21-2.05c-3.85,0-6.97-3.13-6.97-6.97s3.13-6.97,6.97-6.97,6.97,3.13,6.97,6.97-3.13,6.97-6.97,6.97Zm0-26.26c2.94,0,5.33,2.39,5.33,5.33s-2.39,5.33-5.33,5.33-5.33-2.39-5.33-5.33,2.39-5.33,5.33-5.33Z"/>
        <path class="cls-1" d="m41.44,24.21c0,2.04,1.66,3.69,3.69,3.69s3.69-1.66,3.69-3.69-1.66-3.69-3.69-3.69-3.69,1.66-3.69,3.69Zm5.74,0c0,1.13-.92,2.05-2.05,2.05s-2.05-.92-2.05-2.05.92-2.05,2.05-2.05,2.05.92,2.05,2.05Z"/>
        <polygon class="cls-1" points="6.5 40.25 5.89 43.9 8.21 43.9 8.21 38.97 6.5 40.25"/>
        <rect class="cls-1" x="32" y="16.82" width="3.28" height="30.36"/>
        <path class="cls-1" d="m14.47,29.13h-2.68c-.66.35-1.15.95-1.38,1.64h5.44c-.23-.7-.72-1.29-1.38-1.64Z"/>
        <polygon class="cls-1" points="27.54 25.72 28.49 29.38 26.9 29.79 25.26 23.49 19.71 24.93 22.17 34.4 20.58 34.81 19.29 29.85 18.05 31.46 18.05 33.23 18.05 34.87 18.05 43.9 20.92 43.9 23.14 40.94 24.45 41.93 22.97 43.9 30.36 43.9 30.36 36.39 28.94 36.5 25.8 38.07 25.07 36.6 28.49 34.89 30.36 34.74 30.36 24.03 29.09 24.17 27.54 25.72"/>
        <rect class="cls-1" x="9.85" y="32.48" width="6.56" height=".75"/>
        <path class="cls-2" d="m45.13,31.18c-3.85,0-6.97,3.13-6.97,6.97s3.13,6.97,6.97,6.97,6.97-3.13,6.97-6.97-3.13-6.97-6.97-6.97Zm0,12.31c-2.94,0-5.33-2.39-5.33-5.33s2.39-5.33,5.33-5.33,5.33,2.39,5.33,5.33-2.39,5.33-5.33,5.33Z"/>
        <circle class="cls-3" cx="45.13" cy="38.15" r="3.69"/>
        <path class="cls-2" d="m39.8,24.21c0,2.94,2.39,5.33,5.33,5.33s5.33-2.39,5.33-5.33-2.39-5.33-5.33-5.33-5.33,2.39-5.33,5.33Zm9.03,0c0,2.04-1.66,3.69-3.69,3.69s-3.69-1.66-3.69-3.69,1.66-3.69,3.69-3.69,3.69,1.66,3.69,3.69Z"/>
        <circle class="cls-3" cx="45.13" cy="24.21" r="2.05"/>
        <rect class="cls-2" x="59.08" y="33.23" width="4.92" height="1.64"/>
        <rect class="cls-2" x="59.33" y="37.59" width="1.64" height="4.92" transform="translate(-4.62 72.11) rotate(-60)"/>
        <rect class="cls-2" x="57.43" y="27.08" width="4.92" height="1.64" transform="translate(-5.93 33.68) rotate(-29.99)"/>
        <rect class="cls-4" x="9.85" y="32.41" width="6.56" height=".07"/>
        <rect class="cls-3" x="9.85" y="34.87" width="6.56" height="12.31"/>
        <polygon class="cls-3" points="14.77 26.67 14.77 23.38 11.49 23.38 11.49 26.67 12.31 26.67 13.95 26.67 14.77 26.67"/>
        <circle class="cls-3" cx="9.03" cy="25.03" r=".82"/>
        <circle class="cls-3" cx="6.56" cy="26.67" r=".82"/>
        <circle class="cls-3" cx="5.74" cy="23.38" r=".82"/>
        <circle class="cls-3" cx="3.28" cy="25.03" r=".82"/>
        <circle class="cls-3" cx="1.64" cy="28.31" r=".82"/>
        <circle class="cls-3" cx=".82" cy="21.74" r=".82"/>
        <path class="cls-4" d="m10.41,30.77s-.02.05-.03.07h5.5s-.02-.05-.03-.07h-5.44Z"/>
        <path class="cls-2" d="m36.92,15.18h-6.56v7.2l-2.02.22-1.28,1.28-.62-2.39-8.73,2.27,1.06,4.08-1.52,1.98c-.44-.98-1.23-1.8-2.24-2.26l-.16-.07h-.89v-.82h-1.64v.82h-.89l-.16.07c-1.32.6-2.25,1.81-2.54,3.21h-.51v6.15l-3.22,2.41-.76,4.56H1.64v1.64h6.56v3.28h9.85v-3.28h12.31v1.64h-4.1v1.64h28.72V15.18h-18.05Zm-28.72,28.72h-2.31l.61-3.64,1.71-1.28v4.92Zm2.2-13.13c.23-.69.72-1.29,1.38-1.64h2.68c.66.35,1.15.95,1.38,1.64,0,.03.02.05.03.07h-5.5s.02-.05.03-.07Zm6,16.41h-6.56v-12.31h6.56v12.31Zm0-14.69v.75h-6.56v-.82h6.56v.07Zm13.95,2.26l-1.86.15-3.43,1.71.73,1.47,3.14-1.57,1.42-.11v7.51h-7.38l1.48-1.97-1.31-.98-2.22,2.95h-2.87v-12.44l1.24-1.61,1.29,4.96,1.59-.41-2.46-9.46,5.56-1.45,1.64,6.31,1.59-.41-.95-3.66,1.55-1.55,1.26-.14v10.71Zm4.92,12.44h-3.28v-30.36h3.28v30.36Zm18.05,0h-16.41v-30.36h16.41v30.36Z"/>
      </g>
    </g>
  </g>
</svg>