<?xml version="1.0" encoding="UTF-8"?>
<svg id="AC_icons" data-name="AC icons" xmlns="http://www.w3.org/2000/svg" viewBox="0 0 64 64">
  <defs>
    <style>
      .cls-1 {
        fill: none;
      }

      .cls-1, .cls-2, .cls-3 {
        stroke-width: 0px;
      }

      .cls-2 {
        fill: #061a2f;
      }

      .cls-3 {
        fill: #6f973e;
      }
    </style>
  </defs>
  <g id="Infographic_icons" data-name="Infographic icons">
    <g id="infograph-licences">
      <g>
        <path class="cls-1" d="m38.4,57.48v-3.72h-12.8v3.73c.02,1.59-.84,3.08-2.25,3.87l-.15.08h17.6l-.13-.07c-1.43-.8-2.29-2.28-2.27-3.89Z"/>
        <path class="cls-1" d="m2.56,49.6c0,.88.72,1.6,1.6,1.6h55.68c.88,0,1.6-.72,1.6-1.6v-2.24H2.56v2.24Z"/>
        <path class="cls-2" d="m59.84,11.52h-8.64v2.56h8.64c.88,0,1.6.72,1.6,1.6v29.12H2.56V15.68c0-.88.72-1.6,1.6-1.6h8.64v-2.56H4.16c-2.29,0-4.16,1.87-4.16,4.16v33.92c0,2.29,1.87,4.16,4.16,4.16h18.88v3.75c0,.67-.35,1.29-.92,1.6l-2.92,1.56v3.33h25.6v-3.33l-2.9-1.55c-.59-.33-.94-.94-.94-1.63v-3.73h18.88c2.29,0,4.16-1.87,4.16-4.16V15.68c0-2.29-1.87-4.16-4.16-4.16ZM23.2,61.44l.15-.08c1.41-.78,2.27-2.27,2.25-3.87v-3.73h12.8v3.72c-.02,1.61.84,3.1,2.27,3.89l.13.07h-17.6Zm38.24-11.84c0,.88-.72,1.6-1.6,1.6H4.16c-.88,0-1.6-.72-1.6-1.6v-2.24h58.88v2.24Z"/>
        <rect class="cls-3" x="5.12" y="16.64" width="10.24" height="25.6"/>
        <rect class="cls-3" x="48.64" y="16.64" width="10.24" height="25.6"/>
        <polygon class="cls-2" points="39.68 0 39.68 8.96 48.64 8.96 39.68 0"/>
        <rect class="cls-2" x="29.44" y="14.08" width="12.8" height="2.56"/>
        <rect class="cls-2" x="29.44" y="23.04" width="12.8" height="2.56"/>
        <rect class="cls-2" x="29.44" y="32" width="12.8" height="2.56"/>
        <polygon class="cls-2" points="15.36 0 15.36 16.64 15.36 42.24 16.64 42.24 17.92 42.24 17.92 2.56 37.12 2.56 37.12 0 15.36 0"/>
        <polygon class="cls-2" points="46.08 11.52 46.08 42.24 47.36 42.24 48.64 42.24 48.64 16.64 48.64 11.52 46.08 11.52"/>
        <polygon class="cls-2" points="21.76 32.11 19.95 33.92 22.72 36.69 27.41 32 25.6 30.19 22.72 33.07 21.76 32.11"/>
        <polygon class="cls-2" points="25.6 21.23 22.72 24.11 21.76 23.15 19.95 24.96 22.72 27.73 27.41 23.04 25.6 21.23"/>
        <polygon class="cls-2" points="25.6 12.27 22.72 15.15 21.76 14.19 19.95 16 22.72 18.77 27.41 14.08 25.6 12.27"/>
      </g>
    </g>
  </g>
</svg>