<?xml version="1.0" encoding="UTF-8"?>
<svg id="AC_icons" data-name="AC icons" xmlns="http://www.w3.org/2000/svg" viewBox="0 0 64 64">
  <defs>
    <style>
      .cls-1 {
        opacity: .2;
      }

      .cls-2 {
        fill: #4f5d73;
      }

      .cls-2, .cls-3, .cls-4, .cls-5, .cls-6, .cls-7 {
        stroke-width: 0px;
      }

      .cls-3 {
        fill: #fff;
      }

      .cls-4 {
        fill: #e0e0d1;
      }

      .cls-5 {
        fill: #231f20;
      }

      .cls-6 {
        fill: #77b3d4;
      }

      .cls-7 {
        fill: #c75c5c;
      }
    </style>
  </defs>
  <g id="Infographic_icons" data-name="Infographic icons">
    <g id="photographs">
      <g>
        <path class="cls-7" d="m32,64c17.67,0,32-14.33,32-32S49.67,0,32,0,0,14.33,0,32s14.33,32,32,32Z"/>
        <g class="cls-1">
          <path class="cls-5" d="m52.24,18.59l-24.3-4.32c-.96-.17-1.87.47-2.04,1.43l-4.94,27.78c-.17.96.47,1.87,1.43,2.05l24.31,4.32c.96.17,1.87-.47,2.05-1.43l4.94-27.78c.17-.96-.47-1.87-1.43-2.04Zm-23.9-1.56l22.57,4.02-3.86,21.7-22.57-4.02,3.86-21.7Z"/>
        </g>
        <path class="cls-4" d="m52.54,18.59l-24.3-4.32c-.96-.17-1.87.47-2.04,1.43l-4.94,27.78c-.17.96.47,1.87,1.43,2.04l24.31,4.32c.96.17,1.87-.47,2.05-1.43l4.94-27.78c.17-.96-.47-1.87-1.43-2.05Zm-23.9-1.56l22.57,4.02-3.86,21.7-22.57-4.02,3.86-21.7Z"/>
        <path class="cls-2" d="m28.64,19.26l-3.86,21.7,22.57,4.01,3.86-21.7-22.57-4.01Z"/>
        <g class="cls-1">
          <path class="cls-5" d="m37.64,13.95l-24.22,4.8c-.96.19-1.58,1.12-1.39,2.07l5.49,27.68c.19.95,1.12,1.58,2.07,1.39l24.22-4.8c.96-.19,1.58-1.12,1.39-2.07l-5.49-27.67c-.19-.96-1.12-1.58-2.07-1.39Zm-22.84,7.22l22.49-4.46,4.29,21.62-22.49,4.46-4.29-21.62Z"/>
        </g>
        <path class="cls-3" d="m36.06,13.95l-24.22,4.8c-.96.19-1.58,1.12-1.39,2.07l5.49,27.68c.19.96,1.12,1.58,2.07,1.39l24.22-4.8c.96-.19,1.58-1.12,1.39-2.07l-5.49-27.67c-.19-.96-1.12-1.58-2.07-1.39Zm-22.84,7.22l22.49-4.46,4.29,21.62-22.49,4.46-4.29-21.62Z"/>
        <path class="cls-6" d="m35.71,19.06l-22.49,4.46,4.29,21.62,22.49-4.46-4.29-21.62Z"/>
      </g>
    </g>
  </g>
</svg>