<?xml version="1.0" encoding="UTF-8"?>
<svg id="AC_icons" data-name="AC icons" xmlns="http://www.w3.org/2000/svg" viewBox="0 0 64 64">
  <defs>
    <style>
      .cls-1 {
        fill: #fff;
      }

      .cls-1, .cls-2 {
        stroke-width: 0px;
      }

      .cls-2 {
        fill: #061a2f;
      }
    </style>
  </defs>
  <g id="Infographic_icons" data-name="Infographic icons">
    <g id="infograph-have-your-say">
      <g>
        <path class="cls-2" d="m32,0C14.33,0,0,14.33,0,32,0,38.56,1.98,44.65,5.36,49.72L0,64l14.28-5.36c5.07,3.38,11.17,5.36,17.72,5.36,17.67,0,32-14.33,32-32S49.67,0,32,0Z"/>
        <g>
          <path class="cls-1" d="m25.84,17.55h-2.19l-.41-2.37h-2.02l-.41,2.37h-2.13l2.16-10.54h2.84l2.16,10.54Zm-3.6-8.03h-.05l-.68,3.96h1.42l-.69-3.96Z"/>
          <path class="cls-1" d="m31.22,12.14l2.11,5.41h-2.46l-1.64-4.37h-.43v4.37h-2.26V7.01h2.26v4.24h.43l1.53-4.24h2.43l-1.97,5.13Z"/>
        </g>
        <g>
          <path class="cls-1" d="m21.43,25.77v4.4h-2.26v-10.54h2.26v4.28h2.1v-4.28h2.27v10.54h-2.27v-4.4h-2.1Z"/>
          <path class="cls-1" d="m33.65,30.17h-2.19l-.41-2.37h-2.02l-.41,2.37h-2.13l2.16-10.54h2.84l2.16,10.54Zm-3.6-8.03h-.05l-.68,3.96h1.42l-.69-3.96Z"/>
          <path class="cls-1" d="m36.7,26.61h.06l1.25-6.97h2.27l-2.38,10.54h-2.37l-2.41-10.54h2.33l1.25,6.97Z"/>
          <path class="cls-1" d="m43.23,28.3h2.92v1.88h-5.14v-10.54h5.14v1.88h-2.92v2.43h2.46v1.78h-2.46v2.57Z"/>
        </g>
        <g>
          <path class="cls-1" d="m21,32.26l1.2,3.93h.03l1.22-3.93h2.24l-2.38,6.83v3.71h-2.22v-3.71l-2.4-6.83h2.32Z"/>
          <path class="cls-1" d="m28.86,32.13c2.27,0,3.5,1.91,3.5,5.4s-1.23,5.4-3.5,5.4-3.49-1.91-3.49-5.4,1.23-5.4,3.49-5.4Zm0,1.89c-.82,0-1.15,1.03-1.15,3.5s.33,3.5,1.15,3.5,1.15-1.03,1.15-3.5-.33-3.5-1.15-3.5Z"/>
          <path class="cls-1" d="m37.36,39.52v-7.26h2.27v7.13c0,2.27-1.14,3.53-3.22,3.53s-3.22-1.26-3.22-3.53v-7.13h2.27v7.26c0,1.07.3,1.53.95,1.53s.95-.47.95-1.53Z"/>
          <path class="cls-1" d="m45.1,42.8c-.14-.24-.25-.58-.33-1.14l-.22-1.94c-.11-.68-.38-.95-.96-.95h-.58v4.02h-2.24v-10.54h3.2c2.13,0,3.22,1.04,3.22,3.06,0,1.32-.69,2.3-1.75,2.54v.03c.74.17,1.21.74,1.34,1.64l.28,2.07c.06.5.2.88.41,1.2h-2.37Zm-1.42-8.71h-.68v2.97h.69c.82,0,1.17-.41,1.17-1.48s-.35-1.48-1.18-1.48Z"/>
        </g>
        <g>
          <path class="cls-1" d="m24,54.73c-.58.55-1.33.82-2.22.82-1.85,0-3.08-1.22-3.09-3.11l1.94-.54c-.02,1.12.43,1.85,1.14,1.85.57,0,.9-.35.9-.96,0-.27-.09-.54-.28-.77-.19-.25-.6-.6-1.23-1.04-.93-.63-1.55-1.18-1.85-1.66-.3-.49-.44-1.03-.44-1.63,0-.87.28-1.56.85-2.11s1.29-.82,2.19-.82c1.78,0,2.86,1.09,2.92,2.93l-1.94.43c0-.96-.38-1.58-.96-1.58-.52,0-.87.36-.87.93,0,.24.09.47.27.71.17.22.57.54,1.18.96.96.66,1.59,1.25,1.91,1.75.32.5.47,1.07.47,1.7,0,.87-.3,1.58-.88,2.13Z"/>
          <path class="cls-1" d="m32.38,55.42h-2.19l-.41-2.37h-2.02l-.41,2.37h-2.13l2.16-10.54h2.84l2.16,10.54Zm-3.6-8.03h-.05l-.68,3.96h1.42l-.69-3.96Z"/>
          <path class="cls-1" d="m34,44.88l1.2,3.93h.03l1.22-3.93h2.24l-2.38,6.83v3.71h-2.22v-3.71l-2.4-6.83h2.32Z"/>
        </g>
      </g>
    </g>
  </g>
</svg>