<?xml version="1.0" encoding="UTF-8"?>
<svg id="AC_icons" data-name="AC icons" xmlns="http://www.w3.org/2000/svg" viewBox="0 0 64 64">
  <defs>
    <style>
      .cls-1 {
        fill: #061a2f;
      }

      .cls-1, .cls-2 {
        stroke-width: 0px;
      }

      .cls-2 {
        fill: #6f973e;
      }
    </style>
  </defs>
  <g id="Infographic_icons" data-name="Infographic icons">
    <g id="infograph-art-culture">
      <g>
        <g>
          <path class="cls-2" d="m17.92,37.21h-3.88v7.9h4.39v-2.77s-.02-.03-.03-.05c-.81-1.37-1.04-2.97-.65-4.51.05-.19.11-.38.17-.57"/>
          <rect class="cls-2" x="7.9" y="37.21" width="4.39" height="7.9"/>
          <path class="cls-2" d="m61.94,35.07c-.14-.37-.33-.71-.56-1.03h0s-2.57-3.54-2.57-3.54v-2.98c0-.81-.66-1.46-1.46-1.46-.23,0-.47.06-.68.18l-.68.38-1.93-2.65c-.24.21-.5.4-.79.56l-12.32,7.12c-1.26.73-2.68,1.11-4.13,1.11-.16,0-.32,0-.48-.01-2.12-.12-3.96-1.26-5.05-2.99l-3.68,2.18-.48-.56c-.25-.29-.61-.47-.99-.5-.39-.03-.76.09-1.06.35-.32.28-.51.68-.51,1.11v1.41l-3.21,1.9c-.96.57-1.65,1.49-1.92,2.57-.28,1.09-.11,2.22.46,3.18.64,1.07,1.71,1.79,2.91,1.99v-5.29h1.76v14.92h5.27v-12.63l17.53-10.39,6.17,8.56v14.46h5.27v-11.93l.56-.22c1.12-.43,2-1.27,2.49-2.36.49-1.09.52-2.31.09-3.43Z"/>
          <path class="cls-2" d="m53.57,18.62c-.12-.2-.25-.39-.41-.56h0c-.51-.56-1.2-.9-1.93-1-.1-.01-.2-.03-.3-.03-.05,0-.09-.01-.14-.01-.33,0-.66.05-.98.15l-14.53,4.7c-1.19.38-2.16,1.21-2.72,2.32-.48.94-.61,1.99-.41,3.01.04.19.06.37.12.55.04.11.09.21.13.32.11.28.24.54.4.78.79,1.23,2.12,2.04,3.65,2.13,1.27.08,2.53-.22,3.63-.86l12.32-7.12c.23-.13.43-.3.62-.48.22-.21.41-.46.56-.72.13-.23.24-.48.31-.74.02-.09.03-.17.04-.26.14-.75.02-1.51-.36-2.17Z"/>
        </g>
        <g>
          <rect class="cls-1" x="10.53" y="24.92" width="1.76" height="3.51"/>
          <rect class="cls-1" x="14.04" y="24.92" width="1.76" height="3.51"/>
          <path class="cls-1" d="m51.1,16.9l-.18.13c.1,0,.2.02.3.03l-.12-.17Z"/>
          <path class="cls-1" d="m62.8,33l-2.23-3.08v-2.41c0-1.77-1.44-3.22-3.22-3.22-.27,0-.53.04-.79.1l-1.37-1.88c.17-.32.31-.65.4-1.01.34-1.28.17-2.62-.5-3.77-.18-.31-.39-.6-.64-.87-1.31-1.43-3.34-1.97-5.19-1.37l-14.53,4.7c-1.63.53-2.97,1.66-3.75,3.19-.76,1.48-.91,3.16-.43,4.75l-2.64,1.57c-.47-.34-1.04-.55-1.63-.6-.85-.07-1.68.21-2.33.76-.72.61-1.12,1.51-1.12,2.45v.4l-2.35,1.39c-1.2.71-2.09,1.79-2.56,3.09-.07.18-.12.37-.17.57-.39,1.54-.16,3.14.65,4.51.01.02.02.03.03.05.96,1.58,2.58,2.61,4.39,2.82v3.46H4.39v-1.39l.88-.88v-11.77h11.57c.46-.65,1.01-1.25,1.67-1.76H4.39v-.88l-.09-.39-.24-.49h16.74c.16-.64.42-1.23.77-1.76h-2.26v-5.27h9.08c.08-.3.18-.59.3-.88.12-.3.25-.59.4-.88h-10.65v-.88l-.09-.39-.24-.49h12.22c.63-.7,1.38-1.29,2.22-1.76h-10.15l7.02-3.27h0s1.3-.61,1.3-.61l.9-.42,2.19,1.02h0s3.41,1.59,3.41,1.59l2.45-.79-5.87-2.74v-1.26c.28-.43.44-.92.44-1.43,0-1.45-1.18-2.63-2.63-2.63s-2.63,1.18-2.63,2.63c0,.51.16,1,.44,1.43v1.26l-11.17,5.21h-1.56l-.79,1.27.79,1.57v.67h-7.9v-.67l.79-1.57-.79-1.27H3.51l-.79,1.27.79,1.57v7.69h-.88l-.79,1.27.79,1.57v1.55l.88.88v11.05l-.88.88v2.12H0v1.76h22.82v2.63h-7.9v1.76h16.68v-4.39h3.51v-1.76h-3.51v-7.24l15.29-9.06,4.9,6.8v15.65h11.11v-1.76h-2.34v-10.75c1.29-.65,2.3-1.71,2.9-3.04.68-1.52.72-3.22.12-4.77-.2-.51-.46-.99-.78-1.44ZM31.6,10c.48,0,.88.39.88.88,0,.26-.12.45-.23.58-.03.04-.07.07-.13.12-.03.03-.07.05-.15.09-.03.02-.06.02-.12.04l-.11.02h-.01s.01.1.01.1h-.07v-.08s-.03,0-.03,0h-.03s-.3-.05-.3-.05c-.03-.01-.06-.02-.14-.07-.04-.02-.07-.05-.13-.1-.03-.03-.06-.05-.08-.08h0c-.1-.12-.22-.31-.22-.57,0-.48.39-.88.88-.88Zm-22.82,14.04h8.78v5.27h-8.78v-5.27Zm-1.76,5.27h-1.76v-5.27h1.76v5.27Zm.34-8.78l-.24.49-.09.39v.88h-1.76v-.88l-.09-.39-.24-.49h2.43Zm25.19,3.66c.57-1.11,1.54-1.94,2.72-2.32l14.53-4.7c.32-.1.65-.15.98-.15.05,0,.09.01.14.01l.18-.13.12.17c.73.1,1.42.43,1.93,1h0c.16.17.29.36.41.56.38.66.5,1.43.36,2.17-.02.09-.02.17-.04.26-.07.26-.18.51-.31.74-.15.27-.34.51-.56.72-.19.18-.39.35-.62.48l-12.32,7.12c-1.1.64-2.37.94-3.63.86-1.52-.09-2.85-.9-3.65-2.13-.16-.24-.29-.51-.4-.78-.04-.11-.09-.21-.13-.32-.06-.18-.09-.37-.12-.55-.2-1.02-.07-2.07.41-3.01Zm29.31,14.31c-.49,1.09-1.37,1.93-2.49,2.36l-.56.22v11.93h-5.27v-14.46l-6.17-8.56-17.53,10.39v12.63h-5.27v-14.92h-1.76v5.29c-1.2-.2-2.28-.92-2.91-1.99-.57-.96-.74-2.09-.46-3.18.28-1.09.96-2,1.92-2.57l3.21-1.9v-1.41c0-.43.18-.83.51-1.11.29-.25.67-.38,1.06-.35.39.03.74.21.99.5l.48.56,3.68-2.18c1.09,1.73,2.93,2.87,5.05,2.99.16,0,.32.01.48.01,1.45,0,2.87-.38,4.13-1.11l12.32-7.12c.28-.16.55-.35.79-.56l1.93,2.65.68-.38c.21-.12.45-.18.68-.18.81,0,1.46.66,1.46,1.46v2.98l2.57,3.54h0c.23.32.42.67.56,1.03.43,1.12.4,2.34-.09,3.43Z"/>
        </g>
      </g>
    </g>
  </g>
</svg>