<?xml version="1.0" encoding="UTF-8"?>
<svg id="AC_icons" data-name="AC icons" xmlns="http://www.w3.org/2000/svg" viewBox="0 0 64 64">
  <defs>
    <style>
      .cls-1 {
        fill: #061a2f;
        fill-rule: evenodd;
        stroke-width: 0px;
      }
    </style>
  </defs>
  <g id="Informational_icons" data-name="Informational icons">
    <g id="J">
      <g id="jelly-fish">
        <g id="Jellyfish">
          <path class="cls-1" d="m27.68,34.72c.27.15.53.33.77.52.21.17.59.39.57.72s-.75.71-1.11.97c-1.2.87-2.69,1.58-3.87,2.37-1.18.79-2.49,1.65-3.29,2.96-.23.38-.59.96-.64,1.4-.07.62.19,1.41.4,2.01.22.55.49,1.09.81,1.59,1.23,2.07,2.65,3.73,3.7,5.91.65,1.24.93,2.64.81,4.03-.3.52-.66.99-1.08,1.41-.34.39-.82,1.07-1.48.94-.45-.08-.75-1.03-.77-1.52,0-.4.12-.75.14-1.08.07-1.03-.16-2.06-.67-2.95-.61-1.07-1.15-2-1.85-3.02-.68-.96-1.31-1.96-1.88-2.99-.57-1.04-1.21-2.28-1.21-3.64-.02-.85.1-1.69.33-2.5.22-.48.49-.93.81-1.35.84-1.29,1.91-2.41,3.16-3.31,1.83-1.32,3.79-2.04,6.35-2.47"/>
          <path class="cls-1" d="m33.59,34.91c.49.28,1.32.52,1.38,1.13.03.39-.57,1.44-.77,1.76-.45.69-1.19,1.41-1.72,2.02s-1.13,1.31-1.71,1.98c-1.19,1.37-2.48,2.77-2.49,4.87,0,1.01.42,1.7.77,2.5,1.22,2.76,2.63,5.32,3.26,8.71.16,1.11.2,2.23.1,3.35,0,.35-.04.7-.13,1.04-.28.59-1.7.74-2.19.13-.66-4.85-3.11-8.65-4.17-13.32-.2-.87-.28-1.77-.23-2.67.03-.77.14-1.88.44-2.54.12-.26.3-.57.47-.87s.31-.63.47-.88c.25-.32.52-.62.81-.91,1.29-1.51,2.69-2.98,4.03-4.45.57-.6,1.11-1.37,1.68-1.85"/>
          <path class="cls-1" d="m37.9,35.33c.35.07.69.19,1.01.36.25.13.67.35.7.62s-.36.92-.5,1.23c-.18.38-.4.82-.57,1.17-.39.81-.85,1.63-1.11,2.34-.11.3-.13.63-.24.91-.35.86-.59,1.75-.74,2.66-.2,1.35-.09,2.72.3,4.03.38,1.16,1.06,2.05,1.58,2.99.27.49.57.96.81,1.47s.57.98.77,1.49c.43,1.19.7,2.42.81,3.68.12,1.31.07,2.94-.27,4.06-.18.57-.64,1.46-1.41,1.63-1.16.25-1.68-.6-1.58-1.79.05-.57.25-1.13.31-1.72.31-3.39-1.16-5.55-2.25-7.8-.21-.44-.45-.89-.68-1.36s-.59-.99-.74-1.55c-.39-1.46-.2-3.58-.04-5.2.28-2.92.75-5.23,1.92-7.31.4-.71,1.26-1.7,1.91-1.89"/>
          <path class="cls-1" d="m45.92,55.86c-.9-3.75-3.97-6.05-5.24-9.55-.43-1.18-.77-2.68-.44-4.26.08-.34.28-.71.37-1.07.08-.38.18-.76.3-1.13.62-1.52,1.95-2.63,3.73-3.11.54-.15,1.55.18,1.58.61.02.32-.57.75-.81,1.01-.86.97-1.56,2.08-2.08,3.27-.45.92-.63,1.94-.54,2.95.13.99.6,1.72,1.11,2.47.92,1.37,2.13,2.69,3.12,4.06.54.71.96,1.5,1.24,2.34.3.98.48,2.68.06,3.64-.57,1.32-2.84,3.39-4.87,2.28-.26-.14-.68-.45-.74-.75-.1-.57.44-1.61.81-1.82.69-.4,1.98-.09,2.38-.94"/>
          <path class="cls-1" d="m32.79.02c3.43-.16,6.12.66,7.8,2.34.53.53,1.02,1.15,1.61,1.72s1.16,1.11,1.68,1.66c.28.28.55.59.85.85s.62.47.91.75c1.16,1.13,1.76,2.52,2.49,4.16,1.05,2.37,1.38,5.17,1.34,8.55,0,1-.2,2.05-.2,3.08,0,3.07.36,6.27.2,9.58-.04.88-.2,2.41-.77,2.54-.32.07-.98-.28-1.35-.42-1.29-.45-2.67-.98-3.93-1.33-.94-.26-1.88-.5-2.79-.75-2.61-.71-5.97-1.43-9.24-1.2-1.05.06-2.09.21-3.11.42-.93.2-1.75.57-2.66.85-.17.05-.61-.13-.87-.2-1.81-.46-3.74-.87-5.34-1.53-1.9-.79-3.25-2.02-4.03-3.73-.83-1.82-1.05-4.29-.7-6.66.38-2.55,1.15-5.03,2.28-7.35.59-1.21,1.44-2.31,2.05-3.7C20.92,5.25,23.84,1.64,29.28.48c1.16-.24,2.33-.4,3.51-.46"/>
        </g>
      </g>
    </g>
  </g>
</svg>