<?xml version="1.0" encoding="UTF-8"?>
<svg id="AC_icons" data-name="AC icons" xmlns="http://www.w3.org/2000/svg" viewBox="0 0 64 64">
  <defs>
    <style>
      .cls-1, .cls-2 {
        fill: #061a2f;
        stroke-width: 0px;
      }

      .cls-2 {
        fill-rule: evenodd;
      }
    </style>
  </defs>
  <g id="Informational_icons" data-name="Informational icons">
    <g id="J">
      <g id="jetski">
        <g id="Personal_water_craft_jet_ski" data-name="Personal water craft jet ski">
          <polygon class="cls-2" points="1.89 57.08 2.85 57.25 3.83 57.38 4.81 57.45 5.79 57.45 6.78 57.38 7.75 57.23 8.25 57.15 8.71 57.02 9.65 56.71 11.49 56.04 13.34 55.37 14.28 55.1 15.26 54.88 16.21 54.75 17.2 54.68 18.2 54.61 19.18 54.61 20.16 54.66 21.13 54.77 22.12 54.93 23.08 55.17 24.01 55.43 24.95 55.75 26.77 56.44 27.71 56.79 28.64 57.08 29.6 57.29 30.59 57.46 31.57 57.56 32.54 57.6 33.52 57.58 34.5 57.46 35.49 57.29 36.44 57.08 37.38 56.79 38.29 56.46 40.14 55.75 41.08 55.43 42.01 55.17 42.97 54.93 43.93 54.77 44.91 54.66 45.91 54.61 46.89 54.61 47.87 54.68 48.85 54.75 49.83 54.88 50.79 55.1 51.73 55.37 53.58 56.04 55.42 56.74 56.36 57.02 57.32 57.23 58.3 57.38 59.28 57.45 60.26 57.45 61.24 57.38 62.22 57.25 63.2 57.08 63.22 57.6 63.2 57.86 63.13 58.12 62.98 58.6 62.87 58.84 62.74 59.06 62.41 59.47 62.22 59.66 62.02 59.81 61.56 60.06 61.08 60.25 60.57 60.32 60.04 60.32 58.97 60.25 57.93 60.13 56.9 59.93 55.88 59.69 54.88 59.43 53.88 59.11 52.9 58.73 51.92 58.35 50.92 58.02 49.9 57.77 48.87 57.58 47.83 57.43 46.79 57.36 45.74 57.38 44.69 57.52 43.65 57.69 42.65 57.94 41.62 58.24 40.64 58.56 38.69 59.31 37.7 59.67 37.2 59.85 36.68 60 35.66 60.24 34.64 60.38 33.59 60.47 32.53 60.5 31.48 60.47 30.44 60.38 29.39 60.22 28.36 59.98 27.36 59.67 26.38 59.34 24.42 58.58 23.42 58.24 22.42 57.94 21.39 57.69 20.37 57.52 19.33 57.38 18.28 57.36 17.24 57.43 16.19 57.58 15.17 57.77 14.14 58.02 13.14 58.35 12.17 58.73 11.18 59.11 10.19 59.43 9.18 59.72 8.16 59.95 7.11 60.13 6.07 60.25 5.02 60.32 4.5 60.32 3.98 60.25 3.5 60.08 3.26 59.95 3.04 59.81 2.65 59.47 2.33 59.06 2.08 58.6 1.94 58.12 1.87 57.6 1.87 57.34 1.89 57.08"/>
          <polygon class="cls-1" points="1.89 57.08 2.85 57.25 3.83 57.38 4.81 57.45 5.79 57.45 6.78 57.38 7.75 57.23 8.25 57.15 8.71 57.02 9.65 56.71 11.49 56.04 13.34 55.37 14.28 55.1 15.26 54.88 16.21 54.75 17.2 54.68 18.2 54.61 19.18 54.61 20.16 54.66 21.13 54.77 22.12 54.93 23.08 55.17 24.01 55.43 24.95 55.75 26.77 56.44 27.71 56.79 28.64 57.08 29.6 57.29 30.59 57.46 31.57 57.56 32.54 57.6 33.52 57.58 34.5 57.46 35.49 57.29 36.44 57.08 37.38 56.79 38.29 56.46 40.14 55.75 41.08 55.43 42.01 55.17 42.97 54.93 43.93 54.77 44.91 54.66 45.91 54.61 46.89 54.61 47.87 54.68 48.85 54.75 49.83 54.88 50.79 55.1 51.73 55.37 53.58 56.04 55.42 56.74 56.36 57.02 57.32 57.23 58.3 57.38 59.28 57.45 60.26 57.45 61.24 57.38 62.22 57.25 63.2 57.08 63.22 57.6 63.2 57.86 63.13 58.12 62.98 58.6 62.87 58.84 62.74 59.06 62.41 59.47 62.22 59.66 62.02 59.81 61.56 60.06 61.08 60.25 60.57 60.32 60.04 60.32 58.97 60.25 57.93 60.13 56.9 59.93 55.88 59.69 54.88 59.43 53.88 59.11 52.9 58.73 51.92 58.35 50.92 58.02 49.9 57.77 48.87 57.58 47.83 57.43 46.79 57.36 45.74 57.38 44.69 57.52 43.65 57.69 42.65 57.94 41.62 58.24 40.64 58.56 38.69 59.31 37.7 59.67 37.2 59.85 36.68 60 35.66 60.24 34.64 60.38 33.59 60.47 32.53 60.5 31.48 60.47 30.44 60.38 29.39 60.22 28.36 59.98 27.36 59.67 26.38 59.34 24.42 58.58 23.42 58.24 22.42 57.94 21.39 57.69 20.37 57.52 19.33 57.38 18.28 57.36 17.24 57.43 16.19 57.58 15.17 57.77 14.14 58.02 13.14 58.35 12.17 58.73 11.18 59.11 10.19 59.43 9.18 59.72 8.16 59.95 7.11 60.13 6.07 60.25 5.02 60.32 4.5 60.32 3.98 60.25 3.5 60.08 3.26 59.95 3.04 59.81 2.65 59.47 2.33 59.06 2.08 58.6 1.94 58.12 1.87 57.6 1.87 57.34 1.89 57.08"/>
          <polygon class="cls-2" points="0 7.77 .06 7.04 .25 6.32 .59 5.65 1.02 5.03 1.54 4.51 2.15 4.08 2.85 3.76 3.57 3.57 4.32 3.5 5.07 3.57 5.81 3.76 6.48 4.08 7.11 4.51 7.64 5.03 8.07 5.65 8.4 6.32 8.59 7.04 8.67 7.77 8.59 8.51 8.4 9.23 8.07 9.92 7.64 10.51 7.11 11.05 6.48 11.47 5.81 11.78 5.07 11.98 4.32 12.04 3.57 11.98 2.85 11.78 2.15 11.47 1.54 11.05 1.02 10.51 .59 9.92 .25 9.23 .06 8.51 0 7.77"/>
          <polygon class="cls-1" points="0 8 .07 7.24 .26 6.47 .61 5.77 1.06 5.11 1.6 4.56 2.23 4.12 2.96 3.78 3.7 3.57 4.49 3.5 5.27 3.57 6.03 3.78 6.73 4.12 7.39 4.56 7.93 5.11 8.38 5.77 8.72 6.47 8.92 7.24 9 8 8.92 8.78 8.72 9.54 8.38 10.26 7.93 10.89 7.39 11.46 6.73 11.91 6.03 12.23 5.27 12.44 4.49 12.5 3.7 12.44 2.96 12.23 2.23 11.91 1.6 11.46 1.06 10.89 .61 10.26 .26 9.54 .07 8.78 0 8"/>
          <polygon class="cls-1" points="61.59 19.13 59.12 18.29 56.62 17.57 54.1 16.96 51.53 16.49 48.96 16.14 32.63 14.33 32.17 14.33 31.72 14.46 31.32 14.69 31.01 15.02 30.8 15.42 30.67 15.85 30.69 16.3 30.82 16.75 31.07 17.13 31.39 17.44 31.78 17.68 32.24 17.79 48.56 19.59 51.05 19.92 53.51 20.4 55.97 20.98 58.36 21.68 37.44 27.58 31.66 38.67 26.46 41.11 21.07 29.73 21.07 29.73 21.05 29.68 20.75 29.21 20.33 28.78 19.83 28.48 19.55 28.38 19.26 28.29 18.96 28.25 18.7 28.22 18.42 28.25 18.11 28.29 18.01 28.32 18 28.3 8 30.5 8 18.5 27 18.5 27.67 18.19 28.12 18.03 28.56 17.79 28.91 17.42 29.17 17.01 29.35 16.54 29.39 16.05 29.35 15.57 29.17 15.1 28.91 14.67 28.56 14.33 28.12 14.07 27.67 13.9 27 13.5 5 13.5 3.83 13.9 3.79 13.91 3.59 13.93 2.89 14.11 2.22 14.42 1.61 14.82 1.08 15.34 .67 15.94 .37 16.6 .17 17.29 .1 18.02 .1 32.95 .17 33.69 .37 34.4 .67 35.04 1.08 35.64 1.61 36.15 2.22 36.58 2.89 36.89 3.59 37.08 4.32 37.14 5.07 37.08 5.31 37.01 5.33 37.01 5.34 37 5.41 36.99 5.41 36.99 17.23 33.87 21.72 43.34 4.56 51.4 3.22 51.28 1.89 51.06 1.87 51.31 1.87 51.58 1.93 52.06 2.09 52.56 2.33 53.03 2.66 53.44 3.04 53.78 3.25 53.94 3.49 54.04 3.98 54.23 4.51 54.29 5.03 54.29 6.07 54.23 7.12 54.1 8.16 53.91 9.19 53.68 10.19 53.39 11.18 53.07 12.17 52.7 13.14 52.32 14.15 52 15.17 51.74 16.2 51.53 17.24 51.4 18.29 51.34 19.33 51.36 20.37 51.47 21.39 51.66 22.42 51.91 23.42 52.22 24.42 52.53 26.38 53.29 27.36 53.65 28.36 53.95 29.39 54.19 30.43 54.33 31.48 54.42 32.52 54.47 33.59 54.45 34.64 54.36 35.66 54.19 36.68 53.95 37.2 53.82 37.7 53.65 38.68 53.29 40.64 52.53 41.62 52.22 42.65 51.91 43.64 51.66 44.69 51.47 45.74 51.36 46.78 51.34 47.83 51.4 48.87 51.53 49.89 51.74 50.92 52 51.92 52.32 52.9 52.7 53.88 53.05 54.88 53.39 55.88 53.68 56.91 53.91 57.93 54.1 58.97 54.23 60.04 54.29 60.56 54.29 61.09 54.21 61.56 54.04 62.02 53.78 62.22 53.61 62.41 53.44 62.74 53.03 62.87 52.79 62.98 52.56 63.14 52.06 63.2 51.83 63.22 51.58 63.2 51.06 61.91 51.28 60.63 51.4 59.34 51.42 58.06 51.34 56.79 51.1 55.56 50.75 54.33 50.3 53.14 49.86 51.94 49.41 50.7 49.05 50.06 48.89 49.44 48.78 48.15 48.66 46.87 48.6 45.58 48.6 44.28 48.7 43.02 48.89 41.75 49.19 40.53 49.58 38.12 50.48 36.9 50.91 36.29 51.07 35.66 51.23 34.4 51.45 33.74 51.51 33.1 51.55 32.46 51.55 31.8 51.53 30.52 51.42 29.89 51.34 29.25 51.21 28.63 51.03 28.01 50.86 26.8 50.43 25.6 49.96 24.38 49.54 23.16 49.16 50.9 41.84 52.05 41.45 53.18 40.96 54.25 40.33 55.23 39.6 56.15 38.79 56.95 37.87 58.12 36.3 59.19 34.7 60.15 33 61.02 31.26 61.8 29.49 62.46 27.67 63.02 25.81 63.46 23.94 63.78 22.03 64 20.1 61.59 19.13"/>
        </g>
      </g>
    </g>
  </g>
</svg>