<?xml version="1.0" encoding="UTF-8"?>
<svg id="AC_icons" data-name="AC icons" xmlns="http://www.w3.org/2000/svg" viewBox="0 0 64 64">
  <defs>
    <style>
      .cls-1 {
        fill: #061a2f;
        fill-rule: evenodd;
        stroke-width: 0px;
      }
    </style>
  </defs>
  <g id="Informational_icons" data-name="Informational icons">
    <g id="K">
      <g id="kayaking">
        <g id="Canoeing_kayaking" data-name="Canoeing kayaking">
          <path class="cls-1" d="m28,23.51c0-1.93,1.56-3.5,3.5-3.5,1.93,0,3.5,1.56,3.5,3.5s-1.56,3.5-3.5,3.5c0,0,0,0,0,0-1.93,0-3.5-1.56-3.5-3.49,0,0,0,0,0,0M6.1,45.99c-3.91.06-5.8.72-6.1.89v3.95c.46-.2,2.33-1.31,4.25-1.27.96.02.3-.05,1.56,0,3.09.12,8.74,3.43,11.95,3.43,3.88,0,7.84-3.24,10.94-3.24,2.5,0,8.35,2.95,10.75,3.15h1.8c1.99-.05,7.13-2.73,9.42-2.73h.73c1.14,0,6.82,2.43,9.72,2.43h1.46s1.16-.09,1.42-.23v-3.62c-.5.13-1.01.22-1.52.28h-1.27c-2.45,0-7.77-2.45-9.52-2.45h-1.27c-2.9,0-7.77,2.68-9.72,2.68h-1.07c-1.54-.05-7.77-3.15-10.69-3.06-.26,0-.41-.03-1.22,0-2.96.11-7.46,3.2-9.91,3.2-1,0-6.94-3.5-11.71-3.43m-1.11-4.76c.11,0,.33,0,.83.02,3.09.13,8.74,3.56,11.95,3.56,3.88,0,7.84-3.37,10.94-3.37,2.5,0,8.35,3.07,10.75,3.27h1.8c1.99-.05,7.13-2.83,9.42-2.83h.73c.56,0,2.2.63,4.06,1.25l8.02-4.89h-20.15l6.68-15.12c3.59,1.52,6.84-9.79,6.84-9.79l-5.12-2.31s-6.83,9.86-3.2,11.54l-2.53,5.47h-16s-4,0-5.29,2.13c-1.57,2.3-4.14,6.14-5.42,8.11H1.52l3.48,2.96Zm26.56-6.51c-1.05-.67-2.26,1.31-3.55,3.28h9s-5-2.99-5.47-3.28m13.45-3.72l-2.97,6.23c-.14-.3-.37-.55-.66-.72l-9.36-5.51h13Z"/>
        </g>
      </g>
    </g>
  </g>
</svg>