<?xml version="1.0" encoding="UTF-8"?>
<svg id="AC_icons" data-name="AC icons" xmlns="http://www.w3.org/2000/svg" viewBox="0 0 64 64">
  <defs>
    <style>
      .cls-1 {
        fill: #061a2f;
        stroke-width: 0px;
      }
    </style>
  </defs>
  <g id="Informational_icons" data-name="Informational icons">
    <g id="K">
      <g id="kiosk">
        <g id="Kiosk">
          <path class="cls-1" d="m59,42.41v14.6c-.07,1.07-.93,1.93-2,2H7.3c-1.3,0-2.3-1.14-2.3-2.07v-27.87c.04-1.1.9-1.99,2-2.07,1.07.07,1.93.93,2,2v11h46.01v-11c-.02-1.1.86-2.02,1.96-2.04,1.1-.02,2.02.86,2.04,1.96,0,.05,0,.1,0,.14l-.02,13.35Z"/>
          <path class="cls-1" d="m44.9,23.76c-2.3.02-4.18-1.82-4.2-4.12l-2.13-11.66c0-1.14.64-1.27,1.16-1.27h5.21c.77,0,1.25.17,1.38.93l2.78,12c-.02,2.3-1.91,4.14-4.21,4.12m-21.55-4.12c0,2.32-1.88,4.2-4.2,4.2-2.32,0-4.2-1.88-4.2-4.2l2.78-12.01c.13-.76.6-.93,1.38-.93h5.21c.52,0,1.16.13,1.16,1.27l-2.13,11.66ZM56.29,6.39c-.44-.69-1.16-1.4-2.2-1.4H9.65c-.9,0-1.68.25-2.2,1.27L0,19.7c.05,3.54,2.97,6.37,6.51,6.32,3.3-.05,6.03-2.6,6.3-5.89.31,3.53,3.42,6.15,6.95,5.84,3.11-.27,5.57-2.73,5.84-5.84.31,3.53,3.42,6.15,6.95,5.84,3.11-.27,5.57-2.73,5.84-5.84.31,3.53,3.42,6.15,6.95,5.84,3.11-.27,5.57-2.73,5.84-5.84.29,3.53,3.39,6.16,6.92,5.87,3.29-.27,5.84-3,5.89-6.3,0,0-7.07-12.3-7.71-13.31"/>
        </g>
      </g>
    </g>
  </g>
</svg>