<?xml version="1.0" encoding="UTF-8"?>
<svg id="AC_icons" data-name="AC icons" xmlns="http://www.w3.org/2000/svg" viewBox="0 0 64 64">
  <defs>
    <style>
      .cls-1 {
        fill: #061a2f;
        stroke-width: 0px;
      }
    </style>
  </defs>
  <g id="Informational_icons" data-name="Informational icons">
    <g id="K">
      <g id="kite-surfing">
        <g>
          <path class="cls-1" d="m12.25,31.8c0,1.19.97,2.16,2.16,2.16s2.16-.97,2.16-2.16-.97-2.16-2.16-2.16-2.16.97-2.16,2.16Z"/>
          <path class="cls-1" d="m64,29.02c-.02-7.38-6.03-13.35-13.41-13.33-.01,0-.03,0-.04,0h-.84c-2.39-4.17-6.85-6.73-11.66-6.69-2.47.02-4.89.71-7,2l-.07.06c-1.2.74-2.26,1.67-3.16,2.75l-.06-.07L2.93,35.85h-.06s0,.04,0,.04c-.51.12-.89.57-.88,1.11.01.63.53,1.13,1.16,1.12.05,0,.09-.02.13-.03l5.15-.82c.12.02.21.11.2.23,0,.04-.02.08-.04.12l-1.82,2.07c-.27.21-.45.52-.45.88,0,.13.03.24.07.36h-.01s1.26,4.33,1.26,4.33l-2.8,3.31s0,0,0,0l-.08.09h0c-.17.22-.29.47-.29.76,0,.61.45,1.1,1.03,1.19l-3.39,1.07c-.11,0-.21.03-.32.03-.61,0-1.22-.08-1.81-.26v3.2c.63.13,1.27.15,1.91.08,4.89-.13,7.09-2.13,9.48-2.13,3.07,0,5.97,2.22,9.29,2.31,3.32.09,7.28-2.66,10.25-2.66s6.13,2.75,9.67,2.75c3.26,0,8.33-3,11.59-3,1.52.09,3,.51,4.34,1.24v-3.37s-.21-.81-4.21-.89c-4.49-.11-8.91,3-11.49,3-3.55,0-5.39-2.66-9.39-2.75-4.6-.1-8.53,2.75-10.35,2.75-2.67,0-4.86-1.97-8.46-2.33l19.04-6.03c.3-.12.45-.46.33-.76h.02c-.08-.3-.39-.49-.7-.42l-9.92,3.14c.1-.18.18-.38.18-.6,0-.5-.31-.92-.74-1.1l-3.43-2.88c-.21-.22-.5-.37-.83-.38h0s-.03,0-.03,0c0,0,0,0,0,0,0,0,0,0-.02,0l-4.39.23h0s-.13,0-.13,0c-.1,0-.19-.1-.19-.2,0-.03,0-.07,0-.1l2.28-2.62s.09-.07.14-.07c.05,0,.1.02.13.06h.03s1.94,1.62,1.94,1.62h0c.09.07.2.12.33.12.13,0,.24-.06.33-.14h.01s3.55-4.02,3.55-4.02h-.01c.2-.22.32-.5.32-.81,0-.62-.51-1.12-1.13-1.12-.36,0-.67.18-.87.44h-.02s-2.37,2.69-2.37,2.69l-2.49-2.09c-.22-.23-.53-.37-.87-.37-.03,0-.06.02-.09.02v-.02s-9.22,1.47-9.22,1.47l20.68-18.42,1.31-.16,7.03-1.01c1.66-.88,3.52-1.34,5.4-1.33,3.58-.02,6.96,1.66,9.11,4.52,5.18-.07,9.68,3.55,10.73,8.62.12.59.18,1.2.2,1.8l-37.42,4.72.06.49,43.09-5.44-.03-.23h.03v-.25ZM6.58,50.27s.03-.05.04-.07l3.18-3.76c.25-.22.42-.54.42-.9,0-.09-.03-.17-.05-.26h.01s-.04-.15-.04-.15c-.01-.03-.01-.06-.03-.09l-.48-1.64,6.46-.35,3.54,2.97.05-.06c.05.03.1.07.15.1l-13.27,4.2Z"/>
        </g>
      </g>
    </g>
  </g>
</svg>