<?xml version="1.0" encoding="UTF-8"?>
<svg id="AC_icons" data-name="AC icons" xmlns="http://www.w3.org/2000/svg" viewBox="0 0 64 64">
  <defs>
    <style>
      .cls-1 {
        fill: #061a2f;
        fill-rule: evenodd;
        stroke-width: 0px;
      }
    </style>
  </defs>
  <g id="Informational_icons" data-name="Informational icons">
    <g id="K">
      <g id="kiwi">
        <g id="Kiwi">
          <path class="cls-1" d="m46.19,22.5c-.23,1.46,1.78,1.14,1.5-.07-.07-.36-.42-.61-.78-.54-.04,0-.07.02-.1.03-.31.03-.57.26-.63.57M20.32,6.01h.52c6.94.05,11.78,2.37,15.1,6.16.49.57.93,1.19,1.31,1.84,1.05,1.74,1.55,4.23,4.76,3.85.82-.1,1.56-.56,2.32-.63,4.63-.48,7.22,2.78,8.46,6.09.28.66.51,1.34.69,2.03.16.75.18,1.53.38,2.28.35,1.29.94,2.49,1.75,3.55,3.2,4.28,6.29,8.22,8.4,12.88v.64c-.55,1.24-1.72.39-2.37-.45-1.27-1.61-2.98-4.34-3.95-5.71-.86-1.21-1.82-2.42-2.82-3.62-1.87-2.24-3.58-4.2-6.39-5.58-2-.98-4.34-1.46-6.7-.51-1.37.56-2.63,1.34-4.2,1.9s-3.22.63-5.01,1.08c-2.5.63-4.23,1.89-6.7,2.47-1.39.33-3.19.13-4.32.7-1.23.62-2.8,2.62-2.88,4.44,0,.79.18,1.57.5,2.28.22.56.51,1.61,1.13,1.9,1.02.49,2.59.2,4.07.32,1.72.13,4.09.73,3.26,2.54-.41.24-.72-.43-1.07-.25.22.59,1.58,1.05,1.76,1.97.09.49,0,1.18-.37,1.33s-.63-.48-.94-.64c-1.08-.55-3.06-.86-4.51-1.21.08.67,1.22,1.13,1.5,1.9.22.59.2,1.38-.3,1.52-.38.11-1.41-.57-1.94-.89-1.78-1.05-3.74-2.48-4.89-3.81-.21-2.49.11-5.52-1.69-6.4-.95.54-2.03.93-2.13,2.15-.07.98.59,2.72.89,3.62.38,1.24.82,2.4,1.18,3.3,2.22.31,5.4.09,5.89,2.09-.83.19-1.87-.25-2.75,0,.86.8,2.75,1.78,2.51,3.49-.44.22-.7-.27-1.13-.38-.63-.17-1.39-.08-2.07-.26s-1.24-.56-1.82-.76c.25,1.17,1.56,3.92-.06,4.76h-.19c-.46-.73-.71-1.56-1.18-2.28-1.1-1.66-2.52-3.02-3.89-4.63-.28-.33-.72-.7-.75-.95-.04-.34.3-.96.38-1.34.81-3.55.17-7.11-1.56-9.45-1.6-2.16-4.57-3.04-6.46-5.13-1.33-1.48-1.78-3.41-2-6.1v-2.66C1.26,13.38,8.18,7.02,20.36,5.98"/>
        </g>
      </g>
    </g>
  </g>
</svg>