<?xml version="1.0" encoding="UTF-8"?>
<svg id="Layer_2" data-name="Layer 2" xmlns="http://www.w3.org/2000/svg" viewBox="0 0 128 64">
  <defs>
    <style>
      .cls-1 {
        fill: #061a2f;
      }
    </style>
  </defs>
  <g>
    <path class="cls-1" d="m32,15.15c-5.82,0-11.61-2.31-15.97-6.12C11.66,12.84,5.83,15.15,0,15.15v4.37c4.99,0,11.34-1.8,16.03-5.62,4.66,3.82,10.97,5.62,15.97,5.62s11.31-1.8,15.97-5.62c4.68,3.82,11.03,5.62,16.03,5.62v-4.37c-5.82,0-11.66-2.31-16.03-6.12-4.36,3.81-10.15,6.12-15.97,6.12"/>
    <path class="cls-1" d="m32,22.57c-5.82,0-11.61-2.31-15.97-6.12C11.66,20.25,5.83,22.57,0,22.57v4.37c4.99,0,11.34-1.81,16.03-5.62,4.66,3.81,10.97,5.62,15.97,5.62s11.31-1.81,15.97-5.62c4.68,3.81,11.03,5.62,16.03,5.62v-4.37c-5.82,0-11.66-2.31-16.03-6.12-4.36,3.81-10.15,6.12-15.97,6.12"/>
    <path class="cls-1" d="m32,29.98c-5.82,0-11.61-2.31-15.97-6.12C11.66,27.67,5.83,29.98,0,29.98v4.37c4.99,0,11.34-1.81,16.03-5.62,4.66,3.81,10.97,5.62,15.97,5.62s11.31-1.81,15.97-5.62c4.68,3.81,11.03,5.62,16.03,5.62v-4.37c-5.82,0-11.66-2.31-16.03-6.12-4.36,3.81-10.15,6.12-15.97,6.12"/>
    <path class="cls-1" d="m0,12.35h0c5.02,0,11.47-1.89,16.03-5.86,4.54,3.97,10.95,5.86,15.97,5.86s11.43-1.89,15.97-5.86c4.56,3.97,11.01,5.86,16.03,5.86v-4.22c-4.32,0-9.59-1.68-13.19-4.77-1.15-.99-2.12-2.11-2.84-3.37-.73,1.26-1.7,2.39-2.84,3.37-3.58,3.09-8.82,4.77-13.13,4.77s-9.55-1.67-13.13-4.77C17.73,2.39,16.76,1.26,16.03,0c-.72,1.26-1.69,2.38-2.84,3.37-3.6,3.09-8.87,4.77-13.19,4.77v4.22Z"/>
    <path class="cls-1" d="m16.03,50.97c4.66,3.81,10.97,5.62,15.97,5.62s11.31-1.81,15.97-5.62c4.68,3.81,11.03,5.62,16.03,5.62v-4.37c-5.82,0-11.66-2.31-16.03-6.12-4.36,3.81-10.15,6.12-15.97,6.12s-11.61-2.31-15.97-6.12c-4.37,3.81-10.2,6.12-16.03,6.12v4.37c4.99,0,11.34-1.81,16.03-5.62"/>
    <path class="cls-1" d="m47.97,53.51c-4.36,3.81-10.15,6.12-15.97,6.12s-11.61-2.31-15.97-6.12C11.66,57.32,5.82,59.63,0,59.63v4.37c4.99,0,11.34-1.81,16.03-5.62,4.66,3.81,10.97,5.62,15.97,5.62s11.31-1.81,15.97-5.62c4.68,3.81,11.03,5.62,16.03,5.62v-4.37c-5.82,0-11.66-2.31-16.03-6.12"/>
    <path class="cls-1" d="m32,37.39c-5.82,0-11.61-2.31-15.97-6.12C11.66,35.08,5.83,37.39,0,37.39v4.37c4.99,0,11.34-1.81,16.03-5.62,4.66,3.81,10.97,5.62,15.97,5.62s11.31-1.81,15.97-5.62c4.68,3.81,11.03,5.62,16.03,5.62v-4.37c-5.82,0-11.66-2.31-16.03-6.12-4.36,3.81-10.15,6.12-15.97,6.12"/>
    <path class="cls-1" d="m16.03,43.55c4.66,3.81,10.97,5.62,15.97,5.62s11.31-1.81,15.97-5.62c4.68,3.81,11.03,5.62,16.03,5.62v-4.37c-5.82,0-11.66-2.31-16.03-6.12-4.36,3.81-10.15,6.12-15.97,6.12s-11.61-2.31-15.97-6.12c-4.37,3.81-10.2,6.12-16.03,6.12v4.37c4.99,0,11.34-1.81,16.03-5.62"/>
  </g>
  <g>
    <path class="cls-1" d="m96,15.15c-5.82,0-11.61-2.31-15.97-6.12-4.37,3.81-10.2,6.12-16.03,6.12v4.37c4.99,0,11.34-1.8,16.03-5.62,4.66,3.82,10.97,5.62,15.97,5.62s11.31-1.8,15.97-5.62c4.68,3.82,11.03,5.62,16.03,5.62v-4.37c-5.82,0-11.66-2.31-16.03-6.12-4.36,3.81-10.15,6.12-15.97,6.12"/>
    <path class="cls-1" d="m96,22.57c-5.82,0-11.61-2.31-15.97-6.12-4.37,3.81-10.2,6.12-16.03,6.12v4.37c4.99,0,11.34-1.81,16.03-5.62,4.66,3.81,10.97,5.62,15.97,5.62s11.31-1.81,15.97-5.62c4.68,3.81,11.03,5.62,16.03,5.62v-4.37c-5.82,0-11.66-2.31-16.03-6.12-4.36,3.81-10.15,6.12-15.97,6.12"/>
    <path class="cls-1" d="m96,29.98c-5.82,0-11.61-2.31-15.97-6.12-4.37,3.81-10.2,6.12-16.03,6.12v4.37c4.99,0,11.34-1.81,16.03-5.62,4.66,3.81,10.97,5.62,15.97,5.62s11.31-1.81,15.97-5.62c4.68,3.81,11.03,5.62,16.03,5.62v-4.37c-5.82,0-11.66-2.31-16.03-6.12-4.36,3.81-10.15,6.12-15.97,6.12"/>
    <path class="cls-1" d="m64,12.35h0c5.02,0,11.47-1.89,16.03-5.86,4.54,3.97,10.95,5.86,15.97,5.86s11.43-1.89,15.97-5.86c4.56,3.97,11.01,5.86,16.03,5.86v-4.22c-4.32,0-9.59-1.68-13.19-4.77-1.15-.99-2.12-2.11-2.84-3.37-.73,1.26-1.7,2.39-2.84,3.37-3.58,3.09-8.82,4.77-13.13,4.77s-9.55-1.67-13.13-4.77c-1.14-.98-2.11-2.11-2.84-3.37-.72,1.26-1.69,2.38-2.84,3.37-3.6,3.09-8.87,4.77-13.19,4.77v4.22Z"/>
    <path class="cls-1" d="m80.03,50.97c4.66,3.81,10.97,5.62,15.97,5.62s11.31-1.81,15.97-5.62c4.68,3.81,11.03,5.62,16.03,5.62v-4.37c-5.82,0-11.66-2.31-16.03-6.12-4.36,3.81-10.15,6.12-15.97,6.12s-11.61-2.31-15.97-6.12c-4.37,3.81-10.2,6.12-16.03,6.12v4.37c4.99,0,11.34-1.81,16.03-5.62"/>
    <path class="cls-1" d="m111.97,53.51c-4.36,3.81-10.15,6.12-15.97,6.12s-11.61-2.31-15.97-6.12c-4.37,3.81-10.2,6.12-16.03,6.12v4.37c4.99,0,11.34-1.81,16.03-5.62,4.66,3.81,10.97,5.62,15.97,5.62s11.31-1.81,15.97-5.62c4.68,3.81,11.03,5.62,16.03,5.62v-4.37c-5.82,0-11.66-2.31-16.03-6.12"/>
    <path class="cls-1" d="m96,37.39c-5.82,0-11.61-2.31-15.97-6.12-4.37,3.81-10.2,6.12-16.03,6.12v4.37c4.99,0,11.34-1.81,16.03-5.62,4.66,3.81,10.97,5.62,15.97,5.62s11.31-1.81,15.97-5.62c4.68,3.81,11.03,5.62,16.03,5.62v-4.37c-5.82,0-11.66-2.31-16.03-6.12-4.36,3.81-10.15,6.12-15.97,6.12"/>
    <path class="cls-1" d="m80.03,43.55c4.66,3.81,10.97,5.62,15.97,5.62s11.31-1.81,15.97-5.62c4.68,3.81,11.03,5.62,16.03,5.62v-4.37c-5.82,0-11.66-2.31-16.03-6.12-4.36,3.81-10.15,6.12-15.97,6.12s-11.61-2.31-15.97-6.12c-4.37,3.81-10.2,6.12-16.03,6.12v4.37c4.99,0,11.34-1.81,16.03-5.62"/>
  </g>
</svg>