<?xml version="1.0" encoding="UTF-8"?>
<svg id="Kotahitanga" xmlns="http://www.w3.org/2000/svg" viewBox="0 0 64 64">
  <defs>
    <style>
      .cls-1 {
        fill: #061a2f;
        stroke-width: 0px;
      }
    </style>
  </defs>
  <g id="Kotahitanga_-_Wave2_-_Tier_3_-1" data-name="Kotahitanga - Wave2 - Tier 3 -1">
    <g>
      <path class="cls-1" d="m32,7.94C20.92,7.94,9.88,5.09,0,.03v13.37c10.65,4.92,22.19,7.3,32,7.3s21.35-2.38,32-7.3V.03c-9.88,5.06-20.92,7.92-32,7.92"/>
      <path class="cls-1" d="m32,29.58c-11.08,0-22.12-2.86-32-7.92v13.37c10.65,4.92,22.19,7.3,32,7.3s21.35-2.38,32-7.3v-13.37c-9.88,5.06-20.92,7.92-32,7.92"/>
      <path class="cls-1" d="m32,51.22c-11.08,0-22.12-2.86-32-7.92v13.37c10.65,4.92,22.19,7.3,32,7.3s21.35-2.38,32-7.3v-13.37c-9.88,5.06-20.92,7.92-32,7.92"/>
    </g>
  </g>
</svg>