<?xml version="1.0" encoding="UTF-8"?>
<svg id="Kotahitanga" xmlns="http://www.w3.org/2000/svg" viewBox="0 0 64 64">
  <defs>
    <style>
      .cls-1 {
        fill: #061a2f;
        stroke-width: 0px;
      }
    </style>
  </defs>
  <g id="Kotahitanga_-_Leaf_-_Tier_3_-_3_-_reverse" data-name="Kotahitanga - Leaf - Tier 3 - 3 - reverse">
    <path class="cls-1" d="m0,0v.93c11,8.49,21.94,17.85,30.32,29.02-4.25,4.64-11.07.22-14.97-2.69C7.71,20.95.97,11.02,0,.93v32.03c11,8.49,21.94,17.85,30.32,29.02-4.25,4.64-11.07.22-14.97-2.69C7.71,52.98.97,43.05,0,32.96v31.04h64V0H0Zm30.96,61.03C22.88,49.75,11.97,40.39.98,32.04c9.68-.17,19.16,4.66,25.44,11.84,3.57,4.58,7.4,11.3,4.54,17.15Zm0-32.03C22.88,17.72,11.97,8.35.98,0c9.68-.17,19.16,4.66,25.44,11.84,3.57,4.58,7.4,11.3,4.54,17.15Zm16.42,30.3c-7.63-6.31-14.37-16.24-15.34-26.33,11,8.49,21.94,17.85,30.32,29.02-4.25,4.64-11.07.22-14.97-2.69Zm15.62,1.74c-8.08-11.28-18.99-20.64-29.98-28.99,9.68-.17,19.16,4.66,25.44,11.84,3.57,4.58,7.4,11.3,4.54,17.15ZM32.04.93c11,8.49,21.94,17.85,30.32,29.02-4.25,4.64-11.07.22-14.97-2.69-7.63-6.31-14.37-16.24-15.34-26.33Zm30.96,28.07C54.92,17.72,44.01,8.35,33.02,0c9.68-.17,19.16,4.66,25.44,11.84,3.57,4.58,7.4,11.3,4.54,17.15Z"/>
  </g>
</svg>