<?xml version="1.0" encoding="UTF-8"?>
<svg id="Kotahitanga" xmlns="http://www.w3.org/2000/svg" viewBox="0 0 64 64">
  <defs>
    <style>
      .cls-1 {
        fill: #061a2f;
        stroke-width: 0px;
      }
    </style>
  </defs>
  <g id="Kotahitanga_-_Wave1_-_Tier_2" data-name="Kotahitanga - Wave1 - Tier 2">
    <g>
      <path class="cls-1" d="m57.45,33.14c2.34,0,4.51-.11,6.55-.29V15.89c-1.98.22-4.14.34-6.55.34-12.94,0-18.99-3.42-26-7.38C24.11,4.7,15.79,0,0,0v16.92c12.94,0,18.99,3.42,26,7.38,7.34,4.15,15.67,8.85,31.45,8.85"/>
      <path class="cls-1" d="m57.45,64c2.34,0,4.54,0,6.55,0v-17.25c-1.98.22-4.14.34-6.55.34-12.94,0-18.99-3.42-26-7.38-7.34-4.15-15.67-8.85-31.45-8.85v16.92c12.94,0,18.99,3.42,26,7.38,7.34,4.15,15.67,8.85,31.45,8.85"/>
    </g>
  </g>
</svg>