<?xml version="1.0" encoding="UTF-8"?>
<svg id="Kotahitanga" xmlns="http://www.w3.org/2000/svg" viewBox="0 0 64 64">
  <defs>
    <style>
      .cls-1 {
        fill: #061a2f;
        stroke-width: 0px;
      }
    </style>
  </defs>
  <g id="Kotahitanga_-_Leaf_-_Tier_3_-_1_-_reverse" data-name="Kotahitanga - Leaf - Tier 3 - 1 - reverse">
    <g>
      <path class="cls-1" d="m0,0v64h64V0H0Zm16.64,4.71c7.64,6.32,14.39,16.26,15.36,26.36.97-10.1,7.72-20.04,15.36-26.36,3.9-2.91,10.73-7.34,14.99-2.69-8.38,11.18-19.34,20.55-30.35,29.05,0,0,0,0,0,0C20.98,22.57,10.03,13.2,1.65,2.02c4.26-4.65,11.09-.22,14.99,2.69ZM5.55,43.86c6.28-7.19,15.77-12.02,25.46-11.86-9.69.16-19.18-4.67-25.46-11.86C1.97,15.56-1.87,8.83,1,2.97c8.09,11.29,19.01,20.67,30.01,29.03h0s0,0,0,0h0s0,0,0,0c-11,8.36-21.92,17.74-30.01,29.03-2.87-5.86.97-12.59,4.54-17.17Zm11.09,15.43c-3.9,2.91-10.73,7.34-14.99,2.69,8.38-11.18,19.34-20.55,30.35-29.05-.97,10.1-7.72,20.04-15.36,26.36Zm30.72,0c-7.64-6.32-14.39-16.26-15.36-26.36,11.02,8.5,21.97,17.87,30.35,29.05-4.26,4.65-11.09.22-14.99-2.69Zm15.64,1.74c-8.09-11.29-19.01-20.67-30.01-29.03h0s0,0,0,0c0,0,0,0,0,0h0c11-8.36,21.92-17.74,30.01-29.03,2.87,5.86-.97,12.59-4.54,17.17-6.28,7.19-15.77,12.02-25.46,11.86,9.69-.17,19.18,4.67,25.46,11.86,3.57,4.58,7.41,11.31,4.54,17.17Z"/>
      <polygon class="cls-1" points="32.98 32 32.98 32 32.98 32 32.99 32 32.98 32"/>
      <polygon class="cls-1" points="31.02 32 31.02 32 31.01 32 31.02 32 31.02 32"/>
      <polygon class="cls-1" points="32 31.07 32 31.07 32 31.07 32 31.07"/>
    </g>
  </g>
</svg>