<?xml version="1.0" encoding="UTF-8"?>
<svg id="Kotahitanga" xmlns="http://www.w3.org/2000/svg" viewBox="0 0 64 64">
  <defs>
    <style>
      .cls-1 {
        fill: #061a2f;
        stroke-width: 0px;
      }
    </style>
  </defs>
  <g id="Kotahitanga_-_Wave2_-_Tier_4" data-name="Kotahitanga - Wave2 - Tier 4">
    <g>
      <path class="cls-1" d="m56.64,6.04c-3.32,0-7.38-1.24-10.15-3.54-.88-.73-1.63-1.56-2.18-2.5-.56.94-1.3,1.77-2.18,2.5-2.76,2.3-6.78,3.54-10.1,3.54s-7.38-1.24-10.15-3.54C21,1.77,20.26.93,19.7,0c-.56.94-1.31,1.77-2.18,2.5-2.76,2.3-6.78,3.54-10.1,3.54-2.35,0-5.06-.63-7.42-1.81v3.45c2.5,1,5.15,1.49,7.42,1.49,3.87,0,8.79-1.41,12.28-4.35,3.51,2.95,8.47,4.35,12.33,4.35s8.79-1.41,12.28-4.35c3.51,2.95,8.47,4.35,12.33,4.35,2.26,0,4.88-.48,7.36-1.46v-3.44c-2.35,1.16-5.03,1.78-7.36,1.78"/>
      <path class="cls-1" d="m56.64,16.75c-4.48,0-8.96-1.72-12.33-4.54-3.36,2.83-7.81,4.54-12.28,4.54s-8.96-1.72-12.33-4.54c-3.36,2.83-7.81,4.54-12.28,4.54-2.55,0-5.09-.56-7.42-1.56v3.35c2.51.97,5.14,1.45,7.42,1.45,3.84,0,8.7-1.34,12.29-4.17,3.6,2.83,8.48,4.17,12.33,4.17s8.7-1.34,12.28-4.17c3.6,2.83,8.49,4.17,12.33,4.17,2.26,0,4.87-.46,7.36-1.42v-3.35c-2.32.99-4.84,1.53-7.36,1.53"/>
      <path class="cls-1" d="m56.64,22.25c-4.48,0-8.96-1.72-12.33-4.54-3.36,2.83-7.81,4.54-12.28,4.54s-8.96-1.72-12.33-4.54c-3.36,2.83-7.81,4.54-12.28,4.54-2.55,0-5.09-.56-7.42-1.56v3.35c2.51.97,5.14,1.45,7.42,1.45,3.84,0,8.7-1.34,12.29-4.17,3.6,2.83,8.48,4.17,12.33,4.17s8.7-1.34,12.28-4.17c3.6,2.83,8.49,4.17,12.33,4.17,2.26,0,4.87-.46,7.36-1.42v-3.35c-2.32.99-4.84,1.53-7.36,1.53"/>
      <path class="cls-1" d="m56.64,27.75c-4.48,0-8.96-1.72-12.33-4.54-3.36,2.83-7.81,4.54-12.28,4.54s-8.96-1.72-12.33-4.54c-3.36,2.83-7.81,4.54-12.28,4.54-2.55,0-5.09-.56-7.42-1.56v3.35c2.51.97,5.14,1.45,7.42,1.45,3.84,0,8.7-1.34,12.29-4.17,3.6,2.83,8.48,4.17,12.33,4.17s8.7-1.34,12.28-4.17c3.6,2.83,8.49,4.17,12.33,4.17,2.26,0,4.87-.46,7.36-1.42v-3.35c-2.32.99-4.84,1.53-7.36,1.53"/>
      <path class="cls-1" d="m56.64,33.25c-4.48,0-8.96-1.72-12.33-4.54-3.36,2.83-7.81,4.54-12.28,4.54s-8.96-1.72-12.33-4.54c-3.36,2.83-7.81,4.54-12.28,4.54-2.55,0-5.09-.56-7.42-1.56v3.35c2.51.97,5.14,1.45,7.42,1.45,3.84,0,8.7-1.34,12.29-4.17,3.6,2.83,8.48,4.17,12.33,4.17s8.7-1.34,12.28-4.17c3.6,2.83,8.49,4.17,12.33,4.17,2.26,0,4.87-.46,7.36-1.42v-3.35c-2.32.99-4.84,1.53-7.36,1.53"/>
      <path class="cls-1" d="m56.64,38.75c-4.48,0-8.96-1.72-12.33-4.54-3.36,2.83-7.81,4.54-12.28,4.54s-8.96-1.72-12.33-4.54c-3.36,2.83-7.81,4.54-12.28,4.54-2.55,0-5.09-.56-7.42-1.56v3.35c2.51.97,5.14,1.45,7.42,1.45,3.84,0,8.7-1.34,12.29-4.17,3.6,2.83,8.48,4.17,12.33,4.17s8.7-1.34,12.28-4.17c3.6,2.83,8.49,4.17,12.33,4.17,2.26,0,4.87-.46,7.36-1.42v-3.35c-2.32.99-4.84,1.53-7.36,1.53"/>
      <path class="cls-1" d="m56.64,44.25c-4.48,0-8.96-1.72-12.33-4.54-3.36,2.83-7.81,4.54-12.28,4.54s-8.96-1.72-12.33-4.54c-3.36,2.83-7.81,4.54-12.28,4.54-2.55,0-5.09-.56-7.42-1.56v3.35c2.51.97,5.14,1.45,7.42,1.45,3.84,0,8.7-1.34,12.29-4.17,3.6,2.83,8.48,4.17,12.33,4.17s8.7-1.34,12.28-4.17c3.6,2.83,8.49,4.17,12.33,4.17,2.26,0,4.87-.46,7.36-1.42v-3.35c-2.32.99-4.84,1.53-7.36,1.53"/>
      <path class="cls-1" d="m56.64,49.76c-4.48,0-8.96-1.72-12.33-4.54-3.36,2.83-7.81,4.54-12.28,4.54s-8.96-1.72-12.33-4.54c-3.36,2.83-7.81,4.54-12.28,4.54-2.55,0-5.09-.56-7.42-1.56v3.35c2.51.97,5.14,1.45,7.42,1.45,3.84,0,8.7-1.34,12.29-4.17,3.6,2.83,8.48,4.17,12.33,4.17s8.7-1.34,12.28-4.17c3.6,2.83,8.49,4.17,12.33,4.17,2.26,0,4.87-.46,7.36-1.42v-3.35c-2.32.99-4.84,1.53-7.36,1.53"/>
      <path class="cls-1" d="m56.64,55.26c-4.48,0-8.96-1.72-12.33-4.54-3.36,2.83-7.81,4.54-12.28,4.54s-8.96-1.72-12.33-4.54c-3.36,2.83-7.81,4.54-12.28,4.54-2.55,0-5.09-.56-7.42-1.56v3.35c2.51.97,5.14,1.45,7.42,1.45,3.84,0,8.7-1.34,12.29-4.17,3.6,2.83,8.48,4.17,12.33,4.17s8.7-1.34,12.28-4.17c3.6,2.83,8.49,4.17,12.33,4.17,2.26,0,4.87-.46,7.36-1.42v-3.35c-2.32.99-4.84,1.53-7.36,1.53"/>
      <path class="cls-1" d="m56.64,60.76c-4.48,0-8.96-1.72-12.33-4.54-3.36,2.83-7.81,4.54-12.28,4.54s-8.96-1.72-12.33-4.54c-3.36,2.83-7.81,4.54-12.28,4.54-2.55,0-5.09-.56-7.42-1.56v3.35c2.51.97,5.14,1.45,7.42,1.45,3.84,0,8.7-1.34,12.29-4.17,3.6,2.83,8.48,4.17,12.33,4.17s8.7-1.34,12.28-4.17c3.6,2.83,8.49,4.17,12.33,4.17,2.26,0,4.87-.46,7.36-1.42v-3.35c-2.32.99-4.84,1.53-7.36,1.53"/>
      <path class="cls-1" d="m56.64,11.24c-4.48,0-8.96-1.72-12.33-4.54-3.36,2.83-7.81,4.54-12.28,4.54s-8.96-1.72-12.33-4.54c-3.36,2.83-7.81,4.54-12.28,4.54-2.55,0-5.09-.56-7.42-1.56v3.35c2.51.97,5.14,1.45,7.42,1.45,3.84,0,8.7-1.34,12.29-4.17,3.6,2.83,8.48,4.17,12.33,4.17s8.7-1.34,12.28-4.17c3.6,2.83,8.49,4.17,12.33,4.17,2.26,0,4.87-.46,7.36-1.42v-3.35c-2.32.98-4.84,1.53-7.36,1.53"/>
    </g>
  </g>
</svg>