<?xml version="1.0" encoding="UTF-8"?>
<svg id="Kotahitanga" xmlns="http://www.w3.org/2000/svg" viewBox="0 0 64 64">
  <defs>
    <style>
      .cls-1 {
        fill: #061a2f;
        stroke-width: 0px;
      }
    </style>
  </defs>
  <g id="Kotahitanga_-_Wave1_-_Tier_3_-2" data-name="Kotahitanga - Wave1 - Tier 3 -2">
    <g>
      <path class="cls-1" d="m46.45,55.76c7.2,0,10.37,1.66,14.42,3.55,1.04.48,2.04.95,3.13,1.45v-9.09c-4.28-2.08-8.77-4.53-17.55-4.53s-13.39,3.45-17.51,5.43c-4.1,1.97-7.41,2.99-14.47,2.99s-10.57-1.89-14.47-3.91v9.09c3.47,1.6,9.82,3.28,14.47,3.28,8.79,0,13.39-2.54,17.51-4.51,4.16-1.98,7.27-3.76,14.47-3.76"/>
      <path class="cls-1" d="m46.45,40.04c7.2,0,10.37,1.66,14.42,3.55,1.04.48,2.04.95,3.13,1.45v-9.09c-4.28-2.08-8.77-4.53-17.55-4.53s-13.39,3.45-17.51,5.43c-4.1,1.97-7.41,2.99-14.47,2.99s-10.57-1.89-14.47-3.91v9.1c3.47,1.6,9.82,3.28,14.47,3.28,8.79,0,13.39-2.54,17.51-4.51,4.16-1.98,7.27-3.76,14.47-3.76"/>
      <path class="cls-1" d="m46.45,24.32c7.2,0,10.37,1.66,14.42,3.55,1.04.48,2.04.95,3.13,1.45v-9.09c-4.28-2.08-8.77-4.53-17.55-4.53s-13.39,3.45-17.51,5.43c-4.1,1.97-7.41,2.99-14.47,2.99s-10.57-1.89-14.47-3.91v9.1c3.47,1.6,9.82,3.28,14.47,3.28,8.79,0,13.39-2.54,17.51-4.51,4.16-1.98,7.27-3.76,14.47-3.76"/>
      <path class="cls-1" d="m46.45,8.6c7.2,0,10.37,1.66,14.42,3.55,1.04.48,2.04.95,3.13,1.45V4.51C59.72,2.43,55.23-.02,46.45-.02s-13.39,3.45-17.51,5.43c-4.1,1.97-7.41,2.99-14.47,2.99S3.9,6.5,0,4.49v9.09c3.47,1.6,9.82,3.28,14.47,3.28,8.79,0,13.39-2.54,17.51-4.51,4.16-1.98,7.27-3.76,14.47-3.76"/>
    </g>
  </g>
</svg>