<?xml version="1.0" encoding="UTF-8"?>
<svg id="Kotahitanga" xmlns="http://www.w3.org/2000/svg" viewBox="0 0 64 64">
  <defs>
    <style>
      .cls-1 {
        fill: #061a2f;
        stroke-width: 0px;
      }
    </style>
  </defs>
  <g id="Kotahitanga_-_Leaf_-_Tier_3_-_1" data-name="Kotahitanga - Leaf - Tier 3 - 1">
    <g>
      <path class="cls-1" d="m32.98,32c9.69-.17,19.19,4.66,25.47,11.86,3.57,4.58,7.41,11.31,4.54,17.17-8.09-11.29-19.01-20.67-30.01-29.03m-.98.93c11.02,8.5,21.97,17.87,30.35,29.05-4.26,4.65-11.09.22-14.99-2.69-7.64-6.32-14.39-16.26-15.36-26.36"/>
      <path class="cls-1" d="m1,61.03c-2.87-5.86.97-12.59,4.54-17.17,6.28-7.19,15.78-12.03,25.47-11.86-11,8.36-21.92,17.74-30.01,29.03m15.64-1.74c-3.9,2.91-10.73,7.34-14.99,2.69,8.38-11.18,19.34-20.55,30.35-29.05-.97,10.1-7.72,20.04-15.36,26.36"/>
      <path class="cls-1" d="m63,2.97c2.87,5.86-.97,12.59-4.54,17.17-6.28,7.19-15.78,12.03-25.47,11.86,11-8.36,21.92-17.74,30.01-29.03m-15.64,1.74c3.9-2.91,10.73-7.34,14.99-2.69-8.38,11.18-19.34,20.55-30.35,29.05.97-10.1,7.72-20.04,15.36-26.36"/>
      <path class="cls-1" d="m31.02,32c-9.69.17-19.19-4.66-25.47-11.86C1.97,15.56-1.87,8.83,1,2.97c8.09,11.29,19.01,20.67,30.01,29.03m.98-.93C20.98,22.57,10.03,13.2,1.65,2.02c4.26-4.65,11.09-.22,14.99,2.69,7.64,6.32,14.39,16.26,15.36,26.36"/>
    </g>
  </g>
</svg>