<?xml version="1.0" encoding="UTF-8"?>
<svg id="Kotahitanga" xmlns="http://www.w3.org/2000/svg" viewBox="0 0 64 64">
  <defs>
    <style>
      .cls-1 {
        fill: #061a2f;
        stroke-width: 0px;
      }
    </style>
  </defs>
  <g id="Kotahitanga_-_Wave2_-_Tier_1" data-name="Kotahitanga - Wave2 - Tier 1">
    <g>
      <path class="cls-1" d="m56.08,32c0-11.09,2.86-22.14,7.92-32.03h-13.38c-4.93,10.66-7.31,22.21-7.31,32.03s2.38,21.36,7.31,32.03h13.38c-5.07-9.89-7.92-20.94-7.92-32.03"/>
      <path class="cls-1" d="m34.42,32c0-11.09,2.86-22.14,7.92-32.03h-13.38c-4.93,10.66-7.31,22.21-7.31,32.03s2.38,21.36,7.31,32.03h13.38c-5.07-9.89-7.92-20.94-7.92-32.03"/>
      <path class="cls-1" d="m12.76,32C12.76,20.91,15.62,9.86,20.69-.03H7.31C2.38,10.64,0,22.18,0,32s2.38,21.36,7.31,32.03h13.38c-5.07-9.89-7.92-20.94-7.92-32.03"/>
    </g>
  </g>
</svg>