<?xml version="1.0" encoding="UTF-8"?>
<svg id="Kotahitanga" xmlns="http://www.w3.org/2000/svg" viewBox="0 0 64 64">
  <defs>
    <style>
      .cls-1 {
        fill: #061a2f;
        stroke-width: 0px;
      }
    </style>
  </defs>
  <g id="Kotahitanga_-_Leaf_-_Tier_4" data-name="Kotahitanga - Leaf - Tier 4">
    <g>
      <path class="cls-1" d="m29.23,21.93c-3.14-3.6-7.89-6.01-12.73-5.93,5.5,4.18,10.96,8.87,15.01,14.51,1.43-2.93-.48-6.3-2.27-8.59Z"/>
      <path class="cls-1" d="m16,16.46c.49,5.05,3.86,10.02,7.68,13.18,1.95,1.46,5.37,3.67,7.5,1.35-4.19-5.59-9.67-10.28-15.18-14.53Z"/>
      <path class="cls-1" d="m15.51,16c-4.84-.09-9.59,2.33-12.73,5.93-1.79,2.29-3.71,5.66-2.27,8.59,4.05-5.65,9.51-10.33,15.01-14.51Z"/>
      <path class="cls-1" d="m8.32,29.64c3.82-3.16,7.19-8.13,7.68-13.18-5.51,4.25-10.98,8.93-15.17,14.53,2.13,2.32,5.54.11,7.5-1.35Z"/>
      <path class="cls-1" d="m16.49,16c4.84.09,9.59-2.33,12.73-5.93,1.79-2.29,3.71-5.66,2.27-8.59-4.05,5.65-9.51,10.33-15.01,14.51Z"/>
      <path class="cls-1" d="m16,15.54s0,0,0,0c0,0,0,0,0,0,0,0,0,0,0,0h0c5.51-4.25,10.98-8.94,15.18-14.53-2.13-2.32-5.54-.11-7.5,1.35-3.82,3.16-7.19,8.13-7.68,13.18-.49-5.05-3.86-10.02-7.68-13.18C6.37.9,2.95-1.31.82,1.01c4.19,5.59,9.67,10.28,15.18,14.53Z"/>
      <path class="cls-1" d="m15.51,16C10.01,11.82,4.55,7.13.5,1.49c-1.43,2.93.48,6.3,2.27,8.59,3.14,3.6,7.89,6.01,12.73,5.93Z"/>
      <path class="cls-1" d="m48,16.46c.49,5.05,3.86,10.02,7.68,13.18,1.95,1.46,5.37,3.67,7.5,1.35-4.19-5.59-9.67-10.28-15.18-14.53Z"/>
      <path class="cls-1" d="m61.23,21.93c-3.14-3.6-7.89-6.01-12.73-5.93,5.5,4.18,10.96,8.87,15.01,14.51,1.43-2.93-.48-6.3-2.27-8.59Z"/>
      <path class="cls-1" d="m34.77,21.93c-1.79,2.29-3.7,5.66-2.27,8.59,4.05-5.65,9.51-10.33,15.01-14.51-4.84-.09-9.59,2.33-12.73,5.93Z"/>
      <path class="cls-1" d="m40.32,29.64c3.82-3.16,7.19-8.13,7.68-13.18-5.51,4.25-10.98,8.93-15.17,14.53,2.13,2.32,5.54.11,7.5-1.35Z"/>
      <path class="cls-1" d="m48.49,16c4.84.09,9.59-2.33,12.73-5.93,1.79-2.29,3.71-5.66,2.27-8.59-4.05,5.65-9.51,10.33-15.01,14.51Z"/>
      <path class="cls-1" d="m48,15.54s0,0,0,0c0,0,0,0,0,0,0,0,0,0,0,0,0,0,0,0,0,0,5.51-4.25,10.98-8.93,15.18-14.53-2.13-2.32-5.54-.11-7.5,1.35-3.82,3.16-7.19,8.13-7.68,13.18-.49-5.05-3.86-10.02-7.68-13.18-1.95-1.46-5.37-3.67-7.5-1.35,4.19,5.59,9.67,10.28,15.18,14.53Z"/>
      <path class="cls-1" d="m47.51,16c-5.5-4.18-10.96-8.87-15.01-14.51-1.43,2.93.48,6.3,2.27,8.59,3.14,3.6,7.89,6.01,12.73,5.93Z"/>
      <path class="cls-1" d="m16,48.46c.49,5.05,3.86,10.02,7.68,13.18,1.95,1.46,5.37,3.67,7.5,1.35-4.19-5.59-9.67-10.28-15.18-14.53Z"/>
      <path class="cls-1" d="m16.49,48c5.5,4.18,10.96,8.87,15.01,14.51,1.43-2.93-.48-6.3-2.27-8.59-3.14-3.6-7.89-6.01-12.73-5.93Z"/>
      <path class="cls-1" d="m15.51,48c-4.84-.09-9.59,2.33-12.73,5.93-1.79,2.29-3.71,5.66-2.27,8.59,4.05-5.65,9.51-10.33,15.01-14.51Z"/>
      <path class="cls-1" d="m.82,62.99c2.13,2.32,5.54.11,7.5-1.35,3.82-3.16,7.19-8.13,7.68-13.18-5.51,4.25-10.98,8.93-15.17,14.53Z"/>
      <path class="cls-1" d="m16.49,48c4.84.09,9.59-2.33,12.73-5.93,1.79-2.29,3.71-5.66,2.27-8.59-4.05,5.65-9.51,10.33-15.01,14.51Z"/>
      <path class="cls-1" d="m31.17,33.01c-2.13-2.32-5.54-.11-7.5,1.35-3.82,3.16-7.19,8.13-7.68,13.18-.49-5.05-3.86-10.02-7.68-13.18-1.95-1.46-5.37-3.67-7.5-1.35,4.19,5.59,9.67,10.28,15.18,14.53,0,0,0,0,0,0,0,0,0,0,0,0,0,0,0,0,0,0h0c5.51-4.25,10.98-8.94,15.18-14.53Z"/>
      <path class="cls-1" d="m.5,33.49c-1.43,2.93.48,6.3,2.27,8.59,3.14,3.6,7.89,6.01,12.73,5.93-5.5-4.18-10.96-8.87-15.01-14.51Z"/>
      <path class="cls-1" d="m48.49,48c5.5,4.18,10.96,8.87,15.01,14.51,1.43-2.93-.48-6.3-2.27-8.59-3.14-3.6-7.89-6.01-12.73-5.93Z"/>
      <path class="cls-1" d="m48,48.46c.49,5.05,3.86,10.02,7.68,13.18,1.95,1.46,5.37,3.67,7.5,1.35-4.19-5.59-9.67-10.28-15.18-14.53Z"/>
      <path class="cls-1" d="m47.51,48c-4.84-.09-9.59,2.33-12.73,5.93-1.79,2.29-3.7,5.66-2.27,8.59,4.05-5.65,9.51-10.33,15.01-14.51Z"/>
      <path class="cls-1" d="m32.82,62.99c2.13,2.32,5.54.11,7.5-1.35,3.82-3.16,7.19-8.13,7.68-13.18-5.51,4.25-10.98,8.93-15.17,14.53Z"/>
      <path class="cls-1" d="m48.49,48c4.84.09,9.59-2.33,12.73-5.93,1.79-2.29,3.71-5.66,2.27-8.59-4.05,5.65-9.51,10.33-15.01,14.51Z"/>
      <path class="cls-1" d="m48,47.54s0,0,0,0c0,0,0,0,0,0,5.51-4.25,10.98-8.93,15.18-14.53-2.13-2.32-5.54-.11-7.5,1.35-3.82,3.16-7.19,8.13-7.68,13.18-.49-5.05-3.86-10.02-7.68-13.18-1.95-1.46-5.37-3.67-7.5-1.35,4.19,5.59,9.67,10.28,15.18,14.53,0,0,0,0,0,0,0,0,0,0,0,0Z"/>
      <path class="cls-1" d="m47.51,48c-5.5-4.18-10.96-8.87-15.01-14.51-1.43,2.93.48,6.3,2.27,8.59,3.14,3.6,7.89,6.01,12.73,5.93Z"/>
    </g>
  </g>
</svg>