<?xml version="1.0" encoding="UTF-8"?>
<svg id="Kotahitanga" xmlns="http://www.w3.org/2000/svg" viewBox="0 0 64 64">
  <defs>
    <style>
      .cls-1 {
        fill: #061a2f;
        stroke-width: 0px;
      }
    </style>
  </defs>
  <g id="Kotahitanga_-_Leaf_-_Tier_4_-_reverse" data-name="Kotahitanga - Leaf - Tier 4 - reverse">
    <path class="cls-1" d="m0,0v64h64V0H0Zm40.32,2.36c3.82,3.16,7.19,8.13,7.68,13.18.49-5.05,3.86-10.02,7.68-13.18,1.95-1.46,5.37-3.67,7.5-1.35-4.19,5.59-9.67,10.28-15.18,14.53,0,0,0,0,0,0,0,0,0,0,0,0,0,0,0,0,0,0,0,0,0,0,0,0-5.51-4.25-10.98-8.93-15.18-14.53,2.13-2.32,5.54-.11,7.5,1.35Zm8.17,13.64c4.85-.09,9.59,2.33,12.73,5.93,1.79,2.29,3.71,5.66,2.27,8.59-4.04-5.65-9.51-10.33-15.01-14.51Zm14.68,14.99c-2.13,2.32-5.54.11-7.5-1.35-3.82-3.16-7.19-8.13-7.68-13.18,5.51,4.25,10.98,8.93,15.18,14.53Zm-15.18-14.53c-.49,5.05-3.86,10.02-7.68,13.18-1.95,1.46-5.37,3.67-7.5,1.35,4.19-5.59,9.67-10.28,15.17-14.53Zm-15.5,14.05c-1.43-2.93.49-6.3,2.27-8.59,3.14-3.6,7.89-6.01,12.73-5.93-5.5,4.18-10.96,8.87-15.01,14.51Zm0-29.03c4.04,5.65,9.51,10.33,15.01,14.51-4.85.09-9.59-2.33-12.73-5.93-1.79-2.29-3.71-5.66-2.27-8.59Zm-24.18.87c3.82,3.16,7.19,8.13,7.68,13.18.49-5.05,3.86-10.02,7.68-13.18,1.95-1.46,5.37-3.67,7.5-1.35-4.19,5.59-9.67,10.28-15.18,14.53h0s0,0,0,0c0,0,0,0,0,0,0,0,0,0,0,0C10.49,11.29,5.02,6.6.82,1.01c2.13-2.32,5.54-.11,7.5,1.35Zm8.17,13.64c4.85-.09,9.59,2.33,12.73,5.93,1.79,2.29,3.71,5.66,2.27,8.59-4.04-5.65-9.51-10.33-15.01-14.51Zm14.68,14.99c-2.13,2.32-5.54.11-7.5-1.35-3.82-3.16-7.19-8.13-7.68-13.18,5.51,4.25,10.98,8.93,15.18,14.53Zm-15.18-14.53c-.49,5.05-3.86,10.02-7.68,13.18-1.95,1.46-5.37,3.67-7.5,1.35,4.19-5.59,9.67-10.28,15.17-14.53ZM.5,1.49c4.04,5.65,9.51,10.33,15.01,14.51-4.85.09-9.59-2.33-12.73-5.93C.99,7.78-.93,4.42.5,1.49Zm2.27,20.44c3.14-3.6,7.89-6.01,12.73-5.93-5.5,4.18-10.96,8.87-15.01,14.51-1.43-2.93.49-6.3,2.27-8.59Zm-2.27,11.56c4.04,5.65,9.51,10.33,15.01,14.51-4.85.09-9.59-2.33-12.73-5.93-1.79-2.29-3.71-5.66-2.27-8.59Zm2.27,20.44c3.14-3.6,7.89-6.01,12.73-5.93-5.5,4.18-10.96,8.87-15.01,14.51-1.43-2.93.49-6.3,2.27-8.59Zm5.55,7.72c-1.95,1.46-5.37,3.67-7.5,1.35,4.19-5.59,9.67-10.28,15.17-14.53-.49,5.05-3.86,10.02-7.68,13.18Zm7.68-14.11s0,0,0,0c-5.51-4.25-10.98-8.93-15.18-14.53,2.13-2.32,5.54-.11,7.5,1.35,3.82,3.16,7.19,8.13,7.68,13.18.49-5.05,3.86-10.02,7.68-13.18,1.95-1.46,5.37-3.67,7.5-1.35-4.19,5.59-9.67,10.28-15.18,14.53h0s0,0,0,0c0,0,0,0,0,0Zm7.68,14.11c-3.82-3.16-7.19-8.13-7.68-13.18,5.51,4.25,10.98,8.93,15.18,14.53-2.13,2.32-5.54.11-7.5-1.35Zm7.82.87c-4.04-5.65-9.51-10.33-15.01-14.51,4.85-.09,9.59,2.33,12.73,5.93,1.79,2.29,3.71,5.66,2.27,8.59Zm-2.27-20.44c-3.14,3.6-7.89,6.01-12.73,5.93,5.5-4.18,10.96-8.87,15.01-14.51,1.43,2.93-.49,6.3-2.27,8.59Zm0-32c-3.14,3.6-7.89,6.01-12.73,5.93,5.5-4.18,10.96-8.87,15.01-14.51,1.43,2.93-.49,6.3-2.27,8.59Zm3.28,23.41c4.04,5.65,9.51,10.33,15.01,14.51-4.85.09-9.59-2.33-12.73-5.93-1.79-2.29-3.71-5.66-2.27-8.59Zm2.27,20.44c3.14-3.6,7.89-6.01,12.73-5.93-5.5,4.18-10.96,8.87-15.01,14.51-1.43-2.93.49-6.3,2.27-8.59Zm5.55,7.72c-1.95,1.46-5.37,3.67-7.5,1.35,4.19-5.59,9.67-10.28,15.17-14.53-.49,5.05-3.86,10.02-7.68,13.18Zm7.68-14.11s0,0,0,0c-5.51-4.25-10.98-8.93-15.18-14.53,2.13-2.32,5.54-.11,7.5,1.35,3.82,3.16,7.19,8.13,7.68,13.18.49-5.05,3.86-10.02,7.68-13.18,1.95-1.46,5.37-3.67,7.5-1.35-4.19,5.59-9.67,10.28-15.18,14.53,0,0,0,0,0,0,0,0,0,0,0,0,0,0,0,0,0,0Zm7.68,14.11c-3.82-3.16-7.19-8.13-7.68-13.18,5.51,4.25,10.98,8.93,15.18,14.53-2.13,2.32-5.54.11-7.5-1.35Zm7.82.87c-4.04-5.65-9.51-10.33-15.01-14.51,4.85-.09,9.59,2.33,12.73,5.93,1.79,2.29,3.71,5.66,2.27,8.59Zm-2.27-20.44c-3.14,3.6-7.89,6.01-12.73,5.93,5.5-4.18,10.96-8.87,15.01-14.51,1.43,2.93-.49,6.3-2.27,8.59Zm0-32c-3.14,3.6-7.89,6.01-12.73,5.93,5.5-4.18,10.96-8.87,15.01-14.51,1.43,2.93-.49,6.3-2.27,8.59Z"/>
  </g>
</svg>