<?xml version="1.0" encoding="UTF-8"?>
<svg id="Kotahitanga" xmlns="http://www.w3.org/2000/svg" viewBox="0 0 64 64">
  <defs>
    <style>
      .cls-1 {
        fill: #061a2f;
        stroke-width: 0px;
      }
    </style>
  </defs>
  <g id="Kotahitanga_-_Anther_-_Tier_3_-1" data-name="Kotahitanga - Anther - Tier 3 -1">
    <g>
      <path class="cls-1" d="m8.83,0v41.24c0,1.46-.51,2.22-1.87,2.7-4.05,1.39-6.96,5.23-6.96,9.75,0,5.69,4.62,10.31,10.31,10.31s10.31-4.62,10.31-10.31c0-4.52-2.91-8.36-6.96-9.75-1.36-.47-1.87-1.24-1.87-2.7V0h-2.96Z"/>
      <path class="cls-1" d="m37.75,0v41.24c0,1.46-.51,2.22-1.87,2.7-4.05,1.39-6.96,5.23-6.96,9.75,0,5.69,4.62,10.31,10.31,10.31s10.31-4.62,10.31-10.31c0-4.52-2.91-8.36-6.96-9.75-1.36-.47-1.87-1.24-1.87-2.7V0h-2.96Z"/>
      <path class="cls-1" d="m55.17,64V22.76c0-1.46.51-2.22,1.87-2.7,4.05-1.39,6.96-5.23,6.96-9.75C64,4.62,59.38,0,53.69,0s-10.31,4.62-10.31,10.31c0,4.52,2.91,8.36,6.96,9.75,1.36.47,1.87,1.24,1.87,2.7v41.24h2.96Z"/>
      <path class="cls-1" d="m26.25,64V22.76c0-1.46.51-2.22,1.87-2.7,4.05-1.39,6.96-5.23,6.96-9.75C35.08,4.62,30.46,0,24.77,0s-10.31,4.62-10.31,10.31c0,4.52,2.91,8.36,6.96,9.75,1.36.47,1.87,1.24,1.87,2.7v41.24h2.96Z"/>
    </g>
  </g>
</svg>