<?xml version="1.0" encoding="UTF-8"?>
<svg id="Kotahitanga" xmlns="http://www.w3.org/2000/svg" viewBox="0 0 64 64">
  <defs>
    <style>
      .cls-1 {
        fill: #061a2f;
        stroke-width: 0px;
      }
    </style>
  </defs>
  <g id="Kotahitanga_-_Anther_-_Tier_3_-_2_-_reverse" data-name="Kotahitanga - Anther - Tier 3 - 2 - reverse">
    <g>
      <path class="cls-1" d="m17.6,3.02c3.2,3.2,3.85,7.97,1.97,11.81-.63,1.3-.44,2.2.59,3.23l11.84,11.84,11.91-11.91c.97-1,1.14-1.89.52-3.16-1.88-3.85-1.22-8.62,1.97-11.81,4.03-4.03,10.55-4.03,14.58,0,2.01,2.01,3.02,4.65,3.02,7.29V0H0v10.31c0-2.64,1.01-5.28,3.02-7.29C7.04-1.01,13.57-1.01,17.6,3.02Z"/>
      <path class="cls-1" d="m60.98,17.6c-3.2,3.2-7.97,3.85-11.81,1.97-1.3-.63-2.2-.45-3.23.59l-11.84,11.84,11.9,11.9c1,.97,1.89,1.14,3.16.52,3.85-1.88,8.62-1.22,11.81,1.97,4.03,4.03,4.03,10.55,0,14.58-4.03,4.03-10.55,4.03-14.58,0-3.2-3.2-3.85-7.97-1.97-11.81.63-1.3.44-2.2-.59-3.23l-11.84-11.84-11.9,11.9c-.97,1-1.14,1.89-.52,3.16,1.88,3.85,1.22,8.62-1.97,11.81-4.03,4.03-10.55,4.03-14.58,0-4.03-4.03-4.03-10.55,0-14.58,3.2-3.2,7.97-3.85,11.81-1.97,1.3.63,2.2.44,3.23-.59l11.84-11.84-11.91-11.91c-1-.97-1.89-1.14-3.16-.52-3.85,1.88-8.62,1.22-11.81-1.97C1.01,15.58,0,12.95,0,10.31v53.69h64V10.31c0,2.64-1.01,5.28-3.02,7.29Z"/>
    </g>
  </g>
</svg>