<?xml version="1.0" encoding="UTF-8"?>
<svg id="Kotahitanga" xmlns="http://www.w3.org/2000/svg" viewBox="0 0 64 64">
  <defs>
    <style>
      .cls-1 {
        fill: #061a2f;
        stroke-width: 0px;
      }
    </style>
  </defs>
  <g id="Kotahitanga_-_Wave1_-_Tier_3_-3" data-name="Kotahitanga - Wave1 - Tier 3 -3">
    <g>
      <path class="cls-1" d="m46.45,58.46c7.2,0,10.37,1.11,14.42,2.38,1.04.33,2.04.64,3.13.98v-6.09c-4.28-1.4-8.77-3.04-17.55-3.04s-13.39,2.31-17.51,3.64c-4.1,1.32-7.41,2-14.47,2s-10.57-1.27-14.47-2.62v6.1c3.47,1.07,9.82,2.2,14.47,2.2,8.79,0,13.39-1.7,17.51-3.02,4.16-1.33,7.27-2.52,14.47-2.52"/>
      <path class="cls-1" d="m46.45,47.92c7.2,0,10.37,1.11,14.42,2.38,1.04.33,2.04.64,3.13.98v-6.09c-4.28-1.4-8.77-3.04-17.55-3.04s-13.39,2.31-17.51,3.64c-4.1,1.32-7.41,2-14.47,2s-10.57-1.27-14.47-2.62v6.1c3.47,1.07,9.82,2.2,14.47,2.2,8.79,0,13.39-1.7,17.51-3.02,4.16-1.33,7.27-2.52,14.47-2.52"/>
      <path class="cls-1" d="m46.45,37.39c7.2,0,10.37,1.11,14.42,2.38,1.04.33,2.04.64,3.13.98v-6.09c-4.28-1.4-8.77-3.04-17.55-3.04s-13.39,2.31-17.51,3.64c-4.1,1.32-7.41,2-14.47,2s-10.57-1.27-14.47-2.62v6.1c3.47,1.07,9.82,2.2,14.47,2.2,8.79,0,13.39-1.7,17.51-3.02,4.16-1.33,7.27-2.52,14.47-2.52"/>
      <path class="cls-1" d="m46.45,26.85c7.2,0,10.37,1.11,14.42,2.38,1.04.33,2.04.64,3.13.98v-6.09c-4.28-1.4-8.77-3.04-17.55-3.04s-13.39,2.31-17.51,3.64c-4.1,1.32-7.41,2-14.47,2s-10.57-1.27-14.47-2.62v6.1c3.47,1.07,9.82,2.2,14.47,2.2,8.79,0,13.39-1.7,17.51-3.02,4.16-1.33,7.27-2.52,14.47-2.52"/>
      <path class="cls-1" d="m46.45,16.31c7.2,0,10.37,1.11,14.42,2.38,1.04.33,2.04.64,3.13.98v-6.09c-4.28-1.39-8.77-3.04-17.55-3.04s-13.39,2.31-17.51,3.64c-4.1,1.32-7.41,2-14.47,2S3.9,14.91,0,13.56v6.1c3.47,1.07,9.82,2.2,14.47,2.2,8.79,0,13.39-1.7,17.51-3.02,4.16-1.33,7.27-2.52,14.47-2.52"/>
      <path class="cls-1" d="m46.45,5.77c7.2,0,10.37,1.11,14.42,2.38,1.04.33,2.04.64,3.13.98V3.04C59.72,1.64,55.23,0,46.45,0s-13.39,2.31-17.51,3.64c-4.1,1.32-7.41,2-14.47,2S3.9,4.37,0,3.02v6.1c3.47,1.07,9.82,2.2,14.47,2.2,8.79,0,13.39-1.7,17.51-3.02,4.16-1.33,7.27-2.52,14.47-2.52"/>
    </g>
  </g>
</svg>