<?xml version="1.0" encoding="UTF-8"?>
<svg id="Kotahitanga" xmlns="http://www.w3.org/2000/svg" viewBox="0 0 64 64">
  <defs>
    <style>
      .cls-1 {
        fill: #061a2f;
        stroke-width: 0px;
      }
    </style>
  </defs>
  <g id="Kotahitanga_-_Wave1_-_Tier_3_-1" data-name="Kotahitanga - Wave1 - Tier 3 -1">
    <g>
      <path class="cls-1" d="m44.06,22.36c9.25,0,15.15-1.85,19.94-3.97V5.97c-5.37,2.67-10.02,4.98-19.94,4.98s-14.56-2.31-19.94-4.98C18.49,3.17,12.11,0,0,0v11.41c9.92,0,14.56,2.31,19.94,4.98,5.63,2.8,12.01,5.97,24.12,5.97"/>
      <path class="cls-1" d="m44.06,43.18c9.25,0,15.15-1.85,19.94-3.97v-12.42c-5.37,2.67-10.02,4.98-19.94,4.98s-14.56-2.31-19.94-4.98c-5.63-2.8-12.01-5.97-24.12-5.97v11.41c9.92,0,14.56,2.31,19.94,4.98,5.63,2.8,12.01,5.97,24.12,5.97"/>
      <path class="cls-1" d="m64,47.61c-5.37,2.67-10.02,4.98-19.94,4.98s-14.56-2.31-19.94-4.98C18.49,44.81,12.11,41.64,0,41.64v11.41c9.92,0,14.56,2.31,19.94,4.98,5.63,2.8,12.01,5.97,24.12,5.97,9.25,0,15.15-1.85,19.94-3.97v-12.42Z"/>
    </g>
  </g>
</svg>