<?xml version="1.0" encoding="UTF-8"?>
<svg id="Kotahitanga" xmlns="http://www.w3.org/2000/svg" viewBox="0 0 64 64">
  <defs>
    <style>
      .cls-1 {
        fill: #061a2f;
        stroke-width: 0px;
      }
    </style>
  </defs>
  <g id="Kotahitanga_-_Wave1_-_Tier_4" data-name="Kotahitanga - Wave1 - Tier 4">
    <g>
      <path class="cls-1" d="m64,3.07c-3.6,0-5.29.62-7.24,1.34-2.05.75-4.36,1.61-8.76,1.61s-6.72-.85-8.76-1.61c-1.95-.72-3.64-1.34-7.24-1.34s-5.29.62-7.24,1.34c-2.05.75-4.36,1.61-8.76,1.61s-6.72-.85-8.76-1.61c-1.95-.72-3.64-1.34-7.24-1.34V0C4.4,0,6.71.85,8.76,1.61c1.95.72,3.64,1.34,7.24,1.34s5.29-.62,7.24-1.34C25.28.85,27.6,0,32,0s6.72.85,8.76,1.61c1.95.72,3.64,1.34,7.24,1.34s5.29-.62,7.24-1.34C57.28.85,59.6,0,64,0"/>
      <path class="cls-1" d="m64,3.07c-3.6,0-5.29.62-7.24,1.34-2.05.75-4.36,1.61-8.76,1.61s-6.72-.85-8.76-1.61c-1.95-.72-3.64-1.34-7.24-1.34s-5.29.62-7.24,1.34c-2.05.75-4.36,1.61-8.76,1.61s-6.72-.85-8.76-1.61c-1.95-.72-3.64-1.34-7.24-1.34V0C4.4,0,6.71.85,8.76,1.61c1.95.72,3.64,1.34,7.24,1.34s5.29-.62,7.24-1.34C25.28.85,27.6,0,32,0s6.72.85,8.76,1.61c1.95.72,3.64,1.34,7.24,1.34s5.29-.62,7.24-1.34C57.28.85,59.6,0,64,0"/>
      <path class="cls-1" d="m64,8.87c-3.6,0-5.29.62-7.24,1.34-2.05.75-4.36,1.61-8.76,1.61s-6.72-.86-8.76-1.61c-1.95-.72-3.64-1.34-7.24-1.34s-5.29.62-7.24,1.34c-2.05.75-4.36,1.61-8.76,1.61s-6.72-.86-8.76-1.61c-1.95-.72-3.64-1.34-7.24-1.34v-3.07c4.4,0,6.71.85,8.76,1.61,1.95.72,3.64,1.34,7.24,1.34s5.29-.62,7.24-1.34c2.05-.75,4.36-1.61,8.76-1.61s6.72.85,8.76,1.61c1.95.72,3.64,1.34,7.24,1.34s5.29-.62,7.24-1.34c2.05-.75,4.36-1.61,8.76-1.61"/>
      <path class="cls-1" d="m64,8.87c-3.6,0-5.29.62-7.24,1.34-2.05.75-4.36,1.61-8.76,1.61s-6.72-.86-8.76-1.61c-1.95-.72-3.64-1.34-7.24-1.34s-5.29.62-7.24,1.34c-2.05.75-4.36,1.61-8.76,1.61s-6.72-.86-8.76-1.61c-1.95-.72-3.64-1.34-7.24-1.34v-3.07c4.4,0,6.71.85,8.76,1.61,1.95.72,3.64,1.34,7.24,1.34s5.29-.62,7.24-1.34c2.05-.75,4.36-1.61,8.76-1.61s6.72.85,8.76,1.61c1.95.72,3.64,1.34,7.24,1.34s5.29-.62,7.24-1.34c2.05-.75,4.36-1.61,8.76-1.61"/>
      <path class="cls-1" d="m64,14.67c-3.6,0-5.29.62-7.24,1.34-2.05.75-4.36,1.61-8.76,1.61s-6.72-.85-8.76-1.61c-1.95-.72-3.64-1.34-7.24-1.34s-5.29.62-7.24,1.34c-2.05.75-4.36,1.61-8.76,1.61s-6.72-.85-8.76-1.61c-1.95-.72-3.64-1.34-7.24-1.34v-3.07c4.4,0,6.71.85,8.76,1.61,1.95.72,3.64,1.34,7.24,1.34s5.29-.62,7.24-1.34c2.05-.75,4.36-1.61,8.76-1.61s6.72.85,8.76,1.61c1.95.72,3.64,1.34,7.24,1.34s5.29-.62,7.24-1.34c2.05-.75,4.36-1.61,8.76-1.61"/>
      <path class="cls-1" d="m64,14.67c-3.6,0-5.29.62-7.24,1.34-2.05.75-4.36,1.61-8.76,1.61s-6.72-.85-8.76-1.61c-1.95-.72-3.64-1.34-7.24-1.34s-5.29.62-7.24,1.34c-2.05.75-4.36,1.61-8.76,1.61s-6.72-.85-8.76-1.61c-1.95-.72-3.64-1.34-7.24-1.34v-3.07c4.4,0,6.71.85,8.76,1.61,1.95.72,3.64,1.34,7.24,1.34s5.29-.62,7.24-1.34c2.05-.75,4.36-1.61,8.76-1.61s6.72.85,8.76,1.61c1.95.72,3.64,1.34,7.24,1.34s5.29-.62,7.24-1.34c2.05-.75,4.36-1.61,8.76-1.61"/>
      <path class="cls-1" d="m64,20.47c-3.6,0-5.29.62-7.24,1.34-2.05.75-4.36,1.61-8.76,1.61s-6.72-.86-8.76-1.61c-1.95-.72-3.64-1.34-7.24-1.34s-5.29.62-7.24,1.34c-2.05.75-4.36,1.61-8.76,1.61s-6.72-.86-8.76-1.61c-1.95-.72-3.64-1.34-7.24-1.34v-3.07c4.4,0,6.71.85,8.76,1.61,1.95.72,3.64,1.34,7.24,1.34s5.29-.62,7.24-1.34c2.05-.75,4.36-1.61,8.76-1.61s6.72.85,8.76,1.61c1.95.72,3.64,1.34,7.24,1.34s5.29-.62,7.24-1.34c2.05-.75,4.36-1.61,8.76-1.61"/>
      <path class="cls-1" d="m64,20.47c-3.6,0-5.29.62-7.24,1.34-2.05.75-4.36,1.61-8.76,1.61s-6.72-.86-8.76-1.61c-1.95-.72-3.64-1.34-7.24-1.34s-5.29.62-7.24,1.34c-2.05.75-4.36,1.61-8.76,1.61s-6.72-.86-8.76-1.61c-1.95-.72-3.64-1.34-7.24-1.34v-3.07c4.4,0,6.71.85,8.76,1.61,1.95.72,3.64,1.34,7.24,1.34s5.29-.62,7.24-1.34c2.05-.75,4.36-1.61,8.76-1.61s6.72.85,8.76,1.61c1.95.72,3.64,1.34,7.24,1.34s5.29-.62,7.24-1.34c2.05-.75,4.36-1.61,8.76-1.61"/>
      <path class="cls-1" d="m64,26.26c-3.6,0-5.29.62-7.24,1.34-2.05.75-4.36,1.61-8.76,1.61s-6.72-.86-8.76-1.61c-1.95-.72-3.64-1.34-7.24-1.34s-5.29.62-7.24,1.34c-2.05.75-4.36,1.61-8.76,1.61s-6.72-.86-8.76-1.61c-1.95-.72-3.64-1.34-7.24-1.34v-3.07c4.4,0,6.71.85,8.76,1.61,1.95.72,3.64,1.34,7.24,1.34s5.29-.62,7.24-1.34c2.05-.75,4.36-1.61,8.76-1.61s6.72.85,8.76,1.61c1.95.72,3.64,1.34,7.24,1.34s5.29-.62,7.24-1.34c2.05-.75,4.36-1.61,8.76-1.61"/>
      <path class="cls-1" d="m64,26.26c-3.6,0-5.29.62-7.24,1.34-2.05.75-4.36,1.61-8.76,1.61s-6.72-.86-8.76-1.61c-1.95-.72-3.64-1.34-7.24-1.34s-5.29.62-7.24,1.34c-2.05.75-4.36,1.61-8.76,1.61s-6.72-.86-8.76-1.61c-1.95-.72-3.64-1.34-7.24-1.34v-3.07c4.4,0,6.71.85,8.76,1.61,1.95.72,3.64,1.34,7.24,1.34s5.29-.62,7.24-1.34c2.05-.75,4.36-1.61,8.76-1.61s6.72.85,8.76,1.61c1.95.72,3.64,1.34,7.24,1.34s5.29-.62,7.24-1.34c2.05-.75,4.36-1.61,8.76-1.61"/>
      <path class="cls-1" d="m64,32.06c-3.6,0-5.29.62-7.24,1.34-2.05.75-4.36,1.61-8.76,1.61s-6.72-.85-8.76-1.61c-1.95-.72-3.64-1.34-7.24-1.34s-5.29.62-7.24,1.34c-2.05.75-4.36,1.61-8.76,1.61s-6.72-.85-8.76-1.61c-1.95-.72-3.64-1.34-7.24-1.34v-3.07c4.4,0,6.71.85,8.76,1.61,1.95.72,3.64,1.34,7.24,1.34s5.29-.62,7.24-1.34c2.05-.75,4.36-1.61,8.76-1.61s6.72.85,8.76,1.61c1.95.72,3.64,1.34,7.24,1.34s5.29-.62,7.24-1.34c2.05-.75,4.36-1.61,8.76-1.61"/>
      <path class="cls-1" d="m64,32.06c-3.6,0-5.29.62-7.24,1.34-2.05.75-4.36,1.61-8.76,1.61s-6.72-.85-8.76-1.61c-1.95-.72-3.64-1.34-7.24-1.34s-5.29.62-7.24,1.34c-2.05.75-4.36,1.61-8.76,1.61s-6.72-.85-8.76-1.61c-1.95-.72-3.64-1.34-7.24-1.34v-3.07c4.4,0,6.71.85,8.76,1.61,1.95.72,3.64,1.34,7.24,1.34s5.29-.62,7.24-1.34c2.05-.75,4.36-1.61,8.76-1.61s6.72.85,8.76,1.61c1.95.72,3.64,1.34,7.24,1.34s5.29-.62,7.24-1.34c2.05-.75,4.36-1.61,8.76-1.61"/>
      <path class="cls-1" d="m64,37.86c-3.6,0-5.29.62-7.24,1.34-2.05.75-4.36,1.61-8.76,1.61s-6.72-.86-8.76-1.61c-1.95-.72-3.64-1.34-7.24-1.34s-5.29.62-7.24,1.34c-2.05.75-4.36,1.61-8.76,1.61s-6.72-.86-8.76-1.61c-1.95-.72-3.64-1.34-7.24-1.34v-3.07c4.4,0,6.71.85,8.76,1.61,1.95.72,3.64,1.34,7.24,1.34s5.29-.62,7.24-1.34c2.05-.75,4.36-1.61,8.76-1.61s6.72.85,8.76,1.61c1.95.72,3.64,1.34,7.24,1.34s5.29-.62,7.24-1.34c2.05-.75,4.36-1.61,8.76-1.61"/>
      <path class="cls-1" d="m64,37.86c-3.6,0-5.29.62-7.24,1.34-2.05.75-4.36,1.61-8.76,1.61s-6.72-.86-8.76-1.61c-1.95-.72-3.64-1.34-7.24-1.34s-5.29.62-7.24,1.34c-2.05.75-4.36,1.61-8.76,1.61s-6.72-.86-8.76-1.61c-1.95-.72-3.64-1.34-7.24-1.34v-3.07c4.4,0,6.71.85,8.76,1.61,1.95.72,3.64,1.34,7.24,1.34s5.29-.62,7.24-1.34c2.05-.75,4.36-1.61,8.76-1.61s6.72.85,8.76,1.61c1.95.72,3.64,1.34,7.24,1.34s5.29-.62,7.24-1.34c2.05-.75,4.36-1.61,8.76-1.61"/>
      <path class="cls-1" d="m64,43.66c-3.6,0-5.29.62-7.24,1.34-2.05.75-4.36,1.61-8.76,1.61s-6.72-.86-8.76-1.61c-1.95-.72-3.64-1.34-7.24-1.34s-5.29.62-7.24,1.34c-2.05.75-4.36,1.61-8.76,1.61s-6.72-.86-8.76-1.61c-1.95-.72-3.64-1.34-7.24-1.34v-3.07c4.4,0,6.71.85,8.76,1.61,1.95.72,3.64,1.34,7.24,1.34s5.29-.62,7.24-1.34c2.05-.75,4.36-1.61,8.76-1.61s6.72.85,8.76,1.61c1.95.72,3.64,1.34,7.24,1.34s5.29-.62,7.24-1.34c2.05-.75,4.36-1.61,8.76-1.61"/>
      <path class="cls-1" d="m64,43.66c-3.6,0-5.29.62-7.24,1.34-2.05.75-4.36,1.61-8.76,1.61s-6.72-.86-8.76-1.61c-1.95-.72-3.64-1.34-7.24-1.34s-5.29.62-7.24,1.34c-2.05.75-4.36,1.61-8.76,1.61s-6.72-.86-8.76-1.61c-1.95-.72-3.64-1.34-7.24-1.34v-3.07c4.4,0,6.71.85,8.76,1.61,1.95.72,3.64,1.34,7.24,1.34s5.29-.62,7.24-1.34c2.05-.75,4.36-1.61,8.76-1.61s6.72.85,8.76,1.61c1.95.72,3.64,1.34,7.24,1.34s5.29-.62,7.24-1.34c2.05-.75,4.36-1.61,8.76-1.61"/>
      <path class="cls-1" d="m64,49.46c-3.6,0-5.29.62-7.24,1.34-2.05.75-4.36,1.61-8.76,1.61s-6.72-.86-8.76-1.61c-1.95-.72-3.64-1.34-7.24-1.34s-5.29.62-7.24,1.34c-2.05.75-4.36,1.61-8.76,1.61s-6.72-.86-8.76-1.61c-1.95-.72-3.64-1.34-7.24-1.34v-3.07c4.4,0,6.71.85,8.76,1.61,1.95.72,3.64,1.34,7.24,1.34s5.29-.62,7.24-1.34c2.05-.75,4.36-1.61,8.76-1.61s6.72.85,8.76,1.61c1.95.72,3.64,1.34,7.24,1.34s5.29-.62,7.24-1.34c2.05-.75,4.36-1.61,8.76-1.61"/>
      <path class="cls-1" d="m64,49.46c-3.6,0-5.29.62-7.24,1.34-2.05.75-4.36,1.61-8.76,1.61s-6.72-.86-8.76-1.61c-1.95-.72-3.64-1.34-7.24-1.34s-5.29.62-7.24,1.34c-2.05.75-4.36,1.61-8.76,1.61s-6.72-.86-8.76-1.61c-1.95-.72-3.64-1.34-7.24-1.34v-3.07c4.4,0,6.71.85,8.76,1.61,1.95.72,3.64,1.34,7.24,1.34s5.29-.62,7.24-1.34c2.05-.75,4.36-1.61,8.76-1.61s6.72.85,8.76,1.61c1.95.72,3.64,1.34,7.24,1.34s5.29-.62,7.24-1.34c2.05-.75,4.36-1.61,8.76-1.61"/>
      <path class="cls-1" d="m64,55.25c-3.6,0-5.29.62-7.24,1.34-2.05.75-4.36,1.61-8.76,1.61s-6.72-.86-8.76-1.61c-1.95-.72-3.64-1.34-7.24-1.34s-5.29.62-7.24,1.34c-2.05.75-4.36,1.61-8.76,1.61s-6.72-.86-8.76-1.61c-1.95-.72-3.64-1.34-7.24-1.34v-3.07c4.4,0,6.71.85,8.76,1.61,1.95.72,3.64,1.34,7.24,1.34s5.29-.62,7.24-1.34c2.05-.75,4.36-1.61,8.76-1.61s6.72.85,8.76,1.61c1.95.72,3.64,1.34,7.24,1.34s5.29-.62,7.24-1.34c2.05-.75,4.36-1.61,8.76-1.61"/>
      <path class="cls-1" d="m64,55.25c-3.6,0-5.29.62-7.24,1.34-2.05.75-4.36,1.61-8.76,1.61s-6.72-.86-8.76-1.61c-1.95-.72-3.64-1.34-7.24-1.34s-5.29.62-7.24,1.34c-2.05.75-4.36,1.61-8.76,1.61s-6.72-.86-8.76-1.61c-1.95-.72-3.64-1.34-7.24-1.34v-3.07c4.4,0,6.71.85,8.76,1.61,1.95.72,3.64,1.34,7.24,1.34s5.29-.62,7.24-1.34c2.05-.75,4.36-1.61,8.76-1.61s6.72.85,8.76,1.61c1.95.72,3.64,1.34,7.24,1.34s5.29-.62,7.24-1.34c2.05-.75,4.36-1.61,8.76-1.61"/>
      <path class="cls-1" d="m64,61.05c-3.6,0-5.29.62-7.24,1.34-2.05.75-4.36,1.61-8.76,1.61s-6.72-.85-8.76-1.61c-1.95-.72-3.64-1.34-7.24-1.34s-5.29.62-7.24,1.34c-2.05.75-4.36,1.61-8.76,1.61s-6.72-.85-8.76-1.61c-1.95-.72-3.64-1.34-7.24-1.34v-3.07c4.4,0,6.71.85,8.76,1.61,1.95.72,3.64,1.34,7.24,1.34s5.29-.62,7.24-1.34c2.05-.75,4.36-1.61,8.76-1.61s6.72.85,8.76,1.61c1.95.72,3.64,1.34,7.24,1.34s5.29-.62,7.24-1.34c2.05-.75,4.36-1.61,8.76-1.61"/>
      <path class="cls-1" d="m64,61.05c-3.6,0-5.29.62-7.24,1.34-2.05.75-4.36,1.61-8.76,1.61s-6.72-.85-8.76-1.61c-1.95-.72-3.64-1.34-7.24-1.34s-5.29.62-7.24,1.34c-2.05.75-4.36,1.61-8.76,1.61s-6.72-.85-8.76-1.61c-1.95-.72-3.64-1.34-7.24-1.34v-3.07c4.4,0,6.71.85,8.76,1.61,1.95.72,3.64,1.34,7.24,1.34s5.29-.62,7.24-1.34c2.05-.75,4.36-1.61,8.76-1.61s6.72.85,8.76,1.61c1.95.72,3.64,1.34,7.24,1.34s5.29-.62,7.24-1.34c2.05-.75,4.36-1.61,8.76-1.61"/>
    </g>
  </g>
</svg>