<?xml version="1.0" encoding="UTF-8"?>
<svg id="Kotahitanga" xmlns="http://www.w3.org/2000/svg" viewBox="0 0 64 64">
  <defs>
    <style>
      .cls-1 {
        fill: #061a2f;
        stroke-width: 0px;
      }
    </style>
  </defs>
  <g id="Kotahitanga_-_Anther_-_Tier_3_-_1_-_reverse" data-name="Kotahitanga - Anther - Tier 3 - 1 - reverse">
    <g>
      <polygon class="cls-1" points="10.31 64 10.32 64 10.3 64 10.31 64"/>
      <polygon class="cls-1" points="39.23 64 39.24 64 39.22 64 39.23 64"/>
      <rect class="cls-1" x="52.21" y="64" width="2.96" height="0"/>
      <rect class="cls-1" x="23.29" y="64" width="2.96" height="0"/>
      <path class="cls-1" d="m6.96,43.94c1.36-.47,1.87-1.24,1.87-2.7V0H0v53.69c0-4.52,2.91-8.36,6.96-9.75Z"/>
      <path class="cls-1" d="m50.34,20.06c-4.05-1.39-6.96-5.23-6.96-9.75C43.38,4.62,48,0,53.69,0s10.31,4.62,10.31,10.31V0h-23.29v41.24c0,1.46.51,2.22,1.87,2.7,4.05,1.39,6.96,5.23,6.96,9.75,0,5.69-4.61,10.3-10.3,10.31h12.97V22.76c0-1.46-.51-2.22-1.87-2.7Z"/>
      <path class="cls-1" d="m28.92,53.69c0-4.52,2.91-8.36,6.96-9.75,1.36-.47,1.87-1.24,1.87-2.7V0H11.79v41.24c0,1.46.51,2.22,1.87,2.7,4.05,1.39,6.96,5.23,6.96,9.75,0,5.69-4.61,10.3-10.3,10.31h12.97V22.76c0-1.46-.51-2.22-1.87-2.7-4.05-1.39-6.96-5.23-6.96-9.75C14.46,4.62,19.08,0,24.77,0s10.31,4.62,10.31,10.31c0,4.52-2.91,8.36-6.96,9.75-1.36.47-1.87,1.24-1.87,2.7v41.24h12.97c-5.69,0-10.3-4.62-10.3-10.31Z"/>
      <path class="cls-1" d="m64,10.31c0,4.52-2.91,8.36-6.96,9.75-1.36.47-1.87,1.24-1.87,2.7v41.24h8.83V10.31Z"/>
      <path class="cls-1" d="m0,53.69v10.31h10.3c-5.69,0-10.3-4.62-10.3-10.31Z"/>
    </g>
  </g>
</svg>