<?xml version="1.0" encoding="UTF-8"?>
<svg xmlns="http://www.w3.org/2000/svg" viewBox="0 0 128 64">
  <defs>
    <style>
      .cls-1 {
        fill: #061a2f;
      }
    </style>
  </defs>
  <g id="Layer_1" data-name="Layer 1">
    <g>
      <path class="cls-1" d="m65,8.83H22.76c-1.46,0-2.22-.51-2.7-1.87C18.67,2.91,14.83,0,10.31,0,4.62,0,0,4.62,0,10.31s4.62,10.31,10.31,10.31c4.52,0,8.36-2.91,9.75-6.96.47-1.36,1.24-1.87,2.7-1.87h42.24v-2.96Z"/>
      <path class="cls-1" d="m65,37.75H22.76c-1.46,0-2.22-.51-2.7-1.87-1.39-4.05-5.23-6.96-9.75-6.96C4.62,28.92,0,33.54,0,39.23s4.62,10.31,10.31,10.31c4.52,0,8.36-2.91,9.75-6.96.47-1.36,1.24-1.87,2.7-1.87h42.24v-2.96Z"/>
      <path class="cls-1" d="m0,55.17h41.24c1.46,0,2.22.51,2.7,1.87,1.39,4.05,5.23,6.96,9.75,6.96,5.69,0,10.31-4.62,10.31-10.31s-4.62-10.31-10.31-10.31c-4.52,0-8.36,2.91-9.75,6.96-.47,1.36-1.24,1.87-2.7,1.87H0v2.96Z"/>
      <path class="cls-1" d="m0,26.25h41.24c1.46,0,2.22.51,2.7,1.87,1.39,4.05,5.23,6.96,9.75,6.96,5.69,0,10.31-4.62,10.31-10.31s-4.62-10.31-10.31-10.31c-4.52,0-8.36,2.91-9.75,6.96-.47,1.36-1.24,1.87-2.7,1.87H0v2.96Z"/>
    </g>
  </g>
  <g id="Layer_2" data-name="Layer 2">
    <g>
      <path class="cls-1" d="m128,8.83h-41.24c-1.46,0-2.22-.51-2.7-1.87-1.39-4.05-5.23-6.96-9.75-6.96-5.69,0-10.31,4.62-10.31,10.31s4.62,10.31,10.31,10.31c4.52,0,8.36-2.91,9.75-6.96.47-1.36,1.24-1.87,2.7-1.87h41.24v-2.96Z"/>
      <path class="cls-1" d="m128,37.75h-41.24c-1.46,0-2.22-.51-2.7-1.87-1.39-4.05-5.23-6.96-9.75-6.96-5.69,0-10.31,4.62-10.31,10.31s4.62,10.31,10.31,10.31c4.52,0,8.36-2.91,9.75-6.96.47-1.36,1.24-1.87,2.7-1.87h41.24v-2.96Z"/>
      <path class="cls-1" d="m63,55.17h42.24c1.46,0,2.22.51,2.7,1.87,1.39,4.05,5.23,6.96,9.75,6.96,5.69,0,10.31-4.62,10.31-10.31s-4.62-10.31-10.31-10.31c-4.52,0-8.36,2.91-9.75,6.96-.47,1.36-1.24,1.87-2.7,1.87h-42.24v2.96Z"/>
      <path class="cls-1" d="m63,26.25h42.24c1.46,0,2.22.51,2.7,1.87,1.39,4.05,5.23,6.96,9.75,6.96,5.69,0,10.31-4.62,10.31-10.31s-4.62-10.31-10.31-10.31c-4.52,0-8.36,2.91-9.75,6.96-.47,1.36-1.24,1.87-2.7,1.87h-42.24v2.96Z"/>
    </g>
  </g>
</svg>