<?xml version="1.0" encoding="UTF-8"?>
<svg id="Kotahitanga" xmlns="http://www.w3.org/2000/svg" viewBox="0 0 64 64">
  <defs>
    <style>
      .cls-1 {
        fill: #061a2f;
        stroke-width: 0px;
      }
    </style>
  </defs>
  <g id="Kotahitanga_-_Anther_-_Tier_4_-_reverse" data-name="Kotahitanga - Anther - Tier 4 - reverse">
    <g>
      <path class="cls-1" d="m25.6,57.6c0-2.81,1.81-5.19,4.32-6.05.85-.29,1.16-.77,1.16-1.68v-15.77l-11.06,11.07c-.64.64-.75,1.2-.36,2.01,1.17,2.39.76,5.35-1.23,7.34-2.5,2.5-6.55,2.5-9.05,0-2.5-2.5-2.5-6.55,0-9.05,1.99-1.98,4.95-2.39,7.34-1.23.81.39,1.37.28,2.01-.36l11.02-11.02h-15.6c-.91,0-1.38.32-1.68,1.16-.86,2.51-3.25,4.32-6.05,4.32-3.53,0-6.4-2.87-6.4-6.4v32.07h32c-3.54,0-6.4-2.87-6.4-6.4Z"/>
      <path class="cls-1" d="m6.4,25.53c2.81,0,5.19,1.81,6.05,4.32.29.85.77,1.16,1.68,1.16h15.6l-11.02-11.02c-.64-.64-1.2-.75-2.01-.36-2.39,1.17-5.35.76-7.34-1.23-2.5-2.5-2.5-6.55,0-9.05,2.5-2.5,6.55-2.5,9.05,0,1.98,1.99,2.39,4.95,1.23,7.34-.39.81-.28,1.37.36,2.01l11.06,11.06v-15.63c0-.91-.31-1.38-1.16-1.68-2.51-.86-4.32-3.25-4.32-6.06,0-3.54,2.87-6.4,6.4-6.4H0v31.93c0-3.53,2.87-6.4,6.4-6.4Z"/>
      <path class="cls-1" d="m57.6,38.33c-2.81,0-5.19-1.81-6.05-4.32-.29-.85-.77-1.16-1.68-1.16h-15.7l11.11,11.11c.64.64,1.2.75,2.01.37,2.39-1.17,5.35-.76,7.34,1.23,2.5,2.5,2.5,6.55,0,9.05-2.5,2.5-6.55,2.5-9.05,0-1.99-1.98-2.39-4.95-1.23-7.34.39-.81.28-1.37-.36-2.01l-11.06-11.06v15.67c0,.91.32,1.38,1.16,1.68,2.51.86,4.32,3.25,4.32,6.05,0,3.54-2.87,6.4-6.4,6.4h32V31.93c0,3.54-2.87,6.4-6.4,6.4Z"/>
      <path class="cls-1" d="m32,0c3.54,0,6.4,2.87,6.4,6.4,0,2.81-1.81,5.19-4.32,6.06-.85.29-1.16.77-1.16,1.68v15.53l11.06-11.06c.64-.64.75-1.2.36-2.01-1.17-2.39-.76-5.35,1.23-7.34,2.5-2.5,6.55-2.5,9.05,0,2.5,2.5,2.5,6.55,0,9.05-1.99,1.99-4.95,2.39-7.34,1.23-.81-.39-1.37-.28-2.01.36l-11.11,11.11h15.7c.91,0,1.38-.31,1.68-1.16.86-2.51,3.25-4.32,6.05-4.32,3.54,0,6.4,2.87,6.4,6.4V0h-32Z"/>
    </g>
  </g>
</svg>