<?xml version="1.0" encoding="UTF-8"?>
<svg id="Kotahitanga" xmlns="http://www.w3.org/2000/svg" viewBox="0 0 64 64">
  <defs>
    <style>
      .cls-1 {
        fill: #061a2f;
        stroke-width: 0px;
      }
    </style>
  </defs>
  <g id="Kotahitanga_-_Anther_-_Tier_2" data-name="Kotahitanga - Anther - Tier 2">
    <g>
      <path class="cls-1" d="m38.8,43.9c-2.49,0-3.79-.87-4.6-3.19-2.37-6.9-8.92-11.87-16.62-11.87C7.87,28.84,0,36.71,0,46.42s7.87,17.58,17.58,17.58c7.71,0,14.25-4.96,16.62-11.87.81-2.32,2.12-3.19,4.6-3.19h25.2v-5.05h-25.2Z"/>
      <path class="cls-1" d="m29.8,23.29c2.37,6.9,8.92,11.87,16.62,11.87,9.71,0,17.58-7.87,17.58-17.58S56.13,0,46.42,0C38.71,0,32.17,4.96,29.8,11.87c-.81,2.32-2.12,3.19-4.6,3.19H0v5.05h25.2c2.49,0,3.79.87,4.6,3.19Z"/>
    </g>
  </g>
</svg>