<?xml version="1.0" encoding="UTF-8"?>
<svg id="Kotahitanga" xmlns="http://www.w3.org/2000/svg" viewBox="0 0 64 64">
  <defs>
    <style>
      .cls-1 {
        fill: #061a2f;
        stroke-width: 0px;
      }
    </style>
  </defs>
  <g id="Kotahitanga_-_Leaf_-_Tier_2_-_reverse" data-name="Kotahitanga - Leaf - Tier 2 - reverse">
    <path class="cls-1" d="m0,0v64h64V0H0Zm7.74,47.43C2.76,41.03-2.61,31.63,1.4,23.45c11.3,15.77,26.55,28.86,41.91,40.54-13.53.24-26.79-6.51-35.57-16.56ZM2.3,22.12c5.95-6.49,15.48-.31,20.94,3.76,10.67,8.82,20.09,22.71,21.45,36.81C29.3,50.82,14.01,37.73,2.3,22.12Zm38.46,16.01C30.09,29.3,20.67,15.42,19.31,1.31c15.38,11.87,30.68,24.96,42.39,40.57-5.95,6.49-15.48.31-20.94-3.76Zm21.84,2.43C51.3,24.78,36.05,11.69,20.69.02c13.53-.24,26.79,6.51,35.57,16.56,4.99,6.4,10.35,15.8,6.34,23.98Z"/>
  </g>
</svg>