<?xml version="1.0" encoding="UTF-8"?>
<svg id="Kotahitanga" xmlns="http://www.w3.org/2000/svg" viewBox="0 0 64 64">
  <defs>
    <style>
      .cls-1 {
        fill: #061a2f;
        stroke-width: 0px;
      }
    </style>
  </defs>
  <g id="Kotahitanga_-_Anther_-_Tier_3_-_2" data-name="Kotahitanga - Anther - Tier 3 - 2">
    <path class="cls-1" d="m49.16,44.43c-1.27.61-2.16.45-3.16-.52l-11.9-11.9,11.84-11.84c1.03-1.03,1.93-1.21,3.23-.59,3.85,1.88,8.62,1.22,11.81-1.97,4.03-4.03,4.03-10.55,0-14.58-4.03-4.03-10.55-4.03-14.58,0-3.2,3.2-3.85,7.97-1.97,11.81.61,1.27.45,2.16-.52,3.16l-11.91,11.91-11.84-11.84c-1.03-1.03-1.21-1.93-.59-3.23,1.88-3.85,1.22-8.62-1.97-11.81C13.57-1.01,7.04-1.01,3.02,3.02-1.01,7.05-1.01,13.57,3.02,17.6c3.2,3.2,7.97,3.85,11.81,1.97,1.27-.61,2.16-.45,3.16.52l11.91,11.91-11.84,11.84c-1.03,1.03-1.93,1.21-3.23.59-3.85-1.88-8.62-1.22-11.81,1.97-4.03,4.03-4.03,10.55,0,14.58,4.03,4.03,10.55,4.03,14.58,0,3.2-3.2,3.85-7.97,1.97-11.81-.61-1.27-.45-2.16.52-3.16l11.9-11.9,11.84,11.84c1.03,1.03,1.21,1.93.59,3.23-1.88,3.85-1.22,8.62,1.97,11.81,4.03,4.03,10.55,4.03,14.58,0,4.03-4.03,4.03-10.55,0-14.58-3.2-3.2-7.97-3.85-11.81-1.97Z"/>
  </g>
</svg>