<?xml version="1.0" encoding="UTF-8"?>
<svg id="Kotahitanga" xmlns="http://www.w3.org/2000/svg" viewBox="0 0 64 64">
  <defs>
    <style>
      .cls-1 {
        fill: #061a2f;
        stroke-width: 0px;
      }
    </style>
  </defs>
  <g id="Kotahitanga_-_Wave2_-_Tier_3_-2" data-name="Kotahitanga - Wave2 - Tier 3 -2">
    <g>
      <path class="cls-1" d="m0,0c8.74,7.35,20.41,12.21,32.06,12.21S55.27,7.36,64,0v9.4c-9.32,7.36-21.95,10.85-31.94,10.85S9.37,16.76,0,9.4V0Z"/>
      <path class="cls-1" d="m0,15.25c8.74,7.35,20.41,11.3,32.06,11.3s23.21-3.94,31.94-11.3v8.48c-9.32,7.36-21.95,10.85-31.94,10.85S9.37,31.1,0,23.74v-8.48Z"/>
      <path class="cls-1" d="m0,29.56c8.74,7.35,20.41,11.3,32.06,11.3s23.21-3.94,31.94-11.3v8.48c-9.32,7.36-21.95,10.85-31.94,10.85S9.37,45.41,0,38.04v-8.48Z"/>
      <path class="cls-1" d="m0,44.67c8.74,7.35,20.41,11.3,32.06,11.3s23.21-3.94,31.94-11.3v8.48c-9.32,7.36-21.95,10.85-31.94,10.85S9.37,60.52,0,53.15v-8.48Z"/>
    </g>
  </g>
</svg>