<?xml version="1.0" encoding="UTF-8"?>
<svg id="AC_icons" data-name="AC icons" xmlns="http://www.w3.org/2000/svg" viewBox="0 0 64 64">
  <defs>
    <style>
      .cls-1 {
        fill: #061a2f;
        stroke-width: 0px;
      }
    </style>
  </defs>
  <g id="Informational_icons" data-name="Informational icons">
    <g id="L">
      <g id="lamb-feeding">
        <path id="Lamb_feeding" data-name="Lamb feeding" class="cls-1" d="m62.99,44.56c-.67-.52-1.2-.67-1.49-3.28-.29-2.61-2.82-3.51-4.51-4.63-1.69-1.12-1.2-4.38-1.2-4.38v-5.7s.37,0,2-1.27c1.63-1.27.6-2.69-2.17-5.45s-7.85-3.51-11.36-3.55c-3.71.03-7.38.73-10.84,2.05-2.62,1.12-10.31,1.19-12.9-.6.42-2.36.49-4.77.22-7.16,3.69.45,5.73-2.24,6.55-3.43.82-1.19.7-1.78-1.42-2.68-1.46-.53-3.07-.48-4.5.12,0,0-.85.65-3.45,2.39-3.31-3.33-6.81-2.51-9.18-1.4-1.64-1.54-2.19-2.11-2.19-2.11-1.32-.83-2.9-1.13-4.43-.84C-.08,3.24-.33,3.8.3,5.11c.63,1.31,2.2,4.29,5.91,4.43h.24c.14.76.06,1.54-.23,2.26-1.56,5.23,1.84,6.69,1.84,6.69,0,0-2.47,13.1,5,19.48.6,4.19.98,8.42,1.12,12.65,0,4.81-2.8,6.49-2.8,8.4s3.89,1,5.65-.72c-1,2.75.24,3.48,2.53,3.06s3.37-1.1,3.93-8.6c.4-4.79,1.34-9.52,2.8-14.1,12.41,3.59,16.71-1.22,16.71-1.22.91,1.61,1.91,3.17,3,4.66,1.65,1.97,2.57,4.44,2.62,7,0,3.28-1.12,4.85-2.73,6.83-1.61,1.98,3.29,3.69,5.68,1s2.69-7.24,2.69-9c-.02-.95.15-1.89.52-2.76l.75-1.12c2.84,2.69,2.62,5.07,2.62,5.07v7.76c0,2.84,3.06,2.91,3.06,2.91,2.24,0,2.77-2.76,2.77-2.76v-9.74c.13-1.01-.23-2.03-.98-2.72Z"/>
      </g>
    </g>
  </g>
</svg>