<?xml version="1.0" encoding="UTF-8"?>
<svg id="AC_icons" data-name="AC icons" xmlns="http://www.w3.org/2000/svg" viewBox="0 0 64 64">
  <defs>
    <style>
      .cls-1 {
        fill: #061a2f;
        stroke-width: 0px;
      }
    </style>
  </defs>
  <g id="Informational_icons" data-name="Informational icons">
    <g id="L">
      <g id="library">
        <g id="AC">
          <g id="Library">
            <path class="cls-1" d="m35.12,16.51c.04-.96.26-1.91.65-2.79,0,0,2.01-4.34,9.28-5.01,7.27-.67,9.85.39,9.85.39.81.35,1.35,1.12,1.39,2.01v28.7c.08.48-.24.94-.72,1.02-.24.04-.48-.02-.68-.16,0,0-2.95-1.39-10.26,0-6.16,1.1-8.43,3.08-8.43,3.08-.61.53-1.11.3-1.11-.5l.03-26.74Z"/>
            <path class="cls-1" d="m7.74,11.17c.05-.88.59-1.65,1.39-2.01,0,0,2.68-1,9.87-.39,7.19.61,9.28,4.94,9.28,4.94.38.88.6,1.83.64,2.79v26.7c0,.8-.5,1-1.11.5,0,0-2.26-2.01-8.36-3.08-7.31-1.31-10.28,0-10.28,0-.41.28-.96.18-1.24-.22-.13-.19-.18-.42-.15-.64l-.03-28.59Z"/>
            <path class="cls-1" d="m32.01,55.52c-.53.02-1.04-.2-1.39-.6-3.68-3.64-8.47-5.94-13.62-6.54-4.94-.28-9.89.45-14.53,2.17-.55.21-1.17.15-1.65-.18-.5-.32-.8-.89-.79-1.48V11.04c-.14-.98.53-1.88,1.5-2.03.98-.14,1.88.53,2.03,1.5.01.07.02.14.02.21,0,.1,0,.21,0,.31v35.31c4.46-1.39,9.15-1.93,13.81-1.57,5.43.62,10.54,2.89,14.63,6.51,4.09-3.61,9.2-5.87,14.62-6.48,4.66-.35,9.34.18,13.8,1.57V11.04c0-.99.8-1.79,1.79-1.79s1.79.8,1.79,1.79h0v37.79c-.01.59-.31,1.13-.8,1.45-.48.34-1.11.41-1.65.18-4.65-1.7-9.6-2.42-14.54-2.11-5.18.57-10,2.9-13.67,6.6-.38.31-.84.5-1.32.56Z"/>
          </g>
        </g>
      </g>
    </g>
  </g>
</svg>