<?xml version="1.0" encoding="UTF-8"?>
<svg id="AC_icons" data-name="AC icons" xmlns="http://www.w3.org/2000/svg" viewBox="0 0 64 64">
  <defs>
    <style>
      .cls-1 {
        fill: #061a2f;
        stroke-width: 0px;
      }
    </style>
  </defs>
  <g id="Informational_icons" data-name="Informational icons">
    <g id="L">
      <g id="lodge">
        <path id="Lodge_environmental_camp_YMCA" data-name="Lodge environmental camp YMCA" class="cls-1" d="m60,52v-25h3l-17-19-17,19h3v25h-15v-9h5.72c4-.1,7.28-3.06,7.28-6.69v-.63c-.02-.82-.28-1.61-.75-2.28-.92-1.64-2.45-2.86-4.25-3.4.77-1.05,1.19-2.31,1.19-3.61.09-3.19-2.42-5.85-5.61-5.94.03-5.77-2.48-10.45-5.58-10.45s-5.61,4.68-5.61,10.46c-3.19.09-5.71,2.74-5.62,5.94,0,0,0,0,0,0,.02,1.3.45,2.56,1.23,3.6-1.8.54-3.33,1.75-4.25,3.39-.47.67-.73,1.46-.75,2.28v.63c0,3.7,3.36,6.7,7.5,6.7h5.5v9H0v4h64v-4h-4Zm-10,0h-8v-14h8v14Z"/>
      </g>
    </g>
  </g>
</svg>