<?xml version="1.0" encoding="UTF-8"?>
<svg id="AC_icons" data-name="AC icons" xmlns="http://www.w3.org/2000/svg" viewBox="0 0 64 64">
  <defs>
    <style>
      .cls-1 {
        fill: #061a2f;
        stroke-width: 0px;
      }
    </style>
  </defs>
  <g id="Logo_icons" data-name="Logo icons">
    <g id="mono-ac-logo">
      <g>
        <path class="cls-1" d="m58.36,18.12c-.76-1.99-2.99-2.98-4.98-2.22-1.52.58-2.46,2.02-2.47,3.55,0,0,0,0,0,0,0,.55-.36,1.07-.9,1.27l-.15.06-14.12,5.42h0c-.21.08-.41.06-.48-.05-.07-.11,0-.29.16-.45,0,0,0,0,.02-.01l10.85-10.48.13-.12c.42-.4,1.04-.5,1.54-.28,0,0,0,0,0,0,1.4.63,3.1.39,4.27-.74,1.53-1.48,1.57-3.92.1-5.45-1.48-1.53-3.92-1.57-5.45-.1-1.17,1.13-1.47,2.82-.89,4.24,0,0,0,0,0,0,.21.51.09,1.12-.33,1.52l-.12.11-10.88,10.51s0,0,0,0c-.17.15-.35.22-.46.14-.11-.08-.12-.27-.03-.48,0,0,0,0,0-.02l5.9-13.89.07-.17c.23-.53.76-.87,1.3-.85,0,0,0,0,0,0,1.53.04,3-.85,3.64-2.35.83-1.96-.08-4.22-2.04-5.06-1.96-.83-4.22.08-5.06,2.04-.64,1.5-.25,3.17.84,4.25,0,0,0,0,0,0,.39.38.52,1,.29,1.53l-.06.15-5.91,13.93h0c-.09.21-.23.34-.37.31-.13-.03-.21-.2-.21-.43v-15.29c0-.58.36-1.09.87-1.3,0,0,0,0,0,0,1.42-.57,2.43-1.96,2.43-3.58,0-2.13-1.73-3.86-3.86-3.86s-3.86,1.73-3.86,3.86c0,1.63,1.01,3.02,2.43,3.58,0,0,0,0,0,0,.51.2.87.72.87,1.3v15.29c0,.23-.08.4-.21.43-.13.03-.27-.1-.37-.31h0s-5.9-13.91-5.9-13.91l-.07-.17c-.23-.53-.1-1.15.29-1.53,0,0,0,0,0,0,1.09-1.08,1.47-2.75.84-4.25-.83-1.96-3.1-2.88-5.06-2.04-1.96.83-2.88,3.1-2.04,5.06.64,1.5,2.11,2.38,3.64,2.35,0,0,0,0,0,0,.55-.01,1.08.32,1.31.85l.07.17,5.9,13.89s0,.02,0,.02c.09.21.08.4-.03.48-.11.08-.29.01-.46-.14h0s-10.87-10.5-10.87-10.5l-.13-.12c-.42-.4-.54-1.02-.33-1.52,0,0,0,0,0,0,.58-1.42.28-3.11-.89-4.24-1.53-1.48-3.97-1.44-5.45.1-1.48,1.53-1.44,3.97.1,5.45,1.17,1.13,2.87,1.37,4.27.74,0,0,0,0,0,0,.5-.23,1.12-.13,1.54.28l.13.12,10.85,10.48s.02.01.02.01c.16.16.23.34.16.45-.07.11-.26.13-.48.05h0l-14.11-5.42-.17-.06c-.54-.21-.89-.73-.9-1.27,0,0,0,0,0,0-.02-1.53-.96-2.97-2.47-3.55-1.99-.76-4.22.23-4.98,2.22-.76,1.99.23,4.22,2.22,4.98,1.52.58,3.18.14,4.22-.99,0,0,0,0,0,0,.37-.4.98-.55,1.52-.34l.15.06,14.1,5.41s.03.01.03.01c.21.08.35.18.31.45,0,0,0,.02,0,.04-.02.17-.04.33-.04.51,0,1.63,1.01,3.02,2.43,3.58,0,0,0,0,0,0,.51.2.87.72.87,1.3v16.09h1.11v-16.09c0-.58.36-1.09.87-1.3,0,0,0,0,0,0,1.42-.57,2.43-1.96,2.43-3.58,0-.18-.01-.35-.04-.52,0-.02,0-.03,0-.03-.04-.27.1-.36.31-.45,0,0,0,0,.02,0l14.1-5.41.15-.06c.54-.21,1.15-.06,1.52.34,0,0,0,0,0,0,1.04,1.13,2.7,1.57,4.22.99,1.99-.76,2.98-2.99,2.22-4.98"/>
        <path class="cls-1" d="m32,55.23c-3.68,0-7.44-1.62-10.25-3.99-3.39,2.74-6.45,3.83-10.25,3.83-2.15,0-4.24-.43-6.16-1.24v-2.98c1.99,1.02,4.26,1.55,6.16,1.55,3.53,0,8.32-1.81,10.25-5.21,1.93,3.39,6.72,5.21,10.25,5.21s8.32-1.81,10.25-5.21c1.93,3.39,6.73,5.21,10.25,5.21,1.9,0,4.17-.53,6.16-1.55v2.98c-1.92.82-4.01,1.24-6.16,1.24-3.81,0-6.86-1.09-10.25-3.83-2.81,2.37-6.57,3.99-10.25,3.99"/>
        <path class="cls-1" d="m32,56.93c-3.82,0-7.44-1.47-10.25-3.83-2.88,2.38-6.43,3.79-10.25,3.79-2.14,0-4.25-.47-6.17-1.3v2.84c1.92.82,4.01,1.24,6.16,1.24,3.81,0,7.18-1.24,10.25-3.65,2.85,2.46,6.8,3.59,10.25,3.59s7.4-1.14,10.25-3.59c3.08,2.4,6.45,3.65,10.25,3.65,2.15,0,4.24-.42,6.16-1.24v-2.84c-1.92.83-4.03,1.3-6.17,1.3-3.82,0-7.37-1.41-10.25-3.79-2.8,2.36-6.43,3.83-10.25,3.83"/>
        <path class="cls-1" d="m32,64c-3.81,0-7.55-1.08-10.25-3.14-3.08,2.22-6.45,3.14-10.25,3.14-2.15,0-4.13-.28-6.16-1.03v-2.77c1.92.83,4.03,1.34,6.17,1.34,3.82,0,7.37-1.27,10.25-3.65,2.81,2.36,6.43,3.43,10.25,3.43s7.44-1.07,10.25-3.43c2.88,2.38,6.43,3.65,10.25,3.65,2.14,0,4.25-.51,6.17-1.34v2.77c-2.03.75-4.01,1.03-6.16,1.03-3.81,0-7.17-.92-10.25-3.14-2.71,2.06-6.45,3.14-10.25,3.14h0Z"/>
        <path class="cls-1" d="m51.99,26.67c-3.58-.21-7.41.75-10.98,2.97-3.47,2.16-6.01,5.15-7.39,8.3,3.34-1.68,14.45-6.98,24.42-8.58-.97-1.42-3.05-2.52-6.05-2.7"/>
        <path class="cls-1" d="m58.43,30.09c-10.38,1.6-22.16,7.37-24.87,8.75,2.84.91,6.38,1.31,10.17.99,5.29-.44,9.87-2.16,12.6-4.45,2.05-1.68,2.47-3.36,2.29-4.57-.04-.24-.1-.48-.2-.72"/>
        <path class="cls-1" d="m12.02,26.67c3.58-.21,7.41.75,10.98,2.97,3.47,2.16,6.01,5.15,7.39,8.3-3.34-1.68-14.45-6.98-24.42-8.58.97-1.42,3.05-2.52,6.05-2.7"/>
        <path class="cls-1" d="m5.57,30.09c10.38,1.6,22.15,7.37,24.87,8.75-2.84.91-6.38,1.31-10.17.99-5.29-.44-9.87-2.16-12.6-4.45-2.05-1.68-2.47-3.36-2.29-4.57.04-.24.1-.48.2-.72"/>
      </g>
    </g>
  </g>
</svg>