<?xml version="1.0" encoding="UTF-8"?>
<svg id="AC_icons" data-name="AC icons" xmlns="http://www.w3.org/2000/svg" viewBox="0 0 64 64">
  <defs>
    <style>
      .cls-1 {
        fill: #061a2f;
        stroke-width: 0px;
      }
    </style>
  </defs>
  <g id="Informational_icons" data-name="Informational icons">
    <g id="L">
      <g id="lookout">
        <g>
          <path class="cls-1" d="m38.53,30c1.95,0,3-1.57,3-4V9h3.92v-4h-5.01c-.74-1.05-1.95-1.74-3.34-1.75-1.4,0-2.63.69-3.38,1.75h-9.32c-1.6-2.98-4.75-5-8.37-5C10.78,0,6.53,4.25,6.53,9.5s4.25,9.5,9.5,9.5,9.5-4.25,9.5-9.5c0-.17-.02-.33-.03-.5h7.03v11c0,1.29-.6,1-1,1H13.53c-6.7,0-9,3.29-9,10.35v32.65h19v-25c0-7.23,1-9,6-9h9Z"/>
          <circle class="cls-1" cx="36.53" cy="39" r="6"/>
          <path class="cls-1" d="m57.08,47c-.09,0-.19.01-.28.02.03,0,.05-.02.09-.02h-22c-4.21,0-5.36,1.8-5.36,6.07v10.88h11.96v-6.09c-.01-4.39-.25-5.85,3.5-5.92h11.47c.14.03.28.05.42.06h0c1.41.03,2.57-1.09,2.6-2.5,0-1.34-1.06-2.44-2.4-2.5Z"/>
        </g>
      </g>
    </g>
  </g>
</svg>