<?xml version="1.0" encoding="UTF-8"?>
<svg id="AC_icons" data-name="AC icons" xmlns="http://www.w3.org/2000/svg" viewBox="0 0 64 64">
  <defs>
    <style>
      .cls-1 {
        fill: #061a2f;
        stroke-width: 0px;
      }
    </style>
  </defs>
  <g id="Informational_icons" data-name="Informational icons">
    <g id="L">
      <g id="look-after-belongings">
        <g id="Thieves_look_after_your_belongings" data-name="Thieves look after your belongings">
          <path class="cls-1" d="m55.88,24.86c1.42,0,2.56-1.16,2.55-2.58,0-1.42-1.16-2.56-2.58-2.55-1.41,0-2.54,1.15-2.55,2.55,0,1.42,1.13,2.57,2.55,2.58.01,0,.02,0,.03,0Z"/>
          <path class="cls-1" d="m63.33,25.82c-.54-.32-1.24-.23-1.67.24-1.01,1.01-3.17,3.17-3.25,3.24l-3.93-3.91c-.37-.4-.9-.61-1.44-.59h-6.01c-.54-.02-1.05.22-1.38.64-1.44,1.69-2.9,3.36-4.35,5.04-.47.55-.41,1.38.14,1.85,0,0,0,0,0,0,.59.5,1.38.4,1.93-.23,1.19-1.38,2.39-2.75,3.56-4.15.25-.37.68-.56,1.12-.5h1.66l-8.81,10.3c-.09.09-.22.14-.35.14h-5.79c-.85,0-1.76.65-1.76,1.64-.04.91.66,1.68,1.56,1.72.05,0,.1,0,.14,0,2.49,0,4.98,0,7.46-.04.72,0,1.41-.31,1.87-.86.99-1.15,3.55-3.98,3.61-4.07l3.57,3.34c.2.25.32.56.33.88-.02,2.22.02,5.26,0,7.49,0,.26,0,.54.02.81.14.92,1.01,1.55,1.93,1.41.84-.13,1.45-.87,1.43-1.72,0-3.13.03-6.01.02-9.15,0-.7.09-1.26-.44-1.77l-3.44-3.42,3.87-4.5c.29.29,1.88,1.89,2.41,2.41.51.59,1.4.65,1.99.14.12-.09,2.96-2.94,4.25-4.27.15-.15.26-.33.32-.53.2-.6-.05-1.26-.6-1.59Z"/>
          <path class="cls-1" d="m24.34,28.37h-4.07c-.54-2.2-1.15-3.3-1.67-5.58-.65-2.84-2.55-4.45-5.47-4.46H3.78c-.81,1.08-1.23,2.32-1.58,3.41h12.74c.43,0,.7.15.82.52.28.9,1.61,4.84,2.04,6.47.12.43.04.89-.22,1.25-.57.92-1.58,1.48-2.66,1.48H.09c-.12,1.03-.04,1.68-.08,2.74-.1,2.24.84,7.55,1.9,10.59l-.05-.08h16.01v3.08c0,2.32,1.26,2.58,2.32,2.58h1.69c1.26,0,1.74-1.51,1.91-2.55.17-1.04.43-5.37.34-9.11-.04-1.64-.21-3.28-.4-4.91-.13-.78-.31-1.54-.53-2.3l1.08-.19c.98-.18,1.19-.43,1.18-1.44v-.39c-.02-.73-.38-1.11-1.11-1.12Zm-7.83,12.98c-1.52-.03-2.74-1.28-2.71-2.81.03-1.52,1.28-2.74,2.81-2.71,1.51.03,2.71,1.26,2.71,2.77-.01,1.53-1.26,2.76-2.79,2.75,0,0-.01,0-.02,0Z"/>
          <path class="cls-1" d="m42.72,29.4c-.33-.36-.82-.52-1.29-.42-.48.08-.81.36-1.88,1.31-.65.58-1.58.35-2.86.03-.42-.11-.85-.21-1.32-.3-1.55-.29-3.25.59-4.03,1.07l-.53-.54c-.33-.18-.74-.12-1,.15l-3.65,2.45s-1.15.58-.5,1.39c.76.95,4.53,4.61,4.53,4.61,0,0,.64.94,1.54,0,.98-1.02,2.92-3.45,2.92-3.45,0,0,.92-.77-.23-1.69-.1-.08-.21-.17-.32-.27,1.16-1.12,1.53-1,2.47-.68.2.07.43.15.69.22,1.71.49,3.59-.56,3.67-.61l.04-.03c.17-.13,1.66-1.33,1.93-2.11.15-.38.09-.81-.17-1.13Zm-.48.9c-.16.44-1.11,1.32-1.69,1.78-.2.11-1.76.92-3.1.53-.24-.07-.46-.14-.66-.21-1.15-.4-1.76-.52-3.21.87-.57-.52-1.21-1.15-1.73-1.67.75-.44,2.18-1.13,3.4-.9.45.09.87.19,1.29.29,1.37.34,2.56.64,3.48-.18.98-.88,1.26-1.1,1.53-1.15.23-.05.47.02.64.19.09.13.11.31.04.45Z"/>
        </g>
      </g>
    </g>
  </g>
</svg>