<?xml version="1.0" encoding="UTF-8"?>
<svg id="AC_icons" data-name="AC icons" xmlns="http://www.w3.org/2000/svg" viewBox="0 0 64 64">
  <defs>
    <style>
      .cls-1 {
        fill: #061a2f;
        stroke-width: 0px;
      }
    </style>
  </defs>
  <g id="Informational_icons" data-name="Informational icons">
    <g id="L">
      <g id="loop-path">
        <g id="AC">
          <g id="loop_Track" data-name="loop Track">
            <path class="cls-1" d="m58.12,13.66c-4.62-6.6-11.57-11.21-19.46-12.9-1.36-.29-2.73-.5-4.12-.61-.86,0-1.72-.1-2.58-.1v6.06c.7-.02,1.4.01,2.1.09,14.28,1.15,24.92,13.65,23.78,27.93-1.15,14.28-13.65,24.92-27.93,23.78-14.28-1.15-24.92-13.65-23.78-27.93.09-1.12.25-2.24.49-3.34.45-2.17,1.18-4.28,2.17-6.26l4.04,4.09,4.64-17.51L0,11.6l4.38,4.31c-6.23,10.78-5.66,24.2,1.46,34.42,4.84,6.97,12.29,11.71,20.65,13.14,1.84.34,3.72.51,5.59.5,17.66-.03,31.95-14.38,31.92-32.04-.01-6.56-2.04-12.95-5.81-18.32l-.07.06Z"/>
          </g>
        </g>
      </g>
    </g>
  </g>
</svg>