<?xml version="1.0" encoding="UTF-8"?>
<svg id="AC_icons" data-name="AC icons" xmlns="http://www.w3.org/2000/svg" viewBox="0 0 64 64">
  <defs>
    <style>
      .cls-1 {
        fill: #061a2f;
        fill-rule: evenodd;
        stroke-width: 0px;
      }
    </style>
  </defs>
  <g id="Informational_icons" data-name="Informational icons">
    <g id="M">
      <g id="marae">
        <g id="Marae">
          <path class="cls-1" d="m63.84,40.49l-11.31-9.41v-8.17c0-.23-.19-.41-.41-.41h-5.19c-.23,0-.41.18-.41.41v3.17l-12.22-10.2v-3.5c0-.13-.11-.24-.24-.24-.13,0-.24-.11-.24-.24h0v-.51c0-.18.14-.33.33-.33,0,0,0,0,0,0,.18,0,.33-.15.33-.33v-3.4c0-.18-.15-.33-.33-.33h-4.13c-.18,0-.33.14-.33.33,0,0,0,0,0,0v3.4c0,.18.15.33.33.33.18,0,.33.15.33.33v.51c0,.13-.11.24-.24.24-.13,0-.24.11-.24.24h0v3.39l-12.49,10.39v-3.24c0-.23-.18-.41-.41-.41h-5.19c-.11,0-.21.04-.29.12-.08.08-.12.18-.12.29v8.24L.15,40.49c-.17.15-.2.4-.05.58l4.61,5.54c.07.08.18.14.29.15.1,0,.21-.03.29-.09l6.11-5.04v7.9h-3.04c-.23,0-.41.18-.41.41v6.63c0,.23.18.41.41.41h47.22c.23,0,.41-.19.41-.41h0v-6.63c0-.23-.18-.41-.41-.41,0,0,0,0,0,0h-3.03v-7.98l6.17,5.14c.07.06.17.09.27.1.12,0,.24-.06.32-.15l4.61-5.54c.15-.17.13-.44-.04-.59,0,0,0,0-.01-.01Zm-33.71-.74c0-.23-.19-.42-.42-.42h-7.56c-.23,0-.42.19-.42.42h0v9.77h-4.34v-12.9l14.61-12.15,14.52,12.08v12.96h-16.39v-9.76Zm3.67,5.19v-5.19c0-.23.19-.42.42-.42h7.56c.23,0,.42.19.42.42h0v5.19c0,.23-.19.42-.42.42h-7.56c-.23,0-.42-.19-.41-.42h0Z"/>
        </g>
      </g>
    </g>
  </g>
</svg>