<?xml version="1.0" encoding="UTF-8"?>
<svg id="AC_icons" data-name="AC icons" xmlns="http://www.w3.org/2000/svg" viewBox="0 0 64 64">
  <defs>
    <style>
      .cls-1 {
        fill: #061a2f;
        stroke-width: 0px;
      }
    </style>
  </defs>
  <g id="Informational_icons" data-name="Informational icons">
    <g id="M">
      <g id="marine-reserve">
        <g id="Marine_reserve" data-name="Marine reserve">
          <path class="cls-1" d="m51,42.78c-2.4-1.53-7.35-3.91-10,2.17,0,0-7.56,1.76-8,8,0,2.17.87,7.25,9,9.32,11,2.17,17.43-.81,18-6.51s-6.64-11.45-9-12.98Zm1.49,14.91c-3.09,1.12-6.43,1.37-9.65.7-6.67-1.61-8.08-6.84-8.08-6.84l.43-.46c1.58,2.85,4.22,4.98,7.34,5.92,3.26.68,6.65.4,9.75-.81.09.49.15.99.17,1.49h.04Zm-1.49-5.68c-2.97,1.55-6.52,1.52-9.46-.08-1.72-.7-3.02-2.14-3.54-3.92l.62-.32c.96,1.7,2.52,2.98,4.38,3.59,2.86.75,3.81.86,7.78-.1l.22.83Zm-2-4.42c-1.21.74-2.58,1.17-4,1.24-3.25-.39-4-2.5-4-2.5l.49-.18c2.83,3.35,7.09.58,7.09.58l.42.86Z"/>
          <path class="cls-1" d="m8.06,44.42l4.64,10.39.61-.17-4.31-11.23c.86-.55,1.76-1.02,2.71-1.4.52-.17,1.04-.31,1.57-.42l1.92,12.69c.22,0,.44,0,.66-.06l-1-13.08c1.09-.12,2.19-.12,3.28,0,.53.12,1.06.27,1.58.45l-1.91,12.71c.21,0,.43.07.65.11l2.84-12.4c.96.34,1.87.81,2.7,1.4.35.31.69.65,1,1l-4.79,10.43.51.16,5.18-9.84c.52.57.97,1.19,1.36,1.85.16.35.31.71.44,1.08l-5.56,7.4.45.17,5.58-6.65c.27.68.47,1.4.6,2.12v1l-4.77,4.2.48.22,4.52-3.54c.03.58-.03,1.15-.17,1.71-.21.69-.61,1.3-1.17,1.75-.44.34-.92.62-1.43.84h0l-.1.05c-.37.34-2,1.79-1.89,2.75v.2c0,1.09-.78,2.68-1.81,2.68h-11.84c-1,0-1.81-1.52-1.81-2.61,0-.09,0-.17,0-.26.14-1.08-2-2.81-2-2.81l-2.6-2.63c-.13-.55-.19-1.11-.18-1.67.04-.3.09-.6.17-.89l4.74,4.19.44-.2-5.12-5c.13-.72.33-1.42.6-2.1.16-.34.47-.87.47-.87l5.53,7.36.48-.18-5.57-8.31c.39-.67.85-1.29,1.37-1.85.34-.32.95-.74.95-.74"/>
          <path class="cls-1" d="m59.87,18.6c.4-1.14-.08-2.28-1.75-1.38-1.67.9-10.68,6.18-10.68,6.18,0,0-6.94-5.29-13.55-7.16l2.87-2s-7.33-3-13.07.49c-6.03-.04-11.84,2.28-16.18,6.47-4.86,4.8-3.83,8-1.91,9.35s7.89,5.28,15.3,5.93c4.46,2.6,9.09,3.25,15,1.71-2.31-1.87-2.47-2.52-2.47-2.52,4.76-1.37,9.2-3.66,13.07-6.75,4.94,2.6,6.61,3.5,9.32,4.31s4.78,1.22,3.83-.08c-.95-1.3-5.66-5.93-4.06-8,1.62-2.05,3.05-4.24,4.28-6.55Zm-45.87,6.41c-1.1,0-2-.9-2-2s.9-2,2-2,2,.9,2,2-.9,2-2,2Zm6.81,8.38l-1.19-.16c5-8.53.56-15.36.56-15.36h1c7.45,7.84-.37,15.52-.37,15.52Z"/>
          <path class="cls-1" d="m63.89,8.51v-4.38c-.64.38-1.38.55-2.12.5-.93-.04-1.85-.25-2.7-.62h0c-2.41-.86-5.47-2.35-8.43-2.35-1.71,0-5,1.37-7.43,2.35h0c-.95.46-1.96.8-3,1-.96-.19-1.89-.53-2.75-1-2.56-1.07-6.21-2.75-9.46-2.75-2.62,0-5,1.68-7,2.75h0c-.88.61-1.93.96-3,1-1.11-.15-2.2-.49-3.2-1h0c-2.67-1.15-5.8-3-10.34-3C.78,1.01,0,2.14,0,2.14v4.37s1.56-1.5,5.9-1.37c4.34.13,7.46,4,11.91,3.87,4.45-.13,7.78-3.68,10.19-3.62,5.61.12,8.51,3.62,12.29,3.62s7.9-3.37,10.24-3.25c3.58.2,6.79,2.88,11,2.88,3.25-.01,2.36-.13,2.36-.13Z"/>
        </g>
      </g>
    </g>
  </g>
</svg>