<?xml version="1.0" encoding="UTF-8"?>
<svg id="AC_icons" data-name="AC icons" xmlns="http://www.w3.org/2000/svg" viewBox="0 0 64 64">
  <defs>
    <style>
      .cls-1 {
        fill: #061a2f;
        stroke-width: 0px;
      }
    </style>
  </defs>
  <g id="Informational_icons" data-name="Informational icons">
    <g id="M">
      <g id="milking-shed">
        <g id="Milking_shed" data-name="Milking shed">
          <path class="cls-1" d="m0,49V15h10.64l6.36,23.19,6.34-23.19h10.66v34h-6v-27l-7.59,27h-6.84l-7.57-27v27H0Z"/>
          <path class="cls-1" d="m37,37.73l6.53-.63c.21,1.82,1.06,3.51,2.39,4.77,1.38,1.07,3.11,1.61,4.86,1.52,1.74.11,3.46-.38,4.87-1.39,1.01-.74,1.62-1.91,1.64-3.17.02-.73-.22-1.44-.69-2-.67-.67-1.5-1.16-2.42-1.42-.79-.23-2.58-.7-5.37-1.41-3.6-.88-6.12-1.96-7.57-3.25-1.96-1.63-3.08-4.06-3.06-6.61,0-1.68.5-3.31,1.44-4.7,1.02-1.5,2.46-2.66,4.15-3.33,2.08-.8,4.31-1.18,6.54-1.11,4.17,0,7.31.9,9.42,2.71,2.11,1.83,3.3,4.5,3.27,7.29l-6.71.29c-.14-1.4-.8-2.7-1.85-3.64-1.26-.83-2.75-1.22-4.25-1.11-1.61-.09-3.22.32-4.58,1.19-.67.44-1.07,1.2-1.07,2,0,.79.37,1.53,1,2,.85.7,2.9,1.43,6.17,2.2,2.51.49,4.96,1.28,7.29,2.34,1.5.76,2.77,1.91,3.67,3.34,1.86,3.29,1.76,7.33-.26,10.52-1.08,1.66-2.65,2.94-4.49,3.66-2.31.87-4.76,1.28-7.23,1.21-4.2,0-7.43-.96-9.68-2.88-2.25-1.92-3.59-4.72-4.01-8.39Z"/>
        </g>
      </g>
    </g>
  </g>
</svg>