<?xml version="1.0" encoding="UTF-8"?>
<svg id="AC_icons" data-name="AC icons" xmlns="http://www.w3.org/2000/svg" viewBox="0 0 64 64">
  <defs>
    <style>
      .cls-1 {
        fill: #061a2f;
        stroke-width: 0px;
      }
    </style>
  </defs>
  <g id="Informational_icons" data-name="Informational icons">
    <g id="M">
      <g id="motorbike">
        <g id="Motorbike">
          <path class="cls-1" d="m29.69,4.79c2.76,0,5,2.24,5,5s-2.24,5-5,5-5-2.24-5-5,2.24-5,5-5Z"/>
          <path class="cls-1" d="m63.8,46.1c-1.16-5.97-6.94-9.87-12.91-8.71-.02,0-.05,0-.07.01l-6.39-15.14c-.7-1.65-2.52-2.52-4.24-2.02l-7.19,2.08-5.59-6.64c-.64-.83-2.56-2.28-4.73-1.4-1.03.32-1.86,1.1-2.23,2.11.02-.03-3.98,10.74-3.98,10.74l7.22,1.92,3.41-8.25,3.94,4.69c.34.4.83.62,1.35.63.17,0,.33-.02.49-.07l8.29-2.41,1.67,3.95h-15.31c-.37,0-.72.18-.94.48l-.9,1.28,8.27,2.13c1.18.31,1.89,1.52,1.58,2.7,0,.02-.01.04-.02.06l-.64,2.19-2.88,9.88c-.35,1.17-1.57,1.84-2.75,1.5s-1.84-1.57-1.5-2.75l2.89-9.89-12.36-3.19H5.68c-.34,0-.67.15-.88.42l-1.73,2.16c-.39.49-.31,1.2.18,1.59.2.16.45.25.7.25h1.43c1.78-.8,3.7-1.22,5.65-1.22,5.08-.03,9.75,2.8,12.06,7.33.62,1.23,1.03,2.55,1.22,3.92h-2.45c-.46-2.9-2.07-5.49-4.45-7.19-4.93-3.54-11.8-2.41-15.34,2.52C.69,43.7-.04,46.01,0,48.37c.08,5.7,4.77,10.55,10.46,10.83,5.58.27,10.47-3.69,11.38-9.2h14.23c.55,0,1.07-.26,1.41-.7l9.33-12.3.7,1.67c-5.27,3.03-7.08,9.76-4.05,15.02,3.03,5.27,9.76,7.08,15.02,4.05,4.07-2.34,6.21-7.01,5.31-11.63v-.02Zm-46.49,3.88c-.98,3.5-4.61,5.55-8.11,4.58-3.5-.98-5.55-4.61-4.58-8.11.98-3.5,4.61-5.55,8.11-4.58,2.22.62,3.96,2.35,4.58,4.58H7.79v3.53h9.53Zm35.66,4.79c-3.64,0-6.58-2.95-6.58-6.58s2.95-6.58,6.58-6.58,6.58,2.95,6.58,6.58h0c0,3.63-2.94,6.57-6.57,6.58h0Z"/>
        </g>
      </g>
    </g>
  </g>
</svg>