<?xml version="1.0" encoding="UTF-8"?>
<svg id="AC_icons" data-name="AC icons" xmlns="http://www.w3.org/2000/svg" viewBox="0 0 64 64">
  <defs>
    <style>
      .cls-1 {
        fill: #061a2f;
        stroke-width: 0px;
      }
    </style>
  </defs>
  <g id="Informational_icons" data-name="Informational icons">
    <g id="M">
      <g id="motorcross">
        <g id="Trail_bike_riding_motocross" data-name="Trail bike riding motocross">
          <path class="cls-1" d="m22.65,40.44v-.48c0-1.83-.48-3.63-1.39-5.22l5.06-4.2,2.92,6.51c.52,1.13,2.17,1.69,3.15,1.22s1.83-1.63,1.12-3.21c-.71-1.58-3.6-7.93-3.91-8.63s-.61-.97-1.59-1.43-8.02-3.35-8.02-3.35l.41-1.42,11.17,4.47s1.4-2.33,2.03-4.06c.61-1.68,1.02-3.83.77-4.32-.61-1.22-7.79-2.11-9.81-1.47-2.69.83-3.44,2.84-3.44,2.84l1.2-4.36c.41-.61,1.47-.63,1.85-.63.26,0,8.19.02,12.26.02,0,0,.68,1.45,1.64,3.38-4.69,3.07-6,9.36-2.92,14.05,3.07,4.69,9.36,6,14.05,2.92,4.69-3.07,6-9.36,2.92-14.05-2.66-4.06-7.83-5.67-12.33-3.83-.75-1.45-1.32-2.48-1.32-2.48,1.52.06,2.52-.84,2.52-2.32s-1.27-2.24-2.31-2.24h-12.62s.45-2.24,2.13-2.59c.58-.07,1.16-.07,1.74,0,0,0,.26.03.26-1.06,0-1.68-2.31-4.52-5.55-4.52s-5.25,3.01-5.48,4.78c-.19,1.35.38,2.79.38,2.79,0,0-3.41.28-4.93,1.28-.7.41-1.25,1.04-1.55,1.8l-3.6,12.63c-.21.95-.24,1.94-.11,2.91-1.29.11-3.66.9-3.66.9v1.38s2.75-.79,4.21-.96c2.31-.26,5.05-.11,7.62.91,2.09.83,2.64,1.42,2.64,1.42,0,0-.79.69-1.89,1.64-4.68-3.29-11.14-2.17-14.43,2.51-1.23,1.75-1.89,3.84-1.89,5.98v.48c.24,5.72,5.07,10.15,10.79,9.91,5.38-.23,9.68-4.53,9.91-9.91h0Zm17.05-21.12c1.53,3.09,3.08,6.17,3.24,6.44.3.45.88.62,1.38.41.61-.26.61-.97.4-1.37-.13-.26-1.75-3.39-3.31-6.38.73-.25,1.5-.38,2.27-.38,3.74,0,6.78,3.02,6.79,6.76,0,3.74-3.02,6.78-6.76,6.79-3.74,0-6.78-3.02-6.79-6.76,0,0,0-.01,0-.02-.02-2.17,1.02-4.22,2.78-5.49ZM5.55,40.44v-.49c0-3.74,3.02-6.77,6.76-6.77h0c1.09,0,2.17.27,3.13.77-2.25,1.97-4.57,3.96-5.04,4.37-.6.52-.85,1.34-.66,2.11.08.34.23.65.45.93.67.81,1.88,1.06,3.1,0,.17-.15.55-.48,1.09-.93.97-.82,2.43-2.03,4-3.34.43.89.66,1.86.67,2.85v.49c-.27,3.73-3.5,6.53-7.23,6.26-3.36-.24-6.02-2.91-6.26-6.26h-.01Z"/>
          <path class="cls-1" d="m10.29,58.85c15.86,9.91,36.75,5.09,46.66-10.77,3.06-4.9,4.82-10.5,5.11-16.27-2.1.28-4.18.67-6.23,1.17-4.81,1.25-3.84,1.01-6.95,2.29s-4.26,1.56-6.23,2.84-2.38,1.83-2.38,1.83c0,0-1.34-1.1-2.49-1.19s-3.44.46-4.47,1.46l-.42.41-1.65,1.59s-1.71-1.45-5.1.47c-2.57,1.46-3.41,2.38-5.17,4.57s-4.4,4.85-4.4,4.85c0,0-2.7-.68-5.09.6s-2.91.98-3.21,1.16c-.26.15-2.47-.19-4.07.13,1.84,1.84,3.88,3.47,6.08,4.85Z"/>
        </g>
      </g>
    </g>
  </g>
</svg>