<?xml version="1.0" encoding="UTF-8"?>
<svg id="AC_icons" data-name="AC icons" xmlns="http://www.w3.org/2000/svg" viewBox="0 0 64 64">
  <defs>
    <style>
      .cls-1 {
        fill: #061a2f;
        stroke-width: 0px;
      }
    </style>
  </defs>
  <g id="Informational_icons" data-name="Informational icons">
    <g id="M">
      <g id="mountain-biking">
        <g id="Mountain_biking_track" data-name="Mountain biking track">
          <g id="Mountain_biking_track-2" data-name="Mountain biking track-2">
            <path class="cls-1" d="m60.42,60.64c-1.67-1.06-5.38-.35-5.72-.59-1.4-1.48-2.98-2.78-4.7-3.88-1.46-.99-3.35-1.08-4.9-.23-.58-1.18-1.28-2.29-2.1-3.31-2-2.83-4.78-4.83-8.84-7-4.06-2.17-5.85-.59-5.85-.59l-2.39-2.56c-1.39-1.29-3.24-1.97-5.14-1.89-1.08.23-2.08.76-2.87,1.53-.77-.94-1.7-1.74-2.75-2.35-5.9-4.09-15.16-6.58-15.16-6.58v30.29h64c-1.12-1.03-2.32-1.98-3.58-2.84"/>
          </g>
          <g id="Biking_cycling" data-name="Biking cycling">
            <circle class="cls-1" cx="54.29" cy="4.69" r="4.17"/>
            <path class="cls-1" d="m21.77,13.24c-6.09-2.63-13.15.18-15.77,6.26-2.63,6.09.18,13.15,6.26,15.77,6.05,2.61,13.08-.15,15.74-6.19,2.67-6.07-.09-13.15-6.15-15.82-.03-.01-.05-.02-.08-.03Zm-8.51,19.52c-4.69-2.05-6.83-7.5-4.78-12.19,2.05-4.69,7.5-6.83,12.19-4.78,4.69,2.05,6.83,7.5,4.78,12.19,0,0,0,0,0,0-2.05,4.69-7.5,6.83-12.19,4.78Z"/>
            <path class="cls-1" d="m54,27.31l-.38-.14c.08-.27.11-.56.1-.84l-2.62-17.06c-.05-.29-.17-.56-.35-.79-.27-.52-.69-.95-1.19-1.24-.82-.57-1.87-.72-2.82-.42,0,0-10,2.67-11.46,3.23-.93.43-1.65,1.22-2,2.18-.37.85-2,9.23-2,9.23l-2.59,5.94-.69,1.69-.74,1.7-.37.85c-.67,1.24-.22,2.79,1,3.49h0c1.31.46,2.74-.23,3.2-1.53.01-.04.03-.08.04-.12l1.11-2.55c.26,0,11-4.31,11-4.31,2.44-1,1.47-2.8,1.47-2.8l-3.27-8.13,6.93-1.79,1.93,12.45c-6.6-.65-12.47,4.17-13.12,10.77-.65,6.6,4.17,12.47,10.77,13.12,6.6.65,12.47-4.17,13.12-10.77.5-5.13-2.32-10-7.02-12.12l-.05-.04Zm-14.3-4.23l-4.88,1.91s1.08-2.4,1.12-2.51l1-4.61,2.76,5.21Zm5.81,23.75c-4.69-2.04-6.83-7.5-4.79-12.19,2.04-4.69,7.5-6.83,12.19-4.79,4.69,2.04,6.83,7.5,4.79,12.19-2.04,4.69-7.5,6.83-12.19,4.79,0,0,0,0,0,0Z"/>
          </g>
        </g>
      </g>
    </g>
  </g>
</svg>