<?xml version="1.0" encoding="UTF-8"?>
<svg id="AC_icons" data-name="AC icons" xmlns="http://www.w3.org/2000/svg" viewBox="0 0 64 64">
  <defs>
    <style>
      .cls-1 {
        fill: #061a2f;
        stroke-width: 0px;
      }
    </style>
  </defs>
  <g id="Informational_icons" data-name="Informational icons">
    <g id="M">
      <g id="music">
        <g>
          <path class="cls-1" d="m43.48,11.96c-1.29-1.1-3.24-.95-4.35.33-.48.55-.75,1.26-.74,2h.04c0,.9.4,1.75,1.08,2.33.96.8,1.84,1.68,2.64,2.64,7.05,8.5,5.87,21.11-2.64,28.16-.01,0-.02.02-.03.03-1.27,1.11-1.4,3.03-.3,4.3,1.12,1.28,3.06,1.42,4.36.32,1.22-1.02,2.35-2.15,3.36-3.37,9.2-11.09,7.67-27.53-3.42-36.73Z"/>
          <path class="cls-1" d="m51.77,4.85c-1.27-1.14-3.21-1.05-4.37.2-.52.56-.81,1.3-.81,2.06,0,.86.36,1.69,1,2.26.91.81,1.78,1.67,2.58,2.58,11.09,12.47,9.96,31.57-2.51,42.66-.01,0-.02.02-.03.03-1.23,1.15-1.3,3.08-.16,4.31,1.16,1.26,3.12,1.34,4.38.19,1.06-.94,2.06-1.95,3.01-3.01,13.31-15.01,11.93-37.97-3.08-51.28Z"/>
          <polygon class="cls-1" points="46.59 7.12 46.59 7.11 46.59 7.11 46.59 7.12"/>
          <path class="cls-1" d="m35.11,18.96c-1.38-.99-3.3-.69-4.31.68-.39.52-.59,1.15-.59,1.8h.03c0,.99.48,1.91,1.28,2.49.98.68,1.83,1.53,2.51,2.51,3.09,4.48,1.97,10.61-2.51,13.7,0,0-.01,0-.02.01-1.36,1-1.66,2.91-.66,4.28,1.01,1.37,2.93,1.67,4.31.67,4.24-2.99,6.77-7.86,6.78-13.05-.04-5.2-2.58-10.07-6.82-13.09Z"/>
          <polygon class="cls-1" points="0 18.96 0 44.95 13.44 44.95 26 57.05 26 6.95 13.54 18.96 0 18.96"/>
        </g>
      </g>
    </g>
  </g>
</svg>