<?xml version="1.0" encoding="UTF-8"?>
<svg id="AC_icons" data-name="AC icons" xmlns="http://www.w3.org/2000/svg" viewBox="0 0 64 64">
  <defs>
    <style>
      .cls-1 {
        fill: #061a2f;
        stroke-width: 0px;
      }
    </style>
  </defs>
  <g id="Informational_icons" data-name="Informational icons">
    <g id="N">
      <g id="native-bush">
        <g>
          <path class="cls-1" d="m50,47.95v-5.95h3.66c3-.08,5.34-2.22,5.34-4.87v-.46c-.01-.6-.2-1.18-.55-1.67-.68-1.19-1.78-2.07-3.09-2.46.56-.76.87-1.68.87-2.63.06-2.33-1.79-4.26-4.12-4.32,0,0,0,0,0,0,0-4.2-1.84-7.61-4.12-7.61s-4.12,3.41-4.12,7.61c-2.33.05-4.17,1.99-4.12,4.32,0,0,0,0,0,0,0,.95.31,1.87.87,2.63-1.3.4-2.4,1.28-3.07,2.46-.35.49-.54,1.07-.55,1.67v.46c0,2.69,2.46,4.87,5.5,4.87h3.5v8.64c-8.14,5.84-14.22,12.36-14.22,12.36h32.22v-21c-4.68.84-9.53,3.16-14,5.95Z"/>
          <path class="cls-1" d="m24,41.12v-8.12h5.72c4-.1,7.28-3,7.28-6.49v-.39h0v-.22c-.02-.8-.28-1.57-.75-2.21-.94-1.6-2.46-2.77-4.25-3.28.77-1.01,1.19-2.24,1.19-3.51.04-3.14-2.47-5.72-5.61-5.76.03-5.6-2.48-10.14-5.58-10.14s-5.61,4.54-5.61,10.15c-3.14.04-5.65,2.62-5.61,5.76.01,1.27.44,2.5,1.22,3.5-1.77.51-3.27,1.68-4.21,3.27-.49.64-.76,1.41-.79,2.21v.61c0,3.59,3.36,6.5,7.5,6.5h5.5v6.71c-6.77-2.24-13.62-3.71-20-3.71v27h27l2.27-2.48c3.89-4.05,8.09-7.78,12.57-11.17-5.46-2.94-11.56-5.87-17.84-8.23Z"/>
        </g>
      </g>
    </g>
  </g>
</svg>