<?xml version="1.0" encoding="UTF-8"?>
<svg id="AC_icons" data-name="AC icons" xmlns="http://www.w3.org/2000/svg" viewBox="0 0 64 64">
  <defs>
    <style>
      .cls-1 {
        fill: #061a2f;
        stroke-width: 0px;
      }
    </style>
  </defs>
  <g id="Informational_icons" data-name="Informational icons">
    <g id="N">
      <g id="netball">
        <g id="Netball">
          <g>
            <path class="cls-1" d="m21.56,1.78C8.95,6.13.35,17.86,0,31.21c4.24,2.19,8.94,3.35,13.71,3.41-.57-11.47,2.16-22.87,7.86-32.84Z"/>
            <path class="cls-1" d="m32,0c-1.62.01-3.23.15-4.83.4-1.88,3.04-11.12,19.14-9.2,33.97,4.16-.56,8.19-1.84,11.91-3.78.36-4.76,2.46-18.87,14.19-28.2C40.24.81,36.14,0,32,0Z"/>
          </g>
          <g>
            <path class="cls-1" d="m63.46,37.84c2.43-13.13-3.55-26.39-15.01-33.25-3.91,2.52-7.2,5.89-9.62,9.87,10.29,5.25,18.85,13.37,24.63,23.38Z"/>
            <path class="cls-1" d="m36.87,18.28c-1.57,3.71-2.49,7.66-2.71,11.68,2.06,1.35,15.48,10.63,17.74,27.08,4.5-3.57,7.97-8.28,10.03-13.65-1.83-3.27-11.18-19.45-25.06-25.11Z"/>
          </g>
          <g>
            <path class="cls-1" d="m40.78,41.4c-2.36-2.86-5.15-5.35-8.26-7.37-1.1.59-16.3,8.39-32.27,2.07.73,5.74,3,11.18,6.58,15.72,3.4-.03,22.34-.69,33.95-10.42Z"/>
            <path class="cls-1" d="m43.27,44.88c-9.6,6.75-20.96,10.54-32.69,10.91,10.23,9.22,25.2,10.84,37.16,4.03-.18-5.28-1.72-10.43-4.47-14.94Z"/>
          </g>
        </g>
      </g>
    </g>
  </g>
</svg>