<?xml version="1.0" encoding="UTF-8"?>
<svg id="AC_icons" data-name="AC icons" xmlns="http://www.w3.org/2000/svg" viewBox="0 0 64 64">
  <defs>
    <style>
      .cls-1 {
        fill: #061a2f;
        stroke-width: 0px;
      }
    </style>
  </defs>
  <g id="Informational_icons" data-name="Informational icons">
    <g id="N">
      <g id="nzsl">
        <g>
          <path class="cls-1" d="m5.09,25.33c-.7.05-1.34.36-1.8.89-.95,1.09-.84,2.74.23,3.68l11.78,11.8v-9.87s0-.04,0-.04l-8.35-5.83c-.52-.45-1.18-.68-1.87-.63Z"/>
          <path class="cls-1" d="m47.34,17.69h.05s.82-3.7.82-3.7c.28-1.24-.79-2.51-1.9-2.77-.58-.14-1.09.09-1.41.3-.54.35-.96.92-1.05,1.41l-2.45,8.75,2.15-2.18c.99-1.06,2.33-1.71,3.77-1.82Z"/>
          <path class="cls-1" d="m18.54,23.36c.68-.33,1.4-.52,2.16-.57.13,0,.26-.01.39-.01,2.96,0,5.44,2.2,5.75,5.13l1.29,7.18,1.65-1.71,2.63-2.59,7.31-7.41.02-.02,1.57-15.89c.14-1.33-.78-2.53-2.06-2.69-.6-.07-1.2.1-1.68.48-.51.4-.82.99-.89,1.65l-2.37,14.74c-.23-.06-.4-.14-.57-.21-.21-.09-.43-.19-.77-.26l-.46-18.55c0-1.42-1.09-2.6-2.46-2.62-.64-.01-1.25.23-1.71.68-.49.48-.77,1.14-.77,1.84l-.94,18.46-1.31.03-2.17-16.2c-.08-1.42-1.25-2.53-2.6-2.47-.64.03-1.23.3-1.67.78-.46.51-.7,1.18-.66,1.89l.23,16.42v1.98s.1-.05.1-.05Z"/>
          <path class="cls-1" d="m61.35,46.15c0-.09-.02-.17-.04-.27-.03-.18-.09-.36-.16-.53-.03-.06-.05-.11-.08-.16l-.02-.03s-.02-.04-.03-.06c-.04-.06-.09-.12-.14-.19-.01-.01-.02-.02-.04-.04l-.02-.02s-.07-.07-.11-.11c-.02-.02-.04-.03-.07-.05-.04-.03-.08-.06-.12-.08-.02-.02-.05-.03-.08-.05-.04-.02-.09-.05-.13-.07h-.02s-.04-.03-.05-.03c-.05-.02-.11-.04-.16-.06h-.02s-.02-.02-.03-.02c-.07-.02-.15-.04-.22-.05-.01,0-.02,0-.03,0h-.02c-.06-.01-.12-.02-.18-.03-.02,0-.04,0-.06,0h-.02s-.1,0-.15,0h-.01s-.05,0-.07,0h-.09s-.1,0-.14.01h-.04c-.06.01-.12.02-.18.03h-.04s-.09.03-.13.04l-.06.02s-.07.02-.11.04c-.02,0-.04.01-.06.02-.03.01-.07.03-.1.04l-.05.02s-.09.05-.12.07l-9.79,5.43s0-.03-.01-.05c-.01-.05-.03-.09-.04-.14-.03-.1-.07-.2-.1-.3l-.19-.54,12.17-9.84c.12-.1.24-.21.34-.33.1-.12.19-.24.26-.38.04-.07.07-.13.1-.2.03-.07.06-.14.08-.21.05-.14.08-.29.1-.43,0-.07.02-.15.02-.22,0-.15,0-.29-.03-.44-.06-.37-.22-.73-.45-1.02-.05-.06-.1-.12-.16-.18-.01-.01-.02-.02-.04-.03l-.02-.02s-.08-.07-.12-.11c-.02-.01-.04-.03-.05-.04l-.02-.02s-.08-.06-.12-.08c-.03-.02-.05-.03-.08-.05-.04-.02-.08-.05-.12-.07-.03-.01-.06-.03-.09-.04-.04-.02-.08-.04-.13-.05-.03-.01-.06-.02-.09-.03-.04-.01-.09-.03-.14-.04h-.02s-.05-.02-.07-.02c-.05,0-.1-.02-.15-.02h-.03s-.04,0-.06-.01c-.06,0-.12,0-.19,0h-.02s-.02,0-.03,0c-.01,0-.02,0-.03,0h-.02c-.06,0-.11,0-.17,0-.02,0-.03,0-.05,0h-.02s-.09.01-.14.02c-.03,0-.05.01-.08.02-.04,0-.08.02-.13.03-.03,0-.06.02-.09.03-.04.01-.08.03-.12.04-.03.01-.06.02-.08.03-.04.02-.08.04-.12.06h-.02s-.04.03-.06.04c-.04.02-.09.05-.13.08h-.02s-.03.03-.04.04c-.07.04-.13.09-.18.13l-11.83,8.42s-.01-.02-.02-.03c-.05-.08-.09-.16-.13-.25-.04-.08-.07-.16-.1-.23v-.03c-.08-.17-.15-.34-.27-.55-.02-.03-.04-.06-.06-.1-.01-.02-.02-.04-.03-.05l12.5-12.95c.31-.3.54-.68.67-1.1.02-.06.03-.11.05-.17.05-.23.07-.47.06-.7-.02-.32-.1-.62-.24-.9-.07-.14-.16-.28-.26-.4-.05-.06-.1-.13-.17-.19-.06-.06-.12-.11-.17-.16-.01-.01-.03-.02-.04-.03l-.04-.03s-.07-.05-.11-.08c-.02-.01-.03-.02-.05-.03l-.05-.03s-.06-.04-.1-.06c-.02-.01-.04-.02-.06-.03l-.06-.03s-.06-.03-.09-.04c-.02,0-.04-.02-.06-.02l-.06-.02s-.06-.02-.09-.03c-.02,0-.05-.01-.07-.02l-.06-.02s-.06-.02-.09-.02c-.02,0-.05,0-.07-.01h-.07s-.06-.02-.09-.02c-.02,0-.05,0-.07,0h-.07s-.05,0-.08,0c-.03,0-.07,0-.1,0h-.07s-.05,0-.08,0c-.03,0-.06,0-.09.01h-.07s-.05.02-.08.02c-.03,0-.06.01-.1.02l-.07.02s-.05.01-.07.02c-.03,0-.06.02-.09.03l-.07.02s-.05.02-.07.02c-.03.01-.06.03-.09.04l-.07.03s-.04.02-.06.03c-.03.02-.07.04-.1.06l-.06.04s-.04.02-.06.03c-.04.03-.08.06-.12.09l-.04.03s-.03.02-.04.03c-.07.05-.13.11-.19.17l-13.41,11.93-.92-.87,9.69-12.51c.06-.06.11-.13.16-.2.2-.27.34-.56.43-.88.04-.15.07-.31.08-.47,0-.08,0-.16,0-.24,0-.08,0-.16-.02-.23-.03-.24-.09-.46-.19-.68-.1-.22-.23-.42-.39-.6-.05-.06-.11-.12-.17-.17-.06-.05-.12-.1-.18-.15-.01,0-.03-.02-.04-.03l-.02-.02s-.09-.06-.13-.09c-.02-.01-.04-.02-.05-.03h-.02s-.08-.06-.12-.08c-.02-.01-.05-.02-.07-.03h-.02s-.08-.04-.12-.06c-.03-.01-.06-.02-.09-.03-.04-.01-.08-.02-.13-.04-.03,0-.06-.01-.09-.02-.04,0-.09-.02-.13-.02-.03,0-.06,0-.09-.01-.04,0-.09,0-.13,0h-.02s-.05,0-.09,0c-.02,0-.04,0-.07,0h-.03s-.09,0-.14,0c-.03,0-.07,0-.11.01-.05,0-.09.01-.14.02-.04,0-.07.01-.11.02-.05.01-.09.02-.14.04-.03.01-.07.02-.1.03-.05.02-.09.03-.15.06-.03.01-.06.02-.09.04-.05.02-.09.04-.13.07h-.02s-.05.04-.07.05l-.04.02s-.04.03-.06.04l-.05.04s-.04.03-.06.04c-.05.03-.09.07-.14.11l-.02.02s-.03.02-.04.03c-.07.06-.13.12-.19.19l-11.19,11.34-2.59,2.54-6.04,6.27-2.44-13.55c0-.08-.02-.16-.03-.25,0-.02,0-.03-.01-.05v-.05s-.03-.1-.04-.14c0-.02-.01-.04-.02-.06l-.02-.05s-.03-.08-.04-.12c0-.02-.02-.04-.03-.07l-.02-.04s-.03-.07-.05-.11c-.01-.02-.02-.04-.04-.06l-.02-.04s-.04-.07-.06-.1c-.01-.02-.03-.04-.04-.06l-.02-.03s-.05-.07-.07-.1c-.02-.02-.04-.04-.05-.07v-.02s-.07-.07-.1-.1c-.02-.02-.04-.04-.07-.07h-.01s-.06-.07-.09-.1c-.03-.02-.06-.05-.08-.07-.03-.03-.07-.05-.1-.08-.03-.02-.06-.04-.09-.06-.04-.02-.07-.05-.11-.07-.03-.02-.06-.04-.1-.05-.04-.02-.08-.04-.12-.06-.03-.02-.07-.03-.1-.05-.04-.02-.08-.03-.12-.05-.04-.01-.07-.02-.11-.04-.04-.01-.08-.02-.13-.04-.04,0-.07-.02-.11-.03-.04,0-.09-.02-.13-.02-.04,0-.08-.01-.11-.02-.04,0-.09,0-.14-.01-.04,0-.07,0-.11,0h-.02c-.07,0-.14,0-.21,0-.09,0-.17.02-.26.03-.25.04-.49.12-.72.23-.15.07-.29.16-.42.26-.24.19-.45.41-.61.67-.28.44-.41.95-.37,1.47l-.02,18.11s.02,1.09.22,2.66c.01.11.03.21.04.32.02.12.03.24.05.37.06.4.13.8.2,1.18.07.38.15.76.24,1.13.09.4.2.8.3,1.18.06.2.12.4.18.6.06.2.13.4.2.6.99,2.89,2.42,5.03,4.22,6.37l.11.11.05-.05-.03.07.07.06s.04.04.08.07c.03.02.05.05.08.07l.14.12s.07.06.11.09h.01s.08.07.12.1l.04.03s.06.05.1.07l.05.04s.09.07.15.11h.01s.1.08.15.11l.06.04s.08.05.12.08l.06.04c.06.04.11.07.17.11h.02c.06.05.12.09.19.12l.07.04s.1.06.16.09l.06.03c.07.04.14.07.21.11h.02c.07.05.15.08.22.12l.08.04c.06.03.12.05.18.08l.08.04c.08.04.16.07.25.1h.02c.09.04.17.07.26.11l.09.03c.07.02.14.05.2.07l.09.03c.09.03.19.06.28.09h.01c.1.03.2.06.3.09l.09.02c.08.02.15.04.23.06l.1.02c.11.02.21.05.33.07.11.02.22.04.34.06l.1.02c.08.01.17.02.26.03h.1c.24.04.48.06.73.07h.11c.09,0,.19,0,.28,0h.07s.14,0,.14,0c.1,0,.19,0,.29,0,.1,0,.19,0,.29-.02h.08c.1-.01.2-.02.3-.03.1,0,.2-.02.31-.04h.07c.1-.02.2-.04.32-.05.1-.02.21-.03.31-.05l.08-.02c.1-.02.21-.04.33-.07.11-.02.21-.05.32-.07l.09-.02c.11-.03.22-.06.34-.09.11-.03.22-.06.33-.1l.09-.03c.11-.03.22-.07.33-.11h.02c.11-.04.23-.08.35-.13l.08-.03c.12-.04.23-.09.36-.14.12-.05.23-.1.35-.15l.09-.04c.12-.05.24-.11.37-.17.12-.06.24-.11.36-.17l.1-.05c.12-.06.25-.12.38-.19.12-.07.25-.14.38-.21l.1-.05c.13-.07.26-.15.39-.22.13-.08.26-.16.39-.24l.1-.06c.13-.08.26-.17.39-.25l7.05-4.26s.05-.02.12-.07c.07-.04.14-.09.22-.14.03-.02.06-.04.08-.06l13.38-8.38c.34-.21.6-.54.77-.96.09-.23.15-.48.17-.74.01-.15.01-.29,0-.44Zm-37.1,15.02h0s0,0,0,0h0Zm2.32,1.63h0,0s0,0,0,0Zm1.75.7h0,0s0,0,0,0Z"/>
        </g>
      </g>
    </g>
  </g>
</svg>