<?xml version="1.0" encoding="UTF-8"?>
<svg id="AC_icons" data-name="AC icons" xmlns="http://www.w3.org/2000/svg" viewBox="0 0 64 64">
  <defs>
    <style>
      .cls-1 {
        fill: #061a2f;
        stroke-width: 0px;
      }
    </style>
  </defs>
  <g id="Informational_icons" data-name="Informational icons">
    <g id="O">
      <g id="orienteering">
        <g id="Orienteering_cross_country_running_multi_sport_endurance_sport." data-name="Orienteering cross country running multi sport endurance sport.">
          <g>
            <path class="cls-1" d="m31.08,10.73c0-.47-.05-.94-.13-1.41h.05l1.92,3.68h2.08v-7h-2.08v2.1c.02.6.08,1.19.18,1.78h-.1l-1.91-3.88h-2.09v7h2.08v-2.27Z"/>
            <path class="cls-1" d="m13.6,28l-.6,2.95c-.08.41-.13.82-.16,1.23h0l-.96-4.18h-1.76l-.68,2.89c-.09.43-.16.86-.19,1.29h-.05l-.81-4.18h-2.39l2.23,7h2l.64-2.74c.07-.35.11-.7.12-1.06h0l.73,3.8h2l2.27-7h-2.4Z"/>
            <path class="cls-1" d="m32,61c-16.02,0-29-12.99-28.99-29.01,0-16.02,12.99-29,29.01-28.99,16.02,0,29,12.99,28.99,29.01,0,3.08-.49,6.14-1.46,9.07-3.92,11.89-15.03,19.92-27.55,19.92m0-61C14.33,0,0,14.33,0,32s14.33,32,32,32,32-14.33,32-32S49.67,0,32,0"/>
            <polygon class="cls-1" points="55.15 32.04 58 32.04 58 30.69 55.15 30.69 55.15 29.34 57.99 29.34 57.99 28 53 28 53 35 58 35 58 33.41 55.15 33.41 55.15 32.04"/>
          </g>
          <path class="cls-1" d="m32.72,15.09c-1.88.44-3.06,2.31-2.62,4.2.44,1.88,2.31,3.06,4.2,2.62,1.88-.43,3.05-2.31,2.62-4.19-.44-1.88-2.31-3.06-4.2-2.63"/>
          <path class="cls-1" d="m44.28,30.45l-4.77.19c-.69,0-.86,0-1.27-.93-.1-.25-1.69-4-1.88-4.62-.35-.85-1.03-1.53-1.88-1.88-2.3-.71-4.24.46-5.31,1.1s-6.44,4.21-7,4.6c-1,.66-1.58,1.15-.69,2.51l5.52,8.58-.16,4.82c0,.52-.16.6-.37.64s-7.59.64-8,.68c-.85.06-1.5.78-1.47,1.63.07.92.79,1.65,1.7,1.73.72,0,9.42-.73,10.08-.79.62-.09,1.11-.57,1.22-1.18.06-.37,1-6.53,1-6.53,0,0,5.93,2.78,6.18,3,.24.13.38.4.35.67v8.61c.03.95.79,1.7,1.74,1.72.96,0,1.73-.78,1.73-1.74v-10.07c0-.78-.43-1.49-1.11-1.87-.3-.18-5.89-3.32-5.89-3.32l.67-8.2s1.6,3.24,1.81,3.66c.15.34.52.53.89.46l6.93-.18c.9.04,1.66-.66,1.7-1.55,0-.06,0-.12,0-.19-.03-.89-.78-1.58-1.67-1.55-.02,0-.04,0-.05,0Zm-16.87,4.89s-1.81-3.6-2-3.87-.38-.66.44-1.16l2.15-1.31-.59,6.34Z"/>
        </g>
      </g>
    </g>
  </g>
</svg>