<?xml version="1.0" encoding="UTF-8"?>
<svg id="AC_icons" data-name="AC icons" xmlns="http://www.w3.org/2000/svg" viewBox="0 0 64 64">
  <defs>
    <style>
      .cls-1 {
        fill: #061a2f;
        stroke-width: 0px;
      }
    </style>
  </defs>
  <g id="Informational_icons" data-name="Informational icons">
    <g id="P">
      <g id="paragliding">
        <g>
          <path class="cls-1" d="m55.38,17.07c.62-.79-.93-4.7-5.38-9.26C45.28,2.72,38.63-.12,31.69,0c-6.84-.06-13.37,2.84-17.91,7.96-4.63,4.99-5.95,8.89-5,9.69.25.21.53.31.87.31l9.16,9.81c-.28.54-.15,1.38.69,2.23,1,1.14,5.58,5.54,8,8v9.54l-15.13,10.51c-.51.16-.94.26-1.24.28-.3.03-.52.29-.5.59.03.28.26.5.54.5.02,0,.03,0,.05,0,2.28-.2,10.31-3.75,16.27-9.73v12.82c0,.83.67,1.5,1.5,1.5s1.5-.67,1.5-1.5v-12.5c0-.55.45-1,1-1s1,.45,1,1v12.5c0,.83.67,1.5,1.5,1.5s1.5-.67,1.5-1.5v-24.07h.03v-.46c2.36-2.39,6.97-6.8,7.97-7.97.74-.74.93-1.47.78-2.01l10.42-10.42c.26-.11.5-.26.68-.5Zm-20.14,16.93h-7.47l-6.26-6c-.63-.63-1.25-.86-1.76-.82l-8.81-9.44c.97-.29,2.31-.83,4.33-1.53,5.7-1.85,11.66-2.77,17.66-2.75h-.03c5.27-.19,10.53.65,15.49,2.46,1.66.67,3.35,1.46,4.71,1.72l-9.58,9.58c-.54-.15-1.27.04-2.01.78l-6.26,6Z"/>
          <circle class="cls-1" cx="31.5" cy="30" r="3"/>
        </g>
      </g>
    </g>
  </g>
</svg>