<?xml version="1.0" encoding="UTF-8"?>
<svg id="AC_icons" data-name="AC icons" xmlns="http://www.w3.org/2000/svg" viewBox="0 0 64 64">
  <defs>
    <style>
      .cls-1 {
        fill: #061a2f;
        stroke-width: 0px;
      }
    </style>
  </defs>
  <g id="Informational_icons" data-name="Informational icons">
    <g id="P">
      <g id="park-and-ride">
        <g id="Park_and_ride" data-name="Park and ride">
          <path class="cls-1" d="m37.05,50.76l-4.76-.04v-4.74c0-.64-.52-1.16-1.16-1.16h-2.11c-.64,0-1.16.52-1.16,1.16h0l-.04,4.79h-4.77c-.64,0-1.16.52-1.16,1.16v2.11c0,.64.52,1.16,1.16,1.16l4.82.04v4.75c0,.64.51,1.16,1.15,1.16,0,0,0,0,0,0h2.11c.64,0,1.16-.52,1.16-1.16l.04-4.79h4.72c.64,0,1.16-.52,1.16-1.16v-2.11c0-.64-.52-1.16-1.16-1.16Z"/>
          <path class="cls-1" d="m58.7,62.4l-3.87-7.08c-.14-.27-.05-.6.22-.74.01,0,.03-.01.04-.02,1.44-.61,3.55-1.88,3.55-5.6.03-1.7-.53-3.36-1.59-4.7-1.84-2.09-4.44-2.12-6.54-2.16h-8.43c-.3,0-.55.25-.55.55v20c0,.31.25.56.56.56,0,0,0,0,0,0h3.9c.3,0,.55-.25.55-.55v-6.42c0-.31.25-.56.56-.56h2.25c.21,0,.4.12.5.3l3.65,6.94c.1.18.29.3.49.3h4.24c.31-.02.54-.28.53-.59,0-.08-.03-.16-.07-.24Zm-8.04-10.63h-3.59c-.3,0-.55-.25-.55-.55v-4.6c0-.31.25-.56.56-.56h3.72c1.05.03,2.87.12,2.87,2.81s-2.29,2.87-3,2.9h-.01Z"/>
          <path class="cls-1" d="m47.86,4.95C44.09,1.65,39.04,0,32.7,0H6.47C5.79,0,5.23.56,5.23,1.24v61.51c0,.69.56,1.24,1.24,1.24h10.8c.68,0,1.24-.56,1.24-1.24,0,0,0,0,0,0v-20.53c0-.68.56-1.24,1.24-1.24,0,0,0,0,0,0h12.08c6.95,0,12.3-1.56,16.05-4.69,3.75-3.13,5.62-8.47,5.62-16.02,0-6.92-1.89-12.02-5.65-15.33Zm-10.18,22.71c-1.69,1.54-4.06,2.3-7.12,2.3h-10.81c-.69,0-1.24-.56-1.24-1.24h0V12.36c0-.69.56-1.24,1.24-1.24h10.81c3.05,0,5.43.71,7.12,2.13,1.69,1.42,2.54,3.79,2.54,7.12,0,3.33-.85,5.76-2.54,7.29Z"/>
        </g>
      </g>
    </g>
  </g>
</svg>