<?xml version="1.0" encoding="UTF-8"?>
<svg id="AC_icons" data-name="AC icons" xmlns="http://www.w3.org/2000/svg" viewBox="0 0 64 64">
  <defs>
    <style>
      .cls-1 {
        fill: #061a2f;
        stroke-width: 0px;
      }
    </style>
  </defs>
  <g id="Informational_icons" data-name="Informational icons">
    <g id="P">
      <g id="park">
        <g id="Park">
          <path class="cls-1" d="m43.64,54.55c0,.51-.41.92-.92.93h-3.26v7.19c0,.61-.67,1.09-1.46,1.09s-1.46-.49-1.46-1.09v-7.19H9.78v7.43c0,.6-.67,1.09-1.46,1.09s-1.46-.49-1.46-1.09v-7.43h-3.43c-.51,0-.92-.42-.93-.93v-3.34h41.14l-.02,3.34Z"/>
          <rect class="cls-1" x="2.52" y="46.32" width="41.13" height="3.11"/>
          <path class="cls-1" d="m43.64,44.54H2.52v-3.17c0-.51.42-.92.93-.92h39.28c.51,0,.92.41.92.92v3.17Z"/>
          <path class="cls-1" d="m51.7,44.83l-.04,14.58c.18.85-.95,2.07-3.01,2.07s-3.09-1.4-2.94-2.07v-4.53c0-.11.03-.21.03-.33v-13.18c0-1.66-1.35-3.01-3.01-3.01h-5.94c-3.65-9.76,3.08-27.9,11.43-38.04.07-.23.31-.37.54-.3.15.04.26.16.3.3,11.43,13.88,19.81,42.7,2.64,44.51Z"/>
        </g>
      </g>
    </g>
  </g>
</svg>