<?xml version="1.0" encoding="UTF-8"?>
<svg id="AC_icons" data-name="AC icons" xmlns="http://www.w3.org/2000/svg" viewBox="0 0 64 64">
  <defs>
    <style>
      .cls-1 {
        fill: #061a2f;
        stroke-width: 0px;
      }
    </style>
  </defs>
  <g id="Informational_icons" data-name="Informational icons">
    <g id="P">
      <g id="parking">
        <path id="Parking" class="cls-1" d="m40.24,27.66c-2.05,1.65-4.64,2.49-7.27,2.34h-10c-1.09-.04-1.96-.91-2-2v-15c.04-1.09.91-1.96,2-2h10c2.61-.12,5.18.67,7.27,2.24,1.69,1.42,2.53,3.79,2.53,7.12s-.84,5.76-2.53,7.29m10.11-22.7c-3.74-3.3-8.76-4.95-15.06-4.95H9.86c-1.05,0-1.89.85-1.89,1.9v60.2c0,1.04.84,1.89,1.88,1.9,0,0,0,0,.01,0h9.43c1-.07,1.76-.94,1.68-1.95,0-.02,0-.04,0-.05v-19c.1-1.1,1-1.96,2.1-2h11.36c6.91,0,12.25-1.56,16-4.69,3.75-3.13,5.62-8.46,5.59-16-.03-6.94-1.92-12.06-5.67-15.36"/>
      </g>
    </g>
  </g>
</svg>