<?xml version="1.0" encoding="UTF-8"?>
<svg id="AC_icons" data-name="AC icons" xmlns="http://www.w3.org/2000/svg" viewBox="0 0 64 64">
  <defs>
    <style>
      .cls-1 {
        fill: #061a2f;
        stroke-width: 0px;
      }
    </style>
  </defs>
  <g id="Informational_icons" data-name="Informational icons">
    <g id="P">
      <g id="partnership">
        <g id="Layer_2" data-name="Layer 2">
          <path class="cls-1" d="m2.52,16.58c.11,4.29,3.68,7.69,7.98,7.58,4.14-.11,7.47-3.44,7.58-7.58H2.52Z"/>
          <circle class="cls-1" cx="51.07" cy="16.58" r="7.77"/>
          <path class="cls-1" d="m62.59,57.39l-2.75-23.13c0-4.85-3.93-8.77-8.77-8.77,0,0-.02,0-.03,0-3.59,0-6.68,2.17-8.03,5.26l-12.33,12.33-10.68-10.68c-1.41-4.02-5.22-6.9-9.71-6.91-5.68.01-10.28,4.62-10.3,10.3v21.61h20.59v-16.77l6.27,6.27-1.62,1.62c-1.05,1.05-1.05,2.76,0,3.82.53.53,1.22.79,1.91.79s1.38-.26,1.91-.79l1.62-1.62,1.62,1.62c.53.53,1.22.79,1.91.79s1.38-.26,1.91-.79c1.05-1.05,1.05-2.76,0-3.82l-1.62-1.62,7.24-7.24-1.74,17.74h22.59Z"/>
          <path class="cls-1" d="m21.94,12.72h-4.04c-.75-3.43-3.76-6.01-7.4-6.1-3.79-.1-7.01,2.53-7.79,6.1h0c-.19.8-.25,1.63-.18,2.45h19.41c.62-.04,1.11-.53,1.15-1.15.04-.68-.47-1.26-1.15-1.31Z"/>
          <path class="cls-1" d="m62.71,24.61c-.71,0-1.29-.58-1.29-1.29,0-1.14-.68-2.17-1.74-2.62-.66-.28-.96-1.03-.69-1.69.28-.66,1.03-.96,1.69-.69,2.01.85,3.31,2.81,3.31,4.99,0,.71-.58,1.29-1.29,1.29h0Z"/>
          <path class="cls-1" d="m39.48,24.61c-.71,0-1.29-.58-1.29-1.29,0-2.18,1.3-4.14,3.31-4.99.66-.28,1.41.03,1.69.69.28.66-.03,1.41-.69,1.69-1.05.44-1.73,1.47-1.73,2.61,0,.71-.58,1.29-1.29,1.29Z"/>
        </g>
      </g>
    </g>
  </g>
</svg>