<?xml version="1.0" encoding="UTF-8"?>
<svg id="AC_icons" data-name="AC icons" xmlns="http://www.w3.org/2000/svg" viewBox="0 0 64 64">
  <defs>
    <style>
      .cls-1 {
        fill: #061a2f;
        stroke-width: 0px;
      }
    </style>
  </defs>
  <g id="Informational_icons" data-name="Informational icons">
    <g id="P">
      <g id="people-celebrate">
        <g>
          <circle class="cls-1" cx="15.72" cy="13.17" r="3.74"/>
          <path class="cls-1" d="m28.77,10.61l-8.76,8.76c-1.05-1.18-2.58-1.93-4.29-1.93,0,0,0,0-.01,0-1.71,0-3.24.75-4.3,1.93L2.66,10.61c-.61-.61-1.59-.61-2.2,0s-.61,1.59,0,2.2l9.56,9.56c-.04.27-.07.55-.07.83v12.4l-4.49,16.59c-.27,1,.32,2.02,1.32,2.29.16.04.33.07.49.07.82,0,1.58-.55,1.8-1.38l4.66-17.19h3.99l4.66,17.19c.23.83.98,1.38,1.8,1.38.16,0,.33-.02.49-.07,1-.27,1.59-1.3,1.32-2.29l-4.49-16.59v-12.4c0-.28-.03-.56-.07-.83l9.56-9.56c.61-.61.61-1.59,0-2.2s-1.59-.61-2.2,0Z"/>
          <circle class="cls-1" cx="48.28" cy="13.17" r="3.74"/>
          <path class="cls-1" d="m63.54,10.61c-.61-.61-1.59-.61-2.2,0l-8.76,8.76c-1.06-1.18-2.59-1.93-4.3-1.93-1.71,0-3.24.75-4.3,1.93l-8.76-8.76c-.61-.61-1.59-.61-2.2,0-.61.61-.61,1.59,0,2.2l9.56,9.56c-.04.27-.07.54-.07.83h0v12.42l-4.49,16.57c-.27,1,.32,2.02,1.32,2.29.16.04.33.07.49.07.82,0,1.58-.55,1.8-1.38l4.66-17.19h3.98l4.66,17.19c.23.83.98,1.38,1.8,1.38.16,0,.33-.02.49-.07,1-.27,1.59-1.3,1.32-2.29l-4.49-16.58v-12.42c0-.28-.03-.56-.07-.83l9.56-9.56c.61-.61.61-1.59,0-2.2Z"/>
        </g>
      </g>
    </g>
  </g>
</svg>