<?xml version="1.0" encoding="UTF-8"?>
<svg id="AC_icons" data-name="AC icons" xmlns="http://www.w3.org/2000/svg" viewBox="0 0 64 64">
  <defs>
    <style>
      .cls-1 {
        fill: #061a2f;
        stroke-width: 0px;
      }
    </style>
  </defs>
  <g id="Informational_icons" data-name="Informational icons">
    <g id="P">
      <g id="photography">
        <g id="Photography">
          <path class="cls-1" d="m43.11,23.06c-6.32,0-11.44,5.12-11.44,11.44s5.12,11.44,11.44,11.44,11.44-5.12,11.44-11.44h0c0-6.32-5.12-11.43-11.44-11.44Z"/>
          <path class="cls-1" d="m60.74,13.99H15.33v-1.34c0-1.8-1.46-3.26-3.26-3.26h-3.83c-1.8,0-3.26,1.46-3.26,3.26,0,0,0,0,0,0v1.34h-1.72C1.46,13.99,0,15.45,0,17.25v34.09c0,1.8,1.46,3.26,3.26,3.26h57.48c1.8,0,3.26-1.46,3.26-3.26V17.25c0-1.8-1.46-3.26-3.26-3.26ZM10.19,22.38c-1.6,0-2.89-1.3-2.89-2.89s1.3-2.89,2.89-2.89,2.89,1.3,2.89,2.89c0,1.59-1.3,2.89-2.89,2.89Zm32.92,27.91c-8.73,0-15.81-7.07-15.81-15.8,0-8.73,7.07-15.81,15.8-15.81,8.73,0,15.81,7.07,15.81,15.8h0c-.01,8.73-7.08,15.8-15.8,15.81h0Z"/>
        </g>
      </g>
    </g>
  </g>
</svg>