<?xml version="1.0" encoding="UTF-8"?>
<svg id="AC_icons" data-name="AC icons" xmlns="http://www.w3.org/2000/svg" viewBox="0 0 64 64">
  <defs>
    <style>
      .cls-1 {
        fill: #061a2f;
        stroke-width: 0px;
      }
    </style>
  </defs>
  <g id="Informational_icons" data-name="Informational icons">
    <g id="P">
      <g id="playground">
        <g id="Playground">
          <path class="cls-1" d="m7.35,38.72c4.07,0,7.37-3.28,7.38-7.35,0-4.07-3.28-7.37-7.35-7.38S0,27.27,0,31.34c0,0,0,0,0,0,0,4.06,3.29,7.36,7.35,7.37"/>
          <path class="cls-1" d="m48.63,51.37c.34-.24.8-.16,1.05.17l1.36,1.88c.23.34.16.8-.17,1.05l-9.99,7.25c-.33.24-.8.17-1.05-.16l-1.37-1.88c-.23-.34-.16-.8.17-1.05l10.01-7.26Z"/>
          <path class="cls-1" d="m37.33,42.01l-3.97-6.95-2.08,1.51,3.96,6.99,2.08-1.55Z"/>
          <path class="cls-1" d="m28.32,60.58c-1.38-.02-2.68-.63-3.57-1.68l-12.06-12.07c-1.66-2-1.29-6.02.78-7.75l16.52-11.76c.56-.48,1.27-.74,2.01-.74,1.67-.01,3.03,1.33,3.04,3,0,.91-.4,1.78-1.1,2.35l-11.37,8.33,8.84,8.74,11.67-8.2c.91-.65,1.72-.96,2.52-.96l14.33.02c2.31.06,4.13,1.98,4.07,4.29-.06,2.22-1.85,4.01-4.07,4.07l-12.22-.04-15.49,10.93c-1.36.99-2.67,1.49-3.9,1.49Z"/>
          <path class="cls-1" d="m25.97,27.3l2.11-1.51L14.62,2.14c-.76.4-1.51.84-2.23,1.28l13.58,23.88Z"/>
        </g>
      </g>
    </g>
  </g>
</svg>