<?xml version="1.0" encoding="UTF-8"?>
<svg id="AC_icons" data-name="AC icons" xmlns="http://www.w3.org/2000/svg" viewBox="0 0 64 64">
  <defs>
    <style>
      .cls-1 {
        fill: #061a2f;
        stroke-width: 0px;
      }
    </style>
  </defs>
  <g id="Informational_icons" data-name="Informational icons">
    <g id="P">
      <g id="police">
        <g id="Police">
          <path class="cls-1" d="m7.37,37.58v-2.54c0-.22.18-.4.4-.4h2.85c.22,0,.4.18.4.4v2.54c0,.22-.18.4-.4.4h-2.85c-.22,0-.4-.18-.4-.4Zm3.58.76v2.54c0,.22.18.4.4.4h2.84c.22,0,.4-.18.4-.4v-2.54c0-.22-.18-.4-.4-.4h-2.84c-.22,0-.4.18-.4.4Zm45.38,6.93H8.49s.43,1.89,2.44,4.09c2.78,3.06,8.67,6.74,20.77,6.74,12.71,0,18.97-3.67,21.99-6.74,2.15-2.2,2.65-4.08,2.65-4.08h0Zm-41.3-7.28h2.84c.22,0,.4-.18.4-.4v-2.54c0-.22-.18-.4-.4-.4h-2.84c-.22,0-.4.18-.4.4v2.54c0,.22.18.4.4.4Zm3.86,3.3h2.84c.22,0,.4-.18.4-.4v-2.54c0-.22-.18-.4-.4-.4h-2.84c-.22,0-.4.18-.4.4v2.54c0,.22.18.4.4.41,0,0,0,0,0,0Zm3.67-3.3h2.84c.22,0,.4-.18.4-.4v-.45c-.57-.76-1.03-1.61-1.36-2.51h-1.88c-.22,0-.4.18-.4.4v2.54c0,.22.17.41.4.41,0,0,0,0,0,0Zm14.99-6.97c0-3.72-2.51-6.75-5.57-6.75s-5.57,3.03-5.57,6.75,2.51,6.75,5.57,6.75,5.57-3.04,5.57-6.75h0Zm-.25,7.13c-.99.98-2.22,1.69-3.57,2.03v.7c0,.22.18.4.4.4h2.83c.22,0,.4-.18.4-.4v-2.54c0-.07-.02-.14-.06-.19h0Zm-11.12.2v2.54c0,.22.18.4.4.4h2.84c.22,0,.4-.18.4-.4v-.84c-1.26-.41-2.4-1.13-3.32-2.09-.19.03-.32.2-.33.39h0Zm12.19-.36h2.84c.22,0,.4-.18.4-.4v-2.54c0-.22-.18-.4-.4-.4h-1.67c-.37,1-.9,1.94-1.58,2.76v.18c0,.22.18.4.41.4h0,0Zm3.67,3.3h2.84c.22,0,.4-.18.4-.4v-2.54c0-.22-.18-.4-.4-.4h-2.84c-.22,0-.4.18-.4.4v2.54c0,.22.18.4.4.41h0Zm3.86-3.3h2.85c.22,0,.4-.18.4-.4v-2.54c0-.22-.18-.4-.4-.4h-2.85c-.22,0-.4.18-.41.4,0,0,0,0,0,0v2.54c0,.22.18.4.41.4h0,0Zm3.68,3.3h2.84c.22,0,.4-.18.4-.4v-2.54c0-.22-.18-.4-.4-.4h-2.84c-.22,0-.4.18-.4.4v2.54c0,.22.18.4.4.41,0,0,0,0,0,0Zm6.81-6.24c0-.22-.18-.4-.4-.4h-2.85c-.22,0-.4.18-.4.4v2.54c0,.22.18.4.4.4h2.83c.22,0,.4-.18.4-.4v-2.54ZM32,7.92C21.24,7.92,0,17.66,0,21.37c0,3.18,1.88,6.56,5.53,9.46h18.29c.09-5.09,3.72-9.19,8.18-9.19s8.09,4.11,8.18,9.19h18.43c3.6-2.9,5.4-6.28,5.4-9.46,0-4.15-21.69-13.45-32-13.45Z"/>
        </g>
      </g>
    </g>
  </g>
</svg>