<?xml version="1.0" encoding="UTF-8"?>
<svg id="AC_icons" data-name="AC icons" xmlns="http://www.w3.org/2000/svg" viewBox="0 0 64 64">
  <defs>
    <style>
      .cls-1 {
        fill: #061a2f;
        stroke-width: 0px;
      }
    </style>
  </defs>
  <g id="Informational_icons" data-name="Informational icons">
    <g id="P">
      <g id="pram">
        <g id="Pram_pram_access_mountain_buggy" data-name="Pram pram access mountain buggy">
          <path class="cls-1" d="m30.01,19c4.42,0,8-3.58,8-8s-3.58-8-8-8-8,3.58-8,8,3.58,8,8,8"/>
          <path class="cls-1" d="m7.95,46.25l13.11-15.09c1.19-1.41-4.86-3.33-8.59,0l-9.67,10.84c-1.18,1.4-1.01,3.48.39,4.66.01,0,.02.02.03.03,1.42,1.19,3.54,1,4.74-.41"/>
          <path class="cls-1" d="m15.01,61c-3.31,0-6-2.69-6-6s2.69-6,6-6,6,2.69,6,6-2.69,6-6,6h0m0-15c-4.97,0-9,4.03-9,9s4.03,9,9,9,9-4.03,9-9-4.03-9-9-9h0"/>
          <path class="cls-1" d="m42.01,61c-3.31,0-6-2.69-6-6s2.69-6,6-6,6,2.69,6,6-2.69,6-6,6h0m0-15c-4.97,0-9,4.03-9,9s4.03,9,9,9,9-4.03,9-9-4.03-9-9-9h0"/>
          <path class="cls-1" d="m61.92,4.76c-.29-1.54-1.21-2.88-2.53-3.71-2.48-1.64-6.57-2.17-12,4.63-2.74,3.32-30.38,35.13-30.63,35.45-.45.51-.56,1.25-.27,1.87.29.61.91,1,1.59,1h19.42c1.3.02,2.58-.32,3.69-1l.23-.14.17-.12c.15-.11.29-.22.42-.34l.1-.09c.12-.11.23-.23.34-.35l.24-.27.08-.1c1.39-1.87,2.17-4.12,2.24-6.44V14.06c2.73-3.17,4.41-5.4,5.06-6.21,2.11-2.62,5.1-5.43,7.38-3.91.52.31.88.83,1,1.42.05,1.27-.34,2.53-1.1,3.55-.46.84-.16,1.9.69,2.36.71.39,1.59.24,2.13-.36.23-.32,2.26-3.18,1.72-6.19"/>
        </g>
      </g>
    </g>
  </g>
</svg>