<?xml version="1.0" encoding="UTF-8"?>
<svg id="AC_icons" data-name="AC icons" xmlns="http://www.w3.org/2000/svg" viewBox="0 0 64 64">
  <defs>
    <style>
      .cls-1 {
        fill: #061a2f;
        stroke-width: 0px;
      }
    </style>
  </defs>
  <g id="Informational_icons" data-name="Informational icons">
    <g id="P">
      <g id="pukeko">
        <g id="Pukeko">
          <path class="cls-1" d="m46.09,53.09l1.89-2,2-2.13-2.63,1.31-2.06,1.03c-.06-.23-.15-.45-.25-.66l-3.25-6.94c-.37-.78-.91-1.36-1.39-1.57l-4.11-8.57c.71.05,1.43.05,2.14-.02.76-.12,1.44-.52,1.9-1.14.58-.73,1.17-1.46,1.71-2.19,1.6-1.98,2.97-4.14,4.08-6.43.64-1.24,1.13-2.56,1.46-3.91.37-1.8-.15-3.63-.57-5.09-.48-1.64-.96-3.3-.88-5.01.05-.92.08-2.01.46-2.82,1.11-2.32,4.77-1.42,6.9-2.69-1.35-.92-2.52-1.86-3.96-2.7-1.35-.78-2.98-1.71-4.97-1.56-1.17.09-2.28.52-2.92,1.14-1.31,1.24-1.68,4.79-.72,6.77.23.48.67.88.82,1.39.64,2.14-.64,4.36-1.85,5.01-2.38,1.27-6.2.32-9.19.71-1.56.21-2.63.88-3.75,1.46-1.36.71-3.35,1.92-5.26,1.34-.58-.2-1.16-.44-1.71-.71-1.73-.78-3.07-1.99-3.54-4.13.03,2.65.58,5.66.11,7.96-.05.38-.12.76-.21,1.13-.38.97-1.59,1.38-2.58,1.64-1.12.29-2.28.45-3.25.84,1.02.59,2.12,1.04,3.25,1.35.42.1.88.05,1.36.17.35.14.68.34.97.58,2.18,1.57,3.37,4.29,5.5,5.77.68.42,1.43.71,2.22.88.83.22,1.66.18,2.65.21.77.02,1.55,0,2.31,0l-2.31,4.18c-.1.15-.16.33-.16.51v4.97c-.34.62-.51,1.32-.47,2.02l.08,8.25c0,.37.04.74.13,1.1l-2.11.96-3.94,1.81,4.28-.73,2.53-.44,1.58,3.51,1.95,4.34-.94-4.65-.71-3.59,2.49-1.28,2.63-1.34-2.92.38-2.19.27c0-.13,0-.26,0-.38l-.08-8.26c.02-.72-.17-1.43-.53-2.05v-4.7l2.72-4.93h.03c.48,0,.96.15,1.4.13.65-.03,1.37-.06,2.13-.07l4.55,9.5c-.03.61.09,1.22.37,1.77l3.26,6.95c.17.37.4.71.66,1.02l-1.68,1.62-3.08,2.98,3.77-2.09,2.23-1.24,2.7,2.77,3.34,3.44-2.48-4.06-1.92-3.11Z"/>
        </g>
      </g>
    </g>
  </g>
</svg>