<?xml version="1.0" encoding="UTF-8"?>
<svg id="AC_icons" data-name="AC icons" xmlns="http://www.w3.org/2000/svg" viewBox="0 0 64 64">
  <defs>
    <style>
      .cls-1 {
        fill: #061a2f;
        stroke-width: 0px;
      }
    </style>
  </defs>
  <g id="Informational_icons" data-name="Informational icons">
    <g id="P">
      <g id="put-rubbish-bin">
        <g id="Rubbish_in_bin" data-name="Rubbish in bin">
          <path class="cls-1" d="m45.98,11c-3.04,0-5.5-2.46-5.51-5.49C40.47,2.47,42.93,0,45.97,0c3.04,0,5.5,2.46,5.51,5.49,0,0,0,0,0,0,0,3.03-2.46,5.49-5.49,5.5"/>
          <rect class="cls-1" x="16.83" y="25.13" width="3.77" height="3.77" transform="translate(-13.67 32.56) rotate(-65)"/>
          <polygon class="cls-1" points="19.31 40.4 22.32 38.13 20.04 35.11 17.03 37.4 19.31 40.4"/>
          <polygon class="cls-1" points="15.15 45.65 18.91 45.37 18.63 41.6 14.86 41.88 15.15 45.65"/>
          <polygon class="cls-1" points="13.32 31.43 14.07 35.14 17.76 34.4 17.01 30.69 13.32 31.43"/>
          <path class="cls-1" d="m32.49,20.99l2.19-3.75c1.3-2.37,3.15-5.25,6.24-5.25h10.99c5.58,0,5.58,6,5.58,6v16c0,2.14,0,4-2,4h-1v-16.26s0-.73-1-.73-.99.73-.99.73h0v39.33c.01,1.26-.79,2.38-1.99,2.78-2.08.66-4.01-.81-4.01-2.71v-23.15h-1v22.52c0,2.48-1,3.48-3,3.48s-3-1-3-3.61V17.94h0c0-.34-.28-.62-.62-.62,0,0-.02,0-.03,0-.2,0-.39.1-.51.26h0l-3.82,6.43h-9.04c-2,0-4-1-4-2.05v-.94l11-.02Z"/>
          <polygon class="cls-1" points="25.39 59.98 9.61 59.98 6.51 34.06 8.49 33.83 11.38 57.98 23.6 57.98 26.18 33.84 28.17 34.05 25.39 59.98"/>
        </g>
      </g>
    </g>
  </g>
</svg>