<?xml version="1.0" encoding="UTF-8"?>
<svg id="AC_icons" data-name="AC icons" xmlns="http://www.w3.org/2000/svg" viewBox="0 0 64 64">
  <defs>
    <style>
      .cls-1 {
        fill: #061a2f;
        stroke-width: 0px;
      }
    </style>
  </defs>
  <g id="Informational_icons" data-name="Informational icons">
    <g id="R">
      <g id="rafting">
        <g>
          <path class="cls-1" d="m9.35,28.31c2.25.18,4.57.08,6.81.94,3.06,1.18,6,6.73,9.66,7.32,3.42.56,8.81.28,12,1.4.21.07.41.15.61.25,3.06,1.41,5.3,7.07,10.13,7.79,3.57.52,6.8.13,9.36.42h0s2.5.21,4.87-2.52c1.47-1.69,1.39-4.83-.36-5.92-.75-.46-1.81-.56-3.19,0-.69.29-1.34.65-1.95,1.08-.29-.07-.58-.16-.85-.28.14-.04.27-.11.38-.19.22-.15.38-.37.48-.61h0c.17-.44.11-.94-.16-1.32-1.02-1.5-1.27-1.95-2.38-3.6-.45-.65-5.27-8.57-7.05-4.51-.35.81-2.55,5.6-2.56,5.63-3.21-1.44-6.62-3.04-9.96-4.65l1.22-2.62,3.18,4.32c.39.66,1.24.88,1.91.49.66-.39.88-1.24.49-1.91-.04-.07-.09-.13-.14-.2-1.02-1.5-1.27-1.95-2.38-3.59-.45-.66-5.28-8.57-7.05-4.51-.35.8-2.48,5.38-2.48,5.38-1.77-.88-3.49-1.69-5.06-2.5.43.15.9.08,1.27-.19.63-.44.78-1.31.34-1.94,0,0,0,0,0,0-1.02-1.5-1.28-1.95-2.39-3.6-.44-.66-5.28-8.57-7.06-4.51-.35.8-2.11,4.58-2.11,4.58.27-3.23-8.58-6.01-8.36,2.96.03.73.16,1.46.4,2.15.54,1.9,2.41,4.47,2.41,4.47Zm42.34,5.64l2.96,4.03.17.23c-.21-.08-.41-.15-.62-.23-1.14-.43-2.39-.91-3.71-1.46l1.19-2.57Zm-30.65-14.38l3.16,4.32c.08.1.18.2.28.28-1.81-.93-3.06-1.55-4.45-2.32l1.02-2.28Z"/>
          <path class="cls-1" d="m35.3,19.96h0s0,0,0,0c1.39.62,3.02,0,3.64-1.38,0,0,0,0,0,0,.63-1.39,0-3.02-1.38-3.65-1.39-.63-3.02,0-3.65,1.38-.63,1.39,0,3.02,1.38,3.65Z"/>
          <path class="cls-1" d="m20.6,12.61s.02.01.03.02c1.38.62,3,0,3.62-1.38.63-1.38.02-3.01-1.36-3.65-1.38-.63-3.02-.02-3.65,1.36-.63,1.38-.02,3.02,1.36,3.65Z"/>
          <path class="cls-1" d="m50.9,26.39c1.39.63,3.02.02,3.65-1.37,0,0,0,0,0,0,.63-1.39.02-3.02-1.37-3.65-1.39-.63-3.02-.02-3.65,1.37-.63,1.39-.02,3.02,1.37,3.65Z"/>
          <path class="cls-1" d="m59.52,51.11c-2.83-1.41-11.38-.81-12.96-1.41-.73-.32-1.39-.76-1.95-1.32h-.01c-1.82-1.69-3.78-4.43-7.24-6.47h0c-3.7-2.19-10.44-.44-13.66-2-.97-.49-1.85-1.14-2.6-1.92-1.49-1.51-3.05-3.48-6.05-5.01-2.16-1.11-6.13-2.26-8.24-2.26,0,0-3.69-.42-6.74-.13l-.07,4.1c11.13-.42,11.73,1.2,13.2,1.69.64.21,1.59.96,2.46,1.73,1.96,1.77,4.32,4.34,6.5,5.47,2.74,1.42,8.87.65,12.73,1.65,1.41.37,2.86,1.69,4.25,3.17h.01c1.67,1.73,3.29,3.67,4.82,4.51,2.27,1.23,10.41.92,13.31,1.64,2.41.61,3.08.93,4.12,2.12l2.6-3.06c-1.12-1.27-3.09-2.02-4.48-2.48Z"/>
        </g>
      </g>
    </g>
  </g>
</svg>