<?xml version="1.0" encoding="UTF-8"?>
<svg id="AC_icons" data-name="AC icons" xmlns="http://www.w3.org/2000/svg" viewBox="0 0 64 64">
  <defs>
    <style>
      .cls-1 {
        fill: #061a2f;
        stroke-width: 0px;
      }
    </style>
  </defs>
  <g id="Informational_icons" data-name="Informational icons">
    <g id="R">
      <g id="ranger-station">
        <g>
          <polygon class="cls-1" points="1.64 17.2 4.68 17.2 4.68 32.38 14.8 32.38 14.8 20.24 20.87 20.24 20.87 32.38 30.99 32.38 30.99 17.2 34.02 17.2 17.83 4.05 1.64 17.2"/>
          <path class="cls-1" d="m55.74,14.17h-12.14c-3.62,0-6.54,2.33-6.54,5.95v15.87c0,1.12.91,2.02,2.02,2.02s2.02-.91,2.02-2.02v-14.73h2.02v40.47c0,3.04,5.06,3.04,5.06,0v-24.28h3.04v24.28c0,3.04,5.06,3.04,5.06,0V21.25h2.02v14.73c0,1.12.91,2.02,2.02,2.02s2.02-.91,2.02-2.02v-14.87c0-3.34-2.66-6.94-6.62-6.94Z"/>
          <path class="cls-1" d="m50.04,13.25c2.77-.17,4.98-2.38,5.15-5.15h3.12v-2.02h-3.04C54.46,2.54,52.24,0,49.7,0s-4.75,2.54-5.56,6.07h-3.04v2.02h3.12c.18,3.03,2.79,5.34,5.82,5.15Z"/>
        </g>
      </g>
    </g>
  </g>
</svg>