<?xml version="1.0" encoding="UTF-8"?>
<svg id="AC_icons" data-name="AC icons" xmlns="http://www.w3.org/2000/svg" viewBox="0 0 64 64">
  <defs>
    <style>
      .cls-1 {
        fill: #061a2f;
        stroke-width: 0px;
      }
    </style>
  </defs>
  <g id="Informational_icons" data-name="Informational icons">
    <g id="R">
      <g id="recommended">
        <g>
          <path class="cls-1" d="m46.59,33.41c2.82-4.82-1.88-5.85-1.88-5.85-2.43-.81-7.72,1.19-7.72,1.19-5.38,1.19-4.61-2.69-4.61-2.69.6-.81.77-4.31.77-4.31,1.62-1.62,1.07-3.75,1.07-3.75-.43-.68-.64-2.65-.64-2.65-.55-3.5-4.27-2.43-4.27-2.43.6,5.85-2.43,10.15-2.43,10.15-4.27,2.56-4.65,8.32-4.65,8.32,0,1.62-1.41,1.88-1.41,1.88h-4.99v14.38h4.52c1.49.09,2.05.85,2.05.85.21.17.64.64.64.64,4.95,3.54,16.98,2.18,16.98,2.18,6.14-.17,5.21-4.99,5.21-4.99,4.22-2.26,1.49-6.23,1.49-6.23,3.37-3.37-.04-6.61-.13-6.7Z"/>
          <path class="cls-1" d="m32,0C14.33,0,0,14.33,0,32s14.33,32,32,32,32-14.33,32-32S49.67,0,32,0Zm15.74,47.57s-.17,6.06-7.72,6.06c0,0-13.7,1.49-19.41-3.5h-7.13v-19.24h6.44s.34-6.53,4.95-9.13c0,0,2.9-4.61,2.13-9.34,0,0,.47-3.16,5.12-2.01,0,0,3.11.94,4.05,4.91,0,0,.3,1.75.47,2.22,0,0,.51,2.9-1.15,5.21,0,0-.09,2.6-.47,3.75,0,0,1.71.47,3.97-.9,0,0,6.36-2.6,9.64,1.54,0,0,2.01,2.3.85,5.97,0,0,2.13,3.11.26,7.13,0,0,1.45,4.57-2.01,7.34Z"/>
        </g>
      </g>
    </g>
  </g>
</svg>