<?xml version="1.0" encoding="UTF-8"?>
<svg id="AC_icons" data-name="AC icons" xmlns="http://www.w3.org/2000/svg" viewBox="0 0 64 64">
  <defs>
    <style>
      .cls-1 {
        fill: #061a2f;
        stroke-width: 0px;
      }
    </style>
  </defs>
  <g id="Informational_icons" data-name="Informational icons">
    <g id="R">
      <g id="recycle">
        <path class="cls-1" d="m22.23,36.02l-5.28-3.36c-8.16,9.28-8.96,16.31-8.96,16.31l-6.88-12.96c-.85-1.36-.91-3.06-.16-4.48,0,0,1.28-2.24,4.16-6.88l-5.12-3.2,15.67.64,6.56,13.92Zm7.04,20.79v.8l-15.35-1.12c-1.91-.36-3.49-1.69-4.16-3.52-1.44-3.36.48-7.36,1.6-10.56,0,0,2.72.48,18.55.96l-.64,13.44Zm-7.04-33.59l-11.52-6.72-.64-.48L18.23,3.07c1.24-1.51,3.17-2.3,5.12-2.08,3.68.32,6.24,3.84,8.64,6.4,0,0-1.76,2.24-9.76,15.83ZM55.66,7.23l-8,13.6-15.19-.64,5.44-3.2C33.59,5.47,27.83,1.47,27.83,1.47h14.72c1.57-.05,3.06.66,4,1.92,0,0,1.44,2.24,4,6.88l5.12-3.04Zm-2.08,46.86c-.65,1.4-1.98,2.37-3.52,2.56,0,0-2.56.32-8,.48l.32,5.92-8.32-13.28,7.68-13.12.32,6.24c12.32,1.44,18.39-1.92,18.39-1.92l-6.88,13.12Zm9.92-22.39c.81,1.77.63,3.84-.48,5.44-1.92,3.04-6.4,3.84-9.6,4.64,0,0-1.28-2.56-9.6-15.83l11.36-7.04.8-.48,7.52,13.28Z"/>
      </g>
    </g>
  </g>
</svg>