<?xml version="1.0" encoding="UTF-8"?>
<svg id="AC_icons" data-name="AC icons" xmlns="http://www.w3.org/2000/svg" viewBox="0 0 64 64">
  <defs>
    <style>
      .cls-1 {
        fill: #061a2f;
        stroke-width: 0px;
      }
    </style>
  </defs>
  <g id="Informational_icons" data-name="Informational icons">
    <g id="R">
      <g id="religious-littering">
        <g>
          <rect class="cls-1" x="9.72" y="29.12" width="3.26" height="3.26" transform="translate(-17.48 15.16) rotate(-41.35)"/>
          <circle class="cls-1" cx="13.76" cy="35.71" r="1.9"/>
          <path class="cls-1" d="m33.23,10.49c2.9,0,5.25-2.35,5.25-5.25s-2.35-5.25-5.25-5.25-5.25,2.35-5.25,5.25,2.35,5.25,5.25,5.25Z"/>
          <polygon class="cls-1" points="9.43 37.26 8.75 41.71 12.95 40.07 9.43 37.26"/>
          <path class="cls-1" d="m44.74,47.38c-2.14-.03-3.77.43-5.33.98v-3.13c1.69-.67,3.37-1.24,5.42-1.15,2.74.12,5.64,1.38,7.56,2.15,1.87.75,4.71.57,4.71.57,0,0,1.07-.43,1.53-1.29.28-.5.38-1.07.3-1.63h-.01s-.48.2-3.82.28c-2.61.06-5.66-2.58-10.37-2.65-2.13-.03-3.76.43-5.32.97v-24.74h1.52v17.26c0,1.01.81,1.82,1.82,1.82,0,0,0,0,.01,0,1.01,0,1.81-.83,1.81-1.83v-18.08c0-.05-.03-.1-.03-.15-.22-2.3-2.08-4.13-5.13-4.3v-.02h-.62c-.09,0-.17-.01-.26,0h0s-12.07,0-12.07,0v.11c-.4.12-.78.34-1.04.71l-7.39,10.39h-7.05c-1,.06-1.79.85-1.85,1.85-.06,1.08.77,2,1.85,2.06h8.07c.64,0,1.23-.31,1.6-.83l5.82-8.24v24.6c-1.79-.69-3.53-1.45-5.86-1.61-3.16-.23-7.39,1.54-9.38,2.35-1.99.8-5.95.05-5.95.05,0,0-.15.42.15,1.29.51,1.55,1.68,1.71,1.98,1.71,1,.04,1.99-.07,2.96-.32,3.56-.82,5.75-2.62,9.52-2.52,2.44.06,4.13,1.16,6.57,2.02v2.91c-1.78-.69-3.52-1.44-5.85-1.61-3.16-.23-7.39,1.54-9.38,2.34-1.99.81-5.95.05-5.95.05,0,0-.15.42.15,1.29.51,1.55,1.68,1.71,1.98,1.71,1,.05,1.99-.05,2.96-.3,3.56-.83,5.74-2.62,9.51-2.52,2.44.06,4.13,1.16,6.57,2.02v2.93c-1.79-.69-3.53-1.45-5.86-1.61-3.16-.23-7.39,1.54-9.38,2.35-1.99.8-5.95.05-5.95.05,0,0-.15.42.15,1.29.51,1.55,1.68,1.71,1.98,1.71,1,.04,1.99-.07,2.96-.32,3.56-.82,5.75-2.62,9.52-2.52,2.44.06,4.13,1.16,6.57,2.02v3.84c0,1.29,1.05,2.34,2.34,2.34s2.34-1.05,2.34-2.34v-2.88c.1,0,.18.02.28.02,1.22.07,2.31-.04,3.31-.24v3.09c0,1.29,1.05,2.34,2.34,2.34s2.34-1.05,2.34-2.34v-4.66c1.69-.67,3.37-1.24,5.42-1.15,2.74.12,5.64,1.38,7.56,2.15,1.87.75,4.71.57,4.71.57,0,0,1.07-.43,1.53-1.29.28-.5.38-1.07.3-1.63h-.01s-.48.2-3.82.28c-2.61.06-5.66-2.58-10.37-2.65-2.13-.03-3.76.43-5.32.97v-3.15c1.69-.67,3.37-1.24,5.42-1.15,2.74.12,5.64,1.38,7.56,2.15,1.87.74,4.71.57,4.71.57,0,0,1.07-.43,1.53-1.28.28-.5.38-1.07.3-1.63h0s-.48.18-3.82.26c-2.61.06-5.66-2.58-10.37-2.65Zm-13.6-7.79h3.59v4.38c-.98.2-2.03.33-3.27.29-.11,0-.21-.02-.32-.03v-4.64Zm0,7.42c.1,0,.18.02.28.02,1.22.07,2.31-.04,3.31-.24v3.04c-.98.2-2.03.33-3.26.29-.12,0-.22-.02-.33-.03v-3.08Zm3.59,8.73c-.98.2-2.03.33-3.27.29-.11,0-.21-.02-.32-.03v-3.1c.1,0,.18.02.28.02,1.22.07,2.31-.04,3.31-.24v3.06Z"/>
        </g>
      </g>
    </g>
  </g>
</svg>