<?xml version="1.0" encoding="UTF-8"?>
<svg id="AC_icons" data-name="AC icons" xmlns="http://www.w3.org/2000/svg" viewBox="0 0 64 64">
  <defs>
    <style>
      .cls-1 {
        fill: #061a2f;
        stroke-width: 0px;
      }
    </style>
  </defs>
  <g id="Informational_icons" data-name="Informational icons">
    <g id="R">
      <g id="restaurant">
        <g id="Restaurant">
          <path class="cls-1" d="m27.29,1.34v14.14c0,.51-.41.92-.92.92s-.92-.41-.92-.92V1.19c-.21-1.35-1.91-1.32-2.13-.07v14.36c0,.51-.41.92-.92.92s-.92-.41-.92-.92V1.11c-.14-.63-.76-1.02-1.39-.88-.41.09-.74.39-.86.8v14.46c0,.51-.41.92-.92.92s-.92-.41-.92-.92V1.11c-.14-.65-.78-1.07-1.43-.93-.58.12-.98.65-.95,1.23v19.14c0,2.73,1.54,4.56,3.88,4.56v35.19c0,4.93,6.68,4.93,6.68,0V25.11c2.42,0,4.02-2.2,4.02-4.26V1.44c.15-.63-.23-1.26-.86-1.41-.63-.15-1.26.23-1.41.86-.04.15-.04.3-.02.45Z"/>
          <path class="cls-1" d="m38.73,5.87v31.86c0,.61.26.72.81.72h1.84c.55,0,.92.26.92.81v21.03c0,4.75,6.7,4.83,6.7,0V5.87c0-7.58-10.27-7.58-10.27,0Z"/>
        </g>
      </g>
    </g>
  </g>
</svg>