<?xml version="1.0" encoding="UTF-8"?>
<svg id="AC_icons" data-name="AC icons" xmlns="http://www.w3.org/2000/svg" viewBox="0 0 64 64">
  <defs>
    <style>
      .cls-1 {
        fill: #061a2f;
        stroke-width: 0px;
      }
    </style>
  </defs>
  <g id="Informational_icons" data-name="Informational icons">
    <g id="R">
      <g id="rock-climbing">
        <path id="Rock_climbing" data-name="Rock climbing" class="cls-1" d="m32.75,39.8c-.6.21-1.23.32-1.86.32-.68,0-1.36-.08-2.02-.27l-7.23,16.3c-.66,1.5-2.47,2.01-4.05,1.14-1.58-.87-2.32-2.79-1.65-4.29l8.85-19.94h11.29v-1.85l5.72-2.62c1.5-.72,3.44.52,3.83,2.07l2.79,11.03c.39,1.56-.56,3.13-2.12,3.52-.01,0-.03,0-.04.01-1.59.42-3.21-.54-3.63-2.12h0s-1.77-7.01-1.77-7.01l-8.11,3.72Zm5.23-11.44c10.88-5.32,15.87-22.02,16.89-27.04-.45-.42-1.5-1.32-1.5-1.32-.63,4.29-5.93,21.51-15.39,26.51v1.85Zm-22.73-4.56c.66,1.03,1.97,1.44,3.1.97l6.72-2.27v8.44h11.25v-10.32l9.86-15.83c.74-1.17.39-2.72-.79-3.46,0,0,0,0-.01,0-1.13-.74-2.64-.42-3.37.71,0,.01-.02.03-.02.04l-8.49,13.87h-6.56l-8.56,3.42-4.59-6.91c-.76-1.17-2.32-1.5-3.49-.75-1.17.74-1.52,2.3-.77,3.47,0,0,0,0,0,.01l5.72,8.62Zm14.51-8.8c2.59,0,4.69-2.1,4.69-4.68,0-2.59-2.1-4.69-4.68-4.69-2.59,0-4.69,2.1-4.69,4.68,0,0,0,0,0,.01,0,2.58,2.09,4.68,4.67,4.69,0,0,0,0,0,0h.01Zm6.45,48.9v-23.79l-1.76.88.11,23,1.65-.09Z"/>
      </g>
    </g>
  </g>
</svg>