<?xml version="1.0" encoding="UTF-8"?>
<svg id="AC_icons" data-name="AC icons" xmlns="http://www.w3.org/2000/svg" viewBox="0 0 64 64">
  <defs>
    <style>
      .cls-1 {
        fill: #061a2f;
        stroke-width: 0px;
      }
    </style>
  </defs>
  <g id="Informational_icons" data-name="Informational icons">
    <g id="R">
      <g id="rowing">
        <g id="Row_boat_rowing" data-name="Row boat rowing">
          <path class="cls-1" d="m30.99,14.08c0-2.49,2.02-4.5,4.5-4.5,2.49,0,4.5,2.02,4.5,4.5s-2.02,4.5-4.5,4.5c-2.48,0-4.5-2-4.5-4.48,0,0,0-.01,0-.02"/>
          <path class="cls-1" d="m54.76,47.79c.56-.16,1.46-.39,1.46-.39l1.46-.19s.78-.04,1.28-.04,1.25.04,1.25.04l.87.15c.28.05.55.08.88.14.61.17,1.21.39,1.8.63v4.06c-.46-.21-2.32-1.34-4.23-1.31-.95.03-.31-.04-1.56,0-3.06.14-8.71,3.54-11.91,3.54-3.86,0-7.82-3.33-10.9-3.33-2.48,0-8.31,3.03-10.69,3.24h-1.8c-1.98-.05-7.11-2.8-9.39-2.8h-.73c-1.14,0-6.8,2.52-9.68,2.52h-1.46s-1.15-.1-1.41-.25v-3.72c.49.14,1,.23,1.51.29h1.27c2.45,0,7.74-2.52,9.48-2.52h1.27c2.88,0,7.73,2.76,9.68,2.76h1.07c1.53-.05,7.74-3.24,10.65-3.14.25,0,.4-.04,1.23,0,2.95.11,7.43,3.29,9.88,3.29.99,0,2.36-.44,3.74-1.09,1.61-.76,3.29-1.39,5.01-1.87"/>
          <path class="cls-1" d="m4.57,45.51c2.96-.83,7.05-2.05,7.97-2.05h.73c2.28,0,7.41,2.76,9.39,2.8h1.8c2.38-.2,8.21-3.24,10.69-3.24,2.62,0,5.85,2.4,9.14,3.13l-23.26-14.77c-.26-.14-.44-.4-.48-.7,0-.74.96-1.36,1.71-1.36.53,0,1.03.21,1.41.58l6.01-3.18v3.63h-5.29l27.58,14.34c1.5-.63,3.03-1.17,4.6-1.61l7.45-12.49h-25.02v-8c0-5.79-11.01-.16-13.88,1.3-2.93,1.49-3.31,1.73-6.58,3.55-1.89.97-1.57,3.06-1.53,3.15H2l2.57,14.93Z"/>
        </g>
      </g>
    </g>
  </g>
</svg>