<?xml version="1.0" encoding="UTF-8"?>
<svg id="AC_icons" data-name="AC icons" xmlns="http://www.w3.org/2000/svg" viewBox="0 0 64 64">
  <defs>
    <style>
      .cls-1 {
        fill: #061a2f;
        stroke-width: 0px;
      }
    </style>
  </defs>
  <g id="Informational_icons" data-name="Informational icons">
    <g id="R">
      <g id="rsa">
        <path class="cls-1" d="m43.43,6.82c-4.4.01-5.95-1.57-8.5-3.24-2.47-1.6-4.84-3.57-9.19-3.57-2.37,0-5.26,1.63-5.26,1.63l-1.44,16.3s0,0,0,0l-4.05,45.71.98.37,4.07-46.59c1.06-.49,2.77-1.16,4.28-1.16,4.33.03,6.68,2.01,9.16,3.58,2.53,1.63,4.13,3.26,8.53,3.26,2.88,0,5.57-2.12,5.57-2.12l1.41-16.28s-2.67,2.12-5.57,2.12Z"/>
      </g>
    </g>
  </g>
</svg>