<?xml version="1.0" encoding="UTF-8"?>
<svg id="AC_icons" data-name="AC icons" xmlns="http://www.w3.org/2000/svg" viewBox="0 0 64 64">
  <defs>
    <style>
      .cls-1 {
        fill: #061a2f;
        stroke-width: 0px;
      }
    </style>
  </defs>
  <g id="Informational_icons" data-name="Informational icons">
    <g id="R">
      <g id="rubbish">
        <path class="cls-1" d="m61.43,14.6c0,.7-.55,1.27-1.25,1.28-.01,0-.02,0-.03,0h-4.01v39.62c0,4.65-3.05,8.5-6.74,8.5H14.6c-3.69,0-6.74-3.69-6.74-8.34V15.88H3.85c-.69-.05-1.24-.59-1.28-1.28h0v-2.73c0-.7.55-1.27,1.25-1.28.01,0,.02,0,.03,0h12.83l2.89-6.9C20.54,1.45,22.75,0,25.18,0h13.31c2.38.18,4.5,1.57,5.61,3.69l2.89,7.06h12.83c.7,0,1.27.55,1.28,1.25,0,.01,0,.02,0,.03h0l.32,2.57Zm-37.53,8.02c0-.7-.55-1.27-1.25-1.28-.01,0-.02,0-.03,0h-2.73c-.7,0-1.27.55-1.28,1.25,0,.01,0,.02,0,.03h0v29.35c0,.7.55,1.27,1.25,1.28.01,0,.02,0,.03,0h2.73c.7,0,1.27-.55,1.28-1.25,0-.01,0-.02,0-.03h0v-29.35Zm17.48-12.03l-2.09-4.81c-.16-.16-.48-.32-.64-.48h-13.15c-.32,0-.48.32-.64.48l-2.09,4.81h18.61Zm-6.74,12.03c0-.7-.55-1.27-1.25-1.28-.01,0-.02,0-.03,0h-2.73c-.7,0-1.27.55-1.28,1.25,0,.01,0,.02,0,.03h0v29.35c0,.7.55,1.27,1.25,1.28.01,0,.02,0,.03,0h2.73c.7,0,1.27-.55,1.28-1.25,0-.01,0-.02,0-.03h0v-29.35Zm10.75,0c0-.7-.55-1.27-1.25-1.28-.01,0-.02,0-.03,0h-2.73c-.7,0-1.27.55-1.28,1.25,0,.01,0,.02,0,.03h0v29.35c0,.7.55,1.27,1.25,1.28.01,0,.02,0,.03,0h2.73c.7,0,1.27-.55,1.28-1.25,0-.01,0-.02,0-.03h0v-29.35Z"/>
      </g>
    </g>
  </g>
</svg>