<?xml version="1.0" encoding="UTF-8"?>
<svg id="AC_icons" data-name="AC icons" xmlns="http://www.w3.org/2000/svg" viewBox="0 0 64 64">
  <defs>
    <style>
      .cls-1 {
        fill: #061a2f;
        stroke-width: 0px;
      }
    </style>
  </defs>
  <g id="Informational_icons" data-name="Informational icons">
    <g id="R">
      <g id="rugby-field">
        <g id="Rugby_field_playing_field" data-name="Rugby field playing field">
          <path class="cls-1" d="m49.22,27.31l-7.05-1.21c-.36-.14-.64-.45-.73-.83l-1.66-8.64c-1.04-3.05-3.15-4.58-6.33-4.58-.84,0-1.68.11-2.49.3-5.61,2.01-11.02,4.05-16.21,6.14-.9.69-1.11,1.55-.62,2.59l6.33,15.27-2.6,7.59c-.21.6-.66.86-1.35.73l-11.84-1.57c-.81-.17-1.64.11-2.18.73-.54.6-.84,1.37-.83,2.18,0,1.54.7,2.39,2.08,2.6l15.48,2.38c1.45.22,2.39-.3,2.8-1.56l3.43-9.98,8.84,7.18-3.01,14.44c-.22.79.09,1.63.78,2.08.7.54,1.56.84,2.44.83,1.39,0,2.21-.55,2.49-1.66l3.22-15.49c.07-.45.11-.9.11-1.36,0-1.17-.56-2.21-1.67-3.11l-7.48-5.92,4.36-12.15,1.57,5.71c.2.48.63.84,1.14.94l9.94,1.73c.76.17,1.55-.1,2.03-.71.51-.61.79-1.39.77-2.19,0-1.44-.59-2.27-1.76-2.48Zm-26.38.44l-2.18-4.89c-.08-.36,0-.73.21-1.03l4.57-1.77-2.6,7.7ZM41.04,1.58c1.06,1,1.65,2.41,1.62,3.87,0,3.07-2.48,5.55-5.55,5.55,0,0,0,0,0,0-1.46.02-2.86-.57-3.87-1.63-1.04-1.04-1.61-2.45-1.59-3.92C31.63,2.46,34.04.02,37.04,0c.02,0,.04,0,.07,0,1.47-.03,2.89.54,3.93,1.58Z"/>
          <ellipse class="cls-1" cx="57.17" cy="29.05" rx="6.54" ry="4.18" transform="translate(-.61 56.87) rotate(-52.65)"/>
        </g>
      </g>
    </g>
  </g>
</svg>