<?xml version="1.0" encoding="UTF-8"?>
<svg id="AC_icons" data-name="AC icons" xmlns="http://www.w3.org/2000/svg" viewBox="0 0 64 64">
  <defs>
    <style>
      .cls-1 {
        fill: #061a2f;
        stroke-width: 0px;
      }
    </style>
  </defs>
  <g id="Informational_icons" data-name="Informational icons">
    <g id="R">
      <g id="rugby">
        <path class="cls-1" d="m41.2,12.43C24.28,4.48,6.44,6.78,1.36,17.59c-5.08,10.81,4.51,26.02,21.44,33.98,16.92,7.96,34.76,5.65,39.84-5.15,5.08-10.81-4.51-26.02-21.44-33.98Zm-17.36,36.9c-9.4-4.42-19.77-14.45-21.65-23.56,0,0,8.14,11.56,23.82,18.94,15.68,7.38,29.79,6.28,29.79,6.28-8.22,4.36-22.56,2.76-31.96-1.66Zm3.5-13.8l.83-1.76c.21-.44.72-.62,1.16-.42.44.2.62.72.42,1.16l-.85,1.8c.29.14.57.28.86.42.29.14.58.27.87.4l.85-1.81c.21-.44.72-.62,1.16-.42.44.21.62.72.42,1.16l-.83,1.77c.59.25,1.18.49,1.77.72l.69-1.48c.21-.44.72-.62,1.16-.42.44.21.62.72.42,1.16l-.64,1.35c.78.28,1.56.56,2.34.81.46.15.71.64.56,1.1-.12.37-.46.6-.83.6-.09,0-.18-.01-.27-.04-.85-.28-1.7-.58-2.55-.89l-.7,1.49c-.15.32-.46.5-.79.5-.12,0-.25-.03-.37-.08-.44-.21-.62-.72-.42-1.16l.65-1.37c-.59-.23-1.18-.48-1.77-.73l-.83,1.77c-.15.32-.46.5-.79.5-.12,0-.25-.03-.37-.08-.44-.21-.62-.72-.42-1.16l.81-1.73c-.29-.13-.58-.26-.87-.4-.29-.14-.57-.27-.86-.41l-.81,1.73c-.15.32-.46.5-.79.5-.12,0-.25-.03-.37-.08-.44-.21-.62-.72-.42-1.16l.83-1.77c-.57-.29-1.13-.59-1.69-.9l-.65,1.37c-.15.32-.46.5-.79.5-.12,0-.25-.03-.37-.08-.44-.21-.62-.72-.42-1.16l.7-1.49c-.75-.44-1.49-.88-2.23-1.35-.41-.26-.53-.8-.27-1.2.26-.41.79-.53,1.2-.27.67.42,1.35.83,2.04,1.24l.64-1.35c.21-.44.72-.62,1.16-.42.44.21.62.72.42,1.16l-.69,1.47c.56.31,1.12.61,1.69.9Zm33.34,9.96s-5.29-13.71-24.36-22.68C14.34,12.47,3.32,18.5,3.32,18.5c3.95-8.39,20.93-11.15,36.77-3.7,15.84,7.45,24.54,22.3,20.6,30.69Z"/>
      </g>
    </g>
  </g>
</svg>