<?xml version="1.0" encoding="UTF-8"?>
<svg id="AC_icons" data-name="AC icons" xmlns="http://www.w3.org/2000/svg" viewBox="0 0 64 64">
  <defs>
    <style>
      .cls-1 {
        fill: #061a2f;
        stroke-width: 0px;
      }
    </style>
  </defs>
  <g id="Informational_icons" data-name="Informational icons">
    <g id="R">
      <g id="running">
        <g id="Exercise_recreation_fitness_jogging_running" data-name="Exercise recreation fitness jogging running">
          <path class="cls-1" d="m44.37,12.15c-.77-.82-1.86-1.26-2.98-1.22h-12.39c-1.11-.04-2.17.45-2.86,1.33-2.97,3.47-5.99,6.93-8.98,10.39-.98,1.14-.84,2.86.3,3.83,0,0,0,0,0,0,1.22,1.02,2.85.83,3.98-.48,2.46-2.85,4.94-5.68,7.34-8.58.64-.77,1.12-1.07,2.31-1.03h3.43l-18.21,21.24c-.19.18-.45.28-.71.29H3.63c-1.75,0-3.63,1.35-3.63,3.39s1.45,3.56,3.52,3.55c5.13,0,10.27,0,15.4-.08,1.49.02,2.91-.63,3.86-1.78,2.05-2.38,7.32-8.22,7.48-8.39l7.37,6.89c.45.42.68,1.4.68,1.83-.04,4.57.03,10.86,0,15.44,0,.56,0,1.12.05,1.67.2,1.66,1.54,2.95,3.2,3.08,1.9.13,3.75-1.32,3.75-3.71,0-6.47.05-12.41.04-18.88,0-1.45.18-2.6-.91-3.65l-7.09-7.06,7.97-9.3c.61.61,3.89,3.9,4.99,4.97,1.24,1.22,2.69,1.33,4.1.3.26-.19,6.11-6.07,8.78-8.81.3-.31.53-.69.66-1.1.47-1.47-.33-3.04-1.8-3.51-1.03-.33-2.15-.04-2.89.75-2.08,2.08-6.54,6.53-6.7,6.7l-8.11-8.07Z"/>
          <path class="cls-1" d="m47.23,11.05c2.93,0,5.3-2.37,5.3-5.3,0-2.93-2.37-5.3-5.3-5.3s-5.3,2.37-5.3,5.3,2.37,5.3,5.3,5.3h0Z"/>
        </g>
      </g>
    </g>
  </g>
</svg>