<?xml version="1.0" encoding="UTF-8"?>
<svg id="AC_icons" data-name="AC icons" xmlns="http://www.w3.org/2000/svg" viewBox="0 0 64 64">
  <defs>
    <style>
      .cls-1 {
        fill: #061a2f;
        stroke-width: 0px;
      }
    </style>
  </defs>
  <g id="Informational_icons" data-name="Informational icons">
    <g id="S">
      <g id="sailing">
        <g id="Boating_sailing_yachting" data-name="Boating sailing yachting">
          <path class="cls-1" d="m5,38.98h54.01l-6.79,12h-.38c-2.49.11-8.09,3.06-10.26,3.11h-2c-2.6-.22-9-3.6-11.69-3.6-3.36,0-7.69,3.71-11.9,3.71-2.43,0-6.13-1.82-9.28-3l-1.7-12.22Z"/>
          <polygon class="cls-1" points="35.01 .98 35.01 36.98 60.45 36.98 35.01 .98"/>
          <polygon class="cls-1" points="33.01 .98 4.68 36.98 33.01 36.98 33.01 .98"/>
          <path class="cls-1" d="m0,55.13l.66-.15h2.75l1.61.22,1.61.42,3.27,1.17c2,.72,4.75,2.14,6.45,2.14,2.69,0,7.65-3.51,10.9-3.64h1.35c3.21-.11,10.07,3.42,11.76,3.47h1.18c2.14,0,7.5-3,10.69-3h1.39c1.92,0,7.67,2.77,10.37,2.77v4.06c-3.17,0-9.44-2.78-10.69-2.78h-.8c-2.52,0-8.18,3-10.36,3.1h-2c-2.64-.21-9.09-3.57-11.83-3.57-3.4,0-7.76,3.68-12,3.68-3.54,0-9.76-3.75-13.17-3.89-1.38-.06-.67,0-1.72,0-.48-.02-.95,0-1.42.09v-4.09Z"/>
        </g>
      </g>
    </g>
  </g>
</svg>