<?xml version="1.0" encoding="UTF-8"?>
<svg id="AC_icons" data-name="AC icons" xmlns="http://www.w3.org/2000/svg" viewBox="0 0 64 64">
  <defs>
    <style>
      .cls-1 {
        fill: #061a2f;
        stroke-width: 0px;
      }
    </style>
  </defs>
  <g id="Informational_icons" data-name="Informational icons">
    <g id="S">
      <g id="sapling">
        <g id="Layer_2" data-name="Layer 2">
          <path class="cls-1" d="m30.54,37.72c-22.21-.59-19.85-22.67-19.85-22.67,0,0,22.21.57,19.85,22.67m0-.52c-5.2-12.17-15.61-17.35-15.44-17.23,7.7,6.14,11.68,12.62,13.73,17.58.57.05,1.09.14,1.69.16.04-.17.03-.32.04-.5h-.02Z"/>
          <path class="cls-1" d="m34.98,33.98C27.03,8.93,52.63,3,52.63,3c0,0,7.95,25.07-17.65,30.98m-.31-1.09c.1.36.19.72.31,1.09.39-.09.73-.19,1.1-.29,4.94-15.89,11.45-23.17,11.45-23.17-6.05,5.58-10.22,14.76-12.86,22.37Z"/>
          <path class="cls-1" d="m36.25,54.25c-2.92-1.04-2.92-3.12-2.92-3.12v-4.02c14.75.3,30.67,5.49,30.67,5.49-12.44-6.68-26.08-7.65-30.51-7.78.51-4.03,1.58-7.8,2.61-11.12-.37.1-.72.2-1.1.29-.14-.37-.23-.71-.33-1.09-1.15,3.32-2.01,6.35-2.6,8.65-.41-1.44-.91-2.85-1.5-4.23v.41c-.6,0-1.12-.11-1.69-.16,1.35,3.24,1.87,5.82,2.06,7.23-3.93.09-18.09.89-30.93,7.79,0,0,16.29-5.3,31.19-5.49l-.14,3.99-.06.05s0,1.62-2.44,2.43c-2,.67-4.38,1.39-4.63,5.29.76-1.99,2.49-3.45,4.58-3.86.91-.19,1.77-.55,2.54-1.05-.3.49-.85,1.14-1.81,1.96-2.38,2.02-.95,5.1-.95,5.1,0,0-.48-3.01,1.77-4.42,1.61-1,2.36-2.04,2.65-2.55.68.63,1.88,1.47,3.73,1.93,2.55.59,4.59,2.51,5.33,5.02-.29-4.97-3.12-5.88-5.54-6.73Zm-3.99-1.3h0l-.2.21h0c.07-.07.14-.14.2-.21Z"/>
        </g>
      </g>
    </g>
  </g>
</svg>