<?xml version="1.0" encoding="UTF-8"?>
<svg id="AC_icons" data-name="AC icons" xmlns="http://www.w3.org/2000/svg" viewBox="0 0 64 64">
  <defs>
    <style>
      .cls-1 {
        fill: #061a2f;
        stroke-width: 0px;
      }
    </style>
  </defs>
  <g id="Informational_icons" data-name="Informational icons">
    <g id="S">
      <g id="school">
        <g id="School">
          <path class="cls-1" d="m52.55,9.11c2.62,0,4.75,2.13,4.75,4.75s-2.13,4.75-4.75,4.75c-2.62,0-4.75-2.13-4.75-4.75h0c0-2.62,2.12-4.75,4.74-4.75,0,0,0,0,0,0Z"/>
          <circle class="cls-1" cx="18.16" cy="6.24" r="5.06"/>
          <path class="cls-1" d="m32.85,57.95l-10.77-22.95.65-11.63,6.53,9.45c.53.95,1.73,1.28,2.67.75s1.28-1.73.75-2.67c-.06-.11-.13-.21-.21-.3l-9.82-14.21c-.77-1.06-1.88-2.53-2.88-3.16-.67-.34-1.4-.55-2.15-.63-1.54-.17-2.76.11-3.55.65-.33.26-10.75,11.05-10.75,11.05l-2.54,2.07c-.92.75-1.06,2.11-.31,3.04.01.02.03.03.04.05l4.91,5.69c.73.86,2.01.97,2.87.25.05-.04.1-.09.14-.13l2.34-2.34c-.05.67-.18,1.32-.37,1.96l-7.93,22.99c-.64,1.82.32,3.81,2.13,4.44,1.82.64,3.81-.32,4.44-2.13l7.29-21.12,10.18,21.71c.78,1.74,2.83,2.52,4.57,1.74,1.74-.78,2.52-2.83,1.74-4.57h-.01ZM11.44,26.22l-2.85-3.34c-.18-.22-.4-.4-.65-.53l4.28-4.47-.77,8.34Z"/>
          <path class="cls-1" d="m36.75,31.17c2.15-9.53,4.61-11.89,6.97-11.79s2.35.41,2.25.92l-1.54,13.42c-.24,1.31-1.96,1.12-4.41.82s-4.06.07-3.28-3.38Z"/>
          <path class="cls-1" d="m62.08,56.67c-.5.22-1.04.3-1.58.22-.97-.14-1.81-.77-2.21-1.66l-7.07-15.55-5.3,15.34c-.53,1.5-2.18,2.29-3.69,1.76-1.5-.53-2.29-2.18-1.76-3.69l5.86-16.94c.42-.76,1.57-15.09,1.57-15.09,0,0,.05-2.05,4.39-1.57,1.86.21,3.19,1.83,4.08,2.95l7.31,9.1c.51.63.41,1.56-.23,2.06-.63.51-1.56.41-2.06-.23h0l-4.83-6.02-.58,8.93,7.53,16.58c.65,1.44.01,3.14-1.43,3.8,0,0,0,0,0,0Z"/>
        </g>
      </g>
    </g>
  </g>
</svg>