<?xml version="1.0" encoding="UTF-8"?>
<svg id="AC_icons" data-name="AC icons" xmlns="http://www.w3.org/2000/svg" viewBox="0 0 64 64">
  <defs>
    <style>
      .cls-1 {
        fill: #061a2f;
        stroke-width: 0px;
      }
    </style>
  </defs>
  <g id="Informational_icons" data-name="Informational icons">
    <g id="S">
      <g id="scuba-diving">
        <g id="Scuba_diving" data-name="Scuba diving">
          <g>
            <polyline class="cls-1" points="20 14 20 20.95 17.05 22 14 15.86 20 14"/>
            <polyline class="cls-1" points="9.67 23 10 29.82 7.22 31 4 25.13 9.67 23"/>
            <path class="cls-1" d="m57.68,54v-.32c.2-2.41-1.59-4.52-3.99-4.72-2.41-.2-4.52,1.59-4.72,3.99-.02.24-.02.48,0,.72-.02,1.87,1.09,3.58,2.81,4.32h0l4.37,3,3.85-5.86-2.32-1.14Z"/>
            <path class="cls-1" d="m45.07,45.63c-4.76-2.79-7.56-4.39-13.23-7.44-.83-.45-2-.64-3.54-4-1.37-3-4.59-9.2-5.29-10.53-.55-1.38-2.12-2.05-3.5-1.5s-2.05,2.12-1.5,3.5h0l7.38,14.83-7.9-1.38-4.36-6.61c-.55-1.38-2.11-2.05-3.48-1.5-1.02.41-1.69,1.4-1.69,2.5,0,.54.16,1.06.46,1.5v.07c2.05,2.8,3.14,4.54,4.71,7,1.2,1.89,1.81,1.89,3,2.18,4.6,1.18,6.5.59,9.62,2.22,3.48,1.8,8.33,4.21,11.72,6.37.21.13-.22.47-.36.47h-11.59c-1.27-.35-2.59.4-2.93,1.68-.35,1.27.4,2.59,1.68,2.93.26.07.53.1.8.08h16.13c4.62,0,10.41-8.54,3.88-12.37Z"/>
            <path class="cls-1" d="m50.63,41.46l-13.71-7.87c-.23-.2-.5-.35-.79-.45h-.06c-1.26-.34-2.57.4-2.91,1.67-.31,1.15.28,2.36,1.39,2.81l13.74,8c.4.28.87.43,1.36.43,1.31,0,2.38-1.06,2.38-2.38,0-.93-.54-1.77-1.38-2.16l-.02-.05Z"/>
          </g>
          <path class="cls-1" d="m63.89,9.56v-3.83c-.65.33-1.39.48-2.12.43-.92-.02-1.83-.19-2.7-.51h0c-2.41-.75-5.47-2.06-8.43-2.06-1.71,0-5,1.2-7.43,2.06h0c-.96.39-1.97.68-3,.84-.95-.15-1.88-.44-2.75-.84-2.54-1-6.18-2.44-9.39-2.44-2.66,0-5,1.47-7.09,2.44h0c-.91.53-1.94.82-3,.84-1.08-.13-2.13-.41-3.13-.84h0c-2.72-1.03-5.85-2.65-10.39-2.65-3.68,0-4.46,1-4.46,1v3.81s1.56-1.31,5.9-1.2c4.34.11,7.46,3.5,11.91,3.39,4.45-.11,7.78-3.22,10.19-3.17,5.61.11,8.51,3.17,12.29,3.17s7.9-3,10.24-2.84c3.58.17,6.79,2.52,11,2.52,3.25-.01,2.36-.12,2.36-.12Z"/>
        </g>
      </g>
    </g>
  </g>
</svg>