<?xml version="1.0" encoding="UTF-8"?>
<svg id="AC_icons" data-name="AC icons" xmlns="http://www.w3.org/2000/svg" viewBox="0 0 64 64">
  <defs>
    <style>
      .cls-1 {
        fill: #061a2f;
        fill-rule: evenodd;
        stroke-width: 0px;
      }
    </style>
  </defs>
  <g id="Informational_icons" data-name="Informational icons">
    <g id="S">
      <g id="seal-colony">
        <g>
          <path class="cls-1" d="m53.33,20.82c.43,6.04.37,12,.37,12,.59-.31,1.11-7.45.71-13.83-.31.59-.69,1.2-1.07,1.83Z"/>
          <path class="cls-1" d="m56.95,10.93c-.06.74-.17,1.47-.34,2.19h.02c5.34,8.72,7.28,21.82,7.28,21.82.66-.69-2.03-17.45-6.95-24.01Z"/>
          <path class="cls-1" d="m52.75,10.38c.92,1.81,1.42,5.1,1.66,8.6.99-1.85,1.73-3.82,2.2-5.86-.7-1.12-1.48-2.18-2.35-3.17l1.31-.51c.51.44.97.94,1.37,1.48.27-4.79-2.57-6.8-3.68-7.27-2.22-.95-9.84,3.32-13.34,3.32s.02-1.03-6.67-1.42c-5.08-.31-15.35,9.35-21.28,20.39-1.27,2.37-11.95,7.19-11.95,7.19v27.38h33.9c-1.47-10.87.08-16.83,7.02-24.55.53-.59,1.09-1.19,1.68-1.79,5.09-5.26,8.51-9.64,10.72-13.34-.28-3.99-.79-8.02-1.67-10.37l1.09-.06Zm-16.02-.25c3.49,1.89.97,3.55-.31,3.95-5.56,1.74-7.62-.47-7.62-.47,0,0,4.45-5.36,7.94-3.48Zm-13.98,6.48c.72-.4.72-.16.8.16,0,0-4.64,5.01-3.66,6.95.16.32,4.92-3,4.92-3,0,0,.24-.56.64.15.4.71-6.11,4.82-6.91,4.19-.8-.63,1.57-7,4.21-8.45Zm20.34,14.69s5.55-15.48,5.4-21.8h-.01s.01,0,.01,0h0s1.35.39,1.35.39c.56,5.77-5.72,21.26-6.75,21.41Z"/>
        </g>
      </g>
    </g>
  </g>
</svg>