<?xml version="1.0" encoding="UTF-8"?>
<svg id="AC_icons" data-name="AC icons" xmlns="http://www.w3.org/2000/svg" viewBox="0 0 64 64">
  <defs>
    <style>
      .cls-1 {
        fill: #061a2f;
        stroke-width: 0px;
      }
    </style>
  </defs>
  <g id="Informational_icons" data-name="Informational icons">
    <g id="S">
      <g id="security-gates">
        <path class="cls-1" d="m62,14.5c-1.1,0-2,.9-2,2v1s-12.75-1.82-20-6.34v-1.66c0-1.1-.9-2-2-2s-2,.9-2,2v16h-8V9.5c0-1.1-.9-2-2-2s-2,.9-2,2v1.66c-7.25,4.52-20,6.34-20,6.34v-1c0-1.1-.9-2-2-2s-2,.9-2,2v40h64V16.5c0-1.1-.9-2-2-2ZM8,52.5h-4v-31.2c1.29-.21,2.64-.49,4-.83v32.03Zm8,0h-4V19.36c1.38-.42,2.72-.87,4-1.32v34.46Zm8,0h-4V16.56c1.73-.67,3.13-1.25,4-1.63v37.57Zm6.27-23.01c.55-.96,1.78-1.28,2.73-.73.96.55,1.28,1.78.73,2.73-.18.3-.43.56-.73.73v3.28h-2v-3.28c-.96-.55-1.28-1.78-.73-2.73Zm-2.27,23.01v-14h8v14h-8Zm16,0h-4V14.93c.87.37,2.27,1,4,1.63v35.94Zm8,0h-4V18.04c1.28.45,2.62.9,4,1.32v33.14Zm8,0h-4V20.5c1.36.34,2.71.62,4,.83v31.17Z"/>
      </g>
    </g>
  </g>
</svg>