<?xml version="1.0" encoding="UTF-8"?>
<svg id="AC_icons" data-name="AC icons" xmlns="http://www.w3.org/2000/svg" viewBox="0 0 64 64">
  <defs>
    <style>
      .cls-1 {
        fill: #061a2f;
        stroke-width: 0px;
      }
    </style>
  </defs>
  <g id="Informational_icons" data-name="Informational icons">
    <g id="S">
      <g id="shared-path">
        <g id="AT">
          <g id="Shared_path" data-name="Shared path">
            <path class="cls-1" d="m5.3,40.65c-.2,1-.5,1.9-1,2.7-1.1,1.8-2.2,3.7-3.3,5.6-.4.6-.7,1.2-1,1.8v.7c.1.6.4,1.1.8,1.5.4.3.9.5,1.4.6h.6c.9-.2,1.7-.9,2.1-1.8,1.4-2.3,2.6-4.5,4-6.7.8-1.2,1.3-2.5,1.5-3.9.2-1.1.5-2.3.7-3.5l9.2,14.6c.8,1.2,2.3,1.5,3.5.8,1.2-.8,1.5-2.3.8-3.5h0l-10.3-16.2c.5-2.1,1.1-4.7,1.5-6.8,0-.1.1-.2.1-.2.3.5.5.9.7,1.4.5,1.1,1.3,2,2.4,2.5,1.4.6,2.8,1.4,4.1,2.1.7.6,1.8.4,2.4-.3.2-.3.3-.6.3-.9l.1-.6c-.3-.5-.8-1-1.4-1.2-1.5-.7-2.9-1.5-4.4-2.2-.2-.1-.3-.2-.3-.4-1.1-2.1-2.2-4.3-3.3-6.5-.8-1.8-3-2.7-4.9-1.8-.3.1-.6.3-.9.6-2.2,1.8-4.4,3.5-6.5,5.3-.6.4-1,1.1-1.1,1.8-.4,2.2-1,4.3-1.4,6.5-.2.9.3,1.7,1.2,1.9.2.1.5.1.7,0,.7-.2,1.2-.8,1.3-1.5.4-1.8.8-3.7,1.2-5.6.1-.2.2-.4.3-.5.6-.5,1.3-1,1.9-1.6l.3-.2v.3c-1,5.1-2.2,10.2-3.3,15.2Z"/>
            <path class="cls-1" d="m14.9,10.45c-.5.1-.9.3-1.4.5-1.7,1-2.3,3.2-1.3,4.9,1,1.7,3.2,2.3,4.9,1.3.4-.2.8-.5,1-.9,1.2-1.5,1-3.7-.5-4.9-.6-.4-1.2-.8-1.9-.9h-.8Z"/>
            <circle class="cls-1" cx="47.4" cy="17.15" r="3.4"/>
            <path class="cls-1" d="m54.5,34.05h-.2c0-.2-.1-.5-.2-.7l-6.7-10.6c-.1-.2-.2-.4-.3-.6-.4-.8-1.2-1.4-2.1-1.6-.8-.2-1.6.1-2.2.6,0,0-6.5,5.3-7.4,6.1-.7.5-.9,1.4-.7,2.2h0l1.4,7.6v4.8c-.8-4.6-4.8-8-9.4-7.9h-.3v2.4h.2c4,0,7.2,3.2,7.2,7.2s-3.2,7.2-7.2,7.2h-.2v2.4h.3c4.7,0,8.8-3.5,9.4-8.2v1c0,1,.9,1.9,1.9,1.9h0c1.1,0,1.9-.9,1.9-1.9v-2.4c.2-.1.4-.2.6-.4l6.1-6c.8-.7.8-2,0-2.7h0l-5-4.9,4.7-3.7,5.4,8.6c-5,1.5-7.9,6.8-6.4,11.9,1.5,5.1,6.8,7.9,11.9,6.4,5-1.5,7.9-6.8,6.4-11.9-1.2-4-4.9-6.8-9.1-6.8h0Zm-11.9,1.8l-2.7,2.6v-1.7l-.8-4.3,3.5,3.4Zm11.9,14.9c-4,0-7.2-3.1-7.2-7.1s3.1-7.2,7.1-7.2,7.2,3.1,7.2,7.1h0c0,4-3.2,7.2-7.1,7.2h0Z"/>
          </g>
        </g>
      </g>
    </g>
  </g>
</svg>