<?xml version="1.0" encoding="UTF-8"?>
<svg id="AC_icons" data-name="AC icons" xmlns="http://www.w3.org/2000/svg" viewBox="0 0 64 64">
  <defs>
    <style>
      .cls-1 {
        fill: #061a2f;
        stroke-width: 0px;
      }
    </style>
  </defs>
  <g id="Informational_icons" data-name="Informational icons">
    <g id="S">
      <g id="shellfish-gathering">
        <g id="Shellfish_gathering" data-name="Shellfish gathering">
          <path class="cls-1" d="m12.56,29.37l5.22,11.82c.23-.07.46-.14.69-.2l-4.82-12.77c.95-.64,1.95-1.18,3.01-1.63.58-.19,1.17-.36,1.77-.49l2.15,14.44c.24-.03.49-.05.74-.07l-1.1-14.88s2.25-.25,3.68,0c.6.13,1.19.3,1.78.51l-2.15,14.49c.23.03.49.07.73.13l3.18-14.15s2,.75,3.01,1.63c.39.36.75.74,1.09,1.15l-5.33,11.86c.19.06.39.12.57.18l5.81-11.18c.58.65,1.1,1.36,1.54,2.11.19.4.35.81.5,1.23l-6.23,8.42.5.2,6.25-7.63c.3.78.53,1.59.68,2.41.04.44.05,1.13.05,1.13l-5.35,4.78.54.25,5-4.02c.03.65-.04,1.3-.19,1.93-.23.78-.68,1.47-1.31,1.99-.49.39-1.03.71-1.61.96,0,.02-.02.04-.04.05-.04.02-.08.04-.12.06-.42.39-2.25,2.04-2.12,3.13,0,.09,0,.15.03.22.04,1.24-.87,3.05-2.03,3.05h-13.27c-1.13,0-2.03-1.72-2.03-2.97,0-.1,0-.2.03-.3.16-1.23-2.23-3.2-2.23-3.2l-2.96-3.01c-.14-.63-.2-1.28-.19-1.93.04-.34.1-.68.19-1.01l5.31,4.77.5-.23-5.75-5.67c.14-.82.36-1.63.67-2.41.17-.39.52-.99.52-.99l6.2,8.36c.18-.07.35-.14.54-.2l-6.23-9.39c.43-.76.94-1.47,1.53-2.11.39-.36,1.06-.85,1.06-.85"/>
          <path class="cls-1" d="m51.61,52.71l-1.34.37-2.68.99c-1.61.62-3.94,1.88-5.36,1.88-2.23,0-6.34-3.08-9.06-3.22-.74-.02-.88,0-1.11,0-2.67-.1-8.36,3.01-9.78,3.06h-.96c-1.78,0-6.24-2.69-8.88-2.69h-1.16c-1.61,0-6.47,2.44-8.72,2.44h-1.18c-.47-.06-.93-.15-1.38-.28v3.62c.42.12.85.2,1.29.23h1.35c2.64,0,7.84-2.44,8.89-2.44h.67c2.1,0,6.8,2.68,8.62,2.72h1.65c2.19-.19,7.54-3.15,9.83-3.15,2.82,0,6.43,3.25,10,3.25,2.94,0,8.45-3.18,10.79-3.43v-3.57l-1.46.19Z"/>
          <path class="cls-1" d="m29.84,10.06c-.67.73-2.46,4.39-3.63,6.67-.35.68-.82,1.32-1.19,1.99-.18.32-.37.68-.56,1.02s-.83,1.79-.96,2.19c-.17.37-.31.76-.43,1.15-.02.14-.02.29,0,.43.04.12.23.72.55.82,1.32.4,2.54-.47,2.75-.58.99-.5,2.64-3.63,2.92-4.23.27-.67.66-1.28,1.14-1.82.23-.26,1.07-1.36,1.26-1.65.61-.87,1.18-1.77,1.83-2.61.54,0,1.05-.04,1.59-.07-.46.88-1.02,1.81-1.48,2.66-.16.32-.29.64-.46.94-.26.48-.59.95-.86,1.42-.3.48-.58.98-.83,1.49-.1.24-.16.54-.26.82-.12.26-.22.52-.3.79-.07.46.09.87.37.96.68.1,1.37-.04,1.96-.38.58-.55,1.8-2.48,2.01-2.8s.34-.74.53-1.06.46-.59.68-.89.46-.58.69-.9c.44-.64.84-1.29,1.31-1.87,1.29-.12,2.83.03,3.86-.39.46.61.84,1.29,1.27,1.96-1.39,1-2.36,2.4-3.34,4.2-.64,1.18-1.45,2.38-1.98,3.71-.24.49-.35,1.04-.32,1.59.07.54.49.73.98.82.21.02.42.02.62,0,.81-.26,1.58-.62,2.29-1.08.64-.48,1.06-1.17,1.54-1.87.48-.64,1.02-1.24,1.61-1.78.49-.49,1.2-1.32,1.87-1.55.38-.1.77-.18,1.16-.22,2.95-.48,5.84-.51,8.06-1.75,1.17-.64,2.3-1.45,3.47-2.14,1.35-.8,2.9-1.18,4.46-1.1-2.19-3.9-4.99-7.42-8.3-10.42l-13.19-.07c-4.22,1.87-12.02,4.85-12.68,5.58Z"/>
          <path class="cls-1" d="m29.84,10.06c-.67.73-2.46,4.39-3.63,6.67-.35.68-.82,1.32-1.19,1.99-.18.32-.37.68-.56,1.02s-.83,1.79-.96,2.19c-.17.37-.31.76-.43,1.15-.02.14-.02.29,0,.43.04.12.23.72.55.82,1.32.4,2.54-.47,2.75-.58.99-.5,2.64-3.63,2.92-4.23.27-.67.66-1.28,1.14-1.82.23-.26,1.07-1.36,1.26-1.65.61-.87,1.18-1.77,1.83-2.61.54,0,1.05-.04,1.59-.07-.46.88-1.02,1.81-1.48,2.66-.16.32-.29.64-.46.94-.26.48-.59.95-.86,1.42-.3.48-.58.98-.83,1.49-.1.24-.16.54-.26.82-.12.26-.22.52-.3.79-.07.46.09.87.37.96.68.1,1.37-.04,1.96-.38.58-.55,1.8-2.48,2.01-2.8s.34-.74.53-1.06.46-.59.68-.89.46-.58.69-.9c.44-.64.84-1.29,1.31-1.87,1.29-.12,2.83.03,3.86-.39.46.61.84,1.29,1.27,1.96-1.39,1-2.36,2.4-3.34,4.2-.64,1.18-1.45,2.38-1.98,3.71-.24.49-.35,1.04-.32,1.59.07.54.49.73.98.82.21.02.42.02.62,0,.81-.26,1.58-.62,2.29-1.08.64-.48,1.06-1.17,1.54-1.87.48-.64,1.02-1.24,1.61-1.78.49-.49,1.2-1.32,1.87-1.55.38-.1.77-.18,1.16-.22,2.95-.48,5.84-.51,8.06-1.75,1.17-.64,2.3-1.45,3.47-2.14,1.35-.8,2.9-1.18,4.46-1.1-2.19-3.9-4.99-7.42-8.3-10.42l-13.19-.07c-4.22,1.87-12.02,4.85-12.68,5.58Z"/>
        </g>
      </g>
    </g>
  </g>
</svg>