<?xml version="1.0" encoding="UTF-8"?>
<svg id="AC_icons" data-name="AC icons" xmlns="http://www.w3.org/2000/svg" viewBox="0 0 64 64">
  <defs>
    <style>
      .cls-1 {
        fill: #061a2f;
        stroke-width: 0px;
      }
    </style>
  </defs>
  <g id="Informational_icons" data-name="Informational icons">
    <g id="S">
      <g id="shopping">
        <g id="Shopping">
          <path class="cls-1" d="m21.89,15.8l.48-3.75c.03-.36.76-8.86,9.64-8.86s9.61,8.51,9.64,8.96l.47,3.65h3.21l-.51-3.98c-.28-4.09-3.32-11.83-12.82-11.83s-12.54,7.74-12.79,11.74l-.53,4.06h3.21Z"/>
          <path class="cls-1" d="m41.42,29.66c-.42.63-.9,1.23-1.42,1.78-.13.12-.3.19-.47.19-.13,0-.25-.04-.36-.11-.27-.16-.39-.49-.28-.79,0-.02.27-.85.53-2.04-.72.02-1.4.38-1.8.98-.7,1.06-.42,2.48.64,3.18s2.48.42,3.18-.64c.52-.78.51-1.79-.02-2.57h0Z"/>
          <path class="cls-1" d="m29.77,42.32c-.25-.17-.32-.5-.15-.75h0s4.51-6.81,4.51-6.81c.16-.26.49-.34.74-.18.26.16.34.49.18.74,0,.01-.01.02-.02.03l-4.51,6.81c-.17.25-.5.32-.75.15Z"/>
          <path class="cls-1" d="m32.88,44.37c-.25-.17-.32-.5-.15-.75l2.57-3.89c.17-.25.5-.32.75-.15.25.17.32.5.15.75h0l-2.57,3.89c-.17.25-.5.32-.75.15Z"/>
          <path class="cls-1" d="m40.05,18.98c1.29,2.24,1.37,5.1,1.09,7.54l.33.21c1.09-2.36,1.32-5.03.66-7.54-.02-.06.02-.11.02-.18l-2.1-.03Z"/>
          <path class="cls-1" d="m53.38,18.98h-9.94c.73,2.85.45,5.87-.8,8.53l1.52,1.01,2.05,6.3-10.86,16.4-6.42-4.26-6.42-4.26,10.86-16.4,6.49-.57c.19-2.18.06-4.62-1.11-6.39-.06-.11-.08-.24-.07-.37H10.64l-4.39,45.03h51.5l-4.37-45.02Z"/>
        </g>
      </g>
    </g>
  </g>
</svg>