<?xml version="1.0" encoding="UTF-8"?>
<svg id="AC_icons" data-name="AC icons" xmlns="http://www.w3.org/2000/svg" viewBox="0 0 64 64">
  <defs>
    <style>
      .cls-1 {
        fill: #061a2f;
        stroke-width: 0px;
      }
    </style>
  </defs>
  <g id="Informational_icons" data-name="Informational icons">
    <g id="S">
      <g id="shower">
        <g id="Shower">
          <path class="cls-1" d="m45,30.5c0-3.59,2.91-6.5,6.5-6.5s6.5,2.91,6.5,6.5-2.91,6.5-6.5,6.5-6.5-2.91-6.5-6.5"/>
          <path class="cls-1" d="m64,64v-19.45s0-6.55-7.33-6.55h-11.27c-3.81-.27-7.12,2.61-7.38,6.42-.01.16-.02.31-.02.47v19.11h4v-16c0-.55.45-1,1-1s1,.45,1,1v16h14v-16c0-.55.45-1,1-1s1,.45,1,1v16h4Z"/>
          <path class="cls-1" d="m3.08,5.18c-.99-.49-2.02-.89-3.08-1.18V0l5.45,1.78c1.46-.94,4.84-.51,6.55,2.11l-6.87,7.11h0c-1.86-1.3-2.69-3.64-2.05-5.82"/>
          <polygon class="cls-1" points="7.17 12.79 7.87 12.03 13.6 20.11 12.88 20.88 7.17 12.79"/>
          <polygon class="cls-1" points="13.53 5.61 14.23 4.84 22.04 10.59 21.34 11.33 13.53 5.61"/>
          <polygon class="cls-1" points="23.38 11.32 22.67 12.07 30.49 17.68 31.19 16.91 23.38 11.32"/>
          <polygon class="cls-1" points="14.47 21.33 13.74 22.1 19.49 30.19 20.18 29.43 14.47 21.33"/>
          <polygon class="cls-1" points="21.05 30.64 20.36 31.4 25.94 39.39 26.64 38.65 21.05 30.64"/>
          <polygon class="cls-1" points="31.82 18.53 32.52 17.79 40.35 23.56 39.66 24.31 31.82 18.53"/>
          <polygon class="cls-1" points="27.64 39.94 26.94 40.68 32.86 49.12 33.52 48.36 27.64 39.94"/>
          <polygon class="cls-1" points="10.58 9.26 11.26 8.49 17.84 15.39 17.17 16.18 10.58 9.26"/>
          <polygon class="cls-1" points="34.45 32.74 33.81 33.53 37.7 37.67 38.37 36.86 34.45 32.74"/>
          <polygon class="cls-1" points="26.06 25.44 26.73 24.67 33.48 31.55 32.84 32.34 26.06 25.44"/>
          <polygon class="cls-1" points="18.98 16.55 18.34 17.37 25.02 24.47 25.69 23.68 18.98 16.55"/>
        </g>
      </g>
    </g>
  </g>
</svg>