<?xml version="1.0" encoding="UTF-8"?>
<svg id="AC_icons" data-name="AC icons" xmlns="http://www.w3.org/2000/svg" viewBox="0 0 64 64">
  <defs>
    <style>
      .cls-1 {
        fill: #061a2f;
        stroke-width: 0px;
      }
    </style>
  </defs>
  <g id="Informational_icons" data-name="Informational icons">
    <g id="S">
      <g id="skateboarding">
        <g id="AT">
          <g id="Skateboarding">
            <path class="cls-1" d="m40.79,60.2c-1,.1-1.8,1-1.7,2,.1.9.8,1.7,1.7,1.7,1,0,1.9-.8,1.9-1.8h0c0-1-.8-1.8-1.9-1.9,0,.1,0,0,0,0h0Z"/>
            <ellipse class="cls-1" cx="25.89" cy="62.1" rx="1.8" ry="1.9"/>
            <path class="cls-1" d="m37.59,9.9c2.7,0,5-2.2,5-4.9s-2.2-5-4.9-5-5,2.2-5,4.9h0c0,2.7,2.1,4.9,4.9,5h0Z"/>
            <path class="cls-1" d="m22.39,33.7l-11.3,19.4c-.9,1.5-.5,3.4.9,4.3s3.4.5,4.3-.9c.1-.2.2-.4.3-.5l10.2-17.7-4.4-4.6Z"/>
            <path class="cls-1" d="m44.29,56h-22c-.6,0-1.1.6-1.1,1.2v.1c0,.6.5,1.1,1.1,1.2h22.1c.6-.1,1.1-.6,1.1-1.2v-.1c-.1-.6-.6-1.1-1.2-1.2Z"/>
            <path class="cls-1" d="m50.99,10.8H14.89c-1.4.1-2.5,1.3-2.4,2.7s1.1,2.4,2.4,2.5h11.9l-4.5,8.7c-1.3,2.4-1,5.3.9,7.3l8.3,9.1-4.3,8.3c-.2.5-.3,1-.3,1.5-.1,1.6,1.2,3,2.8,3.1,1.1,0,2.2-.7,2.6-1.8l5.7-11.1c.9-1.7.5-3.8-.8-5.2l-6.7-7.2,6.7-12.7h13.8c1.4-.1,2.5-1.2,2.4-2.6h0c.1-1.4-1-2.5-2.4-2.6Z"/>
          </g>
        </g>
      </g>
    </g>
  </g>
</svg>