<?xml version="1.0" encoding="UTF-8"?>
<svg id="AC_icons" data-name="AC icons" xmlns="http://www.w3.org/2000/svg" viewBox="0 0 64 64">
  <defs>
    <style>
      .cls-1 {
        fill: #061a2f;
        stroke-width: 0px;
      }
    </style>
  </defs>
  <g id="Informational_icons" data-name="Informational icons">
    <g id="S">
      <g id="slippery-surface">
        <g id="Slippery_surface_when_wet" data-name="Slippery surface when wet">
          <path class="cls-1" d="m6.75,64c-1.04,0-1.87-.84-1.87-1.87s.84-1.87,1.87-1.87h48.87c1.04,0,1.87.84,1.87,1.87s-.84,1.87-1.87,1.87H6.75ZM13.27,12.42c.71-3.06-1.19-6.11-4.25-6.82-3.06-.71-6.11,1.19-6.82,4.25-.71,3.06,1.19,6.11,4.25,6.82,3.05.71,6.11-1.19,6.82-4.24,0,0,0,0,0,0Zm14.37,34.72l9.74-2.84c.7-.21,1.46-.09,2.06.33l16.02,8.94c1.56.87,3.59.08,4.55-1.38,1.12-1.7.73-4.2-1.5-5.45l-17.63-9.94c-1.46-.83-2.32-1.53-3.9-1.07l-5.74,1.64h-.02l6.62-4.47c.55-.37,1.58-.37,2.07-.26l17.88,4.12c1.87.43,3.47-.92,3.99-2.59.6-1.95-.47-4.24-2.96-4.82l-19.7-4.66c-1.51-.36-2.65-.82-4.04.06l-9.1,5.68-6.85-9.46,4.87-1.84c1.26-.45,1.82-1.37,2.16-2.6l3.51-12.82c.43-1.55-.48-3.16-2.03-3.59,0,0-.02,0-.03,0-1.66-.43-3.14.5-3.64,2.3l-2.75,10.3c-.26,1.04-.43,1.56-1.76,2.06l-10.62,3.88c-1.46.54-1.72,1.55-2.01,2.82l-3.03,12.94c-.31,1.15-.06,2.38.69,3.31l7.88,10.95c.95,1.3,2.77,1.58,4.07.63,0,0,0,0,0,0,1.36-1.02,1.56-2.77.47-4.28-2.37-3.26-3.93-5.57-6.37-8.79-.66-.86-.84-1.42-.52-2.65l.84-3.58,11.04,15.13h0c1.36,1.72,3.6,2.5,5.74,2"/>
        </g>
      </g>
    </g>
  </g>
</svg>