<?xml version="1.0" encoding="UTF-8"?>
<svg id="AC_icons" data-name="AC icons" xmlns="http://www.w3.org/2000/svg" viewBox="0 0 64 64">
  <defs>
    <style>
      .cls-1, .cls-2 {
        fill: #061a2f;
        stroke-width: 0px;
      }

      .cls-2 {
        fill-rule: evenodd;
      }
    </style>
  </defs>
  <g id="Informational_icons" data-name="Informational icons">
    <g id="S">
      <g id="smoking-vaping">
        <g id="No_smoking_or_vaping" data-name="No smoking or vaping">
          <rect class="cls-1" y="32.3" width="54.61" height="8.73"/>
          <rect class="cls-1" x="56.78" y="32.3" width="2.5" height="8.73"/>
          <rect class="cls-1" x="61.5" y="32.3" width="2.5" height="8.73"/>
          <path class="cls-1" d="m57.18,28.4h1.93c.17-2.3.11-5.28-1.26-6.15-1.11-.7-3.02-.62-5.44-.52-2.75.11-6.17.25-7.39-1.08-1.14-1.24-.94-4.01-.77-4.97.09-.52-.25-1.02-.77-1.11-.08-.01-.16-.02-.25-.01-1.29.07-2.55-.35-3.54-1.17-1.02-.78-1.68-1.95-1.82-3.23-.09-1.26.33-2.5,1.15-3.45.72-.9,1.77-1.48,2.91-1.61.53-.06.9-.53.84-1.06-.06-.5-.49-.87-1-.85-1.66.17-3.18.99-4.22,2.29-2.36,2.67-2.1,6.74.57,9.1.12.11.24.21.37.3,1.07.87,2.37,1.41,3.74,1.57-.03.43-.04.85-.02,1.28.05,1.85.52,3.27,1.41,4.22,1.82,1.98,5.57,1.82,8.87,1.69,1.76-.07,3.71-.15,4.34.22.32.35.52,2.26.36,4.53Z"/>
          <path class="cls-1" d="m61.82,28.4h1.91c0-1.74-.06-5.12-.24-6.46-.51-3.65-4.02-6.89-7.83-7.22-.84-.07-1.71-.09-2.5-.08,1.52-1.98,1.9-4.61,1.02-6.95-1.36-3.31-4.96-4.99-8.02-3.73-.51.15-.8.68-.65,1.19.15.51.68.8,1.19.65.07-.02.13-.05.19-.08,2.08-.86,4.56.35,5.52,2.69s-.25,5.52-2.53,6.46c-.49.19-.73.75-.54,1.24.16.4.57.65,1.01.6,1.71-.17,3.44-.21,5.16-.1,2.93.25,5.72,2.82,6.1,5.57.17,1.23.21,4.5.22,6.21Z"/>
          <polygon class="cls-1" points="3.55 50.15 3.55 51.21 .38 51.21 .38 58.61 3.55 58.61 3.55 59.99 5.34 60.82 5.34 48.99 3.55 50.15"/>
          <path class="cls-2" d="m64,60.82H5.61v-11.84h58.39v11.84Zm-42.88-9.15h-.9v6.47h.9v-6.47Zm-13.68-.03h-.62v1.81h.62v-1.81Zm0,4.16h-.62v-1.81h.62v1.81Zm0,2.34h-.62v-1.81h.62v1.81Zm11.71-8.68h-10.23v10.85h10.23v-10.85Zm-.65,1.41v8.03h-4.29l-3.31-1.98h-1.34v-3.77h1.34l3.31-2.26,4.29-.02Z"/>
        </g>
      </g>
    </g>
  </g>
</svg>