<?xml version="1.0" encoding="UTF-8"?>
<svg id="AC_icons" data-name="AC icons" xmlns="http://www.w3.org/2000/svg" viewBox="0 0 64 64">
  <defs>
    <style>
      .cls-1 {
        fill: #061a2f;
        stroke-width: 0px;
      }
    </style>
  </defs>
  <g id="Informational_icons" data-name="Informational icons">
    <g id="S">
      <g id="smoking">
        <g id="No_smoking" data-name="No smoking">
          <rect class="cls-1" y="42.2" width="54.61" height="8.74"/>
          <rect class="cls-1" x="56.78" y="42.2" width="2.5" height="8.74"/>
          <rect class="cls-1" x="61.5" y="42.2" width="2.5" height="8.74"/>
          <path class="cls-1" d="m57.18,38.29h1.92c.17-2.3.1-5.3-1.27-6.15-1.11-.69-3.02-.63-5.45-.52-2.75.11-6.17.24-7.39-1.08-1.15-1.24-.95-4.01-.77-4.97.1-.52-.24-1.01-.75-1.11-.09-.02-.17-.02-.26-.01-1.29.07-2.55-.35-3.55-1.17-1.02-.78-1.67-1.95-1.81-3.23-.09-1.26.32-2.5,1.15-3.45.72-.91,1.76-1.49,2.91-1.62.53-.04.92-.5.88-1.03s-.5-.92-1.03-.88c-1.66.17-3.18.99-4.23,2.29-2.35,2.67-2.09,6.75.58,9.1.12.11.25.21.37.31,1.07.87,2.37,1.41,3.74,1.57-.03.43-.04.86-.03,1.28.05,1.85.53,3.27,1.4,4.22,1.82,1.98,5.57,1.83,8.87,1.7,1.74-.07,3.71-.15,4.34.22.32.35.52,2.27.35,4.54Z"/>
          <path class="cls-1" d="m61.82,38.29h1.9c0-1.74-.06-5.12-.24-6.46-.5-3.65-4.02-6.89-7.83-7.22-.83-.07-1.67-.09-2.5-.08,1.45-1.92,1.96-4.65,1.01-6.94-1.35-3.32-4.94-4.99-8-3.73-.49.2-.72.76-.52,1.25s.76.72,1.25.52h0c2.09-.86,4.56.35,5.52,2.69.96,2.34-.25,5.52-2.54,6.46-.5.16-.77.7-.61,1.2.15.45.61.72,1.07.64,1.72-.18,3.44-.21,5.16-.1,2.92.25,5.71,2.8,6.1,5.57.16,1.21.21,4.49.22,6.2Z"/>
        </g>
      </g>
    </g>
  </g>
</svg>