<?xml version="1.0" encoding="UTF-8"?>
<svg id="AC_icons" data-name="AC icons" xmlns="http://www.w3.org/2000/svg" viewBox="0 0 64 64">
  <defs>
    <style>
      .cls-1 {
        fill: #061a2f;
        stroke-width: 0px;
      }
    </style>
  </defs>
  <g id="Informational_icons" data-name="Informational icons">
    <g id="S">
      <g id="snorkelling">
        <g id="Snorkelling">
          <polygon class="cls-1" points="16.29 8.49 17 15.21 13.92 16.49 10 10.86 16.29 8.49"/>
          <polygon class="cls-1" points="5.96 19.49 7 26.09 4.09 27.5 0 22.12 5.96 19.49"/>
          <path class="cls-1" d="m59.01,21.68c-.55,0-1-.45-1-1,0-.55.45-1,1-1,.52,0,.95.4.99.91.05.55-.35,1.04-.9,1.09"/>
          <path class="cls-1" d="m61.72,27.74c-.55.06-1.04-.33-1.1-.88-.05-.55.35-1.04.9-1.09,0,0,0,0,0,0,.55-.05,1.04.35,1.1.91.05.55-.35,1.04-.91,1.1"/>
          <path class="cls-1" d="m63.02,33.38c-.54.04-1.01-.35-1.07-.88-.06-.55.33-1.05.88-1.11s1.05.33,1.11.88c.06.55-.33,1.05-.88,1.11,0,0-.01,0-.02,0"/>
          <path class="cls-1" d="m46.33,39.85c-5.45-2.57-8.63-4-15.08-6.77-.94-.39-2.24-.48-4.23-4-1.82-3.22-6-9.66-6.83-11,0-.06-.07-.11-.11-.17l-.07-.1h0c-.58-.89-1.6-1.4-2.66-1.31-1.62.14-2.82,1.57-2.68,3.2.03.4.15.79.34,1.15h0l9.53,15.48-8.67-.69-5.41-6.82c-.08-.11-.16-.21-.25-.31l-.2-.26h0c-.59-.67-1.47-1.02-2.36-.94-1.61.15-2.79,1.58-2.64,3.19,0,0,0,0,0,0,.06.55.29,1.07.64,1.49,0,0-.05.09,0,.11,2.52,2.85,3.87,4.65,5.83,7.18,1.49,1.94,2.14,1.88,3.47,2.08,5.09.81,7.08,0,10.62,1.42,3.91,1.58,9.44,3.72,13.3,5.72.24.12-.2.53-.35.54-3,.27-10.66,1-12.68,1.21h-.21c-1.45.1-2.54,1.37-2.44,2.82s1.37,2.54,2.82,2.44h.15c8.87-.85,10.64-1,17.28-1.67,4.97-.51,10.34-10.48,2.89-13.98Z"/>
          <path class="cls-1" d="m62.07,47.58c2.9-4.08,2.48-9.65-1-13.25-.23-.24-.79.47-1.12.64,3.12,3.22,3.49,8.21.87,11.85-.15.23-.34.43-.55.6-.5-2.57-2.99-4.25-5.56-3.74s-4.25,2.99-3.74,5.56c.35,1.77,1.66,3.18,3.39,3.66h0l5,2.57,3.65-6.31-1.7-.6c.28-.33.56-.69.76-.98Z"/>
        </g>
      </g>
    </g>
  </g>
</svg>