<?xml version="1.0" encoding="UTF-8"?>
<svg id="AC_icons" data-name="AC icons" xmlns="http://www.w3.org/2000/svg" viewBox="0 0 64 64">
  <defs>
    <style>
      .cls-1 {
        fill: #0a1830;
        stroke-width: 0px;
      }
    </style>
  </defs>
  <g id="Informational_icons" data-name="Informational icons">
    <g id="S">
      <g id="softball">
        <g>
          <path class="cls-1" d="m32.31,62.16l-.35-.12c-.14-.05-.22-.2-.17-.35.05-.14.2-.22.35-.17l.31.11c.06-.25.13-.51.19-.79l-.38-.12c-.14-.04-.22-.2-.18-.34.04-.14.2-.22.34-.18l.34.1c.06-.28.12-.56.17-.86l-.39-.09c-.15-.03-.24-.18-.2-.33.03-.15.18-.24.33-.2l.36.08c.05-.31.09-.61.13-.91l-.37-.03c-.15-.01-.26-.14-.25-.29.01-.15.14-.26.29-.25l.38.03c.02-.27.04-.54.04-.8,0,0,0-.01,0-.02l-.32.03s-.02,0-.03,0c-.14,0-.26-.1-.27-.24-.02-.15.09-.28.24-.3l.36-.04c-.02-.34-.06-.69-.12-1.04l-.34.12s-.06.01-.09.01c-.11,0-.22-.07-.26-.18-.05-.14.03-.3.17-.35l.42-.15c-.07-.34-.15-.68-.23-1l-.38.13s-.06.01-.09.01c-.11,0-.22-.07-.26-.18-.05-.14.03-.3.17-.35l.41-.14c-.07-.25-.14-.48-.21-.7l-.39.15s-.06.02-.1.02c-.11,0-.21-.07-.25-.18-.05-.14.02-.3.16-.35l.42-.16c-.11-.33-.2-.57-.24-.68-2.01,1.24-3.35,3.43-3.35,5.92s1.38,4.74,3.43,5.97c.05-.17.13-.44.23-.82Z"/>
          <path class="cls-1" d="m39.48,51.02c-.05.15-.14.46-.26.87l.35.13c.14.05.21.21.16.35-.04.11-.14.18-.26.18-.03,0-.06,0-.09-.02l-.31-.11c-.07.24-.14.51-.21.79l.38.12c.14.05.22.2.17.34-.04.11-.14.19-.26.19-.03,0-.06,0-.09-.01l-.33-.11c-.06.28-.13.56-.19.85l.39.1c.15.04.23.19.2.33-.03.12-.14.2-.26.2-.02,0-.05,0-.07,0l-.36-.09c-.06.3-.11.61-.15.91l.37.03c.15.01.26.15.25.3-.01.14-.13.25-.27.25,0,0-.02,0-.03,0l-.39-.04c-.03.27-.05.54-.06.79,0,0,0,.01,0,.02l.32-.03c.15-.02.28.1.3.25.01.15-.1.28-.25.3l-.36.03c.02.34.05.69.1,1.04l.35-.11c.14-.05.3.03.34.18.05.14-.03.3-.18.34l-.43.14c.06.34.14.68.21,1.01l.38-.12c.14-.05.3.03.34.18.05.14-.03.3-.18.34l-.42.13c.07.25.13.49.2.7l.4-.14c.14-.05.3.02.35.16.05.14-.02.3-.16.35l-.42.15c.15.46.26.76.26.77,0,0,0,.02,0,.02,2.15-1.2,3.61-3.47,3.61-6.08s-1.39-4.76-3.46-5.99Z"/>
          <path class="cls-1" d="m38.81,63.24s-.12-.33-.26-.77l-.37.13s-.06.02-.09.02c-.11,0-.22-.07-.26-.18-.05-.14.02-.3.16-.35l.4-.14c-.07-.22-.13-.46-.2-.72l-.37.12s-.06.01-.08.01c-.12,0-.22-.07-.26-.19-.05-.14.03-.3.18-.34l.4-.13c-.08-.32-.15-.66-.21-1.01l-.36.12s-.06.01-.08.01c-.12,0-.22-.07-.26-.19-.05-.14.03-.3.18-.34l.43-.14c-.06-.39-.1-.78-.12-1.16l-.39.04s-.02,0-.02,0c-.14,0-.26-.11-.27-.25-.01-.15.1-.28.25-.3l.43-.04s0-.06,0-.09c0-.27.03-.54.06-.83l-.37-.03c-.15-.01-.26-.15-.25-.3.01-.15.15-.26.3-.25l.38.04c.04-.33.1-.66.16-1l-.4-.1c-.15-.04-.23-.19-.2-.33s.19-.23.33-.2l.37.1c.06-.3.13-.6.2-.89l-.43-.14c-.14-.05-.22-.2-.17-.34.05-.14.2-.22.34-.17l.39.13c.07-.29.14-.56.21-.81l-.46-.17c-.14-.05-.21-.21-.16-.35.05-.14.21-.21.35-.16l.42.16c.15-.53.26-.87.29-.95-.96-.47-2.05-.75-3.2-.75s-2.32.29-3.31.8c.02.05.13.33.28.76l.37-.14c.14-.05.3.02.35.16.05.14-.02.3-.16.35l-.39.15c.07.22.14.46.22.72l.37-.13c.14-.05.3.03.35.17.05.14-.03.3-.17.35l-.4.14c.08.32.16.66.23,1l.35-.12c.14-.05.3.03.35.17.05.14-.03.3-.17.35l-.43.15c.07.39.12.78.14,1.16l.39-.04c.15-.02.28.09.3.24.02.15-.09.28-.24.3l-.43.05s0,.06,0,.09c0,.27-.02.54-.04.83l.37.03c.15.01.26.14.25.29-.01.14-.13.25-.27.25,0,0-.01,0-.02,0l-.38-.03c-.04.33-.09.67-.14,1l.41.1c.15.03.24.18.2.33-.03.13-.14.21-.26.21-.02,0-.04,0-.06,0l-.38-.09c-.06.3-.12.6-.18.89l.44.14c.14.04.22.2.18.34-.04.12-.14.19-.26.19-.03,0-.05,0-.08-.01l-.4-.12c-.07.29-.13.56-.2.81l.47.16c.14.05.22.2.17.35-.04.11-.14.18-.26.18-.03,0-.06,0-.09-.01l-.43-.15c-.12.45-.21.77-.25.9.97.48,2.06.76,3.22.76s2.14-.25,3.07-.69c-.02-.02-.04-.04-.05-.07Z"/>
          <path class="cls-1" d="m41.15,35.41l-5.01,5.15s-12.4-10.04-16.74-14.08C14.86,22.28,6.29,13.27,2.79,8.56,1.41,6.7,8.97-1.4,11.09.21c3.7,2.83,13.31,13.43,17.43,18.22,3.36,3.91,12.63,16.98,12.63,16.98h0Z"/>
          <path class="cls-1" d="m60.85,54.02c-.66-.61-1.7-.57-2.31.1l-.34.37-16.04-16.69-3.93,3.78,16.28,16.93-.76.83c-.61.66-.57,1.7.1,2.31.31.29.71.43,1.11.43.44,0,.88-.18,1.2-.53l4.8-5.23c.61-.66.57-1.7-.1-2.31Z"/>
        </g>
      </g>
    </g>
  </g>
</svg>