<?xml version="1.0" encoding="UTF-8"?>
<svg id="AC_icons" data-name="AC icons" xmlns="http://www.w3.org/2000/svg" viewBox="0 0 64 64">
  <defs>
    <style>
      .cls-1 {
        fill: #061a2f;
        stroke-width: 0px;
      }
    </style>
  </defs>
  <g id="Informational_icons" data-name="Informational icons">
    <g id="S">
      <g id="sports-field">
        <g id="Sports_field_playing_field" data-name="Sports field playing field">
          <path class="cls-1" d="m53.17,27.74l-8.68-1.7c-.4-.1-.6-.5-.7-.8l-1.7-8.58c-.7-2.89-3.39-4.79-6.29-4.59-.8,0-1.7.1-2.49.3-5.59,2-10.98,3.99-16.17,6.09-.9.6-1.1,1.7-.6,2.59l6.29,15.27-2.59,7.68c-.1.6-.7.9-1.3.8h-.1l-11.78-1.7c-.8-.2-1.6.1-2.2.7-.5.6-.8,1.4-.8,2.2-.2,1.3.7,2.39,2,2.59h.1l15.47,2.39c1.2.3,2.39-.3,2.79-1.5h0l3.39-9.98,8.78,7.18-2.99,14.37c-.2.8.1,1.6.8,2.1s1.6.8,2.39.8c1.1.2,2.2-.5,2.49-1.7l3.19-15.47c.1-.5.1-.9.1-1.4-.1-1.2-.7-2.39-1.7-3.09l-7.48-5.89,4.39-12.07,1.6,5.69c.2.5.6.8,1.1.9l11.58,2.2c.7.2,1.5-.1,2-.7.5-.6.8-1.4.8-2.2.1-1.4-.5-2.2-1.7-2.49Zm-27.94,0l-2.2-4.79c-.1-.3,0-.7.2-1l4.59-1.9-2.59,7.68ZM43.39,1.7c1,1,1.6,2.39,1.6,3.79,0,1.5-.6,2.89-1.6,3.89-1,1.1-2.39,1.6-3.89,1.6s-2.89-.6-3.89-1.6-1.6-2.49-1.6-3.89c0-1.5.5-2.89,1.6-3.89,1-1,2.39-1.6,3.89-1.6,1.4.1,2.79.6,3.89,1.7Z"/>
          <path class="cls-1" d="m54.47,61.97c-2.99,0-5.49-2.49-5.49-5.49s2.49-5.49,5.49-5.49,5.49,2.49,5.49,5.49h0c0,2.99-2.49,5.49-5.49,5.49"/>
        </g>
      </g>
    </g>
  </g>
</svg>