<?xml version="1.0" encoding="UTF-8"?>
<svg id="AC_icons" data-name="AC icons" xmlns="http://www.w3.org/2000/svg" viewBox="0 0 64 64">
  <defs>
    <style>
      .cls-1 {
        fill: #0a1830;
      }

      .cls-1, .cls-2 {
        stroke-width: 0px;
      }

      .cls-2 {
        fill: #fff;
      }
    </style>
  </defs>
  <g id="Informational_icons" data-name="Informational icons">
    <g id="S">
      <g id="squash">
        <g id="NEW_ICONS" data-name="NEW ICONS">
          <g id="Activities_and_sports" data-name="Activities and sports">
            <g id="Squash">
              <g id="Ball">
                <path class="cls-1" d="m26.92,9.35c2.3,0,4.17-1.86,4.17-4.17s-1.87-4.17-4.17-4.17-4.17,1.87-4.17,4.17,1.87,4.17,4.17,4.17"/>
                <circle class="cls-2" cx="27.29" cy="3.1" r=".62"/>
              </g>
              <g id="Racket">
                <path class="cls-1" d="m35.25,36.11c-1.84,0-3.92-.68-5.3-1.81-1.54-1.26-2.33-3.92-2.3-5.35.13-6.72,8.4-18.53,11.58-22.51,1.97-2.47,5.48-5.56,11.04-6.29,5.01-.66,7.25,1.48,9.05,3.2.24.23.48.45.71.67,0,0,.02.02.03.02,4.05,3.63,3.97,7.4,3.92,9.65-.07,3.07-3.79,8.23-5.59,10.25-4.23,4.77-15.33,10.47-21.69,12.01-.45.11-.94.16-1.45.16ZM52.05.83c-.52,0-1.07.04-1.67.11-5.29.69-8.64,3.64-10.51,5.99-4.52,5.67-11.3,16.22-11.41,22.03-.02,1.26.73,3.66,2.01,4.71,1.59,1.3,4.19,1.94,6.05,1.49,6.26-1.51,17.14-7.1,21.28-11.76,2.14-2.41,5.33-7.17,5.38-9.73.05-2.24.12-5.63-3.63-9.01,0,0-.02-.01-.03-.02-.25-.23-.5-.46-.76-.71-1.54-1.46-3.25-3.1-6.72-3.1Z"/>
                <path class="cls-1" d="m27.86,26.9s-3.42,7.62-4.9,9.9c-1.52,2.34-7.19,8.56-7.19,8.56,0,0-.75-.23-.91-.06-.9.91-12.54,12.61-12.54,12.61,0,0-.58-.25-.73-.14-.37.29-1.2,1.01-1.52,1.47-.12.18-.1.7.05.86.69.71,3.04,3.19,3.84,3.82.16.13.67.08.83-.05.44-.34,1.14-.86,1.35-1.27.11-.23-.08-.82.1-1.01.54-.56,12.12-12.02,12.49-12.47.14-.17.02-.88.02-.88,0,0,5.65-5.18,7.74-6.64,1.44-1.01,6.15-3.43,6.15-3.43l5.63-2.72s-3.8.58-5.07,1.13c-2.4,1.05-9.13,3.92-9.48,3.67-.51-.36,2.89-7.76,3.67-9.8.03-.09.29-.7.29-.7"/>
                <path class="cls-1" d="m35.86,35.95l-1.39-1.33-.82.82-.19-.19.82-.81-.94-.9-1.5,1.51-.19-.19,1.5-1.5-1.03-.98-1.65,1.65-.19-.19,1.65-1.64-1.13-1.08-1.66,1.64-.19-.19,1.65-1.64-.96-.92-.85.85-.19-.19.84-.85-1.27-1.22.03-.03-.06-.06,1.15-1.14-.73-.73.19-.19.73.73,1.05-1.04-1.02-1-.76.75-.19-.19.76-.75-.27-.27.19-.19.27.27,1.07-1.06-.81-.82.19-.19.81.82,1.06-1.05-1.24-1.25.19-.19.08.08.97-.97-.43-.43.19-.19.43.43,1.07-1.06-.87-.87.19-.19.88.88.98-.97-1-.99-.4.4-.19-.19.4-.39-.04-.04.19-.19.04.04,1.02-1.02-.3-.3.19-.19.3.3,1.01-1-.65-.65.19-.19.65.65,1.01-1-.77-.76.19-.19.77.77,1.03-1.03-1.01-1.02.19-.19,1.01,1.02,1.01-1-1.1-1.09-.72.7-.19-.19.72-.69h-.01s.19-.2.19-.2l.02.02,1-.97-.23-.23.19-.19.24.23,1.12-1.08-.43-.44.19-.19.43.44.96-.92-.37-.37.19-.19.38.37,1.08-1.05-.34-.35.19-.19.35.35.99-.95-.06-.06.19-.19.06.06,1.2-1.15.19.19-1.19,1.15,1,1,1.06-1.05-.89-.89.19-.19.9.89.88-.87-.49-.48.19-.19.49.49,1.18-1.17.1.1.1-.1,1.08,1.08,1.02-1.01-.13-.13.19-.19.13.13.17-.17.19.19-.17.17,1.03,1.03,1.07-1.06.09.09.09-.09,1.1,1.07.67-.66.19.19-.67.66.96.94.92-.92.19.19-.92.92,1.11,1.08.96-.95.19.19-.95.95,1.05,1.02.94-.93.19.19-.93.93.93.9.99-1,.19.19-.99.99,1.07,1.04.76-.76.19.19-.76.75,1.1,1.07.4-.4.19.19-.4.39.86.84-.19.19-.86-.84-1.08,1.07.96.96,1-.99.19.19-1,.99.97.96.04-.04.19.19-1.24,1.23,1.05,1.05-.19.19-1.05-1.05-1.03,1.02,1.03,1.01.65-.65.19.19-.65.65.37.37-.19.19-.37-.37-.92.92.63.62-.19.19-.63-.62-1.09,1.1.96.96-.19.19-.96-.96-1.03,1.03,1.04,1.04-.19.19-1.04-1.04-.91.92,1.29,1.27-.19.19-1.29-1.27-1.1,1.11,1.3,1.32-.19.19-1.3-1.31-.95.95,1.29,1.28-.19.19-1.29-1.28-1.03,1.04,1.17,1.17-.19.19-1.17-1.17-1.06,1.07.89.89-.19.19-.88-.89-.94.94.71.7-.19.19-.71-.7-1.05,1.05.47.47-.19.19-.47-.47-.98.99.08.08-.19.19-.08-.08-.63.63-.19-.19.63-.63-1.11-1.1-1,1,1,.99-.19.19-1-1-1.02,1.01.68.68-.19.19-.68-.68-1.02,1.02.36.35-.19.19-.36-.35-.76.75-.19-.19.76-.75-.99-.98-1.03,1.02.96.97-.19.19-.96-.97-1.07,1.06.62.63-.19.19-.62-.63-.91.91-.19-.19.91-.9-.93-.94-.96.95,1.13,1.1-.19.19-1.13-1.11-1.11,1.1.5.5-.19.19-.5-.5-.63.62-.19-.19.63-.62-1.11-1.1-.87.86,1.38,1.32-.19.19Zm-.14-2.57l1.11,1.1,1.11-1.1-1.11-1.09-1.1,1.09Zm-2.19-.03l.94.9.87-.87-.92-.92-.88.89Zm1.07-1.08l.93.92,1.1-1.09-.94-.92-1.09,1.09Zm2.41-.17l1.11,1.09.96-.95-1.1-1.1-.97.97Zm2.45.14l.93.94,1.07-1.06-.93-.94-1.07,1.06Zm-7.15-.06l1.03.98.89-.89-1-1-.91.91Zm1.1-1.1l1,1,1.09-1.09-1.01-.99-1.08,1.08Zm4.76-.14l1.1,1.1,1.07-1.06-1.1-1.1-1.07,1.06Zm-7.19-.03l1.13,1.08.92-.91-1.1-1.1-.94.93Zm9.73.07l.93.94,1.03-1.02-.94-.93-1.03,1.02Zm-4.84,0l.94.92.98-.97-.93-.94-.98.99Zm7.19-.09l.99.98,1.02-1.02-.99-.99-1.03,1.02Zm-10.95-1.11l1.1,1.1,1.08-1.08-1.11-1.09-1.07,1.06Zm2.56.02l1.01.99.98-.99-.99-1-1,1Zm4.75-.12l1.1,1.1,1.02-1.02-1.1-1.1-1.02,1.01Zm-2.38.12l.93.94,1.07-1.06-.94-.94-1.06,1.06Zm-7.22,0l.96.92.94-.94-.94-.94-.96.96Zm12.1-.03l.94.93,1.03-1.02-.94-.94-1.03,1.03Zm2.35-.09l.98.99,1.02-1.01-.99-.98-1.01,1.01Zm-10.91-1.15l1.11,1.09,1-1-1.09-1.1-1.02,1.01Zm-4.88,0l1.14,1.09.96-.96-1.11-1.11-.99.98Zm7.37.09l.99,1,1.06-1.06-.99-.99-1.06,1.06Zm-4.89.03l.95.94,1.07-1.06-.96-.94-1.06,1.06Zm9.66-.17l1.1,1.1,1.03-1.03-1.1-1.1-1.04,1.03Zm7.22-.02l1.11,1.1.98-.99-1.1-1.1-.99.99Zm-9.56.08l.94.94,1.02-1.01-.95-.94-1.01,1.01Zm4.86,0l.94.94,1.01-1.01-.94-.94-1.01,1Zm2.33-.07l.99.98,1-1-.98-.98-1.01,1Zm-15.81-1.13l1.11,1.11,1.06-1.06-1.11-1.09-1.05,1.05Zm4.91-.03l1.09,1.1,1.06-1.06-1.09-1.09-1.06,1.05Zm14.45-.04l1.1,1.09,1.05-1.05-1.09-1.08-1.05,1.04Zm-7.18-.03l1.1,1.1,1.01-1-1.1-1.09-1.01,1Zm-4.75.11l.99.99,1.01-1.01-.99-.98-1.01,1Zm-4.89.03l.96.94,1.02-1.01-.95-.96-1.03,1.03Zm12.13-.04l.94.94,1.01-1-.94-.94-1.01,1Zm-4.86-.01l.95.95,1.04-1.03-.95-.95-1.04,1.04Zm7.19-.05l.98.98.99-.99-.98-.98-.99.99Zm-15.76-1.18l1.11,1.09,1.03-1.03-1.09-1.1-1.05,1.04Zm4.92-.04l1.09,1.09,1-1-1.09-1.09-1,.99Zm7.22,0l1.1,1.09,1.01-1-1.1-1.1-1.01,1Zm-4.75.1l.99.98,1.04-1.04-.98-.98-1.04,1.04Zm11.96-.12l1.09,1.08.94-.95-1.08-1.08-.95.95Zm-16.84.12l.96.96,1.06-1.05-.96-.97-1.05,1.06Zm12.11,0l.94.94.99-.99-.94-.94-.99.99Zm2.32-.05l.98.98,1.05-1.04-.98-.98-1.05,1.04Zm-7.15,0l.96.96,1.01-1-.96-.96-1,1Zm10.7-1.19l1.08,1.08,1.06-1.07-1.08-1.07-1.06,1.05Zm-14.39-.02l1.09,1.09,1.04-1.04-1.09-1.09-1.05,1.04Zm-4.87-.01l1.09,1.1,1.05-1.06-1.08-1.09-1.06,1.05Zm12.1,0l1.1,1.09.99-.99-1.1-1.1-1,.99Zm2.47.11l.94.94,1.05-1.04-.95-.94-1.04,1.04Zm-17.02-.06l1.02,1,1.05-1.04-1-1.01-1.07,1.05Zm9.83.01l.98.98,1-1-.98-.97-1,.99Zm-4.86-.02l.96.97,1-.99-.98-.97-.99.99Zm7.22,0l.97.96,1.01-1-.97-.97-1.01,1.01Zm7.2-.03l.98.98.95-.95-.98-.98-.96.95Zm-3.66-1.19l1.1,1.1,1.04-1.03-1.1-1.09-1.04,1.03Zm-7.17-.04l1.09,1.09,1-.99-1.09-1.08-.99.99Zm14.4.01l1.08,1.07,1.03-1.03-1.07-1.06-1.03,1.03Zm-11.94.08l.98.97,1.01-1.01-.98-.97-1.01,1.01Zm-7.32-.11l1.08,1.09.99-.99-1.08-1.07-.99.98Zm16.84.1l.98.98,1.06-1.05-.98-.98-1.06,1.05Zm-14.39-.01l.98.97,1.05-1.04-.98-.98-1.05,1.05Zm12.1.02l.95.94.96-.95-.94-.95-.97.96Zm-16.99-.07l1,1.01,1.06-1.05-1-1.01-1.06,1.05Zm12.13.04l.97.97,1-.99-.97-.97-.99,1Zm3.57-1.24l1.1,1.09.97-.96-1.09-1.1-.97.97Zm-7.22,0l1.09,1.08,1.01-1.01-1.08-1.08-1.02,1.01Zm9.66.12l.94.95,1.06-1.05-.95-.95-1.05,1.05Zm-14.53-.13l1.08,1.07,1.05-1.05-1.07-1.07-1.06,1.05Zm7.34.09l.98.97.99-1-.97-.97-1,.99Zm11.96-.1l1.07,1.06.95-.95-1.05-1.06-.96.96Zm-9.61.08l.98.97,1.04-1.03-.98-.98-1.03,1.03Zm7.22-.03l.98.98,1.03-1.02-.98-.97-1.03,1.02Zm-14.4-.02l.98.98.99-.99-.99-.98-.98.99Zm-4.88-.05l1,1.01.99-.98-1.01-1-.98.97Zm15.62-1.13l1.09,1.1,1.05-1.05-1.1-1.09-1.05,1.04Zm7.21,0l1.05,1.06,1.1-1.1-1.06-1.05-1.09,1.09Zm-14.39-.02l1.08,1.08,1-.99-1.08-1.08-1,.99Zm2.46.08l.97.97,1.03-1.03-.97-.96-1.03,1.03Zm7.24,0l.95.95,1.03-1.02-.95-.94-1.02,1.02Zm-14.52-.14l1.07,1.07.98-.99-1.07-1.06-.99.98Zm2.43.08l.99.98,1.02-1.01-1-.99-1.01,1.01Zm7.22,0l.98.98.98-.97-.98-.99-.98.98Zm-12.11-.03l1.01,1,1.06-1.05-1-1-1.07,1.06Zm19.33.01l.98.97.97-.96-.97-.98-.98.97Zm-21.66-.02l.97.98.98-.97-.98-.97-.98.97Zm10.8-1.17l1.08,1.08,1.03-1.03-1.08-1.07-1.03,1.02Zm7.22-.02l1.1,1.09,1.02-1.02-1.1-1.09-1.02,1.01Zm-2.41.05l.98.99,1.05-1.04-.99-.99-1.04,1.04Zm-9.64-.07l1.07,1.06,1.01-1.01-1.06-1.05-1.02,1.01Zm7.32.09l.97.96.98-.98-.96-.96-.99.98Zm9.55-.02l.97.98,1.09-1.09-.98-.97-1.08,1.07Zm-2.31.02l.95.95.98-.97-.95-.96-.99.98Zm-12.1-.05l1,.99,1-.99-1-1-1,1Zm-7.25.01l.98.97,1.07-1.06-.98-.98-1.07,1.06Zm24.11-.09l1.06,1.04.92-.92-1.04-1.05-.93.93Zm-21.68,0l1,1,.99-.98-1.01-1-.98.97Zm15.64-1.15l1.1,1.09.99-.98-1.09-1.1-1,.99Zm-7.22.01l1.08,1.07.99-.98-1.07-1.07-1,.99Zm14.38.02l1.04,1.05,1.03-1.03-1.04-1.04-1.03,1.02Zm-11.94.07l.96.96,1.04-1.04-.96-.96-1.04,1.03Zm7.24,0l.95.96,1.08-1.07-.96-.95-1.07,1.06Zm-14.52-.13l1.06,1.05,1-1-1.05-1.05-1,.99Zm2.43.05l1,1,1.03-1.02-1.01-1-1.02,1.02Zm7.23,0l.99.99,1.02-1.01-1-.99-1.01,1.02Zm-12.07-.03l1.01,1,1.02-1.01-1-1-1.02,1.01Zm-2.34,0l.98.98.98-.97-.99-.98-.98.97Zm21.68,0l.98.97.93-.93-.97-.98-.94.94Zm-3.68-1.17l1.09,1.1,1.07-1.06-1.1-1.09-1.06,1.05Zm-7.22.02l1.07,1.07,1.04-1.03-1.07-1.07-1.03,1.03Zm14.42-.02l1.03,1.03,1.09-1.1-1.03-1.02-1.1,1.09Zm-19.25-.02l1.05,1.05,1.02-1.02-1.04-1.04-1.02,1.01Zm16.87.07l.97.98,1.03-1.02-.97-.97-1.03,1.02Zm-9.55.01l.96.96,1.01-1.02-.96-.95-1.01,1.01Zm-4.87-.06l1.01,1,1-.99-1.01-1.02-1,1Zm7.23,0l1,.99,1-.99-1-1.01-1,1.01Zm-14.45,0l.99.98,1.02-1.01-.99-.98-1.02,1.01Zm19.37.03l.96.95.95-.94-.95-.96-.95.95Zm-16.98-.06l1,1,1-1-1-1-1.01,1Zm8.45-1.17l1.07,1.07,1.01-1.01-1.07-1.06-1.01,1Zm9.67.09l.95.96,1.03-1.02-.96-.96-1.02,1.02Zm-2.43-.14l1.1,1.09.95-.95-1.09-1.09-.97.96Zm-9.67.05l1.01,1.02,1.03-1.03-1.02-1.02-1.02,1.03Zm-9.6.01l1,.99,1.02-1.01-.99-.99-1.02,1.02Zm7.18-.05l1.04,1.03,1-1-1.03-1.03-1.01,1Zm16.88.06l.97.97,1.1-1.09-.97-.97-1.1,1.09Zm-7.22-.04l1,1.01,1.06-1.05-1.02-1.01-1.04,1.04Zm-2.34.06l.96.95,1.01-1.01-.95-.95-1.02,1.01Zm-9.71-.07l1,1,1.02-1.01-1-1-1.02,1.01Zm-2.38,0l.99.99,1.01-1-.99-.99-1,1Zm24.1-.08l1.03,1.02.92-.92-1.03-1.01-.92.91Zm-6.08-1.11l1.09,1.09,1.02-1.01-1.09-1.09-1.02,1.01Zm-7.2,0l1.07,1.06,1.02-1.02-1.06-1.07-1.03,1.02Zm9.68.08l.96.96,1.09-1.09-.96-.95-1.09,1.08Zm-14.53-.11l1.03,1.03,1.02-1.03-1.03-1.02-1.03,1.02Zm2.43,0l1.02,1.02,1.01-1-1.03-1.02-1,1.01Zm4.89.06l.94.95,1.04-1.04-.95-.94-1.03,1.03Zm-14.48-.04l.99.99,1-1-.99-.99-1.01,1Zm2.38,0l.99.99,1.02-1.01-1-.99-1.01,1.01Zm2.39-.02l1,1,1.01-1-1-1-1.02,1.01Zm12.08-.03l1.02,1.01.97-.96-1.01-1.02-.97.98Zm7.28,0l.97.97.92-.91-.98-.96-.92.91Zm-3.71-1.15l1.09,1.09,1.09-1.08-1.09-1.09-1.09,1.08Zm-7.18-.02l1.06,1.07,1.03-1.03-1.07-1.05-1.02,1.01Zm12,.07l.97.96,1.03-1.02-.97-.97-1.04,1.03Zm-7.23-.07l1.01,1.02,1.02-1.01-1.02-1.02-1.01,1.01Zm-7.22,0l1.03,1.03,1.03-1.03-1.03-1.04-1.04,1.04Zm-9.59.03l.99.99,1.01-1.01-1-.99-1.01,1Zm2.38-.02l1,.99,1.02-1.01-.99-1-1.02,1.02Zm4.8-.03l1.03,1.02,1-1.01-1.02-1.01-1.01,1Zm-2.4.01l1,1,1.03-1.02-1-1-1.02,1.01Zm9.73.04l.95.94.97-.98-.94-.95-.99.98Zm7.27-.02l.96.95.92-.91-.97-.95-.91.91Zm1.1-1.1l.97.95,1.04-1.03-.96-.96-1.04,1.03Zm-9.63-.13l1.06,1.05.99-.98-1.05-1.06-1,.99Zm7.24-.05l1.09,1.09.91-.91-1.09-1.08-.91.9Zm-19.3.09l1,.99,1.02-1.02-.99-.99-1.03,1.02Zm16.81-.04l1.02,1.02,1.09-1.08-1.03-1.03-1.08,1.08Zm7.26.05l.97.97,1.01-1-.97-.96-1.01,1Zm-9.58.02l.94.94,1.01-1.01-.94-.94-1.01,1Zm-7.3-.07l1.02,1.01,1.04-1.04-1.01-1.01-1.06,1.05Zm2.44-.03l1.03,1.04,1.02-1.01-1.05-1.04-1,1.01Zm-7.22.04l1,1,1.02-1.01-1-1-1.01,1.01Zm2.4-.01l1,1,1.01-1-1-.99-1,.99Zm15.6-1.14l1.09,1.08,1.04-1.03-1.09-1.08-1.05,1.04Zm-7.15-.04l1.05,1.06,1.01-1-1.05-1.05-1,1Zm9.67.09l.96.96,1.01-1-.96-.96-1.01,1Zm-21.69-.08l.99.99,1.01-1.01-.99-.99-1.01,1Zm14.46.05l.94.94,1.08-1.08-.94-.93-1.08,1.07Zm-4.87-.11l1.05,1.04,1-.99-1.05-1.05-1.01,1.01Zm-4.82.05l1,.99,1.06-1.05-.99-1-1.07,1.06Zm-2.39,0l1,1,1-.99-1.01-1-1,.99Zm4.82-.05l1,1.01,1-1-1.01-1-1,.99Zm9.65-.03l1.03,1.03.91-.9-1.04-1.03-.9.9Zm3.56-1.1l1.09,1.08,1.01-1-1.09-1.08-1.01,1Zm-7.19,0l1.05,1.05,1.08-1.07-1.05-1.05-1.08,1.07Zm4.72,0l1.04,1.03,1.05-1.04-1.04-1.04-1.05,1.05Zm-14.37-.01l1.01,1,1.07-1.06-1-1.01-1.08,1.07Zm7.22-.06l1.05,1.06,1-.99-1.06-1.06-.99,1Zm-9.59.06l.99.99,1-.99-.99-.98-.99.99Zm7.19-.05l1.01,1,1.01-1.01-.99-1-1.02,1.01Zm-2.37-.01l.99,1,1-.99-1-.99-.99.98Zm9.7.04l.94.93.9-.9-.94-.92-.9.9Zm5.89-1.18l1.09,1.08,1.07-1.07-1.1-1.07-1.06,1.05Zm-4.8.09l.93.92,1.05-1.05-.93-.92-1.05,1.05Zm-4.85-.14l1.06,1.06,1.08-1.07-1.07-1.06-1.07,1.07Zm-12.05-.03l1.09,1.09.99-.99-1.08-1.07-1.01.97Zm19.26.05l1.05,1.04,1.01-1-1.05-1.05-1.01,1.01Zm-16.79.05l.99.98,1.08-1.07-.98-.99-1.09,1.08Zm12.1-.08l1.05,1.05.9-.89-1.05-1.04-.9.89Zm-7.28.03l1,.99,1.03-1.02-.99-1-1.04,1.02Zm-2.37-.04l1,1.01.98-.97-1.02-1-.97.97Zm4.77.01l.99,1,.99-1-.99-.99-.99.99Zm5.96-1.08l1.05,1.04,1.05-1.05-1.05-1.04-1.06,1.05Zm-14.45-.1l1.08,1.07,1.09-1.08-1.05-1.06-1.12,1.08Zm19.26,0l1.05,1.05,1.06-1.05-1.07-1.04-1.04,1.04Zm-14.38.01l1.02,1.01,1.04-1.03-1.01-1.02-1.04,1.04Zm12.06.07l.93.92,1.01-1.01-.92-.92-1.01,1.01Zm-7.27-.08l.99.99,1.07-1.07-.98-.98-1.07,1.06Zm-2.36-.01l.99,1,.99-.98-.99-.99-.99.98Zm4.8-.07l1.07,1.06.9-.89-1.08-1.06-.89.89Zm-9.56.06l.98.99.97-.96-.99-.98-.96.95Zm10.64-1.14l1.08,1.07,1.06-1.05-1.08-1.08-1.06,1.06Zm2.52.01l1.05,1.04,1.01-1.01-1.04-1.04-1.02,1.01Zm-12.01-.01l.99.98,1.05-1.04-.98-.99-1.06,1.05Zm4.8-.02l.99.99,1.07-1.06-1-.99-1.07,1.06Zm9.65.07l.92.92,1.04-1.04-.93-.91-1.03,1.03Zm-12.03-.1l1.01,1.02.99-.98-1.02-1.02-.98.98Zm-4.8-.05l1.05,1.06.96-.95-1.05-1.03-.96.93Zm9.63.02l.98.98.89-.89-.98-.97-.89.88Zm5.98-1.1l1.04,1.04,1.03-1.02-1.05-1.02-1.02,1.01Zm-2.48-.07l1.08,1.08,1.02-1.01-1.09-1.08-1.01,1.01Zm-2.42.1l.98.97,1.06-1.06-.97-.96-1.07,1.06Zm-9.55-.07l1.04,1.03,1.06-1.05-1.02-1.02-1.08,1.04Zm4.82,0l1.02,1.02,1.07-1.05-1.02-1.02-1.06,1.05Zm-2.35-.01l.98.99.98-.98-.99-.99-.98.97Zm4.81-.02l1,.99.89-.88-1-.99-.89.88Zm1.08-1.06l1,.99,1.07-1.06-.99-.99-1.08,1.07Zm4.81-.13l1.09,1.09,1.02-1.01-1.11-1.08-1,1Zm-9.52.06l.99.99,1.06-1.05-.99-.98-1.06,1.05Zm-2.37-.05l1.01,1.02.98-.97-1-1-.99.95Zm9.54.05l.97.96,1.01-1.01-.96-.96-1.02,1.01Zm-4.74-.07l1.02,1.02.88-.88-1.03-1.02-.88.87Zm1.07-1.06l1.03,1.02,1.08-1.07-1.03-1.02-1.08,1.07Zm2.49-.05l.99.99,1.02-1.01-.99-.99-1.02,1.01Zm2.39-.02l.96.96.99-1-.96-.94-.99.98Zm-7.13-.04l.99.98.88-.87-.99-.98-.88.87Zm1.07-1.06l.99.98,1.08-1.07-.99-.98-1.08,1.08Zm2.45-.1l1.03,1.03,1.02-1.01-1.03-1.03-1.02,1.01Zm2.43.02l.99.99.99-.98-1-.98-.97.96Z"/>
              </g>
            </g>
          </g>
        </g>
      </g>
    </g>
  </g>
</svg>