<?xml version="1.0" encoding="UTF-8"?>
<svg id="AC_icons" data-name="AC icons" xmlns="http://www.w3.org/2000/svg" viewBox="0 0 64 64">
  <defs>
    <style>
      .cls-1 {
        fill: #061a2f;
        stroke-width: 0px;
      }
    </style>
  </defs>
  <g id="Informational_icons" data-name="Informational icons">
    <g id="S">
      <g id="steam-sauna">
        <g id="Steam_sauna" data-name="Steam sauna">
          <path class="cls-1" d="m61.49,47.99c1.4.02,2.53,1.17,2.51,2.57v5.85c.02,1.4-1.1,2.56-2.5,2.57,0,0,0,0-.01,0h-20.97c-1.4-.02-2.53-1.17-2.51-2.57v-5.86c-.01-1.4,1.11-2.56,2.51-2.57h20.97m-41.74,0c1.38.05,2.54-1.03,2.59-2.41.05-1.38-1.03-2.54-2.41-2.59-.06,0-.12,0-.18,0H2.59c-1.38-.05-2.54,1.03-2.59,2.41-.05,1.38,1.03,2.54,2.41,2.59.06,0,.12,0,.18,0h17.16M15,15c2.76,0,5-2.23,5.01-4.99,0-2.76-2.23-5-4.99-5.01-2.76,0-5,2.23-5.01,4.99,0,0,0,0,0,0,0,2.76,2.23,5,4.99,5m28.72,19.67c-1.83-3.12-1.82-6.12.03-9.12l-2-1.21c-2.32,3.78-2.32,7.68-.02,11.56l.04.05.04.06c2.02,2.64,2.34,5.28.97,8.08l2.11,1.02c1.76-3.58,1.37-7.11-1.16-10.44h-.01Zm6.28.05c-1.98-4.35-1.93-8,.13-11.17l-1.97-1.26c-2.51,3.86-2.57,8.39-.23,13.49l.13.23c2.02,2.64,2.34,5.28.97,8.08l2.11,1.02c1.76-3.58,1.38-7.07-1.12-10.41h-.01Zm6.2-.07c-2.28-3.54-2.31-6.47-.09-8.93l-1.74-1.55c-2.06,2.29-3.74,6.18-.12,11.78l.05.07c2.03,2.64,2.34,5.28.97,8.08l2.11,1.02c1.78-3.6,1.38-7.11-1.17-10.46h0Zm-20.6,15.77s-4.79-12.85-4.83-12.92c-.47-1.21-1.4-1.5-2.79-1.5h-10.98v-9.99c1.67,2.42,4.07,5.15,5.61,7.4.84,1.2,2.48,1.51,3.7.7,1.19-.78,1.53-2.37.75-3.56-.01-.02-.02-.03-.03-.05-8.23-12.02-8.34-12.12-8.58-12.36-.64-.64-2.04-1.15-4.26-1.15h-2c-2.81-.03-5.12,2.23-5.15,5.04v14.86c0,2.57,1.8,4.44,4.15,4.9.3.06.61.09.92.09h13.75l3.94,10.59c.46,1.2,1.61,2,2.9,2,.36,0,.72-.06,1.06-.19,1.57-.54,2.41-2.25,1.88-3.82,0-.02-.01-.04-.02-.06h-.02Z"/>
        </g>
      </g>
    </g>
  </g>
</svg>