<?xml version="1.0" encoding="UTF-8"?>
<svg id="AC_icons" data-name="AC icons" xmlns="http://www.w3.org/2000/svg" viewBox="0 0 64 64">
  <defs>
    <style>
      .cls-1 {
        fill: #061a2f;
        stroke-width: 0px;
      }
    </style>
  </defs>
  <g id="Informational_icons" data-name="Informational icons">
    <g id="S">
      <g id="steep-gradient">
        <g id="Steep_Gradient" data-name="Steep Gradient">
          <path class="cls-1" d="m52.64,48.47c0,3.03,2.46,5.49,5.49,5.49s5.49-2.46,5.49-5.49-2.46-5.49-5.49-5.49c-3.03,0-5.49,2.45-5.49,5.48,0,0,0,0,0,.01Z"/>
          <path class="cls-1" d="m55.72,40.92h4.79l3.32-21.15c.74-5.16-.74-9.72-6.02-9.72s-6.63,4.43-6.02,9.59l3.93,21.28Z"/>
          <path class="cls-1" d="m41.88,19.95c1.82-.01,3.28-1.5,3.26-3.32-.01-1.82-1.5-3.28-3.32-3.26-1.82.01-3.28,1.5-3.26,3.32.02,1.82,1.5,3.28,3.32,3.27Z"/>
          <path class="cls-1" d="m17.07,30.43c3.19-4.17,2.39-10.14-1.78-13.34-4.17-3.19-10.14-2.39-13.34,1.78-3.19,4.17-2.39,10.14,1.78,13.33,4.17,3.19,10.14,2.39,13.34-1.78,0,0,0,0,0,0ZM3.69,20.22c2.45-3.21,7.05-3.83,10.26-1.38,3.21,2.45,3.83,7.05,1.38,10.26s-7.05,3.83-10.26,1.38c0,0,0,0,0,0-3.21-2.45-3.83-7.04-1.38-10.25,0,0,0,0,0,0h0Z"/>
          <path class="cls-1" d="m15.74,32.18c-.67.89-.75,2.2.15,2.88h0c.89.67,2.08.23,2.75-.67l1.33-1.75c.2.04,9.23-1.24,9.23-1.24,2.05-.28,1.66-1.87,1.66-1.87l-.98-6.86,5.66-.07-.86,9.92c-4.97-1.68-10.36.98-12.04,5.95-1.68,4.97.98,10.36,5.95,12.04,4.97,1.68,10.36-.98,12.04-5.95,1.31-3.87,0-8.14-3.25-10.61-.09-.07-.18-.12-.27-.18.11-.19.19-.4.23-.62l1.19-13.59c.02-.23-.02-.46-.12-.67-.11-.45-.35-.86-.68-1.19-.52-.59-1.29-.9-2.08-.85.02,0-8.21.16-9.4.32-1.03.14-1.59.91-1.91,1.3-.44.59-3.27,6.71-3.27,6.71l-3.11,4.09-.89,1.16-.89,1.16-.44.58Zm20.32,3.54c3.21,2.45,3.83,7.05,1.38,10.26-2.45,3.21-7.05,3.83-10.26,1.38-3.21-2.45-3.83-7.05-1.38-10.26,0,0,0,0,0,0,2.45-3.21,7.04-3.83,10.26-1.38h0Zm-11.64-8.88l1.64-3.35,1.13,4.55-4.1.55s1.28-1.64,1.33-1.75Z"/>
        </g>
      </g>
    </g>
  </g>
</svg>