<?xml version="1.0" encoding="UTF-8"?>
<svg id="AC_icons" data-name="AC icons" xmlns="http://www.w3.org/2000/svg" viewBox="0 0 64 64">
  <defs>
    <style>
      .cls-1 {
        fill: #061a2f;
        stroke-width: 0px;
      }
    </style>
  </defs>
  <g id="Informational_icons" data-name="Informational icons">
    <g id="S">
      <g id="steep-slope">
        <g id="Steep_Slope" data-name="Steep Slope">
          <path class="cls-1" d="m40.34,64c5.89,0,11.69-1.41,16.92-4.13-1.09-1.1-2.32-2.07-3.64-2.88-2.78-1.67-5.06-.71-7.11-3.57s-4.82-4.86-8.92-7.02c-4.1-2.16-16.83-4.33-19.15-5.95-4.67-3.24-11.4-5.49-14.11-6.31,3.27,17.32,18.4,29.86,36.02,29.86Z"/>
          <path class="cls-1" d="m49.42,38.87c0,2.74,2.22,4.96,4.96,4.96,2.74,0,4.96-2.22,4.96-4.96,0-2.74-2.22-4.96-4.96-4.96h0c-2.73,0-4.95,2.21-4.96,4.95,0,0,0,0,0,.01Z"/>
          <path class="cls-1" d="m52.2,32.04h4.33l3-19.11c.66-4.66-.67-8.77-5.43-8.77s-5.99,4-5.43,8.66l3.54,19.22Z"/>
          <g id="Walking_pedestrian_access_access" data-name="Walking pedestrian access access">
            <path class="cls-1" d="m35.98.13c1.86.51,2.95,2.43,2.44,4.29-.51,1.86-2.43,2.95-4.29,2.44-1.86-.51-2.95-2.43-2.44-4.29,0,0,0,0,0,0,.51-1.86,2.43-2.95,4.29-2.44"/>
            <path class="cls-1" d="m39.87,22.37c-.56.62-1.52.66-2.14.1,0,0,0,0,0,0l-3.37-3.08c-.8-.74-1.33-1.73-1.48-2.81l-.29-1.5-3.25,6.05,5.12,16.84c.31,1.29-.48,2.58-1.77,2.89-1.18.29-2.39-.36-2.81-1.49l-4.62-15.13c-.53,1.01-1.08,1.98-1.55,2.98-.57,1.2-1.37,2.28-2.36,3.18l-5.32,5.12c-.95.92-2.47.89-3.38-.07-.92-.95-.89-2.47.07-3.38h0l4.98-4.8c.8-.77,1.48-1.66,2-2.64l6.64-12.46-2.29,1.01c-.32.14-.58.38-.74.69l-2.44,4.57c-.36.76-1.26,1.08-2.02.72s-1.08-1.26-.72-2.02c.02-.04.04-.08.06-.12l2.71-5.08c.41-.77,1.08-1.39,1.88-1.74l6.94-3.02c2.23-.97,4.46.19,4.94,2.57l1.43,7.07,3.7,3.39c.62.56.66,1.52.1,2.14,0,0,0,0,0,0"/>
          </g>
        </g>
      </g>
    </g>
  </g>
</svg>