<?xml version="1.0" encoding="UTF-8"?>
<svg id="AC_icons" data-name="AC icons" xmlns="http://www.w3.org/2000/svg" viewBox="0 0 64 64">
  <defs>
    <style>
      .cls-1 {
        fill: #061a2f;
        stroke-width: 0px;
      }
    </style>
  </defs>
  <g id="Informational_icons" data-name="Informational icons">
    <g id="S">
      <g id="step">
        <path class="cls-1" d="m12.08,45c-.51-1.21-.91-2.53-1.42-3.74-.2-.71-.4-1.42-.71-2.12-.3-.71-.4-1.42-.61-2.12-.3-1.31-.61-2.53-.91-3.84-.2-.91-.3-1.82-.51-2.83-.1-.71-.2-1.42-.2-2.12s-.1-1.52-.1-2.33c0-1.01.1-2.12.2-3.13.1-.61.2-1.21.4-1.82.3-1.11.61-2.12,1.11-3.13.2-.51.51-1.01.81-1.52s.61-.91,1.01-1.42c.4-.61.91-1.11,1.42-1.52.4-.4.81-.71,1.21-1.01.4-.2.71-.51,1.11-.61.4-.2.91-.4,1.42-.51.3-.1.51-.1.81-.2.3-.1.61-.1.91-.1,1.31,0,2.63.2,3.84.81.3.1.51.3.81.4l.61.4c.4.3.71.61,1.01.91.3.3.61.71.81,1.01.3.4.61.81.91,1.21.3.51.51,1.01.81,1.52.3.51.4,1.01.61,1.52.4,1.01.61,2.12.81,3.13.1.61.2,1.11.3,1.72.1.81.1,1.62.1,2.53,0,1.21,0,2.53-.1,3.74,0,.3-.1.71-.1,1.01-.1.71-.2,1.52-.3,2.22-.1.71-.3,1.62-.3,2.53-.1.71-.1,1.31-.1,2.02v2.02c0,1.01.2,2.02.3,3.03.1.61.2,1.21.3,1.82l-14.66,4.25c-.61-1.21-1.11-2.43-1.62-3.74Zm39.84-10.62c.51-1.21.91-2.43,1.42-3.74.2-.71.51-1.42.71-2.12s.4-1.42.61-2.12c.3-1.31.61-2.53.91-3.84.2-.91.3-1.82.51-2.83.1-.71.2-1.42.2-2.12s.1-1.52.1-2.33c0-1.01-.1-2.02-.2-3.13-.1-.61-.2-1.21-.3-1.82-.3-1.11-.61-2.12-1.11-3.13-.2-.51-.51-1.01-.81-1.52s-.61-1.01-.91-1.42c-.4-.61-.91-1.11-1.52-1.62-.4-.4-.81-.71-1.21-1.01s-.81-.51-1.21-.71-.91-.4-1.42-.61c-.3-.1-.51-.1-.81-.2-.3-.1-.61-.1-.91-.1-.61,0-1.31,0-1.92.2-.61.1-1.31.3-1.92.61-.3.1-.51.3-.81.4-.2.1-.4.3-.61.4-.4.3-.71.61-1.01.91-.3.3-.61.61-.81,1.01-.3.4-.61.81-.91,1.21-.3.51-.51,1.01-.81,1.52-.2.51-.4,1.01-.61,1.52-.4,1.01-.61,2.12-.81,3.24-.1.61-.2,1.11-.3,1.72-.1.81-.1,1.62-.2,2.53,0,1.21,0,2.53.2,3.74,0,.3,0,.71.1,1.01.1.71.2,1.52.3,2.22s.2,1.72.3,2.63c.1.61.1,1.31.1,2.02v2.02c-.1,1.01-.2,2.02-.3,3.03-.1.61-.2,1.21-.3,1.82l14.66,4.35c.61-1.21,1.11-2.43,1.62-3.74ZM15.01,54.4c.81,2.43,2.12,4.75,3.84,6.67,1.52,1.72,4.15,3.54,6.67,2.73s3.74-3.84,3.94-6.17c.3-2.63.1-5.26-.71-7.68-.1-.4-.3-.51-.71-.4l-12.74,4.15c-.4,0-.4.3-.3.71Zm33.67-11.32l-12.74-4.15c-.4-.1-.61,0-.71.4-.81,2.43-.91,4.95-.51,7.48.4,2.33,1.52,4.95,4.04,5.76,2.53.81,4.95-.81,6.57-2.43,1.72-1.82,3.03-3.94,3.84-6.37,0-.4-.1-.61-.51-.71Z"/>
      </g>
    </g>
  </g>
</svg>