<?xml version="1.0" encoding="UTF-8"?>
<svg id="AC_icons" data-name="AC icons" xmlns="http://www.w3.org/2000/svg" viewBox="0 0 64 64">
  <defs>
    <style>
      .cls-1 {
        fill: #061a2f;
        stroke-width: 0px;
      }
    </style>
  </defs>
  <g id="Informational_icons" data-name="Informational icons">
    <g id="S">
      <g id="street-trading">
        <g>
          <path class="cls-1" d="m9.39,37.68c0,.53.42.95.95.95h0c.52,0,.95-.42.95-.94h0c0-.53-.42-.96-.95-.96-.53,0-.95.42-.95.95Z"/>
          <path class="cls-1" d="m13.08,36.74c-.53,0-.95.42-.95.95,0,.53.42.95.95.95h0c.52,0,.95-.42.95-.95,0-.53-.42-.95-.95-.95Z"/>
          <path class="cls-1" d="m15.79,38.64h.01c.52,0,.95-.43.95-.95,0-.53-.42-.96-.95-.96s-.96.42-.96.95c0,.53.42.96.95.96Z"/>
          <path class="cls-1" d="m18.52,38.64h0c.52,0,.94-.42.94-.94h0c0-.53-.42-.95-.95-.95s-.95.42-.95.95.42.95.95.95Z"/>
          <path class="cls-1" d="m20.3,37.68c0,.53.42.95.95.95h0c.52,0,.95-.42.95-.95,0-.53-.42-.95-.95-.95-.53,0-.95.42-.95.95Z"/>
          <path class="cls-1" d="m10.75,34.95c0,.53.42.96.95.96h0c.52,0,.95-.42.95-.94h0c0-.53-.42-.96-.95-.96-.53,0-.96.42-.96.95Z"/>
          <path class="cls-1" d="m14.43,35.91c.52,0,.95-.42.95-.94h0c0-.54-.42-.96-.95-.96-.53,0-.95.42-.95.95,0,.53.42.95.95.95h0Z"/>
          <path class="cls-1" d="m17.16,35.91c.52,0,.95-.42.95-.94h0c0-.54-.42-.96-.95-.96-.53,0-.95.42-.95.95,0,.53.42.95.95.95h0Z"/>
          <path class="cls-1" d="m19.88,34.01c-.53,0-.95.42-.95.95,0,.53.42.95.95.95h0c.52,0,.95-.42.95-.94h0c0-.53-.42-.96-.95-.96Z"/>
          <path class="cls-1" d="m12.12,32.23c0,.53.42.95.95.95h0c.52,0,.95-.42.95-.95,0-.53-.42-.95-.95-.95-.53,0-.95.42-.95.95Z"/>
          <path class="cls-1" d="m14.84,32.22c0,.53.42.96.95.96h.01c.52,0,.95-.42.95-.95,0-.53-.42-.96-.95-.96s-.96.42-.96.95Z"/>
          <path class="cls-1" d="m18.52,31.29c-.52,0-.95.42-.95.95s.42.95.95.95h0c.52,0,.94-.42.94-.94h0c0-.53-.42-.96-.95-.96Z"/>
          <path class="cls-1" d="m14.43,28.56c-.53,0-.95.43-.95.95,0,.53.43.95.95.95.53,0,.95-.43.95-.95,0-.53-.43-.95-.95-.95Z"/>
          <path class="cls-1" d="m17.16,28.56c-.53,0-.95.42-.95.95s.42.95.95.95h0c.52,0,.95-.42.95-.94h0c0-.54-.42-.96-.95-.96Z"/>
          <path class="cls-1" d="m62.95,38.99h-4.24c.08-.38.07-.78-.06-1.18l-4.25-13.01c-.39-1.22-1.57-2-2.84-1.88-.06,0-.11.02-.16.05h-8.27c-.06,0-.11.01-.16.03-.93-.08-1.82.38-2.29,1.18l-6.91,11.19c-.71,1.21-.33,2.77.86,3.52l.16.1h-2.72V9.98h24.71C51.04,4.99,43.52,0,31.1,0,19.82,0,13.04,4.01,5.68,9.98h24.41v29.01H1.05v5h4v20.01h3v-20.01h22.04v15.08h-5.03v4.93h12.01v-4.93h-5v-15.08h9.99v17.01c-.02.91.62,1.71,1.52,1.88,1.31.33,2.48-.88,2.48-1.88v-17.01h2v17.25c0,1.77,1,1.77,2,1.77s2-1,2-1.77v-17.25h4.01v20.01h3v-20.01h3.88v-5Zm-28.14,0l7.24-11.76v11.76h-7.24Zm17.25-10.05l3.71,10.05h-3.71v-10.05Z"/>
          <path class="cls-1" d="m43.01,17.37c.01,2.32,1.89,4.2,4.21,4.21,2.34,0,4.24-1.88,4.25-4.22v-.03c-.01-2.34-1.91-4.22-4.25-4.21-2.34.01-4.22,1.91-4.21,4.25Z"/>
        </g>
      </g>
    </g>
  </g>
</svg>