<?xml version="1.0" encoding="UTF-8"?>
<svg id="AC_icons" data-name="AC icons" xmlns="http://www.w3.org/2000/svg" viewBox="0 0 64 64">
  <defs>
    <style>
      .cls-1 {
        fill: #061a2f;
        stroke-width: 0px;
      }
    </style>
  </defs>
  <g id="Informational_icons" data-name="Informational icons">
    <g id="S">
      <g id="surfing">
        <g>
          <path class="cls-1" d="m12.09,36.51c1.53,1.19,2.38,2,2.22,2.87-.31.94-.9,1.77-1.7,2.36-.69.52-.52.85.84.85,1.63-.02,3.2-.62,4.43-1.68.84-.85,1.7-.52,2.89.16,1.52.87,21.78,9.45,29.61,10.45,7.83,1,8.86.33,10-.84h.04c1.73-1.73.77-2.94-1.36-4.56-1.77-1.34-6.16-3.14-11.5-5.01.24-2.5.57-9.58.63-10.49.03-.52.36-5.23-4.2-5.52-2.52-.11-5.05,0-7.56.3,0,0,1.73-3.56,2.57-5.29,1.42-2.9,3.81-1.86,5.19-.63,4.09,3.62,5.05,4.27,11.5,10.27l.06-.07c.4.37.91.59,1.45.63.92.07,1.8-.36,2.33-1.11.82-1.18.52-2.8-.66-3.62-.06-.05-.06-.15-.06-.15-1.99-1.4-11.92-10.65-12.62-11.21-5.06-4.11-14.26-4.33-16.35.24-1.91,4.1-4.66,9.55-5.28,11h.05c-2.37,5.5,3.53,6.65,3.55,6.28-.02.37-.11,1.8-.21,3.31-5.99-1.67-10.76-2.83-11.94-2.92-2.21-.17-3.24-.33-4.26.84-1.02,1.17-1.19,2.36.34,3.55Zm20.95-2.59c.18-2.88,1.33-3,2.8-3,1.3-.01,2.6-.15,3.88-.4,3.32-.49,3.18,1.03,3.18,1.66-.04.74-.29,4.75-.44,7.21-3.14-1.02-6.41-2.02-9.55-2.94.05-1.06.08-1.74.13-2.54Z"/>
          <path class="cls-1" d="m55,54.97c-3.4-2.36-5.7-2.13-10.55-1-5.11,1.19-6.65-1.53-10.9-4.6-4.25-3.07-6.93-1.86-11.57-.85-4.64,1.01-8.3-2.71-12-5.12s-6.43-2.71-9.49-2.21l-.51,4.09s2.03-.17,4.76-.17,4.94,3.24,9.54,6.14c3.8,2.4,8.53,1.37,11.74.34s5.94,1.19,10.21,4.25c4.27,3.06,7.9,2.08,10.9,1.36,3.58-.85,5.79.69,8.52,2.9,2.32,1.84,5.19,2.86,8.16,2.89l.19-4.1c-3.55,0-5.6-1.56-9-3.92Z"/>
          <path class="cls-1" d="m41.49,10.01c2.48,0,4.49-2.01,4.5-4.49h0c0-2.49-2.01-4.51-4.5-4.51s-4.5,2.01-4.5,4.5,2.01,4.5,4.5,4.5Z"/>
        </g>
      </g>
    </g>
  </g>
</svg>