<?xml version="1.0" encoding="UTF-8"?>
<svg id="AC_icons" data-name="AC icons" xmlns="http://www.w3.org/2000/svg" viewBox="0 0 64 64">
  <defs>
    <style>
      .cls-1 {
        fill: #061a2f;
        stroke-width: 0px;
      }
    </style>
  </defs>
  <g id="Informational_icons" data-name="Informational icons">
    <g id="S">
      <g id="surf-club">
        <g id="Surf_club" data-name="Surf club">
          <g id="Surf_club-2" data-name="Surf club-2">
            <polyline class="cls-1" points="0 29.89 31.92 2.5 64 29.82 63.92 36.06 31.88 8.73 0 36.09 0 29.5"/>
          </g>
          <path class="cls-1" d="m19,50.23l6.28-.63c.2,1.8,1.01,3.49,2.3,4.77,1.32,1.07,2.99,1.61,4.68,1.52,1.7.12,3.38-.37,4.74-1.39.98-.76,1.56-1.93,1.58-3.17.03-.73-.21-1.44-.67-2-.64-.67-1.44-1.16-2.32-1.42-.75-.27-2.48-.74-5.17-1.43-3.46-.88-5.89-1.96-7.29-3.25-3.62-3.19-3.97-8.71-.78-12.34.88-1,1.98-1.78,3.21-2.29,1.99-.79,4.13-1.17,6.27-1.1,4,0,7.02.9,9.06,2.71,2.06,1.86,3.22,4.52,3.19,7.29l-6.46.29c-.13-1.39-.76-2.69-1.78-3.64-1.2-.83-2.64-1.22-4.09-1.11-1.56-.09-3.11.33-4.41,1.19-.64.46-1.01,1.21-1,2,0,.79.38,1.52,1,2,.81.7,2.79,1.43,5.93,2.2,2.42.5,4.77,1.3,7,2.36,1.46.77,2.68,1.93,3.53,3.34.87,1.6,1.28,3.4,1.2,5.22,0,1.87-.53,3.71-1.53,5.29-1.02,1.64-2.53,2.92-4.32,3.66-2.23.87-4.61,1.28-7,1.2-4.04,0-7.14-.96-9.31-2.88-2.17-1.92-3.45-4.72-3.84-8.39Z"/>
        </g>
      </g>
    </g>
  </g>
</svg>