<?xml version="1.0" encoding="UTF-8"?>
<svg id="AC_icons" data-name="AC icons" xmlns="http://www.w3.org/2000/svg" viewBox="0 0 64 64">
  <defs>
    <style>
      .cls-1 {
        fill: #061a2f;
        stroke-width: 0px;
      }
    </style>
  </defs>
  <g id="Informational_icons" data-name="Informational icons">
    <g id="S">
      <g id="swimming-pool">
        <g id="Swimming_pool" data-name="Swimming pool">
          <path class="cls-1" d="m37,50.64c.84-.58,1.34-.93,2.58-.93s1.74.34,2.58.93c1.01.7,2.4,1.65,4.9,1.65,1.78.02,3.5-.56,4.9-1.65.84-.58,1.34-.93,2.58-.93s1.74.34,2.58.93c1.4,1.09,3.13,1.68,4.9,1.65,1.13-.05,2.01-1,1.96-2.13-.04-1.07-.9-1.92-1.96-1.96-1.24,0-1.74-.34-2.58-.93-1.01-.7-2.4-1.65-4.9-1.65-1.78-.02-3.5.56-4.9,1.65-.84.58-1.34.93-2.58.93s-1.74-.34-2.58-.93c-1.01-.7-2.4-1.65-4.9-1.65s-3.89.95-4.9,1.65c-.84.58-1.34.93-2.58.93s-1.74-.34-2.58-.93c-1.01-.7-2.4-1.65-4.91-1.65s-3.89.95-4.9,1.65c-.84.58-1.34.93-2.58.93s-1.74-.34-2.59-.93c-1.01-.7-2.4-1.65-4.9-1.65s-3.9.95-4.91,1.65c-.84.58-1.34.93-2.58.93-1.13-.05-2.08.83-2.13,1.96-.05,1.13.83,2.08,1.96,2.13.06,0,.11,0,.17,0,2.51,0,3.89-.95,4.9-1.65.84-.58,1.34-.93,2.59-.93s1.74.34,2.59.93c2.9,2.2,6.91,2.2,9.81,0,.84-.58,1.34-.93,2.58-.93s1.74.34,2.58.93c1.01.7,2.4,1.65,4.9,1.65s3.89-.95,4.91-1.65"/>
          <path class="cls-1" d="m37,59.25c.84-.58,1.34-.93,2.58-.93s1.74.34,2.58.93c1.01.7,2.4,1.65,4.9,1.65,1.78.02,3.5-.56,4.9-1.65.84-.58,1.34-.93,2.58-.93s1.74.34,2.58.93c1.4,1.09,3.13,1.68,4.9,1.65,1.13-.05,2.01-1,1.96-2.13-.04-1.07-.9-1.92-1.96-1.96-1.24,0-1.74-.34-2.58-.93-1.01-.7-2.4-1.65-4.9-1.65-1.78-.02-3.5.56-4.9,1.65-.84.58-1.34.93-2.58.93s-1.74-.34-2.58-.93c-1.01-.7-2.4-1.65-4.9-1.65s-3.89.95-4.9,1.65c-.84.58-1.34.93-2.58.93s-1.74-.34-2.58-.93c-1.01-.7-2.4-1.65-4.91-1.65s-3.89.95-4.9,1.65c-.84.58-1.34.93-2.58.93s-1.74-.34-2.59-.93c-1.01-.7-2.4-1.65-4.9-1.65s-3.9.95-4.91,1.65c-.84.58-1.34.93-2.58.93-1.13-.05-2.08.83-2.13,1.96-.05,1.13.83,2.08,1.96,2.13.06,0,.11,0,.17,0,2.51,0,3.89-.95,4.9-1.65.84-.58,1.34-.93,2.59-.93s1.74.34,2.59.93c2.9,2.2,6.91,2.2,9.81,0,.84-.58,1.34-.93,2.58-.93s1.74.34,2.58.93c1.01.7,2.4,1.65,4.9,1.65s3.89-.95,4.91-1.65"/>
          <path class="cls-1" d="m20.09,41.94c1.36,0,2.47-1.11,2.47-2.47v-4.14h16v4.15c0,1.36,1.1,2.47,2.47,2.47,1.36,0,2.47-1.1,2.47-2.47h0V13.02c0-3.38,1.76-4.95,3.39-4.99h.04c1.6,0,3.26,1.56,3.39,5.04.03,1.35,1.15,2.41,2.5,2.38.02,0,.04,0,.06,0,1.36-.05,2.43-1.19,2.38-2.55h0c-.24-6.77-4.45-9.82-8.32-9.82h-.13c-4.09.07-8.24,3.5-8.24,9.92v5.26h-16v-5.25c0-3.38,1.76-4.95,3.4-4.99h.04c1.6,0,3.26,1.56,3.38,5.04.05,1.36,1.19,2.43,2.55,2.38,1.36-.05,2.43-1.19,2.38-2.55h0c-.24-6.76-4.45-9.81-8.31-9.81h-.13c-4.09.1-8.24,3.52-8.24,9.93v26.45c0,1.36,1.11,2.47,2.47,2.47Zm2.47-18.73h16v7.2h-16v-7.2Z"/>
        </g>
      </g>
    </g>
  </g>
</svg>