<?xml version="1.0" encoding="UTF-8"?>
<svg id="AC_icons" data-name="AC icons" xmlns="http://www.w3.org/2000/svg" viewBox="0 0 64 64">
  <defs>
    <style>
      .cls-1 {
        fill: #061a2f;
        stroke-width: 0px;
      }
    </style>
  </defs>
  <g id="Informational_icons" data-name="Informational icons">
    <g id="S">
      <g id="swimming">
        <g id="Swimming">
          <path class="cls-1" d="m27.77,15.99l-15.43,10.69c-1.39.98-1.75,2.89-.81,4.31.91,1.39,2.78,1.77,4.16.86,0,0,.02-.01.02-.02l13.38-9.27,5.06,5.13-19.2,12.13c.63.48,1.41.72,2.2.68.96,0,1.88-.35,2.58-1,2.88-2.27,6.94-2.27,9.83,0,1.49,1.27,3.69,1.27,5.18,0,1.39-1.12,3.13-1.72,4.92-1.7,1.65-.03,3.27.49,4.6,1.48l.31.22c.62.54,1.39.87,2.21.94h.37c.96,0,1.88-.35,2.58-1,.96-.7,2.05-1.19,3.22-1.42l-21.4-21.67c-1.02-1.02-2.62-1.17-3.81-.36"/>
          <path class="cls-1" d="m36.87,46.79c1.48-1.3,3.69-1.3,5.17,0,2.87,2.31,6.96,2.31,9.83,0,1.48-1.3,3.69-1.3,5.17,0,1.4,1.15,3.15,1.76,4.96,1.73,1.19-.08,2.08-1.11,2-2.3-.07-1.07-.93-1.93-2-2-.96.01-1.88-.35-2.58-1-2.87-2.31-6.96-2.31-9.83,0-1.48,1.3-3.69,1.3-5.17,0-2.87-2.31-6.96-2.31-9.83,0-1.48,1.3-3.7,1.3-5.18,0-2.87-2.31-6.96-2.31-9.83,0-1.48,1.3-3.7,1.3-5.18,0-1.4-1.14-3.16-1.75-4.96-1.71-1.79-.02-3.53.6-4.92,1.73-.7.66-1.63,1.02-2.59,1-1.18.13-2.04,1.19-1.91,2.37.11.99.88,1.78,1.87,1.9,1.82.04,3.6-.57,5.01-1.73.7-.66,1.63-1.02,2.59-1,.96-.01,1.88.35,2.58,1,2.87,2.31,6.96,2.31,9.83,0,1.48-1.3,3.7-1.3,5.18,0,2.87,2.31,6.96,2.31,9.83,0"/>
          <path class="cls-1" d="m54.98,23.21c.12-3.59-2.69-6.61-6.28-6.73-3.59-.12-6.61,2.69-6.73,6.28-.12,3.59,2.68,6.6,6.27,6.73,3.59.13,6.61-2.68,6.74-6.27,0,0,0,0,0,0"/>
        </g>
      </g>
    </g>
  </g>
</svg>