<?xml version="1.0" encoding="UTF-8"?>
<svg id="AC_icons" data-name="AC icons" xmlns="http://www.w3.org/2000/svg" viewBox="0 0 64 64">
  <defs>
    <style>
      .cls-1 {
        fill: #061a2f;
        stroke-width: 0px;
      }
    </style>
  </defs>
  <g id="Informational_icons" data-name="Informational icons">
    <g id="S">
      <g id="swim-school">
        <path id="Swimming_school" data-name="Swimming school" class="cls-1" d="m31.99,0C14.32,0,0,14.34,0,32.01c0,17.67,14.34,31.99,32.01,31.99,17.67,0,31.99-14.33,31.99-32C63.98,14.33,49.66.01,31.99,0Zm0,1.83c3.73,0,7.42.7,10.9,2.06-.49,2.43-.98,4.86-1.46,7.3-5.99-2.73-12.87-2.73-18.85,0-.48-2.43-.98-4.87-1.46-7.3,3.47-1.36,7.16-2.06,10.88-2.06Zm0,9.13c11.59-.03,21.01,9.33,21.04,20.92,0,3.01-.63,5.98-1.87,8.72-.42-.15-.86-.27-1.3-.36-2.49-.41-4.68.46-6.59,1.23-1.19.48-2.32.93-3.47,1.1-1.03.16-2.8-.54-4.48-1.21-2.19-.86-4.46-1.76-6.58-1.54-1.74.18-3.33.91-4.87,1.62-1.34.61-2.6,1.19-3.64,1.21s-2.45-.56-3.97-1.19c-1.18-.49-2.39-.92-3.62-1.27-4.53-10.7.47-23.04,11.17-27.57,2.59-1.1,5.37-1.66,8.19-1.66ZM3.96,43.09c-2.8-6.98-2.85-14.76-.14-21.78,2.43.49,4.86.97,7.29,1.46-2.68,6.01-2.61,12.89.19,18.85l-7.33,1.47Zm28.02,19.09c-3.69,0-7.35-.69-10.79-2.03.49-2.43.97-4.86,1.46-7.3,5.99,2.72,12.87,2.69,18.84-.08.48,2.44.98,4.88,1.46,7.32-3.49,1.38-7.21,2.08-10.96,2.09h0Zm0-9.15c-6.73,0-13.04-3.24-16.98-8.69.02,0,.04,0,.05,0,1.82.77,3.55,1.49,5.23,1.43s3.29-.78,4.87-1.5c1.3-.61,2.66-1.23,3.88-1.35,1.35-.14,3.27.61,5.12,1.34,2.18.86,4.23,1.68,6.09,1.4,1.53-.22,2.88-.77,4.18-1.29,1.76-.71,3.28-1.32,4.92-1.05.08.02.18.04.28.07-3.87,5.99-10.51,9.62-17.65,9.62h0Zm20.9-11.8c2.68-6,2.61-12.87-.17-18.82,2.45-.48,4.88-.97,7.32-1.45,1.4,3.51,2.13,7.26,2.13,11.05,0,3.65-.68,7.28-1.98,10.69-2.43-.5-4.85-.98-7.29-1.47h0Zm-14.7-7.97c0-2.52,2.04-4.57,4.56-4.57,2.52,0,4.57,2.04,4.57,4.56,0,2.52-2.04,4.57-4.56,4.57,0,0,0,0-.01,0-2.51,0-4.55-2.04-4.55-4.55,0,0,0-.01,0-.02h0Zm-23.33-6.33c0-1.11.9-2,2.01-2h7.66c.71,0,1.87,0,2.85.87,2.32,2.08,8.03,6.85,8.7,7.58.1.11.17.24.21.38.19.3.29.63.3.98,0,1.11-.9,2.01-2.01,2.01-.53,0-1.03-.21-1.4-.59,0,0-.02,0-.03,0,0,0-5.37-4.95-7.2-6.4-.71-.56-.99-.84-2.28-.84-2.64.01-4.29,0-6.92,0-.05,0-.08-.04-.12-.05-1-.11-1.76-.94-1.78-1.95Z"/>
      </g>
    </g>
  </g>
</svg>