<?xml version="1.0" encoding="UTF-8"?>
<svg id="AC_icons" data-name="AC icons" xmlns="http://www.w3.org/2000/svg" viewBox="0 0 64 64">
  <defs>
    <style>
      .cls-1 {
        fill: #061a2f;
        stroke-width: 0px;
      }
    </style>
  </defs>
  <g id="Informational_icons" data-name="Informational icons">
    <g id="T">
      <g id="take-rubbish-with">
        <g>
          <path class="cls-1" d="m7.19,49.23c0,3.82,3.1,6.92,6.91,6.92,3.58.1,6.56-2.72,6.66-6.3h0v-.36c0-3.82-3.1-6.92-6.92-6.92-3.58-.1-6.56,2.73-6.66,6.31,0,.12,0,.24,0,.35Zm3.22,0c0-2.04,1.66-3.7,3.7-3.7s3.7,1.66,3.7,3.7-1.66,3.7-3.7,3.7h0c-2.04,0-3.7-1.66-3.7-3.7h0Z"/>
          <path class="cls-1" d="m18.13,18.44s3.41-6.66,8.7-10.59l2.05,2.05s-6.84,5.64-8.2,10.41l-2.55-1.87Z"/>
          <path class="cls-1" d="m28.91,42.2c-.05-1.99-.27-3.98-.48-5.96-.11-.94-2.54-6.62-4.22-6.62-.67-2.68-1.4-4.01-2.02-6.76-.79-3.47-3.09-5.42-6.65-5.43H6.1c-.99,1.31-1.89,2.7-2.67,4.14h14.3c.44-.06.87.21.99.64.34,1.09,1.96,5.88,2.48,7.87.14.52.04,1.08-.27,1.52-.69,1.12-1.92,1.8-3.24,1.8H.22C.07,34.67,0,35.95,0,37.22,0,41.56.3,45.7,1.83,49.5h3.53v-.13c.07-4.76,3.99-8.56,8.75-8.49,4.66.07,8.42,3.83,8.49,8.49v.19c2.08.03,5.9-.24,5.9-2.61,0-1.3.51-.21.4-4.75Z"/>
          <path class="cls-1" d="m49.54,15.83c-1.89,0-3.43,1.53-3.43,3.43s1.53,3.43,3.43,3.43,3.43-1.53,3.43-3.43h0c0-1.89-1.53-3.43-3.43-3.43h0Z"/>
          <path class="cls-1" d="m40.19,35.99c.38.74,1.29,1.04,2.04.66l4.07-2.07c.97-.5,1.74-1.32,2.17-2.32l.68-1.37,1.53,6.69-9.41,14.86c-.71,1.12-.37,2.59.74,3.3s2.59.37,3.3-.74h0l8.45-13.34c.25,1.12.52,2.19.7,3.28.23,1.31.71,2.57,1.42,3.69l3.76,6.34c.76,1.08,2.25,1.35,3.33.59.98-.68,1.3-1.98.77-3.04l-3.53-5.94c-.57-.95-.98-1.99-1.22-3.07l-3.08-13.76,1.94,1.58c.27.22.46.52.53.86l1.14,5.06c.2.81,1.02,1.31,1.83,1.12.79-.19,1.29-.98,1.13-1.78l-1.26-5.61c-.19-.85-.67-1.62-1.35-2.17l-5.88-4.74c-1.42-1.27-3.59-1.15-4.86.27-.24.27-.44.57-.58.9l-3.25,6.42-4.47,2.28c-.74.38-1.04,1.3-.65,2.04h0Z"/>
          <path class="cls-1" d="m35.11,31.14l2.03.36,2.11.53c-.5,1.39-1.26,2.68-2.25,3.77,0,0,4.03,3.31,3.89,6.09s-1.37,5.29-3.42,5.29-4.83.5-6.02-3.19c0,0-.7-4.92,1.68-6.43,1.17-.74,2.41-1.35,3.72-1.8-.51-.47-.9-1.06-1.12-1.71-.35-.85-.51-1.76-.49-2.67"/>
        </g>
      </g>
    </g>
  </g>
</svg>