<?xml version="1.0" encoding="UTF-8"?>
<svg id="AC_icons" data-name="AC icons" xmlns="http://www.w3.org/2000/svg" viewBox="0 0 64 64">
  <defs>
    <style>
      .cls-1 {
        fill: #061a2f;
        stroke-width: 0px;
      }
    </style>
  </defs>
  <g id="Informational_icons" data-name="Informational icons">
    <g id="T">
      <g id="tap">
        <g>
          <path class="cls-1" d="m56.9,64c7.19-.14-.12-14.17-.12-14.17,0,0-7.72,14.3.12,14.17Z"/>
          <path class="cls-1" d="m44.33,18.2h-5.74c-.58-3.1-3.3-5.45-6.57-5.45h-3.08v-5.92h14.19c1.25,0,2.26-1.01,2.26-2.26s-1.01-2.26-2.26-2.26h-13.13c-.69-1.83-2.74-2.76-4.58-2.06-.95.36-1.7,1.11-2.06,2.06h-12.67c-1.25,0-2.26,1.01-2.26,2.26s1.01,2.26,2.26,2.26h13.72v5.92h-2.29c-3.27,0-5.98,2.35-6.56,5.45H1.7v10.45h13.74v.76c0,2.06,1.67,3.74,3.73,3.74h15.8c2.06,0,3.73-1.68,3.73-3.74v-.76h5.62c4.14,0,7.51,3.36,7.52,7.5v11.42h10.45v-11.4c0-9.92-8.05-17.96-17.97-17.97Z"/>
        </g>
      </g>
    </g>
  </g>
</svg>