<?xml version="1.0" encoding="UTF-8"?>
<svg id="AC_icons" data-name="AC icons" xmlns="http://www.w3.org/2000/svg" viewBox="0 0 64 64">
  <defs>
    <style>
      .cls-1 {
        fill: #061a2f;
        stroke-width: 0px;
      }
    </style>
  </defs>
  <g id="Informational_icons" data-name="Informational icons">
    <g id="T">
      <g id="target-arrow">
        <g>
          <path class="cls-1" d="m59.1,7.25c.65-.65.65-1.7,0-2.35-.65-.65-1.7-.65-2.35,0l-11.09,11.09c-4.85-4.3-11.22-6.92-18.2-6.92C12.32,9.07,0,21.39,0,36.54s12.32,27.46,27.46,27.46,27.46-12.32,27.46-27.46c0-6.98-2.62-13.35-6.92-18.2l11.09-11.09Zm-9.16,29.29c0,12.4-10.08,22.48-22.48,22.48S4.98,48.93,4.98,36.54,15.07,14.06,27.46,14.06c5.6,0,10.73,2.06,14.67,5.46l-3.7,3.7c-2.98-2.46-6.81-3.94-10.97-3.94-9.52,0-17.26,7.74-17.26,17.26s7.74,17.26,17.26,17.26,17.26-7.74,17.26-17.26c0-4.16-1.48-7.99-3.94-10.97l3.7-3.7c3.4,3.94,5.46,9.06,5.46,14.67Zm-10.2,0c0,6.77-5.51,12.28-12.28,12.28s-12.28-5.51-12.28-12.28,5.51-12.28,12.28-12.28c2.79,0,5.36.94,7.42,2.51l-4.12,4.12c-.97-.57-2.1-.9-3.3-.9-3.62,0-6.55,2.93-6.55,6.55s2.93,6.55,6.55,6.55,6.55-2.93,6.55-6.55c0-1.21-.33-2.33-.9-3.3l4.12-4.12c1.57,2.06,2.51,4.64,2.51,7.42Z"/>
          <polygon class="cls-1" points="54.51 6.04 53.49 0 46.05 7.44 47.06 13.47 54.51 6.04"/>
          <polygon class="cls-1" points="57.96 9.49 50.53 16.94 56.56 17.95 64 10.51 57.96 9.49"/>
        </g>
      </g>
    </g>
  </g>
</svg>