<?xml version="1.0" encoding="UTF-8"?>
<svg id="AC_icons" data-name="AC icons" xmlns="http://www.w3.org/2000/svg" viewBox="0 0 64 64">
  <defs>
    <style>
      .cls-1 {
        fill: #061a2f;
        stroke-width: 0px;
      }
    </style>
  </defs>
  <g id="Informational_icons" data-name="Informational icons">
    <g id="T">
      <g id="temperature">
        <g>
          <path class="cls-1" d="m32.38,43.01v-24.45h-3.27v24.45c-3.43.75-6,3.8-6,7.45,0,4.22,3.42,7.63,7.63,7.63s7.63-3.42,7.63-7.63c0-3.65-2.57-6.71-6-7.45Z"/>
          <path class="cls-1" d="m46.79,21.8v-3.27h-8.22v-2.66h3.57v-3.27h-3.57v-4.78c0-4.31-3.51-7.82-7.82-7.82s-7.82,3.51-7.82,7.82v31.6c-2.67,1.88-4.55,4.64-5.33,7.84-.85,3.51-.29,7.15,1.59,10.23,1.88,3.09,4.85,5.26,8.36,6.11,1.07.26,2.15.39,3.22.39,2.45,0,4.86-.67,7.01-1.98,6.37-3.88,8.4-12.22,4.52-18.59-.96-1.57-2.24-2.94-3.74-4.01v-6.45h3.57v-3.27h-3.57v-2.24h3.57v-3.27h-3.57v-2.4h8.22Zm-7.28,23.33c1.42,2.34,1.85,5.1,1.21,7.76-.65,2.66-2.29,4.91-4.63,6.34-2.34,1.42-5.1,1.85-7.76,1.2-2.66-.65-4.91-2.29-6.34-4.63-1.42-2.34-1.85-5.1-1.2-7.76.65-2.66,2.29-4.91,4.63-6.34.49-.3.79-.83.79-1.4V7.82c0-2.51,2.04-4.55,4.55-4.55s4.55,2.04,4.55,4.55v32.49c0,.57.3,1.1.79,1.4,1.39.85,2.58,2.03,3.43,3.43Z"/>
        </g>
      </g>
    </g>
  </g>
</svg>