<?xml version="1.0" encoding="UTF-8"?>
<svg id="AC_icons" data-name="AC icons" xmlns="http://www.w3.org/2000/svg" viewBox="0 0 64 64">
  <defs>
    <style>
      .cls-1 {
        fill: #061a2f;
        stroke-width: 0px;
      }
    </style>
  </defs>
  <g id="Informational_icons" data-name="Informational icons">
    <g id="T">
      <g id="tennis-court">
        <g id="Tennis_court" data-name="Tennis court">
          <path class="cls-1" d="m26.29,23.48h-.21c0,.08-1.62,8.39-3.1,11.83-1.09,2.34-2.39,4.58-3.88,6.69l-.31-.31-15.79,15.68h-1.54l-1.46,1.46,5.18,5.17,1.22-1.22.13-.13.13-1.4,15.51-15.47.37-.37-.38-.41c2.12-1.49,4.37-2.79,6.73-3.87,3.45-1.47,11.77-3.07,11.86-3.09v-.18c5.1-.73,10.67-3.56,15.35-8.22,8.72-8.72,10.3-19.92,4.36-25.84-5.94-5.92-17.16-4.35-25.93,4.39-4.67,4.66-7.5,10.22-8.24,15.29m9.71-13.82c.29-.29.58-.55.88-.82l1.29,1.29-2.53,2.52-1.25-1.25c.51-.59,1-1.17,1.61-1.74m24.85,9.06l-.18.18-2.53-2.52,2.57-2.56,1.08,1.08c-.18,1.31-.5,2.59-.95,3.83m-6.25,9.47c-.57.57-1.15,1.09-1.75,1.61l-.95-.94,2.53-2.52,1,1c-.27.29-.53.59-.82.87m2.36-5.58l-2.52,2.52-2.53-2.52,2.53-2.52,2.52,2.52Zm-1.96-3.14l2.55-2.5,2.53,2.52-2.54,2.48-2.54-2.5Zm-1.21,6.24l-2.53,2.52-2.53-2.52,2.53-2.52,2.53,2.52Zm-3.13,3.12l-2.53,2.52-2.52-2.52,2.52-2.53,2.53,2.53Zm-3.1,3.14l-2.56,2.5-2.49-2.5,2.49-2.54,2.56,2.54Zm1.21,0l2.53-2.52.89.89c-.94.76-1.92,1.47-2.95,2.11l-.47-.48Zm-.27.93c-.48.28-1,.54-1.45.79l1.12-1.12.33.33Zm6.5-7.19l2.52-2.52.64.64c-.66.99-1.38,1.94-2.16,2.84l-1-.96Zm3.13-3.12l1.8-1.79c-.39.79-.82,1.56-1.29,2.3l-.51-.51Zm-1.2-6.24l-2.51,2.52-2.53-2.52,2.53-2.52,2.51,2.52Zm-1.93-3.12l2.57-2.57,2.53,2.52-2.57,2.57-2.53-2.52Zm-1.18,6.24l-2.53,2.5-2.53-2.5,2.53-2.5,2.53,2.5Zm-3.13,3.12l-2.53,2.52-2.52-2.52,2.52-2.52,2.53,2.52Zm-3.13,3.12l-2.56,2.52-2.53-2.52,2.53-2.52,2.56,2.52Zm-3.13,3.12l-2.53,2.52-2.53-2.52,2.53-2.52,2.53,2.52Zm-3.13,3.14l-2.49,2.48-2.53-2.52,2.49-2.48,2.53,2.52Zm16.89-21.91l2.51-2.5c.63,1.21,1.02,2.53,1.16,3.88l-1.14,1.14-2.53-2.52Zm-20,25l-.95.95c-1.39-.07-2.74-.41-4-1l2.45-2.45,2.5,2.5Zm-7.36-1.73c-.37-.38-.7-.78-1-1.22l2.7-2.69,2.53,2.53-2.63,2.61c-.58-.35-1.12-.76-1.61-1.23m19.83-23.2l-2.53,2.52-2.53-2.52,2.53-2.52,2.53,2.52Zm-1.89-3.16l2.57-2.57,2.53,2.57-2.57,2.54-2.53-2.54Zm-1.2,6.24l-2.56,2.54-2.53-2.52,2.53-2.53,2.56,2.51Zm-3.13,3.12l-2.53,2.54-2.53-2.52,2.53-2.52,2.53,2.5Zm-3.13,3.14l-2.53,2.5-2.52-2.5,2.52-2.5,2.53,2.5Zm-3.13,3.12l-2.53,2.52-2.53-2.52,2.53-2.52,2.53,2.52Zm-3.17,3.12l-2.49,2.48-2.51-2.52,2.49-2.49,2.51,2.53Zm15.64-9.36l-2.48,2.52-2.53-2.52,2.53-2.52,2.48,2.52Zm-1.92-3.12l2.53-2.52,2.53,2.52-2.53,2.52-2.53-2.52Zm-1.2,6.24l-2.52,2.5-2.49-2.5,2.49-2.5,2.52,2.5Zm-3.13,3.12l-2.49,2.52-2.53-2.52,2.53-2.52,2.49,2.52Zm-3.09,3.12l-2.53,2.52-2.52-2.52,2.52-2.52,2.53,2.52Zm-3.13,3.12l-2.49,2.49-2.53-2.52,2.49-2.48,2.53,2.51Zm16.24-16.2l-2.53-2.52,2.57-2.56,2.55,2.51-2.59,2.57Zm0-6.29l-2.48-2.52,1.38-1.37c1.32.2,2.59.64,3.74,1.31l-2.64,2.58Zm-22.41,22.45l-2.6,2.55c-.65-1.2-1.05-2.51-1.18-3.87l1.2-1.2,2.58,2.52Zm12.43-18.69l-2.53,2.53-2.53-2.52,2.53-2.53,2.53,2.52Zm-1.92-3.13l2.49-2.51,2.56,2.51-2.56,2.54-2.49-2.54Zm-1.21,6.26l-2.53,2.52-2.52-2.52,2.52-2.52,2.53,2.52Zm-3.13,3.12l-2.52,2.52-2.53-2.52,2.53-2.52,2.52,2.52Zm-3.17,3.12l-2.48,2.5-2.52-2.5,2.52-2.5,2.48,2.5Zm13.16-13.09l-2.52-2.52.78-.78c.96-.3,1.94-.52,2.93-.65l1.39,1.39-2.58,2.56Zm-3.73-2.52l-2.53,2.52-.82-.81c1.06-.67,2.17-1.25,3.32-1.74l.03.03Zm-13.15,11.85l.64.64-2,2c.4-.89.84-1.77,1.34-2.61m10.04-8.77l-2.53,2.54-1.27-1.27c.91-.79,1.86-1.52,2.86-2.19l.94.92Zm-6.3,6.25l-2.53,2.52-.73-.77c.64-1.02,1.35-2,2.11-2.94l1.15,1.19Zm-5.88,7.07l.23-.23,2.53,2.52-2.45,2.49-1.15-1.1c.18-1.24.47-2.46.88-3.64m-1,4.74l.65.64-.68.67v-1.31m-.43,13.13c-1.47.68-2.87,1.49-4.19,2.43h0c.95-1.31,1.76-2.71,2.44-4.18.41-1.07.75-2.18,1-3.3.58,1.94,2.1,3.46,4.05,4.04-1.12.26-2.22.59-3.3,1m10.74-2.22l.37-.38.34.33h-.71m1.81-.15l-.83-.83,2.49-2.48,2.33,2.32c-1.29.47-2.64.81-4,1m21.66-22.01l-.58-.59.62-.62c.02.4.02.81,0,1.21m-1.65-7l-2.7,2.69-2.53-2.49,2.72-2.72c.43.3.83.63,1.21,1,.47.48.9,1.01,1.26,1.58m-8-4.48l-.89.89-.9-.9c.6-.04,1.19-.04,1.79,0"/>
          <path class="cls-1" d="m18.5,13c3.59,0,6.5-2.91,6.5-6.5S22.09,0,18.5,0s-6.5,2.91-6.5,6.5,2.91,6.5,6.5,6.5"/>
        </g>
      </g>
    </g>
  </g>
</svg>