<?xml version="1.0" encoding="UTF-8"?>
<svg id="AC_icons" data-name="AC icons" xmlns="http://www.w3.org/2000/svg" viewBox="0 0 64 64">
  <defs>
    <style>
      .cls-1 {
        fill: #061a2f;
        fill-rule: evenodd;
        stroke-width: 0px;
      }
    </style>
  </defs>
  <g id="Informational_icons" data-name="Informational icons">
    <g id="T">
      <g id="tobogganing">
        <g id="Toboganing">
          <path class="cls-1" d="m34.22,37.71c-1.44.42-15.33,3.77-15.33,3.77l21.35,9.11s-3.76-11.42-3.96-12.1c-.21-.75-.83-1.12-2.05-.78m-7.21-24.2c0-3.32,2.68-6.01,5.99-6.01,3.32,0,6.01,2.68,6.01,5.99,0,3.32-2.68,6.01-5.99,6.01,0,0,0,0-.01,0-3.31,0-5.99-2.69-6-5.99m19.19,36.32c.02.17.03.34.03.52,0,.88-.45,1.69-1.19,2.17l5.54,1.94c2.39,1.03,8.62,1.27,12.25-4.71.37.29.77.54,1.19.74-2.71,4.72-8.44,7.25-13.86,5.46C38.88,52.23,0,34.98,0,34.98l.7-1.48,11.25,5.02s-2.64-2.15.39-6.12c0,0,9.02-11.33,9.58-11.99,2.81-3.25,7.16-3.13,9.67,3.64-.11-.3,3.93,8.95,3.93,8.95,0,0,4.27-1.34,5.31,1.09,1.69,3.95,5.37,15.75,5.37,15.75m-16.7-15.87l-2.11-5.2-5.54,7.06,7.65-1.86Z"/>
        </g>
      </g>
    </g>
  </g>
</svg>