<?xml version="1.0" encoding="UTF-8"?>
<svg id="Tohu" xmlns="http://www.w3.org/2000/svg" viewBox="0 0 64 64">
  <defs>
    <style>
      .cls-1 {
        fill: #061a2f;
        stroke-width: 0px;
      }
    </style>
  </defs>
  <g id="Te_Ao_Tūroa_-_Tier_4_-_reverse" data-name="Te Ao Tūroa - Tier 4 - reverse">
    <g>
      <path class="cls-1" d="m2.25,51c.53,2.26,1.26,3.6,2.35,5.09l1.66-1.21c-.99-1.37-1.59-2.66-2-4.29l-2.01.41Z"/>
      <path class="cls-1" d="m11.27,55.91l.74-1.91c-1.4-.57-2.59-1.66-3.38-3.09l-1.81.96c1.01,1.86,2.58,3.29,4.45,4.04Z"/>
      <path class="cls-1" d="m7.91,59.14c2.07,1.33,4.1,1.81,5.49,1.97l.22-2.04c-1.16-.14-2.86-.54-4.58-1.65l-1.13,1.71Z"/>
      <path class="cls-1" d="m12.16,47.8c-.06-.2-.11-.42-.15-.64l-2.04.1c.07.51.15.97.23,1.25.29.98.88,1.8,1.62,2.26,1.53.95,2.6.14,2.94-.19-1.4-.47-2.17-1.29-2.61-2.77Z"/>
      <path class="cls-1" d="m29.68,44.92c-.57-2.24-1.34-3.57-2.46-5.04l-1.63,1.25c1.02,1.35,1.65,2.63,2.09,4.24l2-.45Z"/>
      <path class="cls-1" d="m47.17,64h16.83v-16h-2.02c0,8.84-6.43,16-14.81,16Z"/>
      <path class="cls-1" d="m19.69,48.21c.06.2.11.42.15.64l2.04-.1c-.07-.51-.15-.97-.23-1.25-.29-.98-.88-1.8-1.62-2.26-.78-.48-1.53-.57-2.23-.27-.33.14-.57.34-.71.47,1.4.47,2.16,1.29,2.61,2.77Z"/>
      <path class="cls-1" d="m14.55,37.23l-.54-1.98c-1.39.4-3.36,1.21-5.1,2.88l1.43,1.47c1.43-1.36,3.05-2.04,4.21-2.37Z"/>
      <path class="cls-1" d="m7.57,47.43c-.04-.51-.05-1.03-.01-1.56.08-1.17.32-2.26.72-3.24l-1.89-.8c-.49,1.19-.78,2.5-.87,3.9-.04.64-.04,1.27.02,1.88l2.04-.19Z"/>
      <path class="cls-1" d="m20.6,40.11l-.76,1.91c1.4.58,2.58,1.68,3.35,3.11l1.82-.95c-1-1.87-2.56-3.3-4.42-4.07Z"/>
      <path class="cls-1" d="m26.33,48.39l-2.04.19c.02.28.03.56.03.85,0,.23,0,.47-.02.7-.08,1.17-.32,2.26-.72,3.24l1.89.8c.49-1.19.78-2.5.87-3.9.04-.64.04-1.27-.02-1.88Z"/>
      <path class="cls-1" d="m32,48h-2.02c0,8.84-6.43,16-14.81,16h32c-8.38,0-15.17-7.16-15.17-16Z"/>
      <path class="cls-1" d="m21.02,53.07l-1.8-.99c-.64,1.09-1.81,1.83-3.46,2.2-.08.02-.16.04-.25.05l.34,2.02c.12-.02.24-.05.36-.07,2.25-.51,3.87-1.59,4.81-3.21Z"/>
      <path class="cls-1" d="m16.46,49.01s.22-.59-.05-1.19c-.28-.6-1.09-.76-1.09-.76,0,0-.25.61.1,1.19.35.58,1.04.75,1.04.75Z"/>
      <path class="cls-1" d="m16.34,41.68l-.34-2.02c-.12.02-.24.05-.36.07-2.25.51-3.87,1.59-4.81,3.21l1.8.99c.64-1.09,1.81-1.83,3.46-2.2.08-.02.16-.04.25-.05Z"/>
      <path class="cls-1" d="m17.3,58.78l.54,1.98c1.39-.4,3.36-1.21,5.1-2.88l-1.44-1.47c-1.43,1.36-3.05,2.04-4.21,2.37Z"/>
      <path class="cls-1" d="m23.95,36.87c-2.07-1.33-4.1-1.81-5.49-1.97l-.22,2.04c1.16.14,2.86.54,4.58,1.65l1.13-1.71Z"/>
      <path class="cls-1" d="m29.68,12.92c-.57-2.24-1.34-3.57-2.46-5.04l-1.63,1.25c1.02,1.35,1.65,2.63,2.09,4.24l2-.45Z"/>
      <path class="cls-1" d="m20.6,8.11l-.76,1.91c1.4.58,2.58,1.68,3.35,3.11l1.82-.95c-1-1.87-2.56-3.3-4.42-4.07Z"/>
      <path class="cls-1" d="m24.28,16.59c.02.28.03.56.03.85,0,.23,0,.47-.02.7-.08,1.17-.32,2.26-.72,3.24l1.89.8c.49-1.19.78-2.5.87-3.9.04-.64.04-1.27-.02-1.88l-2.04.19Z"/>
      <path class="cls-1" d="m19.69,16.21c.06.2.11.42.15.64l2.04-.1c-.07-.51-.15-.97-.23-1.25-.29-.98-.88-1.8-1.62-2.26-.78-.48-1.53-.57-2.23-.27-.33.14-.57.34-.71.47,1.4.47,2.16,1.29,2.61,2.77Z"/>
      <path class="cls-1" d="m23.95,4.87c-2.07-1.33-4.1-1.81-5.49-1.97l-.22,2.04c1.16.14,2.86.54,4.58,1.65l1.13-1.71Z"/>
      <path class="cls-1" d="m17.3,26.78l.54,1.98c1.39-.4,3.36-1.21,5.1-2.88l-1.44-1.47c-1.43,1.36-3.05,2.04-4.21,2.37Z"/>
      <path class="cls-1" d="m7.91,27.14c2.07,1.33,4.1,1.81,5.49,1.97l.22-2.04c-1.16-.14-2.86-.54-4.58-1.65l-1.13,1.71Z"/>
      <path class="cls-1" d="m0,48v16h15.17c-8.38,0-15.17-7.16-15.17-16Z"/>
      <path class="cls-1" d="m12.16,15.8c-.06-.2-.11-.42-.15-.64l-2.04.1c.07.51.15.97.23,1.25.29.98.88,1.8,1.62,2.26,1.53.95,2.6.14,2.94-.19-1.4-.47-2.17-1.29-2.61-2.77Z"/>
      <path class="cls-1" d="m11.27,23.91l.74-1.91c-1.4-.57-2.59-1.66-3.38-3.09l-1.81.96c1.01,1.86,2.58,3.29,4.45,4.04Z"/>
      <path class="cls-1" d="m7.57,15.43c-.04-.51-.05-1.03-.01-1.56.08-1.17.32-2.26.72-3.24l-1.89-.8c-.49,1.19-.78,2.5-.87,3.9-.04.64-.04,1.27.02,1.88l2.04-.19Z"/>
      <path class="cls-1" d="m6.26,22.88c-.99-1.37-1.59-2.66-2-4.29l-2.01.41c.53,2.26,1.26,3.6,2.35,5.09l1.66-1.21Z"/>
      <path class="cls-1" d="m15.51,22.33l.34,2.02c.12-.02.24-.05.36-.07,2.25-.51,3.87-1.59,4.81-3.21l-1.8-.99c-.64,1.09-1.81,1.83-3.46,2.2-.08.02-.16.04-.25.05Z"/>
      <path class="cls-1" d="m14.55,5.23l-.54-1.98c-1.39.4-3.36,1.21-5.1,2.88l1.43,1.47c1.43-1.36,3.05-2.04,4.21-2.37Z"/>
      <path class="cls-1" d="m15.32,15.07s-.25.61.1,1.19c.35.58,1.04.75,1.04.75,0,0,.22-.59-.05-1.19-.28-.6-1.09-.76-1.09-.76Z"/>
      <path class="cls-1" d="m10.84,10.94l1.8.99c.64-1.09,1.81-1.83,3.46-2.2.08-.02.16-.04.25-.05l-.34-2.02c-.12.02-.24.05-.36.07-2.25.51-3.87,1.59-4.81,3.21Z"/>
      <path class="cls-1" d="m39.91,27.14c2.07,1.33,4.1,1.81,5.49,1.97l.22-2.04c-1.16-.14-2.86-.54-4.58-1.65l-1.13,1.71Z"/>
      <path class="cls-1" d="m16.83,0H0v16h2.03C2.03,7.16,8.46,0,16.83,0Z"/>
      <path class="cls-1" d="m43.27,23.91l.74-1.91c-1.4-.57-2.59-1.66-3.38-3.09l-1.81.96c1.01,1.86,2.58,3.29,4.45,4.04Z"/>
      <path class="cls-1" d="m34.25,19c.53,2.26,1.26,3.6,2.35,5.09l1.66-1.21c-.99-1.37-1.59-2.66-2-4.29l-2.01.41Z"/>
      <path class="cls-1" d="m44.16,15.8c-.06-.2-.11-.42-.15-.64l-2.04.1c.07.51.15.97.23,1.25.29.98.88,1.8,1.62,2.26,1.53.95,2.6.14,2.94-.19-1.4-.47-2.17-1.29-2.61-2.77Z"/>
      <path class="cls-1" d="m46.55,5.23l-.54-1.98c-1.39.4-3.36,1.21-5.1,2.88l1.43,1.47c1.43-1.36,3.05-2.04,4.21-2.37Z"/>
      <path class="cls-1" d="m51.69,16.21c.06.2.11.42.15.64l2.04-.1c-.07-.51-.15-.97-.23-1.25-.29-.98-.88-1.8-1.62-2.26-.78-.48-1.53-.57-2.23-.27-.33.14-.57.34-.71.47,1.4.47,2.16,1.29,2.61,2.77Z"/>
      <path class="cls-1" d="m48.34,9.68l-.34-2.02c-.12.02-.24.05-.36.07-2.25.51-3.87,1.59-4.81,3.21l1.8.99c.64-1.09,1.81-1.83,3.46-2.2.08-.02.16-.04.25-.05Z"/>
      <path class="cls-1" d="m39.57,15.43c-.04-.51-.05-1.03-.01-1.56.08-1.17.32-2.26.72-3.24l-1.89-.8c-.49,1.19-.78,2.5-.87,3.9-.04.64-.04,1.27.02,1.88l2.04-.19Z"/>
      <path class="cls-1" d="m57.6,9.13c1.02,1.35,1.65,2.63,2.09,4.24l2-.45c-.57-2.24-1.34-3.57-2.46-5.04l-1.63,1.25Z"/>
      <path class="cls-1" d="m48.46,17.01s.22-.59-.05-1.19c-.28-.6-1.09-.76-1.09-.76,0,0-.25.61.1,1.19.35.58,1.04.75,1.04.75Z"/>
      <path class="cls-1" d="m56.28,16.59c.02.28.03.56.03.85,0,.23,0,.47-.02.7-.08,1.17-.32,2.26-.72,3.24l1.89.8c.49-1.19.78-2.5.87-3.9.04-.64.04-1.27-.02-1.88l-2.04.19Z"/>
      <path class="cls-1" d="m48.83,0c8.38,0,15.17,7.16,15.17,16V0h-15.17Z"/>
      <path class="cls-1" d="m55.95,4.87c-2.07-1.33-4.1-1.81-5.49-1.97l-.22,2.04c1.16.14,2.86.54,4.58,1.65l1.13-1.71Z"/>
      <path class="cls-1" d="m52.6,8.11l-.76,1.91c1.4.58,2.58,1.68,3.35,3.11l1.82-.95c-1-1.87-2.56-3.3-4.42-4.07Z"/>
      <path class="cls-1" d="m53.02,21.07l-1.8-.99c-.64,1.09-1.81,1.83-3.46,2.2-.08.02-.16.04-.25.05l.34,2.02c.12-.02.24-.05.36-.07,2.25-.51,3.87-1.59,4.81-3.21Z"/>
      <path class="cls-1" d="m49.3,26.78l.54,1.98c1.39-.4,3.36-1.21,5.1-2.88l-1.44-1.47c-1.43,1.36-3.05,2.04-4.21,2.37Z"/>
      <path class="cls-1" d="m55.95,36.87c-2.07-1.33-4.1-1.81-5.49-1.97l-.22,2.04c1.16.14,2.86.54,4.58,1.65l1.13-1.71Z"/>
      <path class="cls-1" d="m43.27,55.91l.74-1.91c-1.4-.57-2.59-1.66-3.38-3.09l-1.81.96c1.01,1.86,2.58,3.29,4.45,4.04Z"/>
      <path class="cls-1" d="m39.91,59.14c2.07,1.33,4.1,1.81,5.49,1.97l.22-2.04c-1.16-.14-2.86-.54-4.58-1.65l-1.13,1.71Z"/>
      <path class="cls-1" d="m34.25,51c.53,2.26,1.26,3.6,2.35,5.09l1.66-1.21c-.99-1.37-1.59-2.66-2-4.29l-2.01.41Z"/>
      <path class="cls-1" d="m44.16,47.8c-.06-.2-.11-.42-.15-.64l-2.04.1c.07.51.15.97.23,1.25.29.98.88,1.8,1.62,2.26,1.53.95,2.6.14,2.94-.19-1.4-.47-2.17-1.29-2.61-2.77Z"/>
      <path class="cls-1" d="m39.57,47.43c-.04-.51-.05-1.03-.01-1.56.08-1.17.32-2.26.72-3.24l-1.89-.8c-.49,1.19-.78,2.5-.87,3.9-.04.64-.04,1.27.02,1.88l2.04-.19Z"/>
      <path class="cls-1" d="m51.69,48.21c.06.2.11.42.15.64l2.04-.1c-.07-.51-.15-.97-.23-1.25-.29-.98-.88-1.8-1.62-2.26-.78-.48-1.53-.57-2.23-.27-.33.14-.57.34-.71.47,1.4.47,2.16,1.29,2.61,2.77Z"/>
      <path class="cls-1" d="m47.17,32c-8.38,0-15.17-7.16-15.17-16h-2.02c0,8.84-6.43,16-14.81,16S0,24.84,0,16v32h2.03c0-8.84,6.43-16,14.81-16s15.17,7.16,15.17,16h2.03c0-8.84,6.43-16,14.81-16s15.17,7.16,15.17,16V16h-2.02c0,8.84-6.43,16-14.81,16Z"/>
      <path class="cls-1" d="m48.34,41.68l-.34-2.02c-.12.02-.24.05-.36.07-2.25.51-3.87,1.59-4.81,3.21l1.8.99c.64-1.09,1.81-1.83,3.46-2.2.08-.02.16-.04.25-.05Z"/>
      <path class="cls-1" d="m46.55,37.23l-.54-1.98c-1.39.4-3.36,1.21-5.1,2.88l1.43,1.47c1.43-1.36,3.05-2.04,4.21-2.37Z"/>
      <path class="cls-1" d="m57.6,41.13c1.02,1.35,1.65,2.63,2.09,4.24l2-.45c-.57-2.24-1.34-3.57-2.46-5.04l-1.63,1.25Z"/>
      <path class="cls-1" d="m56.28,48.59c.02.28.03.56.03.85,0,.23,0,.47-.02.7-.08,1.17-.32,2.26-.72,3.24l1.89.8c.49-1.19.78-2.5.87-3.9.04-.64.04-1.27-.02-1.88l-2.04.19Z"/>
      <path class="cls-1" d="m48.46,49.01s.22-.59-.05-1.19c-.28-.6-1.09-.76-1.09-.76,0,0-.25.61.1,1.19.35.58,1.04.75,1.04.75Z"/>
      <path class="cls-1" d="m32,16h2.03c0-8.84,6.43-16,14.81-16H16.83c8.38,0,15.17,7.16,15.17,16Z"/>
      <path class="cls-1" d="m52.6,40.11l-.76,1.91c1.4.58,2.58,1.68,3.35,3.11l1.82-.95c-1-1.87-2.56-3.3-4.42-4.07Z"/>
      <path class="cls-1" d="m53.02,53.07l-1.8-.99c-.64,1.09-1.81,1.83-3.46,2.2-.08.02-.16.04-.25.05l.34,2.02c.12-.02.24-.05.36-.07,2.25-.51,3.87-1.59,4.81-3.21Z"/>
      <path class="cls-1" d="m49.3,58.78l.54,1.98c1.39-.4,3.36-1.21,5.1-2.88l-1.44-1.47c-1.43,1.36-3.05,2.04-4.21,2.37Z"/>
    </g>
  </g>
</svg>