<?xml version="1.0" encoding="UTF-8"?>
<svg id="Tohu" xmlns="http://www.w3.org/2000/svg" viewBox="0 0 64 64">
  <defs>
    <style>
      .cls-1 {
        fill: #061a2f;
        stroke-width: 0px;
      }
    </style>
  </defs>
  <g id="Whanaungatanga_-_reverse" data-name="Whanaungatanga - reverse">
    <g>
      <path class="cls-1" d="m3.12,56.01c-.99-.72-2.02-1.53-3.12-2.43v10.43h26.73c-2.38-.07-6.87-.42-11.47-1.98-2.98-1.01-7.43-2.6-12.13-6.02Z"/>
      <path class="cls-1" d="m29.11,64h34.89v-10.43c-2.79-2.27-5.97-5.04-9.7-7.83-4.89,16.95-21.73,18.19-25.2,18.26Z"/>
      <path class="cls-1" d="m18.39,47.77c5.63,1.94,9.36,2.47,11.85,2.47,1.22,0,2.1-.15,2.1-.15,1.81-.31,3.17-1.72,3.1-3.55-.07-1.9-1.67-3.38-3.57-3.3-1.35.05-2.49.88-3.01,2.04-5.29-.77-8.96-2.13-8.96-2.13-.05-.01-5.06-1.55-11.74-7.07-2.29-1.89-4.73-4.28-7.3-6.68-.32-.3-.6-.62-.87-.9v6.99c1.67,1.69,3.47,3.02,5.07,4.34,7.21,5.94,12.32,7.62,13.32,7.94Z"/>
      <path class="cls-1" d="m37.28,0c2.38.07,6.87.42,11.47,1.98,2.98,1.01,7.43,2.61,12.13,6.02.99.72,2.03,1.53,3.13,2.43V0h-26.72Z"/>
      <path class="cls-1" d="m45.62,16.23c-7.48-2.93-13.53-2.33-13.53-2.33-1.99.13-3.53,1.66-3.52,3.56,0,1.9,1.67,3.38,3.57,3.3,1.35-.05,2.49-.88,3.01-2.04,4.23.43,8.96,2.13,8.96,2.13.05.01,5.06,1.55,11.74,7.07,2.29,1.89,5.18,4.48,7.3,6.68.3.32.59.62.86.9v-6.99c-1.67-1.69-3.47-3.01-5.06-4.33-6.94-5.73-12.23-7.55-13.32-7.94Z"/>
      <path class="cls-1" d="m0,10.42c2.79,2.27,5.97,5.04,9.7,7.83C15.54,1.57,30.92.11,34.69,0H0v10.42Z"/>
    </g>
  </g>
</svg>