<?xml version="1.0" encoding="UTF-8"?>
<svg id="Tohu" xmlns="http://www.w3.org/2000/svg" viewBox="0 0 64 64">
  <defs>
    <style>
      .cls-1 {
        fill: #061a2f;
        stroke-width: 0px;
      }
    </style>
  </defs>
  <g id="Te_Ao_Tūroa_-_Tier_4" data-name="Te Ao Tūroa - Tier 4">
    <g>
      <path class="cls-1" d="m15.17,32c8.38,0,14.81-7.16,14.81-16h2.02C32,7.16,25.21,0,16.83,0S2.03,7.16,2.03,16H0c0,8.84,6.79,16,15.17,16Zm-1.77-2.88c-1.39-.16-3.42-.64-5.49-1.97l1.13-1.71c1.72,1.11,3.42,1.51,4.58,1.65l-.22,2.04Zm-1.57-10.35c-.74-.46-1.33-1.28-1.62-2.26-.08-.28-.17-.74-.23-1.25l2.04-.1c.04.22.09.44.15.64.44,1.49,1.2,2.3,2.61,2.77-.34.33-1.41,1.14-2.94.19Zm6.01,9.99l-.54-1.98c1.16-.33,2.78-1.01,4.21-2.37l1.44,1.47c-1.74,1.67-3.71,2.49-5.1,2.88Zm8.5-10.48c-.09,1.4-.38,2.71-.87,3.9l-1.89-.8c.4-.98.64-2.07.72-3.24.02-.24.02-.47.02-.7,0-.29-.01-.57-.03-.85l2.04-.19c.05.61.06,1.25.02,1.88Zm.88-10.39c1.11,1.47,1.88,2.79,2.46,5.04l-2,.45c-.44-1.61-1.07-2.89-2.09-4.24l1.63-1.25Zm-4.03,5.25c-.77-1.43-1.95-2.53-3.35-3.11l.76-1.91c1.86.77,3.42,2.21,4.42,4.07l-1.82.95Zm-4.74-10.23c1.39.16,3.42.64,5.49,1.97l-1.13,1.71c-1.72-1.11-3.42-1.51-4.58-1.65l.22-2.04Zm-.66,10.08c.7-.3,1.45-.21,2.23.27.74.46,1.33,1.28,1.62,2.26.08.28.17.74.23,1.25l-2.04.1c-.04-.22-.09-.44-.15-.64-.44-1.49-1.2-2.3-2.61-2.77.13-.13.37-.33.71-.47Zm1.43,7.1l1.8.99c-.94,1.62-2.55,2.7-4.81,3.21-.12.03-.24.05-.36.07l-.34-2.02c.08-.02.16-.03.25-.05,1.65-.37,2.82-1.11,3.46-2.2Zm-2.76-3.06s-.68-.17-1.04-.75c-.35-.58-.1-1.19-.1-1.19,0,0,.81.16,1.09.76.28.6.05,1.19.05,1.19Zm-.46-9.35l.34,2.02c-.08.02-.16.03-.25.05-1.65.37-2.82,1.11-3.46,2.2l-1.8-.99c.94-1.62,2.55-2.7,4.81-3.21.12-.03.24-.05.36-.07Zm-1.99-4.41l.54,1.98c-1.16.33-2.78,1.01-4.21,2.37l-1.43-1.47c1.74-1.67,3.71-2.49,5.1-2.88Zm-1.99,18.74l-.74,1.91c-1.86-.75-3.43-2.18-4.45-4.04l1.81-.96c.78,1.42,1.97,2.51,3.38,3.09Zm-6.5-8.26c.09-1.4.38-2.71.87-3.9l1.89.8c-.4.98-.64,2.07-.72,3.24-.03.53-.03,1.05.01,1.56l-2.04.19c-.05-.61-.06-1.25-.02-1.88Zm-1.25,4.86c.41,1.62,1.01,2.92,2,4.29l-1.66,1.21c-1.08-1.49-1.82-2.83-2.35-5.09l2.01-.41Z"/>
      <path class="cls-1" d="m47.17,32c8.38,0,14.81-7.16,14.81-16h2.02c0-8.84-6.79-16-15.17-16s-14.81,7.16-14.81,16h-2.03c0,8.84,6.79,16,15.17,16Zm-1.77-2.88c-1.39-.16-3.42-.64-5.49-1.97l1.13-1.71c1.72,1.11,3.42,1.51,4.58,1.65l-.22,2.04Zm-1.57-10.35c-.74-.46-1.33-1.28-1.62-2.26-.08-.28-.17-.74-.23-1.25l2.04-.1c.04.22.09.44.15.64.44,1.49,1.2,2.3,2.61,2.77-.34.33-1.41,1.14-2.94.19Zm6.01,9.99l-.54-1.98c1.16-.33,2.78-1.01,4.21-2.37l1.44,1.47c-1.74,1.67-3.71,2.49-5.1,2.88Zm8.5-10.48c-.09,1.4-.38,2.71-.87,3.9l-1.89-.8c.4-.98.64-2.07.72-3.24.02-.24.02-.47.02-.7,0-.29-.01-.57-.03-.85l2.04-.19c.05.61.06,1.25.02,1.88Zm.88-10.39c1.11,1.47,1.88,2.79,2.46,5.04l-2,.45c-.44-1.61-1.07-2.89-2.09-4.24l1.63-1.25Zm-4.03,5.25c-.77-1.43-1.95-2.53-3.35-3.11l.76-1.91c1.86.77,3.42,2.21,4.42,4.07l-1.82.95Zm-4.74-10.23c1.39.16,3.42.64,5.49,1.97l-1.13,1.71c-1.72-1.11-3.42-1.51-4.58-1.65l.22-2.04Zm-.66,10.08c.7-.3,1.45-.21,2.23.27.74.46,1.33,1.28,1.62,2.26.08.28.17.74.23,1.25l-2.04.1c-.04-.22-.09-.44-.15-.64-.44-1.49-1.2-2.3-2.61-2.77.13-.13.37-.33.71-.47Zm1.43,7.1l1.8.99c-.94,1.62-2.55,2.7-4.81,3.21-.12.03-.24.05-.36.07l-.34-2.02c.08-.02.16-.03.25-.05,1.65-.37,2.82-1.11,3.46-2.2Zm-2.76-3.06s-.68-.17-1.04-.75c-.35-.58-.1-1.19-.1-1.19,0,0,.81.16,1.09.76.28.6.05,1.19.05,1.19Zm-.46-9.35l.34,2.02c-.08.02-.16.03-.25.05-1.65.37-2.82,1.11-3.46,2.2l-1.8-.99c.94-1.62,2.55-2.7,4.81-3.21.12-.03.24-.05.36-.07Zm-1.99-4.41l.54,1.98c-1.16.33-2.78,1.01-4.21,2.37l-1.43-1.47c1.74-1.67,3.71-2.49,5.1-2.88Zm-1.99,18.74l-.74,1.91c-1.86-.75-3.43-2.18-4.45-4.04l1.81-.96c.78,1.42,1.97,2.51,3.38,3.09Zm-6.5-8.26c.09-1.4.38-2.71.87-3.9l1.89.8c-.4.98-.64,2.07-.72,3.24-.03.53-.03,1.05.01,1.56l-2.04.19c-.05-.61-.06-1.25-.02-1.88Zm-1.25,4.86c.41,1.62,1.01,2.92,2,4.29l-1.66,1.21c-1.08-1.49-1.82-2.83-2.35-5.09l2.01-.41Z"/>
      <path class="cls-1" d="m16.83,32c-8.38,0-14.81,7.16-14.81,16H0c0,8.84,6.79,16,15.17,16s14.81-7.16,14.81-16h2.02c0-8.84-6.79-16-15.17-16Zm1.62,2.89c1.39.16,3.42.64,5.49,1.97l-1.13,1.71c-1.72-1.11-3.42-1.51-4.58-1.65l.22-2.04Zm-.66,10.08c.7-.3,1.45-.21,2.23.27.74.46,1.33,1.28,1.62,2.26.08.28.17.74.23,1.25l-2.04.1c-.04-.22-.09-.44-.15-.64-.44-1.49-1.2-2.3-2.61-2.77.13-.13.37-.33.71-.47Zm-3.78-9.72l.54,1.98c-1.16.33-2.78,1.01-4.21,2.37l-1.43-1.47c1.74-1.67,3.71-2.49,5.1-2.88Zm-8.5,10.48c.09-1.4.38-2.71.87-3.9l1.89.8c-.4.98-.64,2.07-.72,3.24-.03.53-.03,1.05.01,1.56l-2.04.19c-.05-.61-.06-1.25-.02-1.88Zm-.91,10.36c-1.08-1.49-1.82-2.83-2.35-5.09l2.01-.41c.41,1.62,1.01,2.92,2,4.29l-1.66,1.21Zm4.04-5.19c.78,1.42,1.97,2.51,3.38,3.09l-.74,1.91c-1.86-.75-3.43-2.18-4.45-4.04l1.81-.96Zm4.76,10.21c-1.39-.16-3.42-.64-5.49-1.97l1.13-1.71c1.72,1.11,3.42,1.51,4.58,1.65l-.22,2.04Zm-1.57-10.35c-.74-.46-1.33-1.28-1.62-2.26-.08-.28-.17-.74-.23-1.25l2.04-.1c.04.22.09.44.15.64.44,1.49,1.2,2.3,2.61,2.77-.34.33-1.41,1.14-2.94.19Zm.8-6.83l-1.8-.99c.94-1.62,2.55-2.7,4.81-3.21.12-.03.24-.05.36-.07l.34,2.02c-.08.02-.16.03-.25.05-1.65.37-2.82,1.11-3.46,2.2Zm2.69,3.13s.81.16,1.09.76c.28.6.05,1.19.05,1.19,0,0-.68-.17-1.04-.75-.35-.58-.1-1.19-.1-1.19Zm.53,9.28l-.34-2.02c.08-.02.16-.03.25-.05,1.65-.37,2.82-1.11,3.46-2.2l1.8.99c-.94,1.62-2.55,2.7-4.81,3.21-.12.03-.24.05-.36.07Zm1.99,4.41l-.54-1.98c1.16-.33,2.78-1.01,4.21-2.37l1.44,1.47c-1.74,1.67-3.71,2.49-5.1,2.88Zm1.99-18.74l.76-1.91c1.86.77,3.42,2.21,4.42,4.07l-1.82.95c-.77-1.43-1.95-2.53-3.35-3.11Zm6.5,8.26c-.09,1.4-.38,2.71-.87,3.9l-1.89-.8c.4-.98.64-2.07.72-3.24.02-.24.02-.47.02-.7,0-.29-.01-.57-.03-.85l2.04-.19c.05.61.06,1.25.02,1.88Zm1.34-4.91c-.44-1.61-1.07-2.89-2.09-4.24l1.63-1.25c1.11,1.47,1.88,2.79,2.46,5.04l-2,.45Z"/>
      <path class="cls-1" d="m48.83,32c-8.38,0-14.81,7.16-14.81,16h-2.03c0,8.84,6.79,16,15.17,16s14.81-7.16,14.81-16h2.02c0-8.84-6.79-16-15.17-16Zm1.62,2.89c1.39.16,3.42.64,5.49,1.97l-1.13,1.71c-1.72-1.11-3.42-1.51-4.58-1.65l.22-2.04Zm-.66,10.08c.7-.3,1.45-.21,2.23.27.74.46,1.33,1.28,1.62,2.26.08.28.17.74.23,1.25l-2.04.1c-.04-.22-.09-.44-.15-.64-.44-1.49-1.2-2.3-2.61-2.77.13-.13.37-.33.71-.47Zm-3.78-9.72l.54,1.98c-1.16.33-2.78,1.01-4.21,2.37l-1.43-1.47c1.74-1.67,3.71-2.49,5.1-2.88Zm-8.5,10.48c.09-1.4.38-2.71.87-3.9l1.89.8c-.4.98-.64,2.07-.72,3.24-.03.53-.03,1.05.01,1.56l-2.04.19c-.05-.61-.06-1.25-.02-1.88Zm-.91,10.36c-1.08-1.49-1.82-2.83-2.35-5.09l2.01-.41c.41,1.62,1.01,2.92,2,4.29l-1.66,1.21Zm4.04-5.19c.78,1.42,1.97,2.51,3.38,3.09l-.74,1.91c-1.86-.75-3.43-2.18-4.45-4.04l1.81-.96Zm4.76,10.21c-1.39-.16-3.42-.64-5.49-1.97l1.13-1.71c1.72,1.11,3.42,1.51,4.58,1.65l-.22,2.04Zm-1.57-10.35c-.74-.46-1.33-1.28-1.62-2.26-.08-.28-.17-.74-.23-1.25l2.04-.1c.04.22.09.44.15.64.44,1.49,1.2,2.3,2.61,2.77-.34.33-1.41,1.14-2.94.19Zm.8-6.83l-1.8-.99c.94-1.62,2.55-2.7,4.81-3.21.12-.03.24-.05.36-.07l.34,2.02c-.08.02-.16.03-.25.05-1.65.37-2.82,1.11-3.46,2.2Zm2.69,3.13s.81.16,1.09.76c.28.6.05,1.19.05,1.19,0,0-.68-.17-1.04-.75-.35-.58-.1-1.19-.1-1.19Zm.53,9.28l-.34-2.02c.08-.02.16-.03.25-.05,1.65-.37,2.82-1.11,3.46-2.2l1.8.99c-.94,1.62-2.55,2.7-4.81,3.21-.12.03-.24.05-.36.07Zm1.99,4.41l-.54-1.98c1.16-.33,2.78-1.01,4.21-2.37l1.44,1.47c-1.74,1.67-3.71,2.49-5.1,2.88Zm1.99-18.74l.76-1.91c1.86.77,3.42,2.21,4.42,4.07l-1.82.95c-.77-1.43-1.95-2.53-3.35-3.11Zm6.5,8.26c-.09,1.4-.38,2.71-.87,3.9l-1.89-.8c.4-.98.64-2.07.72-3.24.02-.24.02-.47.02-.7,0-.29-.01-.57-.03-.85l2.04-.19c.05.61.06,1.25.02,1.88Zm1.34-4.91c-.44-1.61-1.07-2.89-2.09-4.24l1.63-1.25c1.11,1.47,1.88,2.79,2.46,5.04l-2,.45Z"/>
    </g>
  </g>
</svg>