<?xml version="1.0" encoding="UTF-8"?>
<svg id="Tohu" xmlns="http://www.w3.org/2000/svg" viewBox="0 0 64 64">
  <defs>
    <style>
      .cls-1 {
        fill: #061a2f;
        stroke-width: 0px;
      }
    </style>
  </defs>
  <g id="Whanaungatanga_-_Tier4_-2" data-name="Whanaungatanga - Tier4 -2">
    <g>
      <path class="cls-1" d="m4.08,18.03c3.34,2.76,5.84,3.53,5.87,3.53,0,0,1.84.68,4.48,1.06.26-.58.83-.99,1.5-1.02.95-.04,1.75.7,1.78,1.65.04.92-.65,1.62-1.55,1.77,0,0-.44.08-1.05.08-1.24,0-3.11-.27-5.92-1.24-.5-.16-3.05-1-6.66-3.97C1.73,19.25.83,18.58,0,17.74v9.04c.55.45,1.07.86,1.56,1.22,2.35,1.71,4.58,2.5,6.07,3.01,3.35,1.14,6.6.99,6.6.99,0,0,10.19.33,12.92-9.13,1.86,1.4,3.45,2.78,4.85,3.92,1.4-1.14,2.99-2.52,4.85-3.92,2.73,9.46,12.92,9.13,12.92,9.13,0,0,3.25.15,6.6-.99,1.49-.51,3.71-1.3,6.07-3.01.49-.36,1.01-.77,1.56-1.22v-9.04c-.83.84-1.73,1.51-2.53,2.17-3.61,2.97-6.16,3.81-6.66,3.97-2.81.97-4.68,1.24-5.92,1.24-.61,0-1.05-.08-1.05-.08-.91-.16-1.59-.86-1.55-1.77.04-.95.83-1.69,1.78-1.65.68.03,1.25.44,1.5,1.02,2.65-.39,4.48-1.06,4.48-1.06.02,0,2.53-.77,5.87-3.53,1.14-.94,2.37-2.14,3.65-3.34.16-.15.3-.31.44-.45V5.2c-1.4,1.14-2.99,2.52-4.85,3.92C55.81-.42,46.23,0,46.23,0c0,0-3.25-.15-6.6.99-1.49.51-3.71,1.3-6.07,3.01-.49.36-1.01.77-1.56,1.22-.55-.45-1.07-.86-1.56-1.22-2.35-1.71-4.58-2.5-6.07-3.01C21.02-.16,17.77,0,17.77,0,17.77,0,8.19-.42,4.85,9.12,2.99,7.72,1.4,6.34,0,5.2v9.04c.14.14.27.3.43.45,1.28,1.2,2.51,2.39,3.65,3.34Zm11.96-11.09s3.03-.3,6.76,1.16c.55.2,3.19,1.1,6.66,3.97.8.66,1.7,1.32,2.53,2.17.83-.84,1.73-1.51,2.53-2.17,3.47-2.87,6.12-3.77,6.66-3.97,3.74-1.46,6.76-1.16,6.76-1.16.99.06,1.76.83,1.76,1.78,0,.95-.83,1.69-1.78,1.65-.68-.03-1.25-.44-1.5-1.02-2.11.21-4.48,1.06-4.48,1.06-.02,0-2.53.77-5.87,3.53-1.14.94-2.59,2.24-3.65,3.34-.15.16-.3.31-.43.45-.14-.14-.28-.29-.43-.45-1.06-1.1-2.51-2.39-3.65-3.34-3.34-2.76-5.84-3.53-5.87-3.53,0,0-2.37-.85-4.48-1.06-.26.58-.83.99-1.5,1.02-.95.04-1.78-.7-1.78-1.65,0-.95.77-1.71,1.76-1.78Z"/>
      <path class="cls-1" d="m48.06,53.62c.68.03,1.25.44,1.5,1.02,2.65-.39,4.48-1.06,4.48-1.06.02,0,2.53-.77,5.87-3.53,1.14-.94,2.37-2.14,3.65-3.34.16-.15.3-.31.44-.45v-9.04c-1.4,1.14-2.99,2.52-4.85,3.92-3.34-9.54-12.92-9.13-12.92-9.13,0,0-3.25-.15-6.6.99-1.49.51-3.71,1.3-6.07,3.01-.49.36-1.01.77-1.56,1.22-.55-.45-1.07-.86-1.56-1.22-2.35-1.71-4.58-2.5-6.07-3.01-3.35-1.14-6.6-.99-6.6-.99,0,0-9.58-.41-12.92,9.13C2.99,39.74,1.4,38.36,0,37.22v9.04c.14.14.27.3.43.45,1.28,1.2,2.51,2.39,3.65,3.34,3.34,2.76,5.84,3.53,5.87,3.53,0,0,1.84.68,4.48,1.06.26-.58.83-.99,1.5-1.02.95-.04,1.75.7,1.78,1.65.04.92-.65,1.62-1.55,1.77,0,0-.44.08-1.05.08-1.24,0-3.11-.27-5.92-1.24-.5-.16-3.05-1-6.66-3.97C1.73,51.26.83,50.6,0,49.75v9.04c.55.45,1.07.86,1.56,1.22,2.35,1.71,4.58,2.5,6.07,3.01,3.35,1.14,6.6.99,6.6.99,0,0,10.19.33,12.92-9.13,1.86,1.4,3.45,2.78,4.85,3.92,1.4-1.14,2.99-2.52,4.85-3.92,2.73,9.46,12.92,9.13,12.92,9.13,0,0,3.25.15,6.6-.99,1.49-.51,3.71-1.3,6.07-3.01.49-.36,1.01-.77,1.56-1.22v-9.04c-.83.84-1.73,1.51-2.53,2.17-3.61,2.97-6.16,3.81-6.66,3.97-2.81.97-4.68,1.24-5.92,1.24-.61,0-1.05-.08-1.05-.08-.91-.16-1.59-.86-1.55-1.77.04-.95.83-1.69,1.78-1.65Zm-6.11-11.19s-2.53.77-5.87,3.53c-1.14.94-2.59,2.24-3.65,3.34-.15.16-.3.31-.43.45-.14-.14-.28-.29-.43-.45-1.06-1.1-2.51-2.39-3.65-3.34-3.34-2.76-5.84-3.53-5.87-3.53,0,0-2.37-.85-4.48-1.06-.26.58-.83.99-1.5,1.02-.95.04-1.78-.7-1.78-1.65,0-.95.77-1.71,1.76-1.78,0,0,3.03-.3,6.76,1.16.55.2,3.19,1.1,6.66,3.97.8.66,1.7,1.32,2.53,2.17.83-.84,1.73-1.51,2.53-2.17,3.47-2.87,6.12-3.77,6.66-3.97,3.74-1.46,6.76-1.16,6.76-1.16.99.06,1.76.83,1.76,1.78,0,.95-.83,1.69-1.78,1.65-.68-.03-1.25-.44-1.5-1.02-2.11.21-4.48,1.06-4.48,1.06Z"/>
    </g>
  </g>
</svg>