<?xml version="1.0" encoding="UTF-8"?>
<svg id="Tohu" xmlns="http://www.w3.org/2000/svg" viewBox="0 0 64 64">
  <defs>
    <style>
      .cls-1 {
        fill: none;
      }

      .cls-1, .cls-2 {
        stroke-width: 0px;
      }

      .cls-2 {
        fill: #061a2f;
      }
    </style>
  </defs>
  <g id="Taonga_Tuku_Iho_-_reverse" data-name="Taonga Tuku Iho - reverse">
    <g>
      <path class="cls-1" d="m42.66,42.66h-10.67v-5.33c0-2.94-2.39-5.33-5.33-5.33h-5.34s-10.65,0-10.65,0v-10.65H0v10.65H0v10.67h21.32v10.67h16.01v.02c2.94,0,5.33,2.38,5.33,5.33v5.33h1.34v-10.77h9.33v-10.57h-10.67Z"/>
      <path class="cls-2" d="m42.66,64v-5.33c0-2.94-2.39-5.33-5.33-5.33v-.02h-16.01v-10.67H0v-10.65H0v-10.67h10.67v10.65h16c2.94,0,5.33,2.39,5.33,5.33v5.33h21.34v10.57h10.67v-21.24h-21.34v-5.33c0-2.94-2.38-5.33-5.33-5.33h-16v-10.67H0V0h26.67c2.94,0,5.33,2.39,5.33,5.33v5.33h21.34v10.65h10.67V0H0v53.33h5.34c2.94,0,5.33,2.39,5.33,5.33v5.33H0s44,0,44,0h0s-1.34,0-1.34,0Z"/>
    </g>
  </g>
</svg>