<?xml version="1.0" encoding="UTF-8"?>
<svg id="Tohu" xmlns="http://www.w3.org/2000/svg" viewBox="0 0 64 64">
  <defs>
    <style>
      .cls-1 {
        fill: #061a2f;
        stroke-width: 0px;
      }
    </style>
  </defs>
  <g id="Whanaungatanga_-_Tier4_-1" data-name="Whanaungatanga - Tier4 -1">
    <g>
      <path class="cls-1" d="m7.63,31c3.35,1.14,6.6.99,6.6.99,0,0,10.19.33,12.92-9.13,1.86,1.4,3.45,2.78,4.85,3.92h0c.55.45,1.07.86,1.56,1.22,2.35,1.71,4.58,2.5,6.07,3.01,3.35,1.14,6.6.99,6.6.99,0,0,10.19.33,12.92-9.13,1.86,1.4,3.45,2.78,4.85,3.92v-9.04c-.14-.14-.28-.29-.43-.45-1.06-1.1-2.51-2.39-3.65-3.34-3.34-2.76-5.84-3.53-5.87-3.53,0,0-2.37-.85-4.48-1.06-.26.58-.83.99-1.5,1.02-.95.04-1.78-.7-1.78-1.65,0-.95.77-1.71,1.76-1.78,0,0,3.03-.3,6.76,1.16.55.2,3.19,1.1,6.66,3.97.8.66,1.7,1.32,2.53,2.17V5.21c-.55-.45-1.07-.86-1.56-1.22-2.35-1.71-4.58-2.5-6.07-3.01C53.02-.16,49.77,0,49.77,0c0,0-9.58-.41-12.92,9.13-1.86-1.4-3.45-2.78-4.85-3.92h0c-.55-.45-1.07-.86-1.56-1.21-2.35-1.71-4.58-2.5-6.07-3.01C21.02-.16,17.77,0,17.77,0,17.77,0,8.19-.42,4.85,9.12c-1.86-1.4-3.45-2.78-4.85-3.92v9.04c.14.14.27.3.44.45,1.28,1.2,2.51,2.39,3.65,3.34,3.34,2.76,5.84,3.53,5.87,3.53,0,0,1.84.68,4.48,1.06.26-.58.83-.99,1.5-1.02.95-.04,1.75.7,1.78,1.65.04.92-.65,1.62-1.55,1.77,0,0-.44.08-1.05.08-1.24,0-3.11-.27-5.92-1.24-.5-.16-3.05-1-6.66-3.97-.8-.66-1.7-1.33-2.53-2.17v9.04c.55.45,1.07.86,1.56,1.22,2.35,1.71,4.58,2.5,6.07,3.01Zm9.94-21.65c-.26.58-.83.99-1.5,1.02-.95.04-1.78-.7-1.78-1.65,0-.95.77-1.71,1.76-1.78,0,0,3.03-.3,6.76,1.16.55.2,3.19,1.1,6.66,3.97.8.66,1.7,1.32,2.53,2.17.14.14.27.3.44.45,1.28,1.2,2.51,2.39,3.65,3.34,3.34,2.76,5.84,3.53,5.87,3.53,0,0,1.84.68,4.48,1.06.26-.58.83-.99,1.5-1.02.95-.04,1.75.7,1.78,1.65.04.92-.65,1.62-1.55,1.77,0,0-.44.08-1.05.08-1.24,0-3.11-.27-5.92-1.24-.5-.16-3.05-1-6.66-3.97-.8-.66-1.7-1.33-2.53-2.17h0c-.14-.14-.28-.29-.43-.45-1.06-1.1-2.51-2.39-3.65-3.34-3.34-2.76-5.84-3.53-5.87-3.53,0,0-2.37-.85-4.48-1.06Z"/>
      <path class="cls-1" d="m7.63,63.02c3.35,1.14,6.6.99,6.6.99,0,0,10.19.33,12.92-9.13,1.86,1.4,3.45,2.78,4.85,3.92h0c.55.45,1.07.86,1.56,1.22,2.35,1.71,4.58,2.5,6.07,3.01,3.35,1.14,6.6.99,6.6.99,0,0,10.19.33,12.92-9.13,1.86,1.4,3.45,2.78,4.85,3.92v-9.04c-.14-.14-.28-.29-.43-.45-1.06-1.1-2.51-2.39-3.65-3.34-3.34-2.76-5.84-3.53-5.87-3.53,0,0-2.37-.85-4.48-1.06-.26.58-.83.99-1.5,1.02-.95.04-1.78-.7-1.78-1.65,0-.95.77-1.71,1.76-1.78,0,0,3.03-.3,6.76,1.16.55.2,3.19,1.1,6.66,3.97.8.66,1.7,1.32,2.53,2.17v-9.04c-.55-.45-1.07-.86-1.56-1.22-2.35-1.71-4.58-2.5-6.07-3.01-3.35-1.14-6.6-.99-6.6-.99,0,0-9.58-.41-12.92,9.13-1.86-1.4-3.45-2.78-4.85-3.92h0c-.55-.45-1.07-.86-1.56-1.21-2.35-1.71-4.58-2.5-6.07-3.01-3.35-1.14-6.6-.99-6.6-.99,0,0-9.58-.41-12.92,9.13-1.86-1.4-3.45-2.78-4.85-3.92v9.04c.14.14.27.3.44.45,1.28,1.2,2.51,2.39,3.65,3.34,3.34,2.76,5.84,3.53,5.87,3.53,0,0,1.84.68,4.48,1.06.26-.58.83-.99,1.5-1.02.95-.04,1.75.7,1.78,1.65.04.92-.65,1.62-1.55,1.77,0,0-.44.08-1.05.08-1.24,0-3.11-.27-5.92-1.24-.5-.16-3.05-1-6.66-3.97-.8-.66-1.7-1.33-2.53-2.17v9.04c.55.45,1.07.86,1.56,1.22,2.35,1.71,4.58,2.5,6.07,3.01Zm9.94-21.65c-.26.58-.83.99-1.5,1.02-.95.04-1.78-.7-1.78-1.65,0-.95.77-1.71,1.76-1.78,0,0,3.03-.3,6.76,1.16.55.2,3.19,1.1,6.66,3.97.8.66,1.7,1.32,2.53,2.17.14.14.27.3.44.45,1.28,1.2,2.51,2.39,3.65,3.34,3.34,2.76,5.84,3.53,5.87,3.53,0,0,1.84.68,4.48,1.06.26-.58.83-.99,1.5-1.02.95-.04,1.75.7,1.78,1.65.04.92-.65,1.62-1.55,1.77,0,0-.44.08-1.05.08-1.24,0-3.11-.27-5.92-1.24-.5-.16-3.05-1-6.66-3.97-.8-.66-1.7-1.33-2.53-2.17h0c-.14-.14-.28-.29-.43-.45-1.06-1.1-2.51-2.39-3.65-3.34-3.34-2.76-5.84-3.53-5.87-3.53,0,0-2.37-.85-4.48-1.06Z"/>
    </g>
  </g>
</svg>