<?xml version="1.0" encoding="UTF-8"?>
<svg id="Tohu" xmlns="http://www.w3.org/2000/svg" viewBox="0 0 64 64">
  <defs>
    <style>
      .cls-1 {
        fill: #061a2f;
        stroke-width: 0px;
      }
    </style>
  </defs>
  <g id="Mana_whakahaere" data-name="Mana whakahaere">
    <path class="cls-1" d="m39.05,22.56c-.7-.35-1.25-1.39-.65-2.02.9-.96,2.05.28,2.05.28-.6.6-1.07,1.35-1.31,1.8m-6.7,7.1c-4.37,0-7.18-1.8-7.18-4.21s3.87-3.19,6.33-3.19c.8,0,2.38.1,3.19.53-1.08,2.4.75,4.61,3.45,4.18-.27,2.31-4.38,2.7-5.8,2.7m3.9-5.54c.24-1.09,2.37-.55,2.37-.55-.26.83-.37,1.36-.41,2.15,0,.03-2.35.21-1.96-1.6m26.11,5.24c.52,0,1.55-.43,1.55-.43v-1.22c-.1.02-1.78.4-1.78-.81,0-1.05,1.39-.95,1.78-.83v-1.41c-.06.02-1.64.16-1.64-.84,0-1.08,1.21-1.06,1.64-.89v-1.25c-.17-.24-2.84-3.45-7.44-4.4-3.67-.76-10.92-.84-15.08,2.55-2.39-2.71-7.15-3.89-12.46-3.89-11.84,0-13.71,7.15-12.96,10.47C7.68,19.86,0,20.78,0,20.78v13.72l14.01,4.14s-.4,4.24-6.54,3.87c-3.16-.19-7.47-2.57-7.47-2.57v4.6s4.43,3.47,10.88,3.47c11.06,0,14.89-5.38,26.5-2.5,7.99,1.98,11.32,2.5,16.58,2.5,4.24,0,10.04-2.27,10.04-4.77v-6.71h0s-1.28-.01-1.28-.01h0c.16.47.21,1.71-.53,1.71-.81,0-.86-1-.76-1.7h0s-1.31-.01-1.31-.01h0c.1.43.21,1.84-.65,1.84s-1.02-1.3-.69-1.82h0s-1.37-.01-1.37-.01c0,0-.34.47-.34,1.39s.46,2.59,2.48,2.36c-.13.43-2.78,1.11-4.99,1.11-2.61,0-4.78-.95-5.59-1.7,5.34-5.5,2.76-9.26,4.03-12.12,1.37-3.1,5.74-2.26,6.85-1.83-.66,1.37.07,3.69,2.58,3.69"/>
  </g>
</svg>