<?xml version="1.0" encoding="UTF-8"?>
<svg id="Tohu" xmlns="http://www.w3.org/2000/svg" viewBox="0 0 64 64">
  <defs>
    <style>
      .cls-1 {
        fill: #061a2f;
        stroke-width: 0px;
      }
    </style>
  </defs>
  <g id="Whanaungatanga">
    <path class="cls-1" d="m0,10.49c2.79,2.27,5.97,5.04,9.7,7.83C16.38-.76,35.53.07,35.53.07c0,0,6.5-.29,13.21,1.98,2.98,1.01,7.43,2.61,12.13,6.02.99.72,2.03,1.53,3.13,2.43v18.08c-1.67-1.69-3.47-3.01-5.06-4.33-6.94-5.73-12.23-7.55-13.32-7.94-7.48-2.93-13.53-2.33-13.53-2.33-1.99.13-3.53,1.66-3.52,3.56,0,1.9,1.67,3.38,3.57,3.3,1.35-.05,2.49-.88,3.01-2.04,4.23.43,8.96,2.13,8.96,2.13.05.01,5.06,1.55,11.74,7.07,2.29,1.89,5.18,4.48,7.3,6.68.3.32.59.62.86.9v18.08c-2.79-2.27-5.97-5.04-9.7-7.83-5.46,18.93-25.84,18.26-25.84,18.26,0,0-6.5.29-13.21-1.98-2.98-1.01-7.43-2.6-12.13-6.02-.99-.72-2.02-1.53-3.12-2.43v-18.08c1.67,1.69,3.47,3.02,5.07,4.34,7.21,5.94,12.32,7.62,13.32,7.94,5.63,1.94,9.36,2.47,11.85,2.47,1.22,0,2.1-.15,2.1-.15,1.81-.31,3.17-1.72,3.1-3.55-.07-1.9-1.67-3.38-3.57-3.3-1.35.05-2.49.88-3.01,2.04-5.29-.77-8.96-2.13-8.96-2.13-.05-.01-5.06-1.55-11.74-7.07-2.29-1.89-4.73-4.28-7.3-6.68-.32-.3-.6-.62-.87-.9V10.49Z"/>
  </g>
</svg>