<?xml version="1.0" encoding="UTF-8"?>
<svg id="Tohu" xmlns="http://www.w3.org/2000/svg" viewBox="0 0 64 64">
  <defs>
    <style>
      .cls-1 {
        fill: #061a2f;
        stroke-width: 0px;
      }
    </style>
  </defs>
  <g id="Te_Ao_Tūroa_-_reverse" data-name="Te Ao Tūroa - reverse">
    <g>
      <path class="cls-1" d="m15.21,30.84c-.08-1.01-.09-2.06-.02-3.11.15-2.34.63-4.51,1.43-6.47l-3.78-1.6c-.98,2.38-1.57,5.01-1.75,7.8-.08,1.27-.07,2.54.03,3.77l4.09-.39Z"/>
      <path class="cls-1" d="m29.17,10.45l-1.09-3.96c-2.78.79-6.72,2.43-10.21,5.77l2.87,2.93c2.86-2.73,6.11-4.08,8.42-4.74Z"/>
      <path class="cls-1" d="m4.57,38c1.05,4.51,2.53,7.19,4.69,10.18l3.32-2.42c-1.97-2.74-3.18-5.33-3.99-8.57l-4.02.81Z"/>
      <path class="cls-1" d="m22.61,47.81l1.49-3.83c-2.81-1.15-5.19-3.33-6.75-6.17l-3.63,1.92c2.02,3.72,5.17,6.57,8.89,8.08Z"/>
      <path class="cls-1" d="m47.96,9.73c-4.13-2.67-8.2-3.62-10.98-3.95l-.44,4.08c2.32.28,5.71,1.08,9.16,3.3l2.26-3.43Z"/>
      <path class="cls-1" d="m33.67,0H0v32h4.05C4.05,14.33,16.91,0,33.67,0Z"/>
      <path class="cls-1" d="m39.45,32.42c.12.41.22.84.3,1.28l4.08-.19c-.13-1.03-.3-1.93-.47-2.5-.58-1.96-1.77-3.6-3.25-4.52-1.56-.96-3.06-1.14-4.46-.54-.66.28-1.15.68-1.41.93,2.81.94,4.33,2.57,5.21,5.54Z"/>
      <path class="cls-1" d="m30.33,64C13.58,64,0,49.67,0,32v32h64V32h-4.05c0,17.67-12.86,32-29.62,32Z"/>
      <path class="cls-1" d="m15.88,54.27c4.13,2.67,8.2,3.62,10.98,3.95l.44-4.08c-2.32-.28-5.71-1.08-9.16-3.3l-2.26,3.43Z"/>
      <path class="cls-1" d="m33.67,0c16.75,0,30.33,14.33,30.33,32V0h-30.33Z"/>
      <path class="cls-1" d="m41.26,16.2l-1.51,3.82c2.8,1.17,5.17,3.36,6.71,6.22l3.64-1.9c-2-3.73-5.12-6.61-8.84-8.14Z"/>
      <path class="cls-1" d="m24.39,31.58c-.12-.41-.22-.83-.3-1.28l-4.08.19c.13,1.03.3,1.93.47,2.5.58,1.96,1.77,3.6,3.25,4.52,3.07,1.89,5.19.28,5.88-.39-2.81-.94-4.33-2.57-5.22-5.54Z"/>
      <path class="cls-1" d="m34.67,53.55l1.09,3.96c2.78-.79,6.72-2.43,10.21-5.77l-2.87-2.93c-2.86,2.73-6.11,4.08-8.42,4.74Z"/>
      <path class="cls-1" d="m55.43,26.73l4-.9c-1.15-4.49-2.68-7.14-4.91-10.08l-3.26,2.49c2.03,2.7,3.29,5.26,4.17,8.48Z"/>
      <path class="cls-1" d="m48.63,33.16c.05.56.07,1.13.07,1.71,0,.47-.01.93-.05,1.41-.15,2.34-.63,4.51-1.43,6.47l3.78,1.6c.98-2.38,1.57-5.01,1.75-7.8.08-1.27.07-2.54-.03-3.77l-4.09.39Z"/>
      <path class="cls-1" d="m42.1,42.13l-3.59-1.99c-1.29,2.17-3.62,3.65-6.92,4.4-.16.04-.33.07-.49.1l.69,4.05c.24-.04.48-.09.71-.15,4.51-1.02,7.74-3.18,9.61-6.42Z"/>
      <path class="cls-1" d="m32.75,19.36l-.69-4.05c-.24.04-.48.09-.71.15-4.51,1.02-7.74,3.18-9.61,6.42l3.59,1.99c1.29-2.17,3.62-3.65,6.92-4.4.16-.04.33-.07.49-.1Z"/>
      <path class="cls-1" d="m32.99,34.02s.45-1.18-.1-2.37c-.55-1.19-2.17-1.52-2.17-1.52,0,0-.51,1.22.2,2.38.71,1.17,2.07,1.5,2.07,1.5Z"/>
    </g>
  </g>
</svg>