<?xml version="1.0" encoding="UTF-8"?>
<svg id="AC_icons" data-name="AC icons" xmlns="http://www.w3.org/2000/svg" viewBox="0 0 64 64">
  <defs>
    <style>
      .cls-1 {
        fill: #061a2f;
        stroke-width: 0px;
      }
    </style>
  </defs>
  <g id="Informational_icons" data-name="Informational icons">
    <g id="T">
      <g id="toilets">
        <g id="Toilets">
          <path class="cls-1" d="m51,3.01c2.48,0,4.5,2.01,4.5,4.5s-2.01,4.5-4.5,4.5-4.5-2.01-4.5-4.5,2.01-4.5,4.5-4.5"/>
          <path class="cls-1" d="m15,3.01c2.48,0,4.5,2.01,4.5,4.5s-2.01,4.5-4.5,4.5-4.5-2.01-4.5-4.5,2.01-4.5,4.5-4.5"/>
          <path class="cls-1" d="m24.78,31.16l-3.56-11.82h-1.61l5.89,19.59c0,.55-.45,1-1,1l-5,.07v16.89c0,1.1-.9,2-2,2s-2-.9-2-2v-16.89h-2v16.89c0,1.1-.9,2-2,2s-2-.9-2-2v-16.89h-4c-1,0-1-1.07-1-1.07l5.8-19.58h-1.53l-3.54,11.86c-.85,2.59-4.43,1.53-3.61-1.21l3.93-12.92c.79-2.4,3.01-4.04,5.54-4.08h7.77c2.52.09,4.73,1.7,5.58,4.07l4,12.87c.79,2.77-2.76,3.92-3.6,1.22"/>
          <path class="cls-1" d="m35.5,62.75c-.13.81-.9,1.36-1.71,1.23-.63-.1-1.12-.6-1.23-1.23V1.25c.13-.81.9-1.36,1.71-1.23.63.1,1.12.6,1.23,1.23v61.51Z"/>
          <path class="cls-1" d="m58.49,33v-13h-1v35.99c0,1.42-.82,3-2.32,3-1.53-.16-2.69-1.46-2.68-3v-21h-2v21c.05,1.52-1.08,2.83-2.59,3-1.5,0-2.41-1.58-2.41-3V20h-1v13c0,1.1-.9,2-2,2s-2-.9-2-2v-14c0-3.3,1.76-6,5.2-6h11.5c3.78,0,5.3,3,5.3,6v14c0,1.1-.9,2-2,2s-2-.9-2-2"/>
        </g>
      </g>
    </g>
  </g>
</svg>