<?xml version="1.0" encoding="UTF-8"?>
<svg id="AC_icons" data-name="AC icons" xmlns="http://www.w3.org/2000/svg" viewBox="0 0 64 64">
  <defs>
    <style>
      .cls-1 {
        fill: #061a2f;
        stroke-width: 0px;
      }
    </style>
  </defs>
  <g id="Informational_icons" data-name="Informational icons">
    <g id="T">
      <g id="toilets-mens">
        <g id="Toilets_male" data-name="Toilets male">
          <path class="cls-1" d="m31.99,0c2.88,0,5.22,2.33,5.23,5.21,0,2.88-2.33,5.22-5.21,5.23-2.88,0-5.22-2.33-5.23-5.21,0,0,0,0,0,0C26.78,2.34,29.11,0,31.99,0Z"/>
          <path class="cls-1" d="m44.9,34.32v-15.93c0-3.47-2.7-6.86-6.76-6.86h-12.35c-3.7,0-6.7,3.01-6.7,6.71,0,.02,0,.05,0,.07v16.03c0,3.12,4.12,3.11,4.11,0v-15.6h1.96l.03,42.33c0,1.62,1.31,2.93,2.93,2.93s2.93-1.31,2.93-2.93l-.02-24.55h1.96v24.55c0,1.62,1.31,2.93,2.93,2.93s2.93-1.31,2.93-2.93h0l-.03-42.33h1.95v15.6c.02,3.12,4.11,3.12,4.11-.02Z"/>
        </g>
      </g>
    </g>
  </g>
</svg>