<?xml version="1.0" encoding="UTF-8"?>
<svg id="AC_icons" data-name="AC icons" xmlns="http://www.w3.org/2000/svg" viewBox="0 0 64 64">
  <defs>
    <style>
      .cls-1 {
        fill: #061a2f;
        stroke-width: 0px;
      }
    </style>
  </defs>
  <g id="Informational_icons" data-name="Informational icons">
    <g id="T">
      <g id="toilets-ladies">
        <g id="Toilets_female" data-name="Toilets female">
          <path class="cls-1" d="m26.77,5.23c0,2.89,2.34,5.22,5.23,5.22,2.89,0,5.22-2.34,5.22-5.23C37.22,2.33,34.88,0,31.99,0c-2.88,0-5.22,2.34-5.22,5.22,0,0,0,0,0,0Z"/>
          <path class="cls-1" d="m43.11,32.33l-4.04-13.52h-1.83l6.71,23.04c.19.56-.09,1-.66,1h-5.49v18.75c.01,3.2-4.79,3.19-4.79,0v-18.87h-1.96l.02,18.84c0,3.22-4.83,3.23-4.83,0v-18.72h-5.52c-.56,0-.93-.38-.65-1.08l6.61-22.98h-1.75l-4.03,13.59c-.96,2.96-5.02,1.75-4.09-1.43l4.46-14.74c.48-1.68,2.6-4.66,6.28-4.67h8.82c3.65,0,5.79,3,6.34,4.65l4.49,14.72c.91,3.16-3.12,4.47-4.09,1.39Z"/>
        </g>
      </g>
    </g>
  </g>
</svg>