<?xml version="1.0" encoding="UTF-8"?>
<svg id="AC_icons" data-name="AC icons" xmlns="http://www.w3.org/2000/svg" viewBox="0 0 64 64">
  <defs>
    <style>
      .cls-1 {
        fill: #fff;
      }

      .cls-1, .cls-2 {
        stroke-width: 0px;
      }

      .cls-2 {
        fill: #061a2f;
      }
    </style>
  </defs>
  <g id="Informational_icons" data-name="Informational icons">
    <g id="T">
      <g id="touchpad-gate">
        <g>
          <path class="cls-2" d="m62.87,12.01h-12.3c-.62,0-1.51-.04-1.51.99v37.05H8.95l-.02-2.04h38.08v-31.99H9v-3c-.01-.55-.46-.99-1.01-.99H1.01c-.55,0-1,.44-1.01.99v37.98c.01.55.46.99,1.01.99h61.86c.58.03,1.08-.41,1.13-.99V13.02c-.04-.59-.54-1.04-1.13-1Zm-25.14,6.39h7.34v27.51h-7.34v-27.51Zm-9.48,0h7.34v27.51h-7.34v-27.51Zm-9.59,0h7.34v27.51h-7.34v-27.51Zm-9.72,0h7.34v27.51h-7.34v-27.51Zm53.12,13.55h-11.19V13.99h11.19v17.96Z"/>
          <rect class="cls-1" x="52.08" y="15.23" width="2.37" height="2.54"/>
          <rect class="cls-2" x="55.34" y="15.23" width="2.37" height="2.54"/>
          <rect class="cls-2" x="58.6" y="15.23" width="2.37" height="2.54"/>
          <rect class="cls-2" x="52.08" y="18.4" width="2.37" height="2.54"/>
          <rect class="cls-2" x="55.34" y="18.4" width="2.37" height="2.54"/>
          <rect class="cls-2" x="58.6" y="18.4" width="2.37" height="2.54"/>
          <rect class="cls-2" x="52.08" y="21.65" width="2.37" height="2.54"/>
          <rect class="cls-2" x="55.34" y="21.65" width="2.37" height="2.54"/>
          <rect class="cls-2" x="58.6" y="21.65" width="2.37" height="2.54"/>
          <rect class="cls-2" x="52.08" y="24.95" width="2.37" height="2.54"/>
          <rect class="cls-2" x="55.34" y="24.95" width="2.37" height="2.54"/>
          <rect class="cls-2" x="58.6" y="24.95" width="2.37" height="2.54"/>
          <rect class="cls-2" x="52.08" y="28.24" width="2.37" height="2.54"/>
          <rect class="cls-2" x="55.34" y="28.24" width="2.37" height="2.54"/>
          <rect class="cls-2" x="58.6" y="28.24" width="2.37" height="2.54"/>
        </g>
      </g>
    </g>
  </g>
</svg>