<?xml version="1.0" encoding="UTF-8"?>
<svg id="AC_icons" data-name="AC icons" xmlns="http://www.w3.org/2000/svg" viewBox="0 0 64 64">
  <defs>
    <style>
      .cls-1, .cls-2 {
        fill: #061a2f;
        stroke-width: 0px;
      }

      .cls-2 {
        fill-rule: evenodd;
      }
    </style>
  </defs>
  <g id="Informational_icons" data-name="Informational icons">
    <g id="T">
      <g id="trail-track">
        <g id="Interpretive_walk_trail_nature_trail" data-name="Interpretive walk trail nature trail">
          <g id="Interpretive_walk_trail_nature_trail-2" data-name="Interpretive walk trail nature trail-2">
            <rect class="cls-1" x="42.91" y="52.9" width="5.05" height="11.1"/>
            <path class="cls-1" d="m59.84,17.09c-.52-.58-1.16-1.04-1.87-1.34,0,0,4.33-.81,3.33-3.61-1.53-4.29-6.49-2.79-6.49-2.79,0,0,2.21-5.1-4.51-8.46-6.22-3.09-8.65,2.84-8.65,2.84,0,0-2.61-2.23-4.78-1.46-5.02,1.79-3.56,6.82-3.56,6.82,0,0-3.67-1.29-4.46,1.93-.38,1.56-.28,3.9.44,6.06.45,1.41,1.22,2.69,2.26,3.74,4.69,4.46,11.37,1.64,11.37,1.64v8.25h5.05v-9.08s1.48.81,3.18,1.67c2.34,1.18,8.27,2.08,9.44-1.6.7-2.2.07-3.67-.74-4.59h0Z"/>
          </g>
          <path class="cls-1" d="m38.88,32.72v18.17h13.12v-18.17h-13.12Z"/>
          <path class="cls-1" d="m19.7,14.55c2.23,0,4.04,1.81,4.04,4.04,0,2.23-1.81,4.04-4.04,4.04-2.23,0-4.04-1.81-4.04-4.04,0,0,0,0,0,0,0-2.23,1.81-4.03,4.04-4.04"/>
          <path class="cls-1" d="m31.61,38.87c-.47.89-1.57,1.24-2.48.79l-4.94-2.48c-1.17-.59-2.11-1.57-2.64-2.76l-.83-1.63-1.85,7.98,11.43,17.73c.85,1.31.47,3.05-.83,3.9-.02.01-.04.03-.06.04-1.36.84-3.14.45-4.01-.88l-10.27-15.92c-.3,1.34-.63,2.62-.86,3.91-.28,1.57-.87,3.06-1.73,4.4l-4.58,7.57c-.83,1.36-2.6,1.8-3.98,1-1.36-.78-1.83-2.5-1.05-3.86.01-.02.02-.04.03-.05l4.29-7.08c.69-1.13,1.19-2.37,1.48-3.66l3.77-16.42-2.38,1.88c-.32.26-.55.62-.65,1.02l-1.38,6.04c-.23.98-1.21,1.6-2.19,1.38-.98-.2-1.61-1.16-1.41-2.14,0,0,0-.01,0-.02l1.55-6.69c.24-1.02.82-1.94,1.64-2.59l7.14-5.66c2.3-1.83,5.28-1.19,6.61,1.4l3.95,7.67,5.42,2.72c.89.43,1.26,1.5.83,2.39,0,.01-.01.03-.02.04"/>
          <path class="cls-2" d="m47.37,34.72c-2.69,0-2.72,2.2-.06,2.2,2.84,0,2.78-2.2.06-2.2Z"/>
          <path class="cls-1" d="m45.08,37.77h3.09s-3.06,6.12-3.4,6.87.52,1.53,1.29,1.14,1.52-.86,1.52-.86l-.71,2.99c-.78.59-1.72.91-2.7.92-1.61.03-2.94-1.25-2.97-2.87,0-.04,0-.07,0-.11,0-.65.64-1.87.64-1.87l1.33-2.69h-1.7c1.44-.92,2.68-2.13,3.64-3.54h-.02Z"/>
        </g>
      </g>
    </g>
  </g>
</svg>