<?xml version="1.0" encoding="UTF-8"?>
<svg id="AC_icons" data-name="AC icons" xmlns="http://www.w3.org/2000/svg" viewBox="0 0 64 64">
  <defs>
    <style>
      .cls-1 {
        fill: #061a2f;
        stroke-width: 0px;
      }
    </style>
  </defs>
  <g id="Informational_icons" data-name="Informational icons">
    <g id="T">
      <g id="train-station">
        <g id="Train_station" data-name="Train station">
          <path class="cls-1" d="m49.65,15.04c-.12-4.8-7.06-7.65-12.77-8.76l2.18-3.39h5.07c.8.04,1.48-.58,1.51-1.38.04-.8-.58-1.48-1.38-1.51-.04,0-.09,0-.13,0h-24.26c-.8.04-1.42.71-1.38,1.51.03.75.63,1.35,1.38,1.38h5.06l2.18,3.39c-5.73,1.11-12.67,3.95-12.77,8.76-.15,6.33,0,25.11,0,25.11-.19,1.58.19,3.75.75,5.53.56,1.78,2.43,5.14,5.45,5.14h1.82l-6.49,10.29c-.56.87-.3,2.04.57,2.59.87.56,2.04.3,2.59-.57h0l1.39-2.18.38-.59.25-.39h21.87l.25.39.38.59,1.4,2.18c.56.87,1.72,1.13,2.59.57.87-.56,1.13-1.72.57-2.59l-6.51-10.29h1.84c3,0,4.88-3.35,5.45-5.14.56-1.79.94-3.95.75-5.53,0,0,.15-18.79,0-25.11ZM32,2.89h4.47l-1.95,3.02c-1.68-.22-3.37-.22-5.05,0l-1.95-3.02h4.47Zm-10.99,35.71c0,.94-2.19,2.66-3.13,2.97s-1.09-1.57-1.09-2.51v-5.95c0-1.25.78-1.25,1.41-.78,1.01.75,2.82,1.41,2.82,2.5v3.76Zm10.99,19.02h-9.46l1.68-2.66h15.55l1.68,2.66h-9.46Zm-6.3-5.01l.97-1.54c.05-.08.09-.16.12-.25h10.4c.03.09.08.17.12.25l.97,1.54h-12.59Zm14.04-22.07h-15.5c-1.17,0-5.17-3.58-5.33-4.74l-1.27-8.74c-.17-.98.48-1.91,1.45-2.08.12-.02.25-.03.37-.03h25.04c.99-.03,1.82.74,1.85,1.74,0,.12,0,.25-.03.37l-1.27,8.74c-.17,1.16-4.16,4.74-5.33,4.74h0Zm7.47,8.52c0,.94-.16,2.82-1.09,2.51s-3.13-2.03-3.13-2.97v-3.74c0-1.09,1.82-1.75,2.82-2.5.63-.47,1.41-.47,1.41.78v5.93Z"/>
        </g>
      </g>
    </g>
  </g>
</svg>