<?xml version="1.0" encoding="UTF-8"?>
<svg id="AC_icons" data-name="AC icons" xmlns="http://www.w3.org/2000/svg" viewBox="0 0 64 64">
  <defs>
    <style>
      .cls-1 {
        fill: #061a2f;
        stroke-width: 0px;
      }
    </style>
  </defs>
  <g id="Informational_icons" data-name="Informational icons">
    <g id="T">
      <g id="tramping">
        <g>
          <path class="cls-1" d="m36.51,11h.01c3.04,0,5.5-2.46,5.5-5.5S39.56,0,36.53,0c-3.04,0-5.5,2.45-5.51,5.49,0,3.04,2.45,5.5,5.49,5.51Z"/>
          <path class="cls-1" d="m51.69,31.27l-6.32-3c-.33-.14-.64-.34-.9-.59l-3.31-6.59c-.9-1.6-1.21-2.59-1.79-3.65-2.15-4-3.58-4.89-6.86-5.06-3.45-.17-5.13,1.48-5.79,4.23-.36,1.53-2,9.59-2,9.59l-.7,3.19c1.76,1.01,3.74,1.56,5.77,1.6,2.23.09,4.47-.12,6.65-.64.33-2.51.67-5.18.67-5.46,0-.54.18-.77.3-.3.12.47,3.11,6.85,3.61,7.15l8.44,4c1.26.56,2.74,0,3.3-1.26.53-1.18.06-2.58-1.07-3.21Z"/>
          <path class="cls-1" d="m15.02,34.99c2.24.06,5.61,0,5.61,0l5.98-27.99s-4.12.08-4.87,0c-4.93-.55-5.74,8.29-7.48,14.52-1.74,6.23-1.25,7.51-1.7,9.14-.45,1.63,1.18,4.29,2.46,4.34Z"/>
          <path class="cls-1" d="m36.08,38.12c-.63-1.13-.53-1.71-.33-3.35l.27-2.35c-1.96.39-3.95.57-5.95.53-2.21-.01-4.38-.52-6.37-1.48l-.61,3.09-2.51,12.22-9,11.39c-.36.51-.55,1.12-.56,1.74.03,1.67,1.4,3.01,3.07,3,.89,0,1.73-.39,2.31-1.06l9.89-12.5,2.43-11.78,6,10.18-2.89,12.7c-.27,1.67.86,3.24,2.52,3.51.62.1,1.26,0,1.82-.26.8-.38,1.39-1.08,1.63-1.93.12-.52,2-8.85,3.12-13.78h.02c.14-.68.05-1.38-.26-2l-4.61-7.87Z"/>
        </g>
      </g>
    </g>
  </g>
</svg>