<?xml version="1.0" encoding="UTF-8"?>
<svg id="AC_icons" data-name="AC icons" xmlns="http://www.w3.org/2000/svg" viewBox="0 0 64 64">
  <defs>
    <style>
      .cls-1 {
        fill: #061a2f;
        stroke-width: 0px;
      }
    </style>
  </defs>
  <g id="Informational_icons" data-name="Informational icons">
    <g id="T">
      <g id="tree-2">
        <g id="Layer_2" data-name="Layer 2">
          <path class="cls-1" d="m20.53,20.91c6.06-10.46-4.84-15.67-4.84-15.67,0,0-6.07,10.46,4.84,15.67"/>
          <path class="cls-1" d="m44.19,14.25c11.8-2.73,8.12-14.25,8.12-14.25,0,0-11.78,2.73-8.12,14.25"/>
          <path class="cls-1" d="m46.36,17.21c7.38,9.58,16.34,1.47,16.34,1.47,0,0-7.38-9.58-16.34-1.47"/>
          <path class="cls-1" d="m40.69,29.94c8.73,8.37,16.37-1,16.37-1,0,0-8.73-8.35-16.37,1"/>
          <path class="cls-1" d="m41.53,35.28c-1.08,12.05,11.01,12.16,11.01,12.16,0,0,1.08-12.05-11.01-12.16"/>
          <path class="cls-1" d="m39.53,14.25C42.3,2.49,30.35.66,30.35.66c0,0-2.75,11.77,9.18,13.59"/>
          <path class="cls-1" d="m17.68,24.07c-7.71-9.32-16.38-.89-16.38-.89,0,0,7.71,9.34,16.38.89"/>
          <path class="cls-1" d="m24.56,32.87c-11.43-3.94-14.45,7.74-14.45,7.74,0,0,11.43,3.94,14.45-7.74"/>
          <path class="cls-1" d="m23.62,64c0-1.2,4.58-31.26,4.58-31.26l-8.73-7.78,2.23-2.58,10.03,5.77,10.11-12.9,2.58,1.55-8.04,15.27,5.16,31.94h-17.91Z"/>
        </g>
      </g>
    </g>
  </g>
</svg>