<?xml version="1.0" encoding="UTF-8"?>
<svg id="AC_icons" data-name="AC icons" xmlns="http://www.w3.org/2000/svg" viewBox="0 0 64 64">
  <defs>
    <style>
      .cls-1 {
        fill: #061a2f;
        stroke-width: 0px;
      }
    </style>
  </defs>
  <g id="Informational_icons" data-name="Informational icons">
    <g id="T">
      <g id="tree">
        <path class="cls-1" d="m28.81,64v-12.94h-8.78c-6.62,0-11.97-4.65-11.97-10.38v-.63c0-.11,0-.22,0-.33.02-1.28.44-2.52,1.2-3.55,1.5-2.54,3.9-4.41,6.73-5.23-1.23-1.6-1.9-3.55-1.91-5.57-.06-5.01,3.95-9.12,8.96-9.18h0C23.04,7.23,27.05,0,32,0s8.95,7.26,8.95,16.21c5.01.06,9.02,4.17,8.96,9.18,0,0,0,0,0,0h0c-.01,2.01-.67,3.96-1.89,5.57,2.83.82,5.23,2.68,6.72,5.22.75,1.03,1.17,2.26,1.2,3.53v.96c0,5.56-5.18,10.2-11.62,10.37h-9.13v12.97h-6.39Z"/>
      </g>
    </g>
  </g>
</svg>