<?xml version="1.0" encoding="UTF-8"?>
<svg id="AC_icons" data-name="AC icons" xmlns="http://www.w3.org/2000/svg" viewBox="0 0 64 64">
  <defs>
    <style>
      .cls-1 {
        fill: #061a2f;
        stroke-width: 0px;
      }
    </style>
  </defs>
  <g id="Informational_icons" data-name="Informational icons">
    <g id="U">
      <g id="unsealed-road">
        <g id="Unsealed_road" data-name="Unsealed road">
          <polygon class="cls-1" points="21.48 8.99 18.85 8.99 16.99 8.99 14.96 8.99 11.82 18.64 21.48 8.99"/>
          <polygon class="cls-1" points="29.1 29.1 29.52 23.59 .91 52.19 0 55.01 4.36 55.01 5.17 55.01 31.08 29.1 29.1 29.1"/>
          <polygon class="cls-1" points="59.98 42.63 47.6 55.01 47.87 55.01 53.35 55.01 54.68 55.01 61.71 47.97 59.98 42.63"/>
          <polygon class="cls-1" points="55.12 27.7 34.61 48.21 36.2 48.21 36.62 53.27 56.85 33.03 55.12 27.7"/>
          <polygon class="cls-1" points="28.73 35.34 31.51 35.34 32.41 35.34 34.74 35.34 51.99 18.09 50.26 12.75 34.76 28.25 34.82 29.1 33.9 29.1 8 55.01 10.71 55.01 15.07 55.01 28.04 42.03 28.73 35.34"/>
          <polygon class="cls-1" points="30.41 9.96 30.48 8.99 24.31 8.99 10.46 22.84 7.05 33.32 30.41 9.96"/>
          <polygon class="cls-1" points="41.28 8.99 39.37 8.99 34.21 8.99 33.5 9.7 33.95 16.08 32.41 16.08 31.51 16.08 29.98 16.08 30.19 13 5.69 37.51 2.28 48 41.28 8.99"/>
          <polygon class="cls-1" points="59.28 40.5 57.55 35.16 37.7 55.01 44.77 55.01 59.28 40.5"/>
          <polygon class="cls-1" points="62.41 50.11 57.51 55.01 64 55.01 62.41 50.11"/>
          <polygon class="cls-1" points="27.36 52.63 27.73 48.21 31.51 48.21 31.78 48.21 54.42 25.56 52.69 20.23 35.42 37.49 35.89 42.08 32.41 42.08 31.51 42.08 30.82 42.08 17.9 55.01 24.97 55.01 27.36 52.63"/>
          <polygon class="cls-1" points="31.51 22.48 32.41 22.48 34.32 22.48 34.56 25.62 49.56 10.61 49.04 8.99 45.15 8.99 44.11 8.99 30.62 22.48 31.51 22.48"/>
        </g>
      </g>
    </g>
  </g>
</svg>