<?xml version="1.0" encoding="UTF-8"?>
<svg id="AC_icons" data-name="AC icons" xmlns="http://www.w3.org/2000/svg" viewBox="0 0 64 64">
  <defs>
    <style>
      .cls-1 {
        fill: #061a2f;
        stroke-width: 0px;
      }
    </style>
  </defs>
  <g id="Utility_and_system_icons" data-name="Utility and system icons">
    <g id="pause">
      <path class="cls-1" d="m61.44,5.33v53.33c0,1.41-.56,2.77-1.57,3.77-1,1-2.37,1.56-3.78,1.56h-13.38c-1.42,0-2.78-.56-3.78-1.56-1-1-1.57-2.36-1.57-3.77V5.33c0-1.41.56-2.77,1.57-3.77,1-1,2.37-1.56,3.78-1.56h13.38c1.42,0,2.78.56,3.78,1.56,1,1,1.57,2.36,1.57,3.77ZM21.29,0H7.91c-1.42,0-2.78.56-3.78,1.56-1,1-1.57,2.36-1.57,3.77v53.33c0,1.41.56,2.77,1.57,3.77,1,1,2.37,1.56,3.78,1.56h13.38c1.42,0,2.78-.56,3.78-1.56,1-1,1.57-2.36,1.57-3.77V5.33c0-1.41-.56-2.77-1.57-3.77-1-1-2.37-1.56-3.78-1.56Z"/>
    </g>
  </g>
</svg>