<?xml version="1.0" encoding="UTF-8"?>
<svg id="AC_icons" data-name="AC icons" xmlns="http://www.w3.org/2000/svg" viewBox="0 0 64 64">
  <defs>
    <style>
      .cls-1 {
        fill: #061a2f;
        stroke-width: 0px;
      }
    </style>
  </defs>
  <g id="Utility_and_system_icons" data-name="Utility and system icons">
    <g id="plus">
      <g id="Layer_4" data-name="Layer 4">
        <path class="cls-1" d="m58.34,25.9h-20.17V5.73c-.02-3.15-2.57-5.7-5.72-5.72h-.77c-3.15.02-5.7,2.57-5.72,5.72v20.17H5.78c-3.15.02-5.7,2.57-5.72,5.72v.77c.02,3.15,2.57,5.7,5.72,5.72h20.17v20.17c.02,3.15,2.57,5.7,5.72,5.72h.77c3.15-.02,5.7-2.57,5.72-5.72v-20.17h20.17c3.15-.02,5.7-2.57,5.72-5.72v-.77c-.02-3.15-2.57-5.7-5.72-5.72Z"/>
      </g>
    </g>
  </g>
</svg>