<?xml version="1.0" encoding="UTF-8"?>
<svg id="AC_icons" data-name="AC icons" xmlns="http://www.w3.org/2000/svg" viewBox="0 0 64 64">
  <defs>
    <style>
      .cls-1 {
        fill: #061a2f;
        stroke-width: 0px;
      }
    </style>
  </defs>
  <g id="Utility_and_system_icons" data-name="Utility and system icons">
    <g id="double-chevron">
      <g>
        <path class="cls-1" d="m27.43,32c0-1.19.43-2.37,1.28-3.31L53.33,1.61c1.83-2.01,4.94-2.16,6.95-.33,2.01,1.83,2.16,4.94.33,6.95l-21.6,23.77,21.6,23.76c1.82,2.01,1.68,5.13-.33,6.96-2.01,1.83-5.13,1.68-6.95-.33l-24.62-27.08c-.85-.94-1.28-2.13-1.28-3.31Z"/>
        <path class="cls-1" d="m2.11,32c0-1.19.43-2.37,1.28-3.31L28.01,1.61c1.83-2.01,4.94-2.16,6.95-.33,2.01,1.83,2.16,4.94.33,6.95L13.69,32l21.6,23.76c1.82,2.01,1.68,5.13-.33,6.96-2.01,1.83-5.13,1.68-6.95-.33L3.39,35.31c-.85-.94-1.28-2.13-1.28-3.31Z"/>
      </g>
    </g>
  </g>
</svg>