<?xml version="1.0" encoding="UTF-8"?>
<svg id="AC_icons" data-name="AC icons" xmlns="http://www.w3.org/2000/svg" viewBox="0 0 64 64">
  <defs>
    <style>
      .cls-1 {
        fill: #061a2f;
        stroke-width: 0px;
      }
    </style>
  </defs>
  <g id="Utility_and_system_icons" data-name="Utility and system icons">
    <g id="envelope">
      <g>
        <path class="cls-1" d="m37.12,39.29c-1.49,1.24-3.3,1.86-5.12,1.86s-3.64-.62-5.12-1.86l-3.6-3L4,52.35c2.05,1.79,4.7,2.92,7.63,2.92h40.73c2.94,0,5.59-1.12,7.63-2.92l-19.28-16.06-3.6,3Z"/>
        <path class="cls-1" d="m.46,17.29c-.27.99-.46,2-.46,3.08v23.27c0,1.91.5,3.68,1.32,5.27l18.55-15.46L.46,17.29Z"/>
        <path class="cls-1" d="m44.13,33.45l18.55,15.46c.81-1.59,1.32-3.36,1.32-5.27v-23.27c0-1.07-.19-2.09-.46-3.08l-19.4,16.16Z"/>
        <path class="cls-1" d="m23.28,30.61l3.41,2.84,2.99,2.49c1.35,1.12,3.31,1.12,4.65,0l2.99-2.49,3.41-2.84,6.83-5.69,13.98-11.64c-2.13-2.75-5.42-4.55-9.17-4.55H11.64c-3.74,0-7.04,1.8-9.17,4.55l13.98,11.64,6.83,5.69Z"/>
      </g>
    </g>
  </g>
</svg>