<?xml version="1.0" encoding="UTF-8"?>
<svg id="AC_icons" data-name="AC icons" xmlns="http://www.w3.org/2000/svg" viewBox="0 0 64 64">
  <defs>
    <style>
      .cls-1 {
        fill: #061a2f;
        stroke-width: 0px;
      }
    </style>
  </defs>
  <g id="Utility_and_system_icons" data-name="Utility and system icons">
    <g id="seek-forward">
      <g>
        <path class="cls-1" d="m51.48,36.74c0,10.54-8.72,19.08-19.48,19.08s-19.48-8.54-19.48-19.08,8.72-19.08,19.48-19.08h6.05v5.96c0,.45.08.9.26,1.29.51,1.14,1.63,1.51,2.48.82l13.31-10.6h0c.26-.21.48-.5.63-.85.51-1.17.22-2.66-.64-3.35L40.79.34C40.51.12,40.19,0,39.87,0c-1,0-1.82,1.09-1.82,2.44v7.04h-6.05c-5.5,0-10.88,1.6-15.46,4.59-4.58,3-8.14,7.25-10.25,12.23-2.11,4.98-2.66,10.46-1.58,15.75,1.07,5.29,3.72,10.15,7.62,13.96,3.89,3.81,8.85,6.41,14.25,7.46,5.4,1.05,10.99.51,16.08-1.55,5.08-2.06,9.43-5.56,12.49-10.04,3.06-4.48,4.69-9.75,4.69-15.14h-8.35Z"/>
        <path class="cls-1" d="m27.81,47.41v-16.43h-2.06c-.73.77-1.56,1.45-2.52,2.01-.94.57-1.87,1.04-2.81,1.4l.9,2.18c.61-.21,1.25-.47,1.91-.78.66-.32,1.21-.64,1.65-.97v12.59h2.93Z"/>
        <path class="cls-1" d="m38.87,30.6c-.9,0-1.72.19-2.44.57-.71.38-1.32.93-1.84,1.66-.5.73-.89,1.63-1.16,2.7-.26,1.06-.39,2.28-.39,3.65,0,2.77.52,4.89,1.55,6.38,1.03,1.47,2.46,2.2,4.28,2.2s3.25-.74,4.28-2.2c1.03-1.49,1.55-3.61,1.55-6.38s-.52-4.88-1.55-6.35c-1.03-1.49-2.46-2.23-4.28-2.23Zm2.66,10.97c-.1.74-.26,1.39-.48,1.94-.21.54-.49.96-.85,1.28-.35.32-.8.47-1.33.47s-.98-.16-1.35-.47c-.35-.32-.65-.74-.87-1.28-.21-.55-.36-1.2-.46-1.94-.08-.74-.12-1.54-.12-2.39s.04-1.65.12-2.39c.1-.74.25-1.38.46-1.92.23-.55.52-.99.87-1.3.37-.32.82-.47,1.35-.47s.98.16,1.33.47c.35.32.64.75.85,1.3.23.54.39,1.18.48,1.92.1.74.14,1.54.14,2.39s-.05,1.65-.14,2.39Z"/>
      </g>
    </g>
  </g>
</svg>