<?xml version="1.0" encoding="UTF-8"?>
<svg id="AC_icons" data-name="AC icons" xmlns="http://www.w3.org/2000/svg" viewBox="0 0 64 64">
  <defs>
    <style>
      .cls-1 {
        fill: #061a2f;
        stroke-width: 0px;
      }
    </style>
  </defs>
  <g id="Utility_and_system_icons" data-name="Utility and system icons">
    <g id="email">
      <path class="cls-1" d="m47.96,49.45c-1.59,0-2.9-.22-3.94-.67-1.04-.44-1.9-1.04-2.6-1.78-1.09.6-2.4,1.1-3.93,1.52s-3.07.63-4.6.63c-2.37,0-4.54-.37-6.5-1.11-1.96-.74-3.65-1.84-5.09-3.3-1.43-1.46-2.55-3.25-3.34-5.38-.79-2.13-1.18-4.6-1.18-7.43,0-2.37.37-4.61,1.11-6.72.74-2.1,1.84-3.93,3.31-5.49,1.46-1.56,3.24-2.79,5.35-3.68,2.1-.89,4.49-1.34,7.16-1.34,2.53,0,4.84.2,6.94.59,2.1.4,3.73.79,4.86,1.19v22.72c0,1.58.27,2.7.82,3.34s1.26.96,2.16.96c1.29,0,2.41-.44,3.38-1.34s1.76-2.05,2.37-3.49c.62-1.44,1.08-3.06,1.37-4.86.3-1.81.45-3.65.45-5.53,0-3.12-.54-6.05-1.63-8.8-1.09-2.75-2.65-5.16-4.68-7.24-2.03-2.08-4.5-3.71-7.39-4.9-2.89-1.19-6.15-1.78-9.76-1.78s-6.93.61-9.95,1.82c-3.02,1.21-5.62,2.95-7.8,5.2-2.18,2.25-3.87,5.01-5.08,8.28-1.21,3.27-1.82,6.98-1.82,11.14s.65,8.18,1.93,11.47c1.29,3.29,3.08,6.04,5.38,8.24,2.3,2.2,5.02,3.86,8.17,4.97,3.14,1.11,6.59,1.67,10.36,1.67,2.92,0,5.33-.17,7.24-.52,1.9-.34,3.13-.62,3.67-.82l.74,5.5c-.84.3-2.36.62-4.57.96-2.2.35-4.56.52-7.09.52-4.41,0-8.57-.63-12.48-1.89-3.91-1.26-7.32-3.19-10.24-5.79-2.92-2.6-5.24-5.92-6.94-9.95-1.71-4.03-2.56-8.82-2.56-14.37s.84-10.02,2.53-14.03c1.68-4.01,3.95-7.34,6.79-9.98,2.85-2.65,6.14-4.64,9.87-5.98,3.74-1.34,7.69-2,11.84-2s7.9.66,11.51,1.97,6.78,3.22,9.5,5.72c2.72,2.5,4.87,5.52,6.46,9.06,1.58,3.54,2.37,7.53,2.37,11.99,0,3.37-.39,6.34-1.15,8.91-.77,2.57-1.79,4.74-3.08,6.5-1.29,1.76-2.82,3.08-4.6,3.97s-3.67,1.34-5.64,1.34Zm-14.85-6.01c1.04,0,2.09-.11,3.15-.34s2.02-.56,2.86-1c-.15-.64-.25-1.29-.3-1.93s-.07-1.26-.07-1.85v-17.45c-.3-.1-.86-.2-1.71-.3-.84-.1-1.78-.15-2.82-.15-3.51,0-6.13,1.09-7.87,3.27-1.73,2.18-2.6,4.93-2.6,8.24,0,3.52.84,6.31,2.53,8.39,1.68,2.08,3.96,3.12,6.83,3.12Z"/>
    </g>
  </g>
</svg>