<?xml version="1.0" encoding="UTF-8"?>
<svg id="AC_icons" data-name="AC icons" xmlns="http://www.w3.org/2000/svg" viewBox="0 0 64 64">
  <defs>
    <style>
      .cls-1 {
        fill: #061a2f;
        stroke-width: 0px;
      }
    </style>
  </defs>
  <g id="Utility_and_system_icons" data-name="Utility and system icons">
    <g id="laptop-online">
      <path class="cls-1" d="m64,46.93v3.2c0,1.76-2.39,3.2-5.43,3.2H5.43c-2.93,0-5.43-1.44-5.43-3.2v-3.2h64Zm-55.48-7.46v-23.37c0-3,2.43-5.43,5.43-5.43h36.18c3,0,5.43,2.43,5.43,5.43v23.48c0,3-2.43,5.43-5.43,5.43H13.87c-3-.04-5.39-2.51-5.35-5.51,0,0,0-.02,0-.03Zm4.26,0c.01.58.48,1.04,1.06,1.06h36.29c.58-.01,1.04-.48,1.06-1.06v-23.37c-.01-.58-.48-1.04-1.06-1.06H13.87c-.58.01-1.04.48-1.06,1.06v23.48l-.03-.11Zm22.5,10.15c.02-.28-.2-.53-.49-.54-.02,0-.04,0-.06,0h-5.43c-.29.07-.48.36-.41.65.05.2.21.36.41.41h5.43c.28.01.53-.2.54-.49,0,0,0-.02,0-.03Z"/>
    </g>
  </g>
</svg>