<?xml version="1.0" encoding="UTF-8"?>
<svg id="AC_icons" data-name="AC icons" xmlns="http://www.w3.org/2000/svg" viewBox="0 0 64 64">
  <defs>
    <style>
      .cls-1, .cls-2 {
        fill: #061a2f;
        stroke-width: 0px;
      }

      .cls-2 {
        fill-rule: evenodd;
      }
    </style>
  </defs>
  <g id="Utility_and_system_icons" data-name="Utility and system icons">
    <g id="closed-captions-on">
      <g>
        <path class="cls-1" d="m8,61.33c0-1.47,1.19-2.67,2.67-2.67h42.67c1.47,0,2.67,1.19,2.67,2.67s-1.19,2.67-2.67,2.67H10.67c-1.47,0-2.67-1.19-2.67-2.67Z"/>
        <path class="cls-2" d="m6.4,0C2.87,0,0,2.79,0,6.22v43.56c0,3.44,2.87,6.22,6.4,6.22h51.2c3.53,0,6.4-2.79,6.4-6.22V6.22c0-3.44-2.87-6.22-6.4-6.22H6.4Zm2.21,39.37c2.55,2.79,6.01,4.18,10.35,4.18,5.96,0,10.31-2.97,11.92-8l-6.77-3.01c-.67,3.01-2.51,4.68-5.2,4.68-3.94,0-6.32-3.42-6.32-9.22s2.38-9.22,6.32-9.22c2.73,0,4.53,1.71,5.2,4.63l6.77-3.01c-1.61-5.04-5.96-7.96-11.92-7.96-4.35,0-7.8,1.39-10.35,4.18-2.55,2.79-3.81,6.56-3.81,11.37s1.25,8.59,3.81,11.37Zm28.32,0c2.55,2.79,6.01,4.18,10.35,4.18,5.96,0,10.31-2.97,11.92-8l-6.77-3.01c-.67,3.01-2.51,4.68-5.2,4.68-3.94,0-6.32-3.42-6.32-9.22s2.38-9.22,6.32-9.22c2.73,0,4.53,1.71,5.2,4.63l6.77-3.01c-1.61-5.04-5.96-7.96-11.92-7.96-4.35,0-7.8,1.39-10.35,4.18-2.55,2.79-3.81,6.56-3.81,11.37s1.25,8.59,3.81,11.37Z"/>
      </g>
    </g>
  </g>
</svg>