<?xml version="1.0" encoding="UTF-8"?>
<svg id="AC_icons" data-name="AC icons" xmlns="http://www.w3.org/2000/svg" viewBox="0 0 64 64">
  <defs>
    <style>
      .cls-1 {
        fill: #061a2f;
        stroke-width: 0px;
      }
    </style>
  </defs>
  <g id="Utility_and_system_icons" data-name="Utility and system icons">
    <g id="cog">
      <path class="cls-1" d="m64,37.04v-8.99l-7.97-.66c-.55-2.89-1.62-5.66-3.15-8.15l5.35-6.3-6.36-6.36-6.13,5.17c-2.43-1.65-5.14-2.86-8-3.53l-.69-8.23h-8.99l-.66,7.97c-2.89.55-5.66,1.62-8.15,3.15l-6.3-5.35-6.36,6.36,5.17,6.13c-1.65,2.43-2.86,5.14-3.53,8l-8.23.69v8.99l7.97.66c.55,2.89,1.62,5.66,3.15,8.15l-5.35,6.3,6.36,6.36,6.13-5.17c2.43,1.65,5.14,2.86,8,3.53l.69,8.23h8.99l.66-7.97c2.89-.55,5.63-1.62,8.15-3.15l6.3,5.35,6.36-6.36-5.17-6.13c1.65-2.43,2.86-5.14,3.53-8l8.23-.69Zm-32.01,2.95c-4.42,0-8-3.58-8-8s3.58-8,8-8,8,3.58,8,8-3.58,8-8,8Z"/>
    </g>
  </g>
</svg>