<?xml version="1.0" encoding="UTF-8"?>
<svg id="AC_icons" data-name="AC icons" xmlns="http://www.w3.org/2000/svg" viewBox="0 0 64 64">
  <defs>
    <style>
      .cls-1 {
        fill: #061a2f;
        stroke-width: 0px;
      }
    </style>
  </defs>
  <g id="Utility_and_system_icons" data-name="Utility and system icons">
    <g id="share">
      <path class="cls-1" d="m63.63,25.6l-18.28,18.28c-.4.39-.91.64-1.46.73-1.18-.08-2.11-1.02-2.19-2.19v-9.14h-8.41c-15.36,0-25.59,2.93-25.59,20.11v6.22c.08.53-.29,1.02-.82,1.1-.09.01-.18.01-.28,0-.37,0-.73-.37-1.1-.73-.37-.73-1.1-1.83-1.46-2.56C2.01,52.24.66,46.83.01,41.32c-.11-4.1.51-8.18,1.83-12.07,5.12-12.43,19.74-14.63,31.45-14.63h8.04V5.49c.08-1.18,1.02-2.11,2.19-2.19.57.01,1.11.28,1.46.73l18.28,18.28c.39.4.64.91.73,1.46,0,.37,0,1.46-.37,1.83Z"/>
    </g>
  </g>
</svg>