<?xml version="1.0" encoding="UTF-8"?>
<svg id="AC_icons" data-name="AC icons" xmlns="http://www.w3.org/2000/svg" viewBox="0 0 64 64">
  <defs>
    <style>
      .cls-1 {
        fill: #061a2f;
        stroke-width: 0px;
      }
    </style>
  </defs>
  <g id="Utility_and_system_icons" data-name="Utility and system icons">
    <g id="word-file">
      <g>
        <path class="cls-1" d="m57.69,18.53c0-.84-.56-1.57-1.37-1.8L39.85.69C39.5.25,38.97,0,38.42,0H9.66c-1.85,0-3.35,1.49-3.35,3.34,0,0,0,0,0,.01v57.3c0,1.85,1.49,3.35,3.34,3.35,0,0,0,0,.01,0h44.68c1.84,0,3.34-1.5,3.33-3.35,0-14.05,0-28.09,0-42.13h.01Zm-17.41-11.98l11.19,10.48h-11.19V6.55ZM10.05,60.27V3.72h26.47v15.16c0,1.04.84,1.88,1.88,1.88h15.54c0,13.17,0,26.34,0,39.5H10.05Z"/>
        <path class="cls-1" d="m26.17,45.76l3.31-15.63h5.26l3.34,15.63h.07l3.45-15.63h5.6l-5.74,23.25h-5.95l-3.45-15.35h-.1l-3.38,15.35h-6.02l-5.74-23.25h5.85l3.45,15.63h.07Z"/>
      </g>
    </g>
  </g>
</svg>