<?xml version="1.0" encoding="UTF-8"?>
<svg id="AC_icons" data-name="AC icons" xmlns="http://www.w3.org/2000/svg" viewBox="0 0 64 64">
  <defs>
    <style>
      .cls-1 {
        fill: #061a2f;
        stroke-width: 0px;
      }
    </style>
  </defs>
  <g id="Utility_and_system_icons" data-name="Utility and system icons">
    <g id="magnify">
      <path class="cls-1" d="m62.92,57.41l-12.38-12.38c9.37-12.35,6.96-29.95-5.39-39.32C32.8-3.66,15.2-1.25,5.83,11.1-3.54,23.44-1.13,41.05,11.22,50.42c9.93,7.54,23.64,7.62,33.66.2l12.41,12.42c1.68,1.43,4.2,1.24,5.63-.44,1.28-1.5,1.28-3.7,0-5.2Zm-34.75-9.19c-11.03,0-19.97-8.94-19.97-19.97S17.14,8.28,28.17,8.28s19.97,8.94,19.97,19.97-8.94,19.97-19.97,19.97Z"/>
    </g>
  </g>
</svg>