<?xml version="1.0" encoding="UTF-8"?>
<svg id="AC_icons" data-name="AC icons" xmlns="http://www.w3.org/2000/svg" viewBox="0 0 64 64">
  <defs>
    <style>
      .cls-1 {
        fill: #061a2f;
        stroke-width: 0px;
      }
    </style>
  </defs>
  <g id="Utility_and_system_icons" data-name="Utility and system icons">
    <g id="alert">
      <g>
        <path class="cls-1" d="m63.24,51.96L36.92,6.36h0c-.49-.86-1.21-1.57-2.06-2.07-1.31-.76-2.84-.97-4.31-.58-1.47.39-2.69,1.33-3.46,2.64L.76,51.96C.26,52.82,0,53.8,0,54.79c0,1.52.59,2.94,1.66,4.02s2.5,1.67,4.02,1.67h52.65c.99,0,1.97-.26,2.83-.76,2.71-1.57,3.64-5.05,2.08-7.76Zm-3.61,5.1c-.4.23-.85.35-1.3.35H5.68c-1.44,0-2.61-1.17-2.61-2.61,0-.46.12-.91.35-1.3L29.74,7.89c.35-.6.91-1.03,1.59-1.21.22-.06.45-.09.67-.09.45,0,.9.12,1.31.35.39.23.72.55.95.95l26.32,45.6c.72,1.25.29,2.85-.95,3.57Z"/>
        <circle class="cls-1" cx="32.36" cy="49.87" r="4.27"/>
        <path class="cls-1" d="m30.22,40.26c0,1.18.96,2.14,2.14,2.14s2.14-.96,2.14-2.14l2.14-19.23c.03-.31.03-.63,0-.94-.26-2.36-2.38-4.06-4.74-3.8-2.36.26-4.06,2.38-3.8,4.74l2.14,19.23h0Z"/>
      </g>
    </g>
  </g>
</svg>