<?xml version="1.0" encoding="UTF-8"?>
<svg id="AC_icons" data-name="AC icons" xmlns="http://www.w3.org/2000/svg" viewBox="0 0 64 64">
  <defs>
    <style>
      .cls-1 {
        fill: #061a2f;
        stroke-width: 0px;
      }
    </style>
  </defs>
  <g id="Utility_and_system_icons" data-name="Utility and system icons">
    <g id="pencil-edit">
      <g>
        <path class="cls-1" d="m48.51,23.26l-7.77-7.77-4.24-4.24-1.41,1.42-2.83,2.83L6.6,41.14c-.82.83-1.44,1.85-1.76,2.98L.12,60.15c-.31,1.06-.01,2.18.76,2.97.78.79,1.92,1.07,2.97.76l16.04-4.72c1.13-.32,2.15-.94,2.98-1.76l25.65-25.65,2.83-2.83,1.42-1.41h-.01l-4.24-4.24Zm-29.9,29.9c-.11.11-.26.2-.43.25l-10.76,3.16,3.16-10.76c.05-.16.14-.31.25-.43l1.16-1.16v5.77c0,1.1.9,2,2,2h5.77l-1.16,1.16Zm19.63-30.93l-18.56,18.56c-.39.39-.9.59-1.41.59s-1.02-.2-1.41-.59c-.78-.78-.78-2.05,0-2.83l18.56-18.56c.78-.78,2.05-.78,2.83,0s.78,2.05,0,2.83Z"/>
        <path class="cls-1" d="m61.65,7.28l-4.93-4.93h-.01c-3.13-3.13-8.2-3.13-11.33,0l-1.81,1.81-2.83,2.83-1.42,1.41,4.26,4.24,7.77,7.77,4.24,4.24,1.41-1.42,2.83-2.83,1.81-1.81c3.13-3.13,3.13-8.2,0-11.32Z"/>
      </g>
    </g>
  </g>
</svg>