<?xml version="1.0" encoding="UTF-8"?>
<svg id="AC_icons" data-name="AC icons" xmlns="http://www.w3.org/2000/svg" viewBox="0 0 64 64">
  <defs>
    <style>
      .cls-1 {
        fill: #061a2f;
        stroke-width: 0px;
      }
    </style>
  </defs>
  <g id="Utility_and_system_icons" data-name="Utility and system icons">
    <g id="external-link">
      <path class="cls-1" d="m50.29,49.15c0,5.68-4.61,10.28-10.29,10.28H10.29c-5.68,0-10.29-4.61-10.29-10.28v-29.72c0-5.68,4.61-10.28,10.29-10.28h25.14c.65,0,1.15.5,1.15,1.14v2.29c0,.64-.5,1.14-1.15,1.14H10.29c-3.14,0-5.72,2.57-5.72,5.71v29.72c0,3.14,2.57,5.71,5.72,5.71h29.71c3.14,0,5.72-2.57,5.72-5.71v-11.43c0-.64.5-1.14,1.15-1.14h2.28c.65,0,1.15.5,1.15,1.14v11.43Zm13.71-24c0,1.25-1.04,2.29-2.29,2.29-.61,0-1.18-.25-1.61-.68l-6.28-6.29-23.28,23.29c-.21.21-.54.35-.82.35s-.61-.14-.82-.35l-4.07-4.07c-.21-.21-.35-.54-.35-.82s.14-.61.35-.82l23.29-23.28-6.29-6.28c-.43-.43-.68-1-.68-1.61,0-1.25,1.04-2.29,2.29-2.29h18.29c1.25,0,2.29,1.04,2.29,2.29v18.29Z"/>
    </g>
  </g>
</svg>