<?xml version="1.0" encoding="UTF-8"?>
<svg id="AC_icons" data-name="AC icons" xmlns="http://www.w3.org/2000/svg" viewBox="0 0 64 64">
  <defs>
    <style>
      .cls-1 {
        fill: #061a2f;
        stroke-width: 0px;
      }
    </style>
  </defs>
  <g id="Utility_and_system_icons" data-name="Utility and system icons">
    <g id="map-pin-cluster">
      <g>
        <path class="cls-1" d="m32,4.54c-8.16,0-15.5,3.58-20.54,9.24l1.49.97c4.71-5.19,11.5-8.45,19.05-8.45s14.32,3.25,19.03,8.42l1.49-.97c-5.04-5.65-12.37-9.22-20.51-9.22Z"/>
        <path class="cls-1" d="m6.28,32.03c0-4.75,1.29-9.19,3.54-13.01l-1.48-.96c-2.43,4.1-3.83,8.87-3.83,13.97,0,14.01,10.55,25.61,24.11,27.28v-1.78c-12.6-1.66-22.35-12.45-22.35-25.5Z"/>
        <path class="cls-1" d="m57.72,32.03c0,13.55-10.51,24.66-23.81,25.65v1.77c14.26-.99,25.57-12.91,25.57-27.42,0-5.11-1.4-9.89-3.84-14l-1.48.96c2.26,3.82,3.56,8.28,3.56,13.04Z"/>
        <path class="cls-1" d="m64,32.03c0-6.02-1.67-11.65-4.56-16.46l-1.87,1.22c2.67,4.46,4.21,9.68,4.21,15.24,0,15.77-12.33,28.72-27.86,29.71v2.23c16.77-.99,30.09-14.93,30.09-31.94Z"/>
        <path class="cls-1" d="m2.23,32.03c0-5.56,1.53-10.76,4.19-15.22l-1.87-1.22C1.66,20.4,0,26.02,0,32.03c0,16.51,12.55,30.13,28.63,31.82v-2.24c-14.83-1.68-26.4-14.31-26.4-29.58Z"/>
        <path class="cls-1" d="m32,2.26c8.95,0,16.99,3.97,22.46,10.25l1.89-1.22C50.47,4.4,41.74.03,32,.03S13.51,4.41,7.64,11.3l1.89,1.22C14.99,6.24,23.04,2.26,32,2.26Z"/>
        <path class="cls-1" d="m52.04,20.37c-.9-1.54-1.96-2.96-3.17-4.24-4.23-4.48-10.22-7.29-16.87-7.29s-12.66,2.81-16.89,7.31c-1.21,1.29-2.27,2.71-3.17,4.25-1.99,3.42-3.13,7.39-3.13,11.63,0,11.66,8.61,21.31,19.81,22.94,1.1.16,2.23.25,3.37.25.64,0,1.28-.03,1.91-.08,11.91-.97,21.28-10.94,21.28-23.1,0-4.25-1.15-8.23-3.15-11.66Z"/>
      </g>
    </g>
  </g>
</svg>