<?xml version="1.0" encoding="UTF-8"?>
<svg id="AC_icons" data-name="AC icons" xmlns="http://www.w3.org/2000/svg" viewBox="0 0 64 64">
  <defs>
    <style>
      .cls-1 {
        fill: #061a2f;
        stroke-width: 0px;
      }
    </style>
  </defs>
  <g id="Utility_and_system_icons" data-name="Utility and system icons">
    <g id="check-with-circle">
      <g>
        <path class="cls-1" d="m32,8c13.23,0,24,10.77,24,24s-10.77,24-24,24-24-10.77-24-24S18.77,8,32,8M32,0C14.33,0,0,14.33,0,32s14.33,32,32,32,32-14.33,32-32S49.67,0,32,0h0Z"/>
        <path class="cls-1" d="m26.2,46.49l-10.62-10.62c-1.56-1.56-1.56-4.09,0-5.66s4.09-1.56,5.66,0l4.96,4.96,14.84-14.84c1.56-1.56,4.09-1.56,5.66,0s1.56,4.09,0,5.66l-20.5,20.5Z"/>
      </g>
    </g>
  </g>
</svg>