<?xml version="1.0" encoding="UTF-8"?>
<svg id="AC_icons" data-name="AC icons" xmlns="http://www.w3.org/2000/svg" viewBox="0 0 64 64">
  <defs>
    <style>
      .cls-1 {
        fill: #061a2f;
        stroke-width: 0px;
      }
    </style>
  </defs>
  <g id="Utility_and_system_icons" data-name="Utility and system icons">
    <g id="upload">
      <g>
        <path class="cls-1" d="m62.92,44.16c-.72-.72-1.59-1.08-2.61-1.08h-16.42c-.54,1.44-1.44,2.61-2.71,3.54-1.27.92-2.69,1.38-4.25,1.38h-9.85c-1.56,0-2.98-.46-4.25-1.38-1.27-.92-2.17-2.1-2.71-3.54H3.69c-1.03,0-1.9.36-2.62,1.08-.72.72-1.08,1.59-1.08,2.61v12.31c0,1.03.36,1.9,1.08,2.61.72.72,1.59,1.08,2.62,1.08h56.62c1.03,0,1.9-.36,2.61-1.08.72-.72,1.08-1.59,1.08-2.61v-12.31c0-1.03-.36-1.9-1.08-2.61Zm-14.42,12.96c-.49.49-1.06.73-1.73.73s-1.24-.24-1.73-.73c-.49-.49-.73-1.06-.73-1.73s.24-1.24.73-1.73c.49-.49,1.06-.73,1.73-.73s1.24.24,1.73.73c.49.49.73,1.06.73,1.73s-.24,1.24-.73,1.73Zm9.85,0c-.49.49-1.06.73-1.73.73s-1.24-.24-1.73-.73c-.49-.49-.73-1.06-.73-1.73s.24-1.24.73-1.73c.49-.49,1.06-.73,1.73-.73s1.24.24,1.73.73c.49.49.73,1.06.73,1.73s-.24,1.24-.73,1.73Z"/>
        <path class="cls-1" d="m14.77,23.39h9.85v17.23c0,.67.24,1.24.73,1.73.49.49,1.06.73,1.73.73h9.85c.67,0,1.24-.24,1.73-.73.49-.49.73-1.06.73-1.73v-17.23h9.85c1.08,0,1.83-.51,2.27-1.54.44-1,.26-1.88-.54-2.65L33.73,1.96c-.46-.49-1.04-.73-1.73-.73s-1.27.24-1.73.73L13.04,19.19c-.8.77-.97,1.65-.54,2.65.44,1.03,1.19,1.54,2.27,1.54Z"/>
      </g>
    </g>
  </g>
</svg>