<?xml version="1.0" encoding="UTF-8"?>
<svg id="AC_icons" data-name="AC icons" xmlns="http://www.w3.org/2000/svg" viewBox="0 0 64 64">
  <defs>
    <style>
      .cls-1 {
        fill: #061a2f;
        stroke-width: 0px;
      }
    </style>
  </defs>
  <g id="Utility_and_system_icons" data-name="Utility and system icons">
    <g id="sound-large-bar-only">
      <g>
        <path class="cls-1" d="m52.59,6.4c-1.56-1.41-3.92-1.21-5.26.42-.58.7-.91,1.61-.89,2.55h.05c0,1.15.48,2.24,1.31,2.98,1.16,1.02,2.23,2.15,3.19,3.37,8.53,10.86,7.1,26.97-3.19,35.97-.01,0-.02.03-.04.04-1.54,1.42-1.69,3.87-.36,5.49,1.35,1.64,3.7,1.81,5.27.41,1.48-1.3,2.84-2.75,4.06-4.31,11.13-14.17,9.28-35.17-4.14-46.92h0Z"/>
        <path class="cls-1" d="m0,15.34v33.2h16.26l15.19,15.46V0l-15.07,15.34H0Z"/>
      </g>
    </g>
  </g>
</svg>