<?xml version="1.0" encoding="UTF-8"?>
<svg id="AC_icons" data-name="AC icons" xmlns="http://www.w3.org/2000/svg" viewBox="0 0 64 64">
  <defs>
    <style>
      .cls-1 {
        fill: #061a2f;
        stroke-width: 0px;
      }
    </style>
  </defs>
  <g id="Utility_and_system_icons" data-name="Utility and system icons">
    <g id="ellipsis">
      <path class="cls-1" d="m41.29,32c0,5.14-4.15,9.29-9.29,9.29s-9.29-4.15-9.29-9.29,4.15-9.29,9.29-9.29,9.29,4.15,9.29,9.29Zm13.42-9.29c-5.14,0-9.29,4.15-9.29,9.29s4.15,9.29,9.29,9.29,9.29-4.15,9.29-9.29-4.15-9.29-9.29-9.29Zm-45.42,0c-5.14,0-9.29,4.15-9.29,9.29s4.15,9.29,9.29,9.29,9.29-4.15,9.29-9.29-4.15-9.29-9.29-9.29Z"/>
    </g>
  </g>
</svg>