<?xml version="1.0" encoding="UTF-8"?>
<svg id="AC_icons" data-name="AC icons" xmlns="http://www.w3.org/2000/svg" viewBox="0 0 64 64">
  <defs>
    <style>
      .cls-1 {
        fill: #061a2f;
        stroke-width: 0px;
      }
    </style>
  </defs>
  <g id="Utility_and_system_icons" data-name="Utility and system icons">
    <g id="success">
      <path class="cls-1" d="m32,0C14.33,0,0,14.33,0,32s14.33,32,32,32,32-14.33,32-32S49.67,0,32,0Zm18.77,21.77l-24.01,24.01c-.47.47-1.11.73-1.77.73-.66,0-1.3-.26-1.77-.73l-10-10c-.98-.98-.98-2.56,0-3.54.98-.98,2.56-.98,3.54,0l8.23,8.23,22.24-22.24c.98-.98,2.56-.98,3.54,0s.98,2.56,0,3.54Z"/>
    </g>
  </g>
</svg>