<?xml version="1.0" encoding="UTF-8"?>
<svg id="AC_icons" data-name="AC icons" xmlns="http://www.w3.org/2000/svg" viewBox="0 0 64 64">
  <defs>
    <style>
      .cls-1 {
        fill: #001930;
        stroke-width: 0px;
      }
    </style>
  </defs>
  <g id="Utility_and_system_icons" data-name="Utility and system icons">
    <g id="info-with-circle">
      <g>
        <path class="cls-1" d="m32,0C14.33,0,0,14.33,0,32s14.33,32,32,32,32-14.33,32-32S49.67,0,32,0Zm20.41,52.41c-2.65,2.65-5.74,4.73-9.18,6.19-3.56,1.5-7.34,2.27-11.23,2.27s-7.68-.76-11.23-2.27c-3.44-1.45-6.52-3.54-9.18-6.19-2.65-2.65-4.73-5.74-6.19-9.18-1.5-3.56-2.27-7.34-2.27-11.23s.76-7.68,2.27-11.23c1.45-3.44,3.54-6.52,6.19-9.18,2.65-2.65,5.74-4.73,9.18-6.19,3.56-1.5,7.34-2.27,11.23-2.27s7.68.76,11.23,2.27c3.44,1.45,6.52,3.54,9.18,6.19,2.65,2.65,4.73,5.74,6.19,9.18,1.5,3.56,2.27,7.34,2.27,11.23s-.76,7.68-2.27,11.23c-1.45,3.44-3.54,6.52-6.19,9.18Z"/>
        <rect class="cls-1" x="28.17" y="23.22" width="7.66" height="31.31"/>
        <path class="cls-1" d="m32.2,9.46c-.08,0-.15,0-.23,0-2.52-.13-4.66,1.81-4.79,4.33,0,.09,0,.18,0,.27-.03,2.52,2,4.59,4.52,4.61.09,0,.18,0,.27,0,2.55.13,4.72-1.83,4.85-4.38,0-.08,0-.15,0-.23,0-2.55-2.07-4.62-4.62-4.61Z"/>
      </g>
    </g>
  </g>
</svg>