<?xml version="1.0" encoding="UTF-8"?>
<svg id="AC_icons" data-name="AC icons" xmlns="http://www.w3.org/2000/svg" viewBox="0 0 64 64">
  <defs>
    <style>
      .cls-1 {
        fill: #061a2f;
        stroke-width: 0px;
      }
    </style>
  </defs>
  <g id="Utility_and_system_icons" data-name="Utility and system icons">
    <g id="home">
      <g id="Layer_2" data-name="Layer 2">
        <path class="cls-1" d="m31.14,20l-20.48,16.9v18.21c0,.98.79,1.77,1.77,1.77,0,0,0,0,.01,0h12.45c.98,0,1.77-.8,1.76-1.78h0v-10.66c0-.98.8-1.78,1.78-1.78h7.11c.98,0,1.78.8,1.78,1.78v10.63c0,.98.79,1.77,1.77,1.78h12.44c.98,0,1.77-.79,1.78-1.77v-18.19l-20.47-16.89c-.5-.4-1.2-.4-1.7,0Zm32.36,11.49l-9.29-7.65v-15.39c0-.73-.6-1.33-1.33-1.33h-6.23c-.73,0-1.33.6-1.33,1.33h0v8.07l-9.95-8.19c-1.97-1.62-4.8-1.62-6.77,0L.48,31.49c-.56.47-.64,1.31-.17,1.88H.31l2.83,3.45c.47.55,1.29.63,1.86.18h0L31.14,15.47c.5-.4,1.2-.4,1.7,0l26.15,21.53c.56.47,1.39.39,1.86-.17,0,0,0,0,.01-.01h0l2.84-3.45c.46-.57.38-1.41-.19-1.87h-.01Z"/>
      </g>
    </g>
  </g>
</svg>