<?xml version="1.0" encoding="UTF-8"?>
<svg id="AC_icons" data-name="AC icons" xmlns="http://www.w3.org/2000/svg" viewBox="0 0 64 64">
  <defs>
    <style>
      .cls-1 {
        fill: #061a2f;
        stroke-width: 0px;
      }
    </style>
  </defs>
  <g id="Utility_and_system_icons" data-name="Utility and system icons">
    <g id="calendar-days">
      <path class="cls-1" d="m57.28,9.19h-4.84v-2.37c0-3.76-3.05-6.81-6.81-6.81s-6.81,3.05-6.81,6.81v2.37h-13.63v-2.37c0-3.76-3.05-6.81-6.81-6.81s-6.81,3.05-6.81,6.81v2.37h-4.84c-2.56,0-4.64,2.08-4.64,4.64v45.53c0,2.56,2.08,4.64,4.64,4.64h50.56c2.56,0,4.64-2.08,4.64-4.64V13.83c0-2.56-2.08-4.64-4.64-4.64ZM17.19,58.96H6.52v-10.67h10.67v10.67Zm0-13.04H6.52v-10.67h10.67v10.67Zm0-13.04H6.52v-10.67h10.67v10.67Zm-1.48-21.33v-4.74c0-1.47,1.19-2.67,2.67-2.67s2.67,1.19,2.67,2.67v4.74c0,1.47-1.19,2.67-2.67,2.67s-2.67-1.19-2.67-2.67Zm15.41,47.41h-11.85v-10.67h11.85v10.67Zm0-13.04h-11.85v-10.67h11.85v10.67Zm0-13.04h-11.85v-10.67h11.85v10.67Zm13.93,26.07h-11.85v-10.67h11.85v10.67Zm0-13.04h-11.85v-10.67h11.85v10.67Zm0-13.04h-11.85v-10.67h11.85v10.67Zm-2.07-21.33v-4.74c0-1.47,1.19-2.67,2.67-2.67s2.67,1.19,2.67,2.67v4.74c0,1.47-1.19,2.67-2.67,2.67s-2.67-1.19-2.67-2.67Zm14.81,47.41h-10.67v-10.67h10.67v10.67Zm0-13.04h-10.67v-10.67h10.67v10.67Zm0-13.04h-10.67v-10.67h10.67v10.67Z"/>
    </g>
  </g>
</svg>