<?xml version="1.0" encoding="UTF-8"?>
<svg id="AC_icons" data-name="AC icons" xmlns="http://www.w3.org/2000/svg" viewBox="0 0 64 64">
  <defs>
    <style>
      .cls-1 {
        fill: #061a2f;
        stroke-width: 0px;
      }
    </style>
  </defs>
  <g id="Utility_and_system_icons" data-name="Utility and system icons">
    <g id="shopping-cart">
      <path id="shopping-cart-solid" class="cls-1" d="m58.69,37.02l5.25-23.1c.33-1.44-.57-2.87-2-3.2-.2-.04-.39-.06-.59-.06H17.69l-1.02-4.96c-.25-1.24-1.34-2.13-2.61-2.13H2.64C1.19,3.59.01,4.77,0,6.22H0v1.77c0,1.47,1.18,2.67,2.65,2.67,0,0,0,0,.01,0h7.76l7.86,38.16c-2.97,1.71-3.99,5.51-2.27,8.48,1.71,2.97,5.51,3.99,8.48,2.27,2.97-1.71,3.99-5.51,2.27-8.48-.28-.49-.63-.93-1.03-1.32h23.24c-2.45,2.41-2.48,6.35-.07,8.79,2.41,2.45,6.35,2.48,8.79.07,2.45-2.41,2.48-6.34.08-8.79-.52-.51-1.12-.93-1.77-1.23l.61-2.7c.33-1.43-.56-2.85-1.98-3.18,0,0-.02,0-.03,0-.19-.05-.39-.07-.59-.07h-29.77l-.73-3.55h32.57c1.25,0,2.33-.86,2.61-2.08Z"/>
    </g>
  </g>
</svg>