<?xml version="1.0" encoding="UTF-8"?>
<svg id="AC_icons" data-name="AC icons" xmlns="http://www.w3.org/2000/svg" viewBox="0 0 64 64">
  <defs>
    <style>
      .cls-1 {
        fill: #061a2f;
        stroke-width: 0px;
      }
    </style>
  </defs>
  <g id="Utility_and_system_icons" data-name="Utility and system icons">
    <g id="seek-backward">
      <g>
        <path class="cls-1" d="m57.71,26.31c-2.11-4.98-5.67-9.24-10.25-12.23-4.58-3-9.96-4.59-15.46-4.59h-6.05V2.44C25.95,1.09,25.13,0,24.13,0c-.32,0-.64.12-.91.34l-13.31,10.58c-.86.69-1.15,2.19-.64,3.35.15.35.37.64.63.86h0s13.31,10.59,13.31,10.59c.85.69,1.96.33,2.48-.82.18-.39.27-.84.26-1.29v-5.96h6.05c10.76,0,19.48,8.54,19.48,19.08s-8.72,19.08-19.48,19.08-19.48-8.54-19.48-19.08h0s-8.35,0-8.35,0c0,5.39,1.63,10.66,4.69,15.14,3.06,4.48,7.4,7.98,12.49,10.04,5.08,2.06,10.68,2.6,16.08,1.55,5.4-1.05,10.36-3.65,14.25-7.46,3.89-3.81,6.54-8.67,7.62-13.96,1.07-5.29.52-10.77-1.58-15.75Z"/>
        <path class="cls-1" d="m27.81,47.41v-16.43h-2.06c-.73.77-1.57,1.45-2.52,2.01-.94.57-1.87,1.04-2.81,1.4l.9,2.18c.61-.21,1.25-.47,1.91-.78.66-.32,1.21-.64,1.65-.97v12.59h2.93Z"/>
        <path class="cls-1" d="m38.87,47.76c1.82,0,3.25-.74,4.28-2.2,1.03-1.49,1.55-3.61,1.55-6.38s-.52-4.88-1.55-6.35c-1.03-1.49-2.46-2.23-4.28-2.23-.9,0-1.72.19-2.44.57-.71.38-1.32.93-1.84,1.66-.5.73-.89,1.63-1.16,2.7-.26,1.06-.39,2.28-.39,3.65,0,2.77.52,4.89,1.55,6.38,1.03,1.47,2.46,2.2,4.28,2.2Zm-2.69-10.97c.1-.74.25-1.38.46-1.92.23-.55.52-.99.87-1.3.37-.32.82-.47,1.35-.47s.98.16,1.33.47c.35.32.64.75.85,1.3.23.54.39,1.18.48,1.92.1.74.15,1.54.15,2.39s-.05,1.65-.15,2.39c-.1.74-.26,1.39-.48,1.94-.21.54-.49.96-.85,1.28-.35.32-.8.47-1.33.47s-.98-.16-1.35-.47c-.36-.32-.65-.74-.87-1.28-.21-.55-.36-1.2-.46-1.94-.08-.74-.12-1.54-.12-2.39s.04-1.65.12-2.39Z"/>
      </g>
    </g>
  </g>
</svg>