<?xml version="1.0" encoding="UTF-8"?>
<svg id="AC_icons" data-name="AC icons" xmlns="http://www.w3.org/2000/svg" viewBox="0 0 64 64">
  <defs>
    <style>
      .cls-1 {
        fill: #001930;
        fill-rule: evenodd;
        stroke-width: 0px;
      }
    </style>
  </defs>
  <g id="Utility_and_system_icons" data-name="Utility and system icons">
    <g id="print">
      <path class="cls-1" d="m60.8,25.1h-2.13v-3.77c0-1.33-1.33-2.67-2.67-2.67h-2.67s0-3.41,0-3.41c0-.59-.29-.8-.29-.8-.1-.07-15.93-13.52-16.49-13.99-.29-.25-.43-.37-.59-.42-.14-.05-.3-.05-.6-.05H13.33c-1.33,0-2.67,1.33-2.67,2.67v16h-2.67c-1.33,0-2.67,1.33-2.67,2.67v3.77h-2.13c-1.77,0-3.2,1.44-3.2,3.22v24.46c0,1.78,1.43,3.22,3.2,3.22h7.47v5.33c0,1.33,1.24,2.67,2.67,2.67h37.33c1.42,0,2.67-1.33,2.67-2.67v-5.33h7.47c1.77,0,3.2-1.44,3.2-3.22v-24.46c0-1.78-1.43-3.22-3.2-3.22ZM36.33,4.66c1.63,1.38,4.06,3.45,6.47,5.5,1.76,1.49,3.5,2.97,4.92,4.18h-11.39V4.66Zm-22.33-1.32h19v11.71c0,.67.25,1.25.66,1.69.37.4.8.6,1.12.72.32.11.62.17.82.19.11.01.19.02.26.02.03,0,.06,0,.09,0h.03s.01,0,.01,0h0s0,0,0,0h14v8.33H14V3.33Zm36,57.33H14v-18h36v18Z"/>
    </g>
  </g>
</svg>