<?xml version="1.0" encoding="UTF-8"?>
<svg id="AC_icons" data-name="AC icons" xmlns="http://www.w3.org/2000/svg" viewBox="0 0 64 64">
  <defs>
    <style>
      .cls-1, .cls-2 {
        fill: #061a2f;
        stroke-width: 0px;
      }

      .cls-2 {
        fill-rule: evenodd;
      }
    </style>
  </defs>
  <g id="Utility_and_system_icons" data-name="Utility and system icons">
    <g id="pdf-file">
      <g>
        <path class="cls-1" d="m57.69,18.53c0-.84-.56-1.57-1.37-1.8L39.85.69C39.5.25,38.97,0,38.42,0H9.66c-1.85,0-3.35,1.49-3.35,3.34,0,0,0,0,0,.01v57.3c0,1.85,1.49,3.35,3.34,3.35,0,0,0,0,.01,0h44.68c1.84,0,3.34-1.5,3.33-3.35,0-14.05,0-28.09,0-42.13h.01Zm-17.41-11.98l11.19,10.48h-11.19V6.55ZM10.05,60.27V3.72h26.47v15.16c0,1.04.84,1.88,1.88,1.88h15.54c0,13.17,0,26.34,0,39.5H10.05Z"/>
        <path class="cls-2" d="m48.22,41.27c-.67-.66-2.16-1.01-4.42-1.04-1.53-.01-3.37.12-5.31.39-.87-.5-1.76-1.05-2.46-1.7-1.89-1.77-3.47-4.21-4.45-6.91.06-.25.12-.47.17-.7,0,0,1.07-6.04.79-8.09-.04-.28-.06-.36-.14-.58l-.09-.24c-.29-.67-.86-1.37-1.75-1.33h-.54c-.99-.01-1.8.49-2.01,1.25-.64,2.38.02,5.94,1.23,10.55l-.31.75c-.86,2.11-1.95,4.23-2.9,6.1l-.13.24c-1.01,1.97-1.92,3.63-2.75,5.05l-.85.45c-.06.03-1.52.81-1.87,1.02-2.91,1.74-4.84,3.71-5.16,5.27-.1.5-.02,1.14.49,1.43l.83.41c.36.18.74.27,1.12.27,2.07,0,4.48-2.58,7.8-8.37,3.83-1.24,8.19-2.28,12-2.85,2.91,1.64,6.49,2.78,8.75,2.78.4,0,.75-.04,1.03-.11.43-.12.8-.36,1.02-.7.44-.66.53-1.57.41-2.5-.04-.28-.25-.62-.49-.85h0Zm-30.96,11.03c.38-1.03,1.87-3.08,4.09-4.89.14-.11.48-.43.79-.73-2.31,3.69-3.86,5.16-4.88,5.62h0Zm13.11-30.17c.67,0,1.05,1.68,1.08,3.25.03,1.57-.34,2.68-.79,3.5-.38-1.21-.56-3.12-.56-4.37,0,0-.03-2.39.28-2.39h0Zm-3.91,21.5c.47-.83.94-1.71,1.44-2.64,1.2-2.28,1.96-4.05,2.53-5.51,1.13,2.05,2.53,3.79,4.17,5.18.2.17.42.35.65.52-3.35.66-6.24,1.47-8.79,2.45h0Zm21.12-.19c-.2.13-.79.2-1.16.2-1.21,0-2.71-.55-4.82-1.46.81-.06,1.55-.09,2.21-.09,1.22,0,1.58,0,2.76.3,1.19.3,1.21.92,1,1.05h0Z"/>
      </g>
    </g>
  </g>
</svg>