<?xml version="1.0" encoding="UTF-8"?>
<svg id="AC_icons" data-name="AC icons" xmlns="http://www.w3.org/2000/svg" viewBox="0 0 64 64">
  <defs>
    <style>
      .cls-1 {
        fill: #061a2f;
        stroke-width: 0px;
      }
    </style>
  </defs>
  <g id="Utility_and_system_icons" data-name="Utility and system icons">
    <g id="error">
      <path class="cls-1" d="m32,0C14.33,0,0,14.33,0,32s14.33,32,32,32,32-14.33,32-32S49.67,0,32,0Zm18.77,50.7c-1.13,1.17-3,1.2-4.17.07l-14.6-14.6-14.6,14.6c-1.14,1.1-2.95,1.1-4.1,0-1.17-1.13-1.2-3-.07-4.17l14.6-14.6-14.6-14.6c-1.1-1.14-1.1-2.95,0-4.1,1.13-1.17,3-1.2,4.17-.07l14.6,14.6,14.6-14.6c1.14-1.1,2.95-1.1,4.1,0,1.17,1.13,1.2,3,.07,4.17l-14.6,14.6,14.6,14.6c1.1,1.14,1.1,2.95,0,4.1Z"/>
    </g>
  </g>
</svg>