<?xml version="1.0" encoding="UTF-8"?>
<svg id="AC_icons" data-name="AC icons" xmlns="http://www.w3.org/2000/svg" viewBox="0 0 64 64">
  <defs>
    <style>
      .cls-1, .cls-2 {
        fill: #061a2f;
        stroke-width: 0px;
      }

      .cls-2 {
        fill-rule: evenodd;
      }
    </style>
  </defs>
  <g id="Utility_and_system_icons" data-name="Utility and system icons">
    <g id="file">
      <g>
        <path class="cls-1" d="m57.69,18.53c0-.84-.56-1.57-1.37-1.8L39.85.69c-.35-.44-.88-.69-1.44-.69H9.66c-1.85,0-3.35,1.49-3.35,3.34,0,0,0,0,0,.01v57.3c0,1.85,1.49,3.35,3.34,3.35,0,0,0,0,.01,0h44.68c1.84,0,3.34-1.5,3.33-3.35,0-14.05,0-28.09,0-42.13h.01Zm-17.41-11.98l11.19,10.48h-11.19V6.55ZM10.05,60.27V3.72h26.47v15.16c0,1.04.84,1.88,1.88,1.88h15.54c0,13.17,0,26.34,0,39.5H10.05Z"/>
        <g>
          <polygon class="cls-2" points="36.67 31.87 14.43 31.87 14.43 28.73 36.67 28.73 36.67 31.87 36.67 31.87"/>
          <polygon class="cls-2" points="48.79 41.31 14.43 41.31 14.43 38.15 48.79 38.15 48.79 41.31 48.79 41.31"/>
          <polygon class="cls-2" points="49.56 50.69 14.43 50.69 14.43 47.55 49.57 47.55 49.57 50.69 49.56 50.69"/>
        </g>
      </g>
    </g>
  </g>
</svg>