<?xml version="1.0" encoding="UTF-8"?>
<svg id="AC_icons" data-name="AC icons" xmlns="http://www.w3.org/2000/svg" viewBox="0 0 64 64">
  <defs>
    <style>
      .cls-1 {
        fill: #061a2f;
        stroke-width: 0px;
      }
    </style>
  </defs>
  <g id="Utility_and_system_icons" data-name="Utility and system icons">
    <g id="padlock">
      <g>
        <path class="cls-1" d="m56,24h-8v-8C48,7.16,40.83,0,32,0c-8.83,0-16,7.16-16,16v8H8c-1.1,0-2,.9-2,2,0,0,0,0,0,0v30c0,4.42,3.58,8,8,8h36c4.42,0,8-3.58,8-8v-30c0-1.1-.89-2-2-2h0,0ZM20,16c0-6.63,5.38-12,12-12,6.62,0,11.99,5.37,12,12v8h-24v-8Zm34,40c0,2.21-1.79,4-4,4H14c-2.21,0-4-1.79-4-4v-28h44v28h0Z"/>
        <path class="cls-1" d="m30.71,44v8.37h3.91v-8.37c1.87-1.08,2.51-3.47,1.43-5.34-1.08-1.87-3.47-2.51-5.34-1.43-1.87,1.08-2.51,3.47-1.43,5.34.34.6.84,1.09,1.43,1.43Z"/>
      </g>
    </g>
  </g>
</svg>