<?xml version="1.0" encoding="UTF-8"?>
<svg id="AC_icons" data-name="AC icons" xmlns="http://www.w3.org/2000/svg" viewBox="0 0 64 64">
  <defs>
    <style>
      .cls-1, .cls-2 {
        fill: #061a2f;
        stroke-width: 0px;
      }

      .cls-2 {
        fill-rule: evenodd;
      }
    </style>
  </defs>
  <g id="Informational_icons" data-name="Informational icons">
    <g id="V">
      <g id="vegetation-removal">
        <g id="Standard_icons" data-name="Standard icons">
          <g id="Do_not_remove_vegetation" data-name="Do not remove vegetation">
            <path class="cls-1" d="m39.05,40.62c-.21.86-.9,3-2.74,5.64-1.1,1.64-2.6,2.97-4.35,3.87-1.12.62-5.04,1.52-6.52.87-2.51-1.11-4.35-.8-4.21,1.84v5.31h-3.2v-5.31c.15-2.63-1.84-2.95-4.35-1.84-1.48.65-5.4-.25-6.52-.87-1.75-.9-3.25-2.23-4.35-3.87-2.4-3.45-2.82-6.02-2.82-6.02,0,0,6.21-1.24,9.36.09,1.86.78,4.85,1.34,6.57,7.2,0,0-.28.83,2.12,1.06,0-1.18.06-2.1,0-3.19s-.24-1.37-1.24-2.37c-1.58-1.6-5.82-11.06,2.74-19.69,8.55,8.63,4.35,18.09,2.78,19.69-1,1-1.03,1.26-1.09,2.37s0,2.01,0,3.19c2.4-.24,2.12-1.06,2.12-1.06,1.73-5.86,4.66-6.24,6.43-7.2,3.56-1.92,9.27.31,9.27.31"/>
            <path class="cls-2" d="m43.61,5.86c-3.42.26-11.13,4.04-11.97,5.32-.51.78-2.31,4.14-3.42,6.29-.33.64-.77,1.24-1.12,1.86-.17.31-.34.65-.52.96s-.77,1.69-.9,2.07c-.16.35-.29.72-.4,1.09-.03.13-.03.27,0,.4.03.11.22.68.52.77,1.24.37,2.39-.45,2.59-.55.93-.47,2.48-3.42,2.74-4,.26-.62.62-1.2,1.07-1.71.22-.25,1-1.3,1.19-1.55.57-.84,1.11-1.67,1.71-2.45.52,0,1.01-.05,1.5-.08-.42.83-.95,1.7-1.38,2.48-.16.31-.27.62-.43.9-.25.46-.56.88-.81,1.35-.29.45-.55.92-.79,1.39-.09.23-.15.5-.24.77-.12.24-.21.49-.29.75-.06.44.1.81.35.9.64.09,1.3-.04,1.86-.36.54-.53,1.68-2.35,1.86-2.66s.31-.68.5-.99.43-.57.64-.84.44-.55.65-.84c.42-.6.79-1.19,1.24-1.76,1.24-.11,2.69,0,3.64-.38.44.58.8,1.24,1.22,1.83-1.3.95-2.22,2.28-3.14,3.97-.6,1.11-1.35,2.25-1.86,3.49-.23.46-.33.98-.31,1.49.07.52.46.69.93.78.2.02.4.02.59,0,.77-.24,1.5-.59,2.17-1.03.62-.45,1-1.1,1.45-1.76.45-.61.96-1.17,1.52-1.69.46-.46,1.12-1.24,1.76-1.46.36-.1.72-.18,1.09-.22,2.79-.47,5.52-.51,7.61-1.69,1.11-.62,2.17-1.38,3.28-2.02,1.28-.77,2.76-1.14,4.25-1.06V5.86h-20.4"/>
          </g>
        </g>
      </g>
    </g>
  </g>
</svg>