<?xml version="1.0" encoding="UTF-8"?>
<svg id="AC_icons" data-name="AC icons" xmlns="http://www.w3.org/2000/svg" viewBox="0 0 64 64">
  <defs>
    <style>
      .cls-1 {
        fill: #061a2f;
        stroke-width: 0px;
      }
    </style>
  </defs>
  <g id="Informational_icons" data-name="Informational icons">
    <g id="V">
      <g id="vehicle-access">
        <g id="Car">
          <path class="cls-1" d="m49.92,42.99c-2.4-.04-4.31-2.02-4.26-4.42s2.02-4.31,4.42-4.26c2.37.04,4.27,1.98,4.26,4.35-.02,2.41-1.99,4.35-4.4,4.33,0,0-.01,0-.02,0m-33.32-15.54c-1.71.01-3.3-.87-4.2-2.33-.41-.57-.53-1.29-.34-1.97.67-2.58,2.77-8.77,3.21-10.18.18-.59.61-.83,1.29-.82,4.71.03,26.17.03,30.88,0,.68,0,1.1.23,1.29.82.44,1.41,2.54,7.61,3.21,10.18.19.67.06,1.4-.35,1.97-.9,1.46-2.49,2.34-4.2,2.33-4.72.02-26.08.02-30.8,0m-2.52,15.54c-2.4.06-4.39-1.84-4.44-4.24-.06-2.4,1.84-4.39,4.24-4.44,2.4-.06,4.39,1.84,4.44,4.24,0,.03,0,.06,0,.09.01,2.36-1.87,4.3-4.24,4.36m49.91-18.65c-.05-1.16-.61-1.75-1.76-1.76h-6.4c-.87-3.46-1.82-5.19-2.62-8.75-1.02-4.49-4.01-7.02-8.61-7.03h-25.2c-4.6,0-7.58,2.54-8.61,7.03-.81,3.55-1.75,5.28-2.62,8.75H1.76c-1.15,0-1.72.61-1.76,1.76v.61c0,1.59.32,1.98,1.85,2.26l1.7.3c-.29,1.21-.7,2.4-.84,3.62-.29,2.56-.56,5.14-.62,7.72-.15,5.88.26,12.69.53,14.32.27,1.64,1.03,4.01,3,4.01h2.66c1.69,0,3.67-.39,3.67-4.05v-4.85h40.11v4.85c0,3.66,1.98,4.04,3.67,4.05h2.66c1.98,0,2.73-2.37,3-4.01.27-1.63.67-8.44.53-14.32-.06-2.58-.32-5.15-.63-7.71-.14-1.21-.55-2.4-.84-3.62l1.7-.3c1.54-.28,1.86-.67,1.85-2.26v-.61"/>
        </g>
      </g>
    </g>
  </g>
</svg>