<?xml version="1.0" encoding="UTF-8"?>
<svg id="AC_icons" data-name="AC icons" xmlns="http://www.w3.org/2000/svg" viewBox="0 0 64 64">
  <defs>
    <style>
      .cls-1 {
        fill: #061a2f;
        stroke-width: 0px;
      }
    </style>
  </defs>
  <g id="Informational_icons" data-name="Informational icons">
    <g id="V">
      <g id="volleyball">
        <g id="Volleyball">
          <circle class="cls-1" cx="31.5" cy="18.5" r="4.5"/>
          <path class="cls-1" d="m27,28l-9-1.67s-1.8-1.14-.6-3.67c1.2-2.53,5.4-11.59,5.4-11.59.57-.88,1.65-1.29,2.66-1,1.07.51,1.53,1.79,1.02,2.87-.05.1-.1.19-.16.27-1.2,2.12-4.55,9.47-4.55,9.47l8.66,1.8,18.44-4.32s2.14-.59,2.92.93c.78,1.52-.77,2.29-1.72,2.54l-13.07,3.37v10l-2,13c-.28,1.38-1.01,2.62-2.08,3.53-1.72,1.36-10.63,9.83-10.63,9.83-.89.84-2.28.84-3.17,0-1.72-1.44.26-3.31.26-3.31l10.62-10.05,1-8-3,7.65s-1,2.35-3.26,2.1l-10.12-.93s-2.62-.26-2.62-2.12,1.2-2.29,2-2.29,9.86.76,9.86.76l3.14-10.17v-9Z"/>
          <circle class="cls-1" cx="44.5" cy="5.5" r="5.5"/>
        </g>
      </g>
    </g>
  </g>
</svg>