<?xml version="1.0" encoding="UTF-8"?>
<svg id="AC_icons" data-name="AC icons" xmlns="http://www.w3.org/2000/svg" viewBox="0 0 64 64">
  <defs>
    <style>
      .cls-1 {
        fill: #061a2f;
        stroke-width: 0px;
      }
    </style>
  </defs>
  <g id="Informational_icons" data-name="Informational icons">
    <g id="W">
      <g id="waiting-area">
        <g id="Waiting_room" data-name="Waiting room">
          <path class="cls-1" d="m56.53,10.12c0-5.59-4.53-10.12-10.12-10.12-5.59,0-10.12,4.53-10.12,10.12,0,5.59,4.53,10.11,10.11,10.12,5.59,0,10.11-4.53,10.12-10.12Zm-18.1,0c0-4.41,3.57-7.98,7.98-7.98s7.98,3.57,7.98,7.98c0,4.41-3.57,7.98-7.98,7.98,0,0,0,0,0,0-4.4,0-7.97-3.58-7.98-7.98h0Z"/>
          <path class="cls-1" d="m51.75,9.08c.49-.32.63-.99.3-1.48-.3-.45-.89-.61-1.38-.36l-3.55,2.08v-4.54c0-.59-.48-1.07-1.07-1.07s-1.07.48-1.07,1.07v6.4c0,.59.48,1.06,1.07,1.07.19,0,.38-.05.54-.15l5.15-3.03Z"/>
          <path class="cls-1" d="m25.93,6.83c0-3.66-2.97-6.62-6.63-6.62-3.66,0-6.62,2.97-6.62,6.63,0,3.66,2.97,6.62,6.62,6.62s6.62-2.97,6.62-6.62h0Z"/>
          <path class="cls-1" d="m33.47,45.88h-9.43c-3.86,0-6.91-2.39-7.78-6.09l-2.89-12.44-.62-2.52c-.32-1.44-1.74-2.35-3.18-2.03-1.44.32-2.35,1.74-2.03,3.18,0,0,2.65,10.85,3.93,16.17s7.06,9.01,11.48,9.01h10.13c1.47-.04,2.63-1.26,2.6-2.73-.03-1.27-.96-2.35-2.22-2.56Z"/>
          <path class="cls-1" d="m25.47,19.1c-.71-3.16-3.85-5.14-7.01-4.43-3.16.71-5.14,3.85-4.43,7.01,0,.03.01.05.02.08l4.09,17.6c.57,2.47,2.62,4.58,5.9,4.58h13.94v16.18c-.09,2.06,1.51,3.8,3.57,3.88s3.8-1.51,3.88-3.57c0-.1,0-.21,0-.31v-19.9c0-2.06-1.67-3.73-3.73-3.73,0,0,0,0,0,0h-12.19l-4.04-17.38Z"/>
        </g>
      </g>
    </g>
  </g>
</svg>