<?xml version="1.0" encoding="UTF-8"?>
<svg id="AC_icons" data-name="AC icons" xmlns="http://www.w3.org/2000/svg" viewBox="0 0 64 64">
  <defs>
    <style>
      .cls-1 {
        fill: #061a2f;
        stroke-width: 0px;
      }
    </style>
  </defs>
  <g id="Informational_icons" data-name="Informational icons">
    <g id="W">
      <g id="walking">
        <g id="Walking_pedestrian_access_access" data-name="Walking pedestrian access access">
          <path class="cls-1" d="m35.59,0C38.62,0,41.07,2.45,41.07,5.48s-2.45,5.48-5.48,5.48-5.48-2.45-5.48-5.48S32.56,0,35.59,0"/>
          <path class="cls-1" d="m50.77,32.07c-.61,1.15-2.04,1.6-3.2,1l-6.4-3.18c-1.53-.78-2.73-2.07-3.42-3.65l-1.08-2.18-2.4,10.52,14.76,23.37c1.26,1.66.93,4.02-.73,5.28-1.66,1.26-4.02.93-5.28-.73-.13-.18-.25-.37-.35-.57l-13.24-20.95c-.39,1.76-.82,3.45-1.11,5.16-.35,2.06-1.1,4.03-2.21,5.8l-5.98,9.97c-.98,1.84-3.26,2.54-5.09,1.56-1.84-.98-2.54-3.26-1.56-5.09.06-.11.12-.21.19-.31l5.55-9.35c.89-1.5,1.53-3.12,1.91-4.82l4.86-21.64-3.05,2.48c-.41.35-.7.82-.82,1.35l-1.79,7.97c-.22,1.3-1.45,2.17-2.75,1.95s-2.17-1.45-1.95-2.75c.01-.07.02-.13.04-.19l1.99-8.83c.3-1.35,1.05-2.55,2.12-3.42l9.25-7.47c2.22-1.99,5.63-1.81,7.63.41.38.42.69.91.92,1.43l5.1,10.11,6.97,3.59c1.16.61,1.6,2.05,1,3.21"/>
        </g>
      </g>
    </g>
  </g>
</svg>