<?xml version="1.0" encoding="UTF-8"?>
<svg id="AC_icons" data-name="AC icons" xmlns="http://www.w3.org/2000/svg" viewBox="0 0 64 64">
  <defs>
    <style>
      .cls-1 {
        fill: #0a1830;
        stroke-width: 0px;
      }
    </style>
  </defs>
  <g id="Informational_icons" data-name="Informational icons">
    <g id="W">
      <g id="water-skiing">
        <g>
          <path class="cls-1" d="m58.08,50.3h0c-5-.11-9.89,3.93-12.76,3.93-3.94,0-5.96-3.46-10.43-3.58-5.11-.13-9.46,3.58-11.49,3.58-3.19,0-5.75-3.02-10.32-3.12-4.79-.12-7.45,2.77-11.06,2.77-1.17,0-2.02-.35-2.02-.35v4.16s.42.19,2.13.11c5.43-.23,7.87-2.78,10.53-2.78,3.4,0,6.6,2.9,10.32,3.01,3.72.11,8.08-3.47,11.39-3.47s6.81,3.58,10.74,3.58c3.62,0,9.25-3.92,12.87-3.92,2.34,0,4.78,1.61,4.78,1.61v-4.38s-.2-1.05-4.68-1.16Z"/>
          <circle class="cls-1" cx="9.82" cy="9.98" r="4.13"/>
          <polygon class="cls-1" points="11.34 14.91 11.34 14.91 11.35 14.91 11.34 14.91"/>
          <path class="cls-1" d="m63.6,14.57l-26.44-.3c-.08-.08-.18-.15-.28-.21-1.01-.63-7.92-3.52-8.79-3.02-.16.09-.25.25-.24.42h0c.02.58.09,1.52.2,2.58l-7.09,1.75-.18.04-.17.08-7.33-.28c-.96-.6-1.93-.75-1.94-.75-2.94-.13-3.64,2.21-3.52,4.22,0,0,.12,7.81.66,10.79.67,3.75,2.66,5.15,3.68,5.5,4.07,1.38,6.89,2.43,8.65,3.12,1.05,2.15,1.61,5.22,1.73,7.14.03.42.18.81.42,1.12-8.53.49-15.88.73-16.02.74-.59.02-1.06.52-1.04,1.11.02.58.5,1.04,1.08,1.04.01,0,.02,0,.04,0,.25,0,24.74-.81,36.41-2.5,5.57-.81,6.76-1.56,7-2.65.13-.58-.24-1.16-.82-1.28-.49-.11-.98.14-1.2.57-.21.13-.95.48-3.4.92l-17.26,1.75c-.49.03-.97.06-1.45.09.2-.34.31-.74.28-1.16-.05-.87-.62-8.64-4.55-11.91-.96-.8-2.83-1.78-4.68-2.65-1.13-1.98-2-3.87-2.09-5.09-.09-1.27-.14-4.35-.15-6l5.35.2c.06,0,.11,0,.17,0,.5,0,1-.1,1.47-.28l6.41-1.58c.07.59.13,1.14.19,1.61l.08.69c.03.23.22.4.47.4,0,0,0,0,.01,0,.57-.01,2.69-1.52,4.37-2.77,2.35-1.76,3.22-2.56,3.55-2.96l26.43.3h0c.22,0,.4-.18.4-.4,0-.22-.18-.41-.4-.41Zm-34.09,5.3l-.03-.24c-.06-.5-.13-1.09-.2-1.72.98-.34,1.55-1.37,1.3-2.39-.21-.84-.91-1.42-1.72-1.52-.08-.86-.15-1.64-.18-2.2,1.35.21,6.57,2.18,7.74,2.93-.98,1.01-5.54,4.41-6.91,5.15Z"/>
        </g>
      </g>
    </g>
  </g>
</svg>