<?xml version="1.0" encoding="UTF-8"?>
<svg id="AC_icons" data-name="AC icons" xmlns="http://www.w3.org/2000/svg" viewBox="0 0 64 64">
  <defs>
    <style>
      .cls-1 {
        fill: #061a2f;
        stroke-width: 0px;
      }
    </style>
  </defs>
  <g id="Informational_icons" data-name="Informational icons">
    <g id="W">
      <g id="weather-wind">
        <g>
          <path class="cls-1" d="m32,34.67H5.33c-1.47,0-2.67-1.2-2.67-2.67s1.2-2.67,2.67-2.67h5.33v-2.67h-5.33c-2.93,0-5.33,2.4-5.33,5.33s2.4,5.33,5.33,5.33h26.67c2.93,0,5.33,2.4,5.33,5.33s-2.4,5.33-5.33,5.33v2.67c4.4,0,8-3.6,8-8s-3.6-8-8-8Z"/>
          <path class="cls-1" d="m34.67,13.33v2.67c2.93,0,5.33,2.4,5.33,5.33s-2.4,5.33-5.33,5.33H13.33v2.67h21.33c4.4,0,8-3.6,8-8s-3.6-8-8-8Z"/>
          <path class="cls-1" d="m42.67,29.33v2.67h7.33c3.73-.13,6.53-3.33,6.4-7.07s-3.33-6.4-7.07-6.27v2.67c2.27,0,4,1.73,4,4s-1.73,4-4,4h-6.67Z"/>
          <path class="cls-1" d="m57.33,34.67h-14.67v2.67h14.67c2.27,0,4,1.73,4,4s-1.73,4-4,4v2.67c3.73,0,6.67-2.93,6.67-6.67s-2.93-6.67-6.67-6.67Z"/>
        </g>
      </g>
    </g>
  </g>
</svg>