<?xml version="1.0" encoding="UTF-8"?>
<svg id="AC_icons" data-name="AC icons" xmlns="http://www.w3.org/2000/svg" viewBox="0 0 64 64">
  <defs>
    <style>
      .cls-1 {
        fill: #061a2f;
        stroke-width: 0px;
      }
    </style>
  </defs>
  <g id="Informational_icons" data-name="Informational icons">
    <g id="W">
      <g id="weather-rain">
        <g>
          <path class="cls-1" d="m52.44,18.81c-2.29-10.7-12.75-17.56-23.57-15.27-5.89,1.2-10.82,5.05-13.47,10.46h-.96C6.49,14,0,20.37,0,28.43s6.37,14.43,14.43,14.43h2.41v-2.41h-2.41c-6.61,0-12.03-5.41-12.03-12.03s5.41-12.03,12.03-12.03h.72l1.56.12.72-1.44c4.33-8.54,14.79-12.03,23.45-7.7,4.69,2.41,8.06,6.73,9.14,11.91l.36,1.8,1.8.12c5.29.48,9.26,5.05,8.78,10.34-.36,4.93-4.45,8.66-9.38,8.78h-6.01v2.41h6.01c6.61.24,12.15-5.05,12.39-11.67.36-6.49-4.81-12.03-11.55-12.27h0Z"/>
          <polygon class="cls-1" points="30.07 51.28 30.07 53.69 30.07 60.9 32.47 60.9 32.47 53.69 32.47 51.28 32.47 36.85 30.07 36.85 30.07 51.28"/>
          <polygon class="cls-1" points="39.69 46.47 39.69 48.64 39.69 56.09 42.09 56.09 42.09 48.64 42.09 46.47 42.09 32.04 39.69 32.04 39.69 46.47"/>
          <polygon class="cls-1" points="20.45 46.47 20.45 49 20.45 56.09 22.85 56.09 22.85 49 22.85 46.47 22.85 32.04 20.45 32.04 20.45 46.47"/>
        </g>
      </g>
    </g>
  </g>
</svg>