<?xml version="1.0" encoding="UTF-8"?>
<svg id="AC_icons" data-name="AC icons" xmlns="http://www.w3.org/2000/svg" viewBox="0 0 64 64">
  <defs>
    <style>
      .cls-1 {
        fill: #061a2f;
        stroke-width: 0px;
      }
    </style>
  </defs>
  <g id="Informational_icons" data-name="Informational icons">
    <g id="W">
      <g id="weather-sunset">
        <g>
          <path class="cls-1" d="m62.4,45.17h-.02c-4.3-1.38-9.03-1.72-13.5-2.02-.19-.01-.38-.02-.57-.03.65-.54,1.01-1.41.84-2.3-3.26-13.16-12.8-15.93-17.36-15.57-15.64.99-21.29,15.59-21.52,16.21-.1.27-.15.55-.15.83,0,.76.35,1.43.9,1.87-2.47.24-4.94.49-7.41.77-4.01.44-5.32,5.87-.56,5.34,14.37-1.61,29-2.82,43.47-1.84,3.66.25,9.47.84,11.87,1.61,3.14,1,8.23-3.53,4.01-4.88Zm-48.02-1.31c.18-.22.33-.46.43-.74.19-.46,4.83-12.25,17.34-13.05.07-.01,9.2-.59,12.31,11.91.12.38.33.71.59.97-10.21-.44-20.47,0-30.68.9Z"/>
          <path class="cls-1" d="m3.12,31.5c2.07,1.37,4.48,1.37,5.37.02.89-1.36-.06-3.56-2.14-4.93-2.07-1.37-4.48-1.37-5.37-.02-.89,1.36.06,3.56,2.14,4.93Z"/>
          <path class="cls-1" d="m24.21,22.58c1.33-.93,1.25-3.34-.18-5.37-1.43-2.03-3.66-2.92-4.99-1.98-1.33.93-1.25,3.34.18,5.37,1.43,2.03,3.66,2.92,4.99,1.98Z"/>
          <path class="cls-1" d="m42.48,22.57c1.6.28,3.24-1.48,3.67-3.93s-.53-4.66-2.13-4.93c-1.6-.28-3.24,1.48-3.67,3.93-.43,2.45.53,4.66,2.13,4.93Z"/>
          <path class="cls-1" d="m57.97,33.46c2.36-1.36,3.61-3.6,2.8-5.01-.81-1.41-3.38-1.44-5.74-.08-2.36,1.36-3.61,3.6-2.8,5.01.81,1.41,3.38,1.44,5.74.08Z"/>
        </g>
      </g>
    </g>
  </g>
</svg>