<?xml version="1.0" encoding="UTF-8"?>
<svg id="AC_icons" data-name="AC icons" xmlns="http://www.w3.org/2000/svg" viewBox="0 0 64 64">
  <defs>
    <style>
      .cls-1 {
        fill: #061a2f;
        stroke-width: 0px;
      }
    </style>
  </defs>
  <g id="Informational_icons" data-name="Informational icons">
    <g id="W">
      <g id="weather-sunny">
        <g>
          <path class="cls-1" d="m37.53,16.1c-.4-.47-1.02-.86-1.89-1.03-12.91-2.48-24.26,3.63-24.52,17.63-.27,14.86,16.15,21.03,28.47,17.39,11.92-3.53,17.96-16.64,10.38-27.39-2.84-4.01-7.64-6.37-12.44-6.6Zm6.21,25.5c-8.33,8.95-26.38,5.39-26.6-8.17.16-2.7.76-5.36,1.78-7.87,1.92-3.99,5.11-5.76,8.8-6.24-.62.54-1.22,1.12-1.75,1.8-5.15,6.58-.63,17.1,7.93,16.97,7.32-.1,9.29-6.2,5.02-11.75-1.86-2.4-7.1-.5-4.82,2.53v.05c1.52,2.03,1.82,4.82-1.02,4.49-4.7-.54-3.61-7.89-1.22-10.25.93-.86,2.01-1.54,3.18-2.03.18-.08.94-.28,1.1-.36.61-.05,1.21-.05,1.82.04,9.74,1.58,12,14.1,5.79,20.77Z"/>
          <path class="cls-1" d="m31.33,12.27c1.24,0,2.25-2.39,2.25-5.34s-1.01-5.34-2.25-5.34-2.25,2.39-2.25,5.34,1.01,5.34,2.25,5.34Z"/>
          <path class="cls-1" d="m29.08,51.73c-1.24,0-2.25,2.39-2.25,5.34s1.01,5.34,2.25,5.34,2.25-2.39,2.25-5.34-1.01-5.34-2.25-5.34Z"/>
          <path class="cls-1" d="m16.43,18.38c.88-.88-.1-3.28-2.18-5.37-2.08-2.08-4.49-3.06-5.37-2.18-.88.88.1,3.28,2.18,5.37,2.08,2.08,4.49,3.06,5.37,2.18Z"/>
          <path class="cls-1" d="m45.44,49.2c-.88.88.1,3.28,2.18,5.37,2.08,2.08,4.49,3.06,5.37,2.18.88-.88-.1-3.28-2.18-5.37-2.08-2.08-4.49-3.06-5.37-2.18Z"/>
          <path class="cls-1" d="m58.66,34.96c-2.95,0-5.34,1.01-5.34,2.25s2.39,2.25,5.34,2.25,5.34-1.01,5.34-2.25-2.39-2.25-5.34-2.25Z"/>
          <path class="cls-1" d="m10.67,33.13c0-1.24-2.39-2.25-5.34-2.25s-5.34,1.01-5.34,2.25,2.39,2.25,5.34,2.25,5.34-1.01,5.34-2.25Z"/>
          <path class="cls-1" d="m53.69,16.36c2.08-2.08,3.06-4.49,2.18-5.37-.88-.88-3.28.1-5.37,2.18-2.08,2.08-3.06,4.49-2.18,5.37.88.88,3.28-.1,5.37-2.18Z"/>
          <path class="cls-1" d="m12.17,49.53c-2.08,2.08-3.06,4.49-2.18,5.37.88.88,3.28-.1,5.37-2.18,2.08-2.08,3.06-4.49,2.18-5.37-.88-.88-3.28.1-5.37,2.18Z"/>
        </g>
      </g>
    </g>
  </g>
</svg>