<?xml version="1.0" encoding="UTF-8"?>
<svg id="AC_icons" data-name="AC icons" xmlns="http://www.w3.org/2000/svg" viewBox="0 0 64 64">
  <defs>
    <style>
      .cls-1 {
        fill: #061a2f;
        stroke-width: 0px;
      }
    </style>
  </defs>
  <g id="Informational_icons" data-name="Informational icons">
    <g id="W">
      <g id="weather-cloud">
        <path class="cls-1" d="m33.02,14.59c8.16,0,15.25,5.76,17.05,13.69l.36,1.8,1.8.12c5.28.12,9.48,4.56,9.36,9.97-.12,5.4-4.68,9.36-9.97,9.24H14.41c-6.6,0-12.01-5.4-12.01-12.01s5.4-12.01,12.01-12.01h.72l1.56.12.72-1.44c3-5.88,9-9.48,15.61-9.48m0-2.4c-7.44,0-14.29,4.2-17.65,10.81h-.96c-7.92,0-14.41,6.36-14.41,14.41s6.36,14.41,14.41,14.41h37.22c6.6.24,12.13-5.04,12.37-11.65.24-6.6-5.04-12.13-11.65-12.37h0c-1.92-9.12-9.97-15.61-19.33-15.61Z"/>
      </g>
    </g>
  </g>
</svg>