<?xml version="1.0" encoding="UTF-8"?>
<svg id="AC_icons" data-name="AC icons" xmlns="http://www.w3.org/2000/svg" viewBox="0 0 64 64">
  <defs>
    <style>
      .cls-1 {
        fill: #061a2f;
        stroke-width: 0px;
      }
    </style>
  </defs>
  <g id="Informational_icons" data-name="Informational icons">
    <g id="W">
      <g id="wetlands">
        <path class="cls-1" d="m56.22,56.78c-.52-3.38-.88-14-.88-14-1.01,1.41-1.89,2.91-2.63,4.48-.63,1.38-1.14,2.82-1.5,4.29.47-5.55,1.57-11.03,3.27-16.33,1.59-4.84,3.43-9.6,5.51-14.25,0,0-4.2,4.4-7.99,12.4-5.32,11.19-5.17,19-5.17,19,0,0-1.02-7.65-.85-11.13.17-3.47.45-4.4.45-4.4-.9,2.96-1.55,5.98-1.97,9.04-.03.21-.06.45-.09.69-1.15-5.85-3.16-10.31-3.16-10.31,0,0,.5,6.41.58,10.67.08,4.27-.58,10.5-.58,10.5,0,0-1.56-9.49-4.18-18.4,1.5-11.48,4.68-18.54,4.68-18.54,0,0-3.53,6.04-6.32,13.59-2.78-7.54-6.31-13.59-6.31-13.59,0,0,3.19,7.06,4.67,18.55-2.61,8.91-4.16,18.39-4.16,18.39,0,0-.67-6.24-.58-10.5.08-4.27.58-10.67.58-10.67,0,0-3.19,7.09-3.83,15.1-.18,2.21-.31,4.16-.41,5.83-.73-2.73-1.47-5.74-1.8-7.94-.75-5.03-1.66-16.76-1.66-16.76-1.51,2.1-2.82,4.32-3.93,6.66-.94,2.06-1.69,4.2-2.24,6.39.7-8.26,2.34-16.42,4.88-24.31,2.36-7.21,5.1-14.29,8.21-21.21,0,0-6.25,6.56-11.9,18.46-7.91,16.64-7.69,28.29-7.69,28.29,0,0-1.52-11.38-1.27-16.56.26-5.17.67-6.56.67-6.56-1.33,4.4-2.32,8.9-2.94,13.45-1.08,7.76-1.66,26.9-1.66,26.9h21.04s0,.02,0,.02h10.35s10.37,0,10.37,0c0,0,0-.02,0-.05h13.23s-2.27-3.69-2.78-7.17Z"/>
      </g>
    </g>
  </g>
</svg>