<?xml version="1.0" encoding="UTF-8"?>
<svg id="AC_icons" data-name="AC icons" xmlns="http://www.w3.org/2000/svg" viewBox="0 0 64 64">
  <defs>
    <style>
      .cls-1 {
        fill: #061a2f;
        stroke-width: 0px;
      }
    </style>
  </defs>
  <g id="Informational_icons" data-name="Informational icons">
    <g id="W">
      <g id="wifi">
        <g id="Standard_icons" data-name="Standard icons">
          <g id="Free_WiFi" data-name="Free WiFi">
            <path class="cls-1" d="m52.49,18.6H11.5c-6.35.01-11.49,5.15-11.5,11.5v3.81c.02,6.34,5.16,11.47,11.5,11.49h40.99c6.34-.01,11.48-5.15,11.51-11.49v-3.81c-.02-6.35-5.16-11.49-11.51-11.5Zm-32.94,20.61h-3.44l-1.19-6.21c-.27-1.46-.5-2.8-.67-4.45h-.04c-.25,1.63-.48,3-.81,4.45l-1.33,6.21h-3.48l-3.34-14.42h3.4l1.06,5.95c.32,1.71.6,3.58.84,5.03h.04c.23-1.56.56-3.28.92-5.07l1.19-5.91h3.38l1.12,6.08c.32,1.69.55,3.23.75,4.84h.04c.21-1.6.52-3.28.81-5.01l1.15-5.91h3.23l-3.63,14.42Zm8.26,0h-3.09v-10.3h3.09v10.3Zm-1.57-11.33c-.85,0-1.54-.7-1.53-1.56,0-.85.7-1.54,1.56-1.53s1.54.7,1.53,1.56c0,.85-.7,1.54-1.56,1.53Zm35.6,5.31c0,5.56-4.51,10.06-10.07,10.06h-23.63c1.67-1,4.71-3.36,4.71-7.36v-10.08s.54-4.13,4.52-5.05h14.4c5.56,0,10.06,4.5,10.07,10.05,0,0,0,0,0,0v2.38Z"/>
            <polygon class="cls-1" points="40.18 39.21 43.63 39.21 43.63 33.41 49.08 33.41 49.08 30.75 43.63 30.75 43.63 27.46 49.46 27.46 49.46 24.78 40.18 24.78 40.18 39.21"/>
            <path class="cls-1" d="m53.05,24.78c-.85,0-1.55.68-1.56,1.53,0,.85.68,1.55,1.53,1.56s1.55-.68,1.56-1.53c0-.85-.68-1.55-1.53-1.56h0Z"/>
            <rect class="cls-1" x="51.52" y="28.9" width="3.09" height="10.3"/>
          </g>
        </g>
      </g>
    </g>
  </g>
</svg>