<?xml version="1.0" encoding="UTF-8"?>
<svg id="AC_icons" data-name="AC icons" xmlns="http://www.w3.org/2000/svg" viewBox="0 0 64 64">
  <defs>
    <style>
      .cls-1 {
        fill: #061a2f;
        stroke-width: 0px;
      }
    </style>
  </defs>
  <g id="Informational_icons" data-name="Informational icons">
    <g id="W">
      <g id="wind-surfing">
        <g id="Windsurfing">
          <path class="cls-1" d="m19.5,26.56c-2.49,0-4.5-2.01-4.5-4.5s2.01-4.5,4.5-4.5,4.5,2.01,4.5,4.5-2.01,4.5-4.5,4.5"/>
          <polygon class="cls-1" points="38 24.56 38 2.56 47 2.56 60 24.56 38 24.56"/>
          <path class="cls-1" d="m60,28.56l-15,28.31h0c.76.31,1.56.49,2.38.53,1.7,0,4.5-1.41,6.45-2.13l3.23-1.12,1.62-.43,1.62-.16s.86-.05,1.42-.05,1.38.05,1.38.05l.9.16v4.11c-.54-.17-1.1-.26-1.66-.27-1,0-.33-.06-1.71,0-3.41.14-9.64,3.89-13.18,3.89-4.27,0-8.64-3.68-12-3.68-2.74,0-9.19,3.36-11.83,3.58h-2c-2.18-.06-7.85-3.1-10.37-3.1h-.8c-1.29.05-7.27,2.81-10.45,2.81v-4.05c2.7,0,8.17-2.78,10.09-2.78h1.39c3.19,0,8.55,3,10.7,3h1.18c1,0,3.66-1.21,6.34-2.18-.35-1.19-.8-2.71-1.38-4.45-.33-.88-.11-.88-1.59-1.69-3.84-2.1-9.49-5.32-9.69-5.4-1.76-.64-1.73-3.95-1.73-3.95v-6.61c.07-4.77,4.5-4.9,7.54-5.6,1.39-.32,11.77-2.54,12.47-2.67,1.21.02,2.18,1.03,2.16,2.24-.02,1.02-.74,1.89-1.74,2.11h0c-2.59.55-8.2,1.81-10.2,2.28-1.41.32-2.05.55-2.1,3.11-.11,5.05-.2,7.12.69,7.69l6.51,3.67c.35.34.66.71.93,1.12,1.16,2.76,2,5.21,2.54,6.88.62-.15,1.25-.23,1.89-.22h2v-25h22Z"/>
        </g>
      </g>
    </g>
  </g>
</svg>