<?xml version="1.0" encoding="UTF-8"?>
<svg id="AC_icons" data-name="AC icons" xmlns="http://www.w3.org/2000/svg" viewBox="0 0 64 64">
  <defs>
    <style>
      .cls-1 {
        fill: #061a2f;
        stroke-width: 0px;
      }
    </style>
  </defs>
  <g id="Informational_icons" data-name="Informational icons">
    <g id="W">
      <g id="wool-shed">
        <g id="Wool_shed" data-name="Wool shed">
          <path class="cls-1" d="m7.1,47.02L0,16.99h6.15l4.48,20.63,5.44-20.63h7.15l5.22,21.02,4.6-21.02h6.01l-7.23,30.03h-6.37l-5.93-22.45-5.91,22.45h-6.52Z"/>
          <path class="cls-1" d="m40.04,37.06l5.81-.55c.19,1.61.94,3.1,2.12,4.21,1.23.95,2.77,1.43,4.32,1.34,1.54.11,3.08-.31,4.34-1.2.88-.66,1.41-1.69,1.42-2.79.02-.64-.2-1.26-.61-1.75-.59-.6-1.33-1.03-2.14-1.26-.67-.24-2.26-.66-4.77-1.27-3.2-.78-5.44-1.74-6.73-2.87-1.74-1.44-2.74-3.58-2.72-5.84,0-1.48.45-2.92,1.28-4.14.9-1.33,2.19-2.35,3.68-2.94,1.85-.72,3.83-1.06,5.82-1,3.71,0,6.5.8,8.38,2.39,1.88,1.6,2.96,3.93,2.95,6.4l-6.01.26c-.12-1.24-.71-2.39-1.64-3.21-1.11-.74-2.44-1.09-3.77-1-1.43-.1-2.85.25-4.07,1-.61.4-.97,1.08-.95,1.8,0,.69.33,1.35.89,1.76.75.62,2.58,1.27,5.49,1.94,2.22.45,4.38,1.15,6.44,2.09,1.34.67,2.46,1.69,3.26,2.95,1.65,2.9,1.56,6.47-.23,9.29-.96,1.47-2.36,2.6-4,3.23-2.03.78-4.19,1.16-6.36,1.12-3.74,0-6.61-.85-8.61-2.54-2.11-1.92-3.39-4.57-3.58-7.42Z"/>
        </g>
      </g>
    </g>
  </g>
</svg>